<svg version="1.2" xmlns="http://www.w3.org/2000/svg" viewBox="0 0 73 4" width="73" height="4"><style>.a{fill:#de6b38}.b{fill:none}</style><path class="a" d="m1.3 2h0.1-0.1z"/><path fill-rule="evenodd" class="a" d="m5.3 3v0.4q-0.1-0.1-0.2-0.1c-0.2 0.1-0.5 0.2-0.8 0.2 0-0.1-0.1 0-0.1 0-0.2 0.1-0.1 0-0.2-0.1-0.1-0.1 0.1-0.1 0.2-0.2 0 0 0 0 0 0q-0.1-0.1-0.2-0.2c0 0.1 0 0.1 0 0.1-0.3 0-0.1 0.4-0.4 0.4-0.1 0-0.1 0-0.1 0 0 0.2-0.2 0.2-0.3 0.2q0 0-0.1 0 0 0 0 0l0.2 0.1h0.1q0 0.1-0.1 0.1l-1.3-0.1c-0.2 0-0.3 0-0.5 0q-0.1 0-0.2 0c0 0 0-0.1 0-0.1q0.1 0 0.2 0 0.1 0 0.2 0c-0.1 0-0.1-0.1-0.1-0.1q-0.2 0-0.4 0-0.1 0-0.1 0-0.1 0-0.1 0 0.1-0.1 0.2-0.1c0.2 0-0.1-0.1 0-0.1-0.3 0.1 0.4-0.6-0.4-0.3-0.1 0-0.3-0.1-0.4-0.1 0.1 0 0.1 0 0.2-0.1 0 0 0-0.1 0-0.1 0 0-0.1 0-0.1 0q0 0 0 0.1 0 0 0 0h-0.2c0-0.1 0-0.2 0-0.2q0.1-0.3 0.1-0.6c-0.1 0 0.1-0.1 0.1-0.1q0.2 0.1 0.3 0 0.1-0.1 0.2-0.1 0 0.1 0 0.1c0 0 0 0 0 0 0.1 0 0.1 0 0.2-0.1q0.1 0 0.2 0v0.1h-0.1q0 0-0.1 0 0.1 0 0.1 0h0.1l0.1-0.1c0.1 0 0.2 0 0.2 0 0.2 0.2 0.4 0.1 0.7 0q0 0 0 0l-0.1 0.1q0 0 0 0 0 0 0 0 0 0 0 0.1 0-0.1 0.1-0.1c0 0.1 0.1-0.2 0.1 0.1l0.5-0.1-0.2-0.1h0.2q0.1-0.1 0.2-0.1c0.2-0.1 0.4 0.1 0.6 0.1 0 0 0.1-0.1 0.1-0.1q0.1 0 0.2 0c0.3-0.1 0 0 0-0.1q0 0 0 0h0.2q0 0 0 0 0 0 0 0.1 0.1-0.1 0.2-0.1c0 0 0.1-0.1 0.1-0.1 0.1 0.1 0.2 0 0.3 0.1q0 0 0 0 0 0 0 0v-0.1c0.1 0 0.1 0.1 0.1 0.2 0 0-0.1 0-0.1 0.1 0 0 0.1 0.1 0.1 0.1 0.1 0.1 0.2 0.1 0.2 0.1q0 0.1 0.1 0.1v0.5c-0.1 0-0.1 0-0.1 0h-0.1-0.1c0.2 0.1 0.2 0.2 0.3 0.3zm-3.1-0.1q-0.1 0-0.2 0-0.2 0-0.2 0.1 0.1 0.1 0.2 0.1 0.1-0.1 0.2-0.2zm0.9-0.2q-0.1 0-0.1 0l-0.6 0.1q0 0.1-0.1 0.1h0.2c0.1-0.1 0.1 0.2 0.2 0 0.1-0.1 0.2-0.1 0.4-0.2zm1.8 0.1c0-0.1-0.2 0-0.3 0-0.1-0.1 0.1 0.1-0.1 0.1l0.3 0.1q0-0.1 0.1-0.2z"/><path class="a" d="m5.2 3.5c-0.1 0.1-0.3-0.1-0.4 0.1q0-0.1 0-0.1c0 0-0.1 0-0.1 0-0.1 0.2 0.2 0.1 0.2 0.2h0.1q0 0 0-0.1c0.2-0.1 0.1 0 0.1 0.1h0.2v-0.2q0 0-0.1 0z"/><path class="a" d="m4.6 3.6c-0.2 0-0.4 0-0.2 0.2 0-0.1 0-0.2 0.3-0.1q0-0.1-0.1-0.1z"/><path class="a" d="m4.4 3.8z"/><path class="a" d="m4.4 3.9v-0.1l-0.1 0.1z"/><path class="a" d="m3.9 3.6q0 0 0 0.1 0.1 0 0.2 0.1c0.1 0 0.1-0.1 0.1-0.1 0-0.1-0.2-0.1-0.3-0.1z"/><path class="a" d="m5.3 1.9q0 0 0 0v-0.1z"/><path fill-rule="evenodd" class="b" d="m13.7 3c-0.1 0-0.2-0.1-0.2-0.1-0.2 0-0.1-0.1-0.1-0.1h-0.8q-0.1 0-0.1 0.1 0 0 0.1 0c0.1 0.1-0.3 0.1-0.2 0.2 0 0 0 0 0 0h-0.6q0.1 0 0.1 0c0-0.1 0-0.1 0-0.1 0-0.1-0.2-0.1-0.1-0.3h-0.1q0 0 0 0.1 0 0 0 0.1h-0.3q0.1 0 0.1-0.1l0.1-0.1h-0.2q0.1 0 0.1 0.1 0 0-0.1 0c-0.1 0.1-0.2-0.1-0.3 0v-0.3q0.1 0.1 0.2 0.1c0.3 0.1 0.5-0.1 0.7-0.2q0 0 0 0.1 0 0 0 0v0.1q0 0 0.1 0c0-0.1 0.2 0 0.1-0.1 0-0.1 0-0.1 0-0.2q0.2 0 0.3 0l-0.1 0.1c0.1 0 0.3 0 0.4 0.1 0.1-0.2 0.4 0 0.6-0.1 0.1 0 0.2 0 0.4 0 0 0 0 0.1 0.1 0.2q0 0 0.1 0.1 0.1 0 0.2 0c0 0.1 0 0.1 0 0.2-0.1 0.4-0.3-0.1-0.4 0 0 0.2-0.1 0-0.1 0.1zm-0.6-0.4q-0.2 0-0.3 0c0-0.1-0.1 0-0.1 0 0 0.1 0.1 0.1 0.1 0.1q0.1 0 0.3-0.1zm0.5 0.1l0.2 0.2c0.1 0 0.2 0.1 0.2 0 0.2-0.1-0.1 0-0.1-0.1 0-0.2-0.2-0.3-0.3-0.1z"/><path class="a" d="m36.2 2.9v0.1-0.1z"/><path class="a" d="m16.6 2.7z"/><path class="a" d="m47 2.4z"/><path fill-rule="evenodd" class="a" d="m65.6 1.8v0.3l-0.2-0.2q-0.1 0-0.1 0 0 0 0 0.1 0.1 0.1 0.1 0.3c0 0 0 0-0.1 0.1-0.2-0.4 0 0.1-0.2 0-0.1-0.1-0.4 0.1-0.6-0.1 0-0.1-0.1-0.3-0.4-0.1q0-0.1 0-0.1c0-0.2 0 0-0.1 0-0.2-0.1-0.2 0-0.4 0.1q0 0-0.1-0.1c0 0 0 0 0 0-0.1 0.2-0.4 0.1-0.6 0.1-0.1 0-0.3-0.1-0.4-0.1q0 0 0-0.1c-0.1 0.1-0.2 0.1-0.2 0.2 0.1 0.1-0.1 0.1-0.2 0.2-0.1-0.1-0.3 0.1-0.5-0.1-0.2-0.1-0.5-0.1-0.7 0.1 0-0.1-0.1-0.2-0.1-0.2-0.2-0.1-0.4-0.1-0.2-0.3 0 0-0.1 0-0.1-0.1v0.1c-0.3-0.1-0.2 0.1-0.2 0.2 0.1 0.3-0.4 0-0.4 0.2q0 0-0.1 0-0.1-0.1-0.2 0c0 0 0 0-0.1 0q0 0 0 0l0.1-0.1q-0.1 0-0.1 0h-0.2c-0.2 0.1 0.1 0.3-0.2 0.3l-0.4-0.1c0 0 0.1 0 0.1-0.1 0-0.2-0.4-0.1-0.5-0.3q0 0-0.1-0.1l-0.1 0.2c0.1 0 0.1 0.1 0.1 0.2-0.1 0-0.5 0.1-0.6 0-0.1-0.1-0.1 0-0.1 0q-0.2 0-0.4-0.1c-0.1 0-0.2 0-0.2 0-0.2 0.5-0.4 0.2-0.6 0.1-0.1-0.1-0.4-0.1-0.5 0-0.2 0.1-0.2-0.2-0.3-0.1l-0.1 0.1c0-0.1-0.1-0.1-0.1 0 0.1 0.1-0.2 0-0.1 0.1-0.1 0-0.2 0.1-0.1 0-0.2-0.1-0.4-0.1-0.6-0.1-0.2 0-0.4 0.1-0.6 0.2q-0.1 0-0.2 0 0.1-0.1 0.1-0.2 0.1 0 0.1-0.1-0.1 0-0.1 0.1c-0.1 0.1-0.2-0.2-0.3 0q-0.1 0-0.2 0.1 0.1 0 0.2 0c0.1 0 0.1-0.1 0.2 0 0 0.1-0.1 0.1-0.2 0.1-0.2 0-0.4 0-0.5 0-0.2-0.2-0.5 0-0.8-0.2q0 0.1 0 0.1 0 0 0.1 0c0 0.1 0.2 0.1 0.1 0.2 0 0 0 0 0 0-0.1 0-0.1 0-0.1-0.1-0.1 0-0.2-0.1-0.4 0-0.2 0.1-0.4-0.2-0.7-0.1q-0.2 0.1-0.4 0c0-0.1-0.2 0-0.3 0q-0.2 0.1-0.4 0.2c0 0 0-0.1-0.1-0.2-0.1 0.1-0.2 0-0.2 0-0.2 0.2-0.5 0.1-0.8 0.2-0.2 0.1-0.6 0.1-0.9 0.1-0.3 0 0.1-0.2 0-0.1-0.3 0-0.6 0.1-0.8 0.1q0 0-0.1 0.1 0-0.1 0-0.1 0 0 0.1 0 0-0.1 0.1-0.1c-0.1 0-0.2-0.1-0.3-0.1-0.1 0-0.1-0.1-0.1-0.1 0.2 0 0.3 0 0.4 0 0.1-0.3 0.4 0 0.5-0.2q0 0.1 0 0.1 0 0 0 0h-0.1q0 0 0 0.1h0.3q0-0.1 0-0.1v0.1c0.2-0.1 0-0.3 0.3-0.3-0.3 0-0.5-0.1-0.8 0-0.2 0-0.6-0.1-0.6 0.3-0.2-0.1 0 0.1-0.1 0.2-0.2 0-0.2 0-0.3-0.1 0 0-0.2 0-0.2 0 0 0.3-0.4 0-0.6 0.2 0 0-0.1 0.1-0.1 0-0.1-0.1-0.3 0-0.4 0-0.2 0-0.3 0.1-0.3 0.2-0.1 0.1-0.2 0.1-0.2 0.1q-0.1-0.1-0.1-0.2c0-0.1 0.1-0.1 0-0.1-0.1-0.1-0.1 0-0.2 0q0-0.1 0-0.2-0.1-0.1-0.1-0.2c0 0 0 0.1 0 0.1 0.1 0.1-0.2 0.1-0.2 0.2 0.1 0.2-0.1 0.1-0.2 0.1-0.1 0-0.3 0.1-0.3-0.1 0 0 0 0.1 0 0.1-0.1 0.1-0.1 0.1-0.2 0.1h0.1q0.1 0 0.1 0c-0.2 0-0.1 0.3-0.3 0.2q0 0 0-0.1h0.1q-0.1-0.1-0.3-0.2c0 0-0.1 0-0.1 0.1q-0.1 0-0.1 0.1c-0.1 0-0.1 0.1-0.1 0.1-0.1 0-0.1 0-0.1-0.1-0.1-0.3-0.3 0.1-0.4 0 0 0-0.1 0.1-0.1 0.1q0-0.1-0.1-0.1c0 0 0.1 0 0.1-0.1q0.1 0 0.2 0c0-0.1-0.1-0.1-0.2 0-0.3 0.1-0.4-0.1-0.6-0.1q-0.1 0-0.1 0h0.1q0 0.1 0 0.1h-0.3q-0.1 0-0.1 0c0 0.1 0 0.1 0 0.1q0 0 0.1 0-0.1 0-0.2 0c-0.1 0-0.2 0-0.1-0.1q-0.1 0-0.2 0 0-0.1 0-0.1c0 0.1-0.1 0.1 0 0.2 0 0 0 0.1 0 0.1l-0.2-0.1q0.1 0 0.1 0 0 0 0 0l-0.1-0.2c0 0 0 0.1 0 0.1-0.2 0-0.4 0.2-0.6 0.1-0.1-0.1-0.1 0.1-0.2 0 0.1 0.1 0.1 0.1 0.1 0.1 0.2 0.1 0.1 0.1 0.1 0.2-0.1 0-0.1 0-0.2 0 0 0-0.1 0-0.1-0.1q0-0.1-0.1-0.2c0 0 0 0.1 0 0.2 0 0-0.1 0.1-0.1-0.1 0 0-0.1 0-0.2 0q0.1 0 0.2-0.1c0 0 0.1 0 0.1 0q-0.1-0.1-0.2-0.2 0 0.1 0 0.1-0.1 0.1-0.1 0.1c-0.1-0.1-0.3 0-0.3-0.1 0 0-0.1-0.1-0.1-0.1q0 0 0 0.1c0 0 0 0 0 0 0 0.1 0.1 0.2 0 0.1-0.2 0-0.3 0-0.4 0-0.1-0.1-0.1-0.1-0.2-0.1 0 0.1-0.2 0.1 0 0.2q0 0 0 0c-0.1 0-0.2 0-0.2 0-0.1-0.1-0.2 0-0.2 0 0.1 0.5-0.6 0.1-0.7 0.3q0 0 0 0 0-0.1 0-0.1 0.1-0.1 0.2-0.2-0.1 0-0.1 0c0 0.2-0.5-0.1-0.5 0.2 0 0.1 0 0.1 0 0.1q-0.2 0.1-0.4 0.1c0.1-0.1 0.1-0.1 0.2-0.2 0.1 0 0.1-0.1 0.1-0.2q0-0.1-0.1-0.1v0.2q0 0 0 0-0.1 0-0.1 0c0-0.1 0-0.2-0.2-0.1-0.2 0.1-0.2 0-0.2 0v-0.1l0.1-0.1h0.3q0 0.1 0 0.1 0-0.1 0-0.1 0-0.1 0-0.2 0 0 0.1 0 0 0 0.1 0c-0.1 0-0.1-0.1-0.1-0.1-0.1 0-0.2 0-0.2 0-0.1 0.1-0.1 0.2-0.1 0.2-0.2 0 0-0.2-0.1-0.2-0.1-0.1 0 0.2-0.1 0 0 0 0-0.1-0.2-0.1-0.3 0-0.3 0.1-0.2 0.2q0 0.1 0.1 0.2 0.1-0.1 0.1-0.1 0 0 0-0.1l-0.1-0.1c0 0 0.1 0 0.1 0 0 0.1 0.1 0.1 0.1 0.2 0 0.1-0.1 0.2 0.1 0.2v0.1c0 0.1-0.1 0-0.2 0-0.3-0.2-0.2 0.1-0.3 0.2-0.1-0.1-0.3 0-0.3 0-0.2-0.1-0.6 0.1-0.6-0.3-0.1 0.4-0.1-0.1-0.2 0 0 0 0 0 0 0 0 0-0.1 0.1 0 0.1 0.2 0-0.2 0.1-0.1 0.2-0.1 0-0.2-0.1-0.3-0.1-0.1-0.1-0.3-0.1-0.5 0-0.2 0 0.1 0.1-0.1 0.2-0.3 0.2-0.2-0.2-0.4-0.2 0-0.1-0.2 0.1-0.2 0q0 0 0 0.1c-0.2 0-0.2-0.2-0.3-0.1-0.2 0-0.4 0-0.6 0-0.2 0 0.1 0.1 0 0.1q0 0.1 0 0.1c-0.1-0.1-0.3 0-0.4-0.1q-0.3-0.2-0.4 0 0 0.1-0.1 0.1 0 0-0.1 0 0.1-0.1 0.1-0.1 0 0 0 0c-0.1-0.1-0.2-0.3-0.3-0.3-0.2 0.1-0.1-0.2-0.2 0 0 0 0 0.2 0 0.3-0.1 0-0.2 0-0.2 0.1 0 0 0-0.1 0-0.1-0.1 0-0.1 0-0.2 0-0.2 0.1-0.4 0-0.5-0.1-0.2 0.2-0.4 0-0.6 0.1q0 0 0 0c-0.4-0.2-0.8 0.1-1.2 0q-0.3 0-0.5 0c-0.1 0.1-0.3 0.2-0.4 0.2 0 0.1 0 0.1 0 0.1 0 0-0.2 0.1-0.2-0.1 0 0-0.1 0-0.1-0.1q0 0.1 0 0.1v0.1c-0.1 0-0.1-0.1-0.1-0.1 0 0-0.1-0.1 0.1-0.1 0.2 0 0.1-0.1 0-0.1-0.1 0.1-0.1 0-0.2 0h-0.8l-0.7 0.1c0 0.2-0.3 0-0.3 0.1h-0.1c0-0.3-0.3-0.1-0.5-0.2 0 0 0 0.1 0 0.1 0 0 0 0.1 0 0.1q0.1 0 0.1 0l-0.2 0.1-0.1-0.1-0.1-0.3v0.2q0 0 0 0c-0.2-0.1-0.2-0.1-0.4 0 0 0-0.1 0-0.2 0l-0.9 0.2q0 0 0 0l0.1 0.1q0 0 0 0c-0.2 0.1-0.3 0.1-0.5 0 0.1 0.1 0.1 0 0.2-0.1 0 0 0.2-0.1 0.3-0.1q0 0 0.1 0 0-0.1 0-0.1c-0.1-0.1-0.3 0.1-0.3 0-0.1 0-0.3-0.1-0.2 0.1-0.1 0-0.1 0-0.1 0-0.4-0.3-0.9 0-1.4-0.2-0.1 0-0.3 0.1-0.5 0.2 0.1 0.1-0.1 0.1-0.2 0.1-0.1 0 0.2-0.2 0-0.2-0.2 0.1-0.2 0.3 0 0.4q0 0 0 0.1 0 0 0 0h-0.1q0-0.1 0-0.1 0 0.1 0 0.1v0.1l-0.3-0.2c-0.1-0.1 0.1 0.1 0 0.1q-0.1 0-0.1 0c0.1 0.1-0.2 0-0.1 0.1q0 0 0.1 0l-0.1 0.1c0-0.3-0.3 0-0.4-0.1-0.1-0.1-0.5 0.1-0.6 0-0.3-0.1-0.5 0.1-0.8 0q-0.1 0-0.3-0.1c-0.1-0.2-0.1 0.1-0.3 0.1-0.2 0.1 0.1-0.1-0.1-0.1-0.3 0.1 0.1 0 0 0q-0.1 0-0.1 0-0.1-0.1-0.2-0.1c0 0-0.1 0-0.1 0.1q0.1 0 0.1 0.1c-0.2 0-0.5 0-0.6-0.1-0.3-0.1-0.4-0.1-0.5 0.1-0.2-0.2-0.3 0.1-0.5 0-0.1-0.1-0.5 0-0.7 0q-0.1 0-0.1 0c0.1 0-0.2-0.2 0.1-0.1q0 0 0-0.1 0 0-0.1 0-0.1 0.1-0.2 0.1c0 0 0 0.1 0 0.1h-0.4q-0.1-0.1-0.2-0.1-0.5 0.1-1 0.1-0.4 0-0.9 0h-0.5c-0.2-0.1-0.4-0.1-0.6-0.1-0.4 0.1-0.8 0.1-1.2 0-0.3 0-0.5 0.1-0.7 0-0.2-0.2-0.3 0.1-0.4 0-0.2-0.2-0.5 0.1-0.8 0-0.1-0.1-0.2-0.3-0.3-0.2-0.2 0-0.2-0.1-0.4-0.1-0.1 0-0.2 0-0.3 0-0.2-0.1-0.3-0.2-0.5-0.3q0 0 0 0c-0.1 0.3-0.2 0.2-0.4 0.1v-0.5c0.1 0.1 0.2 0.1 0.3 0.1 0.3-0.1 0.5 0.2 0.8 0 0 0 0.1 0.1 0.1 0.1 0.1-0.1 0.2-0.1 0.2-0.2 0-0.1-0.1 0-0.2 0-0.1 0-0.2 0-0.1-0.1q0.1-0.1 0.1-0.1c-0.2 0-0.5-0.1-0.7 0.1 0 0-0.1 0-0.2 0q0 0 0-0.1 0 0-0.1-0.1c0 0-0.1 0-0.1 0.1 0 0.2 0 0.1-0.1 0v-0.6c0 0.1 0-0.1 0.1 0q-0.1-0.1-0.1-0.1v-0.1q0 0 0.1 0c0.1-0.1 0.3 0 0.2-0.2q0-0.1 0-0.1 0 0 0.1 0 0 0 0 0c-0.1 0.2 0.1 0 0.1 0.1 0.1 0 0 0.1 0.1 0.2 0.1 0 0.1-0.1 0.1-0.2 0-0.1 0.1-0.1 0.3 0 0.1 0 0.1-0.1 0.2-0.2 0.1 0 0.3 0 0.4 0.1 0 0 0 0 0 0 0.1 0.1 0-0.2 0.1 0 0.1 0 0.2 0 0.3-0.1 0.3-0.2 0 0.2 0.2 0.1 0 0.1 0 0.2 0.1 0.1 0-0.1 0.1 0 0.1 0q0.1 0 0.1 0.1l-0.1-0.1q-0.1 0-0.1 0.1c0.1 0 0.1 0.1 0.2 0.1q0.4 0.1 0.8 0.1c0.1 0 0.1 0 0-0.1q0 0-0.1 0c-0.1 0-0.3 0.1-0.2-0.1 0 0 0.3 0 0.3-0.1 0.2-0.2 0.5 0.2 0.6-0.1q0 0 0-0.1 0 0-0.1 0c-0.1 0.1-0.1 0.1-0.3-0.1 0.2 0.1 0.4 0.1 0.5 0.1 0.3-0.1 0 0.1 0.1 0.1 0.1 0 0.2-0.1 0.3-0.1 0-0.1 0.1-0.1 0.2-0.1q-0.1 0.1-0.1 0.2 0 0 0 0c0.1 0 0.1-0.1 0.2 0 0.3 0.1 0.4-0.1 0.6-0.2 0.3-0.1 1.3 0 1.5 0.2 0.1 0.2 0-0.1 0.1 0 0.1 0.2 0.3 0 0.3-0.1 0-0.3 0.2 0 0.3-0.1 0.1-0.1 0.3 0 0.5 0 0 0 0 0 0 0 0.1 0.3 0.3-0.2 0.4 0 0.1-0.2 0.4 0.3 0.5 0 0 0.2 0.3 0 0.4 0.2-0.1 0-0.1 0-0.1 0 0 0 0 0.1 0 0.1q0 0 0.1 0.1 0-0.1 0-0.1 0 0 0 0c0.2 0 0.3-0.1 0.4 0 0.2 0.1 0.1 0.2 0 0.2q0 0 0 0.1l0.4-0.1-0.1-0.1c0-0.1 0-0.1 0-0.2 0.1 0 0.3-0.2 0.4 0 0 0 0.1 0 0.1 0l0.1-0.1q0 0.1 0 0.1c0 0-0.1 0.1-0.1 0.1q0.2 0.1 0.3 0.1l-0.2-0.1q0 0 0 0c0.2 0.1 0.4 0 0.6 0v-0.1q0.1 0 0.1 0 0.2-0.1 0.4-0.3 0 0 0.1 0c0 0.1 0.3 0 0.2 0.1 0 0.1 0.1 0.1 0.1 0.2q0-0.1 0-0.2c0 0 0.1 0 0.1 0l0.5-0.1q0 0.1 0 0.2 0 0 0 0.1 0 0 0 0c0 0 0.1-0.1 0.1-0.1 0.1 0 0.1 0.2 0.3 0.1 0.1 0 0.2-0.2 0.2-0.3 0 0 0 0 0 0 0.1-0.1 0.3-0.1 0.4-0.1 0.1 0.1 0.2-0.1 0.4 0q0 0 0.1 0l-0.1 0.2q0-0.1-0.1-0.1c0 0 0-0.1 0-0.1l-0.2 0.1q0.1 0 0.1 0l0.1 0.1q0 0 0 0-0.1 0-0.2 0 0 0-0.1 0v0.2h0.1c0.1 0 0.2 0 0.2 0 0 0.1-0.1 0-0.1 0l-0.1 0.1q0.1 0 0.3 0 0.3 0 0.7 0c0 0 0-0.1 0-0.1q0 0-0.1-0.1c-0.2 0 0-0.2-0.1-0.2h0.2l-0.1 0.1q0 0 0 0.1 0.1-0.1 0.1-0.1 0-0.1 0-0.1 0-0.1 0-0.1 0.1 0 0.1 0l0.7 0.3c0.1-0.4 0.2 0 0.3 0 0.3 0 0.1-0.1 0.1-0.2 0.2-0.1 0.5 0 0.7-0.1 0.3 0 0.5-0.1 0.8-0.1q0.1 0.1 0.2 0.1c-0.1 0-0.1 0.1-0.1 0.1q-0.1-0.1-0.2-0.1v0.1q0.2 0 0.4-0.1c0.1 0 0.2 0.1 0.2 0.1 0.2 0.1 0.2-0.2 0.3-0.1q0 0 0.1 0 0 0-0.1 0.1 0 0-0.1 0c0 0.1 0.1 0.1 0.1 0.1q0.1 0 0.1-0.1 0.1-0.1 0.1-0.1c0.1 0 0.1 0 0.2 0 0.2 0.1-0.1 0.1-0.1 0.1 0 0 0.1 0.1 0.1 0.1 0.1 0 0.2-0.1 0.2 0 0.1 0 0.2 0 0.2 0.1q0 0.1 0 0.1 0 0 0.1 0l0.2-0.1-0.1 0.1q0 0 0 0.1h0.3q0 0 0-0.1c-0.2 0.1 0.3-0.3-0.2-0.2 0 0.1-0.1 0 0 0 0-0.1 0.1 0 0.1-0.1 0-0.1-0.4-0.1-0.2-0.3 0.1 0 0.2 0.1 0.2 0.2q0 0.1 0.1 0.1 0-0.1 0-0.1 0 0 0.1-0.1 0 0.1 0.1 0.1c0 0.1 0 0.1 0 0.1q0 0 0 0 0 0 0-0.1l0.1-0.1h0.1c0.2 0.1 0.4 0.2 0.5-0.1 0 0 0.2 0 0.3 0 0 0 0 0.1 0.1 0.1q-0.1 0-0.2 0c0 0-0.1 0-0.1 0 0 0.1-0.3 0.2-0.1 0.3 0.1 0.1 0.1 0 0.1 0q0-0.1 0-0.1c0-0.2 0.2-0.1 0.4-0.1 0.1-0.1 0.2-0.1 0-0.2q0.1 0 0.2 0c0.1 0 0.1 0 0.1 0.1q0 0 0 0 0 0 0 0 0.3-0.2 0.5 0 0 0 0 0.1l-0.1-0.1q0 0 0 0c0 0.1-0.1 0.1-0.1 0.1 0 0.1 0.1 0.1 0.1 0.1q0 0 0 0l0.2-0.1c0 0 0.1 0 0.1 0-0.1 0.1-0.2 0.1-0.1 0.1l-0.1 0.1h0.3c0 0-0.1-0.1-0.1-0.2 0.2-0.1 0.3-0.2 0.4-0.3 0.2 0 0.1 0.1 0.1 0.2q0 0 0.1 0c0-0.3 0.4 0 0.5-0.2q0 0 0.1 0c-0.1 0.1 0.2-0.1 0.1 0.1q0.2 0 0.3 0l0.8-0.1c0.3 0 0.5 0 0.7 0 0.5-0.1 1-0.1 1.5 0.1 0.2 0 0.5-0.2 0.8-0.1 0.1 0 0.4-0.2 0.5 0 0.2 0.3 0.4-0.1 0.6 0 0.3 0 0.5-0.1 0.8-0.1 0.2 0 0.4 0.1 0.5 0.3q0.1 0 0.1 0 0 0 0-0.1 0 0 0-0.1 0.1 0 0.2 0.1c0 0 0 0 0 0.1 0.1-0.1 0.1-0.2 0.1-0.2-0.1-0.2 0.2 0 0.2-0.1h0.7c0.1 0-0.1 0.1 0.1 0.1 0.2 0.1 0.5-0.1 0.7-0.1 0.2 0 0.3-0.1 0.4 0.1 0.3-0.2 0.1 0.1 0.3 0 0 0 0.1 0 0.1 0 0-0.1-0.2-0.1-0.1-0.1 0.3-0.1 0.6-0.1 0.8 0.1q0 0 0.1 0.1 0-0.1 0-0.1v-0.1q0 0 0.1 0.1c0 0 0 0.1 0.1 0.1 0.1-0.1 0.1-0.2 0.1-0.2 0.1 0 0.2 0 0.3 0l-0.1 0.2q-0.1 0-0.2 0 0 0-0.1 0l0.6 0.1q0 0 0.1-0.1h-0.2c0 0.1-0.1 0-0.2 0 0.1-0.1 0.2-0.2 0.3-0.2 0 0.2 0.2 0.1 0.2 0.1 0.2 0.1 0-0.1 0.1-0.1 0.3-0.2 0.3 0.1 0.4 0.1 0.1 0 0.1 0.1 0.1 0 0 0 0.1 0 0.1-0.1 0.2-0.1 0.2-0.2 0.5 0 0 0 0.3-0.1 0.5-0.1 0.2 0 0.5-0.1 0.7 0.1q0 0 0 0c0.1-0.2 0.2 0 0.3 0 0.1 0 0.2-0.1 0.4-0.1q0.7 0 1.3 0c0.2-0.1 0.4 0.1 0.6-0.1 0 0 0 0.1 0 0.1q0.1 0 0.2 0 0.2 0 0.5 0c0.1 0.1 0-0.1 0.2-0.1 0.4 0.1 0.9 0 1.3 0h0.6 0.6c0 0.1 0.1 0 0.1 0 0.3-0.2 0.6 0.2 0.8 0 0-0.1 0.2 0 0.3 0 0.1 0.1 0.2 0.1 0.4 0 0.3-0.1 0.7-0.1 1.1 0q0.3 0 0.6 0 0.1 0 0.1 0 0 0.1 0 0.2c0.2-0.1 0-0.2 0.1-0.2q0 0 0 0l0.2 0.1c0-0.1 0-0.1 0-0.1 0.2-0.1 0.3-0.1 0.5-0.1 0.2 0 0.4 0 0.7 0 0.4 0.1 0.8 0 1.3 0 0.3 0 0.7-0.1 1.1 0 0.2 0.1 0.4-0.1 0.6 0 0.1 0 0.3 0.1 0.3 0.1 0.2-0.1 0.3 0 0.5 0 0.3 0.1 0.7-0.1 1 0 0.1 0 0.3-0.1 0.4-0.1 0.1-0.1 0 0.1 0.2 0 0.4-0.1 0.8-0.1 1.2 0 0.2 0.1 0.2 0.1 0.3-0.1 0 0.1 0.1 0.1 0.1 0.1 0.2 0 0.4-0.1 0.6-0.1q0.5 0 1 0c0.7 0 1.3 0.1 2 0 0 0.2 0.2-0.1 0.2 0 0 0 0.1 0 0.2 0h-0.1q0 0 0 0 0-0.1 0-0.1l0.5 0.1q0 0 0.1 0l0.6-0.1c0 0 0-0.1 0-0.1 0.1 0 0.2 0 0.2 0q0 0.1 0.1 0.1zm-52.1-0.1q0.2 0 0.3 0 0.1 0 0.1 0c-0.1-0.1-0.2-0.2-0.3-0.3-0.3 0 0.2 0.2-0.1 0.3zm-3.3 0.7q0 0 0.1 0c0 0.1 0.2 0 0.3 0.1 0 0 0.1-0.1 0.1-0.1-0.1-0.1-0.2-0.1-0.4 0v-0.1q0 0 0 0-0.1 0-0.1 0.1zm-2.3 0.6q0 0.1 0.1 0.2 0.1-0.1 0.2-0.2-0.1-0.1-0.2-0.1c0 0-0.1 0.1-0.1 0.1zm-0.8-0.3c0.1 0 0.2-0.1 0.2-0.1-0.2-0.2-0.5 0.1-0.6-0.1q-0.1 0-0.1 0.1c0.1 0.2 0.4-0.1 0.5 0.1zm0 0.4c0 0 0 0 0 0q-0.1 0-0.2 0l0.2 0.2h0.1q-0.1-0.1-0.1-0.1c-0.1-0.1 0.2 0 0-0.1zm0.4-0.1c0.1 0 0.1-0.1 0.2-0.1q-0.3 0-0.6 0 0 0 0 0 0.2 0.1 0.4 0.1zm1.5 0.5q-0.1 0-0.2 0h0.1v0.1q-0.1 0-0.1 0-0.1 0-0.1 0c-0.2-0.1-0.5-0.3-0.8-0.2-0.1-0.1-0.2-0.1-0.3 0.1q0.1 0 0.2 0 0.1-0.1 0.1-0.1c0.1 0 0.3 0 0.1 0.1q0.4 0.1 0.8 0.2c0.1 0 0.1-0.2 0.1 0q0.1-0.1 0.1-0.1c0 0 0-0.1 0-0.1zm1.7 0h-0.4c0 0-0.1 0-0.1 0.1q0 0 0.1 0 0 0.1 0.1 0.2 0.1-0.1 0.1-0.1c-0.3-0.2 0-0.1 0.1-0.1zm0.1-0.7q0 0 0.1-0.1c0 0-0.1 0-0.1 0h-0.1q0-0.1 0-0.1 0 0 0.1 0c0.2 0 0.4 0 0.1 0.2q0 0 0 0c0 0 0.1 0.1 0.1 0.1q0.1-0.1 0.2-0.2c-0.1 0 0-0.2-0.3-0.2-0.1 0.1-0.2 0-0.3 0-0.1 0-0.2 0-0.2 0.1-0.3-0.2-0.7 0.1-1 0 0-0.1-0.1 0-0.2 0 0 0 0 0.1 0 0.1q0 0.1 0.1 0.1-0.1 0-0.3 0-0.1 0-0.2 0 0 0 0 0 0.1 0 0.2 0.1 0.1 0 0.2 0 0 0 0 0c0 0-0.1 0-0.1 0 0.1 0.1-0.2 0 0 0.1q-0.2 0-0.2 0.2c0.1 0 0.1 0 0.1 0h0.3q0 0-0.1 0-0.1 0.1-0.2 0.1c0 0 0.1 0 0.2 0q0.1 0 0.2-0.1c0.2-0.2-0.2-0.1-0.2-0.2 0.3 0.1 0.3-0.2 0.5-0.3 0.2 0 0.4 0 0.6 0q0 0 0.1 0 0 0-0.1 0.1 0 0 0 0c-0.3-0.1-0.4 0.2-0.6 0.1q0 0 0 0.1 0.1 0 0.1 0c0.1-0.1 0.1 0 0.1 0.1-0.1 0-0.2 0 0 0.1 0 0 0 0.1 0 0.1q0 0.1 0 0.1c0.1 0 0.2 0 0.2 0q-0.1-0.2-0.2-0.3c0.1 0 0-0.2 0.2-0.1 0.1 0 0.3 0 0.4-0.1 0 0 0 0 0 0-0.1-0.2 0.3 0 0.2-0.2zm0.6 0.5q-0.1-0.1-0.2-0.1h-0.2q0 0 0 0 0 0 0 0 0 0.1 0.1 0.2c0 0-0.1 0-0.1 0.1l0.4-0.2q0 0 0 0zm-0.4-0.4c-0.1 0.1 0 0.2-0.1 0.2-0.1 0-0.1 0.1-0.1 0.1 0.1 0 0.1-0.1 0.2 0 0-0.1 0.2-0.2 0-0.3zm0 0.3q0 0 0 0 0 0 0 0zm1 0l-0.1 0.1-0.2 0.1c-0.1-0.2-0.2 0-0.2 0 0 0 0.1 0.1 0.1 0.1 0 0.1 0.2 0.1 0.1 0.2q0 0-0.1 0 0 0 0 0 0.1 0 0.1 0c0.2 0 0-0.1 0.1-0.1q0-0.2 0.1-0.1c0.2 0 0.4-0.1 0.4-0.2 0-0.1-0.3 0.1-0.3-0.1zm0.7 0.1c-0.1-0.1 0 0.3-0.2 0.1v0.3c0.1-0.1 0.1-0.2 0.3-0.3 0 0 0-0.1-0.1-0.1zm1.1-0.3c0-0.1 0.1 0.1 0.1-0.1 0.1-0.1 0.3 0.3 0.4 0 0-0.1 0-0.1 0-0.2q-0.1 0-0.2 0-0.1-0.1-0.1-0.1c-0.1-0.1-0.1-0.2-0.1-0.2-0.2 0-0.3 0-0.4 0-0.2 0.1-0.5-0.1-0.6 0.1-0.1-0.2-0.3-0.1-0.4-0.1l0.1-0.1q-0.1 0-0.3 0c0 0 0 0.1 0 0.2 0.1 0.1-0.2 0-0.1 0.1q-0.1 0-0.1 0v-0.1q0 0 0-0.1 0 0 0 0c-0.2 0.1-0.4 0.3-0.7 0.2q-0.1-0.1-0.2-0.1v0.3c0.1-0.2 0.2 0.1 0.3 0q0.1 0 0.1-0.1 0 0-0.1 0h0.2l-0.1 0.1q0 0.1-0.1 0.1h0.3q0-0.1 0-0.1 0-0.1 0-0.1h0.1c-0.1 0.1 0.1 0.2 0.1 0.3 0 0 0 0 0 0q0 0.1-0.1 0.1h0.6c0 0 0 0 0 0-0.1-0.1 0.3-0.1 0.2-0.2q-0.1 0-0.1 0 0-0.1 0.1-0.1h0.8c0 0-0.1 0.1 0.1 0.1 0 0 0.1 0 0.2 0.1zm1.7 0.5q0-0.1 0-0.2c-0.1-0.1-0.1 0.1-0.2 0-0.2-0.2-0.5 0.1-0.8-0.1q0 0.1 0 0.1-0.1 0-0.2 0c0 0-0.1 0-0.1-0.1 0-0.1-0.3 0-0.3-0.2q0 0.1 0 0.1 0 0 0 0c0.1 0.1 0 0.1-0.1 0.2 0 0-0.2 0.1 0 0.1q0.2 0 0.3 0.1c0.1 0 0.2 0.1 0.2 0.1 0.2-0.1 0.3 0.1 0.3 0.1 0.1-0.3 0.4-0.3 0.7-0.4-0.1 0.1 0.1 0.2-0.1 0.1q-0.1 0-0.1 0v0.1q0 0 0.1 0l0.2-0.1c0.1 0 0.1 0.1 0.1 0.1zm0.2-1c-0.2 0-0.3 0-0.4 0 0 0 0 0.1 0.1 0.1 0.1 0-0.1 0.1 0.1 0.1 0.1 0 0-0.1 0.2-0.2zm1.3-0.2l-0.1 0.1c-0.2 0.1-0.5 0-0.4 0.2 0 0.1-0.2-0.1-0.2 0.1 0.1 0 0.2 0.1 0.4 0 0 0.2-0.3 0-0.3 0.2 0 0 0 0 0 0 0-0.3-0.3-0.4-0.6-0.4q-0.1 0-0.1 0.1 0 0 0 0c0.2 0.1 0.4 0.1 0.5 0.2 0.1 0.1 0.1 0.2 0.2 0.4 0 0-0.1 0-0.1 0-0.1 0-0.2-0.1-0.3 0q0.1 0.1 0.3 0.1 0.2 0 0.3 0c0 0.1 0.3 0.1 0.2 0.2 0.1 0 0-0.1 0-0.2 0.1 0 0.2 0 0-0.1 0 0 0 0.1-0.1 0.1 0 0 0-0.1-0.2-0.1 0.1-0.1-0.2-0.3 0.2-0.4 0.1 0 0.2 0.1 0.2 0 0 0-0.1 0-0.2-0.1l-0.1-0.1q0.1 0.1 0.2 0.1c0 0 0.1 0 0.1 0q0-0.2 0.1-0.4zm0.5 0.7q0.3-0.1 0.5-0.1c0.3 0 0.5-0.2 0.8-0.1 0 0 0.1 0 0.2-0.1q0 0 0 0h-0.1c-0.1-0.1-0.3-0.1-0.5-0.1-0.1 0-0.1 0-0.1-0.1-0.1 0-0.1 0-0.1 0-0.1 0.1-0.2 0.1-0.3 0.2 0 0 0 0 0 0q0-0.1 0-0.1 0.1-0.1 0.1-0.1 0 0-0.1 0 0 0.1-0.1 0.1-0.1 0.1-0.2 0.1c0 0-0.1 0-0.1-0.1q0 0 0 0 0 0 0.1 0c0 0 0 0.1 0.1 0.1 0-0.1 0-0.3-0.1-0.4 0 0-0.1 0-0.1 0-0.2 0.2 0 0.4 0 0.7zm1.1 0.6c0-0.1 0.1-0.3-0.2-0.3-0.1 0-0.2-0.2-0.3-0.2-0.2 0.1 0.1 0.1 0 0.2q-0.1 0-0.2-0.1c-0.1 0-0.1-0.1-0.1-0.1-0.1 0 0.1 0.3-0.2 0.2q0 0.1 0 0.1c0.2 0.1 0.3 0.1 0.5 0 0.1 0.1 0.2 0.1 0.4 0 0 0 0.1 0.1 0.1 0.1 0 0.2-0.3 0-0.3 0.1-0.1 0-0.1 0-0.2 0.1q0.1 0 0.3 0c0.1 0 0.2-0.1 0.2-0.1zm1.1-0.3q0 0-0.1-0.1 0 0 0 0c-0.2 0.1-0.5 0.1-0.6 0-0.1-0.1-0.2 0.1-0.3 0.1l-0.1 0.1h0.3c0.2 0 0.3 0.1 0.4 0.2 0 0-0.1 0-0.1 0.1q0.1 0 0.1-0.1c0.1 0-0.2-0.1 0-0.1 0.2 0 0.4-0.1 0.4-0.2zm1.7-0.8q0 0 0 0h-0.1-0.3c0 0 0 0 0 0q0.1-0.1 0.2-0.1 0 0 0.1 0 0 0 0 0c0 0-0.1-0.1-0.1-0.1-0.2 0.1-0.4-0.1-0.5 0.1-0.1 0-0.2-0.1-0.3-0.1q0 0 0-0.1 0 0 0.1-0.1l-0.2 0.1c0.1 0-0.2 0.2 0.1 0.2-0.2 0.1 0.2 0.1 0.1 0.1-0.2 0-0.4-0.1-0.4 0.1-0.2 0-0.2 0.1-0.3 0.1q0 0 0 0c0.4 0.1 0.4 0.1 0.5 0 0.3-0.1 0.6-0.1 0.9 0 0.1 0.1-0.1-0.2 0.2-0.2zm0.2 0q0 0 0 0-0.2 0-0.3 0.1l0.3 0.2zm0.6-1.2q-0.2-0.1-0.3-0.2 0 0.1 0 0.2 0 0 0 0 0 0-0.1 0-0.1-0.1-0.3-0.1c0 0 0 0 0 0 0 0 0 0.1 0 0.1 0.2-0.1 0.3 0 0.3 0.1 0.1 0.1 0.2 0.1 0.2 0.1 0.1 0 0.1-0.1 0.2-0.2zm0.6 1.1c-0.2-0.1-0.2 0-0.3 0.1 0 0-0.1 0-0.2 0q0 0 0 0c0.1 0.2 0.2 0.1 0.4 0q0 0 0.1-0.1zm2.3-0.1q0 0 0 0.1h0.1l0.2-0.1-0.5-0.1v0.1h-0.1q-0.2-0.1-0.3-0.1c-0.1 0-0.2 0.1-0.2 0.1 0.1 0.3-0.1 0.1-0.2 0.1q0 0-0.1-0.1c0 0.1 0.1 0.2 0.1 0.2 0.2 0 0.3 0.1 0.6 0 0 0 0.1 0 0.1 0.1 0.2 0.4 0.4 0 0.6 0q0 0 0-0.1-0.1 0-0.1-0.1 0 0.1 0 0.1c-0.1 0.1-0.2 0-0.2 0q-0.1 0-0.1 0c0-0.1-0.1-0.1-0.2-0.1q0 0-0.1 0l0.4-0.1q0 0 0 0zm0.8 0.2h-0.1q0 0-0.1 0c0 0-0.3 0 0-0.1q0.2 0 0.1-0.2c-0.1 0.1-0.2 0.1-0.3 0.1 0 0-0.1 0.1 0 0.2q0 0.1 0.3 0v0.1c0 0 0 0 0.1-0.1zm1.3-1.1c-0.3 0-0.4 0-0.5 0-0.1 0-0.1 0-0.1 0.1 0 0 0.1 0.1 0.1 0.1 0.1-0.1 0.2-0.1 0.5-0.2zm0.5 1.1q-0.3-0.2-0.6-0.3l-0.1 0.3q0 0 0 0h0.4q0.1 0 0.1 0 0 0.1 0 0.1h-0.1l0.1 0.2q0.1-0.2 0.2-0.3zm0.9-0.1c-0.2-0.3-0.3 0.2-0.5 0.1 0 0.1-0.1 0.2-0.1 0.3 0 0 0.1-0.2 0.2-0.1l0.3-0.1-0.1-0.1c0.1 0 0.2-0.1 0.2-0.1zm0.7-0.2h-0.4q-0.1 0-0.1 0.1 0.2 0 0.4 0.1c0 0 0.1-0.1 0.1-0.2zm2.1 0.3c0-0.1 0-0.2-0.1-0.3-0.1-0.2-0.3 0-0.6 0q0.2 0.1 0.2 0.1c0 0.1-0.2-0.1-0.1 0.1 0 0 0 0 0.1 0l0.2-0.1c-0.1 0.2 0.3 0 0.2 0.2 0.1 0 0.1 0 0.1 0zm0.7-1.3c0 0 0.1 0.1 0.1 0.1 0.1-0.1 0.3-0.1 0.3-0.1 0-0.2-0.3 0-0.3-0.1-0.1 0-0.1 0.1-0.1 0.1zm0.1 0.7c-0.2 0.1 0.1-0.1-0.1-0.1q-0.1 0.1-0.3 0.2-0.1 0.1-0.2 0.2 0.2 0.1 0.4 0.1c0 0 0.1 0 0.2-0.1q-0.1 0-0.2 0l-0.2-0.1 0.2-0.1q0.1 0 0.1 0c0 0.1 0.1 0 0.1 0 0.1-0.1 0-0.1 0-0.1zm0.7-0.1c-0.2-0.2-0.2 0.1-0.3 0.1-0.1 0-0.2 0.1-0.3 0.1 0.3 0 0.5 0 0.6-0.2q0 0 0 0zm1 0.9l-0.5-0.2c0.2 0.1 0 0.1 0 0.2 0.1 0 0.3-0.1 0.4 0zm0.5-0.1c0-0.1 0.1-0.1 0.1-0.1-0.2-0.2-0.5-0.1-0.6-0.2q0 0-0.1 0l0.1 0.1c-0.1-0.1-0.2 0-0.3 0 0 0.1-0.1 0.2 0.1 0.2 0.1 0 0.1-0.1 0.1-0.1 0 0 0-0.1 0.1-0.1 0.1 0 0.2 0 0.2 0.1 0 0.2 0.2 0.1 0.3 0.1q0 0 0 0zm1.9-0.5c-0.5 0.1-0.5 0-0.4-0.1 0 0-0.1-0.1-0.1-0.1-0.3 0 0 0.2-0.2 0.3 0.2 0.1 0.3 0 0.7-0.1zm0.5-0.9h0.4q-0.2-0.1-0.3-0.2c-0.1 0-0.2 0.1-0.2 0.1 0.1-0.2-0.2-0.2-0.2-0.2-0.1-0.1-0.2-0.1-0.2-0.1-0.2 0.3 0.2 0.3 0.2 0.4 0.1 0 0.2 0 0.3 0zm0.4 0.9c-0.2 0-0.3-0.1-0.5 0l-0.1 0.1q0.3 0 0.6 0.1c0 0 0-0.2 0-0.2zm0.1-1q0.1-0.1 0.2-0.1-0.2 0-0.4-0.1c0 0.1 0.3 0 0.1 0.2q0.1 0 0.1 0zm0.5 1.5c0 0 0.1 0 0.1 0l-0.5-0.1c0 0-0.1 0.1-0.1 0.1 0.1 0.3 0.4-0.1 0.5 0zm0.1 0.2c0 0-0.1 0-0.2-0.1 0 0-0.1 0.1-0.1 0.1q0.1 0.1 0.2 0.2 0.1-0.1 0.1-0.2zm0.4-2c-0.3 0-0.2 0.1-0.2 0.2 0 0.1 0.1 0.2 0.2 0.2v-0.1q-0.1-0.1 0 0c0-0.1-0.2-0.2 0-0.3zm3.1 0c0-0.1-0.1-0.1-0.3-0.1 0 0.1-0.1 0.2-0.1 0.2 0 0.1 0.1 0 0.1 0 0.1 0 0.2 0 0.1 0.1 0.1 0.2 0.1 0 0.2-0.1 0 0 0-0.1 0-0.1zm1.3 0.7c-0.1 0-0.2-0.1-0.2-0.1q-0.1 0.1-0.3 0.1 0.1 0.1 0.1 0.1 0.2 0 0.4-0.1zm0.2 0.4q-0.1-0.1-0.3-0.1c0 0-0.1 0-0.2 0.1q0.2 0.1 0.4 0.2c0-0.1 0.1-0.1 0.1-0.2zm2.2 0.2c-0.3 0 0-0.2 0-0.2-0.4 0.1-0.1 0.2-0.1 0.3q0 0.1 0 0.1c0.1-0.1 0.2-0.1 0.2-0.1 0-0.1-0.1-0.1-0.1-0.1zm0.3-0.3q0 0-0.1 0-0.2 0-0.5 0 0 0 0 0 0 0 0 0 0.1 0.1 0.1 0.1 0.2 0 0.4 0 0-0.1 0.1-0.1zm0.3-0.8q-0.1 0-0.3 0 0 0-0.1 0l0.3 0.2c0-0.1-0.1-0.2 0.1-0.2zm0.8 0.1q-0.1 0-0.1 0 0 0.1 0 0.2c0.1 0 0.2 0.1 0.2 0 0-0.1-0.1-0.2-0.1-0.2zm1 0.4l-0.3 0.2c0.1 0.1 0.1 0.1 0.2 0.1q0.1-0.1 0.3-0.2c0-0.1-0.1-0.1-0.2-0.1zm2.9 0c0 0-0.1-0.1-0.1-0.1q-0.2 0.1-0.3 0.1c0.1 0.1 0.2 0.1 0.3 0.1q0.1-0.1 0.1-0.1zm0.1-0.1c0 0.2 0.2 0.1 0.4 0.1q0.1 0 0.1 0-0.2-0.1-0.4-0.2c-0.1 0-0.1 0-0.1 0.1zm0 0.5q0.1 0.1 0.2 0.2c0.1-0.1 0.1-0.2 0.1-0.2q-0.1-0.1-0.2-0.1c0 0-0.1 0.1-0.1 0.1zm0.7 0.4q-0.3-0.1-0.6-0.2 0 0.1-0.1 0.2h0.7q0 0 0 0zm2.4-0.8c0 0-0.1-0.1-0.2-0.1 0 0-0.1 0-0.2 0.1 0.1 0 0.1 0.2 0.3 0.1zm1.4 0.4c0-0.1 0 0.1-0.2 0q0.1 0.1 0.1 0.1-0.1 0.1-0.2 0.1l0.3 0.1c0-0.1 0.1-0.2 0-0.3zm7.9 0q-0.2 0-0.4 0 0 0-0.1 0 0.2 0.1 0.3 0.2c0.1 0 0.1-0.1 0.2-0.2z"/><path class="a" d="m55.2 2.4q0 0 0 0z"/><path class="a" d="m44.5 2.7z"/><path class="a" d="m44.5 2.7z"/><path class="a" d="m8.8 1.3z"/><path class="a" d="m25.8 2.6c0 0 0 0 0 0z"/><path class="a" d="m15.2 3.4z"/><path class="a" d="m44.8 1.8q0 0 0 0.1v-0.1z"/><path class="a" d="m9.8 3.1z"/><path class="a" d="m33.9 2.4z"/><path class="a" d="m10.2 2.3q0 0-0.1 0.1 0.1-0.1 0.1-0.1z"/><path class="a" d="m7.9 3.4z"/><path class="a" d="m22 3.6z"/><path class="a" d="m20.5 3.6q-0.1 0.1-0.1 0.1h-0.1q0-0.1 0.1-0.1 0 0 0 0 0-0.1-0.1-0.1 0 0 0 0 0 0.1 0 0.1h-0.3q0 0-0.1-0.1 0 0.1 0 0.1c0 0 0.1 0.1 0.1 0.1 0.2-0.1 0.3 0 0.4 0.1 0.1 0.2 0.3 0 0.4 0.1v-0.1l0.1-0.2z"/><path class="a" d="m5.9 3.5q0 0-0.1 0c-0.1-0.1-0.3 0.1-0.4-0.1q0-0.1-0.1-0.1v0.3h0.5c0 0 0.1 0 0.1-0.1z"/><path class="a" d="m21.2 3.7q0 0 0 0.1-0.1 0-0.1 0 0-0.1 0-0.1c0.1-0.1 0.1-0.1-0.1 0-0.1 0.1 0.1-0.2-0.1-0.1l-0.1 0.2c0.3 0.2 0.5 0 0.7 0v-0.1c-0.1 0-0.3-0.2-0.3 0z"/><path class="a" d="m8.1 1.6c0.1 0 0.3 0 0.6-0.1-0.3 0-0.6-0.1-0.8-0.1 0-0.1-0.1 0-0.1 0.1 0.1 0 0.2 0.1 0.3 0.1z"/><path class="a" d="m22 3.6z"/><path class="a" d="m21.9 3.5c-0.1 0-0.3 0-0.3 0.1 0 0.2-0.2-0.2-0.1 0.1 0.2 0.2 0.4 0.1 0.5-0.1 0 0 0-0.1-0.1-0.1z"/><path class="a" d="m16.1 1.2c-0.2-0.2-0.4 0.1-0.5 0q-0.1 0-0.2 0.1c0.2 0 0.3 0.1 0.4 0.1 0.1 0 0.3-0.1 0.3-0.2z"/><path class="a" d="m24.2 3.6c0 0 0.1 0 0.2-0.1h-0.3l-0.1-0.1-0.2 0.1q0.2 0.1 0.4 0.1z"/><path class="a" d="m31.6 3.3q0-0.1-0.1-0.1c-0.1 0-0.2 0-0.2 0.1 0 0.3 0.3-0.1 0.3 0.1 0.1 0 0.3-0.1 0-0.1z"/><path class="a" d="m16.6 1.3q0 0 0 0-0.1 0-0.1 0-0.1 0-0.1 0.1 0-0.1 0.1 0 0 0 0 0 0 0.1 0 0.1c-0.2 0 0 0.1 0 0.1v-0.1h0.1c0 0-0.2-0.2 0-0.2z"/><path class="a" d="m16.6 1.5h-0.1q0.1 0 0.1 0z"/><path class="a" d="m25.9 3.4v0.1c0.1 0 0.1 0.1 0.2 0.1 0.1-0.1 0.1-0.2 0.1-0.3-0.1 0.1-0.2 0.2-0.3 0.1z"/><path class="a" d="m62.7 2.2q0 0 0 0 0.2 0.1 0.5 0.2c0 0 0 0 0 0-0.1-0.2-0.4 0-0.5-0.2z"/><path class="a" d="m43.3 3q-0.1 0-0.3 0.1 0.1 0 0.2 0.1 0.1-0.1 0.3-0.1c-0.1-0.1-0.2-0.1-0.2-0.1z"/><path class="a" d="m37 3.1v0.2q0 0 0.2 0 0 0 0.1 0.1c0-0.1 0-0.2-0.1-0.2 0 0-0.1 0-0.2-0.1z"/><path class="a" d="m47.4 2.8q-0.1 0.1-0.2 0.1 0.2 0.1 0.3 0.1c0 0 0.1-0.1 0.1-0.1q-0.1-0.1-0.2-0.1z"/><path class="a" d="m54.6 2.4c-0.1 0-0.3 0.1-0.3 0.1 0 0.2 0.2-0.2 0.3 0q0 0 0.1-0.1c-0.1 0-0.1 0-0.1 0z"/><path class="a" d="m30.1 3.3c-0.1 0.1-0.1 0.2-0.2 0.3q0.2 0 0.2-0.1c0-0.2 0.1-0.1 0.1 0 0.2-0.2-0.1-0.1-0.1-0.2z"/><path class="a" d="m8.4 1.4l0.4-0.1c0 0-0.1 0-0.1 0-0.1 0.1-0.3 0-0.3 0.1z"/><path class="a" d="m8.8 1.3z"/><path class="a" d="m8.8 1.3z"/><path class="a" d="m25.9 3.5z"/><path class="a" d="m25.8 3.3q0 0-0.1 0c0 0 0 0 0 0q0 0.2 0.1 0.3l0.1-0.1c-0.1-0.1-0.2-0.1-0.1-0.2z"/><path class="a" d="m25.9 3.5z"/><path class="a" d="m25.9 3.5z"/><path class="a" d="m44.5 2.7z"/><path class="a" d="m44.5 2.6c0 0-0.1 0-0.1 0q0 0.1 0.1 0.2c0 0 0 0 0.1 0l-0.1-0.1z"/><path class="a" d="m44.5 2.7z"/><path class="a" d="m41.7 3.1q0.2 0 0.4 0.1 0.1 0 0.2-0.1h-0.5q-0.1 0-0.1 0z"/><path class="a" d="m14 2.9c0.2-0.1-0.1 0-0.1-0.1 0-0.2-0.2-0.3-0.3-0.1l0.2 0.2c0.1 0 0.2 0.1 0.2 0z"/><path class="a" d="m12.7 2.6c0 0.1 0.1 0.1 0.1 0.1q0.1 0 0.3-0.1-0.2 0-0.3 0c0-0.1-0.1 0-0.1 0z"/><path fill-rule="evenodd" class="a" d="m72.1 1c0.1 0.1-0.1 0.3-0.3 0.2-0.1 0-0.1 0-0.2 0-0.1 0-0.1 0-0.2 0 0.4 0.2-0.5 0.2-0.2 0.4-0.3 0-0.3 0.2-0.5 0.3 0-0.2-0.2-0.1-0.3-0.1 0-0.1 0.3-0.1 0-0.2q0.1 0 0.1 0h0.4q0-0.1 0-0.1h-0.5v0.1c-0.1 0-0.3 0.1-0.5 0q-0.4 0-0.8 0.1c-0.1 0-0.2 0.1-0.2 0 0 0-0.3-0.1-0.1 0.1 0.1 0 0.1 0 0.2 0q0 0 0.1 0-0.1 0.1-0.1 0.1c-0.4-0.1-0.8-0.1-1.2 0.1q0 0 0 0-0.1-0.1-0.2 0h-0.1c0.2 0 0.2 0.1 0.2 0.2l0.3-0.1q0 0.1-0.3 0.1c0 0-0.1 0-0.2 0h-0.8c0.1 0 0.1 0.1 0.1 0.1-0.1 0.1-0.2 0-0.2 0-0.2 0.1-0.2 0.1-0.2-0.1 0 0-0.2 0-0.2 0-0.1 0.1-0.2-0.1-0.4 0q0 0 0 0 0 0-0.1 0l-0.1-0.1v-0.2q0.2 0 0.5 0.1 0.2-0.1 0.4-0.2h-0.8q0 0-0.1 0.1l-0.1-1.6c0.1 0 0.2 0 0.3 0q0 0 0.1 0l-0.1-0.1h-0.1q0 0 0 0l0.2-0.1c0 0.4 0.3 0.1 0.5 0.2 0 0 0.2 0 0.3 0.1q0.1 0 0.2-0.1c0 0 0 0 0 0q0-0.1 0.1-0.1 0.1 0 0.3 0c0.3 0 0.7-0.1 1.1-0.1 0.2 0 0.3 0 0.4 0 0.4 0 0.8 0 1.2 0.1q0-0.1 0-0.1c0-0.1 0.1-0.1 0.1-0.1 0.1 0 0.1 0 0.2 0.1 0.1 0 0.3 0.1 0.5-0.1 0 0 0.1 0.1 0.1 0q0.1-0.2 0.2 0c0.2 0 0.3 0.2 0.3 0.3 0 0.1 0.1 0.1 0.2 0.1h0.1q-0.2 0.1-0.3 0.1 0 0-0.1 0.1 0 0 0.1 0 0.1 0 0.2 0-0.1 0.1-0.2 0.1c-0.3 0.1-0.1 0.2-0.1 0.3q0.2 0 0.3 0c0.2 0 0.4 0 0.5 0zm-5.5 0.6q-0.2-0.1-0.4-0.1c-0.1 0-0.1 0-0.2 0q0.2 0.1 0.4 0.1zm0.1 0.4h-0.4q0 0 0 0.1c0 0.1 0.1 0.1 0.1 0 0.2-0.1 0.1 0.2 0.2 0.1 0.1-0.1 0.1-0.1 0.1-0.2zm0.9-0.2c-0.1-0.1-0.1-0.1-0.1-0.1-0.1 0-0.1 0-0.2 0q-0.1 0-0.2 0c0.1 0 0.2 0 0-0.1q0 0-0.2-0.1 0.1 0.1 0.1 0.2c0 0 0 0.1-0.1 0.1-0.2 0-0.3 0.1-0.1 0.2 0 0 0.1 0 0.1 0q0.1 0 0.2-0.1h-0.1-0.1l0.2-0.1zm0.4-0.1c-0.1-0.1-0.3-0.1-0.5-0.1-0.3 0 0 0 0 0 0 0.2 0.2 0 0.2 0.1z"/><path class="a" d="m72.1 0.2q0 0 0 0l0.3 0.3q0-0.1 0-0.2-0.1-0.1-0.3-0.1z"/></svg>