<svg version="1.2" xmlns="http://www.w3.org/2000/svg" viewBox="0 0 27 18" width="27" height="18"><style>.a{fill:#1c957f}.b{fill:none}</style><path class="a" d="m2.3 0.4z"/><path fill-rule="evenodd" class="a" d="m1.6 2l-0.5 0.2q0.1-0.1 0.1-0.1c-0.1-0.1-0.2-0.2-0.2-0.3 0 0 0 0-0.1 0 0-0.1 0.1-0.1 0.1-0.1 0.2-0.1 0.2 0 0.2 0 0 0 0.1 0 0.1 0q0.1-0.1 0.1-0.1c0 0-0.1 0-0.1 0 0-0.1-0.3 0-0.4-0.1 0 0 0 0 0 0-0.2 0-0.2-0.1-0.3-0.1q0 0 0.1 0 0 0-0.1 0v0.1q-0.1 0-0.1 0 0.1-0.3 0.1-0.6c0-0.1-0.1-0.1-0.1-0.2q0 0 0-0.1c0 0 0.1 0 0.1 0q0 0 0 0.1 0 0 0 0c0 0 0.1 0 0.1 0q0-0.1 0-0.1 0-0.1 0-0.1 0 0 0 0 0 0 0.1 0c0 0.1 0 0 0.1 0-0.1-0.1 0.6 0.1 0.3-0.2-0.1 0 0-0.1 0.1-0.2q0 0.1 0 0.1 0.1 0 0.2 0 0 0 0 0-0.1 0-0.1 0 0 0 0 0l-0.1-0.1q0.2 0 0.3 0 0.3 0 0.6-0.1c0 0 0.1 0.1 0.1 0.1q-0.1 0.1 0 0.1 0 0 0 0.1 0-0.1 0-0.1-0.1 0.1-0.1 0.1 0.1 0 0.1 0 0.1 0.1 0.1 0.1h-0.1q0 0 0-0.1-0.1 0.1-0.1 0.1h0.1 0.1q0 0.1 0 0.1c-0.2 0.1 0 0.2 0 0.2q0 0 0 0.1v-0.1q-0.1 0-0.1 0 0 0 0 0 0 0 0 0.1c-0.1 0 0.2 0 0 0l0.1 0.2v-0.1h0.1q0 0.1 0 0.1c0.2 0.1 0 0.2 0 0.2 0 0 0.1 0 0.1 0.1q0 0 0 0c0.1 0.1 0.1 0 0.1 0q0 0 0 0l0.1 0.1q-0.1 0-0.1 0 0 0 0 0 0 0 0 0c0 0 0.1 0 0.1 0 0 0.1 0.1 0.1 0 0.2q-0.1 0-0.1 0h0.1 0.1q-0.1 0-0.2 0c0 0-0.1 0-0.1 0q-0.1 0.1-0.1 0.1c-0.1 0-0.1 0.1-0.1 0.1q-0.1 0-0.1 0l-0.5 0.2c0 0 0.1-0.1 0-0.1h0.1-0.1c0 0.1-0.2 0.1-0.2 0.1zm-0.2-1.2q0 0 0-0.1 0 0-0.1 0 0 0 0 0.1 0 0 0.1 0zm0.2 0.3q0.1 0 0.1 0l-0.2-0.2q0 0 0 0l-0.1 0.1c0.2 0-0.1 0 0 0.1 0.1 0 0.2 0 0.2 0zm0.1 0.8c0.1-0.1 0-0.1 0-0.1 0.1-0.1-0.1 0-0.1-0.1l-0.1 0.2q0.1 0 0.2 0z"/><path class="a" d="m1.1 2.2c-0.1-0.1 0-0.2-0.2-0.2h0.1q0 0 0 0c-0.2 0-0.1 0.1-0.2 0.1q0 0 0.2 0c0 0.1 0 0.1-0.1 0.1v0.1l0.2-0.1q0 0 0 0z"/><path class="a" d="m0.9 2c0-0.2 0-0.2-0.2-0.1 0.1 0 0.2 0 0.2 0.1q0 0 0 0z"/><path class="a" d="m0.7 1.9h-0.1z"/><path class="a" d="m0.5 1.9h0.1-0.1z"/><path class="a" d="m0.8 1.7q0 0 0 0-0.1 0-0.1 0.1 0 0 0 0c0.2 0 0.1-0.1 0.1-0.1z"/><path class="a" d="m2.6 1.7q0 0.1 0 0.1l0.1-0.1z"/><path fill-rule="evenodd" class="b" d="m2.9 5.1c0 0 0-0.1 0-0.1 0-0.1 0.1-0.1 0.1-0.1l-0.2-0.2q0 0-0.1 0 0 0 0 0c0 0.1-0.1 0-0.2 0.1 0 0 0 0 0 0l-0.1-0.3q0 0 0.1 0.1c0 0 0-0.1 0-0.1 0.1 0 0.1-0.1 0.2-0.2h-0.1q0 0.1 0 0.1l-0.1-0.1h0.1 0.1v-0.1q-0.1 0-0.1 0.1 0 0 0 0c-0.1 0 0.1-0.2-0.1-0.1l0.3-0.2q0 0.1-0.1 0.1c0 0.2 0.2 0.1 0.3 0.2q0 0 0 0 0 0 0 0l-0.1 0.1q0 0 0 0c0.1-0.1 0 0.1 0.1 0 0.1-0.1 0.1-0.1 0.1-0.1q0.1 0 0.1 0.1h-0.1c0 0 0.1 0 0 0.2 0.2-0.1 0.1 0.1 0.2 0.1 0 0 0.1 0.1 0.1 0.1 0 0.1-0.1 0.1-0.1 0.2q-0.1 0-0.1 0.1 0 0 0 0.1 0 0-0.1 0c-0.3 0.3 0-0.1-0.1 0-0.1 0 0-0.1-0.1-0.1zm0.2-0.4q0 0 0-0.1-0.1 0-0.1 0c-0.1 0-0.1 0.1 0 0.1q0 0 0.1 0zm0 0.2l-0.1 0.2c0 0.1 0 0.1 0 0.1 0.2 0 0-0.1 0.1-0.1 0.1-0.1 0.2-0.2 0-0.2z"/><path class="a" d="m10.3 10.2z"/><path class="a" d="m3.8 5.9z"/><path class="a" d="m14.6 10.6z"/><path fill-rule="evenodd" class="a" d="m22 10.2v0.2l-0.1-0.1q0-0.1 0 0l0.1 0.3q0 0.1 0 0.1c-0.2-0.3 0 0.2-0.1 0.1-0.1-0.1-0.2 0.1-0.3-0.1 0-0.1-0.1-0.2-0.1-0.1l-0.1-0.1c0-0.1 0 0 0 0-0.1-0.1-0.1 0.1-0.1 0.1q-0.1 0-0.1 0 0 0 0-0.1c0 0.2-0.1 0.2-0.2 0.2-0.1 0-0.2-0.1-0.2-0.1q0-0.1 0-0.1c-0.1 0.1-0.1 0.1-0.1 0.2 0.1 0.1 0 0.1 0 0.2-0.1-0.1-0.1 0.1-0.2 0-0.1-0.2-0.3-0.2-0.3 0-0.1 0-0.1-0.1-0.1-0.2-0.1 0-0.2-0.1-0.1-0.3 0 0 0 0-0.1 0h0.1v0.1c-0.2-0.2-0.1 0-0.1 0.1 0.1 0.3-0.2 0-0.1 0.3q-0.1 0-0.1 0 0-0.1 0 0-0.1 0-0.1 0 0 0 0 0v-0.1q0 0 0 0-0.1 0-0.1 0c-0.1 0 0.1 0.3-0.1 0.2h-0.1q0-0.1 0-0.1c0-0.2-0.1-0.2-0.2-0.3q0-0.1 0-0.1l-0.1 0.2q0.1 0 0.1 0.1c-0.1 0.1-0.2 0.1-0.3 0.1 0-0.2 0 0 0 0q-0.1-0.1-0.2-0.1c0 0-0.1 0-0.1 0 0 0.5-0.1 0.1-0.2 0 0 0-0.1 0-0.2 0-0.1 0.1-0.1-0.1-0.1 0h-0.1c0 0 0-0.1 0 0 0.1 0.1-0.1 0.1 0 0.2 0 0-0.1 0.1-0.1-0.1 0 0-0.1-0.1-0.2-0.1-0.1 0-0.2 0.1-0.3 0.2q0 0 0 0v-0.2-0.1q0 0 0 0.1c0 0.1-0.1-0.2-0.1 0q0 0-0.1 0.1 0.1 0 0.1 0c0 0 0-0.1 0.1 0 0 0.1-0.1 0.1-0.1 0.1-0.1 0-0.2 0-0.2 0-0.1-0.2-0.2-0.1-0.3-0.2q0 0 0 0v0.1c0 0.1 0.1 0 0.1 0.2q0 0-0.1 0 0 0 0-0.1c0 0-0.1-0.1-0.1 0-0.1 0.1-0.2-0.2-0.3-0.1q-0.1 0-0.2-0.1c0 0-0.1 0-0.1 0.1q-0.1 0-0.2 0.1c0 0 0-0.1 0-0.2 0 0.1-0.1 0-0.1 0-0.1 0.1-0.2 0.1-0.3 0.1-0.1 0.1-0.2 0.1-0.4 0.1-0.1 0 0.1-0.1 0-0.1-0.1 0-0.2 0-0.3 0.1q0 0 0 0 0 0 0 0 0-0.1 0-0.1 0 0 0.1 0c-0.1-0.1-0.1-0.2-0.1-0.2-0.1 0-0.1 0-0.1-0.1 0.1 0 0.2 0.1 0.2 0 0-0.2 0.1 0.1 0.2-0.1v0.1q0 0 0 0 0 0-0.1 0 0 0 0 0.1h0.1q0.1 0 0.1-0.1v0.1c0.1 0 0-0.3 0.1-0.3-0.1 0-0.2-0.1-0.3-0.1-0.1 0.1-0.2 0-0.3 0.3-0.1 0 0 0.2 0 0.2-0.1 0.1-0.1 0-0.2-0.1 0 0 0 0 0 0-0.1 0.3-0.2 0-0.3 0.2 0 0 0 0.1 0 0 0-0.2-0.1-0.1-0.2-0.1-0.1 0-0.1 0.1-0.1 0.3-0.1 0-0.1 0-0.1 0q0-0.1 0-0.2 0-0.1 0-0.1 0-0.1-0.1 0v-0.3-0.1q0 0 0 0.1c0 0.1-0.1 0.1-0.1 0.2 0 0.1-0.1 0.1-0.1 0.1 0 0-0.1 0-0.1-0.2q0 0.1 0 0.1-0.1 0.1-0.1 0.1 0 0 0 0 0.1 0 0.1 0v0.1c-0.1-0.1-0.1 0.2-0.2 0.1q0 0 0-0.1h0.1l-0.1-0.2c0 0 0 0-0.1 0l0.1 0.1q-0.1 0-0.1 0c-0.1 0.1-0.1 0.2-0.1 0.2 0 0 0-0.1 0-0.2 0-0.2-0.1 0.1-0.2 0q0 0.1 0 0.1 0-0.1 0-0.1 0 0 0 0 0.1 0 0.1 0c0-0.2 0-0.2-0.1-0.1-0.1 0.1-0.1-0.2-0.2-0.2q0 0 0 0v0.1l-0.1 0.1q-0.1 0-0.1 0c0 0 0 0 0 0q0 0 0 0.1 0 0 0 0c-0.1-0.1-0.1-0.1-0.1-0.2q0 0 0-0.1 0 0 0 0c0 0-0.1 0.1 0 0.2 0 0-0.1 0-0.1 0.1v-0.1q0 0 0 0 0 0 0-0.1v-0.1c0 0 0 0.1 0 0.1-0.1-0.1-0.2 0.1-0.3 0 0-0.1 0 0.1 0 0 0 0.1 0 0.1 0 0.1 0 0.1 0 0.1 0 0.2 0 0-0.1 0-0.1 0q0 0 0-0.1v-0.3q0 0.1 0 0.2c-0.1 0.1-0.1 0.1-0.1 0q0-0.1 0-0.1 0 0 0 0c0 0 0.1 0 0.1 0v-0.2q-0.1 0-0.1 0.1 0 0-0.1 0c0.1-0.1-0.1 0 0-0.1q0 0 0-0.1-0.1 0-0.1 0.1 0 0 0 0c0 0.1 0 0.2 0 0.1-0.1 0-0.1-0.1-0.1-0.1q-0.1 0-0.1 0c0 0-0.1 0 0 0.1q0 0 0 0-0.1 0-0.1 0c0-0.1-0.1-0.1-0.1 0-0.1 0.5-0.2 0-0.3 0.2q0 0 0 0 0-0.1 0-0.2 0 0 0.1-0.1 0 0 0 0c-0.1 0.2-0.2-0.2-0.3 0.2 0 0 0 0.1 0 0.1q-0.1 0-0.2-0.1c0.1 0 0.1 0 0.1-0.1q0.1 0 0.1-0.1v-0.2 0.2q0 0-0.1 0 0 0 0 0c0-0.1 0.1-0.2 0-0.1-0.1 0.1-0.1 0-0.1-0.1l0.1-0.2 0.1 0.2q0 0 0 0 0-0.1 0-0.1l0.1-0.2q0 0 0 0v0.1q0-0.1 0-0.1 0-0.1-0.1-0.1c0 0.1 0 0.2 0 0.2-0.1-0.1 0-0.1 0-0.2 0-0.1-0.1 0.2-0.1 0 0-0.1 0.1-0.1 0-0.2q-0.1 0-0.2 0.2 0 0.1 0.1 0.2 0 0 0-0.1 0 0 0 0v-0.1q0 0 0 0 0.1 0 0.1 0.1c-0.1 0.1-0.2 0.2-0.1 0.3 0 0.1 0 0-0.1 0-0.1-0.2-0.1 0.1-0.1 0.2-0.1-0.1-0.1-0.1-0.2-0.1 0-0.1-0.2 0-0.1-0.3-0.2 0.3 0-0.1-0.1-0.1q0 0 0 0c0 0.1 0 0.1 0 0.1 0 0.1-0.1 0.1-0.1 0.2 0 0-0.1-0.1-0.1-0.1q-0.1-0.1-0.2-0.1c-0.1 0 0 0.1-0.1 0.2-0.2 0.1 0-0.2-0.1-0.2 0.1-0.2-0.1 0 0-0.1q-0.1 0-0.1 0.1c-0.1 0 0-0.2-0.1-0.2-0.1 0-0.1 0-0.2 0-0.1 0 0 0 0 0.1q-0.1 0-0.1 0c0-0.1-0.1 0-0.1-0.1q0-0.2-0.2 0 0 0 0 0 0 0 0 0 0 0 0-0.1 0 0 0 0c0-0.1 0-0.3 0-0.3-0.1 0 0.1-0.2 0-0.1-0.1 0.1-0.1 0.2-0.1 0.3v0.1c-0.1-0.1-0.1-0.1-0.2 0q0-0.1 0-0.1 0 0 0 0c-0.1 0-0.1-0.1-0.2-0.2-0.1 0.1-0.1-0.1-0.2-0.1q0 0 0 0.1c-0.1-0.2-0.3-0.1-0.5-0.3q0 0-0.2 0c0 0-0.1 0-0.2 0.1q0 0 0 0.1c0-0.1-0.1-0.1 0-0.2q0 0-0.1-0.1v0.1 0.1q0-0.1 0-0.1c0-0.1 0-0.1 0.1-0.1 0.1 0 0.1-0.1 0-0.1-0.1 0.1 0-0.1 0-0.1q-0.2 0-0.4-0.1l-0.2-0.1c-0.1 0.2-0.1-0.1-0.2 0 0.1-0.3-0.1-0.2-0.1-0.2 0 0 0 0-0.1 0 0 0 0 0 0 0.1q0 0 0.1 0h-0.2l0.1-0.1 0.1-0.2-0.2 0.2q0 0 0-0.1c0-0.1 0-0.1-0.1 0 0 0 0-0.1-0.1-0.1q-0.2-0.1-0.3-0.1-0.1 0-0.1 0v0.1q0 0 0 0c-0.1 0.1-0.2 0-0.2-0.1 0.1 0.1 0.1 0.1 0.1 0 0.1 0 0.2 0 0.2 0q0 0 0.1 0v-0.1c0-0.1-0.1 0-0.1-0.1 0 0 0-0.2-0.1 0 0 0-0.1 0-0.1 0 0.1-0.3-0.2-0.2-0.3-0.5 0 0-0.2 0-0.3 0 0 0.1 0 0.1-0.1 0 0 0 0.2 0 0.1-0.1-0.1 0-0.2 0.1-0.2 0.3q0 0-0.1 0.1 0 0 0 0v-0.1q0 0 0 0l-0.1 0.1v-0.2c0.1-0.1 0 0.1 0 0q0 0-0.1 0c0 0.1 0 0 0 0.1q0 0 0 0h-0.1c0.2-0.2-0.1-0.1-0.1-0.2 0.1-0.1-0.1-0.1-0.2-0.2 0-0.1-0.2-0.1-0.2-0.2q0 0 0-0.2c0.1-0.1-0.1 0.1-0.2 0-0.1 0 0.1-0.1 0.1-0.1-0.2 0 0 0 0 0q0 0 0-0.1 0 0 0-0.1-0.1 0-0.1 0.1-0.1 0-0.1 0.1c0-0.1-0.1-0.2-0.1-0.3 0-0.2 0-0.2-0.2-0.1 0.1-0.2-0.2 0-0.1-0.2 0-0.1-0.2-0.2-0.2-0.2q0 0 0-0.1c0 0.1 0-0.1 0.1 0q0 0 0 0 0 0 0-0.1-0.1 0-0.1 0c0 0-0.1 0.1-0.1 0.1v-0.2q-0.1-0.1-0.1-0.1-0.1-0.2-0.3-0.3-0.1-0.2-0.1-0.4l-0.1-0.2c-0.1-0.1-0.1-0.2-0.1-0.2-0.2-0.2-0.2-0.4-0.2-0.6-0.1-0.1-0.2-0.1-0.1-0.3 0.1-0.1-0.2 0-0.1-0.1 0.2-0.2-0.2-0.2-0.1-0.3 0.1-0.1 0.2-0.2 0.2-0.2-0.1-0.1 0-0.1 0-0.2 0 0-0.1-0.1 0-0.1 0-0.1 0.1-0.2 0.2-0.3-0.3 0-0.2-0.1-0.1-0.1l0.4-0.2q-0.1 0.1 0 0.1c0.1 0.1-0.1 0.3 0 0.4 0 0 0 0 0 0 0 0 0.1 0.1 0.1 0.1 0.2-0.1 0.1-0.1 0.1-0.1-0.1-0.1-0.1-0.1 0-0.1h0.2c-0.1-0.1 0-0.2-0.2-0.2q0-0.1 0-0.1 0 0 0 0 0.1 0 0.1-0.1c0 0 0 0 0 0-0.2 0.1-0.2 0-0.1 0l0.6-0.2c0 0 0.1 0 0 0q0.1 0 0.1 0l0.1-0.1q0 0 0 0.1c0.1 0 0.1 0.1 0.2 0q0.1 0 0.1-0.1 0 0.1 0 0.1 0 0 0 0c-0.2 0 0 0-0.1 0.1 0 0-0.1 0-0.1 0-0.1 0.1 0 0.1 0.1 0 0.1 0 0.1 0 0.1 0.1 0 0 0.1 0 0.1 0 0.1 0.1 0.1 0.1 0 0.2q0 0 0 0c-0.1 0 0.2-0.1 0.1 0-0.1 0 0 0.1 0.1 0.1 0.2 0-0.2 0-0.1 0.1-0.1 0-0.2 0-0.1 0q0.1 0 0 0.1 0 0 0 0 0 0 0 0 0 0 0 0c-0.1 0-0.1 0-0.1 0.1q-0.1 0.1 0 0.3c0 0 0 0 0 0q0-0.1 0-0.1c0 0-0.1 0 0.1-0.1 0 0 0 0.1 0.1 0.1 0.2-0.1-0.1 0.2 0.2 0.1q0 0 0 0c0-0.1-0.1-0.1 0.1-0.2 0 0.1 0 0.2 0 0.2 0.1 0-0.1 0.1-0.1 0.1 0.1 0 0.1 0 0.2 0 0 0 0 0 0 0.1h-0.1q0 0-0.1 0c0.1 0 0.1 0 0.1 0 0 0.2 0.2 0.1 0.3 0.1 0.1 0.1 0.2 0.4 0 0.6-0.1 0.1 0.1-0.1 0 0-0.1 0.2 0.1 0.1 0.2 0.1 0.2-0.2 0 0 0.1 0 0.1 0 0.1 0.1 0.1 0.1q0 0 0 0c-0.2 0.2 0.2 0 0 0.2 0.2-0.1-0.1 0.2 0.2 0.1-0.2 0.1 0 0.1-0.1 0.2q0 0 0 0-0.1 0-0.1 0 0 0.1-0.1 0.1h0.1q0 0 0 0c0.1 0 0.1 0 0.1 0.1q0 0.1-0.2 0.1 0 0 0 0l0.1 0.1 0.1-0.1c0 0 0.1-0.1 0.1-0.1 0.1 0 0.2-0.1 0.1 0.1q0 0 0 0h0.1q0 0.1-0.1 0.1c0 0-0.1 0-0.1 0.1q0 0 0 0.1l0.1-0.1v-0.1q0 0 0 0c0 0.1 0 0.2 0.1 0.2h0.1q0 0 0 0l0.3-0.1q0 0 0 0c-0.1 0.1 0.1 0.1 0 0.2q-0.1 0-0.1 0.1l0.1-0.1c0 0 0.1-0.1 0.1-0.1q0 0.1 0.1 0.2 0 0-0.1 0 0 0.1-0.1 0.1 0 0 0 0.1c0-0.1 0.1-0.1 0.1-0.1 0 0-0.1 0.1 0 0.1 0.1 0 0.2 0 0.2-0.1q0.1 0 0.1-0.1c0 0.1 0.1 0 0.1 0.1 0 0.1 0.1 0 0.1 0.1q0 0 0 0l-0.1 0.1 0.1-0.1q0 0 0 0h-0.1q0 0 0 0 0 0.1 0 0.1 0 0 0 0-0.1 0-0.1 0 0 0 0-0.1l-0.1 0.2q0 0.1 0 0.1c0 0.1 0 0 0 0h-0.1q0 0 0.1 0.1 0.1 0 0.2 0.1 0 0 0 0 0.1-0.1 0.1-0.1c-0.1-0.1 0.1-0.2 0.1-0.3v0.2h-0.1q0 0 0 0 0.1 0 0.1 0 0 0 0.1-0.1v-0.1 0.1 0.4c0.3-0.4 0.1 0 0.1 0 0.1 0.1 0.1-0.1 0.1-0.1 0.2 0 0.2 0.1 0.3 0.1 0.1 0 0.2 0 0.2 0.1q0.1 0 0.1 0.1c0 0-0.1 0-0.1 0q0 0 0-0.1l-0.1 0.2q0.1-0.1 0.2-0.1c0 0 0 0.1 0 0.1 0 0.1 0.2-0.1 0.1 0q0 0 0.1 0-0.1 0.1-0.1 0.1h-0.1c0 0 0 0.1 0 0.1q0.1 0 0.1-0.1 0.1 0 0.1 0c0 0 0 0 0 0 0 0.1 0 0 0 0.1 0 0-0.1 0 0 0.1 0 0 0 0 0 0 0 0 0 0.1 0 0.1q0 0.1 0 0.1 0 0 0 0h0.1l-0.1 0.1q0 0 0 0 0 0 0.1 0.1 0 0 0-0.1c-0.1 0 0.2-0.2 0-0.1 0 0 0-0.1 0.1-0.1q0 0 0 0c0.1-0.1 0-0.2 0.1-0.3 0.1-0.1 0 0.1 0 0.2q0 0 0 0l0.1-0.1q0 0.1 0 0.2-0.1 0-0.1 0l0.1-0.1v-0.1q0.1 0.1 0.1 0.1c0 0.1 0 0.2 0.2 0 0 0 0 0 0.1 0 0 0 0 0.1-0.1 0.1q0 0 0 0 0 0-0.1 0c0 0.1-0.1 0.1-0.1 0.2 0 0.1 0 0.1 0 0h0.1c0.1-0.2 0.1-0.1 0.1-0.1 0.1 0 0.1 0 0.1-0.1q0.1 0 0.1 0c0 0 0 0 0 0.1q0 0 0 0 0 0 0 0 0.2-0.1 0.1 0.1 0 0 0 0.1v-0.1q-0.1 0-0.1 0.1 0 0 0 0.1 0-0.1 0-0.1 0.1 0 0.1 0 0 0 0 0c0 0.1-0.1 0 0 0.1l-0.1 0.1 0.1 0.1c0-0.1 0-0.2 0-0.2 0.1-0.1 0.2-0.2 0.3-0.2 0.1-0.1 0 0 0 0.1q0 0 0 0c0.1-0.2 0.1 0.1 0.2-0.1q0 0 0 0c0 0.2 0.2 0 0.1 0.1q0 0.1 0 0.1l0.3 0.1c0.1 0 0.2 0.1 0.2 0.1 0.2 0 0.4 0 0.5 0.2 0.1 0.1 0.2 0 0.3 0.1 0.1 0 0.2-0.1 0.2 0.1-0.1 0.3 0.1-0.1 0.2 0 0.1 0.1 0.2 0 0.2 0.1 0.1 0 0.2 0.1 0.2 0.3q0 0 0 0v-0.2q0.1 0.1 0.1 0.1c0 0 0 0.1 0 0.1q0-0.1 0-0.1c0.1-0.3 0.1 0 0.1-0.1l0.3 0.1c0 0-0.1 0 0 0.1 0 0.1 0.2 0 0.3 0 0 0 0.1-0.1 0.1 0.1 0.1-0.2 0 0.1 0 0.1q0.1-0.1 0.1-0.1c0 0 0-0.1 0-0.1 0.1 0 0.2 0 0.3 0.2q0 0 0 0.1v-0.1-0.1 0.1c0 0 0 0.1 0 0.1 0.1 0 0.1-0.1 0.1-0.1 0.1-0.1 0.1 0 0.1 0l-0.1 0.1q0 0 0 0 0 0.1-0.1 0.1 0.1 0 0.2 0.1 0.1 0 0.1-0.1h-0.1c0 0.1 0 0 0-0.1 0 0 0.1-0.1 0.1-0.1 0 0.2 0 0.1 0 0.2 0.1 0 0.1-0.1 0.1-0.2 0.1-0.1 0.1 0.2 0.1 0.1 0.1 0 0 0.2 0.1 0.1 0-0.1 0-0.1 0-0.1 0.1-0.1 0.1-0.2 0.2 0 0 0 0.1-0.1 0.2 0 0.1 0 0.2-0.1 0.2 0.2q0 0 0 0c0.1-0.2 0.1-0.1 0.1 0 0.1 0 0.1-0.2 0.2-0.1q0.2 0 0.5 0c0 0 0.1 0.2 0.2 0.1 0 0 0 0 0 0q0 0 0 0 0.1 0 0.2 0.1c0.1 0 0.1-0.1 0.1-0.1 0.2 0.1 0.3 0 0.5 0.1h0.2 0.2c0 0.1 0.1 0.1 0.1 0 0.1-0.2 0.2 0.2 0.3 0 0 0 0 0.1 0.1 0.1 0 0.1 0.1 0 0.1 0 0.2-0.1 0.3 0 0.4 0q0.1 0 0.3 0 0 0 0 0.1v0.1c0.1 0 0-0.1 0-0.2l0.1 0.1c0 0 0 0 0-0.1 0.1 0 0.1 0 0.2 0 0.1 0 0.1 0 0.2 0 0.2 0.1 0.4 0 0.5 0 0.2 0 0.3 0 0.4 0.1 0.1 0 0.2-0.1 0.3-0.1 0 0.1 0.1 0.1 0.1 0.1 0.1-0.1 0.1 0.1 0.2 0.1 0.1 0.1 0.2-0.2 0.3-0.1 0.1 0 0.1 0 0.2-0.1 0 0 0 0.2 0 0.1q0.3-0.2 0.5 0c0.1 0 0.1 0 0.1-0.1 0 0 0 0.1 0.1 0.1 0-0.1 0.1-0.1 0.2-0.1q0.2-0.1 0.3-0.1c0.3 0 0.5 0.1 0.7-0.1 0.1 0.3 0.1-0.1 0.1 0.1q0.1 0 0.1 0 0-0.1 0-0.1 0 0 0 0l0.2 0.1q0 0 0 0l0.2-0.2c0 0 0-0.1 0-0.1q0 0 0 0 0.1 0.1 0.1 0.1zm-18-5.8q0 0 0 0.1 0 0 0.1 0c0-0.1 0.1-0.2 0.1-0.2-0.1-0.1-0.2 0.1-0.2 0.1zm-1.2-0.7c-0.1 0.1 0 0.1 0 0.2q0.2-0.1 0-0.2 0 0 0 0 0 0 0 0zm-0.9-0.6q-0.1 0-0.1 0.1 0 0 0.1 0 0.1 0 0.1-0.1c0 0-0.1 0-0.1 0zm0.2-0.4c0 0 0.1 0 0.1 0 0.2-0.1-0.2-0.1 0-0.2h-0.1c-0.2 0.1 0.1 0.1 0 0.2zm-0.4 0.2c0-0.1 0-0.1 0-0.1q0 0-0.1 0l-0.1 0.1h0.1q0 0 0 0c0.1-0.1 0 0 0.1 0zm0.2 0c0 0.1 0.1 0.1 0.1 0.1q0-0.1-0.1-0.2 0 0-0.1 0 0 0.1 0.1 0.1zm-0.3 0.8q0 0 0-0.1l-0.1 0.1q0 0 0 0 0 0 0-0.1c0-0.1 0.1-0.2 0-0.3 0.1-0.1 0-0.2-0.1-0.1q0 0 0 0 0.1 0.1 0.1 0.1c0 0 0.1 0.1-0.1 0q0 0.2 0 0.4c0 0.1 0.1 0 0 0.1q0.1 0 0.1 0c0 0 0.1-0.1 0.1-0.1zm0.3 0.7l-0.1-0.2q0 0-0.1 0 0 0.1 0 0.1-0.1 0-0.1 0.1 0.1 0 0.1 0c0.1-0.2 0.1 0 0.1 0zm0.6-0.3h0.1q0-0.1 0-0.1 0 0 0 0 0 0 0.1-0.1 0 0.1 0 0.1c0.1 0.1 0.1 0.1-0.2 0.1q0 0 0 0 0 0.1 0 0.1h0.2c0-0.1 0.2-0.1 0.1-0.2-0.1 0 0-0.1 0-0.1-0.1-0.1-0.1-0.1-0.2-0.1 0.1-0.1-0.2-0.2-0.1-0.3 0 0 0-0.1-0.1-0.1 0 0 0 0-0.1 0.1q0 0 0 0 0 0-0.1-0.1 0 0 0-0.1 0 0.1 0 0.1 0 0 0 0.1 0 0 0 0 0 0 0 0-0.1 0-0.1 0c0 0.1 0-0.1-0.1 0q0 0-0.1 0.1-0.1 0 0 0 0 0.1 0 0.1 0 0 0 0-0.1 0-0.1-0.1c0 0.1-0.1 0.1 0 0.1q0 0.1 0.1 0.1c0.2 0 0.1-0.2 0.2-0.2 0 0.1 0.2 0 0.3 0 0.1 0.1 0.1 0.2 0.1 0.2q0 0.1 0 0.1 0 0 0 0-0.1 0-0.1 0c0.1-0.2-0.2 0-0.2-0.2q0 0.1 0 0.1 0 0 0 0c0.1 0 0 0.1-0.1 0.1 0 0-0.1-0.1-0.1 0 0 0-0.1 0.1-0.1 0.1q0 0-0.1 0.1 0 0 0.1 0l0.2-0.2c0 0.1 0.2-0.1 0.2 0-0.1 0.1 0 0.1 0 0.1 0 0 0.1 0 0.1 0 0.1-0.1 0 0.1 0.1 0zm-0.2 0.4q0 0 0 0l-0.1-0.1q0 0 0 0 0 0 0 0 0 0-0.1 0.1 0 0-0.1 0l0.2 0.1q0.1 0 0.1-0.1zm0.2-0.3c-0.1 0-0.1 0.1-0.1 0.1-0.1 0-0.1 0-0.2 0 0 0 0.2 0 0 0.1 0.1-0.1 0.3 0 0.3-0.2zm-0.3 0.2q0 0 0 0 0 0 0 0zm0.3 0.3h-0.1-0.1c0.1-0.1-0.1 0-0.1-0.1q0 0.1-0.1 0.2c0 0 0 0.1-0.1 0.1q0 0 0 0-0.1 0-0.1 0 0 0 0 0c0.1 0.1 0.2-0.1 0.2-0.1q0.1 0 0.1 0c0 0.1 0.2 0.1 0.2 0.1 0.1-0.1-0.1-0.1 0.1-0.2zm0 0.4c0.1-0.1-0.3 0.1-0.1-0.1l-0.3 0.2q0.2 0 0.4-0.1c-0.1 0 0 0 0 0zm0.5 0.1c0.1 0 0 0.1 0.1 0.1 0.1-0.1-0.2 0.2 0.1 0q0.1 0 0.2 0 0-0.1 0-0.2 0 0 0 0c0-0.1 0.1-0.1 0.1-0.2 0 0 0-0.1-0.1-0.1-0.1 0 0-0.2-0.2-0.2 0.1-0.1 0-0.1 0-0.1h0.1q0-0.1 0-0.1c0 0-0.1 0-0.1 0.1-0.2 0.1-0.1-0.1-0.2 0q0 0 0-0.1h0.1q0 0 0 0 0.1 0 0.1 0c-0.1-0.1-0.4 0-0.3-0.2q0-0.1 0-0.1l-0.3 0.2c0.2-0.1 0 0.1 0.1 0.1q0 0 0.1 0 0-0.1 0-0.1h0.1l-0.2 0.1h-0.1l0.1 0.1q0 0 0.1-0.1h0.1c-0.2 0.1-0.1 0.2-0.2 0.2 0 0-0.1 0.1-0.1 0.1q0-0.1 0-0.1v0.3c0 0 0.1 0 0.1 0 0.1-0.2 0.1 0 0.2-0.1q0 0 0 0 0-0.1 0 0l0.2 0.2c0 0-0.1 0 0 0.1 0 0-0.1 0.1-0.1 0.1zm0 0.9q0.1 0 0.2-0.1c0-0.1-0.1 0-0.1 0 0.2-0.3-0.2-0.2-0.1-0.4q0 0.1 0 0.1-0.1-0.1-0.1-0.1c0 0 0 0 0 0 0.1-0.1-0.1-0.2 0.1-0.3q0 0 0 0-0.1 0-0.1 0.1c0 0.1-0.1 0-0.1 0-0.1 0-0.1 0-0.1 0.1q0 0.1 0 0.1c0 0.1-0.1 0.2 0 0.2 0.1 0 0 0.1 0 0.1 0.2-0.1 0.3 0 0.4 0.1 0 0-0.1 0.1-0.1 0q0 0 0-0.1v0.1q0 0 0 0 0 0 0.1 0.1c0 0 0 0-0.1 0zm0.8-0.6c0 0 0-0.1 0-0.1 0 0-0.1 0.1-0.1 0.1 0.1 0-0.1 0.1 0 0.1 0 0 0.1-0.1 0.1-0.1zm0.5 0.3h-0.1c-0.1 0-0.1-0.1-0.3 0.1 0 0 0.1-0.2 0 0-0.1 0-0.1 0.1 0 0.1-0.1 0.1 0-0.1-0.2 0q0 0 0 0c0.2-0.2 0.2-0.3 0.2-0.4q0 0-0.1 0 0 0 0 0 0 0.2-0.1 0.3c0 0.1-0.1 0.2-0.2 0.3 0 0 0 0-0.1 0 0 0 0.1-0.1 0-0.1q0 0.1 0 0.2 0 0 0.1 0.1c-0.1 0 0 0.1-0.1 0.2 0 0 0.1-0.1 0.1-0.1 0.1-0.1 0.1 0 0.1-0.1 0 0-0.1 0-0.1 0 0 0 0.1-0.1 0-0.1 0.1-0.1 0.2-0.3 0.3-0.2 0.1 0 0 0.1 0.1 0 0 0 0-0.1 0-0.1l0.1-0.1q0 0.1 0 0.1 0 0 0 0zm-0.3 0.6q0.1 0.1 0.2 0.1c0.1 0.1 0.3 0 0.3 0.2 0 0 0 0 0.1 0q0 0 0 0v-0.1c0 0-0.1-0.1-0.1-0.2-0.1 0 0 0 0-0.1 0 0 0 0 0 0q-0.1 0-0.2 0 0 0 0 0 0.1 0 0.1 0 0 0 0 0 0-0.1 0-0.1 0 0 0 0.1-0.1 0-0.2 0c0 0 0-0.1 0-0.1q0.1 0 0.1-0.1 0 0 0 0.1c0 0-0.1 0.1 0 0.1 0-0.1 0.1-0.2 0.2-0.3 0 0 0-0.1 0-0.1-0.3 0.2-0.3 0.4-0.5 0.5zm-0.1 0.8c0.1-0.1 0.2-0.1 0.1-0.3 0 0 0.1-0.2 0-0.2 0 0 0 0.1-0.1 0.1q0 0 0-0.1 0.1 0 0.1-0.1c-0.1 0-0.2 0.2-0.2 0.1q-0.1 0-0.1 0c0 0.2 0 0.2 0.2 0.2-0.1 0.1-0.1 0.2 0 0.2 0.1 0 0.1 0 0 0-0.1 0.2-0.1 0-0.1 0q-0.1 0-0.1 0 0 0.1 0 0.1c0.1 0 0.2 0 0.2 0zm0.5 0.1q0 0 0-0.1 0 0 0 0c-0.1 0.1-0.2-0.1-0.1-0.1 0-0.2-0.2 0-0.2-0.1l-0.1 0.1h0.1q0.1 0.1 0 0.3 0 0-0.1 0 0 0.1 0.1 0.1c0 0 0-0.2 0.1-0.1 0 0 0.1 0 0.2-0.1zm1-0.1q0 0 0 0v-0.1h-0.1c0 0 0-0.1 0-0.1q0.1 0 0.1 0 0 0 0 0.1 0.1-0.1 0.1-0.1 0 0 0 0c-0.1 0-0.1-0.2-0.2-0.1 0 0 0-0.1 0-0.2q0 0 0 0l0.1-0.1h-0.1c0 0.1-0.2 0.1-0.1 0.2-0.1 0 0 0.2-0.1 0.1 0 0 0-0.1-0.1 0q-0.1 0-0.2 0 0 0 0 0c0.1 0.2 0.1 0.2 0.1 0.2 0.2 0 0.3 0 0.3 0.2 0 0.1 0.1-0.2 0.2-0.1zm0.1 0q0 0 0 0-0.1 0-0.2 0v0.2zm0.9-0.8q0-0.1 0-0.2l-0.1 0.1q0 0 0 0 0 0 0 0 0-0.1 0-0.1 0 0-0.1 0c0 0 0 0 0 0 0.1 0 0.1 0.1 0 0.2 0 0.1 0 0.1 0 0.1 0.1 0 0.1 0 0.2-0.1zm-0.5 1.1c0-0.2-0.1-0.1-0.1 0 0 0 0-0.1-0.1-0.1q0 0 0 0c0 0.2 0.1 0.1 0.1 0.1q0.1 0 0.1 0zm0.8 0.4q0 0 0 0v0.1h0.1l-0.1-0.3v0.1l-0.1 0.1v-0.1q0-0.1 0-0.1c0 0-0.1 0-0.1 0-0.2 0.3-0.1 0.1-0.1 0.1q-0.1-0.1 0-0.1c-0.1 0-0.1 0.1-0.1 0.1 0.1 0.1 0 0.2 0.1 0.2 0.1 0 0.1 0 0.1 0.1-0.2 0.3 0.1 0 0.2 0.1q0 0 0-0.1 0 0 0-0.1 0 0.1 0 0.1c-0.1 0.1-0.1 0-0.1 0q0 0 0 0c0-0.1 0-0.2 0-0.2q0 0 0 0l0.2-0.1zm0.1 0.4q0 0 0-0.1c0 0-0.2 0 0-0.1q0.1 0 0.1-0.1 0 0-0.1 0c0 0-0.1 0.1-0.1 0.1q-0.1 0.2 0.1 0.2 0 0 0 0zm0 0q0 0 0 0zm0.9-0.8q0 0-0.1-0.1c0 0-0.1 0.1-0.1 0.1 0 0 0 0.1 0 0.1q0.1 0 0.2-0.1zm-0.2 1.1q-0.1-0.2-0.1-0.3l-0.2 0.2q0 0 0 0 0.1 0 0.1 0 0.1 0.1 0.1 0.1-0.1 0-0.1 0.1l-0.1 0.1q0.1-0.1 0.3-0.2zm0.3 0.1c0-0.3-0.2 0.1-0.2 0q-0.1 0.1-0.2 0.2c0 0.1 0.1-0.1 0.1 0l0.2-0.1c0 0 0.1-0.1 0.1-0.1zm0.3-0.1h-0.1q0 0-0.1 0 0.1 0.1 0.1 0.2c0 0 0.1-0.1 0.1-0.2zm0.7 0.6q0-0.1 0-0.2c0-0.2-0.1-0.1-0.2-0.1q0 0.1 0 0.1c0 0.1 0-0.1 0 0.1q0 0 0 0l0.1-0.1c-0.1 0.2 0.1 0.1 0 0.3q0.1-0.1 0.1-0.1zm0.6-1q0 0 0.1 0c0 0 0.1 0 0.1 0 0.1-0.2-0.1 0-0.1-0.1q0 0-0.1 0.1zm-0.2 0.7c0 0 0.1-0.1 0-0.1q0 0-0.1 0.1-0.1 0-0.2 0.1 0.1 0.1 0.1 0.2c0 0 0.1 0 0.1-0.1q0 0 0-0.1h-0.1l0.2-0.1q0 0 0 0c-0.1 0.2 0 0 0 0 0.1 0 0 0 0 0zm0.3-0.1c0-0.2-0.1 0.1-0.1 0.1 0 0-0.1 0-0.2 0.1 0.1 0 0.2 0 0.3-0.2q0 0 0 0zm0.1 1l-0.1-0.2c0 0.1-0.1 0.1-0.1 0.1 0 0.1 0.2 0 0.1 0.2zm0.3-0.1c0 0 0-0.1 0-0.1 0.1-0.2-0.1-0.1-0.1-0.2q0 0-0.1 0h0.1c-0.1-0.1-0.1 0-0.2 0 0 0.1 0 0.2 0 0.2 0.1 0 0.1 0 0.1-0.1q0 0 0.1-0.1c0 0.1 0 0.1 0 0.1-0.1 0.2 0.1 0.2 0.1 0.3q0-0.1 0-0.1zm0.8-0.2c-0.2 0-0.2-0.1-0.1-0.2 0 0 0-0.1 0-0.1-0.1 0 0 0.2-0.1 0.3 0 0.1 0 0.1 0.2 0zm0.4-0.9l0.2 0.1q0-0.1-0.1-0.2c0 0 0 0-0.1 0 0.1-0.1 0-0.1 0-0.2 0 0 0-0.1 0 0-0.2 0.2 0 0.2 0 0.3 0 0 0 0 0 0zm0 1c-0.1-0.1-0.1-0.2-0.2-0.1l-0.1 0.1q0.1 0.1 0.2 0.1zm0.3-1q0 0 0.1 0-0.1-0.1-0.1-0.1c-0.1 0.1 0.1 0 0 0.1q0 0 0 0zm-0.2 1.6q0 0 0 0l-0.1-0.2c0 0-0.1 0.1-0.1 0.1 0 0.3 0.2-0.1 0.2 0.1zm0 0.2c0-0.1 0-0.1-0.1-0.1 0 0 0 0 0 0v0.3q0.1-0.1 0.1-0.2zm0.6-1.9c-0.1-0.1-0.1 0.1-0.1 0.1q-0.1 0.2 0 0.2 0-0.1 0.1 0c0-0.1-0.1-0.2 0-0.3zm1.1 0.2c0 0 0 0-0.1-0.1 0 0.1-0.1 0.2-0.1 0.2 0 0.1 0.1 0 0.1 0 0 0 0.1 0.1 0 0.1 0 0.2 0.1 0 0.1 0 0 0 0-0.1 0-0.2zm0.4 0.8c-0.1 0-0.1 0-0.1 0q0 0-0.1 0.1 0 0 0 0.1 0.1-0.1 0.2-0.2zm0 0.5q-0.1-0.1-0.1-0.2c0 0-0.1 0.1-0.1 0.1q0.1 0.1 0.1 0.2c0.1 0 0.1-0.1 0.1-0.1zm0.8 0.3c-0.1 0 0-0.1 0-0.1-0.1 0 0 0.1-0.1 0.2q0 0.1 0 0.1 0.1-0.1 0.1-0.1c0-0.1 0-0.1 0-0.1zm0.2-0.3h-0.1q0 0-0.2 0 0 0 0 0 0 0 0 0 0 0.1 0 0.1 0.1 0 0.2 0 0 0 0.1-0.1zm0.2-0.7q-0.1-0.1-0.1-0.1-0.1 0-0.1 0.1l0.1 0.2c0-0.1 0-0.2 0.1-0.2zm0.2 0.1q0 0 0 0v0.2c0 0 0.1 0.2 0.1 0 0 0 0-0.1-0.1-0.2zm0.4 0.5l-0.1 0.2c0 0 0 0.1 0 0q0.1 0 0.2-0.1 0-0.1-0.1-0.1zm1.1 0.1c0 0 0-0.1-0.1-0.1q0 0.1-0.1 0.1c0.1 0.1 0.1 0.1 0.2 0.1q0 0 0-0.1zm0-0.1c0 0.2 0.1 0.1 0.2 0.2q0 0 0-0.1l-0.1-0.2c0 0-0.1 0.1-0.1 0.1zm0 0.5q0 0.1 0.1 0.2 0-0.1 0-0.2 0 0 0-0.1c0 0-0.1 0.1-0.1 0.1zm0.3 0.4l-0.2-0.2q-0.1 0.1-0.1 0.2h0.3q0 0 0 0zm1-0.6c-0.1-0.1-0.1-0.2-0.1-0.2-0.1 0-0.1 0-0.1 0.1 0 0 0 0.2 0.1 0.1zm0.6 0.5c0-0.1-0.1 0-0.1-0.1q0 0.2 0 0.2 0 0-0.1 0l0.1 0.1q0.1-0.1 0.1-0.2zm3.1-0.1q-0.1 0-0.2-0.1 0 0.1 0 0.1 0.1 0.1 0.1 0.1c0 0 0.1-0.1 0.1-0.1z"/><path class="a" d="m17.9 11q0 0 0 0 0 0 0 0z"/><path class="a" d="m13.6 10.8z"/><path class="a" d="m13.6 10.8z"/><path class="a" d="m3.5 2.7z"/><path class="a" d="m6.6 8.2q0 0 0.1 0h-0.1z"/><path class="a" d="m3 5.9z"/><path class="a" d="m13.8 9.9q0 0.1 0 0.1z"/><path class="a" d="m2 3.8z"/><path class="a" d="m9.6 9.4z"/><path class="a" d="m2.8 3.6q0 0 0 0z"/><path class="a" d="m1.5 3.2z"/><path class="a" d="m4.8 8.1z"/><path class="a" d="m4.3 7.7q0 0-0.1 0 0.1 0 0.1 0 0-0.1 0-0.1 0.1 0 0.1-0.1l-0.1 0.1q0 0 0 0-0.1 0-0.1-0.1 0 0 0 0 0 0 0 0-0.1 0.1-0.1 0.1c0.2 0 0.1 0.1 0.1 0.2-0.1 0.2 0 0.1 0 0.2h0.1l0.2-0.2z"/><path class="a" d="m1.1 2.5q0-0.1 0-0.1c0.1-0.1-0.1-0.1 0.1-0.2q0 0 0 0h-0.2q0 0.1 0 0.2c0 0 0.1 0.1 0.1 0.1z"/><path class="a" d="m4.5 8q0 0 0 0-0.1 0-0.1 0 0 0 0.1 0c0.1-0.1 0.1-0.1 0-0.1-0.1 0 0.1-0.1 0-0.1l-0.2 0.2c0 0.2 0.2 0 0.3 0.1v-0.1c0 0 0-0.2-0.1 0z"/><path class="a" d="m3.2 2.6c0 0 0 0.1 0.1 0.2q0-0.2 0.1-0.4c0 0-0.1 0-0.1 0-0.1 0.1-0.1 0.2-0.1 0.2z"/><path class="a" d="m4.8 8.1z"/><path class="a" d="m4.9 8c-0.1 0-0.1-0.1-0.2 0-0.1 0.1 0-0.2-0.1 0 0 0.2 0.1 0.2 0.2 0.1 0 0 0.1-0.1 0.1-0.1z"/><path class="a" d="m4.8 4.7c0.1-0.1-0.2 0-0.1-0.1q0 0-0.1 0c0 0.1 0 0.1 0 0.2 0 0 0.1 0 0.2-0.1z"/><path class="a" d="m5.6 8.7c0 0 0 0 0.1-0.1l-0.1-0.1 0.1-0.1-0.2 0.1q0 0.1 0.1 0.2z"/><path class="a" d="m8.5 9.9q0-0.1-0.1-0.1c0 0 0-0.1-0.1 0.1 0 0.2 0.2-0.1 0.1 0.1 0 0 0.1-0.1 0.1-0.1z"/><path class="a" d="m4.8 5q0-0.1 0.1-0.1 0 0-0.1 0 0 0 0 0 0 0 0 0 0 0.1-0.1 0.1 0 0 0 0c-0.1 0-0.1 0.1-0.1 0.1h0.1c0-0.1 0.1-0.2 0.1-0.1z"/><path class="a" d="m4.7 5.1q0 0 0 0z"/><path class="a" d="m6.3 8.8v0.1c0 0.1-0.1 0.2 0 0.2 0-0.1 0.1-0.2 0.1-0.2 0 0-0.1 0.1-0.1-0.1z"/><path class="a" d="m20.9 10.7q0 0 0 0l0.2 0.2c0 0 0-0.1 0-0.1-0.1-0.1-0.1 0-0.2-0.1z"/><path class="a" d="m13.1 11q-0.1 0-0.1 0.1 0 0 0 0 0.1 0 0.1 0c0-0.1 0-0.2 0-0.1z"/><path class="a" d="m10.6 10.5l-0.1 0.2q0 0 0.1 0 0 0 0 0.1 0-0.2 0-0.2c0-0.1 0-0.1 0-0.1z"/><path class="a" d="m14.7 11.1q0 0 0 0.1 0 0 0.1 0c0 0 0 0 0-0.1q0 0-0.1 0z"/><path class="a" d="m17.6 10.9c0 0-0.1 0.1-0.1 0.1 0 0.2 0.1-0.1 0.1 0q0 0 0.1 0c-0.1-0.1-0.1-0.1-0.1-0.1z"/><path class="a" d="m7.9 9.6c-0.1 0.1-0.1 0.2-0.2 0.2q0 0.1 0.1 0c0.1-0.2 0.1-0.1 0.1 0 0.1-0.1-0.1-0.1 0-0.2z"/><path class="a" d="m3.3 2.6q0.1 0.1 0.2 0.1 0 0 0 0c-0.1 0 0-0.1-0.2-0.1z"/><path class="a" d="m3.5 2.7z"/><path class="a" d="m3.5 2.7z"/><path class="a" d="m6.3 8.9z"/><path class="a" d="m6.3 8.8q0-0.1 0-0.1c0 0-0.1 0.1-0.1 0.1v0.2l0.1-0.1c-0.1 0-0.1-0.1 0-0.1z"/><path class="a" d="m6.3 8.9z"/><path class="a" d="m6.3 8.9z"/><path class="a" d=""/><path class="a" d="m13.6 10.7q0-0.1 0 0 0 0.1 0 0.2 0 0 0 0v-0.1z"/><path class="a" d="m13.6 10.8z"/><path class="a" d="m12.4 11q0.1 0 0.2 0.1 0-0.1 0.1-0.1h-0.2q-0.1 0-0.1 0z"/><path class="a" d="m3 5.2c0.2 0 0-0.1 0.1-0.1 0.1-0.1 0.2-0.2 0-0.2l-0.1 0.2c0 0.1 0 0.1 0 0.1z"/><path class="a" d="m3 4.6c-0.1 0-0.1 0.1 0 0.1q0 0 0.1 0 0 0 0-0.1-0.1 0-0.1 0z"/><path fill-rule="evenodd" class="a" d="m24.2 8.7c0.1 0 0.2 0.2 0 0.2 0 0-0.1 0-0.1 0 0 0 0 0.1 0 0.1 0.3 0.1-0.2 0.2 0.1 0.3-0.1 0.1 0 0.3-0.1 0.4-0.1-0.2-0.1 0-0.2-0.1 0 0 0.1-0.1 0-0.1q0 0 0-0.1h0.1q0 0 0-0.1l-0.2 0.1 0.1 0.1c-0.1 0-0.1 0.1-0.2 0.1-0.2 0-0.3 0-0.4 0.2 0 0 0 0 0 0 0 0-0.1 0 0 0.1q0 0 0.1 0 0 0 0 0 0 0 0 0c-0.2 0.1-0.4 0.1-0.5 0.3q0 0 0 0-0.1-0.1-0.1 0c0.1 0 0.1 0.1 0.1 0.1l0.1-0.1q0.1 0.2 0 0.2c-0.1 0-0.1 0-0.1 0q-0.2 0-0.4 0 0.1 0.1 0.1 0.1c0 0.2-0.1 0-0.1 0.1 0 0.1 0 0.1-0.1-0.1 0 0-0.1 0-0.1 0 0 0.1-0.1-0.1-0.1 0q0 0.1 0 0.1-0.1 0-0.1 0v-0.1l-0.1-0.3 0.2 0.1q0.1-0.1 0.1-0.2l-0.3 0.1q0 0 0 0l-0.4-1.5c0 0 0.1 0 0.1 0q0 0 0 0v-0.1h-0.1q0 0 0.1 0 0-0.1 0-0.1c0.1 0.4 0.1 0.1 0.2 0.1 0.1 0.1 0.1 0.1 0.2 0.1q0 0 0 0 0-0.1 0-0.1 0 0 0-0.1 0.1 0 0.1 0c0.1 0 0.2-0.1 0.4-0.1 0 0 0.1 0 0.1-0.1 0.1-0.1 0.2-0.1 0.4 0q0-0.1-0.1-0.1c0 0 0-0.1 0-0.1 0 0 0.1 0 0.1 0 0.1 0 0.2 0.1 0.1 0 0 0 0.1 0 0.1 0q-0.1-0.2 0 0c0-0.1 0.1 0 0.2 0.1 0.1 0.1 0.1 0.1 0.1 0.1h0.1q0 0.1-0.1 0.1 0 0 0 0.1 0.1 0 0.1 0 0 0 0.1 0 0 0-0.1 0.1c0 0.1 0.2 0.1 0.2 0.2q0 0 0.1 0c0.1-0.1 0.1-0.1 0.2-0.1zm-1.9 1.2q-0.1-0.1-0.2-0.1c0 0 0 0 0 0.1q0.1 0 0.2 0.1zm0.1 0.3h-0.1q0 0.1 0 0.1c0 0.1 0 0.1 0 0 0-0.1 0.1 0.2 0.1 0.1q0-0.1 0-0.2zm0.3-0.3c0 0-0.1-0.1-0.1-0.1 0 0 0 0.1 0 0.1q-0.1 0-0.1 0c0-0.1 0-0.1 0-0.1q-0.1-0.1-0.1-0.1 0 0.1 0 0.2c0 0 0 0 0 0-0.1 0.1-0.1 0.2 0 0.3q0.1 0 0.1 0 0 0 0-0.1l-0.1-0.1h0.1zm0.1-0.2c0 0-0.1-0.1-0.2 0-0.1 0 0 0 0 0 0 0.2 0.1 0 0.1 0.1z"/><path class="a" d="m23.5 8.1q0.1 0 0.1 0.1 0.1 0 0.2 0.1 0 0-0.1-0.1-0.1 0-0.2-0.1z"/><path class="a" d="m16.4 2.2z"/><path fill-rule="evenodd" class="a" d="m16.6 3.4l-0.3 0.4q0.1 0 0.1 0c-0.1 0-0.2 0.1-0.2 0 0 0 0 0-0.1 0 0 0.1 0.1 0 0.1-0.1 0-0.1 0-0.1 0.1-0.1 0 0 0-0.1 0-0.1q0-0.1 0.1-0.1c-0.1 0-0.1 0.1-0.1 0.1 0-0.1-0.2 0.3-0.2 0.2 0 0-0.1 0.1-0.1 0.1 0 0.2-0.1 0.1-0.1 0.1q0 0 0 0 0 0 0 0v0.1q0 0 0 0-0.1-0.1-0.2-0.2c0 0 0 0.1-0.1 0.1q0 0 0-0.1c0 0 0.1-0.1 0.1-0.1q0 0 0 0 0 0.1 0 0.1c0-0.1 0-0.1 0-0.1q0-0.1 0-0.1 0 0 0 0 0 0 0 0 0 0 0 0c0.1 0 0-0.1 0.1-0.1-0.1 0 0.3-0.6 0.1-0.4-0.1 0.1 0-0.1 0-0.1q0 0 0 0 0-0.1 0.1-0.2 0 0 0 0-0.1 0.1-0.1 0.1 0 0 0 0 0-0.1 0.1-0.2 0.1-0.2 0.3-0.5c0 0 0-0.1 0-0.1q0 0.1 0.1 0 0 0 0 0 0 0 0 0.1 0 0 0 0 0 0 0-0.1 0.1 0 0.1 0l-0.1 0.1q0 0 0 0 0 0 0 0h0.1q0-0.1 0 0c0 0.2 0.1 0.1 0.1 0q0 0 0 0.1 0 0 0 0 0 0 0 0.1 0-0.1 0 0c0 0 0.1-0.2 0 0h0.1v-0.1q0.1-0.1 0.1-0.1c0.1-0.1 0 0.1 0.1 0.1 0 0 0 0 0 0q0 0 0 0c0.1 0 0.1 0 0.1-0.1q0 0 0 0v0.1q0 0 0 0c0-0.1 0.1-0.1 0.1-0.1 0 0 0 0 0 0.1v-0.1q0 0.1 0 0.1l-0.1 0.2q0 0 0 0.1 0 0-0.1 0.1 0 0 0 0l-0.2 0.6c0-0.1 0-0.1 0-0.1h-0.1c0 0.1 0 0.2 0 0.2zm-0.5-0.3q0 0 0 0 0 0-0.1 0.1 0 0 0 0 0.1 0 0.1-0.1zm0.3-0.1l-0.2 0.1q0 0 0 0c0.1-0.1-0.1 0.2 0 0.1q0.1-0.1 0.2-0.2zm0.2 0.3c0-0.1 0-0.1 0-0.1 0-0.1-0.1 0.1-0.1 0.1v0.1z"/><path class="a" d="m16.3 3.9c0 0.1 0-0.1-0.1 0.1v-0.1q0 0 0 0c-0.1 0.1 0 0.1 0 0.2h-0.1q0.1 0 0.1-0.1c0.1-0.1 0 0 0 0.1l0.1-0.2q0 0 0 0z"/><path class="a" d="m16.2 3.9c-0.1 0-0.1 0-0.2 0.2 0.1-0.1 0.1-0.2 0.1-0.1q0.1 0 0.1-0.1z"/><path class="a" d="m16 4.1z"/><path class="a" d="m16 4.2v-0.1 0.1z"/><path class="a" d="m16.1 3.9q0 0-0.1 0 0 0.1 0 0.2 0-0.1 0-0.1c0.1-0.1 0.1-0.1 0.1-0.1z"/><path class="a" d="m17.1 2.5q0 0 0 0z"/><path fill-rule="evenodd" class="b" d="m17.7 4.3c0 0 0-0.1 0-0.1 0 0 0.1-0.1 0.1-0.1l-0.1-0.1q-0.1 0-0.1 0.1 0 0 0 0c0 0.1-0.1 0-0.1 0.2l-0.1-0.1q0 0 0 0c0 0 0.1-0.1 0.1-0.1 0-0.1 0-0.1 0.1-0.2v-0.1l-0.1 0.1v0.1h-0.1l0.1-0.1 0.1-0.1h-0.1q0 0.1 0 0.1 0 0 0 0c0 0.1 0-0.1-0.1 0l0.2-0.3q0 0.1 0 0.1c0 0.1 0.1 0 0.2-0.1q0 0-0.1 0.1v0.1c0-0.1 0 0 0.1-0.1 0 0 0-0.1 0-0.1q0.1 0 0.1 0l-0.1 0.1c0 0 0.1 0 0 0.1 0.2-0.2 0.1 0 0.1 0 0.1-0.1 0.1 0 0.1 0 0 0 0 0.1-0.1 0.2q0 0 0 0 0 0.1 0 0.1 0 0.1-0.1 0.2c-0.2 0.3 0-0.1 0 0-0.1 0.1 0-0.1-0.1 0zm0.1-0.4q0 0 0-0.1 0 0 0 0.1c-0.1 0-0.1 0-0.1 0.1q0.1-0.1 0.1-0.1zm0 0.2v0.1c0 0 0 0.1 0 0.1 0.1-0.1 0-0.1 0.1-0.2 0-0.1 0.1-0.2-0.1 0z"/><path class="a" d="m20.7 6.7z"/><path class="a" d="m18.2 4.4z"/><path class="a" d="m22.4 7.5z"/><path fill-rule="evenodd" class="a" d="m24.5 9l-0.4 0.1 0.3-0.1q0 0 0 0h-0.1q-0.2 0-0.4 0.1-0.1 0-0.2 0c0.5-0.1-0.2 0 0 0 0.1 0-0.1 0 0.1-0.1 0.1 0 0.3 0 0.2 0h0.1c0.2-0.1 0 0 0 0 0.1-0.1-0.1 0-0.1 0q0 0 0-0.1 0 0 0.1 0c-0.3 0.1-0.2 0-0.2 0 0 0 0.1 0 0.2 0q0-0.1 0-0.1c-0.1 0-0.1 0.1-0.2 0.1-0.1 0-0.1 0-0.2 0.1 0-0.1-0.1 0 0-0.1 0.2-0.1 0.2-0.1 0 0q0.1-0.1 0.1-0.1c0.1-0.1 0.1-0.1 0.3-0.2q0 0 0.1 0h-0.1c0.1-0.1-0.1 0-0.1 0.1-0.3 0.2-0.1 0-0.3 0.1q0 0 0 0 0.1-0.1 0 0 0 0 0 0 0 0 0 0v-0.1h0.1q0 0 0 0 0 0 0 0c-0.1 0-0.3 0.2-0.2 0.1l0.1-0.1c0.1-0.1 0.1-0.1 0.2-0.2q0 0 0.1-0.1l-0.2 0.2q0 0-0.1 0c-0.1 0.1-0.1 0.1-0.1 0 0.1-0.1 0 0.1 0 0q0 0 0.1-0.1 0 0-0.1 0c-0.2 0.4-0.1 0.1 0 0 0-0.1 0-0.1-0.1-0.1-0.1 0.1 0.1-0.1 0-0.1v0.1c0-0.1 0-0.1 0 0-0.1 0.1-0.1 0-0.2 0.1 0 0-0.1 0 0.1-0.1 0 0 0-0.1 0-0.1-0.1 0-0.2 0-0.2 0q-0.1 0-0.1 0l0.1-0.1 0.1-0.1q0 0 0 0.1c-0.1 0.1 0.1-0.2-0.1-0.1q0 0.1-0.1 0.1 0 0 0.1 0.1c0 0 0-0.1 0-0.1-0.1 0.1-0.1 0.1-0.1 0.1 0 0-0.1 0-0.1-0.1 0.1-0.1 0 0 0-0.2q0 0 0 0.1 0 0 0 0c0 0.1 0 0.1-0.1 0.2q0 0 0 0 0-0.1 0-0.1c0 0 0.1-0.1 0 0-0.1 0 0.1-0.3 0-0.2q-0.1 0 0-0.1c0 0-0.1 0-0.1 0q-0.1 0-0.1 0.1c0 0 0-0.1 0-0.1 0 0 0-0.1 0-0.1-0.1 0.1-0.1 0-0.2 0.1-0.1 0-0.1-0.1-0.2-0.1 0 0 0.1-0.1 0.1-0.1q-0.1 0-0.2 0.1 0 0 0 0 0-0.1 0.1-0.1 0 0 0 0c0-0.1 0.1-0.1 0-0.2q0 0 0.1 0c0 0 0 0 0 0 0.2-0.2 0.1 0 0.2-0.1l-0.1 0.1q0 0 0 0 0 0 0 0 0 0 0 0 0 0 0 0 0 0 0.1 0l-0.1 0.1c0.1 0 0.2-0.2 0.2-0.2 0-0.1 0-0.1 0-0.1-0.1 0-0.1-0.1-0.3 0.2 0-0.1-0.1 0.1-0.1 0.1-0.1 0-0.1-0.1 0-0.1q0 0-0.1 0c-0.1 0.2 0-0.1-0.2 0.1 0 0 0 0.1 0-0.1 0.1-0.1 0 0 0 0 0 0-0.1 0-0.2 0.2q0 0 0 0 0-0.1 0.1-0.2 0 0 0-0.1 0 0 0 0l0.1-0.2 0.1-0.1q0 0 0 0c-0.1 0.2-0.1 0.1-0.2 0.2-0.1 0.1-0.1 0.1-0.1 0.1 0 0 0 0 0.1-0.2q-0.1 0.1-0.1 0.1-0.1 0.1-0.1 0.1 0 0 0 0 0 0 0 0c0 0-0.1 0.2-0.1 0.1q0 0 0 0h0.1q0-0.1 0-0.2c0 0 0 0 0 0q-0.1 0-0.1 0.1c0 0-0.1 0.1-0.1 0.1q0 0 0.1-0.1c0.1-0.3-0.1 0-0.1-0.1q0 0.1 0 0.1v-0.1q0 0 0 0 0.1 0 0.1 0c0-0.1 0-0.1 0-0.1-0.1 0.1 0-0.1 0-0.1q0 0-0.1 0v0.1h-0.1q0-0.1 0 0c0 0 0 0 0 0q0 0 0 0 0 0 0 0c-0.1 0-0.1 0 0-0.1q0 0 0-0.1 0 0 0 0c0 0-0.1 0.1 0 0.1 0 0-0.1 0.1-0.1 0.1v-0.1q0 0 0 0l0.1-0.1c0 0 0 0 0 0-0.1 0-0.2 0.2-0.2 0.1 0.1-0.1 0 0 0 0 0 0-0.1 0.1-0.1 0.1 0 0 0 0.1 0 0.1q-0.1 0-0.1 0 0 0 0.1-0.1l0.1-0.2q0 0.1-0.1 0.1c0 0.1-0.1 0.1 0 0q0 0 0-0.1 0 0 0 0 0.1 0 0.1 0l0.1-0.1q-0.1 0-0.1 0 0 0.1-0.1 0.1c0.1-0.1 0 0 0.1-0.1q0-0.1 0-0.1 0 0 0 0.1c-0.1 0-0.1 0.1-0.1 0.1-0.1 0 0-0.1 0-0.1q0-0.1 0-0.1c-0.1 0-0.1 0.1-0.1 0.1q0 0 0 0.1-0.1-0.1 0-0.1c0-0.1-0.1 0-0.1 0-0.2 0.4-0.1 0-0.2 0.2q0-0.1 0-0.1 0.1-0.1 0.2-0.2h-0.1c-0.1 0.2 0-0.1-0.2 0.2 0 0 0 0.1 0 0.1q-0.1 0-0.1-0.1c0.1 0 0.1 0 0.1 0q0.1-0.1 0.1-0.2l0.1-0.2-0.1 0.2q0 0 0 0 0 0 0 0c0-0.1 0.1-0.1 0 0-0.1 0 0-0.1 0-0.1l0.1-0.2v0.1q0 0 0 0.1l0.1-0.1 0.1-0.2q0 0 0 0 0 0 0 0.1 0-0.1 0-0.1 0-0.1 0-0.1c0 0.1-0.1 0.2-0.1 0.2 0-0.1 0.1-0.1 0.1-0.2 0-0.1-0.1 0.1 0 0 0 0 0-0.1 0-0.1q0-0.1-0.2 0.1 0 0.1 0 0.2v-0.1q0 0 0.1 0v-0.1q0 0 0 0 0 0 0 0.1c-0.1 0.1-0.2 0.2-0.2 0.3 0 0 0 0 0 0 0-0.2-0.1 0-0.2 0.1 0-0.1 0 0 0 0 0-0.2-0.1 0 0.1-0.3-0.2 0.3 0-0.1-0.1-0.1q0 0 0 0c0 0 0 0.1 0 0.1 0 0.1-0.1 0.1-0.1 0.2 0 0 0-0.1 0-0.1q0-0.1-0.1-0.1c0 0 0 0.1-0.1 0.2-0.1 0.1 0.1-0.2 0-0.2 0.1-0.1 0 0 0-0.1q0 0.1 0 0.1c-0.1 0 0-0.2 0-0.1 0 0 0-0.1-0.1-0.1 0 0 0 0.1-0.1 0.1q0 0.1 0 0.1c0.1-0.1 0 0 0-0.1q0.1-0.2-0.1 0 0 0 0 0 0 0 0 0 0 0 0-0.1 0 0 0 0c0.1-0.1 0.2-0.2 0.1-0.2 0 0 0.1-0.2 0.1-0.1-0.1 0-0.2 0.2-0.2 0.3 0 0 0-0.1-0.1 0q0 0 0-0.1 0 0 0 0c-0.1 0.1 0 0 0-0.1-0.1 0.1 0-0.1-0.1 0q0 0 0 0c0-0.2-0.2 0-0.2-0.1q0-0.1-0.1-0.1c0 0.1-0.1 0.1-0.1 0.2q0 0-0.1 0.1c0.1-0.1 0 0 0.1-0.2q0 0 0 0l-0.1 0.1q0 0 0-0.1 0.1-0.1 0.1-0.1 0.1 0 0.1-0.1c-0.1 0.1 0 0 0 0q-0.1 0-0.2 0l-0.1-0.1c-0.1 0.3 0 0-0.1 0.1 0.2-0.3 0-0.2 0-0.2q0 0 0 0.1c0 0-0.1 0-0.1 0q0 0 0.1 0l-0.1 0.1v-0.1l0.1-0.2-0.1 0.1q0 0 0 0c0.1-0.1 0.1-0.1 0 0 0 0 0 0-0.1 0q0 0-0.1 0-0.1 0-0.1 0v0.1q0 0 0 0.1c-0.1 0-0.1 0-0.1-0.1q0 0.1 0.1 0 0-0.1 0.1-0.1 0 0 0 0l0.1-0.1c0-0.1-0.1 0-0.1-0.1 0 0.1 0.1-0.1 0 0.1q-0.1 0-0.1 0c0.1-0.3-0.1-0.1-0.1-0.3 0 0-0.1 0.1-0.1 0.1-0.1 0.1-0.1 0.1-0.1 0.1 0-0.1 0.1-0.2 0.1-0.2-0.1 0-0.2 0.2-0.2 0.4q0 0 0 0-0.1 0-0.1 0h0.1-0.1v0.1-0.2c0.1-0.1 0 0.1 0 0.1q0 0 0 0c0 0.1-0.1 0-0.1 0.1 0.1-0.2-0.1 0 0-0.1 0-0.1-0.1 0-0.1 0 0-0.1-0.1 0-0.1-0.1q0 0 0-0.2c0.1-0.1-0.1 0.1-0.1 0.1-0.1 0.1 0.1-0.1 0-0.1-0.1 0.1 0.1 0 0.1 0q-0.1 0-0.1 0 0-0.1 0.1-0.1-0.1 0-0.1 0 0 0.1-0.1 0.2c0-0.1 0-0.1 0-0.1 0-0.2 0-0.2-0.1-0.1 0.1-0.1-0.1 0.2-0.1 0 0.1-0.1 0 0-0.1 0q0 0 0-0.1c0 0.1 0.1-0.1 0.1-0.1q0 0 0 0 0 0 0 0 0 0-0.1 0.1 0 0 0 0v-0.1q0 0-0.1 0 0 0-0.1 0-0.1-0.1-0.1-0.2-0.1 0-0.1 0c0-0.1 0-0.1-0.1-0.1-0.1 0-0.1 0-0.1-0.1 0-0.1-0.1-0.1-0.1-0.2 0-0.1-0.1 0.1-0.1 0 0.1-0.2-0.1 0.1 0-0.1 0 0 0-0.2 0-0.2 0 0.1 0 0 0 0 0-0.1-0.1-0.1-0.1-0.1 0-0.1 0.1-0.2 0.1-0.3-0.2 0.3-0.1 0.1-0.1 0l0.2-0.4q0 0.1 0 0.1c0.1-0.1 0 0.2 0.1 0.1v0.1q0.1-0.1 0.1-0.1c0.1-0.1 0-0.1 0-0.1 0 0 0 0 0-0.1l0.1-0.1c0 0 0-0.1-0.1 0q0 0-0.1 0 0.1 0 0.1 0 0-0.1 0-0.1 0 0 0 0c-0.1 0.2-0.1 0.1-0.1 0.1l0.3-0.6c0 0 0.1-0.1 0 0q0-0.1 0.1-0.1v-0.1c0.1 0 0.1 0 0.1-0.1q0.1-0.1 0.1-0.1 0 0 0 0c-0.1 0.2 0 0 0 0.1 0 0-0.1 0.1-0.1 0.1q0 0.1 0.1 0c0-0.2 0-0.1 0.1-0.1 0 0 0-0.1 0-0.1 0.1 0 0.1 0 0.1 0.1q0 0 0 0c-0.1 0.1 0.1-0.2 0 0 0 0 0 0 0.1 0 0.1-0.2-0.1 0.1 0 0.1-0.1 0.1-0.1 0.1 0 0q0 0 0 0.1-0.1 0-0.1 0 0 0 0 0 0 0 0 0c0 0.1 0 0.1 0 0.2q0 0.1 0 0.1c0 0 0.1 0 0.1 0q0 0 0 0c-0.1 0-0.1 0 0-0.2 0 0 0 0 0.1 0 0.1-0.2-0.1 0.2 0.1 0v-0.1q0 0 0 0c0 0 0 0 0-0.1 0 0 0.1 0.1 0.1 0 0 0-0.1 0.2-0.1 0.2 0.1 0 0.1-0.1 0.1-0.1q0.1 0 0.1 0l-0.1 0.1q0 0 0 0c0 0 0 0 0 0 0 0.1 0.1 0 0.2-0.1 0.1-0.1 0.2 0.1 0.1 0.4-0.1 0.1 0.1-0.1 0-0.1 0 0.2 0.1 0 0.1 0 0.2-0.2 0.1 0 0.1 0 0.1-0.1 0.1 0 0.1 0q0 0 0 0c-0.1 0.3 0.1-0.2 0 0.1 0.2-0.2 0 0.2 0.1-0.1-0.1 0.2 0 0.2 0 0.3q0 0 0 0-0.1 0-0.1 0 0 0.1 0 0.2v-0.1c0.1 0 0.1 0 0.1 0q0 0.2-0.1 0.2 0 0 0 0v0.1l0.1-0.2c0 0 0-0.1 0.1-0.1 0-0.1 0.1-0.2 0 0q0 0 0.1 0c-0.1 0.1-0.1 0.1-0.1 0.1q0 0.1 0 0.2v-0.2q0 0 0 0c0 0.1 0.1 0.1 0.1 0.1v-0.1q0 0 0.1 0 0-0.1 0.1-0.2 0.1 0 0.1 0c-0.1 0.1 0 0-0.1 0.2q0 0 0 0.1l0.1-0.1c0-0.1 0-0.1 0-0.1q0 0 0.1 0l-0.1 0.1v0.2q-0.1 0 0 0c0-0.1 0-0.1 0-0.1 0 0-0.1 0.1 0 0.1 0 0 0.1-0.1 0.2-0.2 0 0 0-0.1 0-0.1 0 0 0.1 0 0.1 0 0 0.1 0.1 0 0 0.1q0 0 0 0v0.1-0.1q0 0 0 0 0 0 0 0.1 0 0 0 0-0.1 0-0.1 0 0 0 0 0 0 0 0 0l-0.1 0.1v0.1q0 0 0 0c0 0.1 0 0 0 0q0 0.1 0 0.1 0 0 0.1 0 0 0 0 0 0.1-0.1 0.1-0.1c0-0.1 0.1-0.2 0.1-0.2v0.1h-0.1q0 0 0 0 0 0 0 0 0.1 0 0.1-0.1l0.1-0.1q0 0 0 0.1l-0.1 0.3c0.2-0.4 0.1 0 0.1 0 0 0 0-0.1 0.1-0.1 0.1-0.1 0.1 0 0.1 0 0.1 0 0.1-0.1 0.2 0q0 0 0 0-0.1 0.1-0.1 0.1 0 0 0-0.1l-0.1 0.1q0.1 0 0.2 0c0 0 0 0 0 0-0.1 0.2 0.1-0.1 0 0q0 0 0 0 0 0.1 0 0.1-0.1 0-0.1 0.1 0.1 0 0.1-0.1 0 0 0.1-0.1c0 0 0 0.1 0 0.1-0.1 0.1-0.1 0-0.1 0 0 0.1 0 0.1 0 0.1 0 0 0 0 0 0 0 0 0 0.1 0 0.2q0 0-0.1 0.1 0 0 0 0l0.1-0.1-0.1 0.1q0 0 0 0 0 0 0.1 0 0 0 0 0c0 0 0.2-0.2 0.1-0.2 0 0 0 0 0 0q0 0 0 0c0.1-0.2 0-0.2 0.2-0.3 0-0.1-0.1 0.1-0.1 0.2q0 0 0 0l0.1-0.1q-0.1 0-0.1 0.1 0 0 0 0.1v-0.1l0.1-0.1v0.1c0 0 0 0.1 0.1-0.1q0.1 0 0.1 0c0 0 0 0.1-0.1 0.1q0 0 0 0 0 0 0 0c-0.1 0.1-0.1 0.1-0.2 0.2 0 0.1 0 0.1 0.1 0 0.1-0.2 0.1-0.1 0.1-0.1 0.1-0.1 0.1 0 0.1-0.1q0-0.1 0.1-0.1c0 0-0.1 0.1-0.1 0.1v0.1q0 0 0 0 0.2-0.2 0.1 0 0 0.1-0.1 0.1v-0.1h0.1q-0.1 0.1-0.1 0.1 0 0 0 0.1 0-0.1 0-0.1h0.1q-0.1 0-0.1 0c0 0.1 0 0.1 0 0.1l-0.1 0.1c0.1 0 0.1-0.1 0.1-0.1 0.1-0.1 0.2-0.2 0.3-0.3 0 0-0.1 0.1-0.1 0.2 0.1-0.2 0 0 0.2-0.1-0.1 0.1 0.1-0.1 0 0.1q0 0 0 0l0.1 0.1c0.1 0 0.1 0 0.1 0 0.1 0 0.2 0 0.2 0.2 0 0.1 0.1 0 0.2 0 0 0.1 0.1 0 0 0.1-0.1 0.3 0.1 0 0.1 0.1 0 0 0.1 0 0.1 0 0.1 0.1 0.1 0.1 0 0.3q0 0 0 0l0.1-0.1q0 0 0 0c0 0-0.1 0.1-0.1 0.1q0.1 0 0.1-0.1c0.1-0.2 0 0.1 0.1-0.1l0.1 0.1c0 0-0.1 0.1-0.1 0.1 0 0.1 0.1 0 0.2 0 0 0 0.1 0 0 0.1 0.2-0.1 0 0.1 0 0.1q0 0 0.1 0c0-0.1 0-0.1 0-0.1 0.1 0 0.1 0 0 0.2q0 0 0 0h0.1v-0.1 0.1c0 0-0.1 0.1-0.1 0.1 0.1-0.1 0.1-0.1 0.2-0.2 0 0 0 0.1 0 0.1l-0.1 0.1q0 0-0.1 0 0 0 0 0l0.1 0.1q0 0 0 0v-0.1c-0.1 0.2 0 0.1 0 0 0-0.1 0.1-0.2 0.1-0.1-0.1 0.1 0 0.1 0 0.1 0 0.1 0 0 0.1-0.1 0.1-0.1-0.1 0.1 0 0.1 0 0-0.1 0.1-0.1 0.1 0.1-0.1 0.1-0.1 0.1-0.1 0.1-0.1 0.2-0.1 0.1 0 0 0.1 0.1 0 0.1 0 0.1 0 0.2 0 0 0.2q0 0 0 0c0.2-0.1 0.1 0 0.1 0 0 0.1 0.1 0 0.1 0q0.1 0.1 0.2 0.1c0 0 0 0.2 0.1 0.1q0 0 0 0 0 0.1 0 0.1c0 0.1 0.1 0 0.1 0 0 0.1 0.1 0.1 0.2 0.1l0.1 0.1h0.1c-0.1 0.1-0.1 0.1-0.1 0.1 0.2-0.2 0 0.2 0.2 0 0 0 0 0.1 0 0.1-0.1 0.1 0 0.1 0 0.1 0.1-0.1 0.2 0 0.2 0.1q0 0 0.1 0.1 0 0 0 0l-0.1 0.1c0 0 0-0.1 0.1-0.1v0.1c0 0 0-0.1 0-0.1 0.1 0 0.1 0 0.1 0 0 0.1 0.1 0.1 0.1 0.1 0 0.1 0.1 0.1 0.2 0.2 0 0 0.1 0 0.1 0.1 0 0.1 0.1 0 0.1 0.1 0 0 0 0.1 0 0.1 0.1-0.1 0 0.1 0 0.1 0 0.1 0.3 0 0.3 0.1 0 0.1 0.1 0.1 0.1 0.1 0.1 0-0.1 0.1 0 0.1 0.2-0.1 0.3 0 0.3 0.2 0 0 0 0 0.1 0 0 0-0.1 0.1-0.1 0.1 0.1 0 0.2 0 0.3 0q0.1 0.1 0.2 0.2c0.1 0.1 0.2 0.3 0.4 0.4-0.3 0.1 0.2 0 0 0.1q0 0 0 0 0.1 0 0.1 0 0 0 0 0 0 0 0 0.1 0 0 0 0 0.2 0 0.3 0.1c0 0 0.1 0 0.1 0q0.1 0 0 0c-0.1 0-0.1 0-0.1 0zm-6.2-5.8q0.1 0 0.1 0 0 0 0 0c0-0.1 0.1-0.2 0.1-0.2-0.1-0.1-0.1 0.2-0.2 0.2zm-0.8 0.2c0 0.1 0.1 0.1 0.1 0.1q0-0.1-0.1-0.1h0.1q0 0 0 0 0 0-0.1 0zm-0.6 0.3q0 0.1-0.1 0.2 0.1-0.1 0.2-0.1 0-0.1 0-0.2c0 0-0.1 0.1-0.1 0.1zm0-0.3c0.1 0 0.1-0.1 0.1-0.1 0.1-0.2-0.1 0.1 0-0.1h-0.1c-0.1 0.2 0.1 0 0 0.2zm-0.2 0.4c0 0 0.1-0.1 0.1-0.1q-0.1 0-0.1 0.1l-0.1 0.1h0.1q0 0 0-0.1c0 0 0 0.1 0 0zm0.2-0.1c0 0 0-0.1 0.1-0.1q-0.1 0-0.1 0-0.1 0-0.1 0 0 0.1 0.1 0.1zm-0.1 0.6q0 0 0 0 0 0 0 0 0 0 0 0c0-0.1 0-0.2-0.1-0.2 0-0.1 0-0.1-0.1 0q0 0.1 0.1 0.1 0-0.1 0-0.1c0 0 0.1 0 0 0.1q0 0.1 0 0.2c0 0 0.1-0.1 0 0q0.1 0 0.1 0c0 0 0-0.1 0-0.1zm0.2 0.2q0 0 0-0.1 0 0 0 0.1-0.1 0-0.1 0 0 0.1 0 0.2 0-0.1 0-0.1c0.1-0.2 0.1-0.1 0.1-0.1zm0.3-0.6v0.1l0.1-0.2q0 0 0 0 0 0 0 0 0 0 0 0 0 0 0 0c0.1 0 0.1 0 0 0.1q0 0.1-0.1 0.1 0 0 0 0 0.1-0.1 0.1-0.1c0-0.1 0.2-0.2 0.1-0.2 0 0 0 0 0-0.1 0 0-0.1 0-0.1 0.1 0-0.2-0.1 0-0.1-0.1 0 0-0.1 0-0.1 0 0 0 0 0.1 0 0.1q0 0-0.1 0.1 0 0 0-0.1 0 0 0 0 0 0 0 0 0 0.1 0 0.1 0 0 0 0v0.1q0 0-0.1 0c0 0 0-0.1 0 0.1q0 0-0.1 0.1 0 0 0 0 0 0 0.1 0-0.1 0-0.1 0.1 0 0 0 0c0 0 0 0 0 0q0 0 0 0c0.2-0.2 0.1-0.2 0.1-0.3 0 0.1 0.2-0.1 0.2-0.2 0.1 0 0.1 0.1 0.1 0.1q0 0 0 0 0 0.1 0 0.1 0 0 0 0c0-0.2-0.2 0.1-0.2 0q0 0.1 0 0.1 0 0 0 0c0.1 0 0 0 0 0.1q-0.1 0-0.1 0.1c0 0 0 0.1 0 0.1l-0.1 0.1q0.1 0 0.1 0l0.1-0.3c0 0 0.1-0.2 0.1-0.1 0 0.1 0 0 0 0 0 0 0.1 0 0.1 0 0-0.2 0 0 0.1-0.1zm-0.2 0.4q0 0 0 0 0 0 0-0.1l-0.1 0.2q0 0 0 0l0.1-0.1q0 0 0 0zm0-0.1q0 0 0 0 0 0 0 0 0 0 0 0zm0.1-0.2c0 0 0 0.1 0 0.1 0 0-0.1 0.1-0.1 0.1 0 0 0.1-0.1 0 0 0-0.1 0.1-0.1 0.1-0.2zm0.1 0.3l-0.1 0.1h-0.1c0.1-0.2 0 0 0 0q0 0.1 0 0.1c-0.1 0.1-0.1 0.1-0.1 0.2q0 0 0 0-0.1 0-0.1 0 0 0.1 0.1 0.1c0-0.1 0-0.2 0-0.2q0.1-0.1 0.1-0.1c0 0.1 0.1 0 0.1-0.1 0.1-0.1 0 0.1 0.1-0.1zm0 0.2c0-0.1-0.2 0.3-0.1 0l-0.1 0.3q0-0.1 0.2-0.2c-0.1 0 0-0.1 0-0.1zm0.3-0.2c0-0.1 0 0.1 0.1 0 0-0.1-0.2 0.3 0-0.1q0.1 0 0.1-0.1 0 0 0-0.1 0 0 0 0c0.1-0.1 0.1-0.2 0.1-0.2 0 0 0-0.1-0.1 0 0 0 0-0.2-0.1 0 0.1-0.2 0-0.1 0-0.1l0.1-0.1q0 0-0.1 0c0 0 0 0.1 0 0.1-0.1 0.1-0.1 0-0.1 0.1v-0.1q0.1-0.1 0.1-0.1c-0.1 0-0.2 0.2-0.2 0.1q0 0 0-0.1l-0.2 0.3c0.1-0.1 0 0.1 0.1 0q0 0 0 0 0-0.1 0-0.1h0.1l-0.1 0.1-0.1 0.1h0.1v-0.1l0.1-0.1v0.1c-0.1 0.1-0.1 0.1-0.1 0.2 0 0-0.1 0.1-0.1 0.1q0 0 0 0l0.1 0.1c0-0.2 0.1-0.1 0.1-0.2q0 0 0 0 0-0.1 0-0.1l0.2 0.1c-0.1 0-0.1 0.1-0.1 0.1 0 0 0 0.1 0 0.1zm0 0.6q0-0.1 0.1-0.1c0-0.2-0.1 0-0.1 0 0.1-0.3-0.1 0 0-0.2q0 0 0 0-0.1 0-0.1 0.1c0 0 0-0.1 0-0.1 0.1-0.2 0-0.1 0.1-0.2q0 0 0 0 0 0-0.1 0c0 0.1 0 0.1 0 0.2-0.1 0-0.1 0-0.1 0.1q0 0 0 0.1c0 0 0 0.1 0 0.1 0-0.1 0 0.1 0 0.1 0.1-0.2 0.2-0.2 0.2-0.2 0 0 0 0.1 0 0q0 0 0 0h-0.1q0 0.1 0.1 0.1 0-0.1 0-0.1c0 0 0 0.1 0 0.1zm0.5-0.8c0 0 0-0.1 0-0.1-0.1 0-0.1 0.1-0.1 0.1 0.1 0-0.1 0.1 0 0.1 0 0 0.1-0.1 0.1-0.1zm0.3 0h-0.1c0 0.1 0 0-0.1 0.2-0.1 0 0-0.2-0.1 0 0 0 0 0.1 0 0.1 0 0.1 0-0.1-0.1 0.1q0 0 0 0c0.2-0.3 0.1-0.4 0.1-0.4q0 0 0 0 0 0 0 0 0 0.2-0.1 0.3c0 0.1-0.1 0.2-0.1 0.3 0 0-0.1 0.1-0.1 0.1 0-0.1 0-0.1 0-0.1q0 0.1 0 0.1 0 0 0 0c0 0.1 0 0.2-0.1 0.3 0.1-0.1 0.1-0.2 0.2-0.2q0 0 0-0.1l-0.1 0.1c0 0 0.1-0.2 0.1-0.1 0-0.1 0.1-0.3 0.2-0.3 0 0 0 0 0 0q0-0.1 0-0.1l0.1-0.1q0 0 0 0 0 0 0 0.1zm-0.3 0.6q0.1-0.1 0.1-0.1c0.1 0 0.2-0.1 0.2 0.1 0 0 0-0.1 0.1-0.1q0 0 0-0.1c0 0 0-0.1-0.1-0.1 0 0 0 0 0.1 0q0-0.1 0-0.1-0.1 0.1-0.2 0.1 0 0 0 0 0.1 0 0.1 0 0-0.1 0-0.1 0 0 0 0 0 0 0 0.1-0.1 0-0.1 0c0 0.1 0 0 0-0.1q0 0 0 0 0 0 0 0c0 0 0 0.2 0 0.1 0.1-0.1 0.1-0.2 0.2-0.3 0 0 0 0 0 0-0.2 0.2-0.2 0.4-0.4 0.6zm-0.1 0.6c0-0.1 0.1-0.2 0.1-0.3 0 0 0.1-0.1 0-0.1 0 0 0 0.1-0.1 0.1q0 0 0.1-0.1 0-0.1 0-0.1c0 0-0.1 0.2-0.1 0.2q-0.1 0-0.1 0c0 0.1 0 0.2 0.1 0 0 0.2 0 0.2 0 0.2q0 0 0 0c-0.1 0.2 0 0-0.1 0.1q0 0 0 0 0 0 0 0.1c0 0 0.1-0.1 0.1-0.1zm0.3-0.1q0-0.1 0-0.1 0 0 0 0c-0.1 0.1-0.1 0-0.1-0.1 0.1-0.1-0.1 0.1-0.1 0v0.1q0 0 0 0.1c0 0 0 0.1 0 0.2q-0.1 0-0.1 0 0 0 0 0c0.1 0 0.1-0.1 0.1-0.1 0 0 0.1 0 0.2-0.1zm0.6-0.5q0 0 0 0h-0.1c0-0.1 0.1-0.1 0.1-0.1q0 0 0-0.1 0 0.1 0 0.1 0 0 0.1-0.1 0 0 0 0c-0.1 0 0-0.1-0.1 0 0 0 0-0.1 0-0.2q0 0 0 0h0.1-0.1c0 0-0.1 0.1-0.1 0.1-0.1 0.1 0 0.2 0 0.2-0.1 0 0-0.1-0.1 0q-0.1 0-0.1 0.1 0 0 0 0c0 0.1 0 0.1 0 0 0.1 0 0.2 0 0.2 0.1-0.1 0.1 0-0.1 0.1-0.1zm0 0q0 0 0-0.1 0 0.1-0.1 0.1v0.2zm0.7-0.9q0-0.1 0-0.2v0.1h-0.1q0 0 0 0 0.1-0.1 0.1-0.1-0.1 0-0.1 0 0 0 0 0.1c0.1-0.1 0 0 0 0.1q-0.1 0.1 0 0.1c0 0 0-0.1 0.1-0.1zm-0.5 1c0-0.1-0.1 0-0.1 0 0 0.1 0 0 0 0q0 0-0.1 0c0 0.2 0.1 0.1 0.1 0.1q0-0.1 0.1-0.1zm0.3 0.2v0.1l0.1-0.1v-0.2l-0.1 0.1q0-0.1 0-0.1c0 0 0 0-0.1 0.1-0.1 0.2 0 0 0 0q0 0 0-0.1c0 0.1-0.1 0.2-0.1 0.2 0 0 0 0.1 0.1 0.1q0 0 0 0c-0.2 0.4 0 0.1 0 0.1q0 0 0.1 0 0-0.1 0-0.1 0 0 0 0c-0.1 0.1-0.1 0-0.1 0q0 0 0 0c0.1-0.1 0.1-0.1 0-0.1q0 0 0.1 0l0.1-0.1zm0 0.3q0 0-0.1 0 0 0 0.1 0zm0-0.1c0 0-0.1 0 0-0.1q0.1 0 0.1-0.1 0 0-0.1 0c0 0 0 0.1-0.1 0.1q0 0.2 0 0.2 0.1-0.1 0.1-0.1zm-0.1 0.1q0 0 0 0zm0.8-0.9q0 0 0 0c0 0-0.1 0-0.1 0 0 0.1 0 0.1 0 0.1q0 0 0.1-0.1zm-0.5 1q0.1-0.1 0.1-0.3l-0.2 0.2q0 0.1 0 0.1 0.1 0 0.1 0 0 0 0 0 0 0.1-0.1 0.1v0.1q0-0.1 0.1-0.2zm0.2 0.1c0.1-0.3-0.1 0.1-0.1-0.1q-0.1 0.2-0.2 0.3c0 0.1 0.1-0.1 0.1 0l0.1-0.1v-0.1c0 0 0.1 0 0.1 0zm0.2-0.2q0 0-0.1 0 0 0 0 0.1 0 0 0 0.1c0 0 0.1-0.1 0.1-0.2zm0.1 0.5q0.1-0.1 0.2-0.2c0.1-0.2-0.1 0-0.1-0.1q0 0.1-0.1 0.1c0 0.1 0.1-0.1 0 0.1q0 0 0 0l0.1-0.1c-0.1 0.1 0 0.1-0.1 0.2q0 0 0 0zm0.8-1q0 0.1 0 0.1 0 0 0.1-0.1c0.1-0.1-0.1 0 0-0.1q-0.1 0.1-0.1 0.1zm-0.4 0.6c0 0 0.1-0.1 0.1 0q-0.1 0-0.1 0-0.1 0.1-0.2 0.2 0 0.1 0 0.1c0 0 0 0 0.1 0q0-0.1 0-0.1l0.1-0.1c-0.1 0.1 0 0 0 0 0-0.1 0-0.1 0-0.1zm0.2 0c0.1-0.2-0.1 0-0.1 0 0 0-0.1 0.1-0.1 0.1 0 0.1 0.1 0.1 0.2-0.1q0 0 0 0zm-0.4 0.9l0.1-0.3c0 0.1-0.1 0.2-0.1 0.2-0.1 0.1 0 0 0 0.1zm0.1-0.1q0.1 0 0.1-0.1c0.1-0.2 0 0 0-0.2q0 0 0 0v0.1c0-0.1 0 0-0.1 0 0 0-0.1 0.1-0.1 0.1q0.1 0.1 0.1 0 0-0.1 0.1-0.1 0 0.1 0 0.1c-0.2 0.2-0.1 0.1-0.1 0.2q0 0 0-0.1zm0.5-0.1c-0.1 0 0-0.1 0.1-0.2 0 0 0-0.1 0-0.1 0 0-0.1 0.2-0.2 0.2 0 0.2 0 0.1 0.1 0.1zm0.6-0.8l0.1 0.1q0-0.1 0-0.2c0 0 0 0 0 0 0.1-0.1 0-0.1 0.1-0.2q0 0-0.1 0c-0.1 0.2-0.1 0.2-0.1 0.3 0 0 0 0 0 0zm-0.4 0.9c0-0.1 0-0.2-0.1-0.1q0 0.1 0 0.2zm0.6-0.9q0 0 0 0 0-0.1 0-0.1c0 0 0.1 0 0 0.1q0 0 0 0zm-0.8 1.4q0 0 0-0.1v-0.1c0 0-0.1 0-0.1 0-0.1 0.3 0.1 0 0.1 0.2zm-0.1 0.1q0 0 0-0.1c0 0 0 0.1 0 0.1l-0.1 0.2zm1.1-1.6c0-0.1-0.1 0.1-0.1 0.1q-0.1 0.2-0.1 0.2v-0.1q0.1 0 0.1 0c0-0.1 0-0.1 0.1-0.2zm0.5 0.3q0 0-0.1-0.1 0 0.1-0.1 0.2c-0.1 0.1 0 0 0 0 0 0 0 0 0 0.1-0.1 0.1 0 0 0-0.1 0.1 0 0.1-0.1 0.2-0.1zm-0.3 0.7c0 0 0 0 0 0q0 0-0.1 0 0 0.1 0 0.1 0 0 0.1-0.1zm-0.2 0.5q0-0.1 0-0.2c0 0 0 0-0.1 0q0 0.1 0 0.3c0-0.1 0.1-0.1 0.1-0.1zm0.1 0.3c0 0 0.2-0.1 0.1-0.1 0 0-0.1 0.1-0.1 0.2l-0.1 0.1q0.1-0.1 0.1-0.1c0.1-0.1 0 0 0-0.1zm0.3-0.2q-0.1 0-0.1 0 0 0 0 0 0 0 0 0-0.1 0-0.1 0 0.1 0.1 0.1 0.1 0-0.1 0.1-0.1zm0.5-0.6q0 0 0-0.1-0.1 0.1-0.1 0.1l-0.1 0.2c0.1-0.1 0.1-0.2 0.2-0.2zm0 0.2q0 0 0 0l-0.1 0.2c0 0-0.1 0.1 0 0q0.1-0.1 0.1-0.2zm-0.1 0.4l-0.2 0.2c0 0 0 0 0 0q0.1 0 0.2-0.1 0 0 0-0.1zm0.4 0.4c0 0 0-0.1 0-0.1q-0.1 0-0.1 0.1c0 0-0.1 0.1 0 0q0 0 0.1 0zm0-0.1c-0.1 0.2 0 0.1 0 0.2q0 0 0 0l0.1-0.2q0 0-0.1 0zm-0.3 0.4q0 0.1-0.1 0.2 0.1-0.1 0.2-0.1 0-0.1 0-0.1c0 0-0.1 0-0.1 0zm-0.1 0.4v-0.2q0 0.1-0.1 0.1l0.1 0.1q0 0 0 0zm0.7-0.3c0 0 0.1-0.1 0.1-0.1 0 0-0.1 0-0.1 0 0 0.1-0.1 0.2 0 0.2zm-0.1 0.5c0-0.1-0.1 0 0-0.1q-0.1 0.1-0.1 0.1 0 0.1-0.1 0.1v0.1q0.1-0.1 0.2-0.2zm0.6 0.7q0 0 0 0 0 0 0 0-0.1 0-0.2 0.1c0 0 0.1-0.1 0.2-0.1z"/><path class="a" d="m23.3 8.5q0 0 0 0 0 0 0 0z"/><path class="a" d="m21.9 7.4z"/><path class="a" d="m21.9 7.4z"/><path class="a" d="m17.8 2.4z"/><path class="a" d="m19.5 5.2q0 0.1 0.1 0-0.1 0-0.1 0z"/><path class="a" d="m17.7 4.8z"/><path class="a" d="m22.4 6.7q0 0 0 0.1v-0.1z"/><path class="a" d="m17.1 4z"/><path class="a" d="m20.7 5.9z"/><path class="a" d="m17.6 3.4q0 0-0.1 0h0.1z"/><path class="a" d="m16.7 4.1z"/><path class="a" d="m18.5 5.7z"/><path class="a" d="m18.3 5.5v0.1q0 0 0-0.1 0 0 0 0l0.1-0.1h-0.1q0 0.1 0 0.1 0 0 0-0.1 0 0 0 0l-0.1 0.1q0 0 0 0c0.1 0 0 0.1 0 0.2-0.1 0.1 0 0 0 0.1h0.1l0.1-0.2z"/><path class="a" d="m16.4 4q0 0 0 0c0-0.1-0.1 0 0-0.2q0 0 0 0l-0.1 0.2q0 0 0 0.1c0 0 0.1-0.1 0.1-0.1z"/><path class="a" d="m18.4 5.7q-0.1 0-0.1 0 0 0 0 0 0 0 0 0c0.1-0.1 0.1-0.1 0.1-0.1-0.1 0.1 0.1-0.1 0 0l-0.1 0.2c-0.1 0.2 0-0.1 0.1 0v-0.1c0 0 0.1-0.2 0 0z"/><path class="a" d="m17.6 2.5q0 0 0.1 0 0-0.1 0-0.2c0 0-0.1 0.1-0.1 0.1 0 0 0 0.1 0 0.1z"/><path class="a" d="m18.5 5.7z"/><path class="a" d="m18.6 5.6c-0.1 0-0.1-0.1-0.1 0-0.1 0.2 0-0.1-0.1 0.1-0.1 0.2 0 0.1 0.1 0 0 0 0.1-0.1 0.1-0.1z"/><path class="a" d="m18.9 3c0.1-0.2-0.1 0.1 0 0h-0.1c0 0 0 0.1 0 0.1 0 0 0.1 0 0.1-0.1z"/><path class="a" d="m18.8 5.9c0 0.1 0 0 0.1 0v-0.1-0.1l-0.1 0.1q0 0.1 0 0.1z"/><path class="a" d="m19.9 6.4q0.1 0 0.1-0.1c0 0.1-0.1 0-0.1 0.1-0.1 0.2 0.1 0 0 0.1 0 0 0.1 0 0-0.1z"/><path class="a" d="m18.9 3.2q0.1-0.1 0.1-0.1 0 0 0 0-0.1 0-0.1 0.1 0 0 0 0 0 0 0 0 0 0.1 0 0.1c-0.1 0-0.1 0-0.1 0.1v-0.1h0.1c0 0 0-0.1 0-0.1z"/><path class="a" d="m18.9 3.3h-0.1q0 0 0.1 0z"/><path class="a" d="m19.2 5.9l-0.1 0.1c0 0-0.1 0.1 0 0.1 0-0.1 0.1-0.2 0.1-0.2 0 0-0.1 0.1 0 0z"/><path class="a" d="m23.9 8.9q0 0 0 0l-0.2 0.1c0 0 0 0 0 0 0.2-0.1 0 0 0.2-0.1z"/><path class="a" d="m21.6 7.5q-0.1 0-0.1 0.1 0 0 0 0 0 0 0.1 0c0-0.1 0-0.1 0-0.1z"/><path class="a" d="m20.7 6.9l-0.1 0.2q0 0 0 0 0 0 0 0 0.1-0.1 0.1-0.1 0-0.1 0-0.1z"/><path class="a" d="m22.2 7.9q-0.1 0-0.1 0 0 0.1 0 0.1c0 0 0.1-0.1 0.1-0.1q0 0 0 0z"/><path class="a" d="m23.3 8.3c0 0.1-0.1 0.1-0.1 0.1-0.1 0.1 0.1-0.1 0 0.1q0-0.1 0.1-0.1c0 0 0-0.1 0-0.1z"/><path class="a" d="m19.7 6.3c0 0-0.1 0.2-0.1 0.2q0 0.1 0-0.1c0.1-0.1 0.1 0 0.1 0 0.1-0.1 0-0.1 0-0.1z"/><path class="a" d="m17.7 2.4h0.1q0-0.1 0-0.1c0 0.1 0-0.1-0.1 0.1z"/><path class="a" d="m17.8 2.4z"/><path class="a" d="m17.8 2.4z"/><path class="a" d="m19.1 6z"/><path class="a" d="m19.2 5.8q0 0 0 0c0 0-0.1 0-0.1 0l-0.1 0.3 0.1-0.1q0-0.1 0.1-0.2z"/><path class="a" d="m19.1 6z"/><path class="a" d="m19.1 6z"/><path class="a" d="m21.9 7.4z"/><path class="a" d="m21.9 7.3q0.1 0 0 0l-0.1 0.2q0 0 0 0l0.1-0.1z"/><path class="a" d="m21.9 7.4z"/><path class="a" d="m21.3 7.4q0 0.1 0 0.1 0 0 0.1 0 0 0-0.1-0.1 0 0 0 0z"/><path class="a" d="m17.8 4.3c0.1-0.1 0-0.1 0.1-0.2 0-0.1 0.1-0.2-0.1 0v0.1c0 0 0 0.1 0 0.1z"/><path class="a" d="m17.8 3.9c-0.1 0-0.1 0-0.1 0.1q0.1-0.1 0.1-0.1 0 0 0-0.1 0 0 0 0.1z"/><path class="a" d="m26.4 8.8q0 0 0 0h0.1z"/><path fill-rule="evenodd" class="b" d="m24.1 9.7c0 0 0.1 0.1 0.1 0.1 0-0.1 0.1 0 0.1 0q0 0 0.1-0.1-0.1 0-0.1 0 0 0 0 0c-0.1-0.1-0.1-0.1-0.2-0.1l0.1-0.1q0 0.1 0 0.1 0 0 0.1 0c0.1 0 0.1 0 0.2 0.1h0.1l-0.1-0.1h-0.1l0.2 0.1v-0.1q-0.1 0-0.1 0 0 0 0 0c-0.1 0 0.2 0 0 0l0.3 0.1q0 0-0.1 0c-0.1 0 0.1 0.1 0.1 0.1q0 0 0 0h-0.1l-0.1-0.1c0.1 0.1 0 0.1 0.1 0.1 0.1 0 0.1 0.1 0.1 0.1q0 0 0 0h-0.1c0 0 0.1 0-0.1 0 0.2 0.1 0 0 0 0.1 0 0 0 0 0 0 0 0-0.1 0-0.2 0q0-0.1-0.1-0.1 0 0 0 0-0.1 0-0.2-0.1c-0.2-0.1 0 0 0 0q0 0 0 0c0.1 0.1 0.1 0 0.2 0.1 0.1 0 0.2 0.1 0 0l-0.1-0.1q0 0-0.1 0 0 0 0 0c-0.1-0.1 0.1 0 0-0.1zm0.4 0.1q0 0.1 0.1 0 0 0-0.1 0c-0.1 0 0 0-0.1 0q0 0 0.1 0zm-0.4 0q0 0 0 0 0 0 0 0z"/><path class="a" d="m21.5 11.9z"/><path class="a" d="m24 10.1z"/><path class="a" d="m20.7 13.4z"/><path fill-rule="evenodd" class="a" d="m19 15.8l-0.2-0.1h0.2q0 0 0 0h-0.1l-0.3-0.1q0-0.1 0-0.1c0.3 0.2-0.1-0.1-0.1 0 0.1 0 0-0.1 0.2-0.1 0.1 0.1 0.2 0.2 0.1 0.1h0.1c0.2 0.1 0 0 0.1 0 0.1 0-0.1-0.1-0.1-0.1q0 0 0.1 0 0 0 0 0c-0.1-0.1-0.1-0.1-0.1-0.1 0.1 0 0.2 0 0.2 0q0 0 0.1 0c-0.1 0-0.1 0-0.1-0.1-0.1 0-0.2-0.1-0.2-0.1 0.1 0-0.1-0.1 0.1 0q0.2 0.1 0-0.1c0.1 0 0.2 0 0.2 0 0.1 0.1 0.1 0.1 0.3 0.2q0 0 0.1 0h-0.1c0.1 0-0.1-0.1-0.1-0.1-0.3-0.2 0-0.1-0.2-0.2q0 0 0 0 0.1 0 0-0.1 0 0 0.1 0 0 0 0 0v0.1q0 0 0 0 0 0 0.1-0.1c0 0-0.3-0.1-0.2-0.1h0.1q0 0 0 0c0.2 0.2 0.2 0.1 0.3 0.1q0.1 0.1 0.1 0.1l-0.1-0.1q-0.1 0-0.1-0.1c-0.1 0-0.1-0.1 0-0.1 0.1 0.1 0 0 0 0q0.1 0 0.1 0 0 0 0 0c-0.3-0.3 0-0.1 0.1-0.1q0 0 0-0.1c0 0 0.2 0.1 0.1 0 0 0 0 0 0 0-0.1-0.1 0-0.1-0.1-0.1 0 0-0.1-0.1 0 0 0.1 0 0.2 0 0.2 0 0-0.1-0.1-0.1-0.1-0.2q0 0 0 0l0.1 0.1 0.1 0.1q0-0.1 0-0.1c-0.2-0.1 0.1 0.1 0 0q-0.1-0.1-0.1-0.1 0 0 0 0c0 0 0.1 0.1 0 0-0.1 0-0.1 0-0.1 0 0-0.1 0-0.1 0.1-0.1 0.1 0.1 0.1 0 0.2 0q0 0 0 0-0.1 0-0.1-0.1c-0.1 0-0.1 0.1-0.1 0q-0.1 0 0 0 0 0 0 0c0 0 0.1 0 0.1-0.1-0.1-0.1 0.2 0.1 0.1 0q0 0 0.1 0c0.1 0 0 0 0-0.1q0 0-0.1-0.1c0 0 0.1 0.1 0.2 0.1-0.1-0.1 0 0 0 0-0.1-0.1 0-0.1 0-0.2-0.1-0.1 0-0.1 0-0.2 0 0 0.1 0.1 0.1 0.1q0-0.1 0-0.2 0 0-0.1 0h0.1q0 0 0 0.1 0 0 0 0c0.1 0 0.2 0.1 0.2 0.1q0 0 0.1 0c-0.1 0-0.1 0-0.1 0.1 0.2 0.1 0 0 0.1 0.1h-0.1q0-0.1 0-0.1 0 0 0 0 0 0 0 0 0 0 0 0 0 0 0 0.1l-0.1-0.1c0 0.1 0.2 0.2 0.2 0.2 0.1 0 0.1 0 0.1 0 0-0.1 0.1-0.1-0.1-0.3 0 0-0.2-0.1-0.2-0.1 0-0.1 0.1 0 0.1 0q0 0 0 0c-0.2-0.2 0.1-0.1-0.1-0.2 0 0 0-0.1 0.1 0 0.1 0.1 0 0 0-0.1 0.1 0 0-0.1-0.1-0.2q0 0 0 0 0.1 0.1 0.2 0.1 0 0.1 0 0.1 0 0 0 0l0.2 0.1 0.1 0.1q0 0 0-0.1c-0.2-0.1-0.1-0.1-0.2-0.1-0.1-0.1 0-0.1 0-0.1 0 0 0-0.1 0.1 0q-0.1 0-0.1-0.1 0 0 0 0 0 0 0 0-0.1 0-0.1 0c0.1 0-0.1-0.2-0.1-0.2q0 0.1 0.1 0.1 0.1 0.1 0.2 0.1c0 0-0.1 0-0.1 0v-0.1q0 0 0 0c-0.1-0.1-0.1-0.1-0.1-0.1q0 0 0.1 0c0.2 0.2-0.1-0.1 0 0q0 0 0-0.1v0.1q0.1 0 0.1 0 0 0 0 0.1c0 0 0.1 0 0 0 0-0.1 0.2 0 0.2 0q0 0 0-0.1h-0.1v-0.1q0 0 0 0c0 0 0 0-0.1 0q0 0 0 0 0 0 0-0.1c0 0 0.1 0 0.2 0.1q0 0 0 0 0 0 0.1 0.1c-0.1-0.1-0.1-0.1-0.2-0.1 0 0 0-0.1-0.1-0.1h0.1q0 0 0 0.1h0.2c-0.1 0-0.1 0-0.1 0 0 0-0.1-0.2 0-0.1 0.1 0-0.1-0.1 0-0.1 0 0-0.1 0-0.1 0 0 0-0.1-0.1-0.1-0.1q0-0.1 0-0.1 0 0 0.1 0.1l0.2 0.2q-0.1-0.1-0.2-0.2c0 0 0-0.1 0.1 0q0 0 0 0 0 0.1 0 0.1 0 0 0.1 0l0.1 0.1q0 0-0.1 0 0-0.1 0-0.1c0.1 0.1 0-0.1 0.1 0q0 0.1 0.1 0.1l-0.1-0.1c0 0-0.1-0.1-0.1-0.1 0 0 0.1 0 0.1 0q0.1 0.1 0 0c0 0 0-0.1-0.1-0.1q0 0 0 0 0 0 0.1 0c0 0.1 0 0 0 0-0.4-0.3 0-0.1-0.2-0.3h0.1q0 0.1 0 0.1 0.1 0.1 0.2 0.1c-0.2-0.1 0.1 0.1-0.2-0.2 0 0 0 0 0-0.1q0 0 0 0c0 0 0.1 0.1 0.1 0.1q0 0.1 0.1 0.1l0.1 0.1-0.1-0.1q0 0 0 0 0 0 0 0c0.1 0.1 0.1 0.1 0 0 0-0.1 0.1 0 0.1 0l0.2 0.2h-0.1q0-0.1-0.1-0.1l0.1 0.1 0.2 0.1q0 0 0 0-0.1 0-0.1 0 0.1 0 0.1 0.1 0 0 0 0c0-0.1-0.1-0.2-0.1-0.2 0 0 0.1 0.1 0.2 0.2 0 0-0.2-0.2-0.1-0.1 0.1 0.1 0.2 0.1 0.2 0.1q0 0-0.2-0.2 0 0-0.1-0.1 0 0.1 0 0.1 0.1 0 0.1 0l0.1 0.1q0 0 0 0-0.1 0-0.1-0.1c-0.1 0-0.2-0.2-0.3-0.2 0 0 0 0 0 0 0.2 0.1 0-0.1-0.1-0.2 0.1 0.1 0.1 0 0.1 0 0.1 0.1 0-0.1 0.2 0.1-0.2-0.2 0.1 0.1 0.1 0q0 0 0 0c0 0-0.1 0-0.1 0-0.1-0.1-0.1-0.1-0.1-0.2 0 0 0 0 0.1 0q0.1 0.1 0.1 0c0 0-0.1 0-0.2-0.1-0.1-0.2 0.2 0.1 0.2 0 0.1 0.1 0 0 0 0q0 0 0 0c0-0.1 0.1 0.1 0.1 0 0 0 0 0 0-0.1 0 0 0 0-0.1-0.1q0 0 0 0c0.1 0.1 0 0 0.1 0q0.2 0.1 0 0 0-0.1 0-0.1 0 0 0 0 0 0 0 0.1 0 0 0.1 0c0 0 0.2 0.1 0.2 0.1 0 0 0.1 0.2 0.1 0.1-0.1-0.1-0.2-0.2-0.3-0.3 0 0 0 0 0-0.1q0 0.1 0 0.1 0.1 0 0.1 0c-0.1-0.1 0 0 0.1 0-0.1-0.1 0.1 0 0-0.1q0 0 0 0c0.2 0.1 0-0.1 0.1-0.1q0.1 0 0.1-0.1c0 0-0.1-0.1-0.1-0.2q-0.1 0-0.1 0c0 0 0-0.1 0.1 0q0 0 0.1 0.1l-0.1-0.1-0.1-0.1q0.1 0.1 0.1 0.1 0.1 0 0.1 0.1 0 0.1 0.1 0.1c-0.1-0.1 0 0 0-0.1q0 0 0.1-0.1v-0.1c-0.2-0.1 0 0 0-0.1 0.2 0.2 0.1 0.1 0.1 0.1q0 0 0-0.1c0 0 0 0 0 0q-0.1 0-0.1 0v-0.1l0.1 0.1 0.2 0.1-0.2-0.1q0 0 0 0c0.1 0.1 0.1 0 0.1 0 0-0.1 0 0 0-0.1q0-0.1 0-0.2 0 0-0.1 0 0 0 0-0.1c-0.1 0-0.1 0 0 0q0 0 0 0.1 0.1 0 0.1 0.1 0 0 0 0l0.1 0.1c0.1 0 0-0.1 0-0.1 0 0 0.2 0.1 0 0q0-0.1 0-0.1c0.3 0.2 0.1 0 0.3 0 0 0-0.1-0.1-0.1-0.1-0.1-0.1-0.1-0.1 0-0.1 0 0 0.1 0.1 0.1 0.1 0-0.1-0.2-0.2-0.3-0.3q0 0-0.1 0 0 0 0 0h0.1l-0.1-0.1 0.1 0.1c0.1 0-0.1-0.1 0-0.1q0 0 0 0c-0.1 0 0 0-0.1 0v-0.1c0.2 0.2 0 0 0.1 0 0 0.1 0-0.1 0 0 0.1 0 0-0.1 0.1-0.1q0 0 0.1 0c0.1 0.1 0-0.1-0.1-0.1 0-0.1 0.2 0.1 0.1 0.1 0-0.1 0.1 0 0.1 0q0 0 0 0 0 0 0.1 0 0 0-0.1 0 0-0.1-0.1-0.1c0 0 0-0.1 0.1 0 0.2 0 0.2 0 0.1-0.1 0.1 0.1-0.2-0.1 0 0 0.1 0 0 0 0-0.1q0 0.1 0 0.1c0 0 0.1 0 0.1 0q0 0 0 0 0 0.1 0 0.1 0-0.1-0.1-0.1 0 0 0-0.1v0.1q0.1 0 0.1 0-0.1 0-0.1 0 0.1 0 0.1 0 0 0 0 0c0-0.1 0.1 0 0.1-0.1-0.1 0-0.1 0 0 0 0.1 0 0 0 0.2 0 0.1 0-0.2 0-0.1 0 0.3 0-0.1 0 0.1 0 0.1 0 0.3 0 0.3-0.1-0.1 0 0 0 0.1 0 0 0 0 0 0 0 0.2 0 0.3 0 0.5-0.1q0 0 0 0c-0.5 0.1-0.3 0-0.1 0l0.6-0.1q-0.1 0.1-0.1 0.1c0.1 0-0.3 0.1-0.1 0.1 0 0-0.1 0-0.1 0q0.1 0 0.1 0c0.2 0 0.1 0 0.1 0 0 0 0.1 0 0.2 0q0 0 0.1 0c0-0.1 0.2-0.1 0-0.1q0 0 0 0 0 0 0.1-0.1 0.1 0 0.1 0 0 0 0 0c-0.3 0-0.2 0-0.1 0l0.8-0.1c0 0 0.2 0 0.1 0q0.1 0 0.1 0h0.1q0 0 0.1 0c0 0-0.1 0 0.2 0q0 0 0.1 0 0 0 0 0h-0.1c-0.2 0 0.1 0-0.1 0.1-0.1 0-0.2 0-0.2 0-0.1 0 0 0 0.1 0 0.2 0 0.2 0 0.1 0.1 0 0 0.1 0 0.1 0 0 0 0 0.1-0.2 0.1q0 0 0 0c-0.1 0 0.3 0 0 0q0 0 0.1 0.1c0.2 0-0.2 0-0.2 0-0.1 0-0.2 0-0.1 0 0.1 0 0 0.1 0 0.1q-0.1 0-0.1 0 0 0 0-0.1 0 0 0 0c0 0-0.2 0-0.2 0.1q-0.1 0-0.2 0.1-0.1 0 0 0 0.1 0 0.1 0c0 0-0.1-0.1 0.1 0 0.1 0 0 0 0.1 0 0.2 0.1-0.3 0.1 0 0.2h0.1q0 0 0 0c0-0.1-0.1-0.1 0.2-0.1-0.1 0.1-0.2 0.1-0.2 0.1 0 0.1-0.2 0-0.1 0 0 0.1 0.1 0.1 0.1 0.1 0 0 0 0 0 0.1l-0.2-0.1q0 0 0 0c0 0 0 0 0 0.1-0.2 0 0 0.1 0.1 0.1 0.1 0.1-0.3 0.3-0.5 0.3-0.3-0.1 0 0 0 0-0.2 0-0.1 0.1 0 0.1 0.2 0.1 0 0.1 0 0.1 0 0.1 0 0.1-0.1 0.1q0 0 0 0c-0.3-0.1 0.1 0.2-0.1 0.1 0.2 0.1-0.3-0.1 0 0.1-0.2-0.1-0.1 0-0.3 0q0.1 0 0.1 0-0.1-0.1-0.1-0.1-0.1 0-0.1 0c0 0.1 0 0.1 0 0.1q-0.2 0-0.2-0.2 0 0 0 0l-0.1 0.1 0.2 0.1c0 0 0.1 0.1 0.1 0.1 0 0 0.1 0.2-0.1 0q0 0 0 0.1h0.1-0.1c0-0.1-0.1-0.1-0.1-0.1q0-0.1-0.1-0.1l0.1 0.1h0.1q0 0 0 0c-0.1 0-0.1 0-0.1 0.1q0 0 0 0 0.1 0.1 0.2 0.2 0 0.1 0 0.1c-0.1-0.1 0 0-0.1-0.1q-0.1 0-0.1 0h0.1c0 0 0 0.1 0 0.1q0 0 0 0.1l-0.1-0.1-0.1-0.1q0 0 0 0c0 0 0 0 0 0 0 0.1-0.1 0-0.1 0 0 0.1 0.1 0.2 0.2 0.2 0 0 0.1 0.1 0.1 0.1 0 0 0 0.1 0 0.1-0.1-0.1 0 0-0.1 0q0 0 0 0l-0.1-0.1h0.1q0 0.1 0 0.1v-0.1q-0.1 0-0.1 0 0 0 0-0.1 0 0 0 0 0 0 0 0l-0.1-0.1h-0.1q0 0 0 0c-0.1-0.1 0 0 0 0q-0.1-0.1-0.1-0.1 0 0.1 0 0.2 0 0 0 0 0.1 0 0.1 0c0 0.1 0.1 0.2 0.2 0.2h-0.1v-0.1q0 0-0.1 0 0.1 0 0.1 0l0.1 0.1v0.1q0 0 0 0l-0.3-0.1c0.3 0.2 0 0 0 0-0.1 0 0.1 0.1 0.1 0.1 0.1 0.1 0 0.1 0 0.2 0 0 0 0.1 0 0.1q-0.1 0-0.1 0 0-0.1 0-0.1 0 0 0 0h-0.1q0 0 0.1 0.1c0 0-0.1 0-0.1 0-0.1-0.1 0.1 0.1 0 0q0 0 0 0 0 0 0 0-0.1 0-0.1-0.1 0 0 0 0 0 0 0 0.1 0 0 0.1 0.1c0 0-0.1 0-0.1-0.1-0.1 0 0 0 0 0 0 0-0.1 0-0.1 0 0 0 0 0 0 0 0 0-0.1-0.1-0.1-0.1q0 0-0.1-0.1v0.1-0.1q0 0-0.1 0 0 0 0 0.1 0 0 0 0c0-0.1 0.2 0.2 0.2 0.1 0 0 0 0 0.1 0q0 0.1 0 0.1c0.1 0.1 0.1 0 0.2 0.1 0 0.1-0.1 0-0.2-0.1q0 0 0 0l0.1 0.1q0 0-0.1 0 0-0.1-0.1-0.1l0.1 0.1 0.1 0.1-0.1-0.1c0 0-0.1 0 0.1 0.2q0 0 0 0c0 0-0.1 0-0.1 0q0 0 0 0 0-0.1 0-0.1c-0.1 0-0.1-0.1-0.2-0.2q-0.1 0 0 0l0.1 0.1c0.1 0.1 0 0.1 0 0.1 0 0.1 0 0.1 0.1 0.1q0 0.1 0 0.1c0 0 0 0 0-0.1h-0.1q0 0 0 0 0.2 0.2-0.1 0 0 0 0 0h0.1q-0.1 0-0.1 0 0-0.1-0.1-0.1 0 0 0.1 0v0.1q0 0 0 0c-0.1 0-0.1-0.1-0.1-0.1h-0.1c0 0 0.1 0.1 0.1 0.1 0.1 0.1 0.2 0.2 0.2 0.2 0 0.1-0.1 0-0.1 0v-0.1c0.2 0.2-0.1 0.1 0.1 0.2-0.1-0.1 0 0.1-0.1 0q-0.1 0-0.1 0v0.1c0 0.1-0.1 0.1-0.1 0.1 0 0.1 0 0.2-0.2 0.1-0.1 0 0 0.2 0 0.2-0.1 0 0 0.1-0.1 0-0.3-0.2 0 0.1-0.1 0.1 0 0 0 0.1 0 0.1-0.1 0-0.1 0-0.3-0.1q0 0 0 0l0.1 0.1q0 0 0 0c0 0-0.1-0.1-0.1-0.1q0.1 0.1 0.1 0.1c0.2 0.2-0.1 0 0.1 0.1l-0.1 0.1c0 0-0.1-0.1-0.1-0.1-0.1 0 0 0.1 0 0.1-0.1 0 0 0.1-0.1 0.1 0.1 0.1-0.1-0.1-0.1-0.1q0 0 0 0.1c0.1 0 0.1 0 0.1 0 0 0.1 0 0.1-0.2 0q0 0 0 0l0.1 0.1h-0.1c0-0.1-0.1-0.1-0.1-0.1 0.1 0 0.1 0.1 0.1 0.1 0.1 0.1 0 0 0 0.1l-0.1-0.2q0 0 0 0 0 0 0 0h-0.1q0 0 0 0l0.1 0.1c-0.1-0.2 0-0.1 0-0.1 0.1 0.1 0.1 0.2 0.1 0.1-0.1 0-0.1 0-0.1 0-0.1 0 0 0.1 0.1 0.1 0.1 0.2-0.1 0-0.1 0 0 0-0.1-0.1-0.1 0 0.1 0 0.1 0 0.1 0 0.1 0.1 0.1 0.2 0 0.1-0.1 0 0 0.1 0 0.1 0 0.1 0 0.2-0.2 0q0 0 0 0c0.1 0.1 0 0.1 0 0.1-0.1-0.1 0 0.1 0 0.1q-0.1 0-0.1 0.1c0 0-0.2 0-0.1 0.1q0 0 0 0-0.1 0-0.1 0c0 0 0.1 0.1 0 0.1 0 0-0.1 0.1-0.1 0.1v0.1l-0.1 0.1c-0.1-0.1-0.1-0.1 0-0.1 0.1 0.2-0.2 0-0.1 0.1 0 0 0 0-0.1 0 0 0 0 0 0 0.1 0 0.1 0 0.1-0.1 0.1q0 0-0.1 0.1 0 0 0-0.1l-0.1-0.1c0 0.1 0.1 0.1 0.1 0.2l-0.1-0.1c0 0.1 0.1 0.1 0.1 0.1 0 0 0 0.1 0 0.1 0 0 0 0-0.1 0-0.1 0.1-0.1 0.1-0.1 0.2 0 0 0 0.1-0.1 0.1-0.1 0 0 0.1-0.1 0.1 0 0-0.1-0.1-0.1 0 0.1 0-0.1 0-0.1 0-0.1 0 0.1 0.1 0 0.1-0.1 0 0 0.1 0 0.1 0 0-0.1-0.1-0.1 0q0.1 0.1-0.1 0.1-0.1 0 0 0.1c0 0 0-0.1 0-0.1 0 0.1 0 0.1 0 0.2q0 0-0.1 0.1c0 0.1-0.2 0.1-0.2 0.2-0.2-0.1 0.1 0.1-0.1 0q0 0 0 0h0.1q0 0 0 0 0 0 0 0.1h-0.1l0.1 0.1c0 0 0 0 0 0q0 0.1 0 0.1-0.1-0.1-0.1-0.1zm6.5-5.1q0 0 0 0 0 0 0 0zm-0.3-0.3q0 0 0 0 0 0 0 0.1c0.1 0 0.2 0 0.2 0 0.1 0-0.2-0.1-0.2-0.1zm-0.1-0.8c-0.2 0-0.1 0-0.2 0h0.1q0.1 0.1 0.1 0 0 0 0 0 0 0 0 0zm-0.5-0.4q-0.1 0-0.2 0 0.1 0 0.2 0.1 0.1-0.1 0.2-0.1c0 0-0.1 0-0.2 0zm0.5-0.1c0 0 0.1 0.1 0.1 0.1 0.3-0.1-0.1-0.1 0.2-0.1h-0.1c-0.3 0 0 0-0.2 0zm-0.6 0c0.1 0 0.1 0 0.1 0q0 0-0.1 0h-0.2l0.1 0.1q0-0.1 0-0.1c0.1 0 0 0.1 0.1 0zm0.2 0.1c0 0 0.1 0 0.1 0q0 0 0.1-0.1-0.1 0-0.1 0-0.1 0.1-0.1 0.1zm-0.8 0.1q0 0 0.1 0h-0.1v-0.1q-0.1 0-0.1 0 0 0 0.1 0c0.1 0 0.3 0 0.2 0 0.1 0 0.1 0-0.1 0q0 0 0 0 0.1 0 0.1 0c0 0 0 0-0.1 0q-0.1 0-0.3 0c0 0 0.2 0 0 0q0.1 0 0.1 0c0 0.1 0.1 0.1 0.1 0.1zm-0.1 0q0 0 0 0-0.1 0-0.1 0-0.1 0-0.1 0 0 0 0 0c0.3 0 0.1 0 0.1 0zm0.8 0.2h-0.1l0.2 0.1q0 0 0 0 0-0.1 0-0.1 0 0 0.1 0.1 0 0 0 0c0 0-0.1 0-0.3-0.1q0 0 0 0 0 0 0 0 0 0 0.1 0.1c0.1 0 0.2 0 0.2 0 0 0 0.1 0 0.1 0 0 0 0.1-0.1-0.1-0.1 0.2 0 0-0.1 0.2-0.1 0 0 0 0-0.1 0 0 0 0 0-0.1 0q0 0-0.1 0 0 0 0.1-0.1 0 0 0 0 0 0-0.1 0 0 0 0 0-0.1 0-0.1 0 0 0 0 0 0 0 0 0c-0.1 0 0 0-0.1 0q0 0-0.2 0 0 0 0 0 0 0 0 0-0.1 0-0.1 0c-0.1 0-0.1 0-0.1 0q0 0 0.1 0c0.2 0 0.2 0 0.3 0-0.1 0 0.2 0.1 0.3 0.1 0 0.1-0.1 0.1-0.1 0.1q0 0 0 0-0.1 0-0.1 0 0 0 0 0c0.2 0-0.2-0.1-0.1-0.1q0 0 0 0-0.1 0-0.1 0c0.1 0 0 0 0 0q-0.1-0.1-0.2-0.1c0 0-0.1 0-0.1 0h-0.2q0.1 0 0.1 0l0.4 0.1c-0.1 0 0.1 0 0 0 0 0 0 0 0 0 0 0 0.1 0.1 0.1 0.1 0.2 0-0.1 0 0.1 0zm-0.5-0.1q0 0 0.1 0 0 0 0 0 0 0 0 0 0 0 0 0h-0.2q0 0-0.1 0h0.2q0 0 0 0zm0.4 0.1c-0.1 0-0.2 0-0.1 0 0 0-0.1-0.1-0.2-0.1 0 0 0.1 0.1 0 0 0.1 0.1 0.2 0.1 0.3 0.1zm-0.3-0.1q0 0 0 0 0 0 0 0zm-0.1 0.1l-0.1-0.1c0.2 0.1 0 0 0 0h-0.1c-0.1-0.1-0.1-0.1-0.2-0.1q0 0 0 0-0.1 0-0.1 0 0 0 0 0c0.1 0 0.1 0 0.2 0.1q0.1 0 0.1 0c-0.1 0 0 0 0.1 0.1 0.1 0 0-0.1 0.1 0zm-0.1 0c0.1 0-0.3-0.1-0.1 0l-0.3-0.2q0.1 0.1 0.3 0.2 0 0 0.1 0zm0.2 0.2c0.1 0.1-0.1 0 0 0.1 0.1 0-0.3-0.2 0.1 0q0 0.1 0.1 0.1 0 0 0 0 0.1 0 0.1 0.1c0.1 0 0.2 0 0.2 0 0 0 0.1 0 0 0 0-0.1 0.2 0 0-0.1 0.2 0 0.1 0 0.2 0q0.1 0 0 0c0 0 0-0.1-0.1-0.1-0.1 0 0 0-0.1-0.1l0.1 0.1h0.1q0 0 0 0c0 0-0.2-0.1-0.1-0.1q0.1 0 0.1 0l-0.3-0.1c0.2 0-0.1 0 0 0q0 0 0 0 0.1 0 0.1 0v0.1l-0.1-0.1h-0.1 0.1l0.1 0.1h-0.1c-0.1-0.1-0.1-0.1-0.2-0.1q-0.1 0-0.1 0 0 0 0-0.1l-0.1 0.1c0.1 0 0.1 0 0.2 0.1q0 0 0 0 0.1 0 0.1 0-0.1 0.1-0.1 0.1c0 0-0.1-0.1-0.1 0 0 0-0.1-0.1-0.1-0.1zm-0.6-0.2q0.1 0.1 0.2 0.1c0.1 0.1 0 0 0 0 0.2 0.2 0-0.1 0.1 0q0 0 0 0c0 0 0 0 0 0 0.2 0.1 0.1 0 0.2 0.1q0 0 0 0 0 0 0 0-0.1-0.1-0.2-0.1 0-0.1-0.1-0.1 0 0-0.1 0c0 0-0.1-0.1-0.1-0.1 0.1 0.1 0 0 0 0 0.2 0.1 0.2 0.2 0.2 0.2 0 0-0.1-0.1-0.1-0.1q0 0 0 0 0 0 0 0v0.1c0 0 0-0.1-0.1-0.1zm0-0.1q0 0 0 0 0 0 0 0zm0.8 0.8c0 0 0.1 0 0 0 0-0.1 0-0.1 0-0.1 0 0-0.1-0.1-0.1-0.1 0 0.1 0.1 0.1 0.1 0.2zm0 0.2h-0.1c0-0.1 0.1-0.1-0.1-0.2 0 0 0.1 0.1 0-0.1 0 0-0.1 0-0.1 0l0.1 0.1q0 0-0.1 0 0 0 0 0zm-0.2-0.3q0 0 0 0zm0 0c-0.2-0.1 0 0-0.1-0.1q0 0 0 0c0.2 0.2 0.3 0.2 0.3 0.2q0-0.1 0-0.1 0 0 0 0-0.1 0-0.3-0.1c0-0.1-0.1-0.1-0.2-0.2 0 0-0.1-0.1-0.1-0.1 0 0 0.1 0.1 0 0q0 0 0 0-0.1 0-0.1 0c0 0-0.1 0-0.2-0.1 0.1 0 0.1 0.1 0.2 0.1q0 0.1 0 0.1v-0.1c0 0 0.1 0.1 0.1 0.1 0.1 0.1 0.3 0.2 0.3 0.2 0 0-0.1 0 0 0.1q0 0 0.1 0zm-0.3-0.1q0 0.1 0 0.1c0 0.1 0.1 0.2-0.1 0.2 0 0 0.1 0 0.1 0q0 0.1 0 0.1h0.1c0 0 0 0 0 0 0-0.1 0.1 0 0.1 0q0 0 0 0 0-0.1 0-0.1 0 0 0 0 0 0 0 0 0 0.1 0.1 0.1 0 0 0 0 0-0.1-0.1-0.1 0 0 0-0.1c-0.1 0 0 0 0 0.1q0.1 0 0.1 0 0 0 0 0c-0.1 0-0.2-0.1-0.1 0 0.1 0 0.2 0.1 0.3 0.2 0 0 0 0 0 0-0.2-0.2-0.4-0.3-0.5-0.5zm-0.6-0.3c0.1 0.1 0.2 0.2 0.2 0.2 0.1 0 0.2 0.1 0.2 0.1 0 0-0.1-0.1-0.2-0.1q0.1 0 0.2 0 0 0 0.1 0.1c-0.1 0-0.3-0.2-0.2-0.2q0 0 0 0c-0.1-0.1-0.2-0.1-0.1 0-0.1 0-0.1-0.1-0.1 0q0 0 0 0c-0.2-0.1 0 0-0.1-0.1q0 0 0-0.1-0.1 0-0.1 0.1c0 0 0.1 0 0.1 0zm0.1 0.3q0 0 0 0.1 0 0 0 0c0-0.1 0-0.1 0.1-0.1 0.1 0.1 0-0.1 0 0l-0.1-0.1q0 0 0 0c0 0-0.1 0-0.2-0.1q0 0 0-0.1 0 0.1 0 0.1c0 0 0.1 0.1 0.1 0.1 0 0 0 0 0.1 0.1zm0.4 0.7q0 0 0 0 0 0 0.1 0 0 0.1 0 0.1 0 0 0 0 0 0 0 0 0 0 0 0c0 0 0.1 0 0.1-0.1 0 0 0 0.1 0.1 0.1q0 0 0 0l0.1 0.1-0.1-0.1c0 0-0.1-0.1-0.1-0.1-0.1-0.1-0.1-0.1-0.1-0.1 0 0 0.1 0 0-0.1q-0.1 0-0.1-0.1 0 0 0 0c-0.1 0-0.1 0-0.1 0.1 0.1 0.1 0.1 0.1-0.1 0.1 0-0.1 0.2 0.1 0.2 0.1zm-0.1 0q0.1 0.1 0.1 0.1 0-0.1-0.1-0.1l-0.1-0.1zm0.8 0.8q0 0 0.1 0.1l-0.1-0.1q0 0 0 0 0.1 0 0.1 0 0 0 0 0 0 0 0 0c0 0-0.1 0-0.2-0.1q-0.1-0.1-0.1 0c0 0 0.1 0 0.2 0.1zm-1-0.7c0.2 0.1 0.1 0 0-0.1 0 0 0 0 0.1 0q-0.1 0-0.1 0c-0.1-0.1 0 0 0 0.1q0 0 0 0zm-0.1 0.3h-0.1v0.1h0.2l-0.1-0.1q0.1 0 0.1 0c0 0 0 0-0.1-0.1-0.2-0.1 0 0 0 0q0 0 0.1 0c-0.1 0-0.1-0.1-0.1-0.1-0.1 0-0.2-0.1-0.2 0q0 0.1 0 0c-0.3-0.2 0 0.1-0.1 0.1q0 0 0.1 0 0 0 0 0.1 0-0.1 0-0.1c-0.1-0.1 0 0 0 0q0 0 0 0c0.1 0 0.1 0 0.1 0q0 0 0.1 0v0.2zm-0.2-0.1q0 0 0 0-0.1 0 0 0zm0 0c0 0 0 0 0.1 0.1q0 0 0.1 0.1 0 0 0-0.1c0 0-0.1-0.1-0.1-0.1q-0.2-0.1-0.1 0 0 0 0 0zm0.7 0.9q0 0 0 0c0 0 0-0.1 0-0.1-0.1 0-0.1-0.1-0.1-0.1q0 0.1 0.1 0.2zm-0.9-0.7q0.1 0.1 0.2 0.1l-0.1-0.2q-0.1 0-0.1 0 0 0.1 0 0.1 0 0 0 0-0.1-0.1-0.1-0.1l-0.1-0.1q0.1 0.1 0.2 0.2zm-0.1 0.1c0.3 0.2-0.1-0.1 0 0q-0.1-0.1-0.2-0.2c0-0.1 0.1 0.1 0 0l0.1 0.1 0.1 0.1c0 0 0 0 0 0zm0.1 0.3q0-0.1 0.1-0.1 0 0-0.1 0-0.1-0.1-0.1-0.1c0 0 0.1 0.1 0.1 0.2zm-0.4 0q0.1 0.1 0.1 0.1c0.2 0.2 0.1 0 0.1 0q0 0-0.1-0.1c0 0 0.1 0.1 0 0q0 0 0 0v0.1c-0.1-0.1-0.1 0-0.1-0.1q0 0 0 0zm0.8 0.9q0 0-0.1 0 0.1 0 0.1 0.1c0.1 0.1 0-0.1 0.1 0q0 0-0.1-0.1zm-0.5-0.5c0 0 0 0.1 0 0.1q0-0.1 0-0.1-0.1-0.1-0.2-0.2 0 0-0.1 0c0 0 0 0 0 0q0.1 0 0.1 0.1h0.1v0.1c-0.1-0.1 0 0 0 0 0.1 0 0 0 0.1 0zm0 0.2c0.1 0.1-0.1-0.1 0-0.1 0 0-0.1-0.1-0.1-0.1-0.1 0-0.1 0 0.1 0.2q0 0 0 0zm-0.8-0.5l0.2 0.1c-0.1-0.1-0.1-0.1-0.1-0.2-0.1 0 0 0.1-0.1 0zm0 0.2q0.1 0 0.1 0.1c0.2 0.1 0.1 0 0.2 0q0 0 0 0h-0.1c0.1 0 0.1 0 0-0.1 0 0-0.1-0.1-0.1-0.1q0 0 0.1 0.1 0 0 0 0.1 0 0-0.1-0.1c-0.1-0.1-0.1 0-0.1 0zm0.1 0.4c0-0.1 0 0 0.1 0.1 0 0 0.1 0.1 0.1 0.1 0-0.1-0.2-0.2-0.2-0.3-0.1 0 0 0 0 0.1zm0.6 0.7v0.1q0.1 0 0.1 0.1c0.1 0 0-0.1 0-0.1 0.1 0.1 0.2 0.1 0.2 0.1q0.1 0 0 0c-0.1-0.2-0.1-0.1-0.2-0.2-0.1 0-0.1 0-0.1 0zm-0.7-0.6c0.1 0.1 0.1 0.1 0 0q0 0-0.1-0.1zm0.7 0.8q0.1 0 0.1 0 0 0 0.1 0c-0.1 0 0 0.1-0.1 0q0-0.1-0.1 0zm-1.2-1q0 0 0 0h0.2c0 0 0 0-0.1 0-0.2-0.3 0.1 0.1-0.1 0zm-0.1-0.1q0 0 0.1 0c0 0-0.1-0.1-0.1-0.1l-0.1-0.1zm1.4 1.4c0-0.1-0.1-0.1-0.1-0.2q-0.2-0.1-0.2-0.1v0.1q0.1 0 0.1 0c0 0 0.1 0.1 0.2 0.2zm-0.3 0.3q0 0 0 0 0-0.1-0.1-0.1c-0.1-0.1 0 0 0 0 0 0-0.1 0-0.1-0.1-0.1-0.1 0 0.1 0 0.1 0 0 0.1 0.1 0.2 0.1zm-0.7-0.4c0 0.1 0 0.1 0 0.1q0-0.1 0-0.1-0.1-0.1-0.1-0.1 0 0.1 0.1 0.1zm-0.4-0.2q0.1 0 0.2 0.1c0 0-0.1-0.1-0.1-0.1q-0.1-0.1-0.2-0.1c0 0 0.1 0.1 0.1 0.1zm-0.4 0.1c0.1 0 0.1 0.1 0.1 0.1 0.1-0.1-0.1-0.1-0.2-0.2q0 0 0.1 0.1c0 0 0 0 0 0zm0.2 0.2q0 0 0-0.1h0.1q0 0.1 0 0 0 0-0.1 0 0 0 0 0 0 0 0 0.1 0 0 0 0zm0.6 0.6q0 0 0.1 0-0.1-0.1-0.1-0.1l-0.2-0.1c0.1 0.1 0.2 0.1 0.2 0.2zm-0.2 0q0 0 0 0l-0.1-0.2c0 0-0.1 0-0.1 0q0.1 0.1 0.2 0.2zm-0.4-0.2l-0.2-0.2c0 0 0 0 0 0q0 0.1 0.1 0.2 0.1 0 0.1 0zm-0.3 0.3c0 0 0 0.1 0 0q0 0 0 0c-0.1-0.1-0.1-0.1-0.1 0q0 0 0.1 0zm0.1 0.1c-0.2-0.1-0.2-0.1-0.2-0.1q0 0 0 0.1 0.1 0 0.2 0 0 0 0 0zm-0.5-0.3q0-0.1-0.1-0.1 0.1 0.1 0.1 0.1 0.1 0 0.1 0c0 0-0.1 0-0.1 0zm-0.3-0.2l0.2 0.1q-0.1-0.1-0.1-0.1h-0.1q0 0 0 0zm0.3 0.7c0 0 0.1 0.1 0.1 0.1 0 0 0 0 0-0.1-0.1 0-0.2-0.1-0.2 0zm-0.5-0.1c0.1 0 0-0.1 0.1 0q-0.1-0.1-0.1-0.1-0.1 0-0.1-0.1h-0.1q0.1 0.1 0.2 0.2zm-0.8 0.9q0 0 0 0 0 0 0-0.1-0.1 0-0.1 0c-0.1 0 0 0 0.1 0.1z"/><path class="a" d="m19.7 14.3q0 0 0 0 0 0 0 0z"/><path class="a" d="m20.7 13z"/><path class="a" d="m20.7 13z"/><path class="a" d="m26.5 9.5z"/><path class="a" d="m23 11.1q0 0 0 0.1 0-0.1 0-0.1z"/><path class="a" d="m23.7 9.6z"/><path class="a" d="m21.3 13.5q0 0 0 0z"/><path class="a" d="m24.3 9.4z"/><path class="a" d="m22.2 12.1z"/><path class="a" d="m25.1 9.6q0 0 0 0z"/><path class="a" d="m24.1 9.2z"/><path class="a" d="m22.7 10.1z"/><path class="a" d="m22.9 9.9q0 0 0 0 0 0.1 0 0.1h0.1q-0.1 0-0.1 0 0.1 0 0.1-0.1 0 0 0 0.1v-0.1q-0.1 0-0.1 0c0 0.1-0.1 0-0.2-0.1-0.1-0.1 0 0-0.1 0l0.1 0.1 0.1 0.1z"/><path class="a" d="m24.1 9.1q0 0 0 0c0.2 0-0.1 0 0.2-0.1q0.1 0 0.1 0l-0.3 0.1h-0.1c0 0 0.1 0 0.1 0z"/><path class="a" d="m22.7 10q0-0.1 0-0.1 0 0 0 0 0 0 0 0c0.1 0.1 0.1 0.2 0.1 0.1-0.1-0.1 0.1 0.1 0 0l-0.1-0.1c-0.2-0.2 0 0-0.1 0l0.1 0.1c0 0 0.2 0.1 0 0z"/><path class="a" d="m26.3 9.3c0 0.1 0 0.1 0 0.2q0.2-0.1 0.3-0.2c0 0-0.1 0-0.1 0-0.1 0-0.2 0-0.2 0z"/><path class="a" d="m22.7 10.1z"/><path class="a" d="m22.8 10.2c0-0.1 0.1 0 0-0.1-0.1-0.1 0.1 0.1-0.1-0.1-0.2-0.1-0.1 0 0 0.1 0 0 0.1 0.1 0.1 0.1z"/><path class="a" d="m25.2 11.1c0.2 0.1 0-0.1 0.1-0.1q0 0-0.1 0c0-0.1-0.1-0.1-0.1-0.1 0 0.1 0 0.1 0.1 0.2z"/><path class="a" d="m22.5 10.3c-0.1 0 0 0.1 0 0.1h0.1l0.1 0.1-0.1-0.1q-0.1-0.1-0.1-0.1z"/><path class="a" d="m21.8 11.3q0.1 0 0.1 0c0 0 0 0-0.1-0.1-0.1-0.2 0.1 0.1-0.1 0 0.1 0 0.1 0.1 0.1 0.1z"/><path class="a" d="m25.1 11q0 0.1 0 0.1 0 0 0 0 0-0.1 0-0.1 0 0 0 0-0.1 0-0.1 0 0 0 0-0.1c-0.1 0-0.1 0-0.1 0 0.1 0.1 0.2 0.1 0.2 0.1z"/><path class="a" d="m24.9 10.9q0 0 0 0z"/><path class="a" d="m22.5 10.7l-0.1-0.1c-0.1-0.1-0.2-0.1-0.1-0.1 0 0.1 0.1 0.1 0.2 0.2-0.1 0-0.1-0.1 0 0z"/><path class="a" d="m19 15.3q0-0.1 0-0.1-0.1 0-0.2 0c0 0 0 0 0 0.1 0.2 0 0-0.1 0.2 0z"/><path class="a" d="m20.7 12.7q-0.1-0.1-0.1-0.2 0 0-0.1 0 0 0 0.1 0.1c0 0 0.1 0.1 0.1 0.1z"/><path class="a" d="m21.3 11.9l-0.2-0.1q0 0 0 0 0 0 0 0 0.1 0 0.1 0.1 0.1 0 0.1 0z"/><path class="a" d="m20.3 13.2q-0.1-0.1-0.1-0.1 0 0-0.1 0c0 0 0.1 0 0.1 0.1q0.1 0 0.1 0z"/><path class="a" d="m19.8 14.2c0 0-0.1-0.1-0.1-0.1-0.1-0.1 0.1 0.1 0 0.1q0 0 0 0c0 0 0.1 0 0.1 0z"/><path class="a" d="m22 11.1c0-0.1-0.2-0.2-0.2-0.2q0 0 0.1 0.1c0.1 0.1 0 0 0 0 0.1 0.1 0.1 0 0.1 0.1z"/><path class="a" d="m26.4 9.4l0.1 0.1c0 0 0 0 0 0 0 0 0.2-0.1-0.1-0.1z"/><path class="a" d="m26.5 9.5z"/><path class="a" d="m26.5 9.5z"/><path class="a" d="m22.4 10.6z"/><path class="a" d="m22.5 10.7q0 0 0 0c0 0 0 0 0-0.1l-0.2-0.1 0.1 0.1q0 0 0.1 0.1z"/><path class="a" d="m22.4 10.6z"/><path class="a" d="m22.4 10.6z"/><path class="a" d="m20.7 13z"/><path class="a" d="m20.8 13q0.1 0.1 0 0l-0.2-0.1q0 0 0 0l0.1 0.1z"/><path class="a" d="m20.7 13z"/><path class="a" d="m20.7 12.4q0 0 0 0 0 0 0 0 0 0 0 0 0 0 0 0z"/><path class="a" d="m24.1 9.8c0.1 0.1 0.1 0 0.2 0.1 0.1 0 0.2 0.1 0 0l-0.1-0.1c-0.1 0-0.1 0-0.1 0z"/><path class="a" d="m24.5 9.8c-0.1 0 0 0-0.1 0q0 0 0.1 0 0 0.1 0.1 0 0 0-0.1 0z"/><path fill-rule="evenodd" class="a" d="m18.9 16.9c-0.1 0-0.2-0.1-0.1-0.1 0 0 0 0 0.1 0 0 0 0 0-0.1 0-0.2-0.1 0-0.2-0.2-0.2 0 0-0.2-0.2-0.2-0.2 0.1 0.1 0 0 0.1 0 0.1 0 0.1 0.1 0.2 0.1 0 0-0.1-0.1 0-0.1q0.1 0 0-0.1c0 0 0-0.1 0.1 0 0 0 0 0-0.1-0.1q-0.1 0-0.1 0 0 0 0 0 0 0 0 0c0-0.1 0.1-0.1 0-0.2q0 0 0 0 0.1 0 0 0v-0.1c0 0.1-0.1 0-0.1 0v0.1q-0.1-0.1-0.1-0.1c0-0.1 0.1 0 0.1 0q0-0.1 0.1-0.1-0.1-0.1-0.1-0.1c-0.1-0.1 0 0 0 0-0.1-0.1-0.1-0.1 0.1 0 0 0 0 0 0 0-0.1-0.1 0.1 0 0-0.1q0 0 0 0 0 0 0 0h0.1l0.3 0.2h-0.2q0.1 0.1 0.1 0.1 0 0 0.1-0.1 0 0 0 0l1.3 0.8c0 0 0 0 0 0q0 0 0 0h0.1q0 0.1 0 0.1 0 0 0 0c-0.3-0.2-0.1 0-0.2 0 0 0 0 0-0.1 0q0 0 0 0 0.1 0 0.1 0 0 0.1 0 0.1 0 0 0 0c0 0.1 0 0.1 0 0.2-0.1 0-0.1 0-0.1 0 0 0.1 0 0.1-0.2 0.1q0.1 0 0.1 0.1c0.1 0 0.1 0 0.1 0 0 0-0.1 0-0.1 0 0 0-0.1 0 0 0.1 0 0-0.1 0-0.1 0q0.2 0.1 0 0c0.1 0-0.1 0-0.2-0.1-0.1 0-0.2 0-0.2 0q0-0.1 0-0.1 0 0-0.1 0 0-0.1 0-0.1-0.1 0-0.1 0.1 0-0.1 0-0.1c0 0-0.2-0.1-0.2-0.1q-0.1 0-0.1 0c0 0 0 0-0.1 0zm-0.2-0.4q0 0 0 0 0 0 0 0 0 0 0 0zm0 0l-0.1 0.1q0 0 0.1 0l0.1-0.1h-0.1q0 0 0 0zm0.4-0.5q0.1 0.1 0.1 0.1c0 0 0-0.1 0-0.1q-0.1 0-0.1 0zm-0.4-0.2h0.1q-0.1 0-0.1-0.1c-0.1 0-0.1 0 0 0 0.1 0.1-0.2 0-0.1 0q0 0.1 0.1 0.1zm0.1 0.2c0.1 0.1 0.1 0.1 0.1 0.1 0 0 0-0.1 0-0.1q0 0 0.1 0c0 0.1 0 0.1 0 0.1q0.1 0 0.1 0 0 0-0.1-0.1c0 0-0.1 0-0.1 0 0-0.1 0-0.1-0.2-0.2q0 0 0 0 0 0.1 0.1 0.1v0.1zm0.1 0.1c0.1 0 0.2 0 0.2 0 0-0.1-0.1-0.1-0.1-0.1-0.1 0 0 0.1-0.1 0z"/><path class="a" d="m19.7 17.3q0 0-0.1 0l-0.2-0.1q0 0 0.1 0.1z"/></svg>