<svg version="1.2" xmlns="http://www.w3.org/2000/svg" viewBox="0 0 23 27" width="23" height="27"><style>.a{fill:#1c9a7f}.b{fill:none}</style><path class="a" d="m0.4 6.5v-0.1 0.1z"/><path fill-rule="evenodd" class="a" d="m1.6 7.6v0.4q-0.1-0.1-0.1-0.1c-0.1 0.1-0.2 0.2-0.3 0.1 0 0 0 0.1 0 0.1-0.1 0 0-0.1 0-0.1-0.1-0.2 0-0.2 0-0.2 0 0 0-0.1 0-0.1q0-0.1 0-0.1c0 0 0 0.1 0 0.1-0.1-0.1-0.1 0.3-0.2 0.3 0 0 0 0.1 0 0.1 0 0.2-0.1 0.1-0.1 0.2q0 0-0.1-0.1 0 0 0.1 0.1 0 0.1 0 0.1-0.2-0.1-0.4-0.2c-0.1 0-0.1 0.1-0.2 0.1q0 0 0-0.1c0 0 0 0 0-0.1q0 0 0 0.1 0.1 0 0.1 0c0-0.1 0-0.1 0-0.1q-0.1-0.1-0.1-0.1-0.1 0.1-0.1 0.1 0-0.1 0-0.1 0 0 0 0c0.1 0 0-0.1 0.1-0.2-0.1 0.1 0.1-0.6-0.1-0.3-0.1 0.1-0.1-0.1-0.2-0.1q0.1 0 0.1-0.1 0 0 0-0.1 0 0 0 0 0 0 0 0.1 0 0 0 0h-0.1q0-0.1 0.1-0.2 0-0.3 0-0.6c0 0 0.1-0.1 0.1-0.1q0 0.1 0.1 0 0 0 0-0.1 0 0.1 0 0.1 0 0.1 0 0.1 0.1-0.1 0.1-0.1 0 0 0.1 0h-0.1v0.1-0.1q0 0 0 0 0 0.1 0 0.1v-0.1h0.1q0-0.1 0 0c0.1 0.2 0.2 0 0.3 0q0 0 0 0h-0.1q0 0.1 0 0.1 0 0 0 0 0 0 0 0c0.1 0.1 0.1-0.2 0.1 0h0.1v-0.1q0.1 0 0.1-0.1c0.1-0.1 0.1 0.1 0.2 0.1 0 0 0 0 0 0q0.1 0 0.1-0.1c0.1 0 0 0 0 0q0 0 0 0l0.1-0.1q0 0.1 0 0.1 0 0 0 0 0 0 0 0c0 0 0.1-0.1 0.1-0.1 0 0.1 0 0 0 0.1q0.1 0 0.1 0v-0.1q0 0.1 0 0.1 0 0.1 0 0.2 0 0.1 0 0.1 0 0.1 0 0.1 0 0.1 0 0.1v0.6c0-0.1 0-0.1 0-0.1h-0.1c0.1 0.1 0.1 0.2 0.1 0.3zm-1-0.2q0 0-0.1 0 0 0 0 0.1 0 0 0 0 0.1 0 0.1-0.1zm0.3-0.2q0 0 0 0l-0.2 0.1q0 0-0.1 0l0.1 0.1c0.1-0.1 0 0.2 0.1 0q0-0.1 0.1-0.2zm0.6 0.2c0-0.1-0.1 0-0.1 0-0.1-0.1 0 0.1 0 0v0.1q0.1 0 0.1-0.1z"/><path class="a" d="m1.5 8.1c0 0.1-0.1-0.1-0.1 0.1v-0.1q0 0 0 0c-0.1 0.2 0 0.1 0 0.2q0 0 0.1-0.1c0-0.1 0 0 0 0.1v-0.2q0 0 0 0z"/><path class="a" d="m1.3 8.2c0-0.1-0.1-0.1-0.1 0.2 0-0.1 0.1-0.2 0.1-0.2q0 0 0 0z"/><path class="a" d="m1.2 8.4z"/><path class="a" d="m1.2 8.5v-0.1 0.1z"/><path class="a" d="m1.1 8.2q0 0 0 0 0 0.1 0.1 0.1 0 0 0 0c0-0.1-0.1-0.1-0.1-0.1z"/><path class="a" d="m1.7 6.5q0 0 0 0v-0.1z"/><path fill-rule="evenodd" class="b" d="m4.2 7.9c0 0 0-0.1 0-0.1-0.1 0-0.1-0.1 0-0.1h-0.3q0 0 0 0.1 0 0 0 0c0 0.1-0.1 0.1-0.1 0.2 0 0 0 0 0 0l-0.2-0.1q0 0 0.1 0c0 0 0 0 0-0.1 0-0.1-0.1-0.1-0.1-0.2v0.1l-0.1 0.1v-0.1l0.1-0.2-0.1 0.1q0 0 0 0 0 0 0 0.1c0 0 0-0.2-0.1 0l0.1-0.4q0 0.1 0 0.1c0.1 0.2 0.2-0.1 0.2-0.1q0 0 0 0 0 0 0 0.1v0.1q0 0 0 0c0-0.1 0.1 0 0.1-0.1 0-0.1 0-0.2 0-0.2q0 0 0.1 0v0.1c0 0 0.1 0 0.1 0.1 0-0.2 0.1 0 0.2-0.1 0 0 0 0 0.1 0.1 0 0 0 0.1 0 0.1q0 0.1 0 0.1 0.1 0.1 0.1 0.1 0 0.1 0 0.1c0 0.4-0.1 0-0.1 0.1 0 0.1-0.1-0.1-0.1 0zm-0.1-0.4q-0.1 0-0.1 0 0 0-0.1 0c0 0.1 0.1 0.1 0.1 0.1q0 0 0.1-0.1zm0.1 0.2l0.1 0.1c0 0 0 0.1 0 0.1 0.1-0.1 0-0.1 0-0.2 0-0.2 0-0.3-0.1 0z"/><path class="a" d="m11.4 8.4v0.1-0.1z"/><path class="a" d="m5.2 7.8z"/><path class="a" d="m14.8 7.9z"/><path fill-rule="evenodd" class="a" d="m20.7 7.3v0.2l-0.1-0.1q0-0.1 0-0.1v0.1l0.1 0.3q0 0.1 0 0.1c-0.2-0.3 0 0.2-0.1 0.1-0.1-0.1-0.1 0-0.2-0.1 0-0.1-0.1-0.3-0.1-0.1l-0.1-0.2c0-0.1 0 0.1 0 0-0.1-0.1-0.1 0.1-0.1 0.1q0 0 0 0-0.1 0-0.1-0.1c0 0.2-0.1 0.2-0.1 0.2-0.1 0-0.1-0.1-0.2-0.2q0 0 0 0c0 0.1 0 0.1 0 0.1 0 0.2 0 0.2-0.1 0.3 0-0.1-0.1 0.1-0.1-0.1-0.1-0.1-0.2-0.1-0.3 0.1 0-0.1 0-0.2 0-0.2-0.1-0.1-0.1-0.1-0.1-0.3q0 0 0-0.1v0.1c-0.1-0.1-0.1 0.1-0.1 0.2 0.1 0.3-0.1 0-0.1 0.2q0 0 0 0-0.1-0.1-0.1 0 0 0 0 0 0 0 0 0v-0.1q0 0 0 0-0.1 0-0.1 0c0 0.1 0.1 0.3 0 0.3l-0.2-0.1q0.1 0 0.1-0.1c-0.1-0.2-0.2-0.1-0.2-0.3q0 0 0-0.1l-0.1 0.2q0.1 0 0.1 0.2c-0.1 0-0.2 0.1-0.2 0-0.1-0.1 0 0 0 0q-0.1 0-0.2-0.1c0 0 0 0 0 0 0 0.5-0.1 0.2-0.2 0.1-0.1-0.1-0.1-0.1-0.2 0 0 0.1-0.1-0.2-0.1-0.1v0.1c0-0.1-0.1-0.1 0 0 0 0.1-0.1 0-0.1 0.1 0 0 0 0.2 0 0-0.1 0-0.1-0.1-0.2-0.1-0.1 0-0.1 0.1-0.2 0.2q0 0 0 0v-0.2-0.1q0 0 0 0.1c-0.1 0.2-0.1-0.2-0.1 0q0 0.1-0.1 0.1 0.1 0 0.1 0c0 0 0-0.1 0 0 0.1 0.1 0 0.1 0 0.1-0.1 0-0.1 0.1-0.2 0-0.1-0.2-0.1 0-0.2-0.1q0 0 0 0v0.1c0 0 0.1 0 0.1 0.1q0 0-0.1 0 0 0 0 0c0 0-0.1-0.1-0.1 0-0.1 0.1-0.1-0.3-0.2-0.1q-0.1 0-0.2-0.1c0 0 0 0-0.1 0.1q0 0-0.1 0.1c0 0 0-0.1 0-0.1 0 0.1-0.1 0-0.1 0 0 0.1-0.1 0-0.2 0.1-0.1 0.1-0.2 0.1-0.3 0.1-0.1 0 0-0.1 0-0.1q-0.2 0.1-0.3 0.2 0 0 0 0 0-0.1 0-0.1 0 0 0.1 0c-0.1-0.1-0.1-0.2-0.1-0.2q-0.1 0-0.1-0.1c0.1 0 0.1 0 0.1 0 0.1-0.2 0.2 0 0.2-0.1v0.1q0 0 0 0 0 0 0 0 0 0 0 0h0.1q0 0 0 0c0 0-0.1-0.2 0-0.3 0 0-0.1 0-0.2 0-0.1 0-0.2 0-0.2 0.3-0.1 0 0 0.2 0 0.2-0.1 0.1-0.1 0-0.1 0 0-0.1-0.1 0-0.1 0 0 0.2-0.1 0-0.1 0.2 0 0-0.1 0.1-0.1-0.1 0-0.1-0.1 0-0.1 0-0.1 0-0.1 0.1-0.1 0.3 0 0 0 0 0 0l-0.1-0.2q0 0 0-0.1 0 0-0.1 0v-0.2-0.2q0 0.1 0 0.1c0 0.2-0.1 0.2-0.1 0.3 0.1 0.1 0 0.1 0 0.1 0 0-0.1 0-0.1-0.2q0 0.1 0 0.2 0 0-0.1 0 0 0 0.1 0 0 0 0 0.1c-0.1 0 0 0.2-0.1 0.1q0 0 0 0l-0.1-0.2c0-0.1 0 0 0 0q0 0.1 0 0.1c-0.1 0.1 0 0.2 0 0.2q-0.1 0-0.1-0.2c0-0.2-0.1 0.2-0.1 0.1q0 0 0 0-0.1 0-0.1-0.1 0 0 0 0 0.1 0 0.1 0c0-0.1 0-0.1-0.1-0.1 0 0.1-0.1-0.1-0.2-0.1q0 0 0 0v0.1h0.1l-0.1 0.1q-0.1 0-0.1 0c0 0 0 0 0 0.1q0 0 0.1 0-0.1 0-0.1 0c0 0-0.1 0-0.1-0.2q0 0 0 0 0 0 0-0.1c0 0.1 0 0.2 0 0.2 0 0 0 0.1 0 0.1h-0.1l0.1-0.1q0 0 0 0l-0.1-0.2c0 0.1 0 0.1 0 0.1 0 0-0.1 0.2-0.2 0.1 0-0.1 0 0.1 0 0.1 0 0 0 0.1 0 0.1 0.1 0 0 0.1 0 0.1q0 0.1 0 0.1 0-0.1 0-0.1l-0.1-0.3q0 0.1 0 0.2c0 0 0 0.1 0 0q0-0.1-0.1-0.1 0.1 0 0.1 0 0 0 0-0.1v-0.1q0 0-0.1 0v0.1c0-0.1-0.1 0.1-0.1-0.1q0 0 0-0.1v0.1q0 0 0 0c0 0.1 0 0.2 0 0.2-0.1 0-0.1-0.1-0.1-0.1q-0.1-0.1-0.1 0c0 0 0 0.1 0 0.1q0 0 0 0 0 0-0.1 0c0-0.1 0 0 0 0 0 0.5-0.2 0.1-0.2 0.3q0 0 0 0 0-0.1 0-0.1v-0.2c0 0.2-0.2-0.1-0.2 0.2 0 0.1 0 0.1 0 0.1q0 0.1-0.1 0.1c0-0.1 0-0.1 0.1-0.2q0 0 0-0.2v-0.1 0.2q-0.1 0-0.1 0 0 0 0 0c0-0.1 0-0.2 0-0.1-0.1 0.1-0.1 0-0.1 0v-0.1-0.1h0.1q0 0.1 0 0.1 0-0.1 0-0.1v-0.2q0 0 0 0h0.1q0 0-0.1-0.1 0 0 0 0c0 0.1 0 0.2-0.1 0.2 0 0 0.1-0.1 0-0.2 0-0.1 0 0.2 0 0 0 0 0-0.1-0.1-0.1q-0.1 0 0 0.2 0 0.1 0 0.2v-0.1q0 0 0-0.1v-0.1q0 0 0 0 0 0.1 0.1 0.2c0 0.1-0.1 0.2 0 0.2v0.1c0 0.1 0 0-0.1 0-0.1-0.2 0 0.1 0 0.2h-0.1c0-0.1 0 0-0.1 0 0-0.2-0.1 0-0.1-0.3-0.1 0.3-0.1-0.1-0.1 0q0 0 0 0c0 0 0 0 0 0 0 0.1-0.1 0.2 0 0.3-0.1 0-0.1-0.1-0.1-0.1q-0.1-0.1-0.2-0.1c-0.1 0.1 0 0.1 0 0.3-0.1 0.1-0.1-0.2-0.2-0.2 0-0.1 0 0 0-0.1q0 0.1 0 0.1c-0.1 0.1-0.1-0.1-0.1-0.1-0.1 0.1-0.2 0-0.2 0-0.1 0.1 0 0.1 0 0.2q0 0 0 0c-0.1-0.1-0.1 0-0.1 0q-0.1-0.3-0.2 0 0 0 0 0 0 0 0 0 0 0 0 0 0-0.1 0-0.1c0-0.1-0.1-0.2-0.1-0.2-0.1 0 0-0.2-0.1-0.1 0 0.1 0 0.2 0 0.3 0 0 0 0 0 0.1q0-0.1 0-0.1-0.1 0-0.1 0c-0.1 0.1-0.1 0-0.2-0.1 0 0.2-0.1 0-0.1 0.1q0 0 0 0c-0.2-0.2-0.3 0-0.4 0q-0.1-0.1-0.2 0c0 0-0.1 0.1-0.1 0.2q0 0 0 0.1c0-0.1-0.1 0-0.1-0.2q0 0 0 0v0.1q0 0-0.1-0.1c0 0 0-0.1 0.1-0.1 0 0 0-0.1 0-0.1 0 0.2-0.1 0-0.1 0q-0.1 0-0.2 0l-0.3 0.1c0 0.2-0.1 0-0.1 0.1 0-0.3-0.1-0.2-0.1-0.2 0 0-0.1 0-0.1 0.1 0 0 0 0 0 0q0.1 0 0.1 0l-0.1 0.1v-0.1-0.2 0.2q-0.1 0-0.1 0c0-0.1 0-0.1-0.1 0 0 0 0-0.1 0 0q-0.2 0-0.3 0.1 0 0 0 0v0.1q0 0 0 0.1c-0.1 0-0.1 0-0.2 0 0.1 0 0.1-0.1 0.1-0.1 0-0.1 0.1-0.1 0.1-0.2q0 0 0 0v-0.1c0-0.1 0 0.1-0.1 0 0 0 0-0.1 0 0.1 0 0-0.1 0-0.1 0-0.1-0.3-0.2-0.1-0.4-0.2 0-0.1-0.1 0.1-0.2 0.1 0.1 0.2 0 0.1 0 0.1-0.1 0 0.1-0.1 0-0.1-0.1 0-0.1 0.2 0 0.4q0 0 0 0 0 0-0.1 0.1v-0.1q0 0 0 0v0.1-0.1c-0.1-0.1 0 0.1-0.1 0q0 0 0 0c0 0.1-0.1 0 0 0.1v0.1c0-0.3-0.1 0-0.2-0.1 0-0.1-0.1 0.1-0.2 0 0-0.1-0.1 0.1-0.2 0q0 0-0.1-0.2c0-0.1 0 0.1-0.1 0.2-0.1 0 0-0.2 0-0.1-0.1 0 0-0.1 0-0.1q0 0-0.1 0 0 0 0-0.1 0 0 0 0.1 0 0.1 0 0.1c-0.1 0-0.2 0-0.2-0.1-0.1-0.1-0.1-0.1-0.2 0.1 0-0.2-0.1 0.1-0.1-0.1-0.1 0-0.2 0.1-0.3 0.1q0 0 0 0c0 0 0-0.2 0-0.2q0 0 0.1 0-0.1 0-0.1 0 0 0 0 0.1c0 0 0 0 0 0.1l-0.2-0.1q0 0 0 0-0.2 0-0.4 0-0.1 0-0.2-0.1h-0.2c-0.1 0-0.1-0.1-0.2-0.1-0.1 0.1-0.3 0.1-0.4 0-0.1-0.1-0.1 0-0.2-0.1 0-0.1-0.1 0.1-0.1 0-0.1-0.2-0.2 0.1-0.3-0.1 0 0 0-0.2 0-0.2-0.1 0.1-0.1 0-0.2 0 0-0.1 0 0-0.1-0.1 0 0-0.1-0.2-0.1-0.3-0.1 0.3-0.1 0.2-0.1 0.1v-0.5q0 0.1 0.1 0.1c0.1-0.1 0.1 0.2 0.2 0.1 0 0 0.1 0 0.1 0 0 0 0-0.1 0-0.1 0.1-0.1 0 0 0 0 0-0.1-0.1-0.1 0-0.2v-0.1c-0.1 0.1-0.2-0.1-0.2 0.1q-0.1 0-0.1 0v-0.1q0 0 0-0.1 0 0 0 0.1c-0.1 0.2-0.1 0.1-0.1 0l0.1-0.5c0 0 0-0.2 0-0.1v-0.1-0.1q0 0 0 0c0-0.1 0.1 0 0.1-0.2q0 0 0-0.1 0 0 0 0 0 0 0 0.1c0 0.1 0.1-0.1 0.1 0 0 0.1-0.1 0.2 0 0.2 0 0 0 0 0-0.1 0-0.1 0-0.1 0.1-0.1 0 0 0.1-0.1 0.1-0.1 0 0 0.1-0.1 0.1 0.1q0 0 0 0c0 0.1 0-0.3 0 0 0 0 0.1-0.1 0.1-0.1 0.1-0.2 0 0.2 0.1 0.1 0 0.1 0 0.2 0 0.1q0 0 0.1 0 0 0 0 0.1-0.1 0-0.1-0.1 0 0 0 0.1c0 0 0 0.1 0 0.1q0.2 0.1 0.3 0.1c0 0 0 0 0 0q0 0 0 0c-0.1 0-0.1 0-0.1-0.1 0-0.1 0.1-0.1 0.1-0.1 0.1-0.3 0.2 0.2 0.2-0.1v-0.1q0 0 0 0c-0.1 0.1-0.1 0.1-0.1-0.1 0.1 0 0.1 0.1 0.2 0 0 0-0.1 0.2 0 0.2 0 0 0-0.1 0.1-0.2 0 0 0 0 0 0v0.2q0 0 0 0c0 0 0.1-0.1 0.1 0 0 0.1 0.1-0.1 0.1-0.2 0.2-0.1 0.5 0 0.5 0.3 0 0.2 0-0.1 0 0 0.1 0.1 0.1-0.1 0.1-0.1 0.1-0.3 0.1 0 0.1-0.1 0.1 0 0.1 0 0.2 0q0 0 0 0c0 0.3 0.1-0.2 0.1 0.1 0.1-0.2 0.1 0.2 0.2-0.1 0 0.2 0.1 0.1 0.1 0.2q0 0 0 0 0 0.1 0 0.1 0 0.1 0 0.2v-0.1q0 0 0-0.1c0 0 0.1 0 0.1 0.1q0.1 0.1 0 0.2 0 0 0 0h0.1v-0.1c0-0.1 0-0.2 0-0.2 0.1-0.1 0.1-0.2 0.1 0q0.1 0 0.1 0v-0.1 0.1c0 0.1 0 0.1 0 0.1q0 0.1 0.1 0.2l-0.1-0.2q0 0 0 0c0.1 0.1 0.1 0 0.2 0q0 0 0-0.1l0.1-0.2q0.1 0 0.1-0.1c0 0.2 0.1 0 0.1 0.2q0 0.1 0 0.1v-0.1c0 0 0-0.1 0-0.1q0.1 0 0.2 0 0 0.1 0 0.2 0 0 0 0.1 0 0 0 0c0 0 0-0.1 0-0.1 0 0 0 0.2 0.1 0.1 0 0 0.1-0.2 0-0.3q0 0 0.1 0c0-0.1 0.1-0.1 0.1-0.1 0 0.1 0.1-0.1 0.1 0q0 0.1 0 0.1v0.1-0.1q0 0 0 0h-0.1q0 0.1 0 0.1 0.1 0 0.1 0 0 0 0 0-0.1 0-0.1 0 0 0 0 0v0.2q0.1 0 0.1 0c0 0.2-0.1 0.1-0.1 0.1q0 0 0.1 0.1 0.1-0.1 0.2-0.1 0 0 0 0 0-0.1 0-0.1c-0.1-0.1 0-0.2 0-0.3v0.1 0.1q0 0 0 0 0 0 0 0v-0.2-0.1l0.1 0.1 0.2 0.3c0-0.5 0-0.1 0.1 0 0 0 0-0.2 0-0.2 0.1-0.1 0.2 0 0.2-0.1 0.1 0 0.2-0.1 0.3 0q0 0 0 0c0 0.1 0 0.1 0 0.1q0 0 0-0.1l-0.1 0.2q0.1-0.1 0.2-0.2c0 0 0 0.1 0 0.1 0.1 0.1 0.1-0.1 0.1 0q0 0 0 0 0 0 0 0v0.1c0 0 0 0 0 0.1q0-0.1 0.1-0.1 0-0.1 0-0.2c0 0 0 0.1 0 0.1 0.1 0.1 0 0 0 0.1 0 0 0 0.1 0 0.1 0.1 0 0.1-0.1 0.1-0.1 0 0.1 0 0.1 0.1 0.2q0 0 0 0.1 0 0 0 0l0.1-0.1-0.1 0.1q0 0 0 0 0.1 0.1 0.1 0 0 0 0 0c-0.1 0 0.1-0.3 0-0.2 0 0-0.1 0 0-0.1q0 0 0 0c0-0.1-0.1-0.1-0.1-0.3 0.1 0 0.1 0.1 0.1 0.2q0 0 0 0.1v-0.1-0.1l0.1 0.1q0 0.1 0 0.1v-0.1-0.1q0 0 0.1 0c0 0.1 0.1 0.2 0.1 0 0-0.1 0.1-0.1 0.1-0.1 0 0 0 0.1 0 0.1q0 0 0 0-0.1 0-0.1 0c0 0.1-0.1 0.2 0 0.3 0 0.1 0 0 0 0v-0.1c0-0.2 0.1 0 0.1-0.1 0.1-0.1 0.1-0.1 0-0.1v-0.1q0.1 0 0.1 0c0 0 0 0.1 0 0.1q0 0 0 0 0.1 0 0.1 0 0-0.2 0.1 0.1 0 0 0 0 0 0-0.1 0.1 0.1 0 0.1 0.1 0-0.1 0-0.1 0 0 0-0.1 0.1 0 0.1 0.1c-0.1 0-0.1 0-0.1 0.1v0.1h0.1c0-0.1 0-0.2 0-0.2 0-0.1 0.1-0.3 0.1-0.3 0-0.1 0 0.1 0 0.1q0 0 0 0c0.1-0.2 0.2 0.1 0.2-0.1q0 0 0 0c0 0.1 0.1-0.1 0.1 0q0 0.1 0.1 0.1l0.2-0.1c0.1 0 0.2 0 0.2 0 0.2 0 0.3-0.1 0.5 0.1 0.1 0.1 0.2-0.1 0.2-0.1 0.1 0 0.1-0.1 0.2 0.1 0.1 0.3 0.1-0.1 0.2-0.1 0.1 0.1 0.1 0 0.2 0 0.1 0 0.2 0.1 0.2 0.3q0 0 0 0v-0.1-0.1q0 0 0.1 0.1c0 0 0 0 0 0q0 0 0-0.1c0-0.2 0.1 0 0.1-0.1h0.2c0 0 0 0.1 0 0.1 0.1 0.1 0.2 0 0.2-0.1 0.1 0 0.1-0.1 0.2 0.1 0-0.2 0 0.1 0 0.1q0.1-0.1 0.1-0.1c0-0.1-0.1-0.1-0.1-0.1 0.1 0 0.2 0 0.3 0.1q0 0 0 0.1v-0.1-0.1l0.1 0.1c0 0 0 0.1 0 0.1 0 0 0-0.1 0-0.2 0.1 0 0.1 0 0.1 0v0.2q0 0-0.1 0 0 0 0 0.1h0.2q0 0 0 0v-0.1c0 0.2-0.1 0.1-0.1 0 0-0.1 0.1-0.2 0.1-0.1 0 0.1 0 0.1 0 0.1 0.1 0 0.1-0.1 0.1-0.2 0.1-0.2 0.1 0.1 0.1 0.1 0 0 0 0.1 0 0.1 0-0.1 0.1-0.1 0.1-0.1 0-0.2 0-0.3 0.1-0.1 0 0.1 0.1-0.1 0.2-0.1 0 0 0.1-0.1 0.2 0.2q0 0 0 0c0-0.2 0-0.1 0.1-0.1 0 0.1 0-0.1 0.1-0.1q0.2 0.1 0.4 0c0.1 0 0.1 0.1 0.2 0q0 0 0 0 0.1 0 0.2 0.1c0 0 0-0.1 0.1-0.1 0.1 0 0.2 0 0.4 0l0.2-0.1h0.2c0 0.1 0 0.1 0 0.1 0-0.3 0.2 0.1 0.2-0.1 0 0 0.1 0 0.1 0.1 0.1 0.1 0.1 0 0.1 0 0.1-0.1 0.3-0.1 0.4-0.1q0.1 0 0.2 0 0 0 0 0.1v0.1c0.1 0 0-0.1 0-0.2l0.1 0.1c0 0 0-0.1 0-0.1 0.1 0 0.1 0 0.1 0 0.1 0 0.2-0.1 0.3 0 0.1 0 0.2-0.1 0.4-0.1 0.1 0 0.2 0 0.3 0 0.1 0.1 0.2-0.1 0.2 0 0.1 0 0.1 0.1 0.1 0.1 0.1-0.1 0.1 0 0.2 0.1 0.1 0 0.2-0.2 0.3-0.1 0 0 0.1-0.1 0.1-0.1 0-0.1 0 0.1 0.1 0q0.1-0.2 0.3 0c0.1 0.1 0.1 0.1 0.2-0.1 0 0.1 0 0.1 0 0.1 0.1 0 0.1-0.1 0.2-0.1q0.1 0 0.3 0c0.2 0 0.4 0.1 0.6-0.1 0 0.3 0.1-0.1 0.1 0.1q0 0 0 0 0 0 0-0.1 0 0 0 0l0.2 0.1q0 0 0 0l0.2-0.2c0 0 0 0 0 0q0 0 0 0 0.1 0.1 0.1 0.1zm-16.4-0.7q0 0 0 0.1 0.1-0.1 0.1-0.1c0-0.1-0.1-0.2-0.1-0.2-0.1 0 0 0.2 0 0.2zm-1.1 0.6c0 0.1 0.1 0 0.1 0.1q0-0.2-0.1-0.1 0-0.1 0 0 0 0 0 0zm-0.8 0.5q0 0.1 0 0.2 0.1-0.1 0.1-0.2 0 0-0.1-0.1c0 0 0 0.1 0 0.1zm-0.2-0.3c0 0 0-0.1 0-0.2 0-0.1-0.1 0.2-0.2 0 0 0.3 0.2 0 0.2 0.2zm0 0.4c-0.1 0-0.1-0.1-0.1-0.1q0 0.1 0 0.1v0.2l0.1-0.1q-0.1 0-0.1 0c0-0.1 0.1 0 0.1-0.1zm0.1-0.1c0 0 0-0.1 0.1-0.1q-0.1 0-0.2 0 0 0-0.1 0 0.1 0.1 0.2 0.1zm0.4 0.6q0-0.1-0.1-0.1l0.1 0.1q0 0-0.1 0 0 0 0 0c-0.1-0.1-0.1-0.3-0.2-0.2-0.1 0-0.1-0.1-0.1 0.1q0 0 0 0 0.1 0 0.1-0.1c0 0.1 0.1 0 0 0.1q0.1 0.1 0.2 0.2c0.1 0 0.1-0.1 0.1 0q0 0 0 0c0-0.1 0-0.1 0-0.1zm0.6 0.1q-0.1-0.1-0.2-0.1 0 0 0 0.1 0 0 0 0.1v0.1q0.1-0.1 0.1-0.1c-0.1-0.2 0-0.1 0-0.1zm0.1-0.7v0.1-0.2q0 0 0 0 0 0 0 0 0 0 0-0.1 0 0 0 0c0.1 0 0.1 0 0 0.2q0 0 0 0.1 0 0 0 0l0.1-0.2c0 0 0-0.2-0.1-0.1 0 0 0-0.1-0.1-0.1 0 0 0 0 0 0.1-0.1-0.2-0.2 0.1-0.3-0.1 0 0-0.1 0-0.1 0.1 0 0 0 0 0 0.1q0 0 0 0.1 0-0.1-0.1-0.1 0 0 0 0 0 0 0 0.1 0 0 0 0 0 0 0.1 0 0 0 0 0.1 0 0 0 0c0 0.1-0.1 0-0.1 0.1q0 0 0 0.1 0 0.1 0 0.1 0.1-0.1 0.1-0.1 0 0.1 0 0.1-0.1 0-0.1 0c0 0.1 0 0.1 0 0.1q0.1 0 0.1-0.1c0.1-0.2 0-0.2 0-0.3 0.1 0.1 0.1-0.2 0.1-0.2 0.1 0 0.2 0 0.2 0q0 0 0.1 0 0 0.1-0.1 0.1 0 0 0 0c-0.1-0.1-0.1 0.2-0.2 0.1q0 0 0 0 0.1 0.1 0.1 0.1c0-0.1 0 0 0 0 0 0.1-0.1 0.1 0 0.2 0 0 0 0.1 0 0.1q0 0.1 0 0.1 0 0 0 0v-0.4c0 0.1 0-0.1 0.1 0 0 0 0 0 0.1 0 0 0 0-0.1 0-0.1 0-0.2 0.1 0 0.1-0.1zm0.1 0.4q0 0 0 0-0.1 0-0.1 0 0 0 0 0 0 0 0 0v0.1q0 0.1 0 0.1l0.1-0.1q0-0.1 0-0.1zm-0.1-0.3c0 0 0 0.1 0 0.1 0 0-0.1 0.1-0.1 0.1 0.1 0 0.1-0.1 0.1 0.1 0-0.1 0.1-0.2 0-0.3zm0 0.3q0 0 0 0 0 0 0 0zm0.3 0l-0.1 0.1c0-0.2 0 0.1-0.1 0q0.1 0.1 0.1 0.2c0 0 0 0.1 0 0.2q0 0 0 0 0 0 0 0 0 0 0 0c0.1 0 0-0.1 0-0.2q0-0.1 0.1-0.1c0 0.1 0.1 0 0.1-0.1 0-0.1-0.1 0.1-0.1-0.1zm0.2 0.1c0-0.1 0 0.3 0 0.1l-0.1 0.3q0.1-0.1 0.2-0.3c0 0 0-0.1-0.1-0.1zm0.4-0.3c0-0.1 0 0.1 0 0 0.1-0.1 0.1 0.3 0.1-0.1q0.1-0.1 0.1-0.1-0.1-0.1-0.1-0.1 0 0 0-0.1c0 0 0-0.1-0.1-0.1 0-0.1 0-0.1-0.1-0.1 0 0.1-0.1-0.1-0.2 0.1 0-0.2 0-0.1-0.1-0.1l0.1-0.1q-0.1 0-0.1 0c0 0 0 0.1 0 0.1 0 0.2-0.1 0.1-0.1 0.2q0 0 0 0v-0.1q0-0.1 0-0.1 0 0 0 0c-0.1 0-0.2 0.3-0.2 0.1q-0.1 0-0.1-0.1v0.4c0-0.2 0.1 0 0.1 0q0-0.1 0-0.1 0 0 0 0l0.1-0.1-0.1 0.2h0.1v-0.1c0 0.1 0 0.1 0 0.2 0 0.1 0 0.1 0 0.1q0 0 0 0l0.2 0.1c0 0 0 0 0 0 0-0.2 0.1-0.1 0-0.2q0 0 0-0.1 0 0 0.1 0h0.2c0 0 0 0.1 0 0.1 0 0 0.1 0.1 0.1 0.1zm0.5 0.6q0-0.1 0-0.2c0-0.1 0 0.1 0 0-0.1-0.3-0.2 0.1-0.3-0.1q0 0 0 0 0 0.1-0.1 0.1c0 0 0-0.1 0-0.1 0-0.1-0.1 0-0.1-0.2q0 0 0 0 0 0 0 0.1c0.1 0 0 0.1 0 0.1 0 0.1-0.1 0.1 0 0.2q0 0 0.1 0c0 0.1 0 0.2 0 0.2 0.1-0.1 0.1 0 0.1 0 0.1-0.2 0.2-0.2 0.3-0.3-0.1 0 0 0.2-0.1 0.1q0 0 0 0 0 0.1 0 0.1 0.1-0.1 0.1-0.1c0 0 0 0.1 0 0.1zm0.1-1c0 0-0.1 0-0.1 0 0 0 0 0.1 0 0.1 0.1 0 0 0.1 0.1 0.1 0 0 0-0.1 0-0.2zm0.4-0.1c0 0.1-0.1 0-0.1 0.3 0 0-0.1-0.2-0.1 0 0 0 0.1 0.1 0.1 0.1 0 0.1-0.1-0.1-0.1 0.1q0 0 0 0c0-0.3-0.1-0.3-0.2-0.4q0 0 0 0.1 0 0 0 0 0.1 0.1 0.2 0.3c0 0 0 0.2 0 0.3 0 0 0 0.1 0 0-0.1 0-0.1 0-0.1 0q0 0.1 0.1 0.1 0 0 0.1 0c0 0.1 0.1 0.1 0 0.3 0.1-0.1 0-0.2 0-0.2 0.1-0.1 0.1-0.1 0-0.1 0 0 0 0.1 0 0.1 0-0.1 0-0.2-0.1-0.1 0.1-0.2 0-0.4 0.1-0.4 0 0 0.1 0 0.1-0.1q0 0-0.1 0v-0.1q0 0 0 0 0.1 0 0.1 0zm0.1 0.7q0.1-0.1 0.2-0.1c0.1 0 0.2-0.1 0.2 0 0.1 0 0.1-0.1 0.1-0.1q0 0 0-0.1c-0.1 0-0.1-0.1-0.2 0 0 0 0-0.1 0-0.1 0-0.1 0 0 0 0q-0.1 0.1-0.1 0.1 0 0 0 0 0-0.1 0-0.1 0 0 0 0 0-0.1 0-0.1 0 0.1-0.1 0.1 0 0.1 0 0.1c0 0 0 0-0.1-0.1q0 0 0 0 0.1 0 0.1 0c0 0 0 0.1 0 0.1 0-0.1 0-0.3 0-0.4 0 0 0 0-0.1 0 0 0.2 0 0.5 0 0.7zm0.4 0.6c0-0.1 0-0.2-0.1-0.3 0 0-0.1-0.2-0.1-0.1-0.1 0 0 0.1 0 0.1q0 0-0.1-0.1 0 0 0-0.1c0 0 0 0.3-0.1 0.2q0 0.1 0 0.1c0.1 0.1 0.1 0.1 0.2 0 0 0.1 0.1 0.2 0.1 0.1q0 0 0 0c0 0.2 0 0.1-0.1 0.2q0 0 0 0 0 0 0.1 0c0 0 0.1 0 0.1-0.1zm0.3-0.2q0 0 0-0.1 0 0 0 0c-0.1 0.1-0.2 0-0.2 0-0.1-0.2-0.1 0.1-0.1 0v0.1c0.1 0 0.1 0.1 0.2 0.2q-0.1 0.1-0.1 0.1 0.1 0 0.1 0c0 0-0.1-0.1 0-0.1 0-0.1 0.1-0.1 0.1-0.2zm0.6-0.7q0 0 0-0.1l-0.1 0.1c0-0.1-0.1-0.1 0-0.1q0-0.1 0-0.1 0 0 0 0.1 0-0.1 0-0.1 0 0 0-0.1c0 0.1-0.1 0-0.2 0.1 0 0 0-0.1 0-0.1q0 0 0-0.1h-0.1c0.1 0 0 0.2 0.1 0.2-0.1 0.1 0 0.1 0 0.1-0.1 0-0.1-0.1-0.1 0.1q-0.1 0.1-0.1 0.1 0 0 0 0c0.1 0.1 0.1 0.1 0.1 0 0.1 0 0.2-0.1 0.3 0.1 0 0 0-0.2 0.1-0.2zm0-0.1q0 0 0 0 0 0.1-0.1 0.1l0.1 0.2zm0.2-1.1q0-0.1 0-0.2v0.1q0 0 0 0-0.1 0-0.1 0 0-0.1 0-0.1-0.1 0-0.1 0c0 0.1 0 0.1 0 0.1 0.1-0.1 0.1 0 0.1 0.1 0 0.1 0.1 0.1 0.1 0.1 0 0 0-0.1 0-0.1zm0.2 1.1c0-0.1-0.1 0-0.1 0.1 0 0 0 0 0 0q0 0-0.1 0c0.1 0.1 0.1 0 0.2 0q0 0 0-0.1zm0.8 0q-0.1 0-0.1 0l0.1 0.1v-0.1l-0.1-0.2v0.1 0.1l-0.1-0.1q0 0-0.1-0.1c0 0 0 0.1 0 0.1 0 0.3 0 0.1-0.1 0.1q0 0 0-0.1c0 0.1 0 0.2 0 0.2 0.1 0 0.1 0.2 0.2 0.1 0-0.1 0 0 0.1 0 0 0.4 0.1 0 0.1 0q0 0 0 0v-0.1q0 0 0 0c0 0.2-0.1 0.1-0.1 0q0 0 0 0.1c0-0.1 0-0.1-0.1-0.2q0 0 0 0l0.1-0.1zm0.3 0.2q-0.1 0-0.1 0c0-0.1-0.1 0 0-0.1q0.1 0 0.1-0.2-0.1 0-0.1 0.1c0 0-0.1 0.1-0.1 0.1q0.1 0.2 0.2 0.1 0 0 0 0zm0 0q0 0.1 0 0zm0.4-1.1q-0.1 0-0.2 0c0 0 0 0 0 0.1 0 0 0 0.1 0.1 0.1q0-0.1 0.1-0.2zm0.2 1.1q-0.1-0.1-0.2-0.3l-0.1 0.3q0 0 0 0 0.1 0 0.2 0 0 0 0 0.1 0 0 0 0v0.2q0-0.1 0.1-0.3zm0.2 0c0-0.3-0.1 0.1-0.1 0q0 0.2 0 0.3c0 0.1 0-0.1 0 0l0.1-0.2c0-0.1 0-0.1 0-0.1zm0.3-0.2h-0.2q0 0 0 0 0.1 0.1 0.1 0.1c0 0 0.1-0.1 0.1-0.1zm0.6 0.3q0-0.2 0-0.3c0-0.2-0.1 0-0.2 0q0.1 0.1 0.1 0.1c0 0.1-0.1-0.1-0.1 0.1q0 0 0.1 0v-0.1c0 0.1 0.1 0.1 0.1 0.2q0 0 0 0zm0.2-1.3q0 0.1 0.1 0.1c0 0 0.1-0.1 0.1-0.1 0-0.2-0.1 0-0.1-0.1q-0.1 0.1-0.1 0.1zm0.1 0.8c-0.1 0 0-0.2-0.1-0.1q0 0 0 0.1-0.1 0.1-0.1 0.2 0.1 0.1 0.1 0.1c0 0 0.1 0 0.1-0.1q-0.1 0-0.1 0v-0.1-0.1q0 0 0 0c0 0.2 0.1 0 0.1 0 0-0.1 0 0 0 0zm0.2-0.2c-0.1-0.2-0.1 0.1-0.1 0.1 0 0-0.1 0.1-0.1 0.2 0.1 0 0.2-0.1 0.2-0.3q0 0 0 0zm0.3 0.9l-0.1-0.2c0 0.1 0 0.2 0 0.2 0 0.1 0.1-0.1 0.1 0.1zm0.2-0.2q0 0 0-0.1c-0.1-0.2-0.2 0-0.2-0.1q0 0 0 0c-0.1-0.1-0.1 0-0.1 0.1 0 0 0 0.1 0 0.1q0.1 0 0.1-0.1 0 0 0-0.1c0 0.1 0.1 0.1 0.1 0.1 0 0.2 0 0.1 0.1 0.2q0 0 0-0.1zm0.6-0.4c-0.2 0.1-0.2 0-0.2-0.1 0 0 0-0.1 0-0.1-0.1 0 0 0.2-0.1 0.3 0.1 0.1 0.1 0 0.3-0.1zm0.1-0.9h0.1q-0.1-0.1-0.1-0.2c0 0-0.1 0-0.1 0 0.1-0.1 0-0.1 0-0.2-0.1 0-0.1 0-0.1 0 0 0.2 0.1 0.2 0.1 0.4 0 0 0 0 0.1 0zm0.1 0.9c0-0.1-0.1-0.2-0.1 0q0 0.1 0.1 0.1zm0-1q0 0 0.1-0.1-0.1 0-0.2-0.1c0 0.2 0.1 0 0.1 0.2q0 0 0 0zm0.2 1.6q0 0 0.1-0.1l-0.2-0.1c0 0 0 0.1 0 0.1 0 0.3 0.1-0.1 0.1 0.1zm0.1 0.1q0 0-0.1 0c0 0 0 0 0 0l0.1 0.2q0-0.1 0-0.2zm0-1.9c-0.1-0.1 0 0.1 0 0.1q0 0.2 0 0.2 0-0.1 0-0.1c0-0.1 0-0.1 0-0.2zm1-0.1q0 0-0.1 0c0 0-0.1 0.1 0 0.2 0 0.1 0-0.1 0-0.1 0 0.1 0.1 0.1 0 0.2 0.1 0.1 0.1-0.1 0.1-0.1 0 0 0-0.1 0-0.2zm0.4 0.7c0 0 0 0 0 0q-0.1 0-0.1 0.1 0 0 0 0.1 0.1-0.1 0.1-0.2zm0.1 0.5q0-0.1-0.1-0.2c0 0 0 0.1 0 0.1q0 0.1 0.1 0.2c0 0 0-0.1 0-0.1zm0.7 0.2c-0.1-0.1 0-0.2 0-0.2-0.1 0 0 0.2 0 0.3q0 0 0 0 0 0 0.1-0.1c0 0-0.1 0-0.1 0zm0.1-0.4q-0.1 0.1-0.2 0.1 0 0 0 0 0 0 0 0 0 0.1 0 0.1 0.1-0.1 0.2-0.1 0 0 0-0.1zm0-0.7q0-0.1-0.1-0.1 0 0.1 0 0.1l0.1 0.2c0-0.1 0-0.2 0-0.2zm0.3 0q0 0.1 0 0.1v0.2c0 0 0 0.1 0 0 0-0.1 0-0.2 0-0.3zm0.3 0.5v0.2c0 0 0 0 0 0q0.1 0 0.1-0.2 0 0-0.1 0zm1 0c-0.1-0.1-0.1-0.1-0.1-0.1q0 0-0.1 0.1c0.1 0 0.1 0.1 0.1 0q0.1 0 0.1 0zm0-0.2c0 0.2 0.1 0.2 0.1 0.2q0 0 0.1 0l-0.2-0.2c0 0 0 0 0 0zm0 0.6q0.1 0 0.1 0.1 0-0.1 0-0.1 0-0.1-0.1-0.1c0 0 0 0 0 0.1zm0.3 0.3l-0.2-0.2q0 0.1 0 0.2h0.2q0 0 0 0zm0.7-0.7c0-0.1-0.1-0.1-0.1-0.2 0 0 0 0.1-0.1 0.1 0.1 0.1 0.1 0.3 0.2 0.2zm0.4 0.4c0-0.1 0 0 0-0.1q0 0.2 0 0.2 0 0 0 0v0.1q0.1-0.1 0-0.2zm2.5-0.1q0 0-0.1-0.1 0 0.1 0 0.1 0 0.1 0.1 0.1c0 0 0 0 0-0.1z"/><path class="a" d="m17.4 7.9q0 0 0 0.1 0-0.1 0-0.1z"/><path class="a" d="m14.1 8.2h-0.1z"/><path class="a" d="m14.1 8.2h-0.1z"/><path class="a" d="m2.8 6.1z"/><path class="a" d="m8.1 7.9q0 0.1 0 0z"/><path class="a" d="m4.7 8.3z"/><path class="a" d="m14.1 7.4q0 0 0 0z"/><path class="a" d="m3 7.9z"/><path class="a" d="m10.6 7.9z"/><path class="a" d="m3.2 7.1q0 0 0 0.1v-0.1z"/><path class="a" d="m2.4 8.1z"/><path class="a" d="m6.8 8.9v-0.1z"/><path class="a" d="m6.3 8.8q0 0 0 0 0 0 0 0 0-0.1 0-0.1v-0.1 0.1q0 0 0 0-0.1 0-0.1 0 0 0 0 0v0.1q0 0 0 0c0.1-0.1 0.1 0.1 0.1 0.2 0 0.1 0.1 0 0.1 0.1l0.1-0.1v-0.2z"/><path class="a" d="m1.7 8.2q0 0 0-0.1c0-0.1-0.1 0.1-0.1-0.1q0 0 0 0v0.2q0 0 0.1 0c0 0 0 0 0 0z"/><path class="a" d="m6.6 8.9q0 0 0 0 0 0-0.1 0 0 0 0 0c0.1-0.1 0.1-0.2 0 0 0 0 0.1-0.2 0-0.1v0.2c0 0.2 0.1-0.1 0.2 0v-0.1-0.1c-0.1 0.1-0.1-0.1-0.1 0.1z"/><path class="a" d="m2.6 6.3q0 0 0.1 0-0.1-0.1-0.2-0.2c0 0 0 0.1 0 0.1 0 0 0 0.1 0.1 0.1z"/><path class="a" d="m6.8 8.9v-0.1 0.1z"/><path class="a" d="m6.8 8.7c0 0-0.1 0-0.1 0.1 0 0.1 0-0.2 0 0v0.1c0 0.2 0.1 0.1 0.1 0 0-0.1 0-0.2 0-0.2z"/><path class="a" d="m5.1 6.2c-0.1-0.2-0.1 0.1-0.2 0q0 0 0 0.1c0 0 0 0.1 0.1 0.1 0 0 0.1 0 0.1-0.2z"/><path class="a" d="m7.5 8.9c0 0 0.1-0.1 0.1-0.1l-0.1-0.1v-0.1l-0.1 0.2q0.1 0 0.1 0.1z"/><path class="a" d="m9.9 8.7q0 0 0-0.1c0 0.1-0.1 0-0.1 0.2 0 0.2 0.1-0.1 0.1 0 0 0 0.1 0 0-0.1z"/><path class="a" d="m5.2 6.4q0-0.1 0-0.1 0 0 0 0 0 0 0 0.1 0 0 0 0 0 0 0 0.1 0 0 0 0c-0.1 0.1 0 0.1 0 0.1v-0.1c0 0 0-0.1 0-0.1z"/><path class="a" d="m5.2 6.5v0.1q0 0 0-0.1z"/><path class="a" d="m8.1 8.7v0.1c0 0 0 0.2 0.1 0.1 0-0.1 0-0.2 0-0.3 0 0.1-0.1 0.2-0.1 0.1z"/><path class="a" d="m19.8 7.7q0 0 0 0l0.2 0.2c0 0 0-0.1 0-0.1-0.1-0.1-0.1 0-0.2-0.1z"/><path class="a" d="m13.7 8.5q-0.1 0.1-0.1 0.2 0 0 0.1 0 0 0 0-0.1c0 0 0-0.1 0-0.1z"/><path class="a" d="m11.7 8.7v0.2q0-0.1 0-0.1 0 0 0.1 0.1-0.1-0.1-0.1-0.2 0 0 0 0z"/><path class="a" d="m15 8.4q0 0-0.1 0.1 0.1 0 0.1 0c0 0 0-0.1 0-0.1q0 0 0 0z"/><path class="a" d="m17.2 7.9c0 0-0.1 0.1-0.1 0.1 0.1 0.2 0.1-0.1 0.2 0q0 0 0-0.1c0 0-0.1 0-0.1 0z"/><path class="a" d="m9.4 8.7c0 0.1 0 0.2 0 0.3q0 0 0-0.1c0-0.2 0.1-0.1 0.1 0 0-0.2-0.1-0.1-0.1-0.2z"/><path class="a" d="m2.7 6.2l0.1-0.1q0 0 0-0.1c-0.1 0.1-0.1 0-0.1 0.2z"/><path class="a" d="m2.8 6.1z"/><path class="a" d="m2.8 6.1z"/><path class="a" d="m8.1 8.8z"/><path class="a" d="m8.1 8.6q0 0-0.1 0c0 0 0 0 0 0l0.1 0.3v-0.1c0 0-0.1-0.1 0-0.2z"/><path class="a" d="m8.1 8.8z"/><path class="a" d="m8.1 8.8z"/><path class="a" d="m14.1 8.2z"/><path class="a" d="m14 8.2q0-0.1 0 0 0 0.1 0 0.2 0 0 0.1 0l-0.1-0.2z"/><path class="a" d="m14 8.2h0.1-0.1z"/><path class="a" d="m13.2 8.7q0 0 0.1 0 0 0 0.1 0-0.1-0.1-0.2-0.1 0 0 0 0.1z"/><path class="a" d="m4.3 7.9c0.1-0.1 0-0.1 0-0.2 0-0.2 0-0.3-0.1 0l0.1 0.1c0 0 0 0.1 0 0.1z"/><path class="a" d="m3.9 7.5c0 0.1 0.1 0.1 0.1 0.1q0 0 0.1-0.1-0.1 0-0.1 0 0 0-0.1 0z"/><path fill-rule="evenodd" class="a" d="m22.7 6.6c0 0.1 0 0.2-0.1 0.1 0 0-0.1 0-0.1 0 0 0 0 0 0 0 0.1 0.3-0.2 0.2 0 0.4-0.1-0.1-0.1 0.2-0.2 0.3 0-0.2-0.1-0.1-0.1-0.2 0 0 0.1 0 0-0.1q0 0 0-0.1h0.1q0 0 0 0l-0.1-0.1v0.2c-0.1 0-0.1 0-0.2 0q-0.1 0-0.2 0.1c-0.1 0-0.1 0-0.1-0.1 0 0-0.1 0 0 0.1q0 0.1 0.1 0.1 0 0 0 0 0 0 0 0c-0.2 0-0.3 0-0.4 0.2q0 0 0 0 0-0.2-0.1-0.1v0.1c0.1-0.1 0.1 0 0.1 0.1l0.1-0.1q0 0.2-0.1 0.2c0 0 0 0-0.1-0.1q-0.1 0-0.2 0 0 0.1 0 0.1c0 0.2 0 0-0.1 0 0 0.2 0 0.2 0 0 0 0-0.1-0.1-0.1-0.1 0 0.2-0.1 0-0.1 0.1q0 0 0 0 0 0 0 0l-0.1-0.1v-0.3l0.2 0.1q0 0 0.1-0.1h-0.3q0 0 0 0l-0.2-1.5c0 0 0-0.1 0.1 0q0 0 0-0.1h-0.1q0 0 0-0.1 0.1 0 0.1 0c0 0.4 0.1 0.1 0.2 0.2 0 0 0 0 0.1 0q0 0 0 0 0 0 0 0 0-0.1 0-0.1 0.1 0 0.1 0c0.2 0 0.3-0.1 0.4-0.1 0 0 0.1 0 0.1 0 0.1-0.1 0.3 0 0.4 0.1q0-0.1 0-0.1c0-0.1 0-0.1 0-0.1 0 0 0.1 0 0.1 0 0 0.1 0.1 0.2 0.1 0 0 0 0.1 0.1 0.1 0.1q0-0.2 0 0c0.1-0.1 0.1 0.1 0.2 0.2 0 0.1 0 0.1 0.1 0.1v0.1q-0.1 0-0.1 0 0 0 0 0.1 0 0 0 0 0 0.1 0.1 0.1-0.1 0-0.1 0c-0.1 0.1 0 0.2 0 0.3q0.1 0 0.1 0c0.1 0 0.1 0 0.2 0.1zm-1.7 0.4q-0.1 0-0.2-0.1c0 0 0 0.1 0 0.1q0 0 0.1 0.1zm0.1 0.4h-0.1q0 0 0 0.1c0 0.1 0 0.1 0 0 0-0.1 0.1 0.1 0.1 0q0 0 0-0.1zm0.2-0.3c0 0 0-0.1 0-0.1 0 0 0 0.1-0.1 0.1q0 0 0-0.1c0 0 0 0 0 0q0-0.1-0.1-0.1 0 0.1 0 0.1c0 0.1 0 0.1 0 0.1 0 0.1-0.1 0.1 0 0.3q0 0 0.1 0 0-0.1 0-0.1 0 0 0 0l-0.1-0.1h0.1zm0.1-0.2c0 0-0.1-0.1-0.2-0.1-0.1 0.1 0 0.1 0.1 0.1 0 0.1 0 0 0 0.1z"/><path class="a" d="m22.6 5.7q0 0 0 0.1l0.1 0.2q0 0 0-0.1z"/><path class="a" d="m5.5 8.8z"/><path fill-rule="evenodd" class="a" d="m4.8 11.5h-0.4q0 0 0-0.1c0-0.2-0.2-0.3-0.1-0.5 0 0-0.1-0.1-0.1-0.1-0.1-0.1 0.1-0.1 0.1-0.1 0.1-0.1 0.1 0 0.2 0.1 0 0 0 0 0.1 0q0-0.1 0.1-0.1c-0.1 0-0.1 0-0.1 0 0-0.3-0.4-0.1-0.4-0.3 0 0-0.1 0-0.1 0-0.1 0-0.1-0.1-0.2-0.2q0 0 0 0 0 0 0 0v0.1 0.1q-0.1-0.1-0.1-0.1 0-0.4 0-0.8c0-0.1-0.1-0.2-0.1-0.3q0-0.1 0-0.2c0.1 0 0.1 0 0.1 0q0 0.1 0 0.1 0 0.1 0 0.1c0.1 0 0.1 0 0.1 0q0-0.1 0-0.3 0 0 0 0 0-0.1 0-0.1 0.1 0.1 0.1 0.1c0 0.2 0.1 0 0.1 0-0.1-0.2 0.6 0.1 0.3-0.3-0.1 0 0-0.2 0.1-0.3 0 0.1 0 0.1 0 0.1q0.1 0 0.2 0 0 0 0 0-0.1 0-0.1 0 0 0-0.1 0v-0.1c0.1 0 0.2-0.1 0.3-0.1q0.3 0.1 0.5 0c0.1-0.1 0.2 0 0.2 0q-0.1 0.2 0 0.2 0 0.1 0.1 0.2-0.1-0.1-0.1-0.1c0 0.1-0.1 0.1-0.1 0.1q0.1 0 0.2 0.1 0 0 0 0.1h-0.1v-0.1q0 0 0 0 0 0 0 0.1l0.1 0.1c0 0 0 0.1 0 0.1-0.1 0.2 0 0.3 0.1 0.5q0 0-0.1 0v-0.1q0 0 0 0 0 0 0 0-0.1 0-0.1 0 0 0 0 0.1c0 0 0.3 0 0 0.1l0.1 0.3 0.1-0.2 0.1 0.1q0 0.1 0 0.2c0.2 0.1 0 0.3 0 0.4 0 0 0.1 0 0.1 0q0 0.1 0 0.2c0.1 0.1 0.1 0 0.1 0q0 0 0 0l0.1 0.1q-0.1 0-0.1 0 0 0-0.1 0 0.1 0.1 0.1 0.1c0 0 0.1 0.1 0.1 0.1 0 0 0.1 0.1-0.1 0.2q0 0 0 0 0 0 0 0h0.2q-0.1 0.1-0.2 0.1c0 0-0.1-0.1-0.1-0.1q-0.1 0-0.2 0.1c0 0.1 0 0.1 0 0.1q-0.1 0.1-0.1 0.1h-0.6c0.1 0 0.1 0 0.1 0v-0.1h-0.1c0 0.1-0.1 0.1-0.2 0.2zm-0.1-2q0-0.1 0-0.2-0.1 0-0.2-0.1 0 0.1 0 0.1 0.1 0.1 0.2 0.2zm0.2 0.5q0 0 0 0l-0.1-0.4q-0.1 0-0.1-0.1v0.2c0.1 0-0.2 0.1 0 0.1 0.1 0.1 0.2 0.1 0.2 0.2zm0 1.2c0.1 0 0.1-0.1 0.1-0.2 0-0.1-0.2 0.1-0.1 0l-0.1 0.2q0 0 0.1 0z"/><path class="a" d="m4.3 11.5c-0.1-0.1 0-0.2-0.1-0.3q0 0 0 0 0 0 0 0c-0.1-0.1-0.1 0.1-0.1 0.1h-0.1q0.1 0.1 0.2 0.1c0.1 0 0 0-0.1 0v0.1h0.2q0 0 0 0z"/><path class="a" d="m4.1 11.1c0.1-0.2 0-0.3-0.2-0.1 0.1 0 0.2 0 0.2 0.1q0 0 0 0z"/><path class="a" d="m3.9 11z"/><path class="a" d="m3.8 11h0.1l-0.1-0.1z"/><path class="a" d="m4.1 10.7q0-0.1-0.1-0.1 0 0.1-0.1 0.2c0.1 0 0.1 0.1 0.1 0.1 0.1-0.1 0.1-0.2 0.1-0.2z"/><path class="a" d="m5.9 11.3q0 0.1 0 0.1z"/><path fill-rule="evenodd" class="b" d="m5.1 16.9c0-0.1 0.1-0.1 0.1-0.1 0-0.2 0.1-0.1 0.1-0.1l-0.1-0.5q0 0 0-0.1 0 0.1 0 0.1c-0.2 0-0.1-0.2-0.3-0.1 0 0 0 0 0 0l0.1-0.4q0 0 0 0.1c0 0 0 0 0.1 0 0.1 0 0.1-0.2 0.2-0.1v-0.1q0 0-0.1 0 0 0 0 0l-0.1-0.2 0.1 0.1h0.1v-0.1q0 0 0 0.1-0.1 0-0.1-0.1c-0.1 0 0.2-0.1 0-0.2h0.3q0 0.1-0.1 0.1c-0.1 0.2 0.2 0.3 0.2 0.5q0 0 0 0 0 0-0.1 0h-0.1q0 0 0 0c0.1 0 0 0.2 0.2 0.1 0 0 0.1 0 0.1 0q0 0.1 0 0.2l-0.1-0.1c0 0.1 0.1 0.2 0 0.3 0.2 0.1 0 0.2 0 0.4 0.1 0 0.1 0.1 0.1 0.2 0 0.1-0.1 0.1-0.2 0.1q0 0-0.1 0.1 0 0.1 0 0.2-0.1-0.1-0.2-0.1c-0.4 0 0.1-0.2 0-0.2-0.2 0 0-0.1-0.1-0.1zm0.3-0.4q0.1-0.1 0.1-0.2c0 0 0-0.1-0.1-0.1-0.1 0 0 0.1 0 0.1q0 0.1 0 0.2zm0 0.3l-0.2 0.2c0 0-0.1 0.1 0 0.1 0.1 0.1 0-0.1 0.1-0.1 0.2 0 0.3-0.1 0.1-0.2z"/><path class="a" d="m12.7 26.3z"/><path class="a" d="m5.4 18.8z"/><path class="a" d="m19.2 23.9z"/><path fill-rule="evenodd" class="a" d="m19.8 11.8h0.3l-0.2 0.1q0 0.1 0 0.1h0.1q0.1-0.1 0.2-0.1c0.1 0 0.1 0 0.1 0.1-0.3 0.1 0.2 0 0.1 0.1-0.1 0.1 0.1 0.3-0.1 0.4-0.1 0-0.3 0.1-0.1 0.2q-0.1 0-0.2 0c-0.1 0.1 0.1 0.1 0 0.1-0.1 0.1 0.1 0.2 0.1 0.3q0 0 0 0.1 0 0-0.1 0c0.2 0 0.2 0.2 0.2 0.3 0 0.1-0.1 0.2-0.2 0.3q0 0 0 0c0 0.1 0.1 0.2 0.1 0.2 0.1-0.1 0.1 0 0.2 0.1 0 0.1 0.1 0.2-0.1 0.3-0.1 0.1-0.1 0.3 0 0.5 0 0-0.1 0-0.1 0.1-0.1 0.1-0.2 0.2-0.3 0.1-0.1 0-0.1 0-0.1 0h0.1c-0.2 0.2 0 0.2 0.1 0.1 0.3 0 0 0.4 0.2 0.3q0 0.1 0 0.1-0.1 0.1 0 0.1 0 0 0 0.1 0 0 0 0h-0.1q0 0 0 0v0.2c0 0.1 0.3-0.1 0.2 0.1l-0.1 0.2q0 0 0 0c-0.3 0-0.2 0.2-0.3 0.3q-0.1 0-0.2 0l0.3 0.1c0-0.1 0-0.1 0.1 0 0 0 0.1 0.3 0 0.3-0.2 0.1 0 0.1 0 0.1q-0.1 0.1-0.1 0.3c-0.1 0-0.1 0.1 0 0.1 0.4 0.1 0.1 0.2 0 0.4-0.1 0.1-0.1 0.2-0.1 0.3 0.1 0.1-0.1 0.1-0.1 0.2l0.1 0.1c0 0-0.1 0 0 0 0.1 0 0 0.2 0.1 0.1 0 0.1 0.1 0.2 0 0.1-0.1 0.1-0.2 0.2-0.2 0.3 0 0.2 0.1 0.3 0.2 0.5q0 0 0 0.1-0.1-0.1-0.2-0.1 0 0-0.1 0 0 0 0.1 0c0.1 0.1-0.3 0.1-0.1 0.2q0.1 0.1 0.2 0.1 0 0 0-0.1c0 0-0.1-0.1 0-0.1 0.1 0 0.1 0.1 0.1 0.1 0 0.1 0 0.3-0.1 0.4-0.2 0.1 0 0.3-0.2 0.4q0 0 0 0 0.1 0 0.1 0c0.1 0 0.1-0.2 0.2-0.1q0 0 0 0.1-0.1 0-0.1 0c0 0.1-0.1 0.1 0 0.3 0.1 0.1-0.3 0.2-0.2 0.4q0.1 0.1-0.1 0.2c0 0.1 0 0.2 0.1 0.3q0 0.1 0.1 0.2c0 0-0.1 0-0.2 0.1 0.1 0 0 0.1 0 0.1 0.1 0.2 0 0.3 0.1 0.5 0.1 0.2 0 0.4 0 0.6 0 0.2-0.1-0.1-0.1 0 0 0.2 0.1 0.4 0.1 0.6q0 0 0 0 0 0 0 0-0.1 0-0.1 0 0-0.1 0-0.1c-0.1 0-0.2 0.1-0.2 0.1 0 0.1 0 0.1-0.1 0.1 0-0.1 0.1-0.2 0-0.2-0.2-0.1 0.1-0.3 0-0.4q0 0 0 0 0 0 0.1 0-0.1 0-0.1 0.1 0 0 0.1 0v-0.2q0 0 0 0c0-0.2-0.3 0-0.3-0.2 0 0.1-0.1 0.3 0 0.5 0 0.1-0.1 0.4 0.2 0.4 0 0.2 0.2 0 0.2 0.2 0 0.1 0 0.2-0.1 0.2 0 0 0 0.2 0 0.2 0.3 0.2-0.1 0.4 0.1 0.6-0.1 0 0 0.1-0.1 0.1-0.1 0-0.2 0.2-0.3 0.3-0.1 0.1-0.1 0.3 0 0.4 0 0-0.1 0.1-0.1 0.1q-0.2-0.1-0.3-0.1 0.1-0.1 0-0.1-0.1 0-0.1 0l-0.2-0.2q-0.1 0-0.1-0.1 0 0.1 0 0.1c0.2 0.1-0.1 0.2 0 0.2 0 0.2-0.2 0.1-0.2 0.1-0.1 0.1-0.3 0.1-0.4-0.1 0.1 0.1 0.1 0.1 0.1 0.2-0.1 0-0.1 0-0.2 0.1l0.1-0.1q0.1 0 0.1 0v0.1c-0.2 0 0 0.2-0.2 0.2q-0.1-0.1-0.1-0.1h0.1 0.1c-0.1-0.1-0.3-0.2-0.3-0.2-0.1 0-0.1 0-0.1 0v0.1q-0.1 0-0.1 0.1c0 0 0 0.1 0 0.1-0.1 0-0.1 0-0.1-0.1-0.1-0.3-0.2 0.1-0.3 0q0 0 0 0.1-0.1-0.1-0.1-0.1c0 0 0 0 0.1-0.1q0 0 0.1 0c0-0.1-0.1-0.1-0.2 0-0.1 0.1-0.2-0.1-0.3-0.1q-0.1 0-0.1 0v0.1q0.1 0 0.1 0l-0.2 0.1q-0.1 0-0.1 0c0 0 0 0 0 0q0 0 0.1 0-0.1 0.1-0.1 0.1c-0.1 0-0.2-0.1-0.2-0.2q0 0-0.1 0 0 0 0-0.1c0 0.1-0.1 0.2 0.1 0.2 0 0 0 0.1-0.1 0.1h-0.1q0 0 0.1-0.1 0 0 0 0l-0.1-0.2c0 0.1 0 0.1 0 0.1-0.2 0-0.2 0.2-0.4 0.1-0.1-0.1 0 0.1-0.1 0.1 0 0 0 0.1 0.1 0.1 0.1 0 0 0.1 0 0.1 0 0-0.1 0.1-0.1 0.1q0-0.1-0.1-0.1 0-0.2 0-0.3 0 0.1 0 0.2c-0.1 0.1-0.1 0.1-0.1 0 0-0.1-0.1-0.1-0.1-0.1q0 0 0.1 0c0 0 0-0.1 0-0.1q0 0-0.1-0.1 0 0 0 0 0 0.1-0.1 0.2c0-0.2-0.1 0-0.1-0.2 0 0-0.1 0-0.1 0q0 0 0 0 0 0 0 0c0 0.1 0.1 0.2 0 0.2-0.1 0-0.2-0.1-0.3-0.1 0 0-0.1 0-0.1 0 0 0-0.1 0.1 0 0.1q0 0 0 0.1c0 0-0.1 0-0.1-0.1-0.1 0-0.2 0-0.2 0 0.1 0.5-0.3 0.1-0.4 0.3q0 0 0 0 0 0 0-0.1 0-0.1 0.1-0.2 0 0 0 0c-0.1 0.2-0.4-0.1-0.4 0.3 0 0 0 0.1 0 0.1q-0.1 0-0.2 0c0 0 0-0.1 0.1-0.1 0.1 0 0.1-0.1 0-0.2q0-0.1 0-0.2v0.2q0 0.1 0 0.1-0.1 0-0.1 0c0-0.2 0-0.2-0.1-0.1-0.1 0.1-0.1 0-0.1-0.1v-0.2l0.2 0.1q0 0 0 0h0.1q-0.1 0-0.1-0.1v-0.2q0 0 0.1 0 0 0.1 0 0.1 0-0.1 0-0.1c-0.1 0-0.1 0-0.1 0-0.1 0-0.1 0.1-0.1 0.1-0.1 0 0-0.1-0.1-0.2 0 0 0 0.2 0 0.1-0.1-0.1 0-0.2-0.2-0.2-0.1 0-0.2 0.1-0.1 0.3q0 0 0.1 0.1 0 0 0-0.1 0.1 0 0 0l-0.1-0.1q0.1 0 0.1 0 0.1 0 0.1 0.1c0 0.1-0.1 0.3 0.1 0.3 0 0.1-0.1 0-0.1 0-0.3-0.1-0.2 0.2-0.2 0.2v0.1c-0.1-0.1-0.2-0.1-0.3-0.1-0.1-0.1-0.4 0.1-0.3-0.3-0.1 0.4-0.1-0.1-0.2 0q0 0 0 0c0 0.1 0 0.1 0 0.1 0.1 0.1-0.1 0.1 0 0.2-0.1 0-0.2 0-0.2-0.1-0.1 0-0.3 0-0.4 0-0.1 0 0.1 0.1 0 0.2-0.2 0.2-0.2-0.2-0.3-0.1 0-0.2-0.1 0-0.1-0.1q0 0-0.1 0.1c-0.1 0 0-0.2-0.2-0.1-0.1 0-0.2 0-0.3 0-0.2 0 0 0.1 0 0.1q0 0-0.1 0.1c0-0.1-0.1 0-0.2-0.1q-0.2-0.2-0.3 0 0 0.1 0 0.1 0 0-0.1-0.1 0.1 0 0.1 0 0 0 0 0c-0.1-0.1-0.2-0.3-0.2-0.3-0.1 0 0-0.2-0.1-0.1-0.1 0.1 0 0.2 0 0.4-0.1 0-0.2-0.1-0.2 0q0 0 0 0-0.1-0.1-0.1-0.1c-0.2 0.1-0.3 0-0.3-0.1-0.1 0.2-0.3 0-0.4 0.1q0 0 0 0c-0.2-0.2-0.7 0-1.1 0q-0.2-0.1-0.5-0.1c-0.1 0-0.2 0-0.4 0 0 0 0 0.1-0.1 0.1 0-0.1-0.2-0.1-0.1-0.2 0 0 0-0.1 0-0.1q0 0-0.1 0v0.1c0-0.1-0.1-0.2-0.1-0.2 0.1 0 0.1-0.1 0.2 0 0.2 0.1 0.2 0 0.1-0.1-0.2 0.1-0.1-0.1-0.1-0.1q-0.3-0.3-0.4-0.7-0.1-0.4-0.1-0.7c-0.3 0-0.1-0.2-0.2-0.2v-0.1c0.3 0 0.1-0.2 0.1-0.3 0 0 0 0 0 0-0.1 0-0.1 0-0.1 0q0 0 0 0.1l-0.1-0.1 0.1-0.1 0.2-0.1h-0.2q0 0 0 0c0.1-0.1 0.1-0.1 0-0.2 0-0.1 0-0.2 0-0.2l-0.2-0.5q0-0.1-0.1-0.1v0.1q-0.1 0-0.1 0c-0.1-0.1-0.1-0.2 0-0.3 0 0.1 0 0.1 0.1 0.1 0.1 0 0.1 0.1 0.1 0.2q0.1 0 0.1 0 0 0 0 0c0.2-0.1 0-0.1 0-0.2 0 0 0.2-0.2 0-0.1-0.1 0-0.1-0.1-0.1-0.1 0.3-0.2 0-0.6 0.1-0.8 0.1-0.1-0.1-0.3-0.2-0.4-0.1 0.1-0.1 0-0.1-0.1 0-0.1 0.2 0.1 0.2 0-0.1-0.2-0.3-0.2-0.4 0q0 0-0.1 0 0 0 0 0l0.1-0.1q0 0-0.1 0l-0.1 0.1 0.2-0.2c0-0.1-0.1 0-0.1-0.1q0 0 0 0c-0.1 0.1 0-0.2-0.1-0.1q0 0.1 0 0.1l-0.1-0.1c0.3 0 0-0.1 0.1-0.2 0.1-0.1-0.1-0.3-0.1-0.4 0.1-0.2-0.1-0.4 0-0.5q0-0.1 0.1-0.2c0.2-0.1-0.1-0.1-0.1-0.2-0.1-0.2 0.1 0 0.1-0.1-0.1-0.2 0 0.1 0 0q0-0.1 0-0.1 0.1-0.1 0.1-0.1c0 0-0.1-0.1-0.1-0.1q-0.1 0.1-0.1 0.1c0-0.1-0.1-0.3 0-0.4 0.1-0.2 0.2-0.3 0-0.3 0.1-0.1-0.2-0.2 0-0.4 0 0-0.1-0.3-0.1-0.4q0 0 0-0.1c0 0.1 0.2-0.1 0.1 0.1q0 0 0.1 0 0 0 0 0-0.1-0.1-0.1-0.2c0 0-0.1 0-0.1 0v-0.2q0-0.1 0-0.2 0-0.3-0.1-0.6 0-0.3 0.1-0.6v-0.4c-0.1-0.1 0-0.2-0.1-0.3-0.1-0.3 0-0.6 0-0.8 0-0.2 0-0.3 0.1-0.5 0.1-0.1-0.2-0.1-0.1-0.2 0.2-0.2-0.1-0.3 0-0.5 0.1-0.1 0.2-0.2 0.2-0.2-0.1-0.1 0-0.2 0-0.3 0-0.1 0-0.2 0-0.2 0.1-0.1 0.2-0.2 0.3-0.3q0 0 0 0c-0.3-0.1-0.2-0.2-0.1-0.3h0.4q0 0 0 0.2c0.1 0.1-0.1 0.3 0 0.5 0 0 0 0 0 0 0 0.1 0.1 0.2 0.1 0.2 0.1 0 0-0.1 0-0.2 0 0 0-0.1 0.1 0q0.1 0 0.2 0c-0.1-0.1 0-0.3-0.2-0.4q0-0.1 0-0.1 0 0 0.1 0 0-0.1 0.1-0.1c0 0-0.1-0.1-0.1-0.1-0.2 0-0.1 0 0 0l0.5-0.1c0 0 0.2 0 0.1 0q0 0 0.1 0 0.1 0 0.1 0c0.1 0.1 0 0.2 0.2 0.1q0 0 0.1 0 0 0 0 0.1 0 0-0.1 0c-0.1 0 0.1 0.1 0 0.1 0 0-0.1 0-0.2 0 0 0.1 0.1 0.1 0.2 0.1 0.1 0 0.1 0 0.1 0.2 0 0 0.1 0.1 0.1 0.1 0 0.1 0.1 0.2-0.1 0.3q0 0 0 0c0 0.1 0.3 0 0.1 0.1 0 0 0 0.1 0.1 0.1 0.2 0.2-0.2 0.1-0.1 0.2-0.2 0-0.2 0-0.1 0 0 0.1 0 0.1 0 0.1q0 0.1-0.1 0.1 0-0.1 0-0.1 0 0 0 0c0 0-0.1 0-0.1 0.1q-0.1 0.3-0.1 0.6c0 0 0.1 0 0.1-0.1q0 0 0 0c0-0.1-0.1-0.2 0.1-0.2 0 0 0 0.2 0.1 0.2 0.3 0.1-0.2 0.3 0.1 0.4q0.1 0 0.1 0 0 0 0-0.1c-0.1-0.1-0.1-0.1 0.1-0.2 0 0.1-0.1 0.3 0 0.4 0 0.1-0.2-0.1-0.2 0 0.1 0.1 0.2 0.1 0.2 0.2 0 0 0 0.1 0 0.1h-0.1q0 0-0.1 0c0.1 0 0.1 0.1 0.1 0.1-0.1 0.2 0.1 0.3 0.2 0.4 0.1 0.2 0 0.8-0.2 1-0.2 0.1 0.1 0 0 0-0.1 0.2 0.1 0.2 0.1 0.2 0.3 0 0.1 0.2 0.1 0.2 0.1 0.1 0.1 0.2 0.1 0.3q0 0.1 0 0.1c-0.3 0.1 0.2 0.2-0.1 0.2 0.3 0.1-0.2 0.3 0.1 0.3-0.2 0 0 0.2-0.2 0.3q0-0.1 0-0.1 0 0-0.1 0 0 0.1-0.1 0.1h0.1q0 0 0 0c0 0.1 0.1 0.2 0 0.3 0 0.1-0.1 0.1-0.2 0q0 0 0 0v0.2h0.2c0 0 0.1-0.1 0.1 0 0.1 0 0.3 0.1 0 0.2q0 0 0.1 0.1v0.1q0-0.1-0.1-0.1c0 0-0.1 0-0.1 0q0 0.1-0.1 0.2l0.1-0.1 0.1-0.1q0 0 0 0.1c-0.1 0.1-0.1 0.2 0 0.3v0.1q0 0 0.1 0l0.2 0.2q0.1 0.1 0.1 0.1c-0.1 0 0 0.2-0.1 0.2-0.1 0-0.1 0-0.2 0h0.2c0 0 0 0 0 0l0.1 0.4q-0.1 0-0.2 0 0 0-0.1 0 0 0 0 0c0 0 0.1 0 0.1 0 0 0.1-0.2 0.1-0.1 0.2 0.1 0.1 0.2 0.2 0.3 0.1q0.1 0 0.1 0c0 0.1 0.1 0.3 0.1 0.3-0.1 0.1 0 0.1 0 0.2q-0.1 0.1-0.1 0.1h-0.1q0.1-0.1 0.1-0.1 0 0 0 0l-0.1-0.1q0 0 0 0 0 0.1 0 0.1 0 0 0 0-0.1-0.1-0.1-0.1 0.1 0 0.1-0.1h-0.2v0.1c0 0.1 0 0.1 0 0.1-0.2 0.1-0.1 0-0.1 0v-0.1q-0.1 0.1-0.1 0.2 0.1 0.2 0.2 0.4c0 0 0 0 0 0q0 0 0.1 0c0-0.2 0.2 0 0.2-0.1v0.1h-0.1q0 0 0 0 0 0 0 0 0.1 0 0.1 0 0.1 0 0.1 0 0 0 0 0.1l-0.2 0.4c0.4 0 0 0.2 0 0.2 0 0.2 0.1 0.1 0.1 0.1 0.2 0.1 0.1 0.3 0.2 0.4 0 0.2 0.1 0.3 0.1 0.5q0 0.1 0 0.1c-0.1 0-0.1 0-0.1 0q0-0.1 0-0.1h-0.1q0.1 0.1 0.2 0.2c0 0-0.1 0.1-0.1 0.1-0.1 0.2 0.2 0.1 0.1 0.2q0 0.1 0 0.1 0 0-0.1 0 0-0.1 0-0.1c-0.1 0-0.1 0-0.1 0q0 0.1 0.1 0.1 0.1 0 0.1 0.1c0 0 0 0 0 0.1-0.1 0.1 0-0.1-0.1-0.1 0 0.1-0.1 0.1-0.1 0.1 0 0 0.1 0.1 0.1 0.1 0 0.1-0.1 0.1-0.1 0.2q-0.1 0-0.2 0 0 0 0.1 0v0.2l-0.1-0.1q0 0 0 0v0.2q0 0 0.1 0c-0.1-0.1 0.3 0.1 0.1-0.1 0 0 0-0.1 0.1-0.1 0 0 0 0.1 0.1 0.1 0.1 0 0-0.3 0.2-0.2 0.1 0.1 0 0.2-0.2 0.2q0 0 0 0 0.1 0.1 0.1 0.1h0.1c-0.1 0-0.1 0-0.1 0q-0.1 0-0.1 0h0.1 0.1q0 0 0 0c-0.1 0-0.2 0.1 0 0q0.1 0 0.1 0-0.1 0-0.1 0.1 0 0 0 0 0 0 0 0c-0.1 0-0.2 0-0.3 0.1 0 0.1 0 0 0 0h0.1c0.2-0.1 0.1 0 0.1-0.1 0.1 0 0.1 0 0.1-0.1q0.1 0 0.1 0 0 0-0.1 0.1 0 0 0 0 0 0 0 0c0.1-0.1 0.1-0.1 0 0.1q0 0 0 0 0 0-0.1 0.1 0 0 0 0c0 0 0 0 0 0l0.1-0.1q0 0 0 0.1c-0.1 0-0.1 0-0.1 0.1h-0.1q0 0.1 0.1 0.1c0-0.1 0-0.2 0.1-0.2 0-0.1 0.1-0.3 0.1-0.3 0.1-0.1 0 0.1 0 0.1v0.1c0.1-0.3 0.1 0 0.1-0.2 0 0.1 0.1-0.1 0 0.1 0 0 0.1 0 0.2 0h0.5c0.1 0 0.3 0 0.4 0 0.4-0.1 0.7-0.2 1 0 0.1 0.1 0.3-0.1 0.5 0 0.1 0 0.2-0.2 0.3 0 0.2 0.4 0.3-0.1 0.4 0 0.2 0 0.3-0.1 0.5 0 0.1 0 0.3 0 0.4 0.2q0 0 0 0 0 0 0 0v-0.1q0 0 0.1 0c0 0 0 0.1 0 0.1 0.1 0 0.1-0.1 0.1-0.1-0.1-0.3 0.1 0 0.1-0.1l0.5-0.1c0 0-0.1 0.1 0 0.2 0.2 0 0.3-0.1 0.5-0.1 0.1 0 0.2-0.1 0.3 0 0.1-0.2 0 0.2 0.1 0.1q0.1 0 0.1-0.1c0 0-0.2-0.1-0.1-0.1 0.2 0 0.4 0 0.5 0.1q0.1 0.1 0.1 0.1v-0.1-0.1 0.1c0.1 0.1 0 0.2 0.1 0.1 0.1 0 0.1-0.1 0.1-0.1 0-0.1 0.1-0.1 0.2-0.1l-0.1 0.2q0 0-0.1 0 0 0.1 0 0.1h0.3q0 0 0.1 0l-0.1-0.1c-0.1 0.2-0.1 0.1-0.2 0 0.1-0.1 0.2-0.2 0.2-0.1 0 0.1 0.1 0.1 0.1 0.1 0.2 0 0.1-0.1 0.1-0.2 0.2-0.1 0.2 0.1 0.3 0.1 0 0 0 0.1 0 0.1 0-0.1 0.1-0.1 0.1-0.1 0.1-0.2 0.1-0.3 0.3-0.1 0 0 0.2-0.1 0.3-0.1 0.2 0 0.3-0.1 0.4 0.1q0.1 0.1 0.1 0.1c0-0.3 0.1-0.1 0.2-0.1 0 0 0.1-0.1 0.2-0.1h0.2q0.1 0 0.1 0 0 0 0.1-0.1c0 0 0.1 0.2 0 0q0 0.1 0 0.1 0 0 0 0 0.1 0 0.1 0c0.1 0-0.1-0.1-0.1-0.1 0.1 0 0.1 0 0.1-0.1v-0.4-0.4c0.1 0 0.1 0 0.1-0.1-0.2-0.1 0.2-0.3 0-0.4 0-0.1 0-0.2 0.1-0.2 0.1-0.1 0-0.2 0-0.3-0.1-0.2 0-0.5 0.1-0.7q0-0.2 0-0.4 0 0 0 0l0.2-0.1c0-0.1-0.1 0-0.2 0l0.1-0.1c0 0-0.1 0-0.1-0.1 0-0.1 0-0.1 0-0.2 0.1-0.2 0-0.3 0.1-0.5 0.1-0.3 0-0.5 0.1-0.8 0-0.3 0-0.5 0-0.7 0.1-0.2 0-0.3 0.1-0.4 0-0.1 0.1-0.2 0.1-0.3-0.1-0.1 0-0.1 0.1-0.2 0.1-0.3-0.2-0.5 0-0.7 0-0.1-0.1-0.2-0.1-0.3-0.1 0 0.1 0.1 0.1-0.1-0.1-0.2-0.1-0.5 0-0.7 0.1-0.1 0.1-0.2 0-0.2 0-0.1 0.1-0.1 0.1-0.1-0.1-0.1-0.1-0.3-0.1-0.4q-0.1-0.3 0-0.6c0-0.4 0.1-0.9 0-1.3 0.2 0-0.1-0.1 0.1-0.1 0 0 0-0.1 0-0.1q-0.1 0-0.1 0 0 0 0 0l0.1-0.3q0 0 0 0l-0.2-0.4c0 0 0 0 0 0 0-0.1 0-0.2 0-0.2q0.1 0 0.1 0zm-13.4 4.9q0 0.1 0 0.2 0 0 0.1 0c0 0 0.2-0.1 0.2-0.2 0-0.2-0.2 0.1-0.3 0zm-0.8-2.2l0.1 0.1c-0.2 0-0.1 0.2-0.1 0.2v0.1c0.1-0.1 0.1-0.2 0.1-0.3q0 0 0 0 0 0-0.1-0.1zm-0.6-1.4q-0.1 0-0.2 0.1 0.1 0 0.2 0.1 0-0.1 0.1-0.2c0 0-0.1 0-0.1 0zm0.2-0.5c0 0 0.1 0.1 0.2 0.1 0.1-0.2-0.2-0.3 0-0.4l-0.1-0.1c-0.2 0.1 0.1 0.3-0.1 0.4zm-0.4 0c0 0 0 0 0 0q0-0.1 0-0.1l-0.2 0.1 0.1 0.1q0-0.1 0-0.1c0.1-0.1 0 0.1 0.1 0zm0.2 0.3c0 0 0 0 0.1 0.1q0-0.2-0.1-0.4 0 0 0 0-0.1 0.1 0 0.3zm-0.5 1q0-0.1 0-0.2l-0.1 0.1q0 0 0-0.1 0 0 0 0c0.1-0.2 0.2-0.3 0.1-0.5 0.1-0.1 0.1-0.2-0.1-0.3q0 0.1 0.1 0.2 0 0 0 0.1c0 0 0 0.1-0.1 0q0 0.3-0.1 0.5c0 0.1 0.1 0.1 0 0.1q0 0.1 0.1 0.1c0 0 0.1 0 0.1 0zm0 1.1v-0.3c0 0 0 0 0 0q-0.1 0-0.1 0-0.1 0-0.1 0.1 0 0 0 0c0.3-0.2 0.1 0.1 0.2 0.1zm0.6 0h0.2c0 0 0 0 0 0q0 0 0-0.1 0 0 0 0 0 0 0 0.1c0.1 0.1 0.1 0.2-0.1 0.1q-0.1 0-0.1 0 0 0 0 0 0.1 0.1 0.1 0.1c0.1 0 0.3 0 0.2-0.1 0-0.1 0-0.2 0-0.2 0-0.1 0.1-0.2-0.1-0.2 0.2-0.2-0.1-0.4 0-0.6 0 0 0-0.1 0-0.1 0-0.1-0.1-0.1-0.1 0q-0.1 0-0.1 0 0-0.1 0-0.1 0-0.1 0-0.2 0 0 0 0-0.1 0.1-0.1 0.1 0 0.1 0 0.2 0 0 0 0 0-0.1-0.1-0.1c0 0.1 0.1-0.1 0 0q-0.1-0.1-0.2-0.1 0 0.1 0 0.1 0 0.1 0 0.2 0-0.1-0.1-0.1 0-0.1 0-0.1c0 0-0.1 0-0.1 0.1q0.1 0.1 0.2 0.1c0.2 0.2 0.1-0.1 0.2-0.1-0.1 0.2 0.2 0.1 0.3 0.3 0 0.1 0 0.2 0 0.4q0 0 0 0 0 0-0.1 0 0 0 0 0c0.1-0.2-0.2-0.2-0.1-0.4q0 0-0.1 0 0 0.1 0 0.1c0.1 0.1 0 0.1 0 0.1-0.1-0.1-0.1-0.2-0.2 0 0 0-0.1 0-0.1 0q-0.1 0-0.1 0c0 0 0 0.1 0 0.1q0.2-0.1 0.4-0.1c-0.1 0 0.1 0 0 0.1 0 0 0.1 0.1 0.1 0.2 0 0 0 0 0.1 0 0.1 0-0.1 0.2 0.1 0.1zm-0.4 0.4q0 0 0-0.1v-0.1q-0.1 0-0.2 0 0 0 0 0l0.1 0.2q0.1 0 0.1 0zm0-0.2q0 0 0 0 0 0 0 0 0 0 0 0zm0.3-0.1c-0.1 0-0.1 0.1-0.1 0 0 0-0.1 0-0.2 0 0 0 0.1 0 0 0.1 0.1 0 0.2 0.1 0.3-0.1zm-0.2 0.8l-0.1-0.1-0.1-0.1c0.2-0.1-0.1-0.1 0-0.2-0.1 0-0.1 0.1-0.1 0.1-0.1 0-0.1 0.2-0.2 0.1q0 0 0-0.1-0.1 0-0.1 0 0 0.1 0 0.1c0.1 0.1 0.1 0 0.2 0q0.1 0 0.1 0.1c0 0.1 0.1 0.2 0.2 0.2 0.1 0.1-0.1-0.1 0.1-0.1zm-0.1 0.4c0.1-0.1-0.3 0-0.1-0.1h-0.3c0.1 0 0.1 0.1 0.3 0.2 0 0 0 0 0.1-0.1zm0.4 0.7c0 0-0.1 0.1 0 0.1 0.1 0-0.3 0.2 0.1 0.2q0 0 0.1 0 0-0.1 0.1-0.1 0-0.1 0.1-0.1c0 0 0.1-0.1 0.1-0.1 0-0.1 0-0.2 0-0.3-0.1-0.1 0.1-0.3-0.1-0.3 0.1-0.1 0.1-0.2 0.1-0.3l0.1 0.1q0-0.1-0.1-0.2c0 0 0 0-0.1 0-0.1 0.1 0-0.1-0.1-0.1q0 0 0 0h0.1q0 0 0 0 0.1 0 0.1 0c-0.1-0.2-0.3-0.3-0.2-0.5q0-0.1 0.1-0.1h-0.4c0.2 0.1 0 0.2 0 0.2q0.1 0 0.1 0 0 0 0.1 0v0.1h-0.2v-0.1 0.2q0 0 0.1 0 0 0 0.1 0c-0.2 0-0.2 0.1-0.3 0.2 0 0-0.1 0-0.1-0.1q0 0 0 0l-0.1 0.4c0 0 0.1 0 0.1 0 0.1-0.1 0.1 0.1 0.2 0.1q0-0.1 0-0.1 0.1 0 0.1 0.1v0.5c0 0-0.1-0.1-0.1 0 0 0.1 0 0.1 0 0.2zm-0.5 1.1q0.1 0 0.1 0c0.2-0.1 0-0.1 0-0.1 0.3-0.1-0.1-0.4 0.1-0.5q0 0 0 0-0.1-0.1-0.1-0.2c0 0 0.1 0 0.1 0 0.1 0 0-0.2 0.2-0.2q0 0 0 0-0.1-0.1-0.1-0.1c-0.1 0.2-0.1 0.1-0.2 0 0 0-0.1-0.1-0.1 0q0 0.1-0.1 0.2c0 0.1-0.1 0.2-0.1 0.2 0.1 0.1 0 0.2 0 0.2 0.2 0 0.3 0.2 0.3 0.4 0 0-0.1 0-0.1-0.1q0 0 0-0.1 0 0.1 0 0.1 0 0.1 0.1 0.2c0 0-0.1 0-0.1 0zm1 0.1c0-0.1 0-0.2 0-0.2 0-0.1-0.1-0.1-0.1 0 0 0.1-0.2 0-0.1 0.1 0 0.1 0.1 0 0.2 0.1zm0.2 0.8l-0.1-0.1c-0.1 0 0-0.2-0.2-0.2-0.1 0 0.1-0.1-0.1-0.1 0 0-0.1 0.2 0 0.3-0.2 0 0-0.3-0.2-0.2q0 0 0 0c0.3-0.1 0.3-0.3 0.4-0.5q0 0-0.1 0 0 0 0 0c-0.1 0.1-0.1 0.2-0.2 0.3-0.1 0.1-0.2 0.1-0.4 0.2 0 0 0-0.1 0-0.1 0-0.1 0.1-0.1 0-0.2q-0.1 0.1-0.1 0.2 0 0.1 0 0.2c-0.1 0-0.1 0.2-0.2 0.2 0 0.1 0.1 0 0.2 0 0 0 0.1 0.1 0.1 0 0 0-0.1-0.1-0.1-0.1 0 0 0.2 0 0.1-0.1 0.1 0 0.3-0.2 0.4 0.1 0 0-0.1 0.1 0 0.1 0 0 0.1-0.1 0.1-0.1l0.1-0.1q0 0.1-0.1 0.1c0 0 0 0.1 0 0.1zm-0.6 0.4q0.1 0.1 0.1 0.3c0.1 0.2 0.2 0.3 0.1 0.5 0 0 0.1 0.1 0.1 0.1q0.1 0 0.1 0c0-0.1 0-0.3 0-0.4 0 0 0.1 0 0.1-0.1 0 0 0 0 0 0-0.1-0.1-0.1-0.1-0.2-0.2q0 0 0.1 0 0 0 0 0 0.1 0 0.1 0.1 0-0.1 0-0.1 0 0-0.1 0-0.1-0.1-0.1-0.2c0 0 0 0 0.1-0.1q0 0 0 0 0 0.1 0 0.1c0 0-0.1 0-0.1 0.1 0.1 0 0.3-0.1 0.4-0.1 0 0 0-0.1 0-0.1-0.3-0.1-0.5 0.1-0.7 0.1zm-0.6 0.8c0.2-0.1 0.3 0 0.3-0.2 0-0.1 0.2-0.2 0.2-0.2 0-0.2-0.1 0-0.2 0q0-0.1 0.1-0.2c0 0 0.1 0 0.1 0 0-0.1-0.3 0-0.2-0.2q-0.1 0-0.1 0.1c-0.1 0.1-0.1 0.2 0.1 0.3-0.1 0.1-0.2 0.1-0.1 0.2 0 0 0 0.1 0 0.1-0.2 0-0.1-0.2-0.2-0.2 0 0 0-0.1 0-0.1q-0.1 0.1-0.1 0.2c0.1 0.1 0.1 0.2 0.1 0.2zm0.4 0.6q0 0 0 0 0.1 0 0-0.1c-0.1-0.1 0-0.2 0-0.3 0.2-0.1-0.1-0.1 0-0.2l-0.2-0.1 0.1 0.2c0 0.1-0.1 0.2-0.2 0.3 0 0-0.1-0.1-0.1-0.1q0 0.1 0 0.1c0.1 0.1 0.2-0.1 0.2 0 0 0.1 0 0.2 0.2 0.2zm0.8 1q0 0.1 0.1 0.1v-0.1l-0.1-0.2c0 0 0.1 0 0.1 0q0 0.1 0 0.1 0 0 0 0.1 0.1 0 0.1 0c0 0 0-0.1 0-0.1 0-0.1 0.1-0.2-0.1-0.3 0 0 0.1-0.1 0.1-0.2q0.1 0 0.1 0h0.1l-0.1-0.1c0 0.1-0.2-0.1-0.2 0.1-0.1-0.1-0.1 0.1-0.1 0.1 0-0.2 0.1-0.3-0.1-0.3q-0.1-0.1-0.1-0.2 0 0.1-0.1 0.1c0 0.2 0 0.2 0.1 0.3 0.1 0.2 0.1 0.3 0 0.6 0 0 0.2-0.1 0.2 0zm0.1 0.2q0 0 0 0-0.1-0.1-0.1-0.2l-0.2 0.2zm1.2 0.3q0.1-0.1 0.1-0.2h-0.1q0 0 0 0 0 0 0-0.1 0.1-0.1 0.1-0.2 0 0-0.1 0c0 0 0 0 0 0 0.1 0.1 0 0.2-0.1 0.2-0.1 0.1-0.1 0.1-0.1 0.2 0 0 0.1 0 0.2 0.1zm-1.1 0.5c0.1-0.2 0-0.2-0.1-0.2 0 0 0-0.1 0-0.1q0 0 0 0c-0.2 0.1 0 0.1 0 0.2q0 0.1 0.1 0.1zm0.3 1.5q0 0 0 0l-0.1 0.1 0.1 0.1q0.1-0.2 0.1-0.4h-0.1v-0.1q0-0.1 0.1-0.2c0 0-0.1 0-0.2 0-0.3 0.1-0.1-0.1-0.1-0.2q0.1 0 0.1 0c-0.1 0-0.1 0-0.1 0 0 0.2-0.2 0.3-0.1 0.4 0.1 0 0 0.1 0 0.1-0.3 0.2 0 0.3 0 0.4q0.1 0 0.1 0 0-0.1 0.1-0.1 0 0-0.1 0c-0.1 0 0-0.1 0-0.1q0-0.1 0-0.1c0.1 0 0.1 0 0.1-0.1q0 0 0-0.1l0.2 0.3q-0.1 0-0.1 0zm-0.1 0.6l-0.1-0.1q0.1 0 0.1 0c0-0.1-0.1-0.3 0.1-0.1q0 0.1 0.1 0 0-0.1-0.1-0.2c0 0-0.1 0-0.1 0q-0.2 0.1-0.1 0.3v0.1q0 0 0.1 0zm-0.1 0q0 0 0 0 0 0 0 0zm1.3-0.3c-0.1 0-0.1-0.1-0.1-0.1 0 0-0.1 0.1-0.1 0.1 0 0-0.1 0.1-0.1 0.1q0.1 0 0.3-0.1zm-0.3 1.1q-0.2-0.1-0.3-0.3-0.1 0.1-0.3 0.2 0 0 0 0 0.2 0.1 0.4 0.1 0 0 0 0 0 0.1 0 0.1h-0.1v0.1q0.1 0 0.3-0.2zm0.6 0c-0.1-0.3-0.2 0.1-0.3 0-0.1 0.1-0.2 0.2-0.2 0.3 0 0.1 0.1-0.1 0.2 0l0.2-0.2c0 0 0.1-0.1 0.1-0.1zm0.5-0.2h-0.3q0 0 0 0.1 0.1 0 0.2 0.1c0.1 0 0.1-0.1 0.1-0.2zm1.4 0.3q0-0.1-0.1-0.2c-0.1-0.2-0.2 0-0.4 0q0.1 0 0.1 0.1c0 0-0.1-0.1 0 0 0 0.1 0 0 0 0l0.2-0.1c-0.1 0.2 0.1 0.1 0.1 0.3q0.1-0.1 0.1-0.1zm0.4-1.2c0 0 0.1 0 0.1 0.1 0.1-0.1 0.2-0.1 0.2-0.1 0-0.2-0.2 0-0.2-0.1q-0.1 0-0.1 0.1zm0.1 0.7c-0.1 0.1 0.1-0.1-0.1-0.1q-0.1 0.1-0.1 0.2-0.1 0.1-0.2 0.2 0.1 0 0.2 0.1c0.1 0 0.1 0 0.2-0.1q-0.1 0-0.2-0.1h-0.1l0.2-0.1q0 0 0 0c0 0.1 0.1 0 0.1 0 0-0.1 0-0.1 0-0.1zm0.5-0.1c-0.2-0.2-0.2 0.1-0.3 0.1 0 0-0.1 0.1-0.1 0.1 0.1 0 0.3 0 0.3-0.2q0 0 0.1 0zm0.6 0.9l-0.3-0.2c0.1 0.1 0 0.2 0 0.2 0 0.1 0.2-0.1 0.2 0.1zm0.4-0.2c0 0 0-0.1 0-0.1-0.1-0.2-0.3 0-0.4-0.2q0 0 0 0.1c-0.1-0.1-0.1 0-0.2 0.1 0 0 0 0.1 0.1 0.1 0.1 0 0 0 0-0.1 0 0 0.1-0.1 0.1-0.1 0.1 0 0.2 0.1 0.2 0.1-0.1 0.2 0.1 0.1 0.2 0.2q0 0 0-0.1zm1.2-0.4c-0.4 0.1-0.3 0-0.3-0.1 0-0.1 0-0.2 0-0.1-0.2 0 0 0.2-0.1 0.2 0 0.2 0.1 0.1 0.4 0zm0.3-1h0.2q-0.1-0.1-0.2-0.1c0 0-0.1 0-0.1 0 0.1-0.1-0.1-0.1-0.1-0.2 0 0-0.1 0-0.1 0-0.2 0.2 0.1 0.2 0.1 0.3 0 0.1 0.1 0 0.2 0zm0.3 1c-0.1-0.1-0.2-0.2-0.4 0q0.2 0.1 0.3 0.1c0 0 0.1-0.1 0.1-0.1zm0-1.1q0.1 0 0.2-0.1-0.2 0-0.3 0c0 0.1 0.1 0 0 0.1q0.1 0 0.1 0zm0.4 1.6q0 0 0 0l-0.3-0.1c0 0 0 0 0 0 0 0.4 0.2-0.1 0.3 0.1zm0.1 0.1c0 0-0.1 0-0.2 0 0 0 0 0 0 0q0 0.2 0.1 0.3 0-0.1 0.1-0.3zm0.1-1.9c-0.1 0-0.1 0.1-0.1 0.2q0 0.1 0.2 0.1h-0.1q0-0.1 0.1 0c0-0.1-0.2-0.2-0.1-0.3zm2-0.1c0-0.1-0.1-0.1-0.1-0.1-0.1 0.1-0.1 0.2-0.1 0.2 0 0.2 0 0 0.1 0 0 0 0.1 0.1 0 0.1 0.1 0.2 0.1 0 0.1 0 0.1-0.1 0.1-0.2 0-0.2zm0.9 0.7c-0.1 0-0.1-0.1-0.1-0.1q-0.1 0.1-0.2 0.1 0.1 0.1 0.1 0.1 0.1 0 0.2-0.1zm0.2 0.4q-0.1-0.1-0.2-0.1c-0.1 0-0.1 0-0.1 0.1q0.1 0.1 0.2 0.2c0-0.1 0.1-0.2 0.1-0.2zm1.5 0c-0.2 0-0.1-0.2-0.1-0.1-0.2 0.1 0.1 0.1 0.1 0.2q0 0 0.1 0c0 0 0-0.1 0-0.1 0-0.1-0.1 0-0.1 0zm-0.1-0.4q-0.1 0.1-0.2 0.2 0 0 0 0 0 0 0 0 0 0.1 0.1 0.1 0.1-0.1 0.2-0.2 0 0-0.1-0.1zm-0.6-0.7q-0.1 0-0.1 0 0 0.1 0 0.1 0.2 0.1 0.3 0.1c-0.2-0.1-0.2-0.1-0.2-0.2zm0.1-0.2q0 0 0 0.1h0.2c0 0 0.1 0 0-0.1-0.1 0-0.2 0-0.2 0zm0.5-0.4l0.2 0.2c0-0.1 0-0.1 0-0.1q0-0.1-0.1-0.2c-0.1-0.1-0.1 0-0.1 0.1zm0.2-1.9c0 0-0.1 0.1-0.1 0.1q0 0.1 0.1 0.2c0.1-0.1 0.1-0.2 0.1-0.2q0-0.1-0.1-0.1zm-0.1-0.1c0.2 0 0.2-0.1 0.2-0.2q0-0.1 0-0.1l-0.3 0.3c0 0 0.1 0 0.1 0zm0.5 0.1q0.1-0.1 0.2-0.1c0-0.1-0.1-0.1-0.1-0.1q-0.1 0-0.2 0.1c0 0 0.1 0.1 0.1 0.1zm0.4-0.4l-0.2 0.3q0.1 0.1 0.2 0.1l0.1-0.4q0 0-0.1 0zm-0.5-1.7c0 0.1-0.1 0.1-0.2 0.2 0 0 0.1 0.1 0.1 0.1 0.1-0.1 0.3 0 0.2-0.2zm0.5-0.9c-0.1 0 0 0.1-0.1 0.2q0.2-0.1 0.2-0.1 0 0.1 0 0.1l0.2-0.1c-0.1 0-0.2-0.1-0.3-0.1zm0.4-5.1q0 0.1 0 0.2 0 0.1 0 0.1 0.1-0.1 0.2-0.2c0 0-0.1-0.1-0.2-0.1z"/><path class="a" d="m19.9 18.6q0 0 0 0z"/><path class="a" d="m18.5 25.8z"/><path class="a" d="m18.5 25.8z"/><path class="a" d="m6.6 13.6z"/><path class="a" d="m6.1 24.8q0 0 0 0z"/><path class="a" d="m4.8 17.9z"/><path class="a" d="m18.2 25q0 0 0 0.1v-0.1z"/><path class="a" d="m4.9 14.4z"/><path class="a" d="m11.2 25.7z"/><path class="a" d="m5.7 14.6q0 0-0.1 0z"/><path class="a" d="m4.5 13.2z"/><path class="a" d="m4.8 22.4z"/><path class="a" d="m4.7 21.4q0 0 0 0v-0.2q0 0.1 0 0.1 0 0 0.1 0 0 0 0 0 0 0-0.1 0l0.1-0.2q0-0.1 0-0.1-0.1 0-0.1 0 0 0 0 0.1c0 0.1-0.1 0.2-0.2 0.2-0.1 0.1 0 0.2-0.1 0.3h0.1l0.3 0.1z"/><path class="a" d="m4.3 11.9q0 0 0 0c0.1-0.1-0.1-0.3 0.1-0.3q0 0 0-0.1l-0.2 0.1q0 0.1 0 0.2c0 0.1 0 0.1 0.1 0.1z"/><path class="a" d="m4.7 21.9q-0.1 0-0.1 0 0-0.1 0-0.1 0 0 0 0c0.2 0.1 0.2 0.1 0.1 0-0.1-0.1 0.2 0 0.1-0.1l-0.3-0.1c-0.2 0.2 0.1 0.3 0.1 0.5h0.1v-0.1c0 0 0.2-0.2 0-0.1z"/><path class="a" d="m6.3 13.2c0 0.1 0 0.2 0.1 0.4q0.1-0.3 0.1-0.6c0 0-0.1 0-0.1 0 0 0-0.1 0.1-0.1 0.2z"/><path class="a" d="m4.8 22.4z"/><path class="a" d="m4.9 22.3c0 0 0-0.2-0.1-0.2-0.2 0 0.1-0.1-0.1-0.1v0.1c-0.2 0.1-0.1 0.2 0.1 0.3 0 0 0.1-0.1 0.1-0.1z"/><path class="a" d="m6.9 18.3c0.2-0.1-0.1-0.2 0-0.3q0 0 0-0.1c-0.1 0.1-0.1 0.2-0.1 0.3 0 0 0 0.2 0.1 0.1z"/><path class="a" d="m4.9 23.8c0 0.1 0.1 0.1 0.1 0.1l0.1-0.1 0.1-0.1-0.2-0.1q0 0.1-0.1 0.2z"/><path class="a" d="m9.7 26.6q-0.1-0.1-0.1-0.1c-0.1 0-0.1 0-0.1 0.1 0 0.2 0.2-0.1 0.2 0.1 0 0 0.1-0.1 0-0.1z"/><path class="a" d="m6.8 18.7q0.1 0 0.1 0 0-0.1 0-0.1 0 0-0.1-0.1 0 0.1 0 0.1 0 0-0.1 0 0 0 0 0c-0.1-0.1-0.1 0-0.1 0v0.1h0.1c0 0 0.1-0.1 0.1 0z"/><path class="a" d="m6.7 18.7h-0.1q0 0 0.1 0z"/><path class="a" d="m5.4 25.3h-0.1c0 0.1-0.1 0.2 0 0.3 0.1 0 0.2-0.1 0.2-0.1 0 0-0.2 0-0.1-0.2z"/><path class="a" d="m20.1 13.7q0.1 0 0.1 0l0.2-0.3c0 0-0.1-0.1-0.1-0.1-0.2 0.1 0 0.3-0.2 0.4z"/><path class="a" d="m17.4 26.2c-0.1 0.1-0.2 0.1-0.2 0.2q0 0 0.1 0c0 0 0.1 0 0.2-0.1-0.1 0-0.1-0.1-0.1-0.1z"/><path class="a" d="m13.2 26.5v0.2q0 0 0.1 0 0 0 0.1 0 0-0.1-0.1-0.2c0 0-0.1 0-0.1 0z"/><path class="a" d="m19.7 23.7q0 0.1 0.1 0.1 0-0.1 0.1-0.2c0 0-0.1 0-0.2 0q0 0 0 0.1z"/><path class="a" d="m19.8 19c0 0.1 0.1 0.2 0.1 0.2 0.2 0-0.1-0.1 0.1-0.2q-0.1 0-0.1 0c0 0-0.1 0-0.1 0z"/><path class="a" d="m8.6 26.5c0 0.1 0 0.3-0.1 0.3q0.1 0.1 0.1-0.1c0.1-0.1 0.1 0 0.1 0 0.1-0.1-0.1-0.1-0.1-0.2z"/><path class="a" d="m6.5 13.4l0.1 0.2c0 0 0-0.1 0-0.1 0 0 0.1-0.2-0.1-0.1z"/><path class="a" d="m6.6 13.6z"/><path class="a" d="m6.6 13.6z"/><path class="a" d="m5.3 25.3z"/><path class="a" d="m5.4 25.2q0.1-0.1 0.1-0.2c0 0-0.1 0-0.1 0q-0.1 0.2-0.2 0.3h0.1c0-0.1 0-0.2 0.1-0.1z"/><path class="a" d="m5.3 25.3z"/><path class="a" d="m5.3 25.3z"/><path class="a" d="m18.5 25.8z"/><path class="a" d="m18.4 25.8c-0.1-0.1-0.1-0.1-0.1 0q0.1 0.1 0.2 0.2c0 0 0 0 0.1-0.1l-0.1-0.1z"/><path class="a" d="m18.5 25.8z"/><path class="a" d="m16.3 26.5q0.1 0 0.3 0 0 0 0.1-0.1h-0.4q0 0 0 0.1z"/><path class="a" d="m5.2 17.1c0.1 0.1 0-0.1 0.1-0.1 0.2 0 0.3-0.1 0.1-0.2l-0.2 0.2c0 0-0.1 0.1 0 0.1z"/><path class="a" d="m5.4 16.2c-0.1 0 0 0.1 0 0.1q0 0.1 0 0.2 0.1-0.1 0.1-0.2c0 0 0-0.1-0.1-0.1z"/><path fill-rule="evenodd" class="a" d="m18.9 7.6c0.1-0.1 0.3 0 0.2 0.1-0.1 0.1-0.1 0.2-0.1 0.2 0 0 0.1 0.1 0.1 0.1 0.2-0.2 0.1 0.3 0.4 0.1-0.1 0.2 0.2 0.2 0.3 0.3-0.2 0-0.1 0.2-0.1 0.2-0.1 0-0.1-0.2-0.2 0q0 0 0-0.1l-0.1-0.2q0 0 0 0v0.4l0.1-0.1c0 0.1 0.1 0.2 0.1 0.3q-0.1 0.3 0 0.6c0.1 0.1 0.1 0.1 0 0.1 0 0 0 0.2 0.1 0.1q0.1-0.1 0.1-0.2 0 0 0 0 0 0 0 0c0 0.3 0 0.6 0.2 0.8q0 0 0 0-0.1 0.1 0 0.2c0-0.1 0-0.1 0.1-0.1l-0.1-0.2q0.2 0 0.2 0.2c0 0 0 0 0 0.1v0.5c0 0 0 0 0.1 0 0.1 0-0.1 0.1 0 0.1 0.1 0.1 0.1 0.1-0.1 0.2 0 0 0 0.1 0 0.1 0.1 0-0.1 0.1 0 0.2q0 0 0 0 0 0.1 0 0.1l-0.1 0.1h-0.2q0-0.2 0.1-0.3-0.1-0.2-0.2-0.3v0.5q0 0 0.1 0.1l-1.6 0.1c0-0.1 0-0.1 0-0.2q0 0 0-0.1l-0.1 0.1v0.1q0 0 0-0.1l-0.1-0.1c0.4 0 0.1-0.2 0.2-0.3 0 0 0-0.1 0-0.2q0-0.1 0-0.1 0 0 0 0-0.1 0-0.1-0.1 0 0 0-0.1c0-0.3-0.1-0.5-0.1-0.8 0 0 0-0.1 0-0.2q-0.1-0.4 0-0.8 0 0.1-0.1 0c0 0-0.1 0-0.1 0 0-0.1 0.1-0.1 0.1-0.1 0-0.1 0.1-0.2-0.1-0.3 0 0 0-0.1 0-0.1q-0.2-0.1 0-0.1c0-0.2 0.1-0.2 0.2-0.3 0.2 0 0.2-0.1 0.2-0.1v-0.1q0 0.1 0.1 0.2 0 0 0 0.1 0.1-0.1 0.1-0.1 0-0.1 0-0.1 0 0 0 0.1c0.1 0.1 0.3 0 0.4 0q0-0.1-0.1-0.2c0-0.1 0-0.3 0.1-0.3zm0.7 3.6q-0.1 0.1-0.1 0.2c0 0 0 0.1 0 0.1q0.1-0.1 0.1-0.3zm0.4 0v0.2q0 0 0.1 0c0.1 0 0.1 0 0-0.1-0.1 0 0.1 0 0.1-0.1q-0.1 0-0.2 0zm-0.2-0.6c-0.1 0-0.1 0.1-0.1 0.1 0 0 0 0.1 0 0.1q0 0.1 0 0.1c-0.1 0-0.1-0.1-0.1 0q-0.1 0.1-0.1 0.1 0.1 0 0.2 0c0 0 0 0 0 0.1 0.1 0.1 0.1 0.2 0.3 0q0 0 0 0 0-0.1-0.1-0.2v0.1l-0.1-0.1zm-0.1-0.3c-0.1 0.2-0.2 0.3-0.1 0.4 0 0.2 0 0 0 0 0.2 0 0-0.1 0.1-0.1z"/><path class="a" d="m18 7.7q0 0 0.1 0l0.2-0.2q0 0-0.1 0z"/><path class="a" d="m5.1 5.9q0 0 0 0 0 0 0 0 0 0 0 0z"/><path fill-rule="evenodd" class="a" d="m6.1 5h0.5q-0.1 0-0.1 0.1c0 0 0.2 0.1 0.1 0.1 0 0 0 0.1 0 0.1 0.1 0 0 0-0.1 0-0.1 0-0.1 0-0.1 0-0.1 0-0.1 0-0.1 0q-0.1 0-0.2 0c0.1 0 0.1 0 0.1 0 0 0.1 0.4 0 0.4 0.1 0 0 0 0 0.1 0 0.1 0 0.1 0.1 0.1 0.1q0 0 0 0 0 0 0 0 0.1 0 0.1 0 0 0 0-0.1 0.1 0.1 0.1 0.1-0.1 0.1-0.1 0.3c-0.1 0 0 0 0 0.1q0 0 0 0c-0.1 0-0.1 0-0.2 0q0.1 0 0.1 0 0-0.1 0-0.1c0 0-0.1 0-0.1 0q0 0.1 0 0.1 0 0 0 0.1 0 0-0.1 0 0-0.1 0-0.1c0 0-0.1 0-0.1 0 0 0.1-0.6-0.1-0.3 0.1 0 0-0.1 0.1-0.2 0.1q0 0 0 0-0.1 0-0.2 0 0 0 0 0 0.1 0 0.1 0 0 0 0 0 0.1 0 0.1 0-0.2 0-0.3 0-0.3 0-0.6 0c0 0-0.1 0-0.1 0q0.1-0.1 0-0.1 0 0 0 0 0 0 0 0 0.1 0 0.1 0-0.1-0.1-0.1-0.1 0 0 0 0 0 0 0.1 0 0 0 0 0 0 0 0 0 0 0 0 0 0 0 0 0 0 0 0 0 0 0 0 0 0 0 0 0-0.1 0-0.1 0 0-0.1 0-0.1c0.2 0 0-0.1 0-0.1q0 0 0 0 0 0 0 0 0.1 0 0.1 0 0 0 0 0 0 0 0 0 0 0 0 0c0.1 0-0.2-0.1 0-0.1q0 0 0-0.1 0 0.1-0.1 0.1 0 0 0-0.1-0.1 0-0.1 0c-0.1-0.1 0.1-0.1 0.1-0.2 0 0-0.1 0-0.1 0q0 0 0 0c-0.1-0.1 0 0-0.1 0q0 0 0 0 0 0 0-0.1 0 0 0 0 0.1 0 0.1 0 0 0-0.1 0c0 0 0 0 0 0 0 0-0.1-0.1 0-0.1q0.1 0 0.1 0 0 0 0 0-0.1 0-0.2 0 0.1 0 0.2 0 0.1 0 0.1 0 0.1 0 0.2 0 0 0 0-0.1 0.1 0 0.1 0h0.6c-0.1 0-0.1 0-0.1 0.1q0 0 0 0 0 0 0.1 0c0 0 0.1-0.1 0.2-0.1zm-0.1 0.7q0 0 0 0.1 0 0 0.1 0 0 0 0 0 0-0.1-0.1-0.1zm-0.2-0.2q0 0 0 0 0.1 0.1 0.1 0.2 0 0 0 0 0.1 0 0.1-0.1c-0.1 0 0.2 0 0 0q-0.1 0-0.2-0.1zm0.2-0.4c-0.1 0-0.1 0-0.1 0.1-0.1 0 0.1 0 0.1 0q0 0 0.1-0.1-0.1 0-0.1 0z"/><path class="a" d="m6.6 5c0.1 0.1 0 0.1 0.1 0.1q0 0-0.1 0 0 0 0 0c0.2 0.1 0.2 0 0.2 0q0.1 0 0.1 0-0.1 0-0.2 0c0 0 0 0 0.1 0q0-0.1 0-0.1h-0.2q0 0 0 0z"/><path class="a" d="m6.7 5.2c0 0 0 0.1 0.3 0-0.2 0-0.3 0-0.2 0q0 0-0.1 0z"/><path class="a" d="m7 5.2q0 0 0 0 0 0 0 0 0 0 0 0z"/><path class="a" d="m7.1 5.2q-0.1 0-0.1 0 0 0 0.1 0 0 0 0 0z"/><path class="a" d="m6.7 5.3q0 0 0.1 0 0 0 0.1 0 0 0 0 0c-0.2 0-0.1 0-0.2 0z"/><path class="a" d="m5 5q0 0 0 0z"/><path fill-rule="evenodd" class="b" d="m6.3 3.4c0 0-0.1-0.1-0.1 0 0 0-0.1-0.1-0.1-0.1q0 0.1 0 0.2 0 0 0 0 0.1 0 0.1 0c0.1 0 0 0.1 0.2 0.1l-0.1 0.1q0 0 0-0.1c0 0 0 0-0.1 0-0.1 0-0.1 0.1-0.2 0l0.1 0.1h0.1-0.1-0.2 0.1q0 0 0 0 0.1 0 0.1 0c0 0-0.2 0 0 0.1l-0.3-0.1q0 0 0 0c0.2 0-0.1-0.1-0.1-0.2q0 0 0 0h0.1 0.1c-0.1 0 0 0-0.1 0-0.1 0-0.2-0.1-0.2-0.1q0 0 0 0h0.1c0 0-0.1-0.1 0.1 0-0.2-0.1 0-0.1-0.1-0.2 0 0 0-0.1 0-0.1 0.1 0 0.1 0 0.2 0q0 0.1 0.1 0.1 0 0 0.1-0.1 0 0.1 0.1 0.1c0.3 0.2 0.1 0.1 0 0.1q0.1 0 0 0c-0.1-0.1 0 0-0.1-0.1-0.2-0.1-0.3 0-0.1 0.1h0.2q0 0 0 0 0 0 0 0c0.2 0.1 0 0 0.1 0.1zm-0.4-0.1q0 0-0.1 0.1 0.1 0 0.1 0c0.1 0 0.1 0 0.1 0q0 0-0.1-0.1zm0.3 0q0 0 0 0 0 0 0 0z"/><path class="a" d="m10.4 3z"/><path class="a" d="m6.3 2.8z"/><path class="a" d="m12.8 2.6z"/><path fill-rule="evenodd" class="a" d="m14.3 4.7h-0.3 0.2q0 0 0-0.1l-0.1 0.1h-0.3q0 0-0.1 0c0.4-0.1-0.1 0.1 0 0 0.1 0-0.1-0.1 0.1-0.1 0-0.1 0.2-0.1 0.1-0.2h0.1c0.1 0 0 0 0 0 0.1-0.1-0.1 0-0.1-0.1q0 0 0 0 0 0 0.1 0c-0.2 0-0.2-0.1-0.2-0.1 0 0 0.1-0.1 0.2-0.1q0 0 0-0.1c0 0-0.1 0-0.1 0-0.1 0.1-0.2 0-0.3 0 0.1 0-0.1 0 0.1-0.1q0.2-0.1 0-0.1c0-0.1 0.1-0.1 0.1-0.1 0.1 0 0.1-0.1 0.3-0.1q0.1 0 0.1 0h-0.1c0.1-0.1-0.1 0-0.1 0-0.3 0.1 0-0.1-0.3-0.1q0 0 0 0 0.1 0 0 0 0 0 0 0 0-0.1 0-0.1h0.1q0 0 0 0 0 0 0 0c0 0-0.3 0-0.2 0v-0.1q0.1 0 0.1 0c0.2 0 0.1 0 0.3-0.1q0 0 0.1 0h-0.2q0 0-0.1 0c-0.1 0.1-0.1 0-0.1 0 0.2-0.1 0 0 0 0q0.1-0.1 0.1-0.1 0 0 0 0c-0.4 0.2-0.1 0 0-0.1 0 0 0-0.1 0 0-0.1 0 0.1-0.2 0-0.1 0 0 0-0.1 0 0-0.1 0.1-0.1 0-0.2 0.1 0 0-0.1 0.1 0.1-0.1 0 0 0.1-0.1 0.1-0.1-0.1 0-0.2 0-0.2 0.1q0 0 0 0l0.1-0.2 0.1-0.1q-0.1 0-0.1 0.1c-0.1 0.1 0.1-0.2 0 0q-0.1 0-0.1 0.1 0 0 0 0c0 0 0.1-0.1 0 0 0 0.1-0.1 0.1-0.1 0.1 0 0 0 0 0-0.1 0.1-0.2 0 0 0-0.1q0 0 0 0 0 0 0 0.1c-0.1 0 0 0-0.1 0.1q0 0 0 0 0 0 0 0c0-0.1 0-0.2 0-0.1-0.1 0.1 0.1-0.2 0-0.1q-0.1 0.1-0.1-0.1c0 0 0 0.1 0 0.1q-0.1 0.1-0.1 0.1c0 0 0-0.1 0-0.1 0 0.1 0 0 0 0 0 0.1-0.1 0-0.1 0.1 0 0.1 0 0.1-0.1 0.1-0.1 0 0-0.1 0-0.1q-0.1 0-0.2 0.1 0 0 0 0.1v-0.1q0 0 0 0 0-0.1 0-0.1c0 0 0-0.1 0-0.1q-0.1 0 0-0.1c0 0 0 0 0 0 0-0.2 0.1 0 0.1-0.2l0.1 0.1q-0.1 0-0.1 0 0 0 0 0 0 0 0 0.1h0.1q0 0 0-0.1v0.1c0 0 0-0.3 0-0.3 0 0-0.1-0.1-0.1 0-0.1 0-0.2 0-0.1 0.3-0.1-0.1 0 0.1-0.1 0.2 0 0 0 0 0-0.1q-0.1 0-0.1 0c0 0.3-0.1 0-0.1 0.2 0 0 0 0.1 0 0 0-0.2-0.1-0.1-0.1-0.1-0.1 0.1-0.1 0.2-0.1 0.3q0 0 0 0 0-0.1 0-0.2 0 0 0-0.1-0.1 0-0.1 0.1v-0.3-0.1q0 0 0 0.1c0 0.1-0.1 0.1-0.1 0.2 0.1 0.2 0 0.1 0 0.1 0 0-0.1 0-0.1-0.1q0 0 0 0.1 0 0 0 0.1 0-0.1 0-0.1 0 0.1 0 0.1c0 0 0 0.2 0 0.1q0 0 0 0 0-0.1-0.1-0.2c0 0 0 0 0 0q0 0.1 0 0.1c0 0.1 0 0.2 0 0.2q0 0-0.1-0.2c0-0.2 0 0.2 0 0.1q0 0-0.1 0v-0.1q0 0 0 0 0.1 0 0.1 0c0-0.1-0.1-0.1-0.1-0.1 0 0.1-0.1-0.1-0.1-0.1q0 0 0 0v0.1l-0.1 0.1q0 0 0 0c0 0 0 0 0 0q0 0.1 0 0.1 0 0 0 0c0 0-0.1-0.1 0-0.2q-0.1 0-0.1 0 0 0 0-0.1c0 0.1 0 0.2 0 0.2 0 0 0 0.1 0 0.1v-0.1q0 0 0 0v-0.2c0 0.1 0 0.1 0 0.1-0.1 0-0.1 0.2-0.1 0.1-0.1-0.1-0.1 0.1-0.1 0 0 0.1 0 0.2 0 0.2 0.1 0 0.1 0.1 0.1 0.1q0 0-0.1 0 0 0 0 0v-0.3q0 0.1 0 0.2c0 0 0 0.1-0.1-0.1q0 0 0 0 0 0 0 0 0.1-0.1 0.1-0.1l-0.1-0.2q0 0.1 0 0.1 0 0.1 0 0.1c0-0.1-0.1 0.1-0.1-0.1q0 0 0-0.1v0.1q0 0 0 0c0 0.1 0 0.2 0 0.2 0-0.1 0-0.1-0.1-0.1q0-0.1 0-0.1c0 0.1-0.1 0.1 0 0.2q0 0 0 0 0 0-0.1 0c0-0.1 0 0 0 0 0 0.5-0.1 0.1-0.1 0.3q0 0 0 0 0-0.1 0-0.2 0 0 0-0.1c0 0.2-0.2-0.1-0.1 0.2 0 0 0 0.1 0 0.1q-0.1 0-0.1 0c0 0 0-0.1 0-0.1q0.1 0 0-0.2v-0.2 0.3q0 0 0 0 0 0 0 0c0-0.1 0-0.2-0.1-0.1 0 0.1 0 0 0-0.1v-0.2l0.1 0.1q0 0 0 0.1v-0.1-0.3q0 0 0 0v0.1q0-0.1 0-0.1 0 0-0.1 0c0 0.1 0 0.2 0 0.2 0-0.1 0-0.2 0-0.2 0-0.1 0 0.1 0 0 0-0.1 0-0.1-0.1-0.1q-0.1-0.1 0 0.2 0 0.1 0 0.1 0-0.1 0-0.1v-0.1q0 0 0 0 0 0.1 0.1 0.1c0 0.1-0.1 0.3 0 0.3 0 0.1 0 0.1 0 0-0.1-0.1-0.1 0.2-0.1 0.3 0-0.1-0.1 0-0.1-0.1 0-0.1-0.1 0.1-0.1-0.2 0 0.3 0-0.1-0.1-0.1q0 0 0 0c0 0.1 0 0.1 0 0.1 0.1 0.1 0 0.2 0 0.2 0 0 0 0 0 0q-0.1-0.1-0.2-0.1c0 0 0.1 0.1 0.1 0.2-0.1 0.2-0.1-0.2-0.2-0.1 0-0.2 0 0 0-0.1q0 0.1 0 0.1c0 0 0-0.1-0.1-0.1 0 0-0.1 0-0.1 0 0 0.1 0 0.1 0 0.2q0 0 0 0c0-0.1-0.1 0-0.1 0q0-0.3-0.1 0 0 0 0 0 0 0 0 0 0 0 0 0 0-0.1 0-0.1c0-0.1-0.1-0.2-0.1-0.2 0 0 0-0.2 0-0.1 0 0.1 0 0.2 0 0.3 0 0 0 0 0 0.1q0 0-0.1-0.1 0 0 0 0c0 0.1-0.1 0-0.1-0.1 0 0.2-0.1 0-0.1 0.1q0 0 0 0c-0.1-0.2-0.2 0.1-0.3 0q-0.1 0-0.1 0c0 0-0.1 0.1-0.1 0.2q0 0.1 0 0.1c0 0 0 0 0-0.1q0 0 0-0.1v0.1 0.1q-0.1-0.1-0.1-0.1 0-0.1 0-0.1c0.1-0.1 0.1-0.1 0-0.2 0 0.2 0 0.1 0 0.1q-0.1 0-0.2 0h-0.1c0 0.3-0.1 0.1-0.1 0.2 0-0.3-0.1-0.2-0.1-0.2 0 0 0 0 0 0.1 0 0 0 0 0 0q0 0 0 0v0.1l-0.1-0.1v-0.2 0.2q0 0 0 0c0-0.2 0-0.1-0.1 0 0 0 0-0.1 0 0q-0.1 0-0.2 0.1 0 0 0 0.1 0 0 0 0.1c0 0.1 0 0 0 0q0 0 0-0.1 0-0.1 0-0.2 0 0 0 0c0-0.2 0 0-0.1-0.1 0 0.1 0-0.1 0 0.1q0 0 0 0c0-0.3-0.1 0-0.1-0.2-0.1 0 0 0.1 0 0.2 0 0.1 0 0.1 0 0.1 0 0-0.1-0.2-0.1-0.2 0 0.1 0.1 0.2 0.2 0.4q0 0 0 0.1 0 0 0 0v-0.1 0.1l0.1 0.1-0.1-0.2c-0.1-0.1 0 0.1 0 0.1q0 0 0 0c0 0.1 0 0 0.1 0.1-0.2-0.2 0 0-0.1-0.1 0 0 0.1 0.1 0 0.1 0-0.1 0.1 0 0 0q0-0.1-0.1-0.2c-0.1-0.1 0.1 0.1 0.1 0.2 0.1 0-0.1-0.2-0.1-0.1 0.1 0 0-0.1 0-0.1q0 0 0 0-0.1 0-0.1-0.1 0 0.1 0.1 0.1l0.1 0.2v-0.1c0 0 0 0-0.1 0-0.1-0.1-0.1-0.1 0 0-0.1-0.1 0.2 0.1 0 0-0.1 0 0 0.1 0 0.1 0 0-0.1-0.1-0.1-0.1q0 0 0 0-0.1 0-0.1 0 0.1 0 0.1 0 0.1 0 0.1 0.1v-0.1q-0.1 0-0.1 0 0.1 0.1 0.1 0.1 0 0-0.1 0 0 0 0 0c0 0 0 0.1 0 0.1 0.1 0.1 0 0.2-0.1 0.3 0 0 0.1 0.1 0 0.1-0.2 0.1 0.1 0.1 0 0.1-0.2 0.1 0.1 0.1-0.1 0.2 0 0-0.2 0-0.2 0.1 0.1 0 0 0 0 0.1-0.1 0 0 0 0 0-0.1 0.1-0.2 0.1-0.3 0.1 0.3 0.1 0.1 0.1 0 0.1h-0.4q0.1 0 0 0c-0.1-0.1 0.2-0.2 0.1-0.2q0-0.1-0.1-0.1c-0.1 0 0 0 0 0.1 0 0 0 0-0.1 0h-0.2c0.1 0-0.1 0.1 0.1 0.1q0 0 0 0 0 0.1 0 0.1-0.1 0-0.1 0 0 0 0 0c0.2 0 0.1 0 0.1 0h-0.6c0 0-0.1 0-0.1 0q0 0-0.1 0h-0.1c0 0 0-0.1-0.2 0q0 0 0 0-0.1 0-0.1-0.1h0.1c0.2 0.1-0.1 0 0 0 0.1 0 0.2 0 0.2 0q0.1 0-0.1 0c-0.1 0-0.1 0-0.1-0.1 0 0-0.1 0-0.1 0 0-0.1-0.1-0.1 0.1-0.1q0 0 0 0c0.1 0-0.3 0 0-0.1 0 0-0.1 0-0.1 0-0.2-0.1 0.2 0 0.1-0.1 0.1 0 0.2 0 0 0q0 0 0.1 0 0 0 0.1 0-0.1 0-0.1 0 0 0 0 0c0.1 0 0.2 0 0.2 0q0.1-0.1 0.1-0.2c0 0 0 0-0.1 0q0 0 0 0c0 0 0.1 0.1-0.1 0.1 0 0 0-0.1-0.1-0.1-0.2 0 0.2-0.1-0.1-0.1q0 0 0 0c0 0 0 0-0.1 0.1 0-0.1 0-0.1 0-0.2 0 0 0.2 0.1 0.1 0 0 0-0.1 0-0.1 0q0-0.1 0-0.1h0.1q0 0 0.1 0c-0.1 0-0.1 0-0.1 0 0.1-0.1-0.1-0.1-0.2-0.1-0.1-0.1 0-0.6 0.3-0.6 0.2 0-0.1 0 0 0 0.1-0.1-0.1-0.2-0.1-0.2-0.3-0.1 0-0.1-0.1-0.1 0-0.1 0-0.1 0-0.2q0 0 0 0c0.3 0.1-0.1-0.2 0.1-0.2-0.2-0.1 0.3 0 0-0.2 0.2 0.2 0.1 0 0.3 0q-0.1 0-0.1 0.1 0.1 0 0.1 0 0.1 0 0.1 0 0 0-0.1 0c0.1-0.1 0.1-0.1 0.1-0.1 0.1-0.1 0.2 0 0.2 0.1q0 0 0 0l0.1-0.1-0.2-0.1c0 0-0.1 0-0.1-0.1 0 0-0.1-0.2 0.1-0.1q0 0 0 0v-0.1q0 0 0 0.1c0 0 0.1 0 0.1 0q0.1 0.1 0.1 0.1l-0.1-0.1q0 0-0.1 0c0.1 0 0.2 0 0.2-0.1v-0.1q0 0 0 0-0.1-0.1-0.1-0.3 0 0 0-0.1c0.1 0.1 0.1 0 0.2 0.1q0 0 0.1 0.1l-0.1-0.1c0 0 0-0.1 0-0.1q0 0 0.1-0.1 0.1 0.1 0.1 0.1 0 0.1 0.1 0.1 0 0 0 0c0 0 0 0 0 0 0-0.1 0.1 0.1 0.1 0 0-0.1 0-0.2-0.1-0.3q0 0 0 0c0-0.1 0.1-0.2 0.1-0.1 0.1 0 0.1-0.1 0.1-0.1q0.1 0 0.1 0.1v0.1-0.1q-0.1 0-0.1 0 0 0 0 0 0 0.1 0 0.1h0.1q0 0 0 0 0 0 0 0-0.1 0-0.1 0l0.1 0.2q0.1 0 0.1 0c0.1 0.1 0 0 0 0v0.1c0 0 0.1 0 0.1 0l0.2-0.1q0 0 0 0 0-0.1-0.1-0.1c-0.1 0-0.1-0.2-0.1-0.3l0.1 0.1v0.1q0 0 0 0 0 0 0 0 0-0.1 0-0.2l-0.1-0.1 0.1 0.1q0.2 0.1 0.3 0.2c0-0.4 0.1 0 0.2 0 0.1 0 0-0.1 0-0.1 0-0.2 0.2-0.1 0.3-0.1 0.1-0.1 0.1-0.2 0.1-0.1q0.1 0 0.1 0c0 0.1 0 0.1 0 0.1q0 0-0.1-0.1v0.2q0.1-0.1 0.1-0.1c0-0.1 0.1 0 0.1 0 0 0.1 0-0.1 0 0q0 0 0 0 0 0 0 0v0.1c0 0 0 0 0 0.1q0-0.1 0.1-0.1 0-0.1 0-0.2c0 0 0 0.1 0 0.1 0.1 0.1 0 0 0 0.1 0 0 0 0 0 0 0 0 0.1 0 0.1 0 0 0 0 0.1 0 0.2q0 0 0 0.1 0 0 0 0l0.1-0.1v0.1q0 0 0 0 0 0 0 0 0 0 0 0c0 0 0.1-0.3 0-0.2 0 0 0 0 0-0.1q0 0 0 0c0-0.1-0.1-0.1-0.1-0.3 0.1-0.1 0.1 0.1 0.1 0.2q0 0 0 0v-0.1q0 0 0.1 0.1 0 0.1 0 0.1v-0.1-0.1q0 0 0 0c0 0.1 0.1 0.1 0.1-0.1q0 0 0.1 0c0 0 0 0 0 0.1q0 0-0.1 0 0 0 0 0c0 0.1 0 0.2 0 0.3 0 0 0 0 0 0v-0.1c0-0.2 0.1-0.1 0.1-0.1 0-0.1 0.1-0.1 0-0.2q0 0 0.1 0c0 0 0 0 0 0q0 0.1 0 0.1 0 0 0 0 0-0.2 0.1 0 0 0 0 0.1v-0.1q0 0.1 0 0.1 0 0.1 0 0.1 0 0 0-0.1 0 0 0 0c0 0 0 0.1 0 0.1v0.1h0.1c0 0-0.1-0.1 0-0.2 0-0.1 0-0.2 0-0.3 0 0 0.1 0.1 0 0.2h0.1c0-0.3 0.1 0 0.1-0.2q0 0 0 0c0 0.1 0-0.1 0 0.1q0.1 0 0.1 0l0.2-0.1c0 0 0.1 0.1 0.1 0 0.1 0 0.2-0.1 0.4 0.1 0 0.1 0.1-0.1 0.1-0.1 0 0 0.1-0.1 0.1 0.1 0.1 0.3 0.1-0.1 0.2-0.1 0 0 0.1 0 0.1 0 0.1 0 0.1 0.1 0.2 0.3q0 0 0 0v-0.1-0.1q0 0 0 0c0 0 0 0.1 0 0.1q0-0.1 0-0.1c0-0.3 0.1 0 0.1-0.1h0.1c0 0 0 0.1 0 0.1 0.1 0.1 0.1-0.1 0.2-0.1 0 0 0.1-0.1 0.1 0 0-0.1 0 0.2 0.1 0.1q0 0 0 0c0-0.1-0.1-0.1-0.1-0.1 0.1-0.1 0.2-0.1 0.2 0.1q0 0 0.1 0.1v-0.1l-0.1-0.1 0.1 0.1c0 0 0 0.1 0 0.1 0-0.1 0-0.1 0-0.2 0 0 0.1 0 0.1 0v0.2q0 0-0.1 0 0 0 0 0l0.1 0.1q0 0 0.1-0.1h-0.1c0 0.2 0 0 0 0 0-0.1 0-0.2 0-0.1 0 0.1 0.1 0 0.1 0.1 0 0 0-0.1 0-0.2 0-0.2 0.1 0.1 0.1 0.1 0 0 0 0.1 0 0.1 0-0.1 0-0.1 0-0.1 0.1-0.2 0.1-0.3 0.1-0.1 0 0 0.1-0.1 0.1-0.1 0.1 0 0.1-0.1 0.2 0.2q0 0 0 0c0-0.2 0-0.1 0.1-0.1 0 0.1 0-0.1 0.1-0.1q0.1 0.1 0.2 0c0.1 0 0.1 0.2 0.2 0v0.1q0-0.1 0-0.1 0.1 0.1 0.1 0.1c0 0 0-0.1 0.1-0.1 0.1 0 0.2 0 0.2 0h0.2 0.1c0 0.1 0.1 0 0.1 0 0.1-0.2 0.2 0.2 0.3 0 0 0 0.1 0 0.1 0.1 0 0 0.1 0 0.2-0.1 0.1-0.1 0.3 0 0.4 0q0.1 0.1 0.2 0.1 0 0 0 0v0.2c0.1 0 0-0.1 0.1-0.2v0.1c0 0 0.1-0.1 0.1-0.1 0 0 0.1 0 0.1 0.1 0.1 0 0.2 0 0.2 0.1 0.1 0.1 0.3 0.2 0.4 0.3 0.1 0.1 0.2 0.2 0.2 0.4 0 0.1 0.1 0 0.1 0.2 0 0 0 0.1 0 0.1 0.1 0 0 0.2 0 0.2-0.1 0.2 0.2 0.2 0.1 0.4 0 0 0.1 0 0.1 0.1 0.1 0-0.2 0-0.1 0.1 0.2 0.1 0.2 0.3 0.1 0.3q-0.1 0.1 0.1 0.1c-0.1 0-0.1 0-0.1 0 0 0.1 0.1 0.1 0.1 0.2q0 0.1 0.1 0.2c-0.1 0.1-0.1 0.3 0 0.4-0.2 0 0.1 0-0.1 0.1q0 0 0 0 0.1 0 0.1 0 0 0 0 0l-0.1 0.1q0 0 0 0l0.2 0.1q0 0.1 0 0.1-0.1 0-0.1 0zm-9.5-2.2q0 0 0-0.1 0 0.1 0 0.1zm0.3 0.4q0-0.1 0-0.1 0 0 0-0.1c-0.1 0-0.2 0-0.3 0 0 0.1 0.2 0.1 0.3 0.2zm0.5 1.1c0.2-0.1 0.1-0.1 0.1-0.1q-0.2 0-0.1 0.1 0 0 0 0 0 0 0 0zm0.6 0.5q0.1 0 0.2 0-0.1-0.1-0.2-0.1 0 0-0.1 0.1c0 0 0.1 0 0.1 0zm-0.3 0.1c0 0-0.1 0-0.1 0-0.2 0.1 0.1 0.1-0.1 0.1l0.1 0.1c0.2-0.1-0.1-0.1 0.1-0.2zm0.4 0c0 0 0 0.1 0 0.1q0 0 0 0l0.2-0.1q-0.1 0-0.1 0.1c-0.1 0 0.1-0.1-0.1-0.1zm-0.1 0c0-0.1-0.1-0.1-0.1-0.1q0 0.1 0 0.1 0 0 0.1 0.1 0-0.1 0-0.1zm0.6-0.4q-0.1 0.1-0.1 0.1h0.1q0 0 0 0 0 0 0 0c-0.1 0-0.3 0.1-0.2 0.2 0 0 0 0 0.1 0q0 0 0 0 0 0-0.1 0c0.1 0 0-0.1 0.1-0.1q0.1 0 0.2-0.1c0 0-0.1 0 0-0.1q0 0 0 0c-0.1 0-0.1 0-0.1 0zm0-0.3q0 0 0 0 0 0.1 0 0.1 0.1 0 0.1 0l0.1-0.1q0 0 0 0c-0.3 0.1-0.1 0-0.2 0zm-0.6 0l-0.1-0.1q-0.1 0-0.1 0.1 0 0 0 0 0 0 0 0 0 0 0 0c0-0.1 0-0.1 0.2-0.1q0 0 0 0 0 0 0 0 0 0-0.1 0c0 0-0.2 0-0.2 0 0 0.1 0 0.1 0 0.1 0 0-0.1 0.1 0.1 0-0.2 0.1 0 0.2-0.1 0.3 0 0 0 0 0.1 0 0 0 0 0 0 0q0.1 0 0.2 0-0.1 0-0.1 0.1 0 0 0 0 0 0 0 0 0.1 0 0.1 0 0-0.1 0-0.1 0.1 0 0.1 0c0 0-0.1 0.1 0.1 0q0 0.1 0.1 0.1 0 0 0-0.1 0 0 0 0 0.1 0 0.1 0 0 0 0 0.1c0.1-0.1 0.1-0.1 0.1-0.1q0 0-0.1 0c-0.2-0.1-0.2 0-0.3 0 0.1-0.1-0.2 0-0.2-0.1-0.1 0 0-0.1-0.1-0.1q0.1 0 0.1 0 0 0 0 0 0.1 0 0.1 0c-0.2 0 0.2 0 0.1 0.1q0 0 0 0 0 0 0 0c0-0.1 0-0.1 0.1 0q0.1 0 0.1 0c0 0 0.1 0 0.2 0l0.1-0.1q0 0-0.1 0l-0.3 0.1c0.1-0.1-0.1-0.1-0.1-0.1 0.1 0 0 0 0-0.1 0 0 0 0-0.1 0-0.1 0 0.1 0-0.1 0zm0.5-0.1q-0.1 0-0.1 0 0 0 0 0.1h0.2q0 0 0 0l-0.1-0.1q0 0 0 0zm-0.1 0.1q0 0 0 0 0 0 0 0zm-0.3 0c0.1 0 0.2-0.1 0.2 0 0 0 0.1 0 0.1 0 0 0-0.1 0 0 0-0.1 0-0.2-0.1-0.3 0zm0.3-0.2l0.1 0.1h0.1c-0.2 0 0 0 0 0q0 0 0.1 0c0.1 0 0.1 0 0.2 0q0 0 0 0 0 0 0 0 0 0 0 0c0 0-0.1 0-0.1 0q-0.2 0-0.1 0c0 0-0.1-0.1-0.2-0.1-0.1 0 0.1 0.1-0.1 0zm0.1 0c-0.1 0 0.3 0.1 0.1 0l0.3 0.1q-0.1 0-0.3-0.1c0 0 0 0-0.1 0zm-0.3-0.3c-0.1 0 0.1 0 0 0-0.1-0.1 0.3 0.1-0.1-0.1q-0.1-0.1-0.1-0.1-0.1 0-0.1 0 0 0-0.1 0c0 0-0.1-0.1-0.1-0.1-0.1 0.1-0.1 0.1-0.1 0.1 0.1 0.1-0.1 0.1 0.1 0.2-0.1 0-0.1 0-0.1 0.1l-0.1-0.1q0 0 0 0.1c0 0 0.1 0 0.2 0 0.1 0 0 0.1 0.1 0.1h-0.1-0.1q0 0 0 0c0.1 0 0.3 0.1 0.2 0.2q-0.1 0-0.1 0h0.3c-0.2 0 0 0 0-0.1q0 0-0.1 0 0 0 0 0h0.1 0.1-0.1-0.1c0.1 0 0.2 0 0.3 0 0 0 0 0 0 0q0.1 0 0.1 0v-0.1c-0.1 0-0.1 0-0.2 0q0-0.1 0 0-0.1-0.1-0.1-0.1 0-0.1 0-0.1c0 0 0.1 0 0.1 0 0 0 0.1 0 0.1 0zm0.6 0.1q-0.1 0-0.2-0.1c-0.1-0.1 0.1 0 0 0-0.2-0.1 0.1 0.1-0.1 0q0 0 0 0.1h0.1c0 0-0.1 0-0.1 0-0.1-0.1 0 0-0.2-0.1q0 0 0 0 0.1 0.1 0.1 0.1 0.1 0 0.1 0 0.1 0.1 0.2 0.1 0 0 0 0c0.1 0 0.2 0.1 0.2 0-0.1 0 0 0.1 0 0.1-0.2-0.2-0.2-0.2-0.3-0.3 0.1 0 0.2 0.1 0.1 0.1q0 0 0 0 0.1 0 0.1 0h-0.1c0 0 0.1 0 0.1 0zm0.1 0.2q0 0 0 0 0 0 0 0zm-1-0.9c0 0-0.1 0-0.1 0.1 0 0 0.1 0 0.1 0 0 0 0.1 0.1 0.1 0.1 0-0.1-0.1-0.1-0.1-0.2zm0.1-0.3c0 0.1-0.1 0.1 0.1 0.3q0 0 0 0c-0.1-0.1-0.1-0.1 0 0q0 0 0.1 0.1 0 0 0-0.1c0.1 0.1 0 0.1 0 0.1q0 0 0.1 0.1 0 0 0 0c-0.3-0.3-0.4-0.2-0.4-0.2q0 0 0 0 0 0 0 0c0.1 0.1 0.2 0.1 0.3 0.2 0.1 0 0.2 0.1 0.3 0.2 0.1 0 0.1 0.1 0.1 0.1 0 0-0.1-0.1 0 0q0 0 0.1 0 0 0 0 0c0.1 0.1 0.1 0 0.2 0.2 0-0.1-0.1-0.1-0.2-0.2q0-0.1 0-0.1v0.1c0 0-0.1-0.1-0.1 0-0.1-0.2-0.3-0.3-0.3-0.4 0 0 0.1 0 0 0q0-0.1-0.1-0.1l-0.1-0.1 0.1 0.1q0 0 0 0zm0.6 0.4q0 0 0-0.1c0 0 0-0.1 0.1 0 0 0 0-0.1 0-0.1q0-0.1-0.1-0.1c0 0-0.1 0-0.1 0 0 0-0.1-0.1-0.1-0.1q0 0 0 0 0 0.1 0 0.2 0-0.1 0-0.1 0 0 0 0 0-0.1 0-0.1-0.1 0-0.1 0 0 0 0.1 0.1 0 0.1 0 0.1c0 0-0.1 0-0.1-0.1q0 0 0 0 0 0 0 0c0 0 0.1 0.1 0.1 0-0.1 0-0.2-0.2-0.3-0.2 0 0 0 0 0 0 0.1 0.2 0.3 0.3 0.5 0.5zm0.5 0.6c0-0.1-0.1-0.2-0.2-0.3 0 0-0.1-0.1-0.1-0.1 0 0 0.1 0.1 0.1 0.1q-0.1 0-0.1-0.1 0 0-0.1-0.1c0 0.1 0.2 0.3 0.2 0.3q0 0 0 0c0.1 0.1 0.1 0.1 0 0 0.1 0.1 0.2 0.1 0.1 0.1q0 0 0 0c0.2 0.2 0.1 0 0.1 0.1q0 0.1 0 0.1 0.1 0 0.1 0c0 0-0.1-0.1-0.1-0.1zm0-0.3q-0.1 0-0.1 0 0 0 0 0c0 0.1 0 0 0 0-0.1-0.2 0 0-0.1 0l0.1 0.1q0 0 0 0c0 0 0.1 0.1 0.2 0.2q0 0 0 0.1 0 0 0 0c0-0.1-0.1-0.2-0.1-0.2 0 0 0 0 0-0.2zm0-0.7q0 0 0 0h-0.1c0 0 0-0.1 0-0.1q0 0 0 0 0 0 0 0 0 0 0-0.1 0 0 0 0c0 0-0.1-0.1-0.1 0 0 0.1-0.1 0-0.1-0.1q0 0 0 0v-0.1l-0.1 0.1c0.1 0 0 0.1 0.1 0.1 0 0.2 0.1 0.2 0.1 0.2-0.1 0-0.1-0.1-0.1 0q0 0.1 0 0.2c0.1 0.1 0.1 0 0.1 0 0-0.1 0.1-0.1 0.2 0 0 0.1-0.1-0.2 0-0.2zm0 0q0 0 0-0.1 0 0.1 0 0.2v0.1zm0.1-1.1q-0.1-0.1-0.1-0.2v0.1q0 0.1 0 0.1 0 0 0-0.1-0.1 0-0.2-0.1 0 0 0 0.1c0 0 0 0 0 0 0.1 0 0.1 0.1 0.2 0.2q0 0.1 0.1 0.1c0-0.1 0-0.1 0-0.2zm0.2 1.1c0-0.1 0 0-0.1 0.1 0 0 0 0 0 0q0 0 0 0c0 0.2 0.1 0 0.1 0q0 0 0-0.1zm0.5-0.1v0.1l0.1-0.1-0.1-0.1v0.1h-0.1q0-0.1 0-0.1c0 0-0.1 0.1-0.1 0.1 0.1 0.3 0 0.1 0 0.1q0 0 0-0.1c0 0.1 0 0.2 0 0.2 0 0 0.1 0.1 0.1 0 0 0 0.1 0 0.1 0.1 0 0.4 0 0 0.1 0q0 0 0-0.1v-0.1q0 0.1 0 0.1c-0.1 0.1-0.1 0-0.1 0q0 0 0 0c0-0.1 0-0.1-0.1-0.1q0 0 0 0l0.1-0.1zm0.2 0.2q0 0 0-0.1c-0.1 0-0.1 0-0.1 0q0.1-0.1 0.1-0.2-0.1 0-0.1 0c0 0.1 0 0.1 0 0.2q0 0.2 0.1 0.1 0 0 0 0zm0.2-1.2q-0.1 0-0.1 0c0 0 0 0.1 0 0.1 0 0.1 0 0.1 0 0.1q0 0 0.1-0.2zm0.2 1.1q-0.1-0.1-0.2-0.2v0.2q0 0.1 0 0.1 0.1-0.1 0.1-0.1 0 0 0 0.1 0 0 0.1 0.1h-0.1l0.1 0.1q0-0.1 0-0.3zm0.2 0c-0.1-0.3-0.1 0.1-0.1 0q0 0.2 0 0.3c0 0.1 0-0.1 0 0l0.1-0.2h-0.1c0.1 0 0.1-0.1 0.1-0.1zm0.1-0.2q0 0-0.1 0 0 0 0 0 0.1 0.1 0.1 0.1c0 0 0-0.1 0-0.1zm0.5 0.3q0-0.2 0-0.3c-0.1-0.2-0.1 0-0.2 0q0.1 0.1 0.1 0.1c0 0.1-0.1-0.1 0 0.1q0 0 0-0.1c0 0.1 0.1 0 0.1 0.2q0 0 0 0zm0.1-1.3q0 0 0 0.1c0-0.1 0.1-0.1 0.1-0.1 0-0.2-0.1 0-0.1-0.1q0 0 0 0.1zm0 0.7c0 0.1 0.1-0.1 0-0.1q0 0.1 0 0.2-0.1 0.1-0.1 0.2 0.1 0.1 0.1 0.1c0 0 0 0 0.1-0.1q-0.1 0-0.1 0v-0.1-0.1q0 0 0 0c0 0.1 0 0 0 0 0.1-0.1 0.1-0.1 0-0.1zm0.2-0.1c-0.1-0.2 0 0.1-0.1 0.1 0 0 0 0.1 0 0.1 0 0 0.1 0 0.1-0.2q0 0 0 0zm0.3 0.9l-0.2-0.2c0.1 0.1 0 0.2 0.1 0.2 0 0.1 0-0.1 0 0.1zm0.1-0.2q0.1-0.1 0-0.1c0-0.2 0-0.1-0.1-0.2q0 0 0 0v0.1c0-0.1 0 0 0 0 0 0.1 0 0.2 0 0.2q0 0 0-0.1 0 0 0-0.1 0.1 0 0.1 0.1c0 0.2 0 0.1 0 0.2q0-0.1 0-0.1zm0.4-0.4c-0.1 0.1-0.1 0-0.1-0.2 0 0 0-0.1 0-0.1 0 0.1 0 0.3 0 0.3 0 0.2 0.1 0.1 0.1 0zm0.1-1h0.1q-0.1-0.1-0.1-0.1c0 0 0 0 0 0 0-0.1-0.1-0.1-0.1-0.2q0 0 0 0c-0.1 0.2 0 0.2 0 0.3 0 0.1 0.1 0 0.1 0zm0.1 1c0-0.1 0-0.2-0.1 0q0.1 0.1 0.1 0.1zm0-1q0-0.1 0-0.1 0-0.1-0.1-0.1c0 0.1 0.1 0 0.1 0.2q0 0 0 0zm0.2 1.5q0 0 0 0l-0.1-0.1c0 0 0 0 0 0.1 0 0.3 0.1-0.1 0.1 0zm0 0.2q0 0 0-0.1c0 0 0 0.1 0 0.1v0.2q0-0.1 0-0.2zm0-2c-0.1 0 0 0.1 0 0.2q0 0.2 0 0.2v-0.1q0-0.1 0 0c0-0.1 0-0.1 0-0.3zm0.7 0q0 0-0.1-0.1 0 0.1 0 0.2c0 0.2 0 0 0 0 0 0.1 0.1 0.1 0 0.1 0.1 0.2 0.1 0 0.1 0 0-0.1 0-0.2 0-0.2zm0.3 0.7c0 0 0 0 0 0q-0.1 0-0.1 0.1 0 0 0 0.1 0.1-0.1 0.1-0.2zm0.1 0.5q-0.1-0.1-0.1-0.2c0 0 0 0.1 0 0.1q0 0.1 0.1 0.2c0 0 0-0.1 0-0.1zm0.5 0.2c-0.1-0.1 0-0.2-0.1-0.2 0 0 0 0.2 0 0.3l0.1 0.1q0-0.1 0-0.2c0 0 0 0 0 0zm0-0.3q0 0-0.1 0 0 0 0 0 0 0 0 0 0 0.1 0 0.1 0.1 0 0.1-0.1 0 0 0 0zm0.1-0.8q-0.1 0-0.1-0.1 0 0.1 0 0.1v0.2c0-0.1 0-0.2 0.1-0.2zm0.1 0.1q0 0 0 0v0.2c0 0 0.1 0.1 0.1 0q-0.1-0.1-0.1-0.2zm0.3 0.4l-0.1 0.3c0 0 0 0 0 0q0.1-0.1 0.1-0.2 0-0.1 0-0.1zm0.7 0.1c0-0.1 0-0.1 0-0.1q-0.1 0-0.1 0.1c0 0 0 0.1 0 0q0.1 0 0.1 0zm0-0.2c0 0.2 0 0.2 0.1 0.2q0 0 0 0 0-0.1 0-0.2c0 0-0.1 0-0.1 0zm-0.1 0.6q0 0 0 0.2 0-0.2 0-0.2 0-0.1 0-0.1c0 0 0 0 0 0.1zm0 0.3q0-0.1 0-0.2-0.1 0.1-0.1 0.2l0.1 0.1q0 0 0-0.1zm0.8-0.5c0 0 0-0.1 0-0.2 0 0 0 0.1-0.1 0.1 0 0-0.1 0.2 0 0.1zm-0.2 0.7c0.1-0.1 0 0 0.1-0.1q-0.2 0.1-0.2 0.1 0 0 0 0l-0.1 0.1q0.1-0.1 0.2-0.1zm0.1 1.5q0-0.1 0-0.1 0 0 0-0.1-0.1 0.1-0.2 0.1c0 0.1 0.1 0.1 0.2 0.1z"/><path class="a" d="m13.6 3q0 0 0 0z"/><path class="a" d="m12.2 2.9z"/><path class="a" d="m12.2 2.9z"/><path class="a" d="m4.6 4.3z"/><path class="a" d="m8.1 2.6q0 0 0 0z"/><path class="a" d="m6.7 3.4z"/><path class="a" d="m12.2 2q0 0 0 0z"/><path class="a" d="m6.3 4z"/><path class="a" d="m9.9 2.4z"/><path class="a" d="m5.6 3.9q0 0 0 0.1v-0.1z"/><path class="a" d="m6.6 4.5z"/><path class="a" d="m7.4 3.6z"/><path class="a" d="m7.3 3.5v0.1-0.1q0 0 0 0l-0.1-0.1q0.1 0.1 0.1 0.1h-0.1q0-0.1 0-0.1l0.1 0.1q0 0 0 0.1c0-0.1 0 0 0.1 0.1 0 0.1 0 0.1 0 0.1v-0.1l-0.1-0.2z"/><path class="a" d="m6.7 4.9q0 0 0 0c-0.2 0 0.1 0.1-0.2 0.1q0 0 0 0h0.2q0 0 0.1-0.1c0 0-0.1 0-0.1 0z"/><path class="a" d="m7.3 3.6q0 0.1 0 0.1 0 0 0-0.1c0-0.1 0-0.1 0 0 0 0.1 0-0.2 0-0.1l0.1 0.2c0 0.2-0.1 0 0 0l-0.1-0.1c0 0 0-0.2 0 0z"/><path class="a" d="m4.8 4.4q0 0-0.1-0.1-0.1 0.1-0.2 0.2c0 0 0.1 0 0.1 0 0.1 0 0.2-0.1 0.2-0.1z"/><path class="a" d="m7.4 3.6z"/><path class="a" d="m7.3 3.5c0 0 0-0.1 0 0 0.1 0.2 0-0.1 0 0.1 0.1 0.2 0.1 0.1 0.1 0 0-0.1-0.1-0.1-0.1-0.1z"/><path class="a" d="m5 1.8c-0.2-0.1 0 0.2-0.1 0.2q0 0 0 0c0.1 0 0.2 0 0.2 0 0 0 0-0.1-0.1-0.2z"/><path class="a" d="m7.8 3.6c0 0 0-0.1 0-0.1v-0.1l-0.1-0.1v0.1q0 0.1 0.1 0.2z"/><path class="a" d="m9.4 3.3q0 0 0-0.1c0 0.1-0.1 0-0.1 0.2 0.1 0.2 0.1-0.1 0.1 0 0 0 0.1 0 0-0.1z"/><path class="a" d="m5.3 1.8q-0.1-0.1-0.1-0.1 0 0 0 0 0 0.1 0 0.1 0 0 0 0 0.1 0 0.1 0.1 0 0 0 0c0 0.1 0.1 0.1 0.1 0.1v-0.1c-0.1-0.1-0.2-0.1-0.1-0.1z"/><path class="a" d="m5.4 1.9q0 0 0 0z"/><path class="a" d="m8.2 3.3v0.2-0.1c0 0.1 0 0.2 0 0.1 0 0 0-0.1 0-0.2 0 0 0 0.2 0 0z"/><path class="a" d="m13.9 4.1q-0.1 0-0.1 0l-0.1 0.2c0 0 0 0 0 0 0.2-0.1 0-0.1 0.2-0.2z"/><path class="a" d="m12 3.1q-0.1 0.1-0.1 0.2 0 0 0.1 0 0 0 0-0.1c0 0 0-0.1 0-0.1z"/><path class="a" d="m10.6 3.2v0.2q0 0 0 0 0 0 0.1 0.1-0.1-0.1-0.1-0.2 0-0.1 0-0.1z"/><path class="a" d="m12.9 3q-0.1 0.1-0.1 0.1 0.1 0.1 0.1 0.1c0 0 0-0.1 0-0.1q0-0.1 0-0.1z"/><path class="a" d="m13.7 2.9c0 0-0.1 0-0.1 0-0.2 0.2 0.1-0.1 0 0.1q0 0 0-0.1c0 0 0.1 0 0.1 0z"/><path class="a" d="m9.1 3.3c0 0.1 0 0.2-0.1 0.3q0.1 0 0.1-0.1c0-0.2 0-0.1 0 0 0-0.2 0-0.1 0-0.2z"/><path class="a" d="m4.6 4.3q-0.1 0-0.1 0c0.1 0 0 0.1 0.1 0z"/><path class="a" d="m4.6 4.3z"/><path class="a" d="m4.6 4.3z"/><path class="a" d="m8.2 3.5v-0.1z"/><path class="a" d="m8.1 3.3q0 0 0 0c0 0 0 0 0 0l0.1 0.3v-0.2q-0.1 0-0.1-0.1z"/><path class="a" d="m8.2 3.4z"/><path class="a" d="m8.2 3.4v0.1z"/><path class="a" d="m12.2 2.9z"/><path class="a" d="m12.2 2.8q0-0.1 0 0 0 0.1 0 0.2 0 0 0 0v-0.1z"/><path class="a" d="m12.2 2.9z"/><path class="a" d="m11.6 3.3q0.1 0 0.1 0 0 0 0 0 0-0.1-0.1-0.1 0 0 0 0.1z"/><path class="a" d="m6.2 3.3c-0.1-0.1 0 0-0.1-0.1-0.2-0.1-0.3 0-0.1 0.1h0.2c0 0 0.1 0 0 0z"/><path class="a" d="m5.9 3.4c0.1 0 0.1 0 0.1 0q0 0-0.1-0.1 0 0-0.1 0.1 0.1 0 0.1 0z"/><path fill-rule="evenodd" class="a" d="m15 6c-0.1 0.1-0.3 0.1-0.2 0 0 0 0-0.1 0.1-0.1 0 0-0.1 0-0.1 0-0.2 0.1-0.1-0.1-0.3 0 0-0.1-0.3 0-0.3-0.1 0.2 0 0 0 0.1 0 0.1-0.1 0.1 0 0.2-0.1q0 0.1 0 0.1 0 0 0 0 0 0 0.1 0 0 0 0-0.1-0.1 0-0.1 0c0 0-0.1 0-0.1-0.1q0.1-0.1 0-0.2c0 0-0.1 0 0 0 0 0 0-0.1-0.1 0q0 0-0.1 0.1 0 0 0 0 0 0 0 0c0-0.1 0-0.2-0.2-0.3q0 0 0.1 0 0.1 0 0 0 0 0 0 0c0 0-0.1 0-0.2 0q0.1 0.1 0.1 0.1-0.2 0-0.2 0c0-0.1 0.1-0.1 0.1-0.1q0-0.1 0-0.2-0.1 0-0.1 0c-0.1 0.1 0 0 0 0-0.1 0-0.1 0 0.1-0.1 0 0 0 0 0 0-0.1 0 0.1-0.1 0-0.1q-0.1 0-0.1 0 0 0 0 0 0.1 0 0.1 0l0.3-0.1q0 0.1-0.1 0.1 0.1 0.1 0.1 0.1 0-0.1 0.1-0.2-0.1 0-0.1 0l1.6-0.3c0 0 0 0.1 0 0.1q0 0 0 0 0 0 0 0 0-0.1 0.1-0.1 0 0 0 0 0 0.1 0 0.1c-0.3 0-0.1 0.1-0.1 0.1-0.1 0-0.1 0.1-0.1 0.1q0 0 0 0 0.1 0 0.1 0 0 0 0 0 0 0.1 0 0.1c0.1 0.1 0.1 0.2 0.1 0.2 0 0.1 0 0.1 0 0.1 0.1 0.1 0 0.2 0 0.3q0 0 0.1 0c0 0 0.1 0 0.1 0 0 0-0.1 0-0.1 0 0 0.1-0.1 0.1 0 0.1 0 0 0 0.1 0 0.1q0.2 0 0 0c0 0.1-0.1 0.1-0.2 0.1-0.2 0.1-0.2 0.1-0.2 0.1 0 0 0 0 0 0q0 0-0.1 0 0 0 0 0-0.1 0-0.1 0 0 0 0 0 0 0-0.1 0c0 0-0.2 0-0.3 0q0 0.1 0 0.1c0 0 0 0.1 0 0.1zm-0.5-1.1q0.1-0.1 0.1-0.1c0 0 0 0-0.1-0.1q0 0.1-0.1 0.2 0.1 0 0.1 0zm-0.4 0.1q0-0.1 0-0.1 0 0-0.1 0c-0.1 0-0.1 0 0 0 0.2 0-0.1 0 0 0.1q0 0 0.1 0zm0.3 0.1c0 0 0.1 0 0.1 0 0 0-0.1-0.1-0.1-0.1q0 0 0.1 0c0 0 0 0 0 0q0.1-0.1 0.1-0.1-0.1 0-0.1 0.1c-0.1 0-0.1 0-0.1 0-0.1-0.1-0.1-0.1-0.3 0q0 0 0 0 0.1 0 0.1 0 0 0 0 0 0.1 0 0.1 0 0 0 0 0 0 0.1 0.1 0.1zm0.1 0.1c0.1-0.1 0.1-0.1 0.1-0.2 0 0 0 0 0 0.1-0.2 0 0 0-0.1 0q0 0 0 0.1z"/><path class="a" d="m15.8 5.9q0 0 0 0-0.1 0-0.3 0.1 0.1 0 0.2 0 0-0.1 0.1-0.1z"/></svg>