<svg version="1.2" xmlns="http://www.w3.org/2000/svg" viewBox="0 0 56 4" width="56" height="4"><style>.a{fill:#de6b38}.b{fill:none}</style><path class="a" d="m1.6 2z"/><path fill-rule="evenodd" class="a" d="m4.7 3v0.4q-0.1-0.1-0.2-0.1c-0.2 0.1-0.4 0.2-0.6 0.2 0-0.1 0 0-0.1 0-0.1 0.1-0.1 0-0.1-0.1-0.1-0.1 0.1-0.1 0.1-0.2 0 0 0 0 0-0.1q0 0-0.1-0.1c0 0.1 0 0.1 0 0.1-0.3 0-0.1 0.4-0.3 0.4-0.1 0-0.1 0-0.1 0 0 0.2-0.1 0.2-0.2 0.2q0 0-0.1 0 0 0 0 0l0.1 0.1h0.2q-0.1 0-0.2 0.1-0.5-0.1-1-0.1c-0.1 0-0.2 0-0.3 0q-0.1 0-0.1 0c-0.1 0 0-0.1 0-0.1q0 0 0.1 0 0 0 0.1 0c0 0 0-0.1 0-0.1q-0.2 0-0.3 0-0.1 0-0.2 0 0 0 0 0 0.1-0.1 0.1-0.1c0.2 0 0-0.1 0-0.1-0.2 0.1 0.3-0.6-0.3-0.3 0 0-0.2-0.1-0.3-0.1 0.1 0 0.1 0 0.2-0.1q0 0 0-0.1c0 0-0.1 0-0.1 0q0 0 0 0.1 0 0 0 0h-0.1c0-0.1-0.1-0.2 0-0.2q0.1-0.3 0-0.6c0 0 0.1-0.1 0.1-0.1q0.1 0.1 0.2 0 0.1-0.1 0.2-0.1-0.1 0.1-0.1 0.1c0.1 0 0.1 0 0.1 0q0.1 0 0.1-0.1 0.1 0 0.2 0l-0.1 0.1q0 0 0 0 0 0 0 0l0.2-0.1c0 0 0.1 0 0.1 0 0.2 0.2 0.3 0.1 0.5 0q0 0 0.1 0l-0.1 0.1q0 0 0 0 0 0 0 0 0 0 0 0.1 0-0.1 0-0.1c0.1 0.1 0.1-0.2 0.2 0.1l0.3-0.1-0.2-0.1h0.2q0.1-0.1 0.2-0.1c0.1-0.1 0.3 0.1 0.4 0.1 0.1 0 0.1-0.1 0.1-0.1q0.1 0 0.2 0c0.1-0.1-0.1-0.1-0.1-0.1q0 0 0.1 0l0.1-0.1q0 0.1 0 0.1 0 0 0 0.1 0.1-0.1 0.1-0.1c0.1 0 0.1-0.1 0.1-0.1 0.1 0.1 0.2 0 0.2 0.1q0 0 0.1 0 0 0 0 0v-0.1c0 0 0.1 0.1 0.1 0.1 0 0.1-0.1 0.1-0.1 0.2 0 0 0 0.1 0.1 0.1 0 0 0.1 0.1 0.1 0.1q0 0.1 0 0.1v0.5c0 0 0 0 0 0h-0.1c0.1 0.1 0.1 0.2 0.2 0.3zm-2.4-0.1q-0.1 0-0.2 0-0.1 0-0.1 0.1 0.1 0 0.1 0.1 0.1-0.1 0.2-0.2zm0.7-0.2q-0.1 0-0.1 0l-0.4 0.1q-0.1 0.1-0.1 0.1h0.1c0.1-0.1 0.1 0.2 0.2 0 0.1-0.1 0.2-0.1 0.3-0.2zm1.3 0.1c0-0.1-0.1 0-0.1 0-0.2-0.1 0 0.1-0.1 0.1l0.2 0.1q0-0.1 0-0.2z"/><path class="a" d="m4.6 3.5c-0.1 0.1-0.2-0.1-0.3 0.1q0-0.1 0-0.1c0 0 0 0 0 0-0.1 0.2 0.1 0.1 0.1 0.2q0 0 0.1-0.1c0.1-0.1 0.1 0 0 0.1h0.2v-0.2q-0.1 0-0.1 0z"/><path class="a" d="m4.2 3.6c-0.2 0-0.4 0-0.2 0.2 0-0.1 0-0.2 0.2-0.1q0-0.1 0-0.1z"/><path class="a" d="m4 3.8z"/><path class="a" d="m4 3.9v-0.1l-0.1 0.1z"/><path class="a" d="m3.6 3.6q0 0 0 0.1 0.1 0 0.2 0.1c0 0 0.1-0.1 0.1-0.1-0.1-0.1-0.2-0.1-0.3-0.1z"/><path class="a" d="m4.6 1.9q0.1 0 0.1 0v-0.1z"/><path fill-rule="evenodd" class="b" d="m11.1 3c-0.1-0.1-0.1-0.1-0.2-0.1-0.1 0 0-0.1 0-0.1h-0.7q0 0 0 0.1 0 0 0 0c0.1 0.1-0.2 0.1-0.1 0.2 0 0 0 0 0 0h-0.5q0.1 0 0.1-0.1c0.1 0 0.1 0 0.1 0-0.1-0.1-0.2-0.1-0.2-0.3h-0.1q0 0 0 0.1 0 0 0 0.1h-0.1v-0.1l0.1-0.1h-0.2q0.1 0 0.1 0.1 0 0 0 0c-0.1 0.1-0.2-0.1-0.3 0v-0.3q0.1 0 0.1 0.1c0.3 0.1 0.4-0.1 0.6-0.2q0 0 0 0.1 0 0 0 0v0.1q0 0 0 0c0-0.1 0.2 0 0.2-0.1 0-0.1 0-0.2 0-0.2q0.1 0 0.2 0l-0.1 0.1c0.1 0 0.2 0 0.3 0.1 0.1-0.2 0.3 0 0.4-0.1 0.1 0 0.2 0 0.3 0 0.1 0 0.1 0.1 0.1 0.2q0.1 0 0.1 0.1 0.1 0 0.2 0 0 0.1-0.1 0.2c0 0.3-0.1-0.1-0.2 0 0 0.2-0.1 0-0.1 0.1zm-0.5-0.4q-0.1 0-0.2-0.1c0 0-0.1 0.1-0.1 0.1 0 0.1 0.1 0.1 0.1 0.1q0.1 0 0.2-0.1zm0.4 0.1l0.2 0.2c0 0 0.1 0 0.1 0 0.1-0.1-0.1 0-0.1-0.2 0-0.1-0.1-0.2-0.2 0z"/><path class="a" d="m28.3 2.9z"/><path class="a" d="m13.3 2.7z"/><path class="a" d="m36.6 2.4z"/><path fill-rule="evenodd" class="a" d="m50.8 1.8v0.2l-0.2-0.1q0 0-0.1 0 0 0 0 0 0.1 0.2 0.2 0.3c0 0.1-0.1 0.1-0.1 0.1-0.2-0.3-0.1 0.2-0.2 0.1-0.1-0.1-0.3 0.1-0.4-0.1-0.1-0.1-0.2-0.3-0.3-0.1q0-0.1 0-0.1c-0.1-0.2-0.1 0-0.1 0-0.2-0.2-0.2 0-0.3 0q-0.1 0.1-0.1 0c0 0 0 0 0-0.1-0.1 0.3-0.3 0.2-0.4 0.2-0.2 0-0.3-0.1-0.4-0.1q0-0.1 0-0.1c-0.1 0.1-0.2 0.1-0.1 0.1 0 0.2-0.1 0.2-0.2 0.3-0.1-0.1-0.2 0.1-0.4-0.1-0.1-0.1-0.3-0.1-0.5 0.1 0-0.1-0.1-0.2-0.1-0.2-0.2-0.1-0.3-0.1-0.2-0.3 0 0 0-0.1 0-0.1v0.1c-0.3-0.1-0.2 0.1-0.1 0.1 0 0.4-0.4 0.1-0.4 0.3q0 0 0 0-0.1-0.1-0.2 0 0 0-0.1 0 0 0 0 0l0.1-0.1q0 0-0.1 0h-0.2c-0.1 0 0.1 0.3-0.1 0.2h-0.3q0-0.1 0.1-0.1c0-0.2-0.3-0.1-0.4-0.3q0 0 0-0.1l-0.2 0.2c0.2 0 0.1 0.1 0.1 0.1-0.1 0.1-0.4 0.1-0.4 0.1-0.1-0.2-0.1 0-0.1 0q-0.2-0.1-0.3-0.1c-0.1 0-0.2 0-0.2 0-0.1 0.5-0.3 0.1-0.4 0.1-0.1-0.1-0.3-0.1-0.4 0-0.1 0.1-0.2-0.2-0.3-0.1 0 0-0.1 0-0.1 0 0.1 0.2-0.2 0.1-0.1 0.2 0 0-0.1 0.1-0.1-0.1-0.1 0-0.2-0.1-0.4 0-0.2 0-0.3 0.1-0.5 0.1q0 0.1-0.1 0 0.1 0 0.1-0.1 0-0.1 0-0.1 0 0-0.1 0.1c0 0.1-0.1-0.3-0.2 0q0 0-0.1 0.1 0.1 0 0.2 0c0 0 0-0.1 0 0 0.1 0.1 0 0.1-0.1 0.1-0.1 0-0.3 0-0.4 0-0.1-0.2-0.4-0.1-0.5-0.2q0 0-0.1 0 0.1 0.1 0.1 0.1c0.1 0.1 0.2 0 0.1 0.2q0 0 0 0-0.1-0.1-0.1-0.1c-0.1 0-0.2-0.1-0.3 0-0.2 0.1-0.3-0.2-0.5-0.1q-0.2 0.1-0.3-0.1c-0.1 0-0.2 0.1-0.3 0.1q-0.1 0.1-0.3 0.2c0 0 0-0.1 0-0.2-0.1 0.1-0.2 0-0.2 0-0.2 0.1-0.4 0.1-0.6 0.2-0.2 0.1-0.5 0-0.7 0.1-0.2 0 0.1-0.2 0-0.2q-0.3 0.1-0.6 0.2 0 0 0 0-0.1 0-0.1 0 0 0 0.1-0.1 0 0 0.1 0c-0.1-0.1-0.2-0.1-0.2-0.1-0.1 0-0.1-0.1-0.1-0.1 0.1 0 0.2 0 0.2-0.1 0.1-0.2 0.3 0.1 0.5-0.1q0 0 0 0.1 0 0 0 0-0.1 0-0.1 0 0 0-0.1 0h0.3q0 0 0 0v0.1c0.2-0.1 0-0.3 0.2-0.3-0.2 0-0.4-0.1-0.6-0.1-0.1 0.1-0.4 0-0.4 0.4-0.2-0.1 0 0.1-0.1 0.2-0.2 0-0.2-0.1-0.3-0.1 0 0-0.1 0-0.1 0 0 0.3-0.3 0-0.4 0.2-0.1 0-0.1 0.1-0.1 0-0.1-0.2-0.2-0.1-0.4-0.1-0.1 0.1-0.2 0.2-0.2 0.3 0 0-0.1 0.1-0.1 0q-0.1-0.1-0.1-0.2 0.1 0 0-0.1c0 0-0.1 0.1-0.1 0.1q0-0.1-0.1-0.3 0 0 0-0.1c0 0-0.1 0.1 0 0.1 0 0.1-0.2 0.1-0.2 0.2 0.1 0.2-0.1 0.1-0.1 0.1-0.1 0-0.3 0-0.3-0.1 0 0 0 0.1 0 0.1q0 0.1-0.1 0.1h0.1q0 0 0 0c-0.1 0 0 0.2-0.2 0.2q0-0.1 0-0.1h0.1q-0.1-0.1-0.2-0.2c0 0-0.1 0-0.1 0v0.1q-0.1 0-0.1 0.1c-0.1 0 0 0.1-0.1 0.1 0 0 0 0-0.1-0.1 0-0.3-0.2 0.1-0.3 0q0 0 0 0.1-0.1-0.1-0.1-0.1c0 0 0.1-0.1 0.1-0.1q0.1 0 0.1 0c0-0.1-0.1-0.1-0.1-0.1-0.2 0.2-0.3-0.1-0.5-0.1q0 0.1-0.1 0.1h0.1q0 0 0 0.1h-0.2q-0.1 0-0.1 0c0 0 0 0.1 0 0.1q0 0 0.1 0-0.1 0-0.1 0c-0.1 0-0.2 0-0.2-0.1q-0.1 0-0.1-0.1 0 0 0 0c0 0-0.1 0.1 0 0.2 0 0 0 0 0 0.1l-0.1-0.1q0 0 0 0 0 0 0 0l-0.1-0.2c0 0 0 0.1 0 0.1-0.1 0-0.3 0.2-0.4 0.1-0.1-0.1-0.1 0.1-0.1 0 0 0.1 0 0.1 0 0.1 0.1 0.1 0.1 0.1 0.1 0.2 0 0-0.1 0-0.1 0q-0.1 0-0.1-0.1-0.1-0.1-0.1-0.3c0 0.1 0 0.2 0 0.2 0 0.1-0.1 0.1-0.1 0 0 0-0.1 0-0.1 0q0-0.1 0.1-0.1c0 0 0.1 0 0.1 0q-0.1-0.1-0.1-0.2 0 0.1-0.1 0.1 0 0-0.1 0.1c0-0.1-0.2 0-0.2-0.1 0-0.1 0-0.1-0.1-0.1q0 0 0 0.1 0 0 0.1 0c0 0 0 0.1-0.1 0.1-0.1 0-0.2 0-0.3-0.1 0 0-0.1 0-0.1 0 0 0-0.1 0.1 0 0.2q0 0 0 0c-0.1 0-0.1 0-0.2-0.1 0 0-0.1 0-0.1 0.1 0 0.5-0.4 0.1-0.5 0.3q-0.1 0-0.1 0 0-0.1 0.1-0.2 0 0 0.1-0.1-0.1 0-0.1 0c0 0.2-0.4-0.1-0.3 0.2 0 0-0.1 0.1-0.1 0.1q-0.1 0-0.3 0c0.1 0 0.1-0.1 0.2-0.1 0.1 0 0.1-0.1 0.1-0.2q-0.1-0.1-0.1-0.2v0.3q0 0 0 0-0.1 0-0.1 0c0-0.1 0-0.2-0.2-0.1-0.1 0.1-0.1 0-0.1-0.1l0.1-0.2 0.2 0.1q0 0 0 0.1 0-0.1 0-0.1 0-0.1 0-0.3 0 0 0.1 0 0 0.1 0 0.1 0 0 0-0.1c-0.1 0-0.1 0-0.2 0 0 0.1 0 0.2 0 0.2-0.2 0 0-0.2-0.1-0.2-0.1-0.1 0 0.1-0.1 0 0-0.1 0-0.1-0.1-0.1-0.2 0-0.3 0-0.2 0.2q0 0.1 0.1 0.1 0 0 0.1 0 0 0-0.1-0.1l-0.1-0.1c0.1 0 0.1 0 0.1 0 0.1 0 0.1 0.1 0.1 0.1 0 0.1-0.1 0.3 0.1 0.3 0 0.1-0.1 0.1-0.1 0-0.3-0.1-0.2 0.2-0.2 0.3h-0.1c0-0.1-0.2 0-0.2 0-0.1-0.2-0.5 0-0.4-0.3-0.1 0.3-0.1-0.1-0.2 0 0 0 0 0 0 0 0 0-0.1 0-0.1 0.1 0.2 0-0.1 0.1 0 0.2-0.1 0-0.1-0.1-0.2-0.1-0.1-0.1-0.3-0.1-0.4 0-0.2 0 0.1 0.1-0.1 0.2-0.2 0.2-0.2-0.2-0.3-0.2 0-0.1-0.1 0-0.1 0q0 0-0.1 0c-0.1 0.1-0.1-0.1-0.2 0-0.1 0-0.3-0.1-0.4 0-0.2 0 0 0.1 0 0.1q0 0-0.1 0.1c0-0.2-0.2 0-0.2-0.1q-0.2-0.2-0.3 0-0.1 0.1-0.1 0.1-0.1 0-0.1-0.1 0 0 0.1 0 0 0 0 0c-0.1-0.1-0.2-0.3-0.3-0.3-0.1 0.1 0-0.2-0.1-0.1 0 0.1 0 0.3 0 0.4 0 0-0.1 0-0.2 0.1q0-0.1 0-0.1 0 0-0.1 0c-0.2 0.1-0.3 0-0.4-0.1-0.1 0.2-0.3 0-0.4 0.1q0 0 0 0c-0.3-0.2-0.6 0.1-1 0q-0.2 0-0.4 0c-0.1 0-0.1 0.1-0.2 0.2q0 0.1 0 0.1c-0.1 0-0.2 0.1-0.2-0.1 0 0 0 0-0.1-0.1q0 0.1 0 0.1v0.1c0 0-0.1-0.1-0.1-0.1 0 0 0-0.1 0.1-0.1 0.2-0.1 0.1-0.1 0-0.1 0 0.1-0.1 0-0.1 0h-0.7l-0.5 0.1c0.1 0.2-0.2 0-0.2 0.1h-0.1c0-0.3-0.2-0.1-0.3-0.2 0 0-0.1 0.1-0.1 0.1 0 0 0 0 0 0q0.1 0.1 0.1 0.1h-0.1l-0.1-0.1-0.1-0.2v0.2q0 0 0 0c-0.1-0.1-0.1-0.1-0.3 0 0 0-0.1 0-0.2 0l-0.6 0.2q0 0-0.1 0l0.1 0.1q0 0 0 0c-0.1 0.1-0.2 0.1-0.3 0 0.1 0 0 0 0.1-0.1 0 0 0.1-0.1 0.2-0.1q0.1 0 0.1 0 0-0.1 0-0.1c-0.1-0.1-0.2 0.1-0.3 0 0 0-0.1-0.1-0.1 0.1 0 0-0.1 0-0.1 0-0.3-0.3-0.7 0-1-0.2-0.1 0-0.3 0.1-0.4 0.2 0 0.1-0.1 0.1-0.1 0.1-0.2 0 0.1-0.2-0.1-0.2-0.1 0.1-0.1 0.2 0 0.4q0.1 0 0.1 0.1 0 0-0.1 0v-0.1q-0.1 0-0.1 0.1l0.1 0.1-0.2-0.2c-0.1-0.1 0 0.1-0.1 0.1q0 0-0.1 0c0.2 0.1-0.1 0 0 0.1q0 0 0 0v0.1c0-0.3-0.2 0-0.3-0.1-0.1-0.1-0.4 0-0.5 0-0.2-0.1-0.4 0.1-0.5 0q-0.2 0-0.3-0.1c-0.1-0.2-0.1 0.1-0.2 0.1-0.2 0.1 0-0.1-0.1-0.1-0.2 0.1 0.1-0.1 0 0q-0.1 0-0.1 0-0.1-0.1-0.1-0.1c-0.1 0-0.1 0-0.1 0.1q0 0 0.1 0.1c-0.2 0-0.4 0-0.5-0.1-0.2-0.1-0.3-0.1-0.4 0.1-0.1-0.2-0.2 0.1-0.4 0-0.1-0.1-0.3 0-0.5 0q-0.1 0-0.1 0c0.1 0-0.1-0.2 0.1-0.1q0 0 0-0.1 0 0-0.1 0 0 0.1-0.1 0.1c0 0 0 0.1 0 0.1h-0.3q-0.1-0.1-0.2-0.1-0.4 0.1-0.8 0.1-0.3 0-0.6 0l-0.5-0.1c-0.1 0-0.2 0-0.4 0-0.3 0.1-0.6 0.1-0.9 0-0.2 0-0.4 0-0.6-0.1-0.1-0.1-0.2 0.2-0.3 0.1-0.1-0.2-0.3 0.1-0.6 0 0-0.1-0.1-0.3-0.2-0.2-0.1 0-0.2-0.1-0.3-0.1-0.1 0-0.2 0-0.3 0-0.1-0.1-0.2-0.2-0.3-0.3q0 0 0 0c-0.1 0.3-0.2 0.2-0.3 0.1v-0.5q0 0.1 0.2 0.1c0.2-0.1 0.4 0.2 0.6 0 0 0 0.1 0.1 0.1 0.1 0-0.1 0.2-0.1 0.2-0.2 0-0.1-0.1 0-0.2 0-0.1 0-0.1 0-0.1-0.1q0.1-0.1 0.1-0.1c-0.2 0-0.4-0.1-0.5 0.1q-0.1 0-0.2 0 0 0 0-0.1 0 0 0-0.1c-0.1 0-0.1 0-0.1 0 0 0.3-0.1 0.2-0.1 0.1v-0.6c0 0.1 0-0.1 0 0q0-0.1 0-0.1v-0.1q0 0 0 0c0.1-0.1 0.3 0 0.2-0.2q0-0.1 0-0.1 0 0 0 0 0 0 0 0c0 0.2 0.2 0 0.2 0.1 0 0 0 0.1 0 0.2 0.1 0 0.1-0.1 0.1-0.2 0-0.1 0-0.1 0.2 0 0.1 0 0.1-0.1 0.2-0.2 0.1 0 0.2 0 0.3 0.1 0 0 0 0 0 0 0.1 0.1 0-0.2 0.1 0 0 0 0.1-0.1 0.2-0.1 0.2-0.2 0 0.2 0.1 0.1 0 0.1 0 0.2 0.1 0.1 0-0.1 0.1 0 0.1 0q0 0 0 0.1 0-0.1 0-0.1-0.1 0-0.1 0c0.1 0.1 0.1 0.2 0.2 0.2q0.3 0.1 0.6 0.1c0.1 0 0.1 0 0-0.1q0 0-0.1 0c-0.1 0-0.2 0.1-0.2-0.1 0 0 0.3 0 0.3-0.1 0.1-0.2 0.4 0.2 0.4-0.1q0.1 0 0.1-0.1-0.1 0-0.1 0c-0.1 0.1-0.1 0.1-0.3-0.1 0.2 0.1 0.3 0.1 0.4 0.1 0.2-0.1 0 0.1 0.1 0.1 0.1 0 0.1-0.1 0.2-0.2 0 0 0.1 0 0.2 0l-0.1 0.2q0 0 0 0c0 0 0.1-0.1 0.1 0 0.2 0.1 0.3-0.1 0.5-0.2 0.2-0.1 1 0 1.1 0.2 0.1 0.2 0-0.1 0.1 0 0.1 0.2 0.3 0 0.3-0.1 0-0.3 0.1 0 0.2-0.1 0.1-0.1 0.2 0 0.3 0q0.1 0 0.1 0c0.1 0.3 0.2-0.2 0.3 0 0.1-0.2 0.3 0.3 0.4-0.1-0.1 0.3 0.2 0.1 0.3 0.3q-0.1 0-0.1 0 0 0 0 0.1 0 0 0.1 0.1v-0.1q0 0 0 0c0.1 0 0.2-0.1 0.3 0 0.1 0.1 0.1 0.1-0.1 0.2q0.1 0 0.1 0h0.2v-0.1c0-0.1 0-0.1 0-0.2 0.1-0.1 0.2-0.2 0.3 0q0 0 0.1 0l0.1-0.1q0 0.1 0 0.1c-0.1 0-0.1 0.1-0.1 0.1q0.1 0.1 0.2 0.1l-0.1-0.1h-0.1q0.1-0.1 0.1-0.1c0.1 0.2 0.3 0.1 0.4 0.1l0.1-0.1q0 0 0 0 0.1-0.1 0.3-0.3 0 0 0.1 0c0 0.1 0.2 0 0.2 0.1 0 0.1 0 0.1 0 0.2v-0.2c0 0 0.1 0 0.1 0l0.4-0.1q0 0.1-0.1 0.2 0 0 0.1 0.1 0 0 0 0c0 0 0-0.1 0-0.1 0.1 0 0.1 0.2 0.3 0.1 0 0 0.1-0.2 0.1-0.3q0 0 0 0c0.1-0.1 0.3-0.1 0.3-0.1 0.1 0.1 0.2-0.1 0.3 0q0 0 0.1 0l-0.1 0.2q0-0.1 0-0.1 0-0.1 0-0.1l-0.2 0.1q0.1 0 0.1 0 0 0 0 0.1 0 0 0 0 0 0-0.1 0 0 0-0.1 0v0.2h0.1c0.1 0 0.2 0 0.2 0 0 0.1-0.1 0-0.1 0l-0.1 0.1q0.1 0 0.2 0 0.3 0 0.6-0.1c0 0 0 0 0 0q-0.1 0-0.1-0.1c-0.2 0 0-0.2-0.1-0.2h0.2l-0.1 0.1q0 0 0 0 0.1 0 0.1 0 0-0.1 0-0.1 0-0.1 0-0.1 0 0 0 0l0.6 0.3c0-0.4 0.1-0.1 0.2 0 0.2 0 0.1-0.1 0.1-0.2 0.2-0.1 0.4 0 0.6-0.1 0.1 0 0.3-0.1 0.5-0.1q0.1 0 0.2 0.1c-0.1 0-0.1 0-0.1 0q-0.1 0-0.1 0v0.1q0.1 0 0.3-0.1c0 0 0.1 0.1 0.1 0.1 0.1 0.1 0.2-0.2 0.3-0.1q0 0 0 0 0 0 0 0.1-0.1 0-0.1 0c0 0 0 0.1 0 0.1q0.1 0 0.1-0.1 0.1-0.1 0.1-0.1c0 0 0.1 0 0.1 0 0.2 0.1 0 0.1 0 0.1 0 0 0 0.1 0 0.1 0.1 0 0.2-0.1 0.2 0 0.1 0 0.1 0 0.2 0.1q0 0 0 0.1 0 0 0 0l0.2-0.1-0.1 0.1q0 0 0 0.1l0.2-0.1q0 0 0.1 0c-0.2 0 0.1-0.3-0.2-0.2 0 0-0.1 0 0 0 0-0.1 0.1-0.1 0.1-0.1 0-0.1-0.4-0.1-0.2-0.3 0.1 0 0.2 0.1 0.2 0.2q0 0.1 0 0.1 0-0.1 0.1-0.1 0-0.1 0-0.1 0 0.1 0.1 0.1 0 0.1 0 0.1 0 0 0 0v-0.1l0.1-0.1q0 0 0.1 0c0.1 0.1 0.3 0.1 0.3-0.1 0 0 0.2 0 0.2 0 0.1 0 0.1 0.1 0.1 0.1q-0.1 0-0.1 0c0 0-0.1 0-0.1 0 0 0.1-0.2 0.2 0 0.3 0 0.1 0 0 0 0q0-0.1 0-0.1c0-0.2 0.2-0.1 0.3-0.1 0.1-0.1 0.2-0.1 0-0.2q0.1 0 0.2 0c0 0 0 0 0 0q0 0.1 0 0.1 0 0 0.1 0 0.2-0.2 0.3 0 0.1 0 0 0.1v-0.1q0 0-0.1 0 0 0.1 0 0.1c0 0 0 0.1 0.1 0.1q0 0 0-0.1h0.1c0 0 0.1 0 0.1 0-0.1 0-0.2 0.1-0.1 0.1l-0.1 0.1h0.2c0 0 0-0.1 0-0.2 0.1-0.1 0.2-0.2 0.3-0.3 0.1 0 0.1 0.1 0.1 0.2q0 0 0 0c0-0.3 0.3 0 0.4-0.2q0 0 0.1 0c-0.1 0.1 0.1-0.1 0.1 0.1q0.1 0 0.2 0l0.6-0.1c0.2 0 0.4 0 0.5 0 0.4-0.1 0.8-0.1 1.2 0 0.2 0.1 0.4-0.1 0.6-0.1 0.1 0.1 0.3-0.1 0.4 0.1 0.2 0.3 0.3-0.1 0.5-0.1 0.1 0.1 0.3 0 0.5 0 0.2 0 0.4 0.1 0.5 0.3q0 0 0 0 0 0 0-0.1v-0.1q0.1 0 0.2 0c0 0.1 0 0.1 0 0.1 0 0 0.1-0.1 0-0.1 0-0.3 0.2 0 0.2-0.1h0.5c0.1 0 0 0.1 0.1 0.1 0.2 0.1 0.4-0.1 0.6-0.1 0.1 0 0.2-0.1 0.3 0 0.2-0.2 0 0.2 0.1 0.1q0.1 0 0.1-0.1c0 0-0.1 0 0 0 0.2-0.1 0.4-0.1 0.6 0.1q0 0 0.1 0v-0.2q0 0.1 0 0.1c0 0.1 0 0.2 0.1 0.1 0.1 0 0.1-0.1 0.1-0.1 0.1 0 0.1 0 0.2 0l-0.1 0.1q0 0-0.1 0.1 0 0 0 0l0.4 0.1q0 0 0-0.1l-0.1-0.1c0 0.2-0.1 0.1-0.1 0 0 0 0.1-0.2 0.2-0.1 0 0.1 0.1 0.1 0.1 0.1 0.2 0.1 0.1-0.1 0.1-0.1 0.2-0.2 0.2 0.1 0.3 0 0.1 0 0.1 0.2 0.1 0.1 0-0.1 0.1-0.1 0.1-0.1 0.1-0.1 0.1-0.2 0.3 0 0.1 0 0.3-0.1 0.4-0.1 0.2 0 0.4-0.1 0.5 0.1q0 0 0.1 0c0-0.2 0.1-0.1 0.2 0 0.1 0 0.2-0.1 0.3-0.1q0.5 0 1-0.1c0.1 0 0.3 0.2 0.4 0 0 0 0.1 0.1 0.1 0.1q0-0.1 0.1-0.1 0.2 0.1 0.4 0.1c0.1 0 0-0.1 0.1-0.1 0.4 0 0.7 0 1 0h0.5l0.5-0.1c-0.1 0.1 0.1 0.1 0.1 0.1 0.1-0.2 0.4 0.2 0.5-0.1 0 0 0.2 0.1 0.2 0.1 0.2 0.1 0.2 0 0.3 0 0.3-0.1 0.6-0.1 0.9 0q0.3 0 0.5 0 0 0 0 0 0.1 0.1 0.1 0.2c0.1-0.1 0-0.2 0-0.2v-0.1l0.2 0.2c0-0.1 0-0.1 0-0.1 0.1-0.1 0.2-0.1 0.3-0.1 0.2 0 0.4 0 0.6 0 0.3 0.1 0.6 0 1 0 0.2 0 0.5-0.1 0.8 0 0.2 0 0.3-0.1 0.5 0 0.1 0 0.2 0.1 0.3 0 0.1 0 0.2 0.1 0.3 0.1 0.3 0.1 0.5-0.2 0.8-0.1 0.1 0.1 0.2 0 0.3-0.1 0.1 0-0.1 0.2 0.1 0.1 0.3-0.1 0.6-0.1 0.9 0 0.2 0 0.2 0 0.3-0.1 0 0.1 0 0.1 0.1 0.1 0.1 0 0.3-0.1 0.4-0.1q0.4-0.1 0.8 0c0.5 0 1 0.1 1.5-0.1 0 0.3 0.2-0.1 0.2 0.1 0 0 0 0 0.1 0h-0.1q0 0 0-0.1 0 0 0.1 0l0.3 0.1q0 0 0.1 0l0.5-0.2c0 0 0 0 0 0 0 0 0.1 0 0.1 0q0 0.1 0.1 0.1zm-39.9-0.1q0.2 0 0.3 0 0 0 0.1 0c-0.1-0.1-0.2-0.3-0.3-0.3-0.2 0 0.1 0.2-0.1 0.3zm-2.5 0.7h0.1c0 0.1 0.2 0 0.2 0.1l0.1-0.1c-0.1-0.1-0.2-0.1-0.3 0l-0.1-0.1q0.1 0 0 0 0 0 0 0.1zm-1.8 0.6q0.1 0.1 0.1 0.2 0.1-0.1 0.2-0.2-0.1-0.1-0.2-0.1c0 0-0.1 0-0.1 0.1zm-0.5-0.3c0 0 0.1-0.1 0.1-0.2-0.2-0.1-0.4 0.2-0.5 0l-0.1 0.1c0.1 0.2 0.4-0.1 0.5 0.1zm0 0.4c0 0-0.1 0-0.1 0q0 0-0.1 0l0.1 0.2h0.1q0-0.1-0.1-0.1c0-0.1 0.2 0 0.1-0.1zm0.3-0.1c0-0.1 0.1-0.1 0.1-0.1q-0.2 0-0.4 0-0.1 0-0.1 0 0.2 0.1 0.4 0.1zm1.1 0.5q-0.1 0-0.2 0h0.1v0.1q0 0-0.1 0 0 0 0 0c-0.2-0.1-0.4-0.3-0.6-0.2-0.1-0.1-0.2-0.1-0.3 0.1q0.1 0 0.2 0 0-0.1 0.1-0.1c0 0 0.2 0 0.1 0.1q0.3 0.1 0.6 0.2c0 0 0-0.2 0.1 0q0-0.1 0-0.1c0 0 0-0.1 0-0.1zm1.3 0h-0.3c0 0-0.1 0-0.1 0.1q0 0 0.1 0 0 0.1 0.1 0.1 0 0 0 0c-0.2-0.2 0.1-0.1 0.2-0.1zm0-0.7q0-0.1 0-0.1c0 0 0 0 0-0.1q-0.1 0-0.1 0.1 0-0.1 0-0.1 0 0 0.1 0c0.2 0 0.3 0 0.1 0.2q0 0 0 0c0 0 0 0.1 0 0.1q0.1-0.1 0.2-0.2c-0.1 0 0-0.2-0.2-0.2-0.1 0-0.2 0-0.3 0 0 0-0.1 0-0.1 0.1-0.3-0.2-0.5 0.1-0.8 0 0-0.1-0.1 0-0.1 0 0 0-0.1 0.1 0 0.1q0 0 0 0.1-0.1 0-0.2 0-0.1 0-0.2 0 0 0 0.1 0 0 0 0.1 0.1 0.1 0 0.1 0 0.1 0 0.1 0c-0.1 0-0.1 0-0.1 0 0 0.1-0.2 0 0 0.1q-0.2 0-0.1 0.2 0 0 0.1 0 0.1 0 0.1 0 0 0 0 0-0.1 0.1-0.2 0.1c0 0 0.1 0 0.1 0q0.2 0 0.2-0.1c0.2-0.2-0.1-0.1-0.1-0.2 0.2 0.1 0.2-0.2 0.3-0.3 0.2 0 0.4 0 0.5 0q0 0 0.1 0 0 0-0.1 0.1 0 0 0 0c-0.2-0.1-0.3 0.2-0.4 0.1q0 0 0 0.1 0 0 0 0c0.1-0.1 0.1 0 0.1 0v0.1c-0.1 0-0.1 0 0 0.1 0 0 0 0.1 0 0.1q0 0.1 0.1 0.1c0 0 0 0 0 0q0-0.2-0.1-0.3v-0.1c0.1 0.1 0-0.1 0.2 0 0 0 0.2 0 0.3-0.1 0 0 0 0 0 0-0.1-0.2 0.2 0 0.1-0.2zm0.5 0.5q-0.1-0.1-0.2-0.1h-0.1q0 0 0 0 0 0 0 0 0 0.1 0 0.2 0 0 0 0.1l0.2-0.2q0.1 0 0.1 0zm-0.4-0.4c0 0.1 0.1 0.2 0 0.2 0 0-0.1 0.1-0.1 0.1 0.1 0 0.1-0.1 0.1 0 0-0.1 0.2-0.2 0-0.3zm0 0.3q0 0 0.1 0-0.1 0-0.1 0zm0.9 0l-0.2 0.1-0.1 0.1c0-0.2-0.1 0-0.2 0 0.1 0 0.1 0.1 0.1 0.1 0 0.1 0.2 0.1 0.1 0.2q0 0-0.1 0 0.1 0 0.1 0 0 0 0 0c0.2 0 0-0.1 0.1-0.1q0-0.2 0.1-0.1c0.1 0 0.2-0.1 0.3-0.2 0-0.1-0.2 0.1-0.2-0.1zm0.5 0.1c-0.1-0.1 0 0.3-0.2 0.1v0.3c0.1-0.1 0.1-0.2 0.2-0.3 0 0 0.1-0.1 0-0.1zm0.8-0.3c0-0.1 0.1 0.1 0.1-0.1 0.1-0.1 0.3 0.3 0.3 0q0-0.1 0-0.2-0.1 0-0.2-0.1 0 0-0.1 0c0-0.1 0-0.2 0-0.2-0.1 0-0.3 0-0.4 0-0.1 0.1-0.3-0.1-0.4 0.1-0.1-0.2-0.2-0.1-0.3-0.1l0.1-0.1q-0.1 0-0.2 0c0 0 0 0.1 0 0.2 0 0.1-0.2 0-0.2 0.1q0 0 0 0v-0.1q0 0 0-0.1 0 0 0 0c-0.2 0.1-0.3 0.3-0.6 0.2q0-0.1-0.1-0.1l0.1 0.3c0-0.2 0.1 0.1 0.2 0q0 0 0-0.1 0 0 0 0h0.1l-0.1 0.1v0.1h0.2q-0.1-0.1-0.1-0.1 0-0.1 0.1-0.1c0 0.1 0.1 0.2 0.2 0.3 0 0 0 0 0 0q-0.1 0.1-0.2 0.1h0.5c0 0 0 0 0 0-0.1-0.1 0.2-0.1 0.1-0.2q0 0 0-0.1 0 0 0.1 0h0.6c0 0-0.1 0.1 0 0.1 0.1 0 0.1 0 0.2 0.1zm1.3 0.5q0-0.1 0-0.2c-0.1-0.1-0.1 0.1-0.1 0-0.2-0.2-0.5 0.1-0.6-0.1q0 0 0 0.1-0.1 0-0.2 0c0 0 0 0 0-0.1-0.1-0.1-0.3 0-0.3-0.2q0 0.1 0 0.1 0 0 0 0c0.1 0.1 0 0.1-0.1 0.2 0 0-0.1 0.1 0 0.1q0.1 0 0.2 0.1c0.1 0 0.2 0.1 0.2 0.1 0.1-0.1 0.2 0.1 0.2 0.1 0.1-0.3 0.3-0.3 0.6-0.4-0.1 0.1 0 0.2-0.1 0.1q-0.1 0-0.1 0v0.1q0 0 0.1 0l0.2-0.1c0 0 0 0.1 0 0.1zm0.1-1c-0.1 0-0.2-0.1-0.2 0-0.1 0 0 0.1 0 0.1 0.1 0 0 0.1 0.1 0.1 0.1 0 0-0.2 0.1-0.2zm1-0.2l-0.1 0.1c0 0.1-0.3 0-0.2 0.2 0 0.1-0.2-0.1-0.1 0.1 0 0 0.1 0.1 0.2 0 0.1 0.2-0.2 0-0.2 0.2q0 0 0 0c0-0.3-0.3-0.4-0.5-0.4q0 0 0 0 0 0.1 0 0.1c0.1 0.1 0.2 0.1 0.3 0.2 0.1 0.1 0.1 0.2 0.2 0.3 0 0.1-0.1 0.1-0.1 0.1-0.1 0-0.2-0.1-0.2 0q0.1 0.1 0.2 0.1 0.1 0 0.3 0c-0.1 0.1 0.2 0.1 0.1 0.2 0.1 0 0-0.1 0-0.2 0.1 0 0.1-0.1 0-0.1 0 0 0 0.1 0 0.1-0.1 0-0.1-0.2-0.2-0.1 0-0.1-0.2-0.3 0.1-0.4 0.1 0 0.2 0.1 0.2 0 0 0-0.1-0.1-0.2-0.1v-0.1q0 0 0.1 0.1c0 0 0.1 0 0.1 0zm0.4 0.6q0.2 0 0.4-0.1c0.2 0 0.4-0.2 0.6-0.1 0 0.1 0.1 0 0.1 0q0-0.1 0.1-0.1h-0.1c-0.2 0-0.3-0.1-0.4 0-0.1 0-0.1-0.1-0.1-0.1-0.1-0.1-0.1 0-0.1 0-0.1 0-0.1 0.1-0.2 0.1q0 0 0 0 0-0.1 0-0.1 0 0 0.1 0-0.1-0.1-0.1 0 0 0-0.1 0 0 0.1-0.1 0.2c0 0-0.1-0.1-0.1-0.1q0-0.1 0-0.1 0 0 0 0c0.1 0 0.1 0.2 0.1 0.1 0.1-0.1 0-0.2 0-0.3 0-0.1-0.1-0.1-0.2-0.1-0.1 0.3 0.1 0.5 0.1 0.7zm0.9 0.6c-0.1-0.1 0-0.2-0.2-0.3-0.1 0-0.2-0.1-0.3-0.1-0.1 0 0.1 0.1 0 0.1q-0.1 0-0.1-0.1c-0.1 0-0.1 0-0.1-0.1-0.1 0 0.1 0.3-0.2 0.3q0 0 0.1 0c0.1 0.1 0.2 0.1 0.3 0 0.1 0.1 0.2 0.2 0.3 0.1 0 0 0.1 0 0.1 0 0 0.2-0.2 0.1-0.2 0.2 0 0-0.1 0-0.2 0q0.2 0 0.3 0c0 0 0.2 0 0.2-0.1zm0.8-0.3q-0.1 0-0.1 0 0 0 0 0c-0.2 0.1-0.4 0-0.4 0-0.2-0.2-0.2 0.1-0.3 0l-0.1 0.1h0.2c0.2 0 0.3 0.1 0.3 0.2 0 0 0 0.1 0 0.1q0 0 0.1 0c0.1-0.1-0.2-0.2 0-0.2 0.1 0 0.3 0 0.3-0.2zm1.2-0.7q0 0 0.1-0.1h-0.1l-0.2 0.1c0 0-0.1-0.1 0-0.1q0 0 0.1-0.1 0 0 0.1 0.1 0-0.1 0-0.1c-0.1 0-0.1-0.1-0.1 0-0.1 0-0.3-0.1-0.4 0 0 0-0.1-0.1-0.2-0.1q0 0 0 0v-0.1h-0.1c0.1 0.1-0.1 0.2 0.1 0.2-0.2 0.1 0.1 0.2 0 0.2-0.1 0-0.2-0.1-0.3 0q-0.1 0.1-0.2 0.2 0 0 0.1 0c0.3 0 0.2 0 0.3 0 0.2-0.1 0.5-0.2 0.7 0 0.1 0 0-0.2 0.1-0.2zm0.2-0.1q0 0 0 0-0.1 0.1-0.2 0.1l0.2 0.2zm0.4-1.2q-0.1 0-0.2-0.1v0.1q0 0 0 0 0 0 0 0-0.1-0.1-0.2-0.1c-0.1 0-0.1 0-0.1 0.1 0 0 0 0 0 0 0.2-0.1 0.2 0 0.3 0.1 0 0.1 0.1 0.1 0.1 0.1 0.1 0 0.1-0.1 0.1-0.2zm0.5 1.2c-0.1-0.2-0.1 0-0.2 0.1 0 0-0.1-0.1-0.1-0.1q0 0-0.1 0.1c0.1 0.1 0.2 0 0.3-0.1q0.1 0 0.1 0zm1.8-0.1q0 0 0 0l0.1 0.1 0.1-0.1-0.4-0.2v0.1 0.1l-0.1-0.1q-0.1 0-0.2-0.1c0 0-0.1 0.1-0.1 0.2 0.1 0.3-0.1 0.1-0.2 0q0 0 0 0c0 0 0 0.1 0 0.1 0.2 0 0.3 0.2 0.4 0.1 0.1 0 0.2 0 0.2 0 0.1 0.4 0.3 0 0.4 0q0 0 0 0 0-0.1-0.1-0.1 0 0 0 0c0 0.2-0.1 0.1-0.1 0q-0.1 0-0.1 0.1c0-0.1-0.1-0.1-0.1-0.1q-0.1-0.1-0.1-0.1l0.3-0.1q0 0 0 0.1zm0.6 0.2h-0.1q0 0 0-0.1c0 0-0.3 0-0.1-0.1q0.2 0 0.1-0.1-0.1 0-0.2 0c0 0.1-0.1 0.1 0 0.2q0 0.2 0.2 0.1 0 0 0 0 0 0 0 0 0 0 0.1 0zm1-1.2c-0.2 0-0.3 0-0.4 0 0 0-0.1 0.1-0.1 0.1 0 0 0.1 0.1 0.1 0.1 0.1 0 0.2-0.1 0.4-0.2zm0.4 1.1q-0.3-0.1-0.5-0.2l-0.1 0.2q0 0 0 0.1l0.4-0.1q0 0 0 0.1 0.1 0 0.1 0l-0.1 0.1v0.1q0.1-0.1 0.2-0.3zm0.7 0c-0.2-0.3-0.3 0.1-0.4 0 0 0.1-0.1 0.2-0.1 0.3 0 0.1 0.1-0.1 0.2 0l0.2-0.2h-0.1c0.1-0.1 0.2-0.1 0.2-0.1zm0.5-0.3h-0.3q0 0-0.1 0.1 0.2 0.1 0.3 0.1c0 0 0.1-0.1 0.1-0.2zm1.6 0.3q0-0.1 0-0.2c-0.2-0.3-0.3 0-0.5-0.1q0.1 0.1 0.1 0.2c0 0-0.2-0.1-0.1 0 0 0 0.1 0 0.1 0l0.2-0.1c-0.1 0.2 0.2 0.1 0.2 0.2q0 0 0 0zm0.5-1.3c0 0.1 0.1 0.1 0.1 0.1 0.1 0 0.2-0.1 0.2-0.1 0-0.2-0.2 0-0.2-0.1-0.1 0.1-0.1 0.1-0.1 0.1zm0.1 0.8c-0.1 0 0.1-0.2-0.1-0.1q-0.1 0-0.2 0.1-0.1 0.1-0.1 0.2 0.1 0.1 0.2 0.1c0.1 0 0.1 0 0.2 0q-0.1-0.1-0.2-0.1h-0.1l0.2-0.2q0 0 0 0c0 0.2 0.1 0 0.1 0 0.1-0.1 0 0 0 0zm0.6-0.2c-0.2-0.2-0.2 0.1-0.3 0.1-0.1 0-0.1 0.1-0.2 0.2 0.2 0 0.4-0.1 0.4-0.3q0 0 0.1 0zm0.7 0.9l-0.3-0.2c0.1 0.1-0.1 0.2 0 0.2 0 0.1 0.2-0.1 0.2 0.1zm0.4-0.2c0 0 0.1-0.1 0.1-0.1-0.1-0.2-0.4 0-0.5-0.2q0 0 0 0.1c-0.1-0.1-0.1 0-0.2 0.1 0 0 0 0.1 0.1 0.1 0.1 0 0 0 0-0.1 0 0 0.1-0.1 0.1-0.1 0.1 0 0.2 0.1 0.2 0.1 0 0.2 0.2 0.1 0.2 0.2q0-0.1 0-0.1zm1.5-0.4c-0.4 0-0.4 0-0.3-0.2 0 0-0.1-0.1-0.1-0.1-0.2 0 0 0.3-0.1 0.3 0.1 0.2 0.2 0.1 0.5 0zm0.3-1h0.3q-0.1-0.1-0.2-0.1c0-0.1-0.1 0-0.2 0 0.1-0.2-0.1-0.1-0.1-0.2 0 0-0.1 0-0.2 0-0.1 0.2 0.2 0.2 0.2 0.3 0.1 0 0.2 0 0.2 0zm0.4 0.9c-0.2 0-0.3-0.1-0.4 0.1h-0.1q0.2 0 0.4 0.1c0 0 0.1-0.2 0.1-0.2zm0-1q0.1 0 0.2-0.1-0.2 0-0.3-0.1c-0.1 0.2 0.2 0 0 0.2q0.1 0 0.1 0zm0.4 1.6q0.1 0 0.1-0.1l-0.4-0.1c0 0 0 0.1 0 0.1 0 0.3 0.2-0.1 0.3 0.1zm0.1 0.1c0 0-0.1 0-0.2 0 0 0 0 0 0 0q0.1 0.1 0.2 0.2 0-0.1 0-0.2zm0.3-1.9c-0.2-0.1-0.2 0.1-0.1 0.1q-0.1 0.2 0.1 0.2-0.1-0.1 0-0.1c0-0.1-0.2-0.1 0-0.2zm2.3-0.1c0-0.1-0.1 0-0.1-0.1-0.1 0.1-0.2 0.2-0.2 0.2 0.1 0.2 0.1 0 0.1 0 0.1 0 0.2 0.1 0.1 0.1 0.1 0.2 0.1 0 0.2 0 0-0.1 0-0.2-0.1-0.2zm1 0.7c0 0-0.1 0-0.1 0q-0.1 0-0.2 0.1 0 0 0.1 0.1 0.1-0.1 0.2-0.2zm0.2 0.5q-0.1-0.1-0.2-0.2c0 0-0.1 0.1-0.1 0.1q0.1 0.1 0.2 0.2c0.1 0 0.1-0.1 0.1-0.1zm1.7 0.1c-0.2 0 0-0.1 0-0.1-0.3 0-0.1 0.1-0.1 0.3q0 0 0 0c0.1 0 0.2-0.1 0.2-0.1 0-0.1-0.1-0.1-0.1-0.1zm0.2-0.3q0 0 0 0-0.2 0-0.4 0.1v-0.1q0 0 0 0 0 0 0 0.1 0 0 0 0 0.2 0 0.4 0 0 0 0-0.1zm0.3-0.8q-0.1 0-0.3 0 0 0-0.1 0.1l0.3 0.1c-0.1-0.1-0.1-0.2 0.1-0.2zm0.5 0.1q0 0 0 0v0.2c0.1 0 0.1 0.2 0.1 0 0.1 0 0-0.1-0.1-0.2zm0.8 0.4l-0.2 0.3c0.1 0 0.1 0 0.1 0q0.2-0.1 0.3-0.2c0 0-0.1-0.1-0.2-0.1zm2.3 0c-0.1 0-0.1-0.1-0.2-0.1q-0.1 0.1-0.2 0.2c0.1 0 0.2 0.1 0.3 0q0 0 0.1-0.1zm0-0.1c0 0.2 0.2 0.1 0.3 0.2q0.1 0 0.1-0.1l-0.3-0.2c0 0-0.1 0.1-0.1 0.1zm0 0.5q0.1 0.1 0.2 0.2c0-0.1 0.1-0.1 0.1-0.2q-0.1 0-0.2-0.1c0 0-0.1 0.1-0.1 0.1zm0.6 0.4q-0.3-0.1-0.5-0.2 0 0.1-0.1 0.2h0.5q0 0 0.1 0zm1.8-0.7c0-0.1-0.1-0.2-0.2-0.2 0 0-0.1 0.1-0.1 0.1 0.1 0 0.1 0.2 0.2 0.1zm1.1 0.5c0-0.2 0 0-0.1-0.1q0 0.1 0 0.2 0 0-0.1 0l0.2 0.1c0-0.1 0-0.2 0-0.2zm6-0.1q-0.1 0-0.2 0-0.1 0-0.1 0 0.1 0.1 0.2 0.2c0 0 0.1-0.1 0.1-0.2z"/><path class="a" d="m42.8 2.4q0 0 0 0z"/><path class="a" d="m34.7 2.7z"/><path class="a" d="m34.7 2.7z"/><path class="a" d="m7.3 1.3z"/><path class="a" d="m20.3 2.6c0 0 0 0 0.1 0h-0.1q0 0 0 0z"/><path class="a" d="m12.2 3.3v0.1l0.1-0.1z"/><path class="a" d="m34.9 1.8q0 0 0 0z"/><path class="a" d="m8.2 3.1z"/><path class="a" d="m26.5 2.4z"/><path class="a" d="m8.4 2.3q0 0 0 0.1v-0.1z"/><path class="a" d="m6.7 3.4z"/><path class="a" d="m17.5 3.6z"/><path class="a" d="m16.3 3.6q0 0-0.1 0.1l-0.1-0.1q0.1 0 0.1 0 0 0 0 0 0-0.1 0-0.1-0.1 0.1-0.1 0.1h-0.2q0-0.1 0-0.1 0 0.1 0 0.1 0 0 0 0c0.2 0 0.3 0.1 0.3 0.2 0.1 0.2 0.2 0 0.3 0.1l0.1-0.1v-0.2z"/><path class="a" d="m5.2 3.5q-0.1 0-0.1 0c-0.1-0.1-0.3 0.1-0.4-0.1q0-0.1 0-0.1v0.3q0.2 0 0.3 0c0.1 0 0.1 0 0.2-0.1z"/><path class="a" d="m16.9 3.7q-0.1 0-0.1 0 0 0-0.1 0 0 0 0 0c0.2-0.1 0.2-0.1 0 0-0.1 0.1 0-0.2-0.1-0.1v0.2c0.2 0.2 0.3 0 0.5 0v-0.1l-0.1-0.1c0 0.1-0.2-0.1-0.1 0.1z"/><path class="a" d="m6.8 1.6c0.1 0 0.3 0 0.4-0.1q-0.3-0.1-0.5-0.2c-0.1 0-0.1 0.1-0.1 0.1 0 0.1 0.1 0.2 0.2 0.2z"/><path class="a" d="m17.5 3.6z"/><path class="a" d="m17.4 3.5c-0.1 0-0.2 0-0.2 0.1-0.1 0.1-0.2-0.2-0.2 0l0.1 0.1c0.1 0.2 0.3 0.1 0.4-0.1-0.1 0-0.1-0.1-0.1-0.1z"/><path class="a" d="m12.9 1.2c-0.1-0.2-0.3 0.1-0.4 0q0 0-0.1 0.1c0.1 0 0.2 0.1 0.3 0.1 0.1 0 0.2-0.1 0.2-0.2z"/><path class="a" d="m19.1 3.6c0 0 0.1 0 0.2-0.1l-0.2-0.1-0.1-0.1-0.1 0.2q0.1 0.1 0.2 0.1z"/><path class="a" d="m24.8 3.3q0-0.1-0.1-0.1c0 0-0.1 0-0.1 0.1 0 0.2 0.2-0.1 0.2 0.1 0.1 0 0.2-0.1 0-0.1z"/><path class="a" d="m13.3 1.3q0 0 0 0-0.1 0-0.1 0 0 0-0.1 0 0.1 0 0.1 0 0 0.1 0 0.1 0 0.1 0 0.1c-0.1 0 0 0.1 0 0.1l0.1-0.1c0-0.1-0.2-0.2 0-0.2z"/><path class="a" d="m13.3 1.5q0 0 0 0z"/><path class="a" d="m20.4 3.3v0.2c0.1 0 0.1 0.1 0.2 0.1 0-0.1 0-0.2 0-0.3 0 0.1-0.1 0.2-0.2 0z"/><path class="a" d="m48.6 2.2q0 0 0 0l0.3 0.2c0 0 0.1-0.1 0.1-0.1-0.1-0.1-0.3 0.1-0.4-0.1z"/><path class="a" d="m33.8 2.9q-0.2 0.1-0.3 0.2 0.1 0 0.2 0 0 0 0.2-0.1c-0.1 0-0.1-0.1-0.1-0.1z"/><path class="a" d="m28.9 3.1v0.2q0.1 0 0.2 0 0 0 0 0.1c0-0.1 0-0.2 0-0.2-0.1-0.1-0.1-0.1-0.2-0.1z"/><path class="a" d="m36.9 2.8q-0.1 0.1-0.1 0.1 0.1 0 0.2 0.1c0-0.1 0-0.1 0-0.2q-0.1 0-0.1 0z"/><path class="a" d="m42.3 2.3c0 0.1-0.2 0.1-0.2 0.2 0.1 0.1 0.2-0.2 0.3 0q0 0 0-0.1c0 0 0-0.1-0.1-0.1z"/><path class="a" d="m23.6 3.3c0 0.1 0 0.2-0.1 0.3q0.1 0 0.1-0.1c0-0.2 0.1-0.1 0.1 0 0.1-0.2-0.1-0.1-0.1-0.2z"/><path class="a" d="m7 1.4l0.3-0.1c0 0 0 0-0.1 0 0 0.1-0.2 0-0.2 0.1z"/><path class="a" d="m7.3 1.3z"/><path class="a" d="m7.3 1.3z"/><path class="a" d="m20.4 3.5z"/><path class="a" d="m20.4 3.3q-0.1 0-0.1 0c0 0-0.1 0-0.1 0q0.1 0.1 0.2 0.3v-0.1c0-0.1-0.1-0.1 0-0.2z"/><path class="a" d="m20.4 3.5z"/><path class="a" d="m20.4 3.5z"/><path class="a" d="m34.7 2.7z"/><path class="a" d="m34.7 2.6c-0.1-0.1-0.1-0.1-0.1 0q0 0.1 0 0.2c0 0 0.1 0 0.1 0v-0.1z"/><path class="a" d="m34.7 2.7z"/><path class="a" d="m32.5 3.1q0.2 0 0.3 0 0.1 0 0.1 0h-0.3q-0.1 0-0.1 0z"/><path class="a" d="m11.3 2.9c0.1-0.1-0.1 0-0.1-0.2 0-0.1-0.1-0.2-0.2 0l0.2 0.2c0 0 0.1 0 0.1 0z"/><path class="a" d="m10.3 2.6c0 0.1 0.1 0.1 0.1 0.1q0.1 0 0.2-0.1-0.1 0-0.2-0.1c0 0-0.1 0.1-0.1 0.1z"/><path fill-rule="evenodd" class="a" d="m55.7 1c0.1 0.1 0 0.3-0.2 0.2 0 0-0.1 0-0.2 0 0-0.1 0 0-0.1 0 0.3 0.2-0.4 0.1-0.1 0.4-0.2-0.1-0.3 0.2-0.4 0.3 0-0.2-0.2-0.1-0.2-0.2-0.1 0 0.2 0 0-0.1q0 0 0.1-0.1h0.2q0 0 0 0l-0.4-0.1 0.1 0.2c-0.1 0-0.3 0-0.4 0q-0.4 0-0.7 0.1c0 0-0.1 0-0.1 0 0-0.1-0.2-0.1-0.1 0q0.1 0.1 0.2 0.1 0 0 0 0 0 0.1 0 0.1c-0.3-0.1-0.7-0.1-0.9 0.1q0 0-0.1 0 0-0.1-0.1 0h-0.1c0.2 0 0.2 0 0.2 0.1l0.2-0.1q0 0.2-0.2 0.2c0 0-0.1 0-0.1 0l-0.6-0.1c0 0.1 0 0.1 0 0.2-0.1 0.1-0.1-0.1-0.2 0-0.1 0.1-0.1 0.1-0.1-0.1 0 0-0.1-0.1-0.1 0-0.1 0.1-0.2-0.1-0.3 0q0 0-0.1 0 0 0 0 0l-0.1-0.1v-0.2q0.2 0 0.4 0 0.1 0 0.2-0.1h-0.5q-0.1 0-0.1 0.1l-0.1-1.6c0.1 0 0.1-0.1 0.2 0q0 0 0.1 0l-0.1-0.1h-0.1q0 0 0-0.1h0.2c0 0.4 0.2 0.1 0.3 0.2 0.1 0 0.2 0 0.3 0q0.1 0 0.1 0 0 0 0 0 0.1-0.1 0.1-0.1 0.1 0 0.2 0c0.3 0 0.6-0.1 0.9-0.1 0.1 0 0.2 0 0.3 0 0.3-0.1 0.6 0 0.9 0.1q0-0.1 0-0.1c0-0.1 0.1-0.1 0.1-0.1 0 0 0.1 0 0.1 0 0.1 0.1 0.3 0.2 0.4 0 0 0 0.1 0 0.1 0q0.1-0.2 0.1 0c0.2 0 0.2 0.1 0.3 0.2 0 0.2 0.1 0.2 0.2 0.2q-0.1 0-0.2 0.1-0.1 0-0.1 0.1 0 0 0.1 0 0 0 0.1 0-0.1 0-0.1 0.1c-0.2 0 0 0.2-0.1 0.3q0.1 0 0.3 0c0.1 0 0.3 0 0.3 0zm-4.2 0.6q-0.1-0.1-0.3-0.1c0-0.1-0.1 0-0.1 0q0.1 0.1 0.3 0.1zm0.1 0.4h-0.3q0 0 0 0.1c0 0.1 0 0.1 0.1 0 0.1-0.1 0 0.1 0.1 0.1 0-0.1 0.1-0.1 0.1-0.2zm0.6-0.2c0-0.1 0-0.1 0-0.1-0.1 0-0.1 0-0.2 0q-0.1 0-0.1 0c0-0.1 0.1-0.1 0-0.1q-0.1-0.1-0.2-0.1 0.1 0.1 0.1 0.2c0 0 0 0-0.1 0-0.1 0.1-0.2 0.1-0.1 0.3 0.1 0 0.1 0 0.1 0q0.1 0 0.1-0.1l-0.1-0.1h0.2zm0.3-0.1c-0.1-0.1-0.3-0.2-0.4-0.1-0.3 0 0 0 0 0 0 0.2 0.1 0 0.1 0.1z"/><path class="a" d="m55.7 0.2q0 0 0 0l0.2 0.3q0-0.1 0-0.2z"/></svg>