<svg version="1.2" xmlns="http://www.w3.org/2000/svg" viewBox="0 0 96 91" width="96" height="91"><style>.a{fill:#229580}</style><path fill-rule="evenodd" class="a" d="m94.5 25.4c0.2 0.1 0.8-1 0.8 0.3 0.1-0.1 0.2-0.1 0.3-0.2 0-0.2 0.1-0.6 0.1-0.7-0.1-0.3-0.3-0.4-0.4-0.5 0 0.1 0 0.3 0 0.4q-0.2 0.1-0.4 0.1c-0.1 0.1-0.2 0.1-0.3 0-0.2-0.7-0.4 0-0.6 0.1 0-0.9-0.4-2.4-0.1-3.5 0 0-0.1-0.1-0.1-0.1q-0.1 0.1-0.1 0.3-0.2 0.5-0.4 1.1c0.1-0.6 0.1-1.1 0.2-1.5 0-0.1 0.4 0 0.6 0 0.2 0.1 0.3 0.2 0.5 0.3l-0.5-0.8c-0.1-0.2-0.3-0.4-0.2-0.4 0.6-1.2-0.4-1.7-1-2-0.2-0.1-0.4 0.2-0.6 0.4q-0.3 0.2-0.6 0.4l-1-1.5c0 0 0.1-0.1 0.2-0.2 0.6 0.6 1.2 0.6 1.1-0.4-0.1-0.5-0.6-1-0.9-1.5 0 0-0.2-0.1-0.2-0.1q-0.2 0.2-0.3 0.4c0-0.3 0-0.7 0-1 0.1-0.1 0.3-0.1 0.5-0.1 0 0 0.1 0.2 0.2 0.3 0.4-0.6-1.1-1.6-0.1-2.2-1.5 0.9-0.6-1.7-1.7-1.4 0.6-1.1-1.9-0.2-1.2-1.5 0.1 0-0.1-0.2-0.2-0.3-0.5-0.5-0.9-1.2-1.8-1.3-0.4-0.1-0.2-1.7-1.2-0.7-0.2 0.1-1.3 0.5-1.5-0.7-0.1-0.5-0.5 1-0.4-0.2 0-0.7-0.9-1.9-2.2-2.9-1.3-1-3.2-1.8-4.3-1.7-1.1 0-2.2 0.8-3.8 0-0.2-0.1-0.8 0.2-1.2 0.3 0 0-0.1-0.1-0.1-0.1q0.4-0.4 0.9-0.8c-0.6 0-1.2-0.1-1.7 0.1-0.5 0.2-0.8 0.7-1.2 0.9-1 0.4 0.7-1-0.8-0.5-1 0.3-2 0.4-2.9 0.6 1 0.5 1 0.5 1.9-0.1 0.2-0.1 0.4 0 0.6-0.1 0 0.1-0.1 0.3-0.2 0.4-0.2 1.5-2.5 0-2.9 1.4 0 0.4-1.3 1-1.3 1.2 0.2 0.8 0.8 0.3 1.4-0.1 0.1-0.1 0.3-0.1 0.4-0.1 0.6-0.1 0.4 0.2 0.1 0.3-1.3 0.4-2.6 0.9-3.8 1.4-0.3 0.1-0.7-0.1-1.1-0.2 0.1 0 0.1-0.1 0.2-0.2q0.3-0.1 0.5-0.1c-0.1-0.1-0.1-0.3-0.2-0.3-0.3 0-0.7 0.2-0.7 0.2-0.2 0.8-0.3 0.7-0.5 0.2-0.5 0.7-0.6-1.4-1.2 0.1-0.1 0.3-0.6 1-0.6 1-1.3-0.4 0.1 0.5-0.4 0.5 0 0-0.1 0.1-0.2 0.1-0.7-0.4-1.1 0.4-1.5 0.8-0.2 0.3-0.1 0.9-0.2 1-1.1 0.7-1.2 0.7-0.7 1.1 0.3 0.4 0.4 0.7-0.2 1-0.1 0.1-0.4-0.3-0.7-0.5-0.4-0.3-0.2 1.1-0.7 0.5-0.1-0.1-0.1-0.2-0.2-0.2 0 0.1-0.2 0.2-0.2 0.2 0.1 0.2 0.2 0.4 0.3 0.4 1 0.2 0.1 0.9 0.1 1.3q0 0.2 0 0.4 0 0.2 0.1 0.4c0-0.1 0.1-0.2 0.1-0.2l0.6 0.5 2.2 1.8 0.8 0.6 1.1 1q0 0 0 0 0 0.1 0.1 0.3l-0.8-0.7-0.8-0.7-2.3-1.8q0 0.1-0.3 0c-0.3-0.1-0.6 0.2-0.9 0.3-0.2 0-0.6 0.1-0.7 0-0.2-0.2-0.1-0.6-0.3-0.8-0.2-0.1-0.6-0.1-0.9-0.1q0.2 0.2 0.5 0.4 0 0 0 0.1c-0.1 0-0.1 0.1-0.2 0.1-0.7-0.3-0.8 0.6-1.1 0.9-0.1 0 0.1 0.3 0 0.5 0 0.3-0.1 0.5-0.2 0.8 0-0.1-0.1-0.2-0.1-0.3-0.1 0-0.2 0-0.3-0.1l-0.3 0.9q0 0 0 0c-0.7-1.5-1.8-2.8-2.8-4.2-0.3-0.3-0.4-0.7-0.6-1-0.1-0.1-0.4-0.2-0.6-0.2 0-0.1-0.1 0.2-0.1 0.3-0.2-0.3-0.4-0.4-0.5-0.7-0.3-0.5-0.7-1-0.7-1.5 0-0.7-2.1-1-0.7-1.9q-0.3-0.4-0.6-0.7c-0.1 0-0.3-0.1-0.4-0.1q0.1 0.2 0.2 0.5 0.1 0.2 0.2 0.5c-0.1-0.1-0.4-0.2-0.4-0.4-0.1-0.2-0.5-0.4-0.7-0.7l-0.5 0.6 0.8-0.8c-0.2-0.2-0.3-0.5 0-0.8 0-0.1-0.4-0.5-0.6-0.7 0 0-0.2 0.2-0.3 0.2-1-0.5-1.8-1-2.9-1.4-0.1-0.1-0.1-0.2-0.2-0.2-0.5-0.6-1-1.2-1.7-1.7 0 0-0.2 0-0.3 0 0 0 0 0.1 0 0.2q0.1 0.1 0.2 0.3c-0.2-0.1-0.6-0.4-0.6-0.4 0.4-0.8-1.6 0-1-0.9-1.7-0.5-3.3-1.1-5.1-1.4l-1.3-0.3-1.2-0.1q-1.1-0.2-2.3-0.2c-1.6 0-3.3 0.3-4.9 0.7-1 0.4-2 0.9-3 1.5-0.1 0.1-0.4-0.1-0.6-0.2-0.3 0.7-0.5 0.8-1.6 1.1-2 0.4-3.9 1.9-4.8 3.6-0.5 1.1-0.6-0.3-0.9 0.3-0.3 0.6-0.5 1.5-0.9 1.7-1.5 1-1.4 2.8-2.5 3.9-0.5 0.4-1.3 0.4-1.4 1.3 0 0.3-0.7 0.6-1.1 0.9-0.9 0.9-0.8 2-1.5 3.2-1.1 1.7-1.3 4.1-1.5 6.1-0.1 2.3 0.4 4.5 0.5 6.6 0.1 1.1 0.5 2.1 0.7 3.1 0.1 0.8 0.5 1.3 0.8 1.8 0 0.1 0.3 0.1 0.5 0.1l-0.3 1q0.1 0 0.1 0c0.4 0.1 0.5-0.7 1-0.2q-0.4 0.2-0.7 0.5c-0.1 0-0.2 0.2-0.1 0.3q0.5 1.3 1 2.7l0.4 1 0.4 0.8c0.2 0.4 0.4 0.8 0.6 1.1 0.4 0.7 0.9 1.3 1.6 1.8 0.4 0.3 0.9 0.6 0.9 1.3 0 0.4 0.2 1.1 0.3 1.1 1.4 0.2 0.4 2.3 1.9 2.3 0 0 0.4 0.4 0 0.6l1.3 1.8 1.6 2.1c1.1 1.3 2.2 2.6 3.1 4.1 0.4 0.6 0.7 0 0.9 0.4q0.4 0.9 0.9 1.9c0.1 0.1 0.3 0.2 0.4 0.4 0 0 0 0.2 0 0.2 1 0.2 0.9 1.3 1.5 1.9 1.1 1.2 2.1 2.5 3 3.9 0.4 0.7 1.3 0.5 1.5 1 0.2 0.5-0.1 1.3 0.9 0.7 0 0.1 0.1 0.2 0.1 0.3-0.7 1.2 0.4 1.9 1.1 2.6 0.5 0.5 1.6 1 1.6 1.3-0.1 1.3 0.5 1.3 1.3 1.2 0.2 0 0.4 0.2 0.7 0.1 0.4-0.1-0.1 0.4 0 0.4 0.6 0.4-0.6 1.3 0.6 1.5 0.5 0.1 0.7-0.9 1-0.1 0.1 0.1 0.5 0.5 0.2 1-0.2 0.4 0.6 0.5 1.1 0.4 0.1-0.4 0.3-1-0.5-0.6l-0.1-0.7c0.1 0 0.3 0 0.3 0.1l1.4 1.8c-0.2 0-0.3 0-0.5-0.1-0.1-0.1-0.3-0.2-0.4-0.3l-0.9 0.3c0.2 0.2 0.4 0.5 0.6 0.6 0.4 0 0.8-0.2 1-0.1 0.6 0.2 0.1 0.5 0 0.8q-0.1 0.2-0.1 0.5 0.2-0.2 0.4-0.4 0.2-0.1 0.3-0.3c0 0.2-0.1 0.4 0 0.6 0.1 1.2 0.9 2.2 1.9 2.9 0.4 0.3-0.2-0.5 0-0.7 0.2 0 0.5 0 0.7 0.1 0.6 0.2-1.1 0.9 0.3 1-0.1 0.9 0.7 1 1.2 1.4 0.9 0.7 2.1 0.8 2.9 2 0.4 0.6-0.7 0.2-0.2 0.6 0.9 0.7 1.8 1.4 3 2.1 0.2-0.8 1.5 1.5 1.5 0.2 0-0.3 0.4-0.4 0.8-0.5 0 0.2-0.1 0.4 0 0.5q0.7 0.3 1.4 0.6l0.7 0.3 3.2-0.6h0.2q-0.2-0.3-0.3-0.5-0.1-0.1-0.1-0.3c0.1 0 0.2 0 0.3 0 0.7 0.7 1.7 0.7 2.5 0.4 0.2 0 0.2 0 0.4-0.1l0.6-0.3c0.5-0.2 0.7-0.4 1-0.6 0.5-0.4 1-0.8 1.5-1 0.6-0.2 0.8-0.9 1-1.4 0.2-0.5 0.5-0.9 1.5-0.6 1 0.4 1.3-0.9 2-1.3 0.9-0.6 1.3-2.1 2.1-2.4 2.4-0.9 3.6-2.8 4.9-4.6 0.5-0.8 1.1-1.4 1.7-2.1l2-2.8c0.2-0.3 0.5-0.5 0.7-0.8 0.6 0.8 0.4-0.9 0.8-0.3 0.1-0.1 0.2-0.2 0.2-0.2-0.5-0.9 1.4-1.4 0.6-2.3 0 0 0.1-0.1 0.1-0.1 0.2 0.3 0.7 0.7 0.8 0.2 0.2-0.7-0.1-1.6-0.3-2.3-0.1-0.2-0.6-0.3-0.9-0.5l0.8-0.7v0.6c0.6-0.2 0.3 0.3 0.4 0.4 0 0.1 0.2 0.1 0.2 0.1q0.2-0.5 0.3-1c0 0-0.2-0.1-0.3-0.1 0.2 0 0.5-0.2 0.6-0.1 0.1 0.1 0.2 0.4 0.3 0.6q-0.2 0-0.3 0l-0.3 0.2c0.1 0.1 0.1 0.2 0.2 0.2 1 0 1.5-0.5 1.3-1.6 0 0 0.1-0.1 0.1-0.2 0.1 0.1 0.1 0.2 0.2 0.2 0.1 0 0.4 0.1 0.4 0.1q0.3-0.5 0.5-1.1c0 0-0.1 0-0.1 0-0.9 0.7-0.6 0.4-0.5-0.4 0-0.6 1-1 0.3-1.6-0.1-0.1-0.3-0.1-0.4-0.1-0.2-0.2-0.3-0.3 0.1-0.4 1-0.4 0.6 0.7 1 1 0.1 0 0 0.3 0 0.5-0.2 0.2-0.4 0.3-0.5 0.5 0.2 0 0.6 0 0.7-0.1 0.2-0.3 0.5-0.8 0.4-1-0.7-0.9 0.1-1.3 0.6-1.8q0.3-0.3 0.6-0.5-0.2-0.2-0.4-0.4-0.2-0.2-0.4-0.4c0 0 0.1-0.1 0.1-0.1 0.1 0.1 0.2 0.3 0.2 0.3 0.3 0 0.7-0.1 0.9-0.1q-0.1-0.2-0.3-0.4-0.1-0.1-0.1-0.3c0-0.1 0.1-0.2 0.2-0.1 0.4 0.2 1.4 0.3 1.3-0.2-0.2-1.3-1.2 0.4-1.6-0.2-0.1 0 0.1-0.3 0.1-0.4-0.1-0.6-0.5-0.1-0.5-0.1-0.3 1.8-0.8-0.7-1.1 0.2 0-0.2 0-0.3 0-0.4l0.6-0.9c0 0 0.1 0.1 0.1 0.1q0 0.4 0.1 0.8l0.2-1.1c0-0.1 0.1-0.2 0.1-0.2 0.2 0.1 0.4 0.2 0.6 0.2 0.3 0 0.7 0 0.9-0.2 0.2-0.2 0.2-0.6 0.4-0.9 0.1-0.1 0.3 0 0.5 0 0.2 0-0.6 0.7 0.2 0.3 0.1 0 0.5-0.2 0.4-0.2 0-0.3-0.2-0.5-0.2-0.8-0.1-0.2-0.1-0.5-0.1-0.7 0.1 0 0.4-0.1 0.4-0.1 0 0.2 0 0.5 0.1 0.7 0 0.1 0 0.2 0.1 0.3 0-0.1 0.1-0.3 0.1-0.3 0.8-0.2-0.4-1 0.4-1.3 0.1 0 0.7-0.2 0.8-0.5 0.1-0.5 0-1.1 0.1-1.6l0.6 0.4c-0.2 0.1-0.4 0.2-0.5 0.4-0.1 0 0 0.2 0.1 0.4 0.2-0.2 0.5-0.4 0.7-0.6 0.7-0.8 0.7-1.8 1-2.8 0.3-0.9 1.1-1.7 1-2.8-0.1-0.3-1.1 0.1-0.5-0.7 0.3-0.4 2.3-0.1 0.6-1.4l2.4-1.8q0.1-0.1 0.3-0.2c-0.1-0.1-0.3-0.1-0.4-0.2q-0.3-0.2-0.6-0.4c-0.1 0 0-0.2-0.1-0.4 0.1 0 0.1 0 0.2 0q0.1 0.3 0.2 0.5l0.8-0.7c-0.6 0.3-0.9-0.7-1.5-0.1-0.1 0.2-0.3 0.2-0.5 0.2 0 0-0.2-0.1-0.2-0.1 0.4-0.9 0.6-1.9 0.9-2.9 0.1-0.3 0.4-0.5 0.6-0.8q0 0.2 0.1 0.3c0 0.2-0.7 0.3-0.1 0.6 0 0 0.3-0.4 0.4-0.6l0.4-0.7 0.8 0.5c-0.2 0.1-0.3 0.3-0.4 0.4-0.1 0.2-0.1 0.4-0.2 0.5 0 0.1 0.1 0.1 0.2 0.2q0.1-0.2 0.2-0.3 0.1-0.1 0.2-0.1 0.1 0.3 0.2 0.7c0 0-0.2 0.1-0.3 0.1q-0.2 0-0.4-0.1l0.3 0.7c0.1-0.1 0.3-0.3 0.4-0.4 0.6-0.3-0.1-1.1 0.7-1.5 0.2-0.1 0.2-1.1 0.2-1.7 0-0.1-0.1-0.2-0.2-0.2-0.5 0-1-0.8-1.1-1.3-0.1-0.8 0.7-0.6 0.8-1.1 0 0-0.2-0.2-0.4-0.3 0.1 0 0.1-0.1 0.1-0.1 0.3 0 0.5 0 0.7 0.1 0.2 0 0.4 0.2 0.6 0.4 0.2-0.7 0.4-1.6 0.5-2.5 0 0-0.2-0.2-0.3-0.2q-0.3-0.2-0.6-0.2c0.2-0.1 0.5-0.4 0.7-0.3 0.7 0.5 0.3-1.1 0.9-0.9 0-0.3 0.1-0.6 0-0.8-0.4-0.8-0.8-1.6-1.2-2.2zm-65.9 30.9l-0.5-0.4q0.1-0.2 0.1-0.3 0 0 0 0 0.1 0 0.3 0.1c0.1-0.1 0.5-0.2 0.5-0.2 0-0.1-0.2-0.2-0.6-0.2-0.1-0.1-0.7-0.2 0.1-0.2-0.2-0.1-0.2-0.3-0.1-0.4q0 0 0.1 0 0.6 0.2 1.3 0.3c-0.3 0-0.9 0.1-0.9-0.1-0.1 0-0.2 0-0.2 0.1-0.1 0-0.2 0-0.1 0 0 0.1 0.2 0.1 0.4 0.1 0 0-0.1 0 0 0q0.1 0 0.3 0c0.1 0 0.3 0 0.3 0 0.3 0.1 0.4 0 0.6 0 0.1 0.1 0.3 0.2-0.3 0.3 0 0 0 0 0.1 0h0.2l0.6-0.1c-0.2 0.1-0.3 0.1-0.5 0.2-0.1 0-0.4 0-0.6-0.1q-0.2 0-0.4 0l0.2 0.1c0.1 0 0.1 0 0.1 0-1.1 0.1-0.3 0.2 0.1 0.3 0.1 0 0.5 0 0.7 0h0.2q-0.1 0.1-0.1 0.1-0.3 0-0.6 0.1c-0.2 0 0 0.1 0 0.2 0 0 0 0 0 0h0.5q-0.3 0.1-0.6 0.1c-0.1 0-0.3 0-0.4 0-0.1 0 0-0.1 0-0.1-0.5 0-0.3 0.1-0.6 0.2q0.1 0 0.1-0.1c0 0-0.3 0-0.3 0zm-15-37.2c0.1 0.2 0.4 0.3 0.3 0.3-0.2 0-0.9-0.2 0.1 0.2 0 0 0 0-0.1 0-0.4-0.1-0.6-0.1-0.7-0.1l-0.2-0.1q0.3-0.1 0.6-0.3zm1.2-2.8c0.1 0 0.1 0 0 0q0 0 0 0zm1.2-1.7q0.2 0.1 0.3 0.1l-0.3-0.1q0 0 0 0zm16.3 7.7q0 0.1 0 0.1-0.1-0.1 0-0.1zm11.1 1.6c0 0.1 0.2 0.2 0.3 0.2q-0.1-0.1-0.1-0.3c0-0.2-0.1-0.4 0.1-0.7 0.3-0.9 0.5-0.1 0.4 0-0.2 0.4 0.1 0.4 0.3 0.6q0.1 0.2 0.2 0.3 0 0 0 0.1c-0.6 0.7-0.6 0.3-0.9 0.4q-0.1 0-0.2 0.1l-0.3 0.2c0 0 0 0 0 0l-0.5 0.5-0.2 0.2c0 0 0 0 0-0.1 0.1-0.1-0.1-0.4 0.5-0.5 0.5-0.1-0.1-0.4-0.6-0.5-0.3 0.1-0.8 0.3 0.1 0.4l-0.4 0.3c-0.1-0.1-0.2-0.1-0.2-0.1l0.1-1.2c0.1 0.1 0.2 0.1 0.3 0.2 0.1 0 0.1 0.2 0.2 0.2l0.8 0.1c-0.1-0.1 0-0.3-0.1-0.4-0.2-0.1-0.7-0.1-0.8-0.2-0.3-0.3 0.3-0.3 0.5-0.4q0.1 0 0.2-0.1 0.2 0.4 0.3 0.7zm1.4 0.3c-0.1 0-0.3 0.1-0.1-0.1q0.1 0.1 0.1 0.1zm0 0.2q0-0.1 0-0.1 0.1 0.1 0.2 0.2-0.1 0.1-0.3 0.2c-0.4 0.4-0.6 0.5-0.5 0.2 0-0.1 0.4-0.3 0.6-0.5zm-8.2 41.3c0.1 0 0.2 0 0.3 0q0 0 0 0.1-0.2 0-0.3 0 0-0.1 0-0.1zm0.6 1.6q0 0 0 0c-0.1-0.1-0.3 0.1-0.5 0.1q0.1-0.2 0.2-0.4 0.1 0 0.2 0c0.1 0.1 0.2 0.2 0.1 0.3zm-7-13.9c-0.1 0-0.1 0-0.2 0.1l-0.1 0.1-0.9-0.1c0 0 0.1 0 0.2-0.1 0 0 0 0-0.1 0 0-0.1-0.1-0.1-0.2-0.1q0 0 0 0 0 0 0 0 0-0.2-0.1-0.3 0.1 0 0.1-0.1c0.3 0.1 0.8 0.1 1 0 0 0 0.2 0 0.4 0 0 0 0.2 0 0.2 0 0.1 0.2 0.2 0.3 0.2 0.5 0.1 0-0.1 0.1-0.2 0.1h-0.2c-0.1-0.1 0.5-0.1-0.1-0.1zm-1.5 1c0 0 0.2 0 0.4 0.1h0.6c-0.2 0-0.5 0-0.6 0-0.8-0.1-0.4 0.1-0.7 0.1 0.1-0.3 0.3-0.6 0.4-0.8 0.5 0 1 0.1 1.2 0.1 0.3 0.2-0.4 0.1-0.4 0.2 0 0 0.3 0 0.4 0q0 0.1-0.1 0.1-0.3 0-0.6-0.1h-0.6q-0.1 0.1 0 0.3zm-0.4 1.1q0 0 0 0zm3.5-32.8c-0.1 0-0.3 0.2-0.1 0.1q0 0-0.1 0-0.1 0.1-0.1 0.1-0.1 0-0.2 0c0.3-0.2 0.6-0.4 0.6-0.4q-0.1 0.1-0.1 0.1 0 0.1 0 0.1zm0.7-0.3q0 0 0.1 0.1 0 0-0.1 0 0 0-0.1-0.1zm3.6 43.8h0.5q-0.2 0.1-0.4 0.1 0 0-0.1-0.1zm-6.4-15.7q0.1 0 0.1 0.1 0 0-0.1 0 0-0.1 0-0.1zm2.7-27.7q-0.3 0.2-0.6 0.3 0 0 0 0zm41.9 22.9q0 0.1 0 0.2c0 0-0.1 0-0.1 0h-0.1l-0.2-0.1q0 0-0.1 0c0 0.1 0 0.1 0 0.1q0.4 0.1 0 0.1c-0.1 0-0.1 0.1-0.1 0.1 1.2 0.1-0.4 0.3 1.2 0.4 0.4 0 1.4 0 0.7 0.2h0.1 0.3c-0.1 0-0.3 0-0.4 0-0.9-0.2-1.1-0.1-1.5 0-0.2 0-0.5 0-0.8 0-0.1-0.1-0.1-0.1 0-0.2 0.8-0.1 0.4-0.2-0.1-0.3q-0.1-0.2-0.2-0.3c0.4-0.1 1 0 0.4-0.2-0.1-0.1-0.3-0.1-0.4-0.1 0-0.1 0.1-0.2 0.3-0.3q0 0 0 0 0 0-0.2-0.1 0-0.1 0.1-0.1l0.3 0.1c0-0.1 0-0.2-0.1-0.2q0 0-0.1-0.1c0.1 0 0-0.1-0.3-0.2q0.1 0 0.2 0h0.5l-0.3-0.1c0.3 0 0.5-0.1 0.3-0.3q0.1 0 0.1-0.1c0.1 0 0.3 0.1 0.4 0.1-0.2-0.1-0.3-0.1-0.3-0.2q0 0 0-0.1c0.1 0.1 0.4 0.1 0.9 0.2 0.1 0 0.1 0.1 0 0.1-0.1 0.1-0.4 0.2-0.6 0.2 0 0 0.2 0.1 0.3 0.1-0.1 0-0.1 0-0.2 0q0 0 0 0-0.1 0.1-0.2 0 0 0.1 0.1 0.1c-0.1 0.1 0 0.2 0.2 0.3 0.4 0.1 0.5 0.1 0.6 0l0.3 0.1q0.1 0 0.1 0c0 0 0 0 0 0l0.7 0.1q-0.4 0-0.7 0c-0.7 0-0.3 0.3-1.5 0.1q-0.1 0-0.3 0l-0.4 0.2c-0.3 0.1 1 0.1 1.1 0.2zm-14.3 20.2c-0.1 0-0.3-0.1-0.4-0.1q0 0 0-0.1 0.1 0 0.2 0c0.4 0.1 0.6 0.1 0.6 0.2q-0.2 0-0.4 0zm-12.1 8.3c-0.1 0.1-0.2 0.2-0.2 0.2 0.6 0.1 0.4 0.1-0.2 0.1 0.1 0 0 0-0.1 0 0.1 0-0.7-0.2 0.1-0.1q0-0.2 0-0.3c0.2-0.1 0.4-0.2 0.5-0.2 0-0.2-0.1-0.4-0.2-0.7q0 0-0.1 0 0.1 0 0.1-0.1c0 0.1 0.1 0.1 0.3 0.2 0.3 0 0.3 0.3 0.5 0.4 0.8 0 0.6-0.2 0.5-0.3q0 0 0.1-0.1 0.1 0.1 0.2 0.1-0.1 0.2-0.2 0.3-0.1 0-0.3 0c-0.9 0.2-0.1 0.3-0.4 0.5q0.2 0 0.3 0c-0.1 0.1-0.4 0.1-0.6 0.2 0 0-0.1-0.1-0.1-0.1q0.1 0 0.2-0.1c-0.2 0-0.4 0-0.4 0zm-0.6 0.8q0 0-0.1 0 0.1 0 0-0.1h0.1c0 0 0 0.1 0 0.1zm-13.4-52.2q-0.1 0 0 0 0 0 0 0zm0.1 0.2q0 0 0 0 0.1 0 0.2 0.1c0 0 0 0 0.1 0.1q0 0 0 0c-0.1 0-0.1 0 0.1 0.2q-0.1-0.1-0.2-0.2-0.1-0.1-0.2-0.2 0 0 0 0zm41.1 19.6c0 0.2-0.4 0.2-0.6 0.3-0.1 0-0.1 0-0.1 0 0 0 0-0.1 0.3-0.1-0.1 0-0.3 0-0.3-0.1-0.3-0.1-0.6 0.1-0.7-0.1q0 0 0 0c0.2 0 0.3 0.1 0.3 0q0 0 0 0c0.1 0 0.2 0 0.3 0 0.2 0 0.4 0 0.4 0-0.2-0.1-0.5-0.2-0.5-0.2q-0.1 0-0.2 0 0.1-0.2 0.1-0.4c-0.2 0-0.2 0-0.2 0 0.2-0.1 0.5 0 0.4-0.1 0-0.1-0.2-0.1-0.4-0.2 0.4 0.1-0.1-0.1 0.3 0 0 0 0.1 0.1 0.1 0.2 0 0 0 0.1 0.4 0.1 0.5 0-0.1 0-0.1-0.1 0 0 0.1 0 0.2-0.1q0.2 0.1 0.5 0.2c1 0.1-0.8 0 0 0.2q0.2 0 0.4 0.1-0.3-0.1-0.7-0.1l-0.7-0.2c0 0.1 0 0.1 0 0.1 0.3 0.2 0.7 0.4 0.8 0.5zm0.1 0.7c0.2 0.1-0.1 0-0.3 0.1-0.1-0.1-0.1-0.1 0.2-0.1-0.1 0-0.3-0.3-0.5-0.1q-0.3 0-0.6 0c0.2 0.1 0 0.2 0.6 0.3q0.3 0.1 0.4 0.1c0 0.1-0.1 0.1-0.3 0.2-0.2 0-0.7 0-0.9 0.1q-0.1 0-0.2 0-0.3-0.1-0.7-0.1c0.1-0.1 1.4 0.1 0.6-0.2 0.3 0 0.4 0 0.4-0.1q0 0 0 0c0 0 0.2 0 0.2 0.1 0.1 0 0.1 0 0.1 0.1 0.1-0.1 0.2-0.1 0.2-0.1 0 0-0.1-0.1-0.2-0.1-0.7-0.3-0.6-0.4 0.1-0.4 0.2 0 0.1 0 0.1-0.1 0.3 0 0.1 0.2 0.6 0.2 0.4 0 0.1 0 0 0zm-0.9 4.6c-0.3 0.1-0.8 0.1-0.8 0.2 0 0.1-0.1 0.1-0.1 0.2q-0.1 0-0.2 0 0-0.1 0-0.1c0-0.1-0.1-0.2 0.5-0.2q-0.3 0-0.2 0l-0.5 0.1c-0.2-0.1-0.3-0.2-0.2-0.2 0.1-0.1 0.7-0.2-0.1-0.3q0 0-0.1 0 0 0 0 0 0.2-0.1 0.3-0.1 0 0 0 0c0.1 0.1 0.1 0.1 0.1 0.1 0.1 0.2 0.4 0.2 0.6 0.2 0.2 0.1 0.3 0 0.5 0l-0.6-0.1h-0.2c0.2 0 0.4 0 0.6 0 0.1 0 0.4 0.1 0.6 0.2-0.1 0-0.1 0-0.2 0zm-0.8 3.3q0.5 0.2-0.2 0.2c0 0-0.1 0-0.1 0 0.4 0.1 0.5 0.2 0.6 0.4-0.2 0-0.4-0.1-0.8-0.3 0 0-0.1 0.1-0.1 0.1q0.1 0.1 0.1 0.2l-0.1 0.1q0-0.1 0-0.1 0-0.2-0.1-0.3c0.1 0 0.1 0 0.2 0l-0.2-0.1q0-0.1 0-0.1c0.4 0 0.7 0 0.7-0.1zm-1 2.3c-0.4-0.1 0-0.2 0.2-0.3zm-39.6-28.7c0.1 0 0.1-0.1 0.2-0.1q0.1 0 0.3 0c-0.2 0.1-0.3 0.1-0.4 0.2q-0.2 0-0.3 0 0-0.1 0-0.1 0.1 0 0.2 0zm42.2 14.8q0 0 0 0 0 0 0 0 0 0 0 0zm0-0.1q0 0 0.1 0 0 0 0 0c0 0 0 0-0.1 0zm-1-0.5q0 0 0 0-0.1-0.1 0.2-0.1 0.1-0.1 0.2-0.1 0 0.1 0.1 0.1c0.3 0.1 0.2 0.2 0.3 0.4-0.3-0.1-0.7-0.2-0.8-0.3zm0.1 1.8q0-0.1 0-0.1 0 0 0.1 0.1c0.4 0.1 0 0.2-0.1 0.2q0 0-0.1 0 0 0 0.1 0 0-0.1 0-0.2zm-12.9 11.9c0 0-0.1 0-0.2-0.1q0 0.1-0.1 0.1-0.1 0-0.2 0l-0.3-0.2c0 0 0.1 0 0.2 0l0.4 0.1-0.5-0.2c-0.1 0-0.1 0-0.2 0-0.5 0.1 0.4 0.3-0.2 0.4q-0.1 0-0.1 0 0 0 0 0c-0.4-0.2 0.6-0.3-0.2-0.6q0 0 0 0c0.6-0.1 1-0.1 0.7-0.4q-0.1-0.1 0-0.1h0.3l0.7 0.2c0 0 0.1 0.1 0.2 0.1q-0.1 0-0.1 0l-0.4-0.2-0.5 0.2q0.2 0 0.5 0c-0.1 0.1-0.1 0.1-0.3 0.1 0.4 0.1 1 0.2 1.2 0.4 0.2 0.1 0.2 0.2 0.2 0.4 0-0.1 0-0.1 0-0.1-0.1 0-0.2 0.1-0.2 0.2q-0.1 0-0.2 0.1l-0.9-0.2c0.1 0 0.2 0 0.2-0.1 0.1 0 0-0.1 0-0.1zm-0.8 7q-0.1 0-0.1 0.1 0 0 0 0h-0.1q-0.2 0-0.3 0 0 0 0 0-0.1-0.3-0.1-0.6 0.1 0 0.1 0c0.3 0.1 1.2 0.4 0.4 0.4-0.4 0.1 1.1 0.2 0.1 0.1zm-11.2 2.3c-0.1 0-0.1-0.1-0.2-0.1 0 0-0.1-0.1 0.3-0.1q0 0.1 0 0.1-0.1 0-0.1 0.1zm10.6-0.4q0 0 0 0 0 0 0 0zm-11.6-7.1q0.1 0 0.1 0c0.1 0 0.1 0 0.2 0q-0.2 0.1-0.3 0.1 0-0.1 0-0.1zm0.1 0.2q-0.1 0-0.1 0 0 0-0.1 0 0 0 0-0.1h0.1q0 0.1 0.3 0.1zm0.4-0.5q0 0 0 0 0 0 0 0 0 0 0 0zm0.1 2.7q0 0 0 0 0 0 0 0 0.1 0 0.2 0-0.1 0-0.2 0zm0.2 2.7c-0.1 0-0.2 0-0.1 0q0-0.1 0.1-0.1 0 0 0 0l0.1-0.1c0.1 0.1 0.1 0.1 0.1 0.2q-0.1 0-0.2 0zm0.7-3.3q0 0 0 0 0 0 0 0zm-0.3 5.4v-0.1q0 0.1 0 0.1zm0-0.3v-0.1-0.2q0 0 0 0c0 0.1 0.3 0.2 0 0.3zm-17.4-34c-0.1-0.1-0.1-0.1-0.2-0.1q0.1-0.1 0.3-0.1-0.1 0.1-0.1 0.2zm0 2.2c-0.1 0-0.1 0-0.2 0q0.1-0.2 0.1-0.3-0.1-0.2-0.1-0.4c0 0 0.1 0.1 0.1 0.1-0.4 0.2 1.4 0.4 0.1 0.6zm1.4 1.2c-0.1 0-0.2 0-0.2 0-0.2 0-0.3 0-0.3 0.1q-0.1 0-0.1 0-0.1-0.1-0.2-0.1l-0.5 0.2-0.2-0.2q0.1-0.1 0.1-0.1c0.1 0 0.2 0 0.2 0.1h0.1q0.1 0 0.1-0.1 0-0.1 0-0.2c0.1 0.1 0.1 0.2 0.3 0.3 0.1 0 0.4 0 0.7 0zm-1.8 0.2l0.6 0.4q0.1 0 0.3-0.1c0 0.1 0 0.1-0.1 0.1-0.4 0.1-0.3 0.4-0.4 0.7q0 0 0 0.1-0.3 0.1-0.6 0.2-0.1-0.1-0.2-0.1-0.1-0.1-0.1-0.3 0.1 0 0.4 0c0.9-0.1 0.2-0.3 0.3-0.4 0.1-0.1-0.4-0.3-0.4-0.5q0 0 0 0c0 0 0-0.1 0-0.1q0.1 0 0.1 0zm-0.6 2.6q0-0.1 0.1-0.1h-0.6q-0.1-0.1 0-0.1 0.6 0 0.9-0.1 0.1 0.1 0.3 0.2 0 0 0 0.1c0 0 0.1 0 0.1 0q0 0 0 0c0.1 0.1 0.2 0.1 0.2 0.1h-0.5 0.1q0.3 0.1 0.6 0.2 0.1 0 0.1 0l-0.5-0.1c-0.1 0-0.2 0-0.2 0q0 0 0 0c-0.1 0-0.2 0-0.5 0q0-0.1-0.1-0.1 0 0 0-0.1zm1.6 0.4l-0.3-0.1q0 0 0 0 0.2 0 0.3 0.1zm-1.1-0.1c-0.2 0 0 0 0.1-0.1q-0.1 0.1-0.1 0.1zm-1.3 2.8q0 0 0 0-0.1-0.1-0.2-0.2 0 0 0 0 0.1 0 0.1 0c0.1 0 0.1 0.1 0.1 0.1h0.3q0 0.1 0 0.1-0.2 0-0.3 0zm0.9-2.2c0 0.1 0 0.2 0.2 0.4 0.2 0.1 0.4 0.2 0 0.2q-0.1 0-0.1 0 0 0 0 0c0-0.2-0.7-0.4-0.3-0.6 0.1 0 0.2 0 0.2 0zm-0.5 1c0 0 0.1 0.1 0.3 0.2q0 0 0 0c-0.1-0.1-0.3-0.1-0.4-0.2 0 0 0 0 0.1 0zm-0.1 0.8l-0.2-0.1q0.1 0 0.2 0zm1.1-3q0 0 0 0-0.1 0-0.1 0 0.1 0 0.1 0 0 0 0 0zm-1.1 8q0.1 0 0.2 0c0.2 0 0.3 0 0.1-0.1q0.1 0 0.2 0 0 0 0 0 0.1 0 0.1 0-0.1 0.1-0.3 0.3-0.1-0.1-0.3-0.2zm1.3-8.4c-0.1 0 0 0.1-0.1 0.1 0-0.1-0.2-0.3-0.1-0.4q0.2 0 0.4 0.1 0 0.1-0.2 0.2zm0.4-2.4q0-0.1-0.1-0.3 0 0 0 0c0 0 0.1 0 0.1 0q-0.1 0-0.1-0.1 0 0 0 0c-0.1-0.1 0-0.1 0.1-0.2q0.2 0.1 0.3 0.2l0.2-0.1c0 0.1 0.2 0.2 0.2 0.2q-0.3 0.2-0.7 0.3zm0.2-1.3q0-0.1-0.1-0.2 0.3 0 0.5 0c0.1 0.1 0.1 0.2-0.4 0.2zm-0.1-0.9c0.2 0.1 0.4 0.2 0.4 0.3q0 0 0 0-0.1 0.1-0.3 0.1h0.2q0 0.1 0.1 0.2c-0.1 0-0.3 0-0.5-0.2-0.1 0.1-0.2 0.1-0.3 0.1q0 0 0.1 0.1-0.1 0-0.2 0 0-0.1 0-0.2c-0.1 0 0-0.1 0.1-0.2 0.9 0.1-0.3-0.2 0.4-0.1 0 0 0.1 0 0 0-0.8-0.1 0.1-0.3-0.5-0.5q0 0 0 0c0.3 0 0.6 0 0.4-0.1-0.1 0-0.2 0-0.4-0.1q0-0.1 0-0.1c0-0.1 0.1-0.1 0.2-0.1q0 0.1 0 0.2c0.1-0.1 0.1-0.1 0.1-0.2 0.1 0 0.3 0 0.3 0 0.1 0.1 0.1 0.1 0.1 0.2l0.2 0.4h0.2l0.2-0.2c0.1 0.1 0.2 0.2 0.2 0.2 0 0.1-0.2 0.2-0.4 0.4q-0.3-0.1-0.6-0.2zm27.3 30.5c-0.1 0-0.3 0-0.2-0.1q0 0 0.1-0.1 0 0.1 0.1 0.2zm-26.9-32c-0.1-0.1-0.2-0.2-0.2-0.3-0.1 0 0-0.1 0-0.1 0.1 0.1 0.3 0.2 0.2 0.3 0 0 0.3 0 0.5 0zm15.8 37.9q-0.2 0-0.3 0h0.2q-0.1-0.1-0.2-0.1-0.1 0-0.2 0 0 0 0 0h0.5q0.1 0 0.1 0l0.2 0.1q-0.1 0-0.3 0zm0.7-1.6q-0.1 0.1-0.1 0.1-0.2 0-0.3 0 0-0.1-0.1-0.1c-0.1-0.1-0.3-0.2 0.1-0.3q0 0 0.1 0 0.1 0 0.3 0.1c-0.2 0.1-0.5 0.1-0.5 0.2 0 0 0.3 0 0.5 0zm10.4-4.7c0 0-0.1 0.1 0 0.1q-0.1 0-0.1 0-0.1 0-0.4 0c0 0 0 0 0.1 0q0.5-0.1 0.7-0.2l0.2 0.1c0 0-0.1 0-0.5 0zm1.6-7.4q0 0 0 0c-0.1 0-0.2-0.1-0.3-0.1-0.6-0.2-0.6-0.3 0.2-0.4q0 0 0 0c0 0.1 0.1 0.1 0.1 0.1q-0.2 0-0.4 0.1c0.2 0.1 0 0.2 0.6 0.3q0.1 0 0.2 0c-0.2 0-0.3 0-0.4 0zm-0.7-1.6c0-0.1 0.1-0.1 0.3-0.1-0.1 0.2 0.2 0.4 0.3 0.7q0 0 0 0.1c-0.3-0.1-0.5 0.1-0.6-0.1-0.1-0.2 0.2-0.4 0-0.6zm0.8-3.5c0 0 0 0-0.2-0.1 0.4 0.1 0.9 0.2 0.5 0q0 0 0 0c0.1-0.1 0.2-0.1 0.3 0q0 0 0 0c0 0 0 0.1 0 0.1q0 0 0.1 0 0 0 0.1 0c0.2 0.2-0.4 0.3 0.5 0.5l0.3 0.1q-0.2 0-0.3 0c-0.3 0-0.5-0.2-0.9-0.3 0 0-0.2-0.1-0.2-0.1 0-0.1 0.1-0.1 0.2-0.2q-0.2 0-0.4 0zm0.2-4.7h0.4q0 0.2 0 0.3-0.1-0.1 0-0.2c0 0-0.3-0.1-0.4-0.1zm1.2-3.1q0.1 0 0.1 0c0.1 0.1 0 0.2 0 0.3q-0.1 0-0.2-0.1c-0.1 0-0.4-0.1-0.6-0.1 0.7 0.1 0.8 0 0.7-0.1zm11.5 0.6q0 0 0 0 0 0 0 0 0 0 0 0zm-11.8 14.3q0 0.1 0.1 0.1 0 0 0 0l-0.2-0.1q0 0 0.1 0zm-1.2-5.1q0.2-0.1 0.4-0.1c0.2 0 0.4 0.1 0.3 0.1h0.2q0 0 0.1 0 0-0.1 0-0.1c0.1 0 0.1 0.1 0.3 0.1 0.1 0.1 0.4 0.1 0.6 0.1-0.1 0-0.2 0-0.2 0-0.2 0-0.4 0-0.5 0-0.1 0.1 0 0.2 0 0.3 0 0-0.2 0-0.4 0-0.2 0 0.2-0.2-0.3-0.1-0.1 0-0.3 0-0.3 0l0.6 0.3q0.1 0 0.2 0.1-0.1 0-0.3 0 0 0 0 0l-0.2-0.1-0.2-0.1c0 0 0 0.1 0 0.1q-0.2 0-0.1 0c-0.3 0-0.5 0-0.6-0.1 0-0.2 0-0.4 0.4-0.5zm0.2-4.5c0.2-0.1 0.5-0.1 0.6-0.2v0.1c0 0.1-0.2 0.1-0.2 0.2-0.9-0.2 0.1 0.2-0.4 0.1 0 0-0.1 0-0.1 0-0.1-0.1 0-0.2 0.1-0.2zm0.4-2.4q0 0 0 0 0 0 0 0zm0.5-1.3c-0.2-0.1-0.1-0.2 0.2-0.1q0 0 0 0 0 0.1 0 0.2c0 0 0 0.1-0.1 0.1q0 0 0 0 0-0.1-0.1-0.2zm1.5-8.4q0 0 0 0zm-1.4 17.4c-0.1 0-0.3 0-0.3 0h0.3q0 0 0 0zm12.4-13q0 0 0 0l-0.2-0.1q0 0 0.1 0c0 0 0 0 0 0q-0.2 0-0.3-0.1l0.4 0.1c-0.1 0-0.1 0.1 0 0.1zm0 0.3c0.1 0.1 0.2 0.1 0.1 0.2q0 0 0 0c-0.1-0.1-0.3-0.1-0.5-0.2-0.1 0-0.1 0.1-0.2 0.1l-0.1-0.1q0 0 0 0 0 0 0.1 0 0.1-0.1 0.2 0c0 0 0 0 0.1 0q-0.1 0-0.2 0c-0.1 0-0.1 0-0.1 0zm0-5.1h0.4-0.4q0 0 0 0zm-0.3-0.2q0.3 0.1 0.1 0.1-0.1 0-0.4-0.1-0.1 0-0.3-0.1 0 0 0 0zm0 3.6c0.1 0 0.2 0 0.2 0q0.1-0.1 0.2-0.1 0 0 0 0 0.2 0.1 0.4 0.1c-0.2 0-0.3 0-0.5 0.1q-0.1-0.1-0.3-0.1zm0.4-0.8c0 0 0.3 0 0.4 0.1h-0.7c0-0.1 0-0.1 0-0.1q0-0.1 0.1-0.1c0.1 0 0.2 0.1 0.2 0.1zm0.3 0.1q0 0 0.1 0.1-0.1 0-0.1 0zm-0.5 0.8q-0.1 0-0.2-0.1l0.2 0.1q0 0 0 0zm0.2 0.1q0.1 0 0 0.1 0-0.1 0-0.1zm-0.6 2c-0.1 0 0.1-0.1 0.2-0.1q0 0 0.1-0.1 0.1 0.1 0.1 0.1c0.1 0.1 0.4 0.3-0.1 0.3-0.1-0.1-0.3-0.1-0.3-0.2zm0.8-1.1q0 0 0 0 0 0 0.1 0 0 0-0.1 0zm0.8 0.6l-1.1-0.1 0.3 0.1c0.3 0 0.4-0.1 0.1-0.1q-0.3 0-0.5 0c0-0.1-0.1-0.2 0.2-0.1v-0.1c0.1 0.1 0.1 0.1 0.2 0.1 0.5 0 0.4 0.2 1.2 0.2 0.1 0 0.3 0 0.4 0zm-13-0.5q-0.1-0.1-0.3-0.2c0 0-0.1-0.1 0-0.1q0.2 0 0.4 0c0 0.1 0 0.2-0.1 0.3zm0.3 1.4q0.1 0 0.4 0.1 0.1 0 0.2 0-0.2 0-0.1 0.1 0 0-0.1 0-0.3-0.1-0.5-0.2 0.1 0 0.1 0zm-0.5 1.9c-0.2 0-0.2 0-0.1 0h-0.1q0 0-0.1-0.1 0.1 0.1 0.3 0.1zm-0.7 1.1c-0.1 0.1-0.1 0.1-0.1 0.1 0.3-0.1 0.6 0.2 0.9 0.1q0 0.1-0.1 0.1c-0.1 0-0.2 0 0 0.1q0 0 0 0 0 0-0.1 0-0.3 0-0.4 0.1l-0.1-0.2h-0.1-0.3c-0.1 0-0.1-0.1-0.1-0.1 0-0.1 0.2-0.1 0.4-0.2zm-0.4 1.1q0 0 0 0-0.1 0-0.1 0 0 0 0.1 0zm0.3 0.1q0 0 0 0-0.1 0-0.1-0.1 0 0 0.1 0.1zm-0.1 9.8c-0.1-0.1-0.2-0.1-0.2-0.2 0.2 0 0.6 0 0.4 0.2q0 0 0 0-0.1 0-0.2 0zm0.4-16.3c0.3 0 0.4 0.1 0.5 0q0 0 0 0 0 0.1 0 0.2c-0.3-0.1-0.7-0.1-0.5-0.2zm0.4 2.6q0.1 0 0.2 0-0.1 0-0.2 0 0 0 0 0zm-0.7 5.8q0 0-0.1 0 0.1 0 0.1 0zm-0.9-0.3q0 0.1 0.1 0.1l-0.3-0.1q0.1 0 0.2 0zm0.7 1.9q0 0 0.1 0 0.2 0.1 0.4 0.2c-0.2 0.1 0 0.2 0.2 0.3q-0.1 0-0.1 0.1l0.3 0.1q0 0 0 0 0 0-0.1 0c-0.2-0.1-0.4-0.1-0.5-0.2h0.1l0.2-0.1c-0.1 0-0.2 0-0.3 0q-0.1 0-0.2 0c0.1-0.1 0.3-0.2-0.1-0.4zm0.1 0.9q0 0 0 0-0.1 0-0.2-0.1 0.1 0 0.2 0.1zm-0.2 1.3l0.3 0.1 0.3 0.1q0 0-0.1 0 0 0-0.1 0h-0.5q0.1-0.1 0.1-0.2zm0.6 0.6q0.1 0 0.2 0c0 0 0 0 0.1 0.1l-1 0.1c0.1 0 0.1 0 0.1 0q0 0 0 0v-0.1c-0.1 0-0.3 0-0.4 0q0 0 0 0c0.1 0 0.2-0.1 0.1-0.1q-0.1 0-0.2-0.1c0.5 0.2 0.7 0 1.1 0.1q0 0 0 0zm-1.2 1.5c0-0.1 0-0.1 0.1-0.1q0.1 0 0.2 0 0 0 0 0.1c0.1 0.1 0.3 0.3 0.5 0.4l-0.7-0.1c0.1-0.1 0.3-0.1 0.3-0.1 0.1 0-0.1-0.1-0.2-0.1q-0.2 0-0.3 0.1-0.1-0.1-0.3-0.1c0.5 0.1-0.2-0.3 0.4-0.1zm0.8 3.2q0 0.1 0.1 0.2c-0.1 0-0.1-0.1-0.2-0.1-0.6-0.1-0.4-0.1-0.2-0.1q0.1 0 0.3 0zm12.6-13.9q0 0 0 0h0.3q0 0 0.1 0.1c0 0-0.3-0.1-0.4-0.1zm0.3-0.6q0 0 0 0l0.5 0.2q-0.1 0-0.2 0c0-0.1-0.1-0.1-0.3-0.2zm-12.7 4.3q0 0 0 0 0 0 0 0-0.1 0 0 0zm-0.1 0.3q0 0 0 0 0 0-0.1 0zm0 0.1q0 0 0 0v0.1l-0.4-0.1q-0.1 0-0.2 0-0.1-0.1-0.2-0.1zm-0.5 2.9q0.1 0.1 0.2 0.2l-0.8-0.3zm-0.4 0.7q0 0 0.1 0c-0.1 0.1 0 0.2 0.1 0.3 0.3 0 0.4 0.1 0.5 0.2-0.3-0.1-0.6-0.2-0.8-0.2q0-0.1 0-0.1c0 0 0 0-0.1-0.1q0 0 0.2-0.1zm0.4 1.2c0.1 0 0.2 0.1 0.3 0.1q0.1 0 0.2 0.1 0 0 0 0c-0.4-0.1-0.9-0.1-1.1-0.1-0.1 0-0.2-0.1-0.5-0.2 0.7 0.2 1 0.2 1.1 0.1zm-1 0.1q0 0-0.1 0.1 0.1 0 0.2 0.1 0 0 0 0c0 0-0.2-0.1-0.4-0.1 0 0 0.1-0.1 0.1-0.1-0.2 0 0 0 0.2 0zm0.1 3.7q-0.1 0-0.1 0.1c0 0 0.3 0 0.6 0.1q0-0.1 0.1-0.1c0 0 0.3 0.1 0.8 0.2l-1.3 0.4c-0.2-0.1 0-0.2 0-0.2v-0.1c-0.5 0-1.1-0.1-1.5-0.2 0.1 0 0.1 0 0.2-0.1 0.3 0 0.4-0.1 0.4-0.1 0.3 0 0.6 0 0.8 0zm-27.8-24q0.2 0 0.3 0c0 0-0.2 0-0.2 0q0 0-0.1 0zm-0.1-1.6q0 0 0-0.1 0 0 0.1 0c0.1 0 0.2 0 0.3 0q-0.2 0.1-0.4 0.1zm16 41.6q-0.1 0-0.2 0 0-0.1 0-0.1 0 0 0-0.1 0.1 0 0.1 0 0 0-0.1 0 0-0.2 0-0.4 0.1 0 0.1-0.1c0.2 0 0-0.1-0.1-0.2q0.1 0 0.1-0.1 0 0 0.1 0.1c0.1 0 0.4 0 0.7 0-0.2 0.1-0.4 0.1-0.2 0.2q0.1 0 0.2 0.1-0.3-0.1-0.6 0c-0.2 0.1 0 0.3 0 0.4 0 0 0 0.1 0 0.1h0.5c-0.2 0-0.4 0.1-0.6 0.1zm0.5-1.5c0 0-0.2 0-0.4 0q0-0.1 0-0.2 0.1-0.1 0-0.2 0.1 0 0.2 0l-0.1-0.1-0.1 0.1q-0.1-0.1-0.2-0.2c0 0-0.2 0-0.4 0l0.4-0.1q0 0 0 0c0.3 0.2 0.5 0 0.6 0 0.1 0.3 0.3 0.5-0.3 0.6 0 0 0 0.1 0.1 0.1l0.1-0.1 0.7-0.1c-0.2 0.1-0.3 0.2-0.6 0.2zm10.6-10.8q0-0.1 0-0.1 0 0 0 0-0.1-0.3 0.1-0.5c0.2-0.1 0-0.4-0.1-0.6q0-0.2 0-0.3 0 0 0 0 0-0.1 0.3-0.2c0 0.1 0.2 0.2 0.2 0.3 0 0 0.2 0.1 0.3 0.1 0.5 0 1.1 0.3 1.3 0.4 0.4 0.2-0.4 0.1-0.4 0.2 0 0 0.3 0.1 0.4 0.1q0 0.1-0.1 0.1-0.3-0.1-0.6-0.1-0.4-0.1-0.6-0.2-0.1 0.3-0.1 0.5c0 0.1 0.2 0.1 0.4 0.1l0.6 0.2c-0.2 0-0.5 0-0.6-0.1-0.8-0.2-0.2 0.2-0.8 0.1 0 0.1 0 0.2 0.1 0.2l0.7 0.3q-0.1 0-0.2 0c-0.3-0.2-0.8-0.4-0.9-0.5zm1.8 2.4c0-0.1-0.1-0.1-0.1-0.1-0.4 0-0.3 0.1-0.1 0.1-0.1 0.1-0.1 0.2-0.1 0.3 0 0 0.1 0.1 0.1 0.1h0.5c-0.2 0-0.4 0.1-0.7 0.1-0.1 0-0.3-0.1-0.4-0.1 0 0 0-0.1 0-0.1-0.7-0.1-0.1 0.4-1.2 0.2 0.9 0.1 0.6 0.2 0.4 0.3-0.2-0.2-0.6-0.3-0.4-0.4q0.2 0 0.4 0c0 0 0 0 0 0q-0.2 0-0.1-0.1 0.3-0.1 0.1-0.1c0-0.1-0.1-0.2-0.6-0.2v-0.2c0.3-0.1 0.8-0.1 0.3-0.2q-0.1-0.1-0.3-0.1v-0.2q0 0 0 0c0.2 0 0.1-0.1-0.1-0.1q0-0.1 0-0.1h0.3c0-0.1 0.1-0.1 0-0.2q-0.1 0-0.3 0 0-0.1 0-0.2 0 0 0 0l0.5-0.1h-0.5q0 0 0-0.1 0.4-0.1 0.5-0.3c0.1 0.1 0.1 0.1 0.1 0.1 0.1 0.2 0.4 0.2 0.6 0.2 0.2 0 0.3 0 0.5 0l-0.3-0.1q0 0 0 0 0.1 0 0.3 0c0.1 0 0.3 0.1 0.3 0.1 0.3 0.2 0.4 0.1 0.6 0.1q0 0.1 0 0.2 0 0-0.1 0c-0.2 0-0.2 0.1-0.2 0.3q-0.1 0-0.1 0c0 0 0 0 0.1 0q0 0 0 0.1-0.2-0.1-0.3-0.1l-0.4-0.2 0.2 0.2c0.1 0.1 0.1 0.1 0.1 0.1q0 0-0.1 0 0 0 0 0c-0.1-0.1-0.3-0.1-0.6-0.1q0-0.1 0.1-0.1c0-0.1-0.1-0.3-0.6-0.3-1.1-0.1 0.4 0.4-0.2 0.4q0.1 0.1 0.2 0.2 0.1 0 0.2 0h0.4q0 0 0.1 0 0 0 0 0h-0.1c-0.2 0.1-0.4 0.2-0.8 0-0.1 0-0.2 0-0.2 0.1 0 0 0.2 0.1 0.3 0.1h1q0.2 0.1 0.4 0.1c0 0.1 0.3 0.1 0.5 0.1q0.3 0.2 0.5 0.4-0.3-0.2-0.7-0.1zm-0.5-1.8l0.4 0.2c-0.2 0-0.6 0-0.8-0.1 0.4 0.1 0.3 0 0.4-0.1zm13.5-14.1q0.2 0 0.4 0c0 0 0.1 0 0.1 0-0.3 0-0.3 0.1-0.3 0.2-0.4-0.2-0.8-0.1-0.9-0.2 0.5 0.1 0.4 0 0.7 0zm0.3-0.7c0.4 0.2-0.5 0.2-0.7 0.3 0-0.1 0-0.1 0.1-0.1 0.2 0 0.5-0.1 0.4-0.2-0.3 0.1-0.5-0.2-0.8-0.2-0.1-0.1-0.3-0.1-0.5-0.2 0.4 0.1 1.3 0.2 0.1-0.1 1.2 0.3 1.1 0.1 1.2-0.1q0.1 0 0.2 0.1c0.2 0.1 0.5 0.2 0.3 0.3-0.4 0-0.5 0.1-0.3 0.2zm-13.3-3.3l0.4 0.1q0 0 0 0c0 0 0.1 0.1 0.2 0.1q0 0 0 0c0 0 0 0.1 0.2 0.1q0.1 0 0.3 0.1 0 0-0.3 0.1-0.1 0-0.2-0.1 0.1 0 0.2 0c-0.2-0.1-0.1-0.2-0.6-0.2-0.1-0.1-0.2-0.1-0.5-0.1-0.1-0.1-0.3-0.1-0.5-0.2zm-13.8 35.6q0 0 0-0.1c0.5 0.1 0.1 0.2-0.1 0.4q0-0.2 0.1-0.3zm0.2-3.3q-0.1 0-0.1 0.1-0.1-0.1-0.1-0.3c0 0 0-0.1 0.1-0.1l0.1-0.1c0.3 0.1 0.4 0.2-0.1 0.3-0.4 0.1 1.1 0 0.1 0.1zm2-3q0 0-0.1 0 0.1 0 0.2 0c0 0 0 0 0 0q0 0 0 0 0 0-0.1 0zm10.3-11.1q0 0 0.1 0h-0.2q0.1 0 0.1 0zm0 0.9q0 0 0 0 0 0 0 0zm12.1-3.4c-0.1 0-0.1-0.1 0.1-0.1q0.1 0.1 0.3 0.2l-0.1 0.1c0-0.1-0.1-0.1-0.3-0.2zm0.4-0.9q0 0 0 0 0 0 0 0zm0.3-3.7c0.2 0.1 0.3 0.2 0 0.2q0-0.1 0-0.2zm0.4-1.2q-0.1 0-0.1-0.1c0 0-0.1-0.2-0.2-0.2q0.8 0.2 0.3 0.3zm0.4-4.6c0.1 0 0.4 0.1-0.1 0.1q0.1-0.1 0.1-0.1zm-3.1-28.5q0 0.1 0 0.1c0.1 0-0.1 0-0.2 0q0.1-0.1 0.1-0.1 0.1 0 0.1 0zm-0.3 0.2q0-0.1 0-0.1 0.2 0.1 0.3 0.2c-0.3 0-0.5 0-0.3-0.1zm-37.5 10.2q0 0 0 0c-0.2-0.2-0.1-0.2 0-0.3q0 0.2 0 0.3zm-4.1 27.7q0 0 0.1 0c0.1 0 0.8 0 0.6 0.1 0 0-0.7 0-0.8 0.1q0.1-0.1 0.1-0.2zm7.4 14.9q0 0 0 0 0 0-0.1 0 0 0 0.1 0zm36.3-16.6q-0.1 0-0.1 0 0.1-0.1 0.1-0.1h0.2q-0.1 0.1-0.2 0.1zm0.2-0.3q0 0 0.1 0 0 0-0.1 0zm0.3-1.6l0.4 0.1q0 0 0 0 0 0 0.1 0-0.2 0.1-0.5 0 0 0 0-0.1zm-39-25.4q0 0 0.1 0.1c0 0 0 0 0 0q0 0-0.1-0.1-0.1-0.1-0.2-0.1 0-0.1 0-0.1 0 0.1 0.1 0.1 0 0-0.1 0 0.1 0 0.2 0.1zm-1.1 0.6q0 0 0 0.1 0-0.1-0.2-0.1 0 0 0 0 0.1 0 0.2 0zm-1.3-0.7q0-0.1 0-0.1 0 0 0 0.1zm-11.5 16.8c0.2 0 0.1 0 0 0q0.1-0.1 0.2-0.1 0 0.1 0 0.2-0.2-0.1-0.5-0.1c0 0 0.1 0 0.3 0zm8.6 13.1q-0.1-0.1-0.1-0.1 0.2 0 0.5 0c0.1 0.1 0.1 0.1 0.2 0.1q-0.1 0-0.1 0l-0.4-0.1zm-0.2-0.2q-0.1 0-0.2-0.1 0-0.1 0.2-0.1 0.1 0 0.2 0-0.1 0-0.2 0 0.1-0.1 0.2-0.1c0 0 0.2 0 0.9 0.1zm1.1-1.9q0 0 0 0 0.1 0 0.1 0 0 0-0.1 0zm0.7-0.4c-0.2 0-0.5 0-0.6 0q-0.1-0.2-0.1-0.3c0 0 0 0 0.1 0 0.3 0.1 0.4 0 0.4 0-0.6-0.3 1 0.2 0.9 0 0.1 0 0.2 0.1 0.2 0.1q0 0.1-0.1 0.1 0 0-0.1 0l-0.5-0.1 0.4 0.2q0 0 0 0c-0.2 0-0.4 0-0.6 0zm-0.7-0.9q0-0.1 0-0.1 0 0 0 0h0.4c0.2 0 0.4 0.1 0.1 0.1q-0.3 0-0.5 0zm0.3-0.9c0 0 0 0-0.1 0q0 0 0.1-0.1 0.3 0.1 0.6 0.1l-0.2 0.1zm6.5 18.3q0 0 0 0-0.1 0-0.2 0 0.1 0 0.1-0.1zm10.5 8.3q0.1 0 0.2 0 0 0 0 0.1-0.1 0-0.1 0l-0.1-0.1q0 0 0 0zm25.1-21q-0.1-0.1-0.2-0.1c0.1 0 0.1-0.1 0-0.1q0-0.1 0.2-0.1 0.1-0.1 0.2-0.1 0 0 0 0l-0.2 0.4q0 0 0 0zm1-4.2h-0.3q0 0 0 0c0 0 0.2 0 0.2 0-0.2-0.1-0.3-0.2-0.3-0.2h0.3q0.1 0.1 0.1 0.2zm-0.1-0.8q0-0.2 0-0.4h0.8q-0.2 0.1-0.3 0.2h-0.2q0.1 0 0.1 0-0.1 0.1-0.2 0.2-0.1 0-0.2 0zm-25.7-20.4q-0.1 0-0.1 0 0 0 0 0 0 0 0.1-0.1 0 0.1 0 0.1zm-0.2-0.7q0 0 0 0 0 0-0.1 0l0.1-0.1q0 0 0 0.1zm-14.4-5.5c0-0.1 0.4 0.1 0.8 0.3 0 0-0.1 0.1-0.2 0 0 0 0 0 0 0.1q-0.4-0.2-0.7-0.3 0 0 0-0.1h0.1q0 0 0 0zm-12.3 17.5q0 0 0 0c-0.1 0-0.1 0-0.2 0q0.1 0 0.2 0zm-0.1-0.1q0 0-0.1 0 0 0-0.1 0h0.2 0.1q0 0 0 0h-0.1q0 0 0 0zm-1.8 3.1q-0.1-0.1-0.2-0.2c0.3 0.1 0.3 0.1 0.2 0.2zm11 6.8q0 0 0 0 0 0 0 0 0 0 0 0h0.1c0 0-0.1 0-0.1 0zm-0.3 7.9q0-0.1-0.1-0.2c0.3 0 0.5 0.1 0.1 0.2zm0.1 0q0 0-0.1 0c0.3 0 0.5 0 0.1 0zm44.4-7.8l0.2 0.1zm-0.2-0.1h-0.2l0.2-0.2 0.4 0.1v0.1zm-4.8-35.7l-0.5 0.2c0.1-0.2 0.2-0.3 0.5-0.2zm-10.9 7.9q0.1 0 0.1-0.1c0.1 0.2 0.1 0.3 0 0.4q-0.1 0-0.1 0c0-0.1 0-0.2 0-0.3zm-12.1 4.5q0 0-0.1 0.1 0.1 0 0.1-0.1 0 0 0 0 0.1 0.5 0.3 0.9c-0.1-0.1-0.2-0.2-0.3-0.1-0.7 0.3-0.5 0.4-0.3 0.5 0 0-0.1 0.1-0.1 0.1 0 0.2-0.2 0.2-0.2 0.1q0-0.5 0-1.1c0-0.1 0.3-0.4 0.5-0.6q0 0 0 0 0.1 0.1 0.1 0.2zm-14-3.9q0 0-0.1 0 0 0 0 0 0.1 0 0.1 0 0 0 0 0zm-15.8-8q0 0 0 0c0.2 0.1 0.5 0.2 0.7 0.3zm-0.6 0.9c0.1 0.1 0.2 0.2-0.1 0.2q-0.1-0.1-0.2-0.1 0.1 0 0.3-0.1zm1.6 24.8q0 0 0 0c0.4 0 0.9 0 1.3 0q0.1 0 0.1 0.1c-0.2 0 0 0.1 0 0.1q-0.1 0.1-0.1 0.1-0.1 0-0.4-0.1-0.3 0-0.3 0l0.8 0.1q0.1 0.1 0.1 0.2c0.2-0.1 0.6-0.2 0.6-0.4 0-0.1 0-0.2-0.1-0.3 0-0.1 0.1-0.1 0-0.1-0.1 0 0 0 0-0.1q0 0.1 0 0.1c0.6 0.1 1.1 0.2 1.3 0.3-0.1 0-0.1 0-0.2 0.1 0 0 0 0 0 0h0.2 0.1q0 0 0 0.1 0 0 0 0c-0.1 0-0.4-0.1-0.6-0.1q-0.2-0.1-0.3-0.2l0.2 0.3c0 0 0.1 0.1 0 0.1-1.1 0.1-0.3 0.4 0.1 0.6 0.1 0.1 0.4 0.1 0.7 0.1h0.4q0 0.1 0 0.1c-0.3 0-0.6 0-0.4 0.2 0.1 0 0.5 0 0.7 0.1-0.1 0-0.2 0-0.3 0.1 0 0 0 0 0 0-0.3-0.2-0.6-0.3-1-0.1 0 0 0 0-0.1 0.1q-0.1 0-0.2 0 0 0-0.1 0c0.1 0 0.2 0 0.2 0q0 0 0.1 0.1 0 0.1 0 0.3c0 0 0 0 0.1 0l0.3 0.1q0 0 0 0-0.1 0-0.3 0.1-0.1 0-0.1 0 0 0-0.1 0c-0.1 0-0.3 0-0.4-0.1-0.1 0 0-0.1 0-0.1-0.6 0-0.3 0.4-0.9 0.4-0.3-0.4-0.7-0.7-1.1-1-0.6-0.3-0.9-0.8-1.3-1.3l1.4 0.2c0.5 0 1.1 0-0.4-0.2zm9.8 16.7c0 0.1-0.3 0.1-0.4 0.2 0.1-0.2 0.3-0.5 0.5-0.7q0-0.1 0.1-0.2 0 0 0 0 0.1 0 0.1 0h1.2q0 0 0.3 0c0.8 0.1-1 0.2 0 0.3-0.1 0-0.1 0-0.1 0q0 0 0 0c-0.3 0-0.3 0-0.2 0 0 0.1-0.1 0.1-0.2 0.1-0.3 0.4-1-0.5-1.3 0.3zm7.8 7.7c-0.2-0.1-0.4-0.2-0.5-0.3-0.5-0.6 0.1-1.7-1-2-0.2-0.1-0.5-0.4-0.4-0.7h0.4q0.1 0.1 0.3 0.3c0.1 0.1 0.3 0.1 0.3 0.1 0.1-0.1 0.1-0.3 0.2-0.4q-0.1-0.1-0.2-0.1h0.4 0.5 0.2l0.8 1.3c0.1 0 0.2 0 0.4 0.1q0-0.1 0-0.1c0.2 0 0.8-0.1 0.6 0.1-0.1 0.1-2 0.2 0 0.3l-1.4 0.5h-0.2l0.5 0.1q0.3 0 0.6 0c0.1 0 0.2 0 0.3 0.1q-0.1 0-0.1 0l-0.5-0.1-0.4 0.2c0.4-0.1 1.1 0.1 1.4-0.1 0 0 0.2 0 0.3-0.1 0.1 0 0.3 0.1 0.3 0.1 0.1 0.2 0.2 0.4 0.2 0.6 0.1 0-0.1 0.1-0.2 0.1h-0.2c-0.1-0.1 0.5-0.1-0.1-0.1-0.1 0-0.1 0.1-0.2 0.1l-0.1 0.1h-0.6q-0.1-0.1-0.1-0.1 0 0 0 0c0 0 0-0.1-0.1-0.1q0 0-0.1 0 0-0.1 0-0.1 0 0 0 0.1 0 0-0.1 0 0 0-0.1 0 0 0-0.1 0.1l-0.4-0.2c0 0 0.1 0 0.2 0h0.4l-0.5-0.1q-0.1 0-0.2 0.1l-0.5-0.5q-0.1 0.1-0.1 0.2 0.1 0.3 0.1 0.5zm0.9-3q0 0 0.1 0l0.3 0.1zm1.9 5.5q-0.1 0-0.1 0l0.5-0.1q-0.2 0-0.4 0.1zm-0.8-1.8q0-0.1-0.1-0.3 0.3 0.1 0.4 0.1c0.3 0.2-0.1 0.2-0.3 0.2zm-0.7-0.7q0 0 0.1 0 0 0 0 0zm11.5 11q0.1 0.1 0.2 0.3l0.1-0.1q0.1 0 0.3 0 0 0 0 0-0.1 0.1-0.2 0.2 0 0-0.1 0c-0.3 0-0.1 0.1 0 0.1q-0.1 0.1-0.2 0.1 0 0 0 0-0.1 0-0.2 0c-0.2-0.1-0.5-0.4-0.7-0.7zm15.6-8.2c-0.8 0.1-1.5 0.2-1.8 1.2 0 0.1-0.2 0.2-0.4 0.3-0.1 0-0.2-0.2-0.3-0.3 0.2 0.6-0.2 0.8-0.5 1v0.1c0.5 0.3 1.2 0.6 1.4 1.1 0.2 0.7-0.5-0.3-0.8 0.1-0.1 0.2-0.6 0.2-1 0.1q0-0.2 0.1-0.4c0.1-0.3 0.2-0.5 0.3-0.8 0-0.4-0.1-0.7-0.1-1 0-0.1 0-0.2 0.1-0.3q0.2-0.2 0.4-0.3c-0.2 0-0.4 0-0.5-0.1q-0.1 0-0.3-0.1 0 0 0 0 0-0.1 0-0.2c0.1 0 0.2 0.1 0.2 0.1-0.3 0.2 0.6 0 0.5 0.1 0.1 0 0.1 0 0.1-0.1-0.1-0.2-0.6-0.6-0.2-0.7 1-0.1-0.7-0.4 0.2-0.5-0.4 0-0.5-0.1-0.6-0.2q0 0 0-0.1 0.1 0 0.2-0.1c0.2 0 0.5 0 0.6 0.1q0 0 0 0c-0.1 0-0.3 0-0.6 0.1 0.1 0 0.3 0.1 0.4 0.1h0.2q0 0.1 0.2 0.4c0.5 0.5 0 0.4-0.3 0.4 0.2 0.9 0.7-0.2 1 0.1-0.2-0.3-0.5-0.6-0.6-1h1 0.4c0 0 0 0-0.1 0.1l-0.9 0.2h1.3 0.4c-0.1 0.1-0.1 0.4 0 0.6zm11.7-17.6l-0.3-0.1q0 0 0 0l0.3 0.1q0 0 0 0zm-18.2-28.4c0.2 0 0.4 0.2 0.4 0.3 0 0.3-0.4 1 0.5 0.9q0 0 0 0c-0.1 0-0.3 0-0.4 0.1-0.4 0.1 0.2 0.5-0.2 0.6q0 0 0 0.1c-0.4-0.5-1.2-0.8-0.8-1.5 0 0-0.2-0.2-0.3-0.3 0.3-0.1 0.6-0.2 0.8-0.2zm-5.8-3.3q-0.1 0.1-0.1 0.2-0.1-0.1-0.2-0.3c0.1-0.1 0.5-0.9 0.3 0.1zm-7.6 4.3q0.1 0.2 0.2 0.5h-0.4l-0.4 0.1c0.1-0.1 0.3-0.2 0.4-0.3q0.1-0.1 0.2-0.3zm-10.5-11.7c0.1 0.2 0.6-0.4 0.3 0.2q-0.1 0.2-0.3 0.4c0.4-0.1 0.6 0.1 0.7 0.3-0.4 0.1-0.7 0.3-0.9 0.5-0.3 0.2-0.5 0.3-0.7 0.3q0 0 0-0.1 0 0-0.1 0.1-0.2-0.1-0.5-0.3c0.2-0.2 0.5-0.4 0.6-0.5 0-0.1-0.5-0.1-0.5-0.1-0.2 0.1-0.4 0.2-0.6 0.2-0.4-0.2-0.8-0.1-1.2 0.2q0.1-0.1 0.2-0.3c0 0 0.4-0.1 0.6-0.2 0.1 0 0.1 0.1 0.1 0.1q0 0-0.1 0.1c0.1 0 0.3-0.1 0.3-0.1 0.1 0 0.3-0.1 0.2-0.1-0.6-0.1-0.4-0.1 0.2-0.1-0.3-0.1 1.4-0.1 0.5-0.3-0.2 0-0.4-0.1-0.4-0.1 1.1-0.3-0.5 0-0.2-0.1 0.1 0 0-0.1 0.1-0.1 0.3-0.1 0.4-0.1 0.4-0.2q0.1 0 0.1 0c0.4 0.1 1-0.6 1.2 0.2zm-1.3-0.8c-0.1 0.2-0.2 0.3-0.2 0.4q-0.1 0-0.2 0 0.2-0.1 0.4-0.4zm-2.9-0.9c0 0 0 0.1 0.1 0.2q0.2 0.2 0.4 0.4l-0.6 0.1-0.6 0.1c0-0.1 0-0.1 0-0.2 0-0.1 0.4-0.4 0.7-0.6zm-3.1 1.2l-0.4 0.1-0.5-0.4c0.3 0 0.6 0.1 0.9 0.3zm-9.5 2.8c0.3 0.1 0.5 0 0.7-0.1q0 0 0 0c-0.1 0.3 0 0.6-0.4 0.7 0 0-0.1 0.1-0.1 0.1-0.1-0.1-0.2 0-0.4 0.1l-0.4-1.1c0.2 0.1 0.4 0.3 0.6 0.3zm-0.8 2.6c0.4 0.2 0.1 0.2-0.2 0.2 0-0.1 0-0.2 0.2-0.2zm-1.4 1.2c0.3-0.2 0.6-0.3 0.9-0.5l-0.1 0.3c0 0.3 0 0.5-0.2 0.7-0.1 0.1 0.5 0.3 0.4 0.3q-0.3 0-0.5 0.1c-0.1 0 0 0.1 0 0.1h-0.1c0.6 0.3-0.2 0.1-0.2 0.3q0 0.1 0 0.2c-0.1-0.2-0.2-0.5-0.5-0.8-0.1-0.1 0.2-0.5 0.3-0.7zm15.2 39.9q0-0.1 0-0.1c0.2 0 0.2 0.1 0 0.1zm6.4 4.8l0.2 0.1q-0.1 0-0.1 0 0 0-0.1 0 0 0 0-0.1zm15.5 16.2c-0.1-0.1-0.1-0.1-0.2 0 0.2 0.1 0.2 0.2 0 0.5q0 0.1 0 0.2-0.1 0.2-0.2 0.3h0.5c0.1 0 0.1 0.2 0.1 0.4 0 0-0.2 0-0.2 0-0.1 0.3-0.3-0.1-0.5-0.3q-0.1 0.2-0.3 0.3c0 0 0 0.1 0 0.2q0-0.1-0.1-0.2-0.1-0.1-0.2-0.3 0-0.1-0.1-0.2 0 0 0 0c-0.1-0.1-0.1-0.6-0.5-0.3 0.2-0.3 0.5-0.8-0.1-0.6-0.9 0.2-0.7-0.2-0.5-0.7 0-0.1 0-0.1 0-0.2-0.1 0-0.1 0-0.1 0.1l-0.9 0.7c0.2-0.2 0.3-0.5 0.4-0.8q0.2-0.3 0.5-0.5 0 0.1 0 0.1 0 0-0.1 0 0.1 0 0.3 0c0 0.1 0 0.1 0.1 0.2q0.2 0 0.3 0.1h0.3c0 0 0 0 0 0h0.7l0.8-0.1 0.2 0.1h1.7c0.2 0.1 0.4 0.1 0.2 0.3-0.5 0.4-1.1 0.8-1.6 0.8-0.2-0.1-0.4-0.1-0.5-0.1z"/><path class="a" d="m50.1 79q0 0 0 0h-0.1q0.1 0 0.1 0z"/><path class="a" d="m49.8 79h-0.3q0.1 0.1 0.2 0.3 0 0 0.1 0 0-0.2 0-0.3z"/><path class="a" d="m49.8 79h0.2c-0.1-0.2-0.2-0.2-0.2 0z"/><path class="a" d="m62.8 5.3c0.8-0.3 1.5-0.9 2.7-1.5-1.6 0.2-2.8 0.5-3.9 0.9-0.1 0-0.3 0.6-0.2 0.6 0.4 0.1 1 0.2 1.4 0z"/><path class="a" d="m95.1 21.6c0.2 0.4 0.4 0.7 0.6 0.4 0.9-1-1-1.9-0.8-2.9q-0.3-0.4-0.6-0.7c0.1 0.7 0.1 1.4 0.3 2.1 0.1 0.3 0.3 0.8 0.5 1.1z"/><path class="a" d="m65.2 2.6c-0.3 0.5-1.7 0.5-1.1 1.2q0.8-0.6 1.7-1.2c-0.2 0-0.6 0-0.6 0z"/><path class="a" d="m65.8 2.6h0.1-0.1z"/><path class="a" d="m19.1 42c0-0.1-0.3-0.1-0.4-0.2-0.1 0.1-0.3 0.1-0.3 0.2 0 0 0.4 0.1 0.6 0.1 0 0 0.2-0.1 0.1-0.1z"/><path class="a" d="m31.1 12.3l0.5 0.3c0.1-0.1 0.2-0.1 0.2-0.1-0.3-0.1 0.3-0.3-0.7-0.2z"/><path class="a" d="m31.6 12.6z"/></svg>