<svg version="1.2" xmlns="http://www.w3.org/2000/svg" viewBox="0 0 33 32" width="33" height="32"><style>.a{fill:#de6b38}.b{fill:none}.c{fill:#ef6224}</style><path class="a" d="m12.4 12.6q0 0 0 0z"/><path fill-rule="evenodd" class="b" d="m9.7 17.3c0.1-0.1 0.1-0.1 0.1-0.2 0-0.1 0.1 0 0.1 0q0-0.3 0-0.6 0 0-0.1-0.1 0 0.1 0 0.1c-0.1 0.1 0-0.2-0.2-0.1 0 0 0 0 0 0l0.1-0.5q0 0.1 0 0.1c0 0.1 0 0.1 0.1 0.1 0.1-0.1 0.1-0.2 0.2-0.1l0.1-0.1q-0.1 0-0.1 0-0.1 0-0.1 0v-0.2 0.1h0.2v-0.1q-0.1 0.1-0.1 0.1 0 0 0-0.1c-0.1 0 0.1-0.1 0-0.2l0.3 0.1q0 0-0.1 0c-0.1 0.2 0.1 0.4 0.1 0.5q0 0.1 0 0.1 0 0-0.1 0l-0.1-0.1q0 0.1 0 0.1c0.1 0 0 0.1 0.2 0.1 0 0 0.1 0 0.1 0q0 0.1 0 0.2l-0.1-0.1c0 0.1 0.1 0.2-0.1 0.2 0.2 0.1 0 0.3 0.1 0.4 0 0.1 0 0.2 0 0.3 0 0-0.1 0-0.1 0.1q-0.1 0-0.1 0.1-0.1 0.1-0.1 0.1 0 0-0.1 0c-0.4 0 0-0.2-0.1-0.2-0.1 0 0-0.1-0.1-0.1zm0.4-0.5q0-0.1 0.1-0.2c0 0-0.1 0-0.1 0-0.1 0-0.1 0-0.1 0.1q0 0.1 0.1 0.1zm-0.1 0.4l-0.2 0.2c0 0 0 0.1 0 0.1 0.1 0.1 0.1-0.1 0.2-0.1 0.1 0 0.2-0.1 0-0.2z"/><path class="a" d="m22 21.5z"/><path class="a" d="m10.4 19.2z"/><path class="a" d="m22.8 13.9z"/><path fill-rule="evenodd" class="a" d="m11.4 11.6l-0.1-0.2q0.1 0 0.2 0.1 0 0 0-0.1h-0.1q-0.1-0.1-0.2-0.2 0 0 0-0.1c0.3 0.2-0.1-0.1 0-0.1 0.1 0 0.2-0.3 0.4-0.2 0.1 0 0.3 0.1 0.4-0.1q0 0 0 0.1c0.1 0.1 0.1-0.1 0.1-0.1 0.2 0 0.2-0.1 0.2-0.2q0.1-0.1 0.1-0.1c0.1 0 0.1 0.1 0.1 0.1 0-0.2 0.2-0.3 0.3-0.3 0.1-0.1 0.3 0 0.4 0q0 0 0 0c0.1 0 0.1-0.1 0.1-0.1-0.1-0.1 0-0.2 0.1-0.3 0.1 0 0.2-0.2 0.4 0 0.2 0.1 0.4 0 0.6-0.1 0 0 0 0.1 0.1 0.1 0.1 0.1 0.2 0.1 0.1 0.3 0 0 0.1 0.1 0.1 0.1v-0.1c0.2 0.1 0.1-0.1 0.1-0.2-0.1-0.3 0.4 0 0.3-0.2q0.1 0 0.1 0 0.1 0.1 0.1 0 0 0 0.1 0 0 0 0 0v0.1q0 0 0 0h0.2c0.1 0-0.1-0.3 0.1-0.2l0.3 0.1q0 0 0 0c-0.1 0.3 0.2 0.2 0.3 0.3q0 0.1 0 0.2l0.1-0.2c-0.1 0-0.1-0.1 0-0.2 0 0 0.3 0 0.4 0.1 0 0.1 0-0.1 0.1 0q0.1 0 0.2 0.1c0.1 0 0.1 0.1 0.2 0 0.1-0.4 0.2 0 0.4 0.1 0 0 0.2 0.1 0.3 0.1 0.1-0.1 0.1 0.1 0.2 0.1l0.1-0.1c0 0.1 0 0.1 0 0.1 0-0.2 0.2-0.1 0.1-0.2 0.1 0 0.2-0.1 0.1 0.1 0.1 0 0.2 0.2 0.3 0.2 0.2 0 0.4-0.1 0.6-0.1q0 0 0 0.1 0 0-0.1 0.1 0 0 0 0.1 0 0 0.1-0.1c0.1-0.1 0 0.3 0.2 0.1q0 0 0.1-0.1-0.1 0-0.1 0c-0.1 0-0.1 0.1-0.1 0 0-0.1 0.1-0.1 0.1-0.1 0.1 0 0.3 0.1 0.4 0.2 0.1 0.2 0.3 0.2 0.4 0.3q0 0 0.1 0 0 0-0.1-0.1c0 0-0.1-0.1 0-0.2q0 0 0.1 0.1 0 0 0 0c0.1 0.1 0.1 0.2 0.2 0.2 0.3 0 0.2 0.4 0.4 0.4q0.2 0.1 0.2 0.3c0 0 0.2 0.1 0.3 0.1q0.1 0 0.3 0.1c0 0-0.1 0.1-0.1 0.2 0.1 0 0.1 0.1 0.1 0.1 0.2 0.1 0.3 0.3 0.5 0.4 0.2 0.1 0.3 0.4 0.4 0.6 0.1 0.2-0.2 0-0.1 0.1q0.2 0.2 0.4 0.5 0 0 0 0 0 0 0 0 0 0-0.1 0 0 0-0.1-0.1c0 0.1 0 0.2 0 0.3 0 0 0 0-0.1 0 0 0 0-0.2-0.1-0.2-0.2 0-0.1-0.3-0.2-0.3q0 0 0 0 0 0 0 0 0.1 0 0.1 0 0 0 0 0l-0.1-0.2q0 0 0 0c-0.1-0.1-0.2 0.1-0.3 0 0.1 0.1 0.1 0.3 0.2 0.5 0.1 0.1 0.1 0.4 0.4 0.2 0 0.2 0.1 0 0.2 0.1 0.1 0.1 0.1 0.2 0 0.2 0 0.1 0.1 0.1 0.1 0.1 0.2 0 0.1 0.4 0.3 0.4-0.1 0.1 0.1 0.1-0.1 0.2-0.1 0 0 0.2 0 0.3 0.1 0.1 0.2 0.2 0.3 0.2 0.1 0 0.1 0.1 0.1 0.1q-0.1 0.1-0.2 0.1-0.1-0.1-0.1 0c0 0 0 0.1 0 0.1l-0.2 0.1q-0.1 0-0.2 0c0 0 0.1 0.1 0.1 0.1 0.2-0.1 0.1 0.1 0.2 0.1 0.2-0.1 0.1 0.1 0.1 0.1 0.1 0.1 0.1 0.2-0.1 0.3 0 0 0.1-0.1 0.1 0q0.1 0 0.1 0.1v-0.1q0 0 0 0c0 0.1 0.3 0 0.2 0.2q-0.1 0-0.1 0v-0.1q-0.1 0.1-0.2 0.2c0 0 0 0.1 0 0.1h0.1q0 0.1 0 0.1c0.1 0 0.2 0.1 0.2 0.1-0.1 0-0.1 0-0.2 0-0.2 0.1 0.1 0.3 0 0.4q0 0 0 0 0 0 0 0c-0.1 0-0.1 0-0.1 0q0-0.1 0-0.2c-0.1 0-0.1 0.1-0.1 0.2 0.1 0.2-0.1 0.2-0.1 0.4q0 0 0 0.1v-0.1q0.1 0 0.1 0v0.2q0 0.1 0 0.1c0 0 0 0 0 0q0 0 0.1 0 0 0-0.1 0.1c0 0.1 0 0.2-0.2 0.1q0 0 0 0.1 0 0-0.1 0c0.1 0 0.2 0.1 0.2 0 0 0 0.1 0 0.1 0l-0.1 0.1q0 0 0 0 0 0 0 0h-0.2c0 0 0.1 0 0.1 0-0.1 0.2 0.1 0.3 0 0.4-0.1 0.1 0 0.1 0 0.2 0 0 0.1 0 0.1 0 0.1-0.1 0.1-0.1 0.1 0 0.1 0 0.1 0.1 0 0.1q0 0-0.1 0-0.1 0-0.3 0 0.1 0 0.2 0.1c0.1 0 0.1 0.1 0 0.1-0.1 0-0.1 0-0.1 0q0 0 0-0.1c0 0 0-0.1 0-0.1q-0.1 0.1-0.2 0.1 0 0 0 0 0.1 0.1 0.1 0.2c-0.1-0.1 0 0.1-0.2 0.1 0 0 0 0-0.1 0q0 0 0.1 0.1 0 0 0-0.1c0.1 0 0.2 0 0.1 0.1 0 0.1-0.1 0.2-0.1 0.2-0.1 0.1-0.1 0.1-0.1 0.2 0 0 0 0.1 0.1 0q0 0 0.1 0c-0.1 0.1-0.1 0.1-0.2 0.1 0 0.1 0 0.2 0 0.2 0.5 0.1-0.1 0.4 0.1 0.5q0 0.1 0 0.1-0.1-0.1-0.1-0.1-0.1-0.1-0.2-0.2 0 0 0 0.1c0.2 0.1-0.2 0.3 0.1 0.4 0 0 0.1 0.1 0.1 0.1q-0.1 0.1-0.1 0.2c-0.1 0-0.1-0.1-0.1-0.1 0-0.1 0-0.2-0.1-0.2q-0.1 0-0.2 0l0.2 0.1q0 0 0 0 0 0 0 0c-0.1 0-0.2 0-0.2 0.2 0.1 0.1 0 0.1-0.1 0l-0.2-0.1 0.2-0.2q0 0 0.1 0.1v-0.1q-0.1 0-0.1 0l-0.2-0.1q0 0 0 0 0.1-0.1 0.1-0.1-0.1 0-0.1 0c0 0.1-0.1 0.1-0.1 0.1 0 0.1 0.1 0.2 0.1 0.2-0.1 0.1-0.1-0.1-0.2-0.1-0.1 0 0.2 0.1 0 0.1-0.1 0-0.1 0-0.2 0.1-0.1 0.1 0 0.2 0.1 0.2q0.1 0 0.2 0 0 0 0-0.1 0 0-0.1 0h-0.1c0 0 0 0 0 0 0.1-0.1 0.1-0.1 0.2 0 0.1 0 0.2 0.2 0.3 0 0.1 0.1 0 0.1-0.1 0.1-0.2 0.2 0 0.3 0.1 0.4-0.1 0-0.2 0.2-0.2 0.2-0.2 0-0.2 0.4-0.5 0.2 0.2 0.3-0.1 0-0.1 0.1 0 0-0.1 0-0.1 0 0.1 0 0.1 0.1 0.1 0.1 0.2-0.1 0 0.2 0.1 0.1 0 0.1-0.1 0.1-0.2 0.2-0.2 0-0.3 0.1-0.4 0.2-0.1 0.1 0.2 0 0.1 0.2-0.2 0.4-0.3 0-0.4 0.1-0.1-0.1-0.1 0.1-0.2 0q0 0.1 0 0.1c-0.1 0.1-0.1-0.1-0.2 0-0.2 0.1-0.3 0.2-0.5 0.2-0.1 0.1 0.1 0.1 0.1 0.2q0 0 0 0c-0.1-0.1-0.2 0.1-0.3 0.1q-0.3-0.2-0.3 0.1 0 0-0.1 0 0 0-0.1 0 0.1 0 0.1 0 0-0.1 0-0.1c-0.1-0.1-0.2-0.2-0.3-0.2-0.1 0.1-0.1-0.2-0.1 0 0 0.1 0 0.2 0.1 0.3-0.1 0-0.2 0-0.2 0.1q0 0-0.1-0.1 0 0-0.1 0c-0.1 0.2-0.3 0.1-0.4 0-0.1 0.2-0.3 0-0.4 0.1q0 0 0 0c-0.3-0.1-0.6 0.1-0.9 0q-0.2 0-0.4 0c-0.1 0-0.2 0.1-0.3 0.1q0 0.1-0.1 0.1c0 0-0.2 0-0.1-0.1 0 0 0-0.1 0-0.1q-0.1 0-0.1 0v0.1c0 0-0.1 0-0.1-0.1 0 0 0-0.1 0.1-0.1 0.2 0 0.2 0 0-0.1 0 0.2 0 0-0.1 0q-0.3 0-0.6-0.1-0.2-0.1-0.5-0.2c0 0.3-0.2 0-0.3 0.1 0.1-0.3-0.1-0.2-0.3-0.3 0 0 0 0 0 0 0 0 0 0.1 0 0.1q0 0 0.1 0h-0.2v-0.1-0.2l-0.1 0.1q0 0 0 0c-0.1-0.1-0.1-0.1-0.2-0.1-0.1 0-0.2-0.1-0.2-0.1q-0.3-0.1-0.7-0.2 0 0 0 0v0.1q0 0 0 0-0.2 0-0.3-0.2c0.1 0.1 0.1 0.1 0.1 0 0.1 0 0.2 0 0.3 0q0.1 0 0.1 0.1 0-0.1 0-0.1c0-0.2-0.1 0-0.2-0.1 0 0 0-0.3-0.1-0.1 0 0-0.1 0-0.1 0 0-0.4-0.5-0.5-0.6-0.8-0.1-0.1-0.3-0.1-0.4-0.2-0.1 0.1-0.1 0-0.2 0-0.1-0.1 0.3 0 0.1-0.1-0.1-0.1-0.3 0-0.3 0.2q0 0.1 0 0.1 0 0-0.1 0v-0.1q0 0 0 0l-0.1 0.1v-0.3c0-0.1 0 0.1-0.1 0q0 0 0-0.1c0 0.2-0.1-0.1-0.1 0.1q0 0 0 0h-0.1c0.2-0.2-0.1-0.2-0.1-0.3 0-0.1-0.3-0.3-0.3-0.4 0-0.3-0.3-0.4-0.3-0.6 0 0 0-0.1 0-0.2 0.1-0.2-0.1-0.1-0.2-0.2-0.1-0.2 0.2 0 0.1-0.1-0.2-0.2 0 0 0-0.1q0 0 0-0.1 0 0 0-0.1c0 0-0.1-0.1-0.1 0q-0.1 0-0.1 0.1c-0.1-0.2-0.2-0.4-0.1-0.6 0.1-0.2 0.1-0.3-0.2-0.3 0.2-0.2-0.2-0.2 0-0.4 0.1-0.1-0.1-0.4-0.2-0.6q0 0 0 0c0.1 0.1 0.2-0.2 0.2 0q0 0 0 0.1 0-0.1 0-0.1 0-0.1-0.1-0.2c0 0 0 0.1-0.1 0.1l0.1-0.4q0-0.1 0-0.2c0-0.2-0.1-0.5-0.1-0.7q0.1-0.4 0.1-0.7l0.1-0.4c0-0.2 0.1-0.3 0.1-0.5 0-0.3 0.1-0.6 0.3-0.9 0.1-0.1 0.1-0.4 0.3-0.4 0.2-0.1-0.1-0.3 0.1-0.3 0.2-0.1 0-0.5 0.3-0.6 0.1 0 0.3 0.1 0.3 0 0-0.2 0.1-0.2 0.2-0.3 0.1 0 0.1-0.1 0.2-0.2 0.1 0 0.3 0 0.4 0q0 0 0-0.1c-0.2-0.2 0-0.2 0.1-0.2l0.4 0.3q-0.1 0-0.2 0.1c0 0.2-0.4 0.2-0.4 0.4 0 0 0 0 0 0 0 0.1-0.1 0.2 0 0.2 0.1 0.1 0.1 0 0.1-0.1 0 0 0.1-0.1 0.1 0q0 0.1 0.1 0.2c0-0.2 0.2-0.2 0.2-0.5q0 0 0-0.1 0.1 0.1 0.1 0.1 0.1 0 0.1 0c0 0 0-0.1 0-0.1-0.1-0.1-0.1-0.1 0-0.1zm0.5 0.6l0.5 0.7q0 0 0 0c0-0.1 0-0.1 0-0.2q0 0 0 0v-0.1q-0.1 0-0.1 0c0.1 0-0.1 0 0-0.1zm0.6 0.8q0.1 0 0.1 0.1 0 0 0 0 0 0-0.1 0c-0.1-0.1 0 0.1-0.1 0 0 0-0.1-0.1-0.1-0.1-0.1 0.1-0.1 0.1 0 0.2 0.1 0.1 0.1 0.1 0 0.1 0 0.1 0 0.2 0 0.2 0 0.1 0 0.2-0.1 0.1q-0.1 0-0.1 0c-0.1 0 0.3 0.2 0 0.1 0 0 0 0.1 0 0.2 0.1 0.2-0.1-0.1-0.1 0-0.1-0.1-0.2-0.1-0.1 0 0 0.1 0 0.1-0.1 0.1q0 0 0 0v-0.1q0 0 0 0c0 0-0.1 0-0.1 0q-0.2 0.2-0.3 0.4c-0.1 0.1 0 0.1 0 0.1q0-0.1 0-0.1c0-0.1 0.1-0.2 0.2-0.1 0 0 0 0.2 0 0.2 0.2 0.2-0.3 0.2 0 0.4q0 0 0 0 0.1 0 0.1 0c-0.1-0.2-0.1-0.2 0.1-0.2 0 0.1-0.1 0.2-0.1 0.3 0 0.1-0.2-0.1-0.1 0 0 0 0 0.1 0.1 0.2 0 0-0.1 0-0.1 0.1l-0.1-0.1q0 0 0 0c0 0 0 0.1 0 0.1-0.2 0.1 0 0.2 0.1 0.3 0.1 0.2-0.1 0.7-0.4 0.8-0.2 0.1 0.1 0.1 0.1 0.1-0.2 0.1 0 0.2 0 0.2 0.3 0 0 0.1 0.1 0.1 0.1 0.1 0 0.2 0 0.3q0 0 0 0.1c-0.3 0 0.2 0.1 0 0.2 0.2 0-0.2 0.2 0.1 0.2-0.2 0-0.1 0.2-0.2 0.3q0-0.1 0-0.1-0.1 0-0.1 0 0 0.1-0.1 0.1h0.1q0 0 0 0c0 0.1 0.1 0.2 0.1 0.2-0.1 0.1-0.2 0.1-0.3 0q0 0.1 0 0.1l0.1 0.2 0.1-0.1c0 0 0.1 0 0.1 0 0.1 0 0.3 0 0.1 0.2q0 0 0.1 0v0.1q0 0-0.1 0c0 0-0.1 0-0.1 0q0 0.1 0 0.2l0.1-0.2q0 0 0 0c-0.1 0.1 0 0.2 0.1 0.3q0 0.1 0.1 0.1 0.1 0 0.3 0 0 0.1 0.1 0.1c-0.2 0.1 0 0.1-0.1 0.2q-0.1 0-0.1 0.1l0.1-0.1c0 0 0.1 0 0.1 0q0.1 0.1 0.1 0.3 0 0-0.1 0-0.1 0-0.1 0.1 0 0 0 0c0 0 0.1 0 0.1 0 0 0-0.1 0.1 0 0.2 0.1 0 0.2 0 0.3-0.1q0 0 0 0c0.1 0 0.2 0.1 0.2 0.1 0 0.1 0.1 0.1 0.1 0.2q0 0 0 0.1h-0.1l0.1-0.1q0 0 0 0h-0.1q0 0 0 0 0 0 0 0-0.1 0.1-0.1 0.1 0-0.1 0-0.1 0 0 0-0.1l-0.2 0.1 0.1 0.1c0 0.1 0 0.1 0 0.1-0.1 0.1-0.1 0-0.1 0q0 0 0 0.1 0.2 0.2 0.3 0.3c0 0 0.1 0 0.1 0q0-0.1 0-0.1c-0.1-0.2 0.1-0.2 0.1-0.3l0.1 0.2h-0.1q0 0 0 0 0 0 0 0 0.1 0 0.1-0.1h0.1q0 0 0 0 0 0.3 0.1 0.5c0.3-0.3 0.1 0.1 0.1 0.1 0.1 0.1 0.1-0.1 0.1-0.1 0.2 0 0.3 0.2 0.4 0.2 0.1 0.1 0.3 0 0.4 0.2q0 0 0 0.1c0 0 0 0 0 0q0 0-0.1-0.1v0.1q0.1 0 0.2 0c0 0 0.1 0.1 0.1 0.2 0 0.1 0.1-0.1 0.1 0q0.1 0 0.1 0 0 0-0.1 0 0 0.1-0.1 0.1c0 0 0 0 0 0q0.1 0 0.2 0 0 0 0.1-0.1c0 0 0 0.1 0 0.1 0.1 0.1 0 0 0 0-0.1 0.1-0.1 0.1-0.1 0.1 0.1 0.1 0.2 0 0.2 0.1 0 0 0 0.1 0 0.1q0 0.1 0 0.2 0 0 0 0 0.1 0 0.2 0h-0.1q0 0-0.1 0l0.2 0.1q0 0 0 0c-0.1 0 0.3-0.3 0-0.2 0 0-0.1-0.1 0-0.1 0 0 0.1 0 0.1 0 0.1-0.1-0.2-0.2 0-0.3 0.1-0.1 0.1 0.1 0 0.2q0 0 0.1 0l0.1-0.1q0 0.1 0 0.2 0 0-0.1 0 0 0 0.1 0v-0.1h0.1q0 0 0 0c0.1 0.1 0.2 0.2 0.3 0 0 0 0.1 0 0.2 0 0 0 0 0.1 0 0.1q-0.1 0-0.1 0 0 0-0.1 0c0 0.1-0.2 0.1-0.1 0.3 0 0 0.1 0 0.1-0.1q0 0 0 0c0-0.2 0.1-0.1 0.2-0.1 0.1-0.1 0.2 0 0-0.1q0.1-0.1 0.2-0.1c0 0 0 0.1 0 0.1q0 0.1 0 0.1 0 0 0 0c0.2-0.2 0.2-0.1 0.3 0.1q0 0 0 0h-0.1q0 0 0-0.1 0 0.1 0 0.1 0 0.1 0 0.1 0 0 0 0l0.1-0.1c0 0 0.1 0.1 0 0.1 0 0-0.1 0 0 0.1h-0.1l0.2 0.1c0-0.1 0-0.2 0-0.2 0.1-0.1 0.1-0.2 0.2-0.3 0.1 0 0.1 0.1 0.1 0.2q0 0 0 0c0-0.3 0.2 0 0.3-0.2q0 0 0 0c0 0.2 0.1-0.1 0.1 0.1q0.1 0 0.1 0 0.3 0 0.5-0.1c0.1 0 0.2 0 0.3 0 0.3-0.1 0.5-0.2 0.8-0.1 0.1 0 0.2-0.2 0.3-0.2 0.1-0.1 0.1-0.2 0.2-0.1 0.3 0.2 0.1-0.2 0.2-0.2 0.1 0 0.1-0.1 0.2-0.2 0.1 0 0.2-0.1 0.4 0q0 0 0 0 0 0 0-0.1h-0.1q0 0 0.1-0.1c0 0 0 0.1 0 0.1q0-0.1-0.1-0.1c-0.2-0.1 0.2-0.1 0-0.2q0.1-0.1 0.2-0.3c0 0 0 0.1 0.1 0.1 0.2-0.2 0.1-0.3 0.1-0.5 0.1 0 0-0.2 0.2-0.2-0.1-0.2 0.1 0 0.1-0.1q0 0 0-0.1c-0.1 0-0.2 0.1-0.1 0 0-0.1 0.1-0.3 0.3-0.4q0 0 0.1 0h-0.1l-0.1-0.1q0 0 0.1 0c0 0 0.1 0.1 0.1 0 0-0.1-0.1-0.1-0.1-0.2 0 0 0 0 0-0.1l0.2 0.1q0 0.1 0 0.1 0 0.1 0 0.1l0.2-0.3q0 0-0.1-0.1l-0.1 0.1c0.2 0.1 0.1 0.1 0 0.1-0.1-0.1-0.2-0.2-0.1-0.2 0.1 0 0.1-0.1 0.2-0.1 0.1-0.1-0.1 0-0.2-0.1-0.1-0.2 0.2-0.1 0.2-0.2 0 0 0.1 0 0.1 0-0.1-0.1-0.1-0.1-0.1-0.1-0.1-0.1-0.2-0.2 0-0.3 0.1 0 0-0.2 0-0.3 0-0.1 0-0.3 0.2-0.4q0.1 0 0.1 0c-0.3-0.1-0.1-0.1-0.1-0.2 0.1 0-0.1-0.1 0-0.2q0-0.4 0-0.7c0-0.1 0.1-0.2 0-0.3 0 0 0 0 0 0q0-0.1 0-0.1v-0.3c0.1-0.1-0.1 0-0.1-0.1 0-0.2-0.1-0.4-0.2-0.6q0-0.2-0.1-0.3l-0.1-0.3c0.1 0 0-0.1 0-0.1-0.2 0 0-0.3-0.2-0.3 0 0 0-0.1 0-0.1 0-0.1-0.1-0.1-0.1-0.2-0.2 0-0.3-0.2-0.4-0.3-0.1-0.1-0.2-0.2-0.2-0.2q-0.1 0-0.1-0.1l0.1-0.1c-0.1 0 0 0.1-0.1 0.1v0.1-0.2c-0.1 0-0.1 0.1-0.1 0.1-0.1 0-0.1 0-0.2-0.1-0.1-0.1-0.2-0.1-0.3-0.2-0.2-0.1-0.5-0.1-0.7-0.2-0.2 0-0.5 0-0.7-0.2-0.1-0.1-0.3 0.1-0.4 0 0-0.1-0.1-0.2-0.2-0.2-0.1 0.1-0.1-0.1-0.2-0.1-0.2-0.1-0.5 0.1-0.7 0 0-0.1-0.1 0-0.2 0-0.1 0.1 0-0.1-0.1-0.1q-0.4 0.2-0.7 0c-0.1-0.1-0.2-0.1-0.2 0.1 0-0.1 0-0.1-0.1-0.1-0.1 0-0.2 0.1-0.3 0.1q-0.2 0.1-0.5 0.1c-0.3 0.1-0.7 0.1-0.9 0.3-0.1-0.2-0.1 0.2-0.2 0 0 0 0 0.1 0 0.1q0.1 0 0.1 0 0 0 0 0-0.2 0.1-0.3 0.1 0 0 0 0c-0.1 0.1 0 0.2-0.2 0.4 0 0 0 0.1 0 0.1 0 0-0.1 0.1-0.1 0.1q-0.1-0.1-0.2 0 0 0 0.1 0zm-1.4 4.2q0 0 0 0.1 0 0.1 0 0.1c0.1-0.1 0.2-0.1 0.2-0.2 0-0.2-0.2 0.1-0.2 0zm-0.5-2.1c-0.1 0 0 0.2-0.1 0.2v0.1c0.1 0 0.1-0.1 0.1-0.3q0 0 0 0 0 0 0 0zm0-1.7q-0.1 0-0.2 0 0 0.1 0.1 0.2 0.1 0 0.2-0.1c0 0-0.1-0.1-0.1-0.1zm0.5-0.3c0 0.1 0.1 0.2 0.1 0.2 0.2 0 0-0.3 0.2-0.3v-0.1c-0.2-0.1-0.1 0.3-0.3 0.2zm-0.4-0.2c0.1 0 0.1 0 0.1 0q0-0.1 0-0.1h-0.2v0.1q0-0.1 0.1-0.1c0.1 0-0.1 0.1 0 0.1zm0 0.3c0 0.1 0.1 0.1 0.1 0.2q0-0.2 0.2-0.4-0.1 0-0.1 0-0.1 0.1-0.2 0.2zm-0.9 0.8q0-0.1 0.1-0.2l-0.1 0.1q0-0.1 0-0.1 0-0.1 0-0.1c0.2-0.1 0.4-0.2 0.4-0.4 0.1-0.1 0.1-0.2 0.1-0.3q-0.1 0.1-0.1 0.1 0 0.1 0 0.2c0 0-0.1 0.1-0.1 0q-0.2 0.2-0.4 0.5c0 0 0.1 0.1 0 0.1q0 0 0 0c0 0.1 0.1 0.1 0.1 0.1zm-0.4 1.2l0.1-0.3c0 0 0-0.1-0.1-0.1q0 0 0 0-0.1 0.1-0.2 0.1 0.1 0 0.1 0.1c0.2-0.2 0.1 0 0.1 0.1zm0.6 0.2l0.1 0.1c0 0 0.1-0.1 0.1-0.1q0 0 0-0.1 0 0 0 0 0 0.1 0 0.1c0 0.2 0 0.3-0.2 0.1q0-0.1 0 0-0.1 0-0.1 0 0.1 0.1 0.2 0.1c0 0 0.2 0.1 0.2-0.1 0 0 0-0.1 0.1-0.2 0 0 0-0.1-0.1-0.1 0.2-0.2 0-0.5 0.2-0.7 0 0 0-0.1 0-0.1 0 0 0 0-0.1 0q0 0-0.1 0 0-0.1 0.1-0.2 0 0 0.1-0.1-0.1 0-0.1 0 0 0-0.1 0.1 0 0 0 0.1 0 0-0.1 0c0 0 0-0.1 0-0.1-0.1 0 0.1-0.1 0 0q0-0.2-0.2-0.2 0 0 0 0.1 0 0.1 0 0.2-0.1-0.1-0.1-0.1 0-0.1 0-0.2c0 0-0.1 0.1-0.1 0.1q0 0.1 0.1 0.2c0.1 0.2 0.1 0 0.3 0-0.2 0.2 0.1 0.2 0.1 0.4 0 0.1-0.1 0.2-0.1 0.4q0 0 0 0-0.1 0-0.1 0 0-0.1 0-0.1c0.2-0.1-0.1-0.2 0-0.4q0 0 0 0-0.1 0-0.1 0.1c0 0.1 0 0.1-0.1 0 0-0.1 0-0.1-0.1 0 0 0-0.1 0-0.1-0.1q-0.1 0-0.1 0c0 0.1 0 0.1 0 0.1q0.1 0 0.3 0c-0.1 0.1 0.2 0.1 0.1 0.2-0.1 0-0.1 0.2-0.1 0.2 0 0 0.1 0.1 0.1 0.1 0.2-0.1-0.1 0.1 0.1 0.1zm-0.5 0.4q0-0.1 0-0.2l0.1-0.1q-0.1 0-0.2 0 0 0 0 0l0.1 0.2q0 0.1 0 0.1zm0.1-0.3q0 0 0 0 0 0 0 0 0 0 0 0zm0.3 0c-0.1 0-0.2 0.1-0.2-0.1 0.1 0 0 0-0.1 0 0 0 0.1 0.1 0 0.1 0.1 0 0.1 0.2 0.3 0zm-0.4 0.7l-0.1-0.1v-0.1c0.2 0-0.1-0.1 0-0.2-0.1 0-0.1 0.1-0.2 0.1 0 0-0.1 0.2-0.2 0q0 0 0 0 0 0 0 0 0 0 0 0.1c0 0.1 0.1 0 0.2 0q0.1 0 0 0.1c0 0.2 0.1 0.3 0.2 0.3 0.1 0.1-0.1-0.2 0.1-0.2zm-0.1 0.6c0.1-0.1-0.4-0.1-0.1-0.3h-0.3c0.1 0.1 0.1 0.2 0.3 0.3-0.1 0 0 0 0.1 0zm0.3 0.7c0.1 0-0.1 0.1 0.1 0.1 0.1 0-0.3 0.2 0 0.2q0.1 0 0.2 0.1 0-0.1 0.1-0.2 0-0.1 0-0.1c0.1 0 0.2-0.1 0.2-0.1 0-0.1 0-0.2 0-0.3-0.1-0.1 0.1-0.3-0.1-0.3 0.1-0.1 0-0.2 0.1-0.3l0.1 0.1q0-0.1 0-0.2c-0.1 0-0.1 0-0.2 0-0.1 0 0-0.1-0.1-0.1q0 0 0-0.1l0.1 0.1q0 0 0.1 0 0 0 0 0c-0.1-0.2-0.3-0.4-0.1-0.6q0 0 0.1 0l-0.3-0.1c0.1 0.1-0.1 0.2-0.1 0.2q0.1 0.1 0.1 0.1 0 0 0-0.1l0.1 0.2-0.2-0.1v-0.1 0.2q0 0 0 0 0.1 0 0.1 0v0.1c-0.1-0.1-0.2 0.1-0.3 0.1 0 0 0 0 0-0.1q0 0 0-0.1l-0.2 0.5c0 0 0.1 0 0.1 0 0.1-0.1 0.1 0.2 0.2 0.1q0 0 0 0 0.1 0 0.1 0 0 0.3 0 0.6c0 0-0.1-0.1-0.1 0 0 0.1-0.1 0.1-0.1 0.2zm-0.3 1.3q0.1 0 0.2-0.1c0.1 0-0.1 0-0.1-0.1 0.2-0.2-0.2-0.3 0-0.5q0 0 0-0.1-0.1 0-0.1-0.1c0 0 0 0 0.1-0.1 0.1 0 0-0.2 0.1-0.2q0 0 0 0 0 0 0 0c-0.1 0.1-0.1 0-0.2-0.1 0 0-0.1-0.1-0.1 0.1q0 0.1-0.1 0.1c0 0.1-0.1 0.2-0.1 0.3 0.1 0.1 0 0.2 0 0.2 0.2 0 0.3 0.2 0.4 0.4 0 0-0.1 0.1-0.1 0q0-0.1 0-0.1h-0.1q0 0 0.1 0.1l0.1 0.2c0 0-0.1 0-0.1 0zm1-0.1c0-0.1 0-0.2 0-0.2-0.1-0.1-0.1 0-0.1 0 0 0.1-0.2 0-0.1 0.1 0 0.1 0.1 0 0.2 0.1zm0.4 0.7h-0.1c-0.1 0-0.1-0.3-0.3-0.1 0 0 0.1-0.2 0-0.1-0.1 0-0.1 0.2 0 0.2-0.2 0.1-0.1-0.2-0.2-0.1q0 0 0 0c0.2-0.2 0.2-0.4 0.2-0.6q0 0-0.1 0 0 0 0 0c0 0.2-0.1 0.3-0.1 0.4-0.1 0.1-0.2 0.2-0.3 0.3 0 0-0.1-0.1-0.1-0.1 0-0.1 0-0.2-0.1-0.2q0 0.1 0 0.2 0.1 0.2 0.1 0.3c-0.1 0 0 0.2-0.1 0.1 0 0.2 0.1 0 0.2 0 0 0 0.1 0.1 0 0 0 0-0.1 0-0.1 0 0-0.1 0.2-0.1 0.1-0.2 0.1 0 0.2-0.3 0.4 0 0 0 0 0.1 0.1 0.1 0 0 0-0.1 0-0.2h0.1q-0.1 0-0.1 0c0 0.1 0.1 0.1 0.1 0.1zm-0.5 0.6q0.2 0.2 0.3 0.3c0.1 0.2 0.3 0.2 0.3 0.5 0 0 0.1 0 0.2 0q0 0 0 0v-0.1c0-0.1-0.1-0.2-0.2-0.3 0 0 0-0.1 0.1-0.1 0 0-0.1-0.1-0.1-0.1-0.1 0-0.1 0-0.2 0q0-0.1 0-0.1 0.1 0 0.1 0 0.1 0 0.1 0 0 0 0 0-0.1 0-0.1 0-0.1-0.1-0.2-0.1c0 0 0-0.1 0-0.1q0.1-0.1 0.1-0.1 0 0.1 0 0.1c0 0-0.1 0.1 0 0.1 0.1 0 0.2-0.1 0.3-0.2 0 0-0.1-0.1-0.1-0.1-0.3 0-0.4 0.2-0.6 0.3zm-0.1 1.1c0.1-0.1 0.2-0.1 0.2-0.3-0.1-0.1 0-0.3 0-0.3-0.1-0.1-0.1 0.1-0.2 0.1q0-0.1 0-0.2c0.1-0.1 0.1-0.1 0.1-0.1 0-0.1-0.2 0.1-0.3-0.1q0 0 0 0.1c0 0.1 0 0.3 0.2 0.3-0.1 0.1-0.1 0.2 0.1 0.3 0 0 0 0 0 0.1-0.2 0.1-0.2-0.2-0.3-0.2 0 0 0 0-0.1-0.1q0.1 0.2 0.1 0.2c0.1 0.1 0.2 0.2 0.2 0.2zm0.7 0.5q0-0.1 0-0.1 0 0 0 0c-0.2-0.1-0.2-0.3-0.2-0.4 0-0.2-0.2-0.1-0.2-0.2l-0.1 0.1 0.1 0.1c0.1 0.1 0 0.3 0 0.4 0 0-0.1 0-0.1 0q0 0 0.1 0.1c0.1 0 0-0.2 0.1-0.1 0.1 0 0.2 0.2 0.3 0.1zm1.4 0.3q0 0 0 0l-0.2-0.1c0-0.1 0-0.1 0.1-0.1q0 0 0.1 0 0 0.1 0 0.1 0 0 0-0.1c0.1 0 0.1 0 0 0-0.1-0.1-0.1-0.3-0.3-0.2 0 0 0-0.2 0-0.2q0-0.1 0-0.1h0.1-0.1c0.1 0.1-0.2 0-0.1 0.1-0.2 0 0 0.2 0 0.2-0.1-0.1-0.1-0.3-0.3-0.2q-0.1 0-0.2 0 0 0 0 0c0.1 0.2 0.1 0.2 0.2 0.2 0.2 0.1 0.4 0.2 0.5 0.5 0 0.1 0.1-0.2 0.2-0.1zm0.1 0.1q0 0 0.1 0-0.2-0.1-0.3-0.1 0 0.1 0 0.3zm1-0.7q0-0.1 0-0.2l-0.1 0.1q0 0 0 0 0 0 0-0.1 0-0.1 0-0.1-0.1-0.1-0.1 0c0 0 0 0 0 0 0.1 0 0.1 0.1 0 0.2 0 0.1 0 0.2 0.1 0.2 0 0 0.1-0.1 0.1-0.1zm-0.3 1.2c0-0.2-0.1-0.1-0.2-0.1 0 0 0-0.1-0.1-0.1q0 0 0 0c0 0.2 0.1 0.2 0.2 0.2q0.1 0 0.1 0zm1.5 0.6q0 0 0 0v0.1h0.2l-0.3-0.3-0.1 0.1q-0.1-0.1-0.2-0.2c0 0-0.1 0-0.1 0.1-0.1 0.3-0.1 0-0.2 0q0-0.1 0-0.1c0 0 0 0.1 0 0.1 0.1 0.1 0.1 0.3 0.3 0.3 0 0 0.1 0 0.1 0-0.1 0.4 0.2 0.1 0.3 0.2q0 0 0-0.1 0 0 0-0.1 0 0.1 0 0.1c-0.1 0.1-0.1 0-0.1-0.1q-0.1 0-0.1 0c0.1-0.1 0-0.1-0.1-0.1q0 0 0-0.1h0.3q0 0 0 0.1zm0.4 0.3h-0.1q0 0 0 0c0-0.1-0.2-0.1 0-0.1q0.1 0 0.1-0.1-0.1-0.1-0.2-0.1c0 0.1-0.1 0.1-0.1 0.2q0 0.2 0.2 0.1 0 0.1 0 0.1 0 0 0.1-0.1zm1-0.9c-0.1 0-0.2 0-0.2 0-0.1 0-0.1 0-0.1 0 0 0.1 0 0.2 0.1 0.2 0-0.1 0.1-0.1 0.2-0.2zm0.2 1.1q-0.1-0.1-0.3-0.2l-0.2 0.2q0 0 0 0h0.3q0.1 0 0.1 0.1 0 0 0 0.1h-0.1l0.1 0.1q0-0.1 0.1-0.3zm0.7 0.1c-0.2-0.3-0.3 0.1-0.4 0 0 0.1-0.1 0.2-0.1 0.3 0 0.1 0.1-0.2 0.2 0l0.2-0.2h-0.1c0.1-0.1 0.2-0.1 0.2-0.1zm0.4-0.3h-0.3q0 0 0 0.1 0.1 0.1 0.3 0.1c0 0 0-0.1 0-0.2zm1.5 0.1q0-0.1-0.1-0.2c-0.2-0.2-0.2 0-0.4 0q0.1 0.1 0.1 0.1c0 0.1-0.2 0 0 0.1 0 0 0 0 0 0q0.1-0.1 0.2-0.1c-0.1 0.2 0.1 0 0.2 0.1q0 0 0 0zm0-1.3c0 0 0.1 0 0.1 0 0.1 0 0.1-0.1 0.1-0.1-0.1-0.2-0.1 0.1-0.2 0q0 0 0 0.1zm0.3 0.7c0 0 0.1-0.2 0-0.1q-0.1 0-0.1 0.2-0.1 0.1-0.1 0.2 0.1 0 0.2 0c0.1 0 0.1 0 0.2-0.1q-0.1 0-0.2 0h-0.1l0.1-0.2q0 0 0 0c0.1 0.2 0.1 0 0.1 0 0-0.1 0-0.1-0.1 0zm0.4-0.4c-0.2-0.1-0.1 0.2-0.1 0.2-0.1 0-0.1 0.1-0.1 0.2 0.1 0 0.2-0.1 0.2-0.3q0-0.1 0-0.1zm1.1 0.4q-0.2 0.1-0.4 0.1c0.1 0 0 0.1 0.1 0.1 0.1 0.1 0.1-0.1 0.2-0.1zm0.2-0.3c0-0.1 0-0.2 0-0.2-0.2 0-0.3 0.2-0.4 0.2q0 0-0.1 0h0.1c-0.1 0-0.1 0.1-0.1 0.2 0 0 0 0.2 0.1 0.1 0.1-0.1 0-0.1 0-0.1 0 0 0-0.1 0-0.2 0.1 0 0.2 0 0.2 0 0.1 0.2 0.2 0 0.3 0q0 0-0.1 0zm0.5-1.4c-0.1 0.4-0.2 0.3-0.2 0.2 0 0-0.1 0-0.2 0 0 0.1 0.3 0.1 0.2 0.2 0.2 0.1 0.2-0.1 0.2-0.4zm-0.7-0.7l0.1-0.2q-0.1 0-0.2 0.1c0 0 0 0.1 0 0.1-0.1-0.1-0.2 0-0.2 0-0.1 0-0.1 0.1-0.1 0.1 0.1 0.2 0.2 0 0.4 0 0 0 0 0 0-0.1zm1 0.2c-0.1 0.1-0.3 0.1-0.2 0.3h0.1q0.1-0.1 0.2-0.2c0 0-0.1-0.1-0.1-0.1zm-0.9-0.5q0-0.1-0.1-0.2 0 0.1-0.1 0.2c0.1 0.1 0-0.1 0.1 0q0.1 0 0.1 0zm1.5 0.3q0 0 0 0l-0.2 0.2c0 0.1 0 0.1 0 0.1 0.4 0.1 0.1-0.3 0.2-0.3zm0.2 0c0 0-0.1 0.1-0.1 0.1 0 0 0 0.1 0 0.1q0.2 0 0.3-0.1-0.1 0-0.2-0.1zm-1.7-0.9c-0.1 0.1 0.1 0.1 0.1 0.1q0.2 0.1 0.2 0-0.1-0.1 0-0.1c-0.1 0-0.2 0.1-0.3 0zm0.5-1.9c0 0 0 0.1 0 0.2 0 0 0.1 0.1 0.1 0.1 0.1 0 0-0.1 0-0.1 0.1 0 0.1-0.1 0.2 0 0.2 0-0.1-0.1-0.1-0.1 0-0.1-0.1-0.1-0.2-0.1zm0.9-0.6c0 0 0 0.1 0 0.1q0 0.1 0 0.2 0.1 0 0.1-0.1 0-0.1-0.1-0.2zm0.5-0.1q-0.1 0.1-0.2 0.2c0 0 0 0.1 0.1 0.1q0.1-0.1 0.2-0.2c0 0-0.1-0.1-0.1-0.1zm0.2-1.5c0 0.2-0.2 0-0.2 0.1 0.1 0.2 0.2 0 0.3 0q0.1 0 0.1 0c-0.1-0.1-0.1-0.1-0.1-0.2-0.1 0-0.1 0.1-0.1 0.1zm-0.3-0.1q0 0 0 0 0 0.1 0 0.3 0 0 0 0 0 0 0.1 0h-0.1q0.1 0 0.1 0 0-0.2-0.1-0.3 0 0 0 0zm-0.8-0.1q0 0-0.1 0.1 0.1 0.1 0.1 0.1l0.2-0.2c-0.1 0-0.2 0.1-0.2 0zm-0.1-0.5q0.1 0.1 0.1 0.1l0.2-0.1c0 0 0.1-0.1 0-0.1-0.1 0-0.2 0.1-0.3 0.1zm0.3-0.7l0.3 0.1c0-0.1 0-0.1 0-0.1q-0.2-0.1-0.3-0.1c0 0 0 0 0 0.1zm-1-1.6c0 0.1 0 0.1 0 0.2q0.1 0 0.2 0c0-0.1 0-0.2-0.1-0.2q0 0-0.1 0zm-0.1 0.1c0.1-0.2 0-0.2-0.1-0.3q0 0 0 0 0 0.1 0 0.3c0 0 0.1 0 0.1 0zm0.4-0.4q0-0.1 0-0.2c-0.1 0-0.2 0-0.2 0q0 0.1 0.1 0.2c0 0 0.1 0 0.1 0zm-0.2-0.6q0.2 0.2 0.2 0.4 0.1 0 0.2-0.1-0.1-0.1-0.3-0.3 0 0-0.1 0zm-1.8-0.2c0 0.1 0 0.2 0.1 0.2 0 0 0.1 0 0.2 0-0.1-0.1 0-0.3-0.2-0.2zm-0.8-0.7c0 0.1 0.1 0 0.1 0.1q0-0.2 0-0.2 0.1 0 0.1 0l-0.1-0.2c0 0.1-0.1 0.2-0.1 0.3zm-5.5-0.2q0.1 0 0.3 0 0 0 0.1-0.1-0.2 0-0.3 0c0 0-0.1 0.1-0.1 0.1z"/><path class="a" d="m18.4 10.1q0 0 0 0z"/><path class="a" d="m23.4 15.7z"/><path class="a" d="m23.4 15.7z"/><path class="a" d="m11.8 14.5z"/><path class="a" d="m15 23.3q0 0 0 0 0 0 0 0z"/><path class="a" d="m9.5 18.4z"/><path class="a" d="m22.5 15.6q0 0 0.1 0h-0.1z"/><path class="a" d="m9.9 14.6z"/><path class="a" d="m20.4 22.5z"/><path class="a" d="m10.6 15q0 0 0 0z"/><path class="a" d="m10.2 13.2z"/><path class="a" d="m12.1 22.9z"/><path class="a" d="m11.2 22.1q0 0-0.1 0v-0.1q0 0 0 0 0.1 0 0.1 0 0 0 0-0.1-0.1 0.1-0.1 0.1l-0.1-0.2q0 0 0-0.1-0.1 0-0.1 0.1 0 0 0 0c0.2 0.1 0.1 0.3 0.1 0.4-0.1 0.2 0.1 0.2 0.2 0.3h0.1l0.1-0.2q-0.1-0.1-0.2-0.2z"/><path class="a" d="m10.9 11.9q0-0.1 0-0.1c0.2 0 0.1-0.2 0.3-0.1q0.1 0 0.1 0l-0.2-0.2q-0.1 0.1-0.2 0.2c-0.1 0.1 0 0.1 0 0.2z"/><path class="a" d="m11.5 22.6q0 0 0 0 0 0-0.1-0.1 0.1 0 0.1 0c0.1 0 0.2 0 0-0.1-0.2 0 0.1-0.1-0.1-0.1l-0.1 0.2c0 0.2 0.3 0.1 0.4 0.3v-0.1c-0.1 0 0-0.3-0.2-0.1z"/><path class="a" d="m11.7 14.1q0 0.1-0.1 0.3c0.2-0.1 0.3-0.2 0.4-0.3 0 0-0.1-0.1-0.1-0.1 0 0-0.1 0-0.2 0.1z"/><path class="a" d="m12.1 22.9z"/><path class="a" d="m12.1 22.8c-0.1-0.1-0.2-0.2-0.2-0.1-0.2 0.1-0.1-0.2-0.2 0 0 0.3 0.2 0.3 0.4 0.2 0 0 0-0.1 0-0.1z"/><path class="a" d="m11.7 18.4c0.2-0.1-0.1-0.1 0-0.3q-0.1 0-0.1 0c0 0-0.1 0.1-0.1 0.2 0.1 0 0.1 0.1 0.2 0.1z"/><path class="a" d="m13.5 23.8c0.1 0 0.1 0 0.2 0l-0.1-0.2v-0.1l-0.2 0.1q0 0.1 0.1 0.2z"/><path class="a" d="m19.3 24q-0.1 0-0.2 0c0 0-0.1 0-0.1 0.1 0.1 0.3 0.2-0.1 0.3 0 0 0 0.2-0.1 0-0.1z"/><path class="a" d="m11.7 18.7q0 0 0.1 0 0-0.1-0.1-0.1 0 0-0.1 0 0.1 0 0.1 0-0.1 0.1-0.1 0.1 0 0-0.1 0c0-0.1 0 0-0.1 0h0.1v0.1c0.1-0.1 0.2-0.2 0.2-0.1z"/><path class="a" d="m11.5 18.8v-0.1q0 0.1 0 0.1z"/><path class="a" d="m14.9 24l-0.1 0.2v-0.1c0.1 0.1 0.1 0.2 0.2 0.2 0 0 0-0.2 0.1-0.2-0.1 0-0.2 0.1-0.2-0.1z"/><path class="a" d="m13 10.2q0-0.1 0-0.1-0.2 0-0.4 0c0 0-0.1 0.1 0 0.1 0.1 0.1 0.2-0.2 0.4 0z"/><path class="a" d="m23.6 16.6q0.1 0.2 0.2 0.3 0-0.1 0-0.1 0-0.1-0.1-0.2c0 0-0.1 0-0.1 0z"/><path class="a" d="m22.4 21.1l0.2 0.1q0-0.1 0.1-0.2 0 0 0 0c0 0-0.1 0-0.1 0-0.1 0-0.1 0.1-0.2 0.1z"/><path class="a" d="m23.2 13.5q0 0.1 0.1 0.1 0-0.1 0-0.2c-0.1 0-0.1 0-0.2 0q0 0.1 0.1 0.1z"/><path class="a" d="m18.8 10.3c0.1 0 0.3 0 0.3-0.1 0-0.1-0.2 0.1-0.3-0.1q0 0.1 0 0.1c0 0 0 0.1 0 0.1z"/><path class="a" d="m18.1 24.3c-0.1 0.1 0 0.2-0.2 0.3q0.2 0 0.2-0.2c0-0.1 0 0 0.1 0 0.1-0.1-0.1 0-0.1-0.1z"/><path class="a" d="m11.8 14.3v0.2c0 0 0.1 0 0.1 0-0.1-0.1 0.1-0.2-0.1-0.2z"/><path class="a" d="m11.8 14.5z"/><path class="a" d="m11.8 14.5z"/><path class="a" d="m14.8 24.2v-0.1z"/><path class="a" d="m14.8 24q0-0.1 0-0.1c-0.1 0-0.1 0.1-0.1 0.1q0 0.1 0.1 0.2v-0.1c0 0-0.1-0.1 0-0.1z"/><path class="a" d="m14.8 24.1z"/><path class="a" d="m14.8 24.1v0.1z"/><path class="a" d="m23.4 15.7z"/><path class="a" d="m23.3 15.8c0 0 0 0 0 0q0.1 0 0.2 0c0 0 0-0.1 0-0.1h-0.1z"/><path class="a" d="m23.4 15.7z"/><path class="a" d="m23.6 17.9q0.1-0.1 0.1-0.3 0-0.1 0-0.1l-0.1 0.3q0 0.1 0 0.1z"/><path class="a" d="m9.8 17.5c0.1 0.1 0.1-0.1 0.2-0.1 0.1 0 0.2-0.1 0-0.2l-0.2 0.2c0 0 0 0.1 0 0.1z"/><path class="a" d="m10.1 16.6c-0.1 0-0.1 0-0.1 0.1q0 0.1 0.1 0.1 0-0.1 0.1-0.2c0 0-0.1 0-0.1 0z"/><path class="c" d="m24.9 6.6c-0.5-0.3-1.1 0-1.5 0.4-0.3 0.5-0.4 1-0.4 1.6 0 0.3 0 0.6 0.2 0.9 0.1 0.3 0.4 0.4 0.7 0.5 0.5 0.3 1.1 0.4 1.6 0.3 0.9-0.2 1.4-1.3 1.2-2.2-0.2-0.8-1-1.5-1.9-1.7"/><path class="a" d="m24.5 7.3z"/><path fill-rule="evenodd" class="a" d="m24 6.4l-0.2-0.5q0.1 0.1 0.1 0.1c0.1 0 0.1-0.2 0.2-0.1 0 0 0-0.1 0-0.1 0-0.1 0 0 0.1 0.1 0 0.1 0 0.1 0 0.2 0 0 0 0 0 0.1q0 0 0 0.1c0-0.1 0-0.1 0-0.1 0.1 0 0-0.4 0.1-0.4 0 0 0 0 0 0-0.1-0.2 0-0.2 0-0.2q0.1 0 0.1 0 0 0 0 0l-0.1-0.1q0-0.1 0-0.1 0.2 0.1 0.4 0.2c0.1 0 0.2-0.1 0.2-0.1q0 0 0.1 0.1c0 0-0.1 0.1-0.1 0.1q0 0 0 0 0-0.1-0.1-0.1c0 0.1 0 0.1 0 0.1q0.1 0.1 0.1 0.1 0.1 0 0.1 0 0 0 0 0 0 0.1-0.1 0.1c0-0.1 0 0 0 0.1 0.1 0-0.2 0.5 0 0.3 0 0 0 0.1 0 0.2q0 0 0 0 0 0-0.1 0.1 0 0 0 0 0 0 0.1-0.1 0 0 0 0 0 0 0 0 0 0.1-0.1 0.2-0.1 0.3-0.2 0.6c0 0-0.1 0.1-0.1 0.1q0.1-0.1 0 0 0 0 0 0 0 0 0 0 0-0.1 0-0.1 0 0.1 0 0.1v-0.1q0 0 0 0 0 0 0 0v0.1q0 0 0 0c0-0.2 0-0.1 0 0q0 0 0 0v-0.1q0 0 0 0 0 0 0 0 0 0 0 0c0-0.1 0 0.2 0-0.1v0.1 0.1q0 0.1 0 0.1c0 0.1 0-0.1 0-0.1q0 0 0 0.1 0 0 0 0c0 0.1 0 0 0 0q0 0.1 0 0.1v-0.1q0 0 0 0.1c0 0 0 0 0 0 0 0 0 0.1 0-0.1h-0.1 0.1v0.2q0-0.1-0.1-0.2v-0.1q0-0.1 0-0.1-0.1-0.1-0.1-0.1 0-0.1 0-0.1l-0.2-0.5c0 0 0 0.1 0 0v0.1-0.1c0-0.1-0.1-0.2-0.1-0.2zm0.6 0q0 0 0 0 0.1 0 0.1-0.1 0 0 0 0-0.1 0-0.1 0.1zm-0.2 0.2h0.1q0-0.1 0-0.1 0.1-0.1 0.1-0.1h-0.1c0 0.1 0-0.2 0 0q0 0.1-0.1 0.2zm-0.3-0.1c0.1 0.1 0.1 0 0.1 0 0 0.1-0.1-0.1 0-0.1h-0.1q0 0 0 0.1z"/><path class="a" d="m23.8 5.9c0-0.1 0.1 0 0.1-0.1q0 0 0 0c0-0.1 0-0.1-0.1-0.2q0 0.1 0 0.2c0 0 0 0 0-0.1h-0.1l0.1 0.2q0 0 0 0z"/><path class="a" d="m24 5.7c0 0 0.1 0 0-0.2 0 0.1 0 0.2-0.1 0.2q0 0 0.1 0z"/><path class="a" d="m24 5.5z"/><path class="a" d="m24 5.4v0.1-0.1z"/><path class="a" d="m24.2 5.7q0 0 0-0.1l-0.1-0.1q-0.1 0.1-0.1 0.1c0.1 0.1 0.1 0.1 0.2 0.1z"/><path class="a" d="m24.4 7.4q0 0 0 0z"/><path fill-rule="evenodd" class="b" d="m22.8 7.5c0 0 0.1 0 0.1 0 0-0.1 0 0 0.1 0v-0.2q0 0 0 0 0 0 0 0c-0.2 0-0.1-0.1-0.2-0.1h-0.1q0.1-0.1 0.2-0.1 0 0 0 0c0 0 0 0.1 0.1 0.1 0 0 0.1 0 0.2 0.1v-0.1h-0.1v-0.1 0.1h0.1q0 0 0 0 0 0-0.1 0c0-0.1 0.2 0 0.1-0.1l0.2 0.2q0 0 0-0.1c-0.2 0 0 0.2 0 0.2q0 0 0 0l-0.1-0.1c0.1 0.1-0.1 0.1 0.1 0.1 0 0 0.1 0.1 0.1 0.1q0 0 0 0h-0.1c0 0 0 0-0.1 0 0.2 0.1 0 0 0 0.1 0.1 0 0 0 0 0.1 0 0-0.1-0.1-0.2-0.1q0 0 0 0-0.1 0-0.1 0-0.1 0-0.2 0c-0.3-0.1 0.1 0 0-0.1-0.1 0 0.1 0 0 0zm0.4 0q0 0 0.1 0-0.1 0-0.1-0.1c-0.1 0-0.1 0-0.1 0q0 0.1 0.1 0.1zm-0.2 0h-0.1c-0.1 0-0.1 0-0.1 0 0.1 0.1 0.1 0 0.2 0.1 0.1 0 0.2 0 0-0.1z"/><path class="a" d="m24.7 11.2z"/><path class="a" d="m22.8 8z"/><path class="a" d="m26.9 10z"/><path fill-rule="evenodd" class="a" d="m26.2 6.5l0.1-0.2v0.2q0 0 0 0v-0.1l0.2-0.2q0-0.1 0-0.1c-0.1 0.3 0.1-0.1 0.1 0 0 0.1 0.1 0 0 0.2 0 0-0.1 0.2 0 0.1v0.1c-0.1 0.1 0 0 0 0-0.1 0.2 0 0 0.1 0q0 0 0 0.1 0 0-0.1 0c0.2-0.1 0.2 0 0.2 0 0 0.1 0 0.1 0 0.2q0 0-0.1 0c0.1 0 0.1 0 0.2 0 0-0.1 0.1-0.1 0.2-0.1-0.1 0 0.1 0 0 0.1q-0.2 0.2 0.1 0.1c0 0.1-0.1 0.1-0.1 0.2-0.1 0-0.1 0.1-0.3 0.2q0 0 0 0c0 0.1 0.1 0 0.2-0.1 0.2-0.2 0 0.1 0.3 0q0 0-0.1 0 0 0.1 0.1 0.1 0 0 0 0 0 0 0 0h-0.1q0 0 0 0 0 0 0 0.1c0.1 0 0.3-0.2 0.2-0.1v0.1q0 0-0.1 0c-0.2 0.1-0.1 0.2-0.2 0.3q0 0-0.1 0h0.2q0-0.1 0.1-0.1c0.1 0 0.2 0.1 0.1 0.1-0.1 0.1 0 0 0 0q0 0.1-0.1 0.2 0 0 0.1 0c0.4-0.1 0.1 0.1 0 0.1 0 0.1 0 0.1 0 0.1 0.1 0.1-0.1 0.1 0 0.1v0.1c0 0-0.1 0 0 0 0.1-0.1 0.1 0 0.2 0 0 0 0.1 0-0.1 0 0 0.1-0.1 0.1-0.1 0.2 0 0 0.1 0.1 0.2 0.1q0 0 0 0h-0.2q0 0-0.1 0 0 0 0.1 0c0.2 0.1-0.2 0.1 0 0.1q0 0 0.1 0 0 0 0 0c0 0-0.1 0 0 0 0.1-0.1 0.1 0 0.1 0 0 0 0 0.1 0 0.1-0.2 0.1-0.1 0.1-0.2 0.2q0 0 0 0 0.1 0 0.1 0c0 0 0-0.1 0.2 0q0 0 0 0-0.1 0-0.1 0c0 0-0.1 0 0 0.1 0.1 0.1-0.3 0-0.2 0.1q0 0.1-0.1 0.1c0 0 0 0 0 0.1q0.1 0 0.1 0.1c0 0-0.1 0-0.1 0 0.1 0 0 0 0 0 0.1 0.1 0 0.1 0 0.2 0.1 0.1 0 0.2 0 0.3-0.1 0-0.1-0.1-0.1-0.1 0 0.1 0 0.2 0 0.2q0 0.1 0 0.1-0.1-0.1-0.1-0.1 0 0 0 0c0 0-0.1-0.1-0.1-0.1q-0.1 0.1-0.1 0c0 0 0 0 0-0.1-0.2-0.1 0.1 0 0-0.1q0 0 0 0 0 0 0 0 0 0 0.1 0.1 0-0.1 0-0.1 0 0 0 0c0 0-0.2-0.1-0.2-0.2-0.1 0.1-0.1 0.1-0.1 0.1 0 0.1-0.1 0.1 0.2 0.3-0.1 0 0.1 0.1 0.1 0.1 0 0.1-0.1 0.1-0.1 0 0 0 0 0.1 0 0.1 0.2 0.2-0.1 0.1 0 0.2 0 0 0.1 0.1 0 0-0.1-0.1-0.1 0-0.1 0.1-0.1 0 0 0.1 0.1 0.2q0 0 0 0.1-0.1-0.1-0.2-0.2 0 0 0-0.1-0.1 0.1-0.1 0.1l-0.1-0.2-0.1-0.1q0 0.1 0 0.1c0.1 0.1 0.1 0.1 0.1 0.2 0.1 0.1 0.1 0.1 0.1 0.1-0.1 0-0.1 0.1-0.2-0.1q0.1 0.1 0.1 0.1 0 0.1 0 0.1 0 0 0 0 0 0 0 0c0 0 0.2 0.2 0.1 0.2q-0.1 0-0.1-0.1 0-0.1-0.1-0.1c0 0 0 0 0 0v0.1q0 0 0 0.1c0 0 0 0.1 0 0.1q0 0 0-0.1c-0.2-0.2-0.1 0.1-0.1 0.1q0 0 0 0-0.1 0-0.1-0.1 0 0 0 0 0 0 0.1 0c-0.1-0.1-0.1-0.1-0.1-0.1-0.1 0.2-0.2 0-0.2 0q0 0 0 0v0.1 0.1q-0.1 0-0.1 0c0 0 0.1 0 0.1 0q0 0.1 0 0.1 0 0 0 0c-0.1 0-0.1 0-0.1-0.2q-0.1 0-0.1 0 0 0 0 0c0 0 0 0.1 0.1 0.1 0 0 0 0.1 0 0.2l-0.1-0.1q0-0.1 0-0.1v-0.1c0 0 0 0.1 0 0.1-0.1 0-0.1 0.2-0.2 0.1 0-0.1 0 0.1 0 0 0 0.1 0 0.1 0 0.1 0.1 0.1 0.1 0.1 0.1 0.2q0 0-0.1 0 0 0 0-0.1l-0.1-0.2q0.1 0.1 0.1 0.2c-0.1 0-0.1 0.1-0.1-0.1q0 0 0 0 0 0 0 0 0-0.1 0-0.1v-0.2q0 0.1 0 0.1 0 0.1-0.1 0.1c0-0.1 0 0.1 0-0.1q0 0-0.1-0.1v0.1q0 0 0 0c0.1 0.1 0.1 0.2 0 0.2 0-0.1 0-0.1-0.1-0.1q0-0.1 0-0.1c0 0.1 0 0.1 0 0.2q0 0 0 0 0 0-0.1 0c0-0.1 0 0 0 0 0 0.5-0.2 0-0.2 0.3q0-0.1 0-0.1 0 0 0-0.1 0-0.1 0.1-0.1h-0.1c0 0.2-0.1-0.2-0.1 0.2 0 0 0 0.1 0 0.1q-0.1 0-0.1 0c0-0.1 0-0.1 0-0.1q0.1-0.1 0.1-0.2v-0.2 0.2q0 0 0 0-0.1 0-0.1 0c0-0.1 0.1-0.2 0 0-0.1 0.1 0-0.1 0-0.1v-0.2l0.1 0.1q0 0 0 0v-0.1-0.2q0 0 0 0 0 0 0 0.1 0-0.1 0-0.1 0-0.1 0 0c0 0 0 0.1 0 0.1-0.1 0 0-0.1 0-0.2 0-0.1-0.1 0.2-0.1 0 0 0 0.1-0.1 0-0.1q0 0-0.1 0.2 0 0.1 0 0.2 0.1-0.1 0.1-0.1 0 0 0-0.1v-0.1q0 0 0 0 0 0.1 0 0.2c0 0.1-0.1 0.2 0 0.3-0.1 0.1-0.1 0-0.1 0 0-0.2 0 0.1-0.1 0.2 0-0.1 0-0.1 0-0.1-0.1-0.1-0.2 0.1-0.1-0.3-0.1 0.4 0-0.1 0 0q-0.1 0-0.1 0c0 0 0 0.1 0 0.1 0 0.1-0.1 0.1 0 0.2-0.1 0-0.1-0.1-0.1-0.1q0-0.1-0.1-0.1c0 0 0 0.1-0.1 0.2-0.1 0.1 0-0.2 0-0.2 0-0.1 0 0 0-0.1q0 0.1-0.1 0.1c0 0 0.1-0.1 0-0.1 0 0 0-0.1-0.1 0 0 0 0 0 0 0.1q-0.1 0-0.1 0c0.1-0.1 0 0 0 0q0-0.3-0.1-0.1 0 0.1 0 0.1 0 0 0-0.1 0 0 0 0 0 0 0 0c0-0.1 0.1-0.3 0.1-0.3-0.1 0 0-0.2 0-0.1-0.1 0.1-0.1 0.2-0.2 0.3v0.1c0-0.1 0-0.1-0.1 0q0.1-0.1 0.1-0.1 0 0 0 0c-0.1 0-0.1-0.1-0.1-0.2-0.2 0.2-0.1-0.1-0.2 0q0 0 0 0c0-0.2-0.2 0-0.3-0.2q0 0-0.1 0c0 0-0.1 0-0.2 0q0 0.1-0.1 0.1c0 0-0.1 0 0.1-0.1q0-0.1 0-0.1l-0.1 0.1q0 0 0-0.1 0.1 0 0.1 0c0.1 0 0.1-0.1 0.1-0.1-0.1 0.1 0 0 0 0q-0.1-0.1-0.2-0.2l-0.1-0.1c-0.2 0.1-0.1-0.1-0.2 0v-0.1c0.3-0.1 0.1-0.1 0.1-0.2 0 0 0 0-0.1 0.1 0 0 0 0 0 0q0 0 0 0h-0.1l0.1-0.1 0.2-0.1-0.2 0.1q0 0 0 0c0.1-0.1 0.1-0.1 0-0.1 0 0 0-0.1 0-0.1l-0.2-0.2q0 0-0.1 0v0.1q0 0-0.1 0c-0.1 0-0.1-0.1 0-0.1q0 0 0.1 0c0.1 0 0.1 0 0.1 0q0.1 0 0.1 0.1v-0.1c0.2 0 0 0 0-0.1 0 0 0.2-0.1 0 0q-0.1 0-0.1 0c0.4-0.2 0.1-0.3 0.2-0.4 0.1 0-0.1-0.1-0.1-0.1-0.2 0-0.1-0.1-0.1-0.1 0 0 0.1 0.1 0.1 0 0 0-0.2-0.1-0.4 0q0 0 0 0-0.1 0-0.1 0h0.1-0.2l0.2-0.1c0.1 0-0.1 0 0 0q0 0 0 0c-0.1 0-0.1-0.1-0.1 0h-0.1v-0.1c0.3 0.1 0 0 0.1 0 0.1 0-0.1-0.1 0-0.2 0.1 0-0.1-0.1 0-0.1q0-0.1 0.2-0.1c0.1 0-0.1 0-0.2-0.1 0 0 0.2 0.1 0.2 0-0.1-0.1 0 0.1 0 0q0 0 0 0 0.1 0 0.1 0 0 0-0.1-0.1-0.1 0-0.1 0c0 0 0-0.1 0.1-0.1 0.1 0 0.2-0.1 0-0.1 0.2 0-0.2-0.1 0-0.1 0.1 0 0-0.2 0-0.2q0 0 0.1 0c-0.1 0 0.1 0 0.1 0q0 0 0 0 0 0 0 0 0 0 0-0.1c-0.1 0-0.1 0-0.1 0l0.1-0.1q0 0 0 0 0-0.1 0.1-0.3 0-0.1 0.1-0.2l0.1-0.1c0.1 0 0.1-0.1 0.1-0.1 0-0.1 0.2-0.2 0.3-0.3 0.1 0 0.1-0.1 0.2-0.1 0.1 0.1 0-0.1 0.1-0.1 0.2 0.2 0-0.1 0.2 0 0.1 0 0.2 0.1 0.2 0.1 0-0.1 0.1 0 0.1 0 0 0 0.1-0.1 0.1 0 0.1 0 0.2 0.1 0.2 0.2-0.1-0.3 0-0.2 0.1-0.1l0.1 0.4q0-0.1 0 0c0 0.1-0.2-0.2-0.2 0q0 0 0 0.1c0.1 0.1 0 0 0.1 0 0 0 0 0 0 0.1q0 0 0.1 0.1c0-0.1 0.1 0.1 0-0.1q0 0 0-0.1 0.1 0.1 0.1 0.1 0 0.1 0 0.1 0 0 0 0c-0.1-0.2 0-0.2 0-0.1l0.2 0.5c0 0 0.1 0.2 0 0.1q0.1 0 0.1 0.1 0 0.1 0 0.1c0 0 0 0 0.1 0.2q0 0 0 0 0 0 0 0c-0.1-0.2 0 0.1 0 0-0.1-0.1-0.1-0.2-0.1-0.2q0 0 0 0.1c0.1 0.1 0.1 0.1 0.1 0.1 0 0 0 0.1 0 0.1 0 0 0 0 0-0.1q0 0 0 0c-0.1-0.1 0.1 0.2 0 0q0 0 0 0.1c0.1 0.2-0.1-0.1-0.1-0.1 0-0.1-0.1-0.1 0 0q0 0 0 0 0-0.1-0.1-0.1h0.1c-0.1 0-0.1-0.1-0.1-0.1q-0.1 0-0.2-0.1 0 0.1 0.1 0.1 0 0 0 0c0 0 0-0.1 0.1 0.1 0 0 0 0 0 0.1 0.2 0.1-0.1-0.2 0.1 0v0.1q0 0 0 0c0-0.1 0-0.1 0.1 0 0 0 0 0 0 0 0 0-0.1-0.1-0.1-0.1 0 0.1 0.1 0.1 0.1 0.1q0 0 0 0l-0.1-0.1q0 0-0.1 0c0.1 0 0.1 0.1 0.1 0.1-0.1-0.1 0 0 0.1 0.1 0.1 0.1 0 0-0.3-0.1-0.1-0.1 0.1 0.1 0.1 0-0.2 0 0 0.1 0 0.1 0.3 0.1 0 0 0.1 0 0.1 0.1 0 0.1 0 0.1q0 0 0 0c-0.3-0.1 0.2 0.1-0.1 0 0.2 0.1-0.2 0 0.1 0.1-0.2-0.1-0.1 0-0.2-0.1q0 0 0 0-0.1 0-0.1 0-0.1 0-0.1 0h0.1c0 0 0 0-0.1 0q-0.1 0-0.2 0 0 0 0 0 0 0 0 0l0.1 0.1c0.1 0 0.2 0 0.2 0 0 0 0.2 0.1 0 0q0 0 0 0v0.1c-0.1-0.1-0.1-0.1-0.1-0.1q-0.1 0-0.2 0h0.2q0 0 0 0c-0.1 0-0.1 0.1 0 0.1q0 0 0 0 0.2 0.1 0.3 0.1 0 0 0 0c-0.1 0 0 0.1-0.1 0q-0.1 0-0.1 0l0.1 0.1q0 0 0.1 0 0 0 0 0h-0.2-0.1q0 0 0 0c0 0 0.1 0 0.1 0 0 0-0.2 0-0.1 0.1 0 0 0.2 0 0.3 0 0 0 0 0 0 0 0 0 0.1 0.1 0.1 0.1-0.1 0 0 0 0 0q-0.1 0-0.1 0h-0.1 0.1q0 0 0 0-0.1 0-0.1 0 0 0 0 0-0.1 0-0.1 0 0.1 0 0.1-0.1h-0.2v0.1q0 0-0.1 0c-0.1 0 0 0 0 0v-0.1q-0.1 0.1-0.1 0.1 0 0 0.1 0.1 0 0 0 0 0.1 0 0.1 0c0.1-0.1 0.2 0 0.3 0h-0.1-0.1q0 0 0 0 0 0 0 0 0.1 0 0.2 0h0.1q-0.1 0-0.1 0-0.1 0-0.3 0c0.5 0 0.1 0 0 0 0 0 0.2 0 0.2 0 0.1 0 0 0 0.1 0 0 0 0.1 0 0.1 0q-0.1 0-0.1 0 0 0-0.1 0 0.1 0 0.1 0l-0.2 0.1q0.1-0.1 0.2-0.1c0 0-0.1 0.1-0.1 0.1-0.1 0 0.2-0.1 0.1-0.1q0 0.1 0 0-0.1 0.1-0.1 0.1 0 0-0.1 0c0 0 0 0 0 0q0 0 0.1 0 0 0 0.1-0.1 0 0.1-0.1 0.1c0 0 0 0 0 0q-0.1 0-0.1 0c0 0 0 0 0 0q0 0.1-0.1 0.1-0.1 0-0.1 0.1h0.1-0.1q0 0-0.1 0 0 0 0.1 0 0 0 0 0c0 0 0.3-0.1 0.1-0.1q0 0 0.1 0 0 0 0 0c0.2-0.1 0.2-0.1 0.3-0.2 0.1 0-0.1 0-0.2 0.1h0.1v-0.1q0 0.1-0.1 0.1 0 0 0 0.1v-0.1l0.1-0.1v0.1c0 0-0.1 0.1 0.1-0.1q0 0 0 0 0 0-0.1 0.1 0.1 0 0.1-0.1-0.1 0.1-0.1 0.1c-0.1 0-0.1 0.1-0.2 0.2-0.1 0 0 0 0-0.1h0.1c0.1-0.1 0-0.1 0.1-0.1 0 0 0 0 0.1-0.1 0 0 0 0 0 0l-0.1 0.1c0.2-0.1 0.1-0.1 0 0q0 0 0 0 0 0-0.1 0.1 0 0 0 0h0.1q0 0 0 0c-0.1 0-0.1 0-0.1 0.1h-0.1v0.1c0-0.1 0.1-0.2 0.1-0.2q0.2-0.1 0.3-0.2c0-0.1-0.1 0-0.1 0.1 0.1-0.2 0 0 0.1-0.1-0.1 0 0 0-0.1 0q0 0 0 0.1 0-0.1 0-0.1c0 0 0 0 0.1 0 0 0 0.1 0 0.1 0.2 0 0 0.1-0.1 0.1-0.1 0 0.1 0.1-0.1 0.1 0.1-0.1 0.3 0-0.1 0 0 0 0 0.1 0 0.1 0 0 0 0 0.1 0 0.3q0 0 0 0v-0.1-0.1q0 0 0 0.1 0 0 0 0.1 0-0.1 0.1-0.2c0-0.2 0 0.1 0-0.1q0 0 0 0c0.1 0 0 0.1 0 0.2 0 0 0.1-0.1 0.1-0.1 0 0 0-0.1 0 0 0-0.2 0 0.2 0 0.1q0 0 0 0 0-0.1 0-0.1c0-0.1 0-0.1 0.1 0.1q0 0 0 0.1v-0.1-0.1 0.1c0 0 0 0.1 0 0.1 0-0.1 0-0.1 0-0.2q0 0 0 0v0.2q0 0 0 0 0 0 0 0.1 0 0 0 0 0 0 0 0v-0.1c0 0.2 0 0 0 0 0-0.1 0-0.2 0-0.1 0 0.1 0 0.1 0 0.1 0 0 0-0.1 0-0.2 0-0.2 0 0.1 0 0.1 0 0 0.1 0.1 0 0.1 0-0.1 0-0.1 0-0.1 0-0.2 0-0.3 0-0.1 0 0.1 0-0.1 0-0.1 0 0 0 0 0.1 0.2q0 0 0 0c-0.1-0.2 0-0.1 0 0 0 0-0.1-0.1-0.1-0.1q0.1 0 0.1 0c0 0 0.1 0.1 0 0q0 0 0 0h0.1c0 0-0.1-0.1-0.1-0.1 0 0.1 0 0 0 0q0 0 0.1-0.1c0 0.1 0 0.1 0 0.1-0.2-0.2 0.2 0 0-0.1 0 0 0 0 0.1 0 0.1 0.1 0 0 0 0-0.1 0 0 0 0-0.1q0 0 0 0 0 0 0.1 0h0.1q-0.1 0-0.2 0h0.1c0 0-0.1 0-0.1 0 0 0 0 0 0-0.1 0 0 0 0 0 0 0.1 0 0 0 0-0.1 0 0 0 0 0.1 0 0 0-0.1 0 0 0 0-0.1 0.1-0.1 0-0.1 0 0 0.1 0 0.1 0 0.1-0.1-0.1 0 0-0.1 0 0-0.1 0-0.1 0-0.1 0 0.1-0.1 0 0q-0.2 0 0-0.1 0.1-0.1-0.1 0c0.1 0 0.1-0.1 0.1-0.1 0 0-0.1 0-0.1 0q-0.1 0-0.1 0c0-0.1 0.1-0.2 0-0.2 0.1-0.2-0.1 0.1 0-0.1q0 0 0 0 0 0.1-0.1 0.1 0 0 0 0l0.1-0.1q-0.1 0-0.2 0c0 0 0 0.1 0 0.1q0 0 0 0 0-0.1 0-0.1zm-2.1 1.4q0 0 0 0 0 0 0 0c0.1 0 0.2 0 0.2 0 0 0-0.2 0-0.2 0zm-0.4-0.7c-0.1 0 0 0-0.1 0q0.2 0.1 0.1 0h0.1q0 0.1 0 0 0 0-0.1 0zm-0.1-0.6q-0.1-0.1-0.1-0.2 0 0.1 0 0.2 0.1 0 0.1 0c0.1 0 0 0 0 0zm0.3 0.1c0 0.1 0 0.1 0 0.2 0.2 0.1 0-0.2 0.1-0.1-0.1-0.2 0 0.1-0.1-0.1zm-0.3-0.3c0.1 0 0.1 0 0.1 0q0 0 0-0.1l-0.1-0.1v0.1q0 0 0 0c0.1 0 0 0 0 0.1zm0.1 0.1c0 0 0 0.1 0 0.1q0 0 0.1 0 0 0 0-0.1-0.1 0-0.1 0zm-0.7-0.2q0.1 0 0.1 0h-0.1q0-0.1 0-0.1 0 0 0.1 0c0.1 0.1 0.2 0.1 0.2 0 0.1 0.1 0.1 0 0.1-0.1q-0.1 0-0.1 0 0 0.1 0 0.1c0 0 0 0.1-0.1 0q-0.1 0-0.2 0c-0.1 0 0 0.1 0 0q0 0 0 0c0 0.1 0 0.1 0 0.1zm-0.3 0.3h0.1q0-0.1 0-0.1-0.1 0-0.1 0-0.1 0-0.1-0.1 0 0.1 0 0.1c0.3 0.1 0.1 0.1 0.1 0.1zm0.6 0.4h-0.1l0.1 0.1q0.1 0 0.1 0 0-0.1 0-0.1 0 0 0 0.1 0 0 0 0c0 0 0 0-0.2-0.1q0 0 0 0 0 0 0 0 0 0 0.1 0.1c0 0 0.2 0.1 0.2 0 0 0 0 0 0 0 0 0 0.1 0 0-0.1 0.1 0.1 0-0.1 0.1-0.1 0 0.1 0 0 0 0 0 0 0-0.1-0.1-0.1q0 0-0.1 0 0.1 0 0.1 0 0-0.1 0.1-0.1-0.1 0-0.1 0 0 0-0.1 0 0 0 0 0 0 0 0 0c-0.1-0.1 0-0.1-0.1-0.1q0-0.1-0.1-0.1 0-0.1 0 0 0 0 0 0 0 0-0.1 0 0-0.1 0.1-0.1-0.1 0-0.1 0 0 0 0 0.1c0.1 0.2 0.2 0.1 0.2 0.1-0.1 0 0.2 0.2 0.2 0.3 0 0-0.1 0-0.1 0.1q0 0 0 0-0.1-0.1-0.1-0.1 0 0 0 0c0.2 0-0.1-0.2 0-0.1q0-0.1 0-0.1-0.1 0-0.1 0c0.1 0.1 0 0 0 0q0-0.1-0.1-0.1c0 0-0.1 0-0.1-0.1q-0.1 0-0.1 0 0 0 0 0l0.3 0.2c-0.1 0 0.1 0.1 0 0.1 0 0 0 0 0 0 0 0 0 0.1 0 0.1 0.2 0.1 0 0 0.1 0.1zm-0.4-0.1q0 0 0-0.1 0 0 0.1 0 0 0 0 0 0 0 0 0l-0.2-0.1q0 0 0 0 0 0.1 0 0.1 0.1 0.1 0.1 0.1zm0.3 0.1c0-0.1-0.1-0.1-0.1-0.1 0 0-0.1-0.1-0.1-0.1 0 0 0.1 0.1 0 0 0 0.1 0.1 0.2 0.2 0.2zm-0.2-0.2q0 0 0 0 0 0 0 0zm-0.2 0.2l-0.1-0.1c0.2 0.1 0-0.1 0.1-0.1q-0.1 0-0.2 0c0 0-0.1 0-0.1-0.1q0 0 0 0-0.1 0-0.1 0 0 0 0 0c0 0.1 0.1 0.1 0.2 0.1q0.1 0.1 0 0.1c0 0 0.1 0.1 0.1 0.1 0.1 0.1 0-0.1 0.1 0zm-0.1 0.1c0.1 0-0.3-0.1-0.1-0.1l-0.3-0.1q0.1 0.1 0.3 0.2c0 0 0 0 0.1 0zm0.2 0.3c0.1 0.1-0.1 0 0 0.1 0.1 0-0.3-0.1 0 0q0.1 0.1 0.2 0.1 0 0 0.1 0 0 0 0.1 0c0 0 0.1 0 0.1 0 0 0 0.1 0 0 0 0-0.1 0.2 0 0-0.1 0.1 0 0.1-0.1 0.1-0.1l0.1 0.1q0 0 0-0.1c0 0-0.1 0-0.1 0-0.2-0.1 0 0-0.1-0.1l0.1 0.1q0 0 0 0c0-0.1-0.2-0.2 0-0.2q0 0 0.1 0l-0.3-0.1c0.1 0.1-0.1 0 0 0q0 0 0 0.1 0 0 0 0h0.1l-0.2-0.1 0.1 0.1c-0.1-0.1-0.2 0-0.2-0.1-0.1 0-0.1 0-0.1 0q0 0 0 0-0.1 0-0.1 0v0.1c0.1 0 0.1 0 0.2 0.1q0 0 0 0 0 0 0 0v0.2c0-0.1-0.1-0.1-0.1-0.1 0 0-0.1 0-0.1 0zm-0.7 0.2q0.1 0 0.2 0.1c0.1 0 0-0.1 0-0.1 0.3 0.1 0-0.1 0.2-0.1q0 0-0.1 0 0-0.1 0-0.1c0 0 0.1 0 0.1 0 0.1 0.1 0 0 0.2 0q0 0 0 0-0.1 0-0.1 0c-0.1 0-0.1 0-0.1-0.1-0.1 0-0.1 0-0.1 0q-0.1 0-0.1 0c-0.1 0-0.2 0-0.2 0 0.1 0.1-0.1 0.1 0 0.1 0.2 0.1 0.2 0.2 0.2 0.2 0 0-0.1 0-0.1 0q0 0 0 0v-0.1q0 0.1 0 0.1c0 0 0 0-0.1 0zm1 0.3c0 0 0.1-0.1 0-0.1 0 0 0 0 0 0 0 0-0.2 0-0.2 0 0 0 0.2 0 0.2 0.1zm0.1 0.2c-0.1 0 0-0.1-0.3-0.1 0 0 0.2 0 0 0 0 0-0.1 0-0.1 0-0.1 0 0.1 0-0.1-0.1q0 0 0 0c0.3 0.1 0.4 0 0.4 0q0 0 0 0 0 0-0.1 0-0.1 0-0.2 0c-0.1 0-0.3 0-0.4 0 0 0 0 0 0-0.1 0 0 0.1 0 0 0q-0.1 0-0.1 0 0 0.1 0 0.1c-0.1 0-0.1 0-0.2 0 0 0 0.1 0 0.1 0q0.1 0.1 0.1 0.1c0-0.1-0.1-0.1 0-0.1 0 0 0.1 0 0 0 0.2 0 0.4 0 0.4 0.1 0 0 0 0 0.1 0q0 0 0 0h0.1q0 0 0 0 0 0 0 0zm-0.7 0.1q0.1 0 0.1 0.1c0 0 0.1 0.1 0 0.1 0 0 0.1 0 0.1 0q0 0.1 0.1 0.1v-0.1c0 0 0.1 0 0 0 0-0.1 0.1-0.1 0.1-0.1q0 0 0 0-0.1 0-0.1 0 0 0 0 0 0.1 0 0.1 0 0 0 0 0 0.1 0 0.1 0-0.1 0-0.1 0-0.1-0.1-0.1-0.1c0 0 0 0 0.1 0q0 0 0 0 0 0 0 0c0 0-0.1 0-0.1 0 0.1 0 0.3 0 0.4 0.1 0 0 0-0.1 0-0.1-0.2 0-0.5 0-0.7 0zm-0.6 0.1c0.1 0 0.2 0 0.3 0 0 0 0.1 0 0.1-0.1 0 0-0.1 0.1-0.1 0q0 0 0.1 0 0 0 0.1 0c0 0-0.3 0-0.2-0.1q-0.1 0-0.1 0c-0.1 0-0.1 0.1 0 0.1-0.1 0-0.2 0.1-0.1 0.1q0 0 0 0c-0.2 0-0.1 0-0.2-0.1q0 0 0 0 0 0 0 0.1c0 0 0 0 0.1 0zm0.2 0.3q0-0.1 0.1-0.1 0 0 0 0c-0.1 0-0.1-0.1 0-0.1 0.1 0-0.1 0 0 0l-0.2-0.1q0.1 0.1 0.1 0.1c0 0-0.1 0-0.3 0q0 0 0 0 0 0 0 0.1c0 0 0.1-0.1 0.1 0 0 0 0.1 0 0.2 0.1zm0.7 0.3q0.1 0 0.1 0l-0.1-0.1c0.1 0 0.1 0 0.1 0q0.1 0 0.1 0 0 0 0 0.1 0 0 0-0.1 0.1 0 0.1 0c-0.1 0 0 0-0.1-0.1 0 0 0.1 0 0.1 0q0 0 0.1 0h0.1-0.1c0 0-0.2 0-0.2 0-0.1 0-0.1 0-0.1 0 0 0 0.1 0-0.1-0.1q-0.1 0-0.1 0 0 0 0 0c-0.1 0.1-0.1 0.1 0 0.1 0 0.1 0.1 0.1-0.1 0.2 0 0 0.2-0.1 0.2 0zm0.1 0q0 0 0 0-0.1 0-0.1 0l-0.2 0.1zm1.2-0.2q0.1 0 0.1-0.1l-0.1 0.1q0 0 0 0 0.1 0 0.1-0.1 0 0 0 0-0.1 0-0.1 0c0.1 0 0 0.1-0.1 0.1q-0.2 0-0.1 0c0 0 0.1 0 0.2 0zm-1.1 0.4c0.1-0.1-0.1-0.1-0.1-0.1 0 0 0 0 0 0q0 0-0.1 0c-0.1 0.1 0 0.1 0.1 0.1q0 0 0.1 0zm0.2 0.3l-0.1 0.1h0.1v-0.1l0.1-0.1-0.1 0.1h-0.1 0.1q0-0.1 0-0.1c0 0-0.1 0-0.1 0-0.3 0.2-0.1 0-0.1 0q0.1 0 0.1 0c-0.1 0-0.1 0-0.1 0 0 0.1-0.2 0.2-0.1 0.2 0.1 0 0 0 0 0-0.2 0.2-0.1 0.1 0 0.1q0 0 0 0 0.1 0 0.1 0l0.1-0.1q-0.1 0-0.1 0.1 0 0 0 0c-0.1 0 0-0.1 0-0.1q0 0 0 0c0.1 0 0.1 0 0-0.1q0.1 0 0.1 0h0.1zm-0.1 0.2q0 0 0 0c0.1 0 0-0.1 0.1-0.1q0 0 0.1 0 0-0.1 0-0.1c-0.1 0.1-0.1 0.1-0.2 0.1q-0.1 0.1 0 0.1 0 0.1 0 0zm1-0.6q0 0 0 0c0 0-0.1 0-0.1 0 0 0.1-0.1 0.1-0.1 0.1q0.1 0 0.2-0.1zm-0.7 0.9q0-0.2 0.1-0.3l-0.2 0.2q0 0 0 0h0.1q0 0-0.1 0.1 0 0 0 0h-0.1v0.2q0.1-0.1 0.2-0.2zm0.2 0c0.1-0.2-0.2 0.1-0.1 0q-0.2 0.1-0.3 0.2c0 0.1 0.2-0.1 0.1 0l0.2-0.1c0 0 0 0 0.1-0.1zm0.2-0.1h-0.1q0 0 0 0 0 0.1 0 0.2c0 0 0-0.1 0.1-0.2zm0.2 0.5q0-0.1 0.1-0.3c0-0.2-0.1 0-0.1 0q0 0.1 0 0.1c-0.1 0.1 0-0.1-0.1 0q0 0.1 0 0h0.1c-0.1 0.1 0 0.1 0 0.2q0 0 0 0zm0.6-1.1q-0.1 0-0.1 0 0.1 0 0.1 0c0.1-0.2 0 0 0-0.1q0 0 0 0.1zm-0.3 0.7c0 0 0.1-0.2 0-0.1q0 0-0.1 0.1 0 0-0.1 0.1 0 0.1 0 0.2c0 0 0.1-0.1 0.1-0.1q0 0 0-0.1l0.1-0.1c-0.1 0.1 0 0 0 0 0-0.1 0 0 0 0zm0.2-0.1c0-0.2-0.1 0-0.1 0 0 0-0.1 0.1-0.1 0.1 0 0.1 0.1 0.1 0.2-0.1q0 0 0 0zm-0.2 0.9v-0.2c0 0.1 0 0.1 0 0.1-0.1 0.1 0 0 0 0.1zm0.1-0.1q0.1 0 0.1-0.1c0-0.2-0.1-0.1-0.1-0.2q0 0 0 0v0.1c0-0.1 0 0-0.1 0 0 0 0 0.2 0 0.2q0 0 0.1-0.1 0-0.1 0-0.1 0 0.1 0 0.1c-0.1 0.2 0 0.1 0 0.2q0 0 0-0.1zm0.5-0.3c-0.1 0.1-0.1 0-0.1-0.1 0 0 0-0.2 0-0.2 0 0.1 0 0.3-0.1 0.3 0 0.2 0.1 0.1 0.2 0zm0.2-0.9q0-0.1 0-0.2c0 0 0 0.1 0 0.1 0-0.2 0-0.2 0-0.2q0-0.1 0-0.1c-0.1 0.2-0.1 0.3-0.1 0.4 0 0 0.1 0 0.1 0zm-0.1 0.9c0 0 0-0.1-0.1 0q0.1 0.1 0.1 0.2zm0.1-1.1q0 0 0 0 0-0.1 0-0.1c0 0.1 0 0 0 0.1q0 0 0 0zm0 1.6q0 0 0 0l-0.1-0.1c0 0 0 0 0 0 0 0.4 0.1-0.1 0.1 0.1zm0 0.2q0-0.1 0-0.1c0 0-0.1 0-0.1 0l0.1 0.3q0-0.1 0-0.2zm0.1-2c0 0 0 0.1 0 0.2q0 0.2 0 0.2v-0.1q0-0.1 0 0c0-0.1 0-0.2 0-0.3zm0.1 0q0 0 0-0.1 0 0.1 0 0.2c0.1 0.1 0 0 0 0q0 0 0.1 0.1c0 0.2 0 0 0 0-0.1-0.1-0.1-0.2-0.1-0.2zm0.4 0.6c0 0 0 0 0 0q0 0.1 0 0.1 0 0 0 0.1 0-0.1 0-0.2zm0.3 0.4q-0.1 0-0.2-0.1c0 0 0 0.1 0 0.1q0.1 0.1 0.2 0.2c0-0.1 0-0.2 0-0.2zm0.4 0c-0.1 0-0.1-0.2-0.1-0.2-0.1 0.1 0.1 0.2 0.2 0.3q0-0.1 0-0.1c-0.1-0.1-0.1 0-0.1 0zm-0.2-0.3q0 0 0 0.1-0.1 0 0 0 0 0 0 0 0 0 0 0 0 0 0.1 0-0.1-0.1-0.1-0.1zm-0.5-0.6h-0.1q0.1 0 0.1 0.1l0.1 0.1c-0.1-0.1-0.1-0.1-0.1-0.2zm0.1 0q0 0.1 0 0.1l0.2 0.1c0 0 0.1 0.1 0 0q-0.1-0.1-0.2-0.2zm0.4 0.2l0.2 0.2c0 0 0.1 0 0.1 0q-0.1-0.1-0.2-0.2 0 0-0.1 0zm0.3-0.3c0 0-0.1-0.1-0.1 0q0 0 0.1 0c0 0 0.1 0 0 0q0 0 0 0zm-0.1-0.1c0.2 0.1 0.1 0 0.2 0q0 0-0.1 0h-0.2q0 0 0.1 0zm0.5 0.2q0.1 0 0.2 0-0.1-0.1-0.2-0.1-0.1 0-0.1 0c0 0 0.1 0.1 0.1 0.1zm0.4-0.1l-0.2 0.1q0.1 0.1 0.1 0.1l0.1-0.1q0 0 0-0.1zm-0.6-0.5q-0.1 0-0.2 0c0 0 0.1 0 0.1 0.1 0.1-0.1 0.3 0 0.2-0.1zm0.4-0.3c-0.1 0.1 0.1 0.1 0 0.1q0.1 0 0.1 0 0.1 0 0.1 0l0.1-0.1q-0.1 0-0.3 0zm-0.5-1.5q0 0 0 0.1 0 0 0.1 0 0-0.1 0-0.2c0 0 0 0.1-0.1 0.1z"/><path class="a" d="m27.6 8.3q0 0 0 0 0 0 0 0z"/><path class="a" d="m26.6 10.6z"/><path class="a" d="m26.6 10.6z"/><path class="a" d="m24.5 7.8z"/><path class="a" d="m23 9.8q0 0 0-0.1z"/><path class="a" d="m22.3 7.7z"/><path class="a" d="m26.1 9.9q0 0 0 0h0.1-0.1z"/><path class="a" d="m23.1 6.7z"/><path class="a" d="m24.4 10.5z"/><path class="a" d="m23.7 7.3q0 0 0-0.1v0.1z"/><path class="a" d="m23.3 6.3z"/><path class="a" d="m21.8 9.3z"/><path class="a" d="m21.8 8.8q0-0.1 0-0.1 0 0 0 0 0 0.1 0.1 0.1 0-0.1 0.1-0.1h-0.1q0 0 0 0 0 0 0-0.1 0 0 0 0h-0.1q0 0 0 0c0.1 0.1-0.1 0.1-0.2 0.2-0.1 0 0 0.1-0.1 0.1h0.1 0.2z"/><path class="a" d="m23.6 5.9q0.1 0 0.1 0c0 0.1 0-0.1 0.1 0.1q0 0 0.1 0l-0.1-0.2q-0.1 0-0.1 0c-0.1 0-0.1 0.1-0.1 0.1z"/><path class="a" d="m21.7 9q0 0 0 0 0 0 0 0 0 0 0 0c0.1 0 0.2 0 0 0 0-0.1 0.2 0 0.1-0.1h-0.2c-0.2 0.1 0.1 0.1 0 0.2h0.2c-0.1 0 0.1-0.1-0.1-0.1z"/><path class="a" d="m24.4 7.7q0 0 0 0 0.1 0.1 0.1 0.1c0 0 0 0 0 0-0.1-0.1-0.1-0.1-0.1-0.1z"/><path class="a" d="m21.8 9.3z"/><path class="a" d="m21.9 9.2c0 0 0-0.1-0.1-0.1-0.1 0 0.2-0.1 0 0-0.2 0.1-0.1 0.1 0 0.2 0-0.1 0.1-0.1 0.1-0.1z"/><path class="a" d="m24.3 8.2c0.3 0.1 0 0 0.1 0h-0.1c0 0-0.1 0-0.1 0 0 0 0 0 0.1 0z"/><path class="a" d="m21.9 9.9c0 0 0.1 0 0.2 0v-0.1l0.1-0.1-0.2 0.1q0 0-0.1 0.1z"/><path class="a" d="m23.7 11.1q0 0 0-0.1c-0.1 0-0.1 0-0.1 0.1-0.1 0.2 0.1-0.1 0 0.1 0 0 0.1 0 0.1-0.1z"/><path class="a" d="m24.2 8.3q0 0 0.1 0 0 0 0 0 0-0.1-0.1-0.1 0 0 0 0 0 0-0.1 0 0 0 0 0-0.1 0-0.1 0c0.1 0 0.2 0 0.2 0.1z"/><path class="a" d="m24 8.2q0 0 0 0z"/><path class="a" d="m22.4 10.2l-0.1 0.1c0 0-0.1 0.1 0 0.1 0 0 0.1-0.1 0.2-0.1-0.1 0-0.2 0-0.1-0.1z"/><path class="a" d="m26.8 6.7q0.1 0 0.1 0 0-0.1 0-0.2c0 0 0 0 0 0-0.1 0.1 0 0-0.1 0.2z"/><path class="a" d="m26.5 11q0 0.1 0 0.2 0 0 0.1 0 0-0.1 0-0.2c0 0-0.1 0-0.1 0z"/><path class="a" d="m24.8 11.4v0.2q0 0 0.1 0 0 0 0 0 0-0.1 0-0.2 0 0-0.1 0z"/><path class="a" d="m27.3 10.2q0 0 0.1 0.1 0 0 0-0.1c0 0 0 0-0.1 0q0 0 0 0z"/><path class="a" d="m27.5 8.4c0 0.1 0.1 0.1 0.1 0.1 0.2 0-0.1 0 0-0.1q0 0 0 0c-0.1 0-0.1 0-0.1 0z"/><path class="a" d="m23.3 10.9c0 0.1-0.1 0.2-0.1 0.3q0 0 0.1-0.1c0-0.1 0 0 0 0 0.1-0.1 0-0.1 0-0.2z"/><path class="a" d="m24.5 7.8q0 0.1 0 0.1c0-0.1 0 0 0-0.1z"/><path class="a" d="m24.5 7.8z"/><path class="a" d="m24.5 7.8z"/><path class="a" d="m22.3 10.3z"/><path class="a" d="m22.4 10.2q0.1-0.1 0.1-0.1c0 0-0.1 0-0.1 0l-0.2 0.2h0.1q0-0.1 0.1-0.1z"/><path class="a" d="m22.3 10.3z"/><path class="a" d="m22.3 10.3z"/><path class="a" d="m26.6 10.6z"/><path class="a" d="m26.6 10.6q-0.1-0.1 0 0 0 0 0.1 0.1 0 0 0 0l-0.1-0.1z"/><path class="a" d="m26.6 10.6z"/><path class="a" d="m26.2 11.3q0 0 0.1 0 0 0 0 0h-0.1q0 0 0 0z"/><path class="a" d="m22.8 7.5c0.1 0.1 0.1 0 0.2 0.1 0.1 0 0.2 0 0-0.1h-0.1c-0.1 0-0.1 0-0.1 0z"/><path class="a" d="m23.2 7.4c-0.1 0-0.1 0-0.1 0q0 0.1 0.1 0.1 0 0 0.1 0-0.1 0-0.1-0.1z"/><path fill-rule="evenodd" class="a" d="m24.9 6.4c0-0.1 0.1-0.3 0.1-0.2 0 0.1 0 0.1 0 0.1 0 0 0 0 0 0 0-0.3 0.2-0.1 0.2-0.3 0 0 0.1-0.2 0.2-0.2-0.1 0.1 0 0 0 0.1 0 0.1-0.1 0-0.1 0.1q0 0.1 0 0.1l-0.1-0.1q0 0 0 0.1l0.1 0.1v-0.2c0 0.1 0.1 0 0.1 0.1q0.1 0.1 0.2 0c0 0 0 0 0 0.1 0 0 0 0 0.1-0.1q0-0.1-0.1-0.1 0 0 0 0 0.1 0 0.1 0c0 0 0.1 0.1 0.2 0q0.1 0 0 0 0 0.1 0.1 0.1v-0.1c-0.1 0 0 0 0-0.1h-0.1q0.1-0.1 0.2-0.1c0 0 0 0.1 0 0.1q0 0.1 0.1 0.1 0 0 0.1-0.1c0-0.1 0 0.1 0 0.1 0.1-0.1 0.1-0.1 0 0 0 0.1 0 0.1 0 0.1 0.1-0.1 0 0.1 0.1 0q0 0 0 0 0 0 0 0v0.1l-0.2 0.2v-0.1q-0.1 0-0.1 0l0.1 0.2q0 0 0-0.1l-0.9 1.3c0 0-0.1 0 0 0q0 0-0.1 0v0.1q0 0 0 0 0 0 0 0c0.2-0.3 0-0.1 0-0.2 0 0 0 0 0 0q0-0.1 0-0.1 0 0.1 0 0.1-0.1 0-0.1 0 0 0 0 0c0 0-0.1 0-0.1 0 0 0 0 0 0 0-0.1 0-0.1-0.1-0.1-0.2q0 0.1-0.1 0.1c0 0 0 0.1 0 0.1 0 0 0-0.1 0-0.1 0 0 0-0.1 0 0 0 0 0 0 0 0q-0.1 0.1-0.1-0.1c0 0.1 0-0.1 0.1-0.2 0-0.1 0-0.1 0-0.2q0 0 0 0 0 0 0.1-0.1 0 0 0-0.1 0 0 0 0 0 0 0 0c0 0 0.1-0.2 0.1-0.3q0 0-0.1 0c0 0 0 0 0-0.1zm1 0.1q0 0.1 0 0.2c0 0 0 0 0 0q0.1-0.1 0.1-0.2zm0.2-0.3q0 0 0.1 0c0-0.1 0-0.1 0-0.1-0.1 0.1 0-0.1 0 0q-0.1 0-0.1 0.1zm-0.3 0.1c0 0 0 0.1 0 0.1 0 0 0-0.1 0 0q0 0 0 0c0 0 0 0 0 0.1q0 0 0 0.1 0-0.1 0-0.2c0 0 0.1 0 0.1 0 0 0 0.1-0.1 0.1-0.2q0-0.1 0-0.1 0 0.1-0.1 0.1v0.1zm-0.1 0.1c0 0 0 0.1 0 0.1 0 0 0 0 0 0 0.1-0.1 0-0.1 0-0.1z"/><path class="a" d="m24.7 7.2q0 0 0 0v-0.3q0 0.1 0 0.1z"/><path class="a" d="m3.1 10q0 0 0 0h0.1z"/><path fill-rule="evenodd" class="b" d="m1.6 16.9c0 0 0.1-0.1 0.1-0.1 0-0.2 0-0.1 0.1-0.1v-0.7q0 0-0.1-0.1 0 0.1 0 0.1c-0.1 0.1-0.1-0.2-0.2-0.1 0 0-0.1 0-0.1-0.1l0.1-0.5q0 0.1 0.1 0.2c0 0 0 0 0 0 0.1 0 0.2-0.2 0.3-0.2q0-0.1-0.1-0.1 0 0-0.1 0.1v-0.2h0.1l0.1 0.1v-0.2q0 0.1 0 0.1-0.1 0-0.1 0c0-0.1 0.2-0.2 0-0.3h0.3q0 0.1-0.1 0.1c-0.1 0.3 0.1 0.4 0.2 0.7q0 0-0.1 0 0 0 0 0l-0.1-0.1q0 0.1 0 0.1c0.1 0 0 0.2 0.1 0.1 0.1 0 0.1 0 0.1 0q0.1 0.1 0.1 0.2h-0.1c-0.1 0.1 0 0.2-0.1 0.3 0.2 0.1-0.1 0.3 0 0.5 0.1 0.1 0.1 0.2 0 0.3 0 0.1-0.1 0.1-0.1 0.1q-0.1 0-0.1 0.1-0.1 0.1-0.1 0.2-0.1 0-0.1-0.1c-0.4 0 0-0.2-0.1-0.2-0.1 0 0-0.2 0-0.2zm0.3-0.5q0.1-0.1 0.1-0.2c0 0 0-0.1 0-0.1-0.1 0-0.1 0.1-0.1 0.1q0 0.1 0 0.2zm-0.1 0.4l-0.1 0.2c-0.1 0.1-0.1 0.2-0.1 0.2 0.1 0.1 0.1-0.1 0.2-0.1 0.1 0 0.2-0.1 0-0.3z"/><path class="a" d="m10.4 31.3z"/><path class="a" d="m1.8 19.4z"/><path class="a" d="m19.6 31.2z"/><path fill-rule="evenodd" class="a" d="m31.2 23.6h0.3-0.1l-0.1 0.2q-0.1 0-0.1 0.1 0.1-0.1 0.1-0.1 0.2 0 0.3 0c0.1 0 0.1 0 0.1 0.1-0.4 0.1 0.1 0 0 0.1-0.1 0.2 0.1 0.4-0.1 0.5-0.1 0.1-0.3 0.1-0.2 0.4q-0.1-0.1-0.1-0.1c-0.2 0 0 0.1-0.1 0.1-0.1 0.2 0.1 0.3 0.1 0.4q0 0.1-0.1 0.1c0 0 0 0-0.1 0 0.2 0.1 0.1 0.3 0.1 0.5-0.1 0.2-0.2 0.3-0.3 0.4q0 0 0 0c0 0 0 0.2 0 0.2 0.2 0 0.1 0.1 0.2 0.2-0.1 0.1 0 0.3-0.3 0.4-0.2 0.1-0.3 0.4-0.2 0.6-0.1 0-0.2 0-0.2 0.1-0.2 0.1-0.3 0.2-0.4 0 0 0 0 0-0.1 0h0.1c-0.3 0.2 0 0.2 0 0.2 0.4 0.1-0.2 0.4 0.1 0.5q-0.1 0-0.1 0.1-0.1 0-0.1 0.1c0 0 0 0-0.1 0.1q0 0 0 0v-0.1q0 0 0 0l-0.2 0.2c-0.1 0.2 0.3 0.1 0.1 0.3l-0.3 0.2c0 0 0-0.1 0-0.1-0.2-0.1-0.3 0.2-0.5 0.1q-0.1 0-0.1 0v0.2c0.1-0.1 0.2 0 0.2 0.1 0 0.1-0.3 0.4-0.4 0.3-0.2 0 0 0.1-0.1 0.2q-0.2 0-0.3 0.1c-0.1 0-0.2 0.1-0.2 0.1 0.2 0.5-0.2 0.3-0.4 0.3-0.2 0.1-0.4 0.1-0.5 0.2-0.1 0.2-0.2 0-0.3 0.1l-0.1 0.1c0-0.1-0.1-0.1-0.1 0 0.1 0.1-0.2 0.1-0.1 0.2 0 0-0.1 0.1-0.1-0.1-0.2 0-0.3 0-0.5 0-0.2 0.1-0.4 0.2-0.6 0.2q0 0.1-0.1 0 0 0 0.1-0.1 0-0.1 0-0.1 0 0-0.1 0c-0.1 0.2-0.2-0.2-0.3 0.1q0 0 0 0.1 0 0 0.1 0c0 0 0.1-0.1 0.1 0 0.1 0.1 0 0.1-0.1 0.1-0.2 0-0.4 0-0.5 0-0.2-0.2-0.4-0.1-0.6-0.2q0 0 0 0 0 0.1 0.1 0.1c0 0.1 0.2 0 0.1 0.2q0 0-0.1 0 0-0.1 0-0.1c-0.1 0-0.2-0.1-0.4 0-0.1 0.1-0.3-0.2-0.5-0.1q-0.2 0-0.4-0.1c0 0-0.2 0-0.3 0.1q-0.1 0-0.3 0.1c0 0 0-0.1 0-0.1-0.1 0-0.2-0.1-0.2-0.1-0.2 0.2-0.5 0.1-0.7 0.2-0.2 0.1-0.5 0-0.8 0.1-0.2 0 0.1-0.2 0-0.2q-0.3 0.1-0.7 0.2 0 0 0 0 0 0 0 0 0-0.1 0-0.1 0.1 0 0.2 0c-0.1-0.1-0.2-0.2-0.3-0.2-0.1 0-0.1 0 0-0.1 0 0 0.2 0.1 0.2 0 0.1-0.2 0.4 0.1 0.5-0.1q0 0 0 0.1 0 0 0 0-0.1 0-0.1 0 0 0 0 0h0.2q0 0 0.1 0v0.1c0.1-0.1 0-0.3 0.2-0.3-0.2-0.1-0.5-0.1-0.7-0.1-0.2 0-0.5 0-0.4 0.3-0.3 0-0.1 0.2-0.2 0.2-0.1 0.1-0.2 0-0.2-0.1-0.1 0-0.2 0-0.2 0.1 0 0.2-0.4 0-0.5 0.2 0-0.1-0.1 0.1-0.1-0.1 0-0.1-0.2 0-0.3 0-0.2 0-0.3 0.1-0.3 0.3 0 0-0.1 0-0.1 0q-0.1-0.1-0.2-0.2c0.1-0.1 0.1-0.1 0.1-0.1-0.1-0.1-0.1 0-0.2 0q0-0.1 0-0.2 0-0.1-0.1-0.2c0 0 0 0.1 0 0.1 0.1 0.1-0.1 0.1-0.1 0.2 0 0.2-0.2 0.1-0.2 0.1-0.1 0-0.3 0-0.3-0.1 0 0 0 0.1 0 0.1 0 0.1-0.1 0.1-0.1 0.1h0.1q0 0 0 0c-0.1 0 0 0.2-0.2 0.2q0-0.1-0.1-0.1h0.1 0.1q-0.1-0.1-0.3-0.2c0 0 0 0-0.1 0l0.1 0.1q-0.1 0-0.2 0.1c0 0 0 0.1 0 0.1-0.1 0-0.1-0.1-0.1-0.1-0.1-0.3-0.3 0.1-0.4 0q0 0-0.1 0 0 0 0-0.1c0 0 0 0 0.1 0q0 0 0.1 0c0-0.1-0.1-0.1-0.2-0.1-0.2 0.1-0.3-0.1-0.4-0.1q-0.1 0-0.2 0l0.1 0.1q0 0 0.1 0l-0.3 0.1q-0.1 0-0.1 0c0 0 0 0 0 0.1q0 0 0.1 0-0.1 0-0.1 0c-0.2 0-0.3 0-0.2-0.2q-0.1 0-0.1 0-0.1 0-0.1-0.1c0 0.1 0 0.2 0.1 0.2 0 0 0 0.1 0 0.1l-0.2-0.1q0 0 0.1 0 0 0 0 0l-0.1-0.2c0 0 0 0.1 0 0.1-0.2 0-0.3 0.2-0.5 0-0.1 0-0.1 0.1-0.2 0.1 0.1 0 0.1 0.1 0.1 0.1 0.1 0 0.1 0.1 0 0.1 0 0.1 0 0.1-0.1 0.1q-0.1-0.1-0.1-0.1 0-0.2 0-0.3c0 0.1 0 0.1 0 0.2-0.1 0-0.2 0.1-0.2-0.1 0 0 0 0-0.1 0q0.1 0 0.1 0c0.1 0 0.1-0.1 0.1-0.1q0-0.1-0.1-0.2 0 0.1 0 0.1-0.1 0.1-0.1 0.1c0-0.1-0.3 0-0.2-0.1 0-0.1-0.1-0.1-0.1-0.1q0 0 0 0 0 0.1 0 0.1c0 0 0 0.1-0.1 0.1-0.1 0-0.2-0.1-0.3-0.1 0 0-0.1-0.1-0.1 0-0.1 0-0.2 0.1 0 0.1q0 0 0 0c-0.1 0-0.2 0-0.2 0-0.1-0.1-0.2 0-0.2 0 0 0.5-0.5 0-0.6 0.2q0 0 0 0 0-0.1 0-0.1 0.1-0.1 0.2-0.2-0.1 0-0.1 0c-0.1 0.2-0.4-0.1-0.4 0.2 0 0.1-0.1 0.1-0.1 0.1q-0.1 0-0.3 0c0.1 0 0.1-0.1 0.2-0.1 0.1 0 0.1-0.1 0.1-0.2q0 0-0.1-0.1v0.2q0 0 0 0-0.1 0-0.1 0c0-0.1 0-0.2-0.2-0.1-0.1 0.1-0.1 0-0.1-0.1l0.1-0.2 0.2 0.1q0 0 0 0.1h0.1q0-0.1 0-0.1 0-0.1 0-0.3 0 0 0 0.1 0.1 0 0.1 0 0 0-0.1-0.1c0 0-0.1 0-0.1 0-0.1 0.1-0.1 0.2-0.1 0.2-0.2-0.1 0-0.2 0-0.2-0.1-0.1-0.1 0.1-0.1 0-0.1-0.1 0-0.2-0.2-0.2-0.2 0-0.3 0.1-0.2 0.2q0 0.1 0.1 0.2 0 0 0.1-0.1 0 0 0 0l-0.1-0.1c0 0 0-0.1 0-0.1 0.1 0.1 0.1 0.2 0.1 0.2 0.1 0.1-0.1 0.3 0.1 0.3 0 0.1-0.1 0-0.1 0-0.3-0.1-0.2 0.1-0.3 0.2-0.1-0.1-0.3 0-0.3 0-0.1-0.2-0.5 0-0.5-0.3-0.1 0.3 0-0.2-0.1-0.1 0 0-0.1 0-0.1 0 0 0 0 0.1 0 0.1 0.2 0.1-0.2 0.1 0 0.2-0.1 0-0.2 0-0.3-0.1-0.1-0.1-0.3-0.1-0.5-0.1-0.1 0 0.2 0.1 0 0.2-0.3 0.2-0.2-0.2-0.4-0.2 0.1-0.1-0.1 0-0.1-0.1q-0.1 0.1-0.1 0.1c-0.1 0-0.1-0.2-0.2-0.2-0.2 0.1-0.4 0-0.6-0.1-0.1 0 0.1 0.1 0 0.2q0 0 0 0c-0.1-0.1-0.3 0-0.4-0.1q-0.1-0.3-0.3-0.1-0.1 0-0.1 0-0.1 0-0.1-0.1 0.1 0 0.1 0 0 0 0 0c0-0.1-0.1-0.3-0.2-0.3-0.1-0.1 0.1-0.3-0.1-0.2-0.1 0.1-0.1 0.2-0.1 0.4-0.1-0.1-0.2-0.2-0.3-0.1 0 0 0.1-0.1 0-0.1q0 0-0.1-0.1c-0.2 0-0.3-0.1-0.4-0.3-0.2 0.1-0.3-0.2-0.5-0.3q0 0 0 0c-0.2-0.3-0.6-0.4-0.9-0.7q-0.1-0.3-0.3-0.4c-0.1-0.1-0.2-0.1-0.4-0.2 0 0 0 0.1 0 0.1 0-0.1-0.2-0.2-0.1-0.3 0.1 0 0 0 0-0.1q0 0 0 0l-0.1 0.1c0-0.1 0-0.1 0-0.2 0.1 0 0.1 0 0.2 0.1 0.1 0.1 0.1 0 0.1-0.1-0.2 0-0.1-0.1-0.1-0.1q-0.2-0.4-0.4-0.7-0.2-0.3-0.3-0.6c-0.3 0.2-0.1-0.2-0.3-0.2 0.3-0.1 0.1-0.4 0.1-0.5 0 0-0.1-0.1-0.1-0.1 0 0-0.1 0.1-0.1 0.1q0 0 0.1 0.1l-0.2-0.2 0.1-0.1 0.2-0.1h-0.2q0 0 0 0c0.1-0.2 0.1-0.2-0.1-0.3 0-0.1 0-0.2 0-0.3l-0.3-0.7q0 0-0.1 0v0.1q-0.1 0-0.1 0c-0.1-0.1-0.1-0.3 0-0.4 0 0.1 0 0.1 0.1 0.1 0 0 0.1 0.2 0.2 0.2q0 0.1 0 0.1 0 0 0.1 0c0.1-0.1-0.1-0.2-0.1-0.3 0 0 0.1-0.2-0.1-0.1 0 0 0-0.1 0-0.1 0.3-0.4-0.1-0.8 0.1-1.2 0-0.1-0.1-0.3-0.2-0.5-0.1 0.1-0.1 0-0.1-0.1 0-0.1 0.2 0.2 0.1 0 0-0.2-0.2-0.2-0.3 0q-0.1 0-0.1 0 0 0 0-0.1 0 0 0 0h-0.1l0.1-0.2c0.1-0.2-0.1 0 0-0.1q0 0 0-0.1c-0.1 0.1 0-0.2-0.1 0q0 0-0.1 0v-0.1c0.3 0 0-0.2 0.1-0.3 0.1-0.1-0.1-0.4 0-0.5 0.1-0.3-0.1-0.4 0-0.6q0-0.2 0.1-0.3c0.1-0.1-0.1-0.1-0.1-0.2-0.1-0.3 0.1 0 0.1-0.1-0.1-0.3 0 0 0 0q0-0.1 0-0.2 0.1 0 0.1-0.1c0 0 0-0.1-0.1-0.1q0 0.1-0.1 0.1c0-0.2 0-0.4 0.1-0.6 0.1-0.2 0.1-0.2-0.1-0.4 0.2-0.1-0.1-0.2 0.1-0.4 0-0.1-0.1-0.4-0.1-0.6q0 0 0-0.1c0 0.2 0.2-0.1 0.1 0.1q0.1 0 0.1 0.1 0-0.1 0-0.1 0-0.1-0.1-0.2c0 0 0 0-0.1 0l0.1-0.3q0-0.1 0-0.2 0-0.4 0-0.9 0-0.3 0.1-0.7v-0.5c0-0.1 0.1-0.3 0-0.4 0-0.4 0-0.8 0.1-1.1 0.1-0.2 0-0.4 0.1-0.6 0.2-0.1-0.1-0.2 0-0.3 0.2-0.2-0.1-0.4 0.1-0.7 0.1 0 0.3-0.1 0.2-0.2 0-0.1 0.1-0.2 0.1-0.3 0.1-0.1 0-0.2 0.1-0.3 0.1-0.2 0.2-0.2 0.3-0.4q0 0 0 0c-0.3-0.1-0.2-0.2-0.1-0.3h0.5q-0.1 0.1-0.1 0.3c0.1 0.2-0.2 0.4-0.1 0.6 0 0 0 0.1 0 0.1 0 0.1 0 0.2 0.1 0.2 0.1 0 0-0.1 0-0.2 0 0 0-0.1 0.1 0q0.1 0 0.2 0.1c-0.1-0.2 0.1-0.5-0.1-0.6q0-0.1 0-0.2 0 0 0.1 0 0 0 0.1 0c0-0.1 0-0.1 0-0.1-0.2-0.1-0.2-0.1-0.1-0.1h0.6c0 0 0.1 0 0.1 0.1q0 0 0-0.1h0.1q0 0.1 0 0.1c0.1 0.1 0 0.3 0.2 0.2q0.1 0 0.1 0 0 0 0 0.1 0 0 0 0c-0.2-0.1 0 0.1-0.1 0.1-0.1 0-0.2 0-0.2 0 0 0.1 0 0.2 0.1 0.2 0.1 0 0.1 0 0.1 0.2 0 0 0.1 0.1 0.1 0.2 0 0.1 0 0.2-0.1 0.2 0 0.1 0 0.1 0 0.1-0.1 0.1 0.2 0 0 0.1 0 0 0 0.1 0 0.2 0.2 0.2-0.1 0-0.1 0.2-0.1-0.1-0.1-0.1 0 0 0 0.1 0 0.1-0.1 0.2q0 0 0 0 0-0.1 0-0.1 0 0 0-0.1c-0.1 0.1-0.2 0.1-0.2 0.2q-0.1 0.3-0.1 0.7c0 0 0 0.1 0 0q0-0.1 0.1-0.1c-0.1-0.1-0.1-0.3 0.1-0.2 0 0 0 0.2 0.1 0.3 0.2 0.1-0.3 0.4 0 0.5q0.1 0 0.1 0 0 0 0-0.1c-0.1-0.1-0.1-0.1 0.1-0.2 0 0.1-0.1 0.2 0 0.4 0 0.2-0.2-0.1-0.2 0.1 0 0 0.1 0.1 0.2 0.1 0 0.1 0 0.2 0 0.3l-0.2-0.2q0 0 0 0c0 0.1 0 0.2 0 0.2-0.1 0.2 0.1 0.3 0.2 0.5 0.1 0.2-0.1 1.1-0.3 1.2-0.2 0.1 0.1 0 0 0.1-0.2 0.2 0 0.3 0.1 0.3 0.3 0 0 0.2 0 0.2 0.1 0.2 0.1 0.3 0.1 0.4q0 0.1 0 0.1c-0.3 0.1 0.2 0.2-0.1 0.3 0.2 0.1-0.3 0.3 0.1 0.4-0.2 0-0.1 0.3-0.3 0.3q0.1 0 0.1-0.1c-0.1 0-0.1 0-0.1 0q-0.1 0.1-0.2 0.2 0.1-0.1 0.1-0.1 0 0 0.1 0.1c0 0.1 0 0.2-0.1 0.3 0 0.1-0.1 0.1-0.2-0.1q0 0 0 0v0.3h0.1c0.1 0 0.2 0 0.2 0 0.1 0.1 0.2 0.2 0 0.4 0 0 0 0 0 0l0.1 0.1q-0.1 0-0.1 0c0 0-0.1-0.1-0.1 0q-0.1 0.1-0.1 0.2l0.1-0.2q0 0 0.1 0c-0.2 0.2-0.1 0.3-0.1 0.5h0.1q0 0.1 0 0.1 0.1 0.1 0.3 0.3 0 0.1 0 0.1c-0.1 0 0 0.3-0.2 0.2 0 0 0 0.1-0.1 0.1q0.1 0 0.1 0c0.1 0 0.1 0 0.1 0v0.5q0-0.1-0.1-0.1-0.1 0-0.1 0.1 0 0 0 0c0 0 0 0 0 0 0.1 0.1-0.1 0.1 0 0.3 0 0.1 0.2 0.2 0.3 0.1q0 0 0 0.1c0 0.1 0.1 0.2 0.1 0.3-0.1 0.1 0 0.2 0 0.3q-0.1 0-0.1 0.1l-0.1-0.1q0.1 0 0.1 0 0-0.1 0-0.1v-0.1q-0.1 0-0.1 0 0 0.1 0 0.1 0 0 0 0-0.1-0.1 0-0.1 0-0.1 0-0.1h-0.2v0.1c0 0.1 0 0.1 0 0.1-0.2 0-0.1 0-0.1-0.1q-0.1 0.1-0.1 0.2 0.1 0.3 0.1 0.6 0 0 0.1 0 0-0.1 0-0.1c0.1-0.2 0.2 0 0.3-0.1l-0.1 0.2-0.1-0.1q0 0 0 0 0 0.1 0.1 0.1 0 0 0.1 0 0.1 0 0.1 0 0 0 0 0l-0.3 0.6c0.4 0 0.1 0.2 0.1 0.3-0.1 0.2 0.1 0 0.1 0 0.1 0.2 0.1 0.4 0.2 0.6 0 0.1 0.1 0.3 0.1 0.5q0 0.1 0 0.1c0 0-0.1 0-0.1 0q0-0.1 0.1-0.1h-0.2q0.1 0.1 0.2 0.2c0 0.1 0 0.2-0.1 0.2 0 0.2 0.2 0.1 0.2 0.2q0 0 0 0.1-0.1 0-0.1 0 0-0.1-0.1-0.1c0 0 0 0 0 0q0 0.1 0.1 0.1 0.1 0 0.1 0.1c0 0 0 0.1 0 0.1 0 0.1 0-0.1-0.1 0 0 0 0 0 0 0 0 0.1 0 0.1 0 0.2 0 0 0 0.1-0.1 0.1q0 0.1-0.1 0.1 0 0 0.1 0l0.1 0.2-0.1-0.1q-0.1 0-0.1 0 0.1 0.1 0.1 0.2 0 0 0 0.1c0-0.2 0.4 0 0.2-0.2 0 0 0-0.1 0-0.1 0.1 0 0.1 0.1 0.1 0.1 0.1 0 0-0.4 0.2-0.2 0.1 0 0 0.1-0.1 0.2q0 0 0 0 0 0 0.1 0 0 0 0 0 0 0.1-0.1 0.1 0 0.1 0 0.1 0 0 0 0h0.1l0.1-0.1q0 0.1 0 0.2c0 0.1 0 0.3 0.2 0.2 0.1 0 0.1 0.1 0.1 0.2 0.1 0 0 0 0 0.1q0-0.1 0-0.1c-0.1-0.1-0.1-0.1-0.1-0.1-0.1 0.1-0.2-0.1-0.3 0.1 0 0.1 0 0.1 0.1 0q0 0 0 0c0.2-0.1 0.2 0.1 0.3 0.2 0.1 0 0.1 0.1 0.1-0.1q0.1 0.1 0.1 0.1c0 0 0 0.1 0 0.1q-0.1 0-0.1 0 0 0 0.1 0 0.2 0.1 0.1 0.3 0 0.1 0 0.1v-0.1q0 0 0 0-0.1 0-0.2 0 0 0 0 0.1 0.1 0 0.1-0.1l0.1 0.1c0 0 0 0.1 0 0.1-0.1 0-0.1-0.1-0.1 0h-0.1l0.1 0.2c0-0.1 0.1-0.2 0.1-0.2 0.1 0 0.3 0 0.4 0 0.1 0.1 0 0.1-0.1 0.2q0 0 0 0c0.2-0.1 0.2 0.2 0.4 0.1q0 0 0 0c-0.1 0.1 0.2 0.1 0.1 0.2q0 0 0.1 0.1 0.2 0.2 0.4 0.3c0.1 0 0.2 0.1 0.4 0.1 0.3 0.1 0.6 0.2 0.9 0.5 0.1 0.1 0.4-0.1 0.5 0 0.2 0 0.3-0.1 0.4 0.1 0.1 0.4 0.3 0 0.5 0 0.2 0.1 0.4 0 0.6 0.1 0.2 0 0.4 0.1 0.4 0.3q0.1 0 0.1 0 0 0 0-0.1v-0.1q0.1 0 0.2 0.1c0 0 0 0 0 0.1 0-0.1 0.1-0.1 0.1-0.2-0.1-0.2 0.2 0.1 0.1-0.1l0.6 0.1c0.1 0-0.1 0.1 0 0.1 0.3 0.1 0.5 0 0.7 0 0.1 0 0.2-0.1 0.3 0 0.2-0.1 0.1 0.2 0.2 0.1q0.1 0 0.1 0c0-0.1-0.2-0.1-0.1-0.1 0.2-0.1 0.5 0 0.7 0.1q0 0.1 0 0.1v-0.1l0.1-0.1q0 0.1 0 0.1c0 0.1 0 0.2 0.1 0.1 0.1 0 0.1-0.1 0.1-0.1 0.1 0 0.2 0 0.2 0l-0.1 0.2q0 0-0.1 0 0 0-0.1 0l0.5 0.1q0 0 0.1 0l-0.2-0.1c0 0.2-0.1 0-0.1 0 0-0.1 0.2-0.2 0.2-0.1 0 0.1 0.1 0.1 0.2 0.1 0.1 0.1 0-0.1 0.1-0.2 0.2-0.1 0.2 0.2 0.3 0.1 0 0 0 0.2 0.1 0.1 0-0.1 0 0 0.1-0.1 0.1-0.1 0.2-0.2 0.3 0 0.1 0.1 0.3-0.1 0.5-0.1 0.2 0 0.4-0.1 0.5 0.2q0 0 0.1 0c0-0.2 0.1-0.1 0.2 0 0.1 0 0.2-0.2 0.4-0.1q0.5 0 1-0.1c0.2 0 0.3 0.2 0.5 0 0 0 0 0.1 0 0.1q0.1 0 0.2 0 0.2 0 0.4 0.1c0.1 0 0-0.2 0.2-0.1 0.3 0 0.7 0 1 0l0.6-0.1h0.5c-0.1 0.1 0.1 0.1 0.1 0.1 0.1-0.2 0.4 0.2 0.6 0 0-0.1 0.1 0 0.2 0 0.1 0.1 0.2 0.1 0.3 0 0.3-0.1 0.7 0 1 0q0.2 0 0.5 0 0 0 0.1 0.1 0 0.1 0 0.1c0.1 0 0-0.1 0-0.2l0.2 0.1c0 0 0-0.1 0-0.1 0.2 0 0.3 0 0.4 0 0.2 0 0.4 0 0.6 0 0.3 0.1 0.7 0 1 0 0.2-0.1 0.4-0.2 0.6-0.1 0.2 0 0.2-0.2 0.4-0.2 0 0 0.2 0 0.2 0 0.1-0.1 0.2-0.1 0.3-0.1 0.2-0.1 0.2-0.4 0.5-0.5 0 0 0.1-0.1 0.1-0.2 0-0.1 0.1 0.1 0.1-0.1q0.2-0.4 0.6-0.6c0.1-0.1 0.1-0.2 0.1-0.3 0 0 0.1 0 0.1 0 0-0.1 0-0.3 0.1-0.4q0.1-0.4 0.3-0.7c0.2-0.4 0.4-0.8 0.4-1.3 0.2 0-0.1-0.2 0.1-0.2 0 0 0-0.1 0.1-0.1h-0.1q0 0 0 0-0.1 0-0.1 0l0.2-0.4q0 0 0 0l-0.1-0.5c0 0 0 0 0-0.1 0 0 0-0.1 0-0.1q0.1 0 0.1 0 0 0 0-0.1zm-28.3-6.7q0 0.1 0 0.2 0 0.1 0 0.1c0.1-0.1 0.2-0.2 0.3-0.2 0-0.3-0.3 0.1-0.3-0.1zm-0.6-2.8q0.1 0 0.1 0c-0.2 0.1-0.1 0.3-0.2 0.3l0.1 0.1c0.1-0.1 0.1-0.2 0.1-0.4q0 0 0 0 0 0-0.1 0zm-0.4-2q-0.1 0-0.2 0.1 0.1 0.1 0.2 0.2 0-0.1 0.1-0.2c0 0-0.1-0.1-0.1-0.1zm0.3-0.6c0.1 0 0.1 0.1 0.2 0.1 0.1-0.1-0.2-0.3 0-0.5v-0.1c-0.2 0.1 0 0.4-0.2 0.5zm-0.4 0c0-0.1 0.1-0.1 0.1-0.1q-0.1-0.1-0.1-0.1l-0.2 0.1 0.1 0.1q0-0.1 0-0.1c0.1-0.1 0 0.2 0.1 0.1zm0.1 0.3c0 0.1 0.1 0.1 0.1 0.2q0-0.3 0.1-0.5-0.1 0-0.1-0.1-0.1 0.2-0.1 0.4zm-0.6 1.2q0-0.1 0-0.2v0.1h-0.1q0 0 0-0.1 0 0 0.1-0.1c0.1-0.2 0.2-0.3 0.2-0.6 0-0.1 0-0.2-0.1-0.3q0 0.1 0 0.2 0 0 0.1 0.1c-0.1 0-0.1 0.2-0.1 0.1q-0.1 0.3-0.3 0.6c0 0.1 0.2 0.1 0 0.1q0.1 0.1 0.1 0.1c0 0 0.1 0 0.1 0zm-0.1 1.4v-0.3c0 0 0-0.1 0-0.1q-0.1 0-0.1 0.1-0.1 0-0.1 0.1 0 0 0 0c0.3-0.2 0.1 0.1 0.1 0.2zm0.7 0v0.1q0 0 0.1 0c0 0 0 0 0 0l0.1-0.1q0 0 0 0 0 0 0 0c0 0.3 0 0.4-0.2 0.2q0-0.1 0 0c0 0-0.1 0-0.1 0q0.1 0.1 0.2 0.2c0-0.1 0.2 0 0.2-0.2-0.1-0.1 0-0.2 0-0.3 0-0.1 0.1-0.2-0.1-0.2 0.2-0.2 0-0.5 0.1-0.8 0 0 0-0.1 0-0.2 0 0-0.1 0-0.1 0q-0.1 0-0.1 0.1 0-0.1 0-0.2 0-0.1 0.1-0.2-0.1 0-0.1 0 0 0.1-0.1 0.1 0 0.1 0 0.2 0 0 0 0c0 0 0-0.1 0-0.1-0.1 0.1 0-0.1-0.1 0q0-0.2-0.2-0.1 0 0 0 0.1v0.2q0-0.1 0-0.1-0.1-0.1-0.1-0.2c0 0 0 0.1 0 0.2q0 0.1 0 0.2c0.2 0.2 0.2-0.2 0.3-0.2-0.1 0.3 0.2 0.2 0.2 0.4 0.1 0.2 0 0.4 0 0.5q0 0.1 0 0.1 0 0-0.1 0 0-0.1 0-0.1c0.2-0.2-0.2-0.3-0.1-0.5q0 0 0 0 0 0.1 0 0.1c0 0.1 0 0.1-0.1 0.1 0-0.1-0.1-0.2-0.1 0 0 0-0.1 0-0.2 0q0 0-0.1 0c0 0 0 0.1 0.1 0.1q0.1 0 0.3-0.1c-0.1 0.1 0.2 0 0.1 0.2-0.1 0 0 0.2 0 0.3 0 0 0 0 0.1 0 0.1-0.1-0.1 0.2 0.1 0.2zm-0.5 0.5q0-0.1 0-0.2l0.1-0.2q-0.1 0-0.2 0.1c0 0 0-0.1-0.1-0.1l0.2 0.3q0 0 0 0.1zm0.1-0.4q0 0 0 0 0 0 0 0 0 0 0 0zm0.2 0c0 0-0.1 0.1-0.1-0.1 0 0-0.1 0-0.1 0 0 0 0.1 0.1 0 0.1 0.1 0 0.2 0.2 0.2 0zm-0.3 0.9v-0.1l-0.1-0.2c0.2 0 0-0.1 0-0.2 0 0.1-0.1 0.1-0.1 0.1-0.1 0-0.1 0.2-0.2 0.1q0 0 0-0.1 0 0-0.1 0.1 0 0 0 0c0.1 0.2 0.2 0 0.2 0.1q0.1 0 0.1 0.1c-0.1 0.1 0.1 0.3 0.1 0.3 0.2 0.1 0-0.2 0.1-0.2zm-0.1 0.6c0.1-0.1-0.3-0.1 0-0.2h-0.4c0.1 0 0.2 0.1 0.3 0.2 0 0 0.1 0 0.1 0zm0.3 0.9c0.1 0-0.1 0.1 0.1 0.1 0.1 0.1-0.3 0.3 0 0.3q0.1 0 0.2 0.1 0-0.2 0-0.3 0.1 0 0.1 0c0.1-0.1 0.2-0.1 0.2-0.1 0-0.2 0-0.3 0-0.4-0.1-0.1 0.1-0.3-0.1-0.5 0.2 0 0.1-0.2 0.1-0.3l0.1 0.1q0-0.1 0-0.2c0 0-0.1 0-0.1 0-0.2 0 0-0.2-0.1-0.2q0 0 0 0h0.1q0 0 0 0 0 0 0 0c0-0.2-0.2-0.4-0.1-0.6q0-0.1 0.1-0.1h-0.3c0.1 0-0.1 0.1 0 0.2q0 0 0 0 0.1 0 0.1 0v0.1h-0.1l-0.1-0.1v0.2q0 0 0.1 0 0 0 0.1 0v0.1c-0.2-0.1-0.2 0.1-0.3 0.1 0 0-0.1 0-0.1 0q0-0.1 0-0.1l-0.1 0.5c0 0 0 0 0 0 0.2-0.1 0.1 0.2 0.2 0.1q0.1 0 0.1 0 0 0 0 0.1v0.7c0-0.1-0.1-0.2-0.1 0 0 0.1 0 0.1-0.1 0.2zm-0.5 1.4q0.1 0 0.1 0c0.2-0.1 0-0.1 0-0.2 0.3-0.1-0.1-0.4 0.1-0.6q0 0 0 0 0-0.1 0-0.2c0 0 0 0 0 0 0.2 0 0.1-0.3 0.2-0.3q0 0 0 0 0-0.1 0-0.1c-0.1 0.2-0.1 0-0.2 0 0-0.1-0.1-0.2-0.1 0q0 0.1-0.1 0.2c0 0.1-0.1 0.2-0.1 0.2 0.1 0.2-0.1 0.2-0.1 0.2 0.3 0.2 0.3 0.4 0.3 0.6 0 0-0.1 0.1-0.1 0q0.1-0.1 0-0.2 0 0.1 0 0.2l0.1 0.2c0 0-0.1 0-0.1 0zm1 0.2c0-0.1 0-0.2 0-0.3 0-0.1-0.1 0-0.1 0.1 0 0-0.2-0.1-0.1 0 0 0.1 0.1 0 0.2 0.2zm0.1 1h-0.1c0-0.1 0.1-0.4-0.2-0.3 0 0 0.2-0.2 0-0.2-0.1 0-0.1 0.2-0.1 0.3h0.1q0 0 0 0.1c0 0 0 0.1 0 0.1q0.1 0 0.3 0zm-0.4-0.2zm-0.1-0.2c0 0 0-0.1 0-0.1 0.3 0 0.3-0.2 0.4-0.5q-0.1 0-0.1 0 0 0 0 0c-0.1 0.1-0.2 0.3-0.3 0.4-0.1 0.1-0.2 0.1-0.3 0.2 0 0-0.1-0.1-0.1-0.1 0-0.1 0.1-0.2 0-0.3q0 0.1 0 0.3 0 0.1 0 0.3c-0.1-0.1-0.1 0.2-0.3 0.1 0.1 0.1 0.2 0 0.2 0 0.1 0.1 0.1 0.1 0.1 0 0 0-0.1 0-0.1 0 0.1-0.1 0.2-0.1 0.1-0.2 0.1 0 0.4-0.2 0.4 0.1 0 0.1-0.1 0.2 0 0.2 0.1 0 0.1-0.1 0.1-0.2-0.2 0.1 0.1-0.3-0.1-0.2zm-0.1 0.9q0 0.2 0 0.4c0.1 0.3 0.2 0.5 0.1 0.7 0 0 0.1 0.1 0.1 0.2q0 0 0.1 0v-0.1c0-0.1 0-0.3 0-0.4 0-0.1 0.1-0.1 0.1-0.2 0 0 0 0 0 0-0.1-0.1-0.1-0.2-0.1-0.2q0-0.1 0-0.1 0 0 0.1 0.1 0 0 0 0 0 0 0 0 0-0.1-0.1-0.1 0-0.1-0.1-0.2c0 0 0.1-0.1 0.1-0.1q0 0 0.1 0 0 0 0 0.1c-0.1 0-0.2 0-0.1 0.1 0.1 0 0.2-0.1 0.3-0.1 0 0 0-0.1 0-0.1-0.2-0.2-0.4 0-0.6 0zm-0.7 1c0.1-0.1 0.3 0 0.3-0.2 0-0.1 0.2-0.2 0.2-0.3 0-0.2-0.1 0.1-0.2 0q0.1-0.1 0.1-0.2c0.1 0 0.1 0 0.1 0 0-0.2-0.2 0-0.2-0.2q0 0 0 0c-0.1 0.1-0.2 0.3 0 0.4-0.1 0.1-0.2 0.2-0.1 0.3 0 0 0 0.1 0 0.1-0.2 0-0.1-0.2-0.2-0.3 0 0 0-0.1 0-0.1q-0.1 0.1-0.1 0.2c0.1 0.1 0.1 0.3 0.1 0.3zm0.3 0.9q0-0.1 0.1-0.1 0 0 0-0.1c-0.1-0.1-0.1-0.3 0-0.4 0.1-0.2-0.1-0.2 0-0.3l-0.2-0.1v0.3c0.1 0.1 0 0.2-0.2 0.3 0 0 0-0.1 0-0.1q0 0.1 0 0.2c0 0 0.1-0.2 0.1 0 0 0.1 0.1 0.3 0.2 0.3zm0.8 1.3q0.1 0.1 0.1 0.1v-0.1l-0.1-0.3c0 0 0.1 0 0.1 0q0 0.1 0.1 0.2 0 0 0 0.1 0 0 0 0c0-0.1 0.1-0.1 0-0.1 0-0.2 0.1-0.3 0-0.5 0 0 0-0.1 0.1-0.2q0 0 0 0l0.1 0.1-0.1-0.1c0 0.1-0.1-0.2-0.1 0-0.2-0.2-0.2 0.2-0.2 0.1 0-0.2 0.1-0.3 0-0.3-0.1-0.1-0.2-0.2-0.2-0.3q0 0 0 0.1c-0.1 0.3 0 0.3 0 0.4 0.1 0.2 0.1 0.5 0 0.7 0 0.1 0.2 0 0.2 0.1zm0.1 0.3q0 0 0-0.1-0.1-0.1-0.1-0.2l-0.2 0.2zm1.2 0.4q0.1-0.1 0.2-0.2h-0.1q-0.1 0-0.1 0 0-0.1 0-0.1 0.1-0.1 0.1-0.2c0 0 0-0.1 0-0.1 0 0-0.1 0.1-0.1 0.1 0.1 0.1 0 0.2-0.1 0.2-0.1 0.1-0.1 0.1-0.1 0.2 0.1 0 0.2 0.1 0.2 0.1zm-1 0.7c0.1-0.2 0-0.2-0.1-0.3 0 0 0-0.1 0-0.1q0 0-0.1-0.1c-0.1 0.2 0 0.3 0.1 0.4q0 0 0.1 0.1zm0.6 1.8q0 0 0 0v0.2l0.1 0.1q0-0.3 0-0.5h-0.1-0.1v-0.1q0-0.1 0-0.2c0-0.1-0.1-0.1-0.1-0.1-0.3 0.2-0.1-0.1-0.1-0.1q0-0.1 0-0.2c0 0.1-0.1 0.1-0.1 0.2 0 0.1-0.1 0.3 0.1 0.4 0 0 0 0.2 0 0.2-0.3 0.2 0.1 0.3 0.1 0.4q0.1 0 0.1 0 0-0.1 0-0.1 0 0 0 0c-0.2 0-0.1-0.1-0.1-0.2q0 0 0 0c0.1 0 0-0.1 0-0.2q0 0 0-0.1l0.3 0.3q-0.1 0-0.1 0zm0.1 0.7l-0.1-0.1q0 0 0.1 0c0-0.1-0.2-0.3 0-0.1q0.1 0.1 0.2 0 0-0.1-0.1-0.2c-0.1 0-0.2 0-0.2 0q-0.2 0.2 0 0.3v0.1c0 0 0 0 0.1 0zm1.5 0.3c-0.1-0.2-0.2-0.2-0.2-0.3 0 0-0.1 0-0.1 0 0 0-0.1 0.1 0 0.1 0 0.1 0.1 0.1 0.3 0.2zm-0.6 1q-0.1-0.3-0.1-0.5h-0.3q0 0 0 0l0.2 0.3q0 0 0 0.1 0 0 0 0.1l-0.1-0.1-0.1 0.1q0.2 0 0.4 0zm0.5 0.5c0.1-0.3-0.3 0-0.3-0.2-0.1 0-0.2 0-0.3 0.1 0 0.1 0.2 0 0.2 0.1q0.1 0 0.2 0.1v-0.1c0.1 0 0.2 0.1 0.2 0zm0.6 0.3l-0.2-0.3q-0.1 0-0.2 0 0.1 0.2 0.3 0.4c0 0 0.1-0.1 0.1-0.1zm1.5 1q0-0.1 0-0.2c0-0.3-0.3-0.1-0.5-0.2q0.1 0.1 0.1 0.2c0 0-0.1-0.2-0.1 0 0 0 0.1 0 0.1 0h0.2c-0.1 0.1 0.2 0.1 0.1 0.2 0.1 0 0.1 0 0.1 0zm0.9-1c0 0 0 0.1 0 0.1 0.1 0 0.3 0 0.3 0 0-0.2-0.2-0.1-0.2-0.2-0.1 0-0.1 0.1-0.1 0.1zm-0.1 0.7c-0.2 0 0.1-0.1-0.1-0.1q-0.1 0-0.2 0.1-0.1 0.1-0.2 0.1 0.1 0.2 0.2 0.2c0.1 0.1 0.1 0 0.2 0q-0.1-0.1-0.1-0.1l-0.2-0.1 0.2-0.1q0.1 0 0.1 0c0 0.2 0.1 0.1 0.1 0.1 0.1-0.1 0-0.1 0-0.1zm0.6 0c-0.1-0.2-0.2 0.1-0.3 0-0.1 0-0.1 0.1-0.2 0.1 0.2 0.1 0.3 0.1 0.5-0.1q0 0 0 0zm0.7 1.1l-0.4-0.3c0.1 0.1 0 0.1 0 0.2 0 0.1 0.2-0.1 0.3 0.1zm0.4-0.1c0-0.1 0.1-0.1 0.1-0.2-0.1-0.2-0.4 0-0.5-0.1q0 0 0 0c-0.1-0.1-0.2 0-0.2 0-0.1 0.1-0.1 0.2 0 0.2 0.1 0 0.1 0 0.1-0.1 0 0 0.1 0 0.1-0.1 0.1 0.1 0.2 0.1 0.2 0.1-0.1 0.3 0.2 0.2 0.2 0.2q0 0 0 0zm1.7-0.3c-0.5 0-0.5-0.1-0.3-0.2 0 0-0.1-0.1-0.1-0.1-0.3 0 0 0.2-0.2 0.3 0.1 0.1 0.2 0.1 0.6 0zm0.4-0.9h0.4q-0.1-0.1-0.2-0.2c-0.1 0-0.2 0-0.2 0 0.1-0.1-0.1-0.1-0.2-0.2 0 0-0.1 0-0.1 0-0.2 0.2 0.1 0.2 0.2 0.3 0 0.1 0.1 0.1 0.1 0.1zm0.3 0.9c-0.1 0-0.2-0.2-0.4 0h-0.1q0.2 0.1 0.5 0.2c0 0 0-0.2 0-0.2zm0.2-1q0.1 0 0.2-0.1-0.2 0-0.3-0.1c-0.1 0.1 0.2 0 0 0.2q0.1 0 0.1 0zm0.3 1.6q0 0 0 0l-0.4-0.2c0 0 0 0.1 0 0.1 0 0.3 0.3-0.1 0.4 0.1zm0 0.2c0-0.1-0.1-0.1-0.1-0.1 0 0-0.1 0-0.1 0q0.1 0.1 0.2 0.3 0-0.1 0-0.2zm0.5-2c-0.2 0-0.1 0.1-0.1 0.2-0.1 0.1 0 0.2 0.1 0.2v-0.1q0-0.1 0 0c0.1-0.1-0.1-0.2 0-0.3zm2.6 0.2c0-0.1-0.1-0.1-0.2-0.1-0.1 0.1-0.2 0.2-0.2 0.2 0 0.1 0.1 0 0.1 0 0.1 0 0.2 0 0.1 0.1 0.1 0.2 0.1 0 0.2-0.1 0 0 0-0.1 0-0.1zm1 0.7c0 0-0.1 0-0.1 0q-0.1 0-0.2 0.1 0 0 0 0.1 0.2-0.1 0.3-0.2zm0.2 0.5q-0.1-0.1-0.3-0.2c0 0-0.1 0.1-0.1 0.1q0.1 0.1 0.3 0.2c0 0 0.1-0.1 0.1-0.1zm1.8 0.2c-0.2-0.1 0.1-0.2 0-0.2-0.3 0-0.1 0.2-0.1 0.3q0 0 0 0.1c0.1-0.1 0.2-0.1 0.2-0.2 0 0-0.1 0-0.1 0zm0.3-0.3q0 0-0.1 0-0.2 0-0.4 0 0 0 0 0 0 0 0 0 0 0.1 0 0.1 0.2 0 0.4-0.1 0 0 0.1 0zm0.3-0.8q-0.1 0-0.3-0.1 0 0.1-0.1 0.1l0.3 0.2c-0.1-0.1-0.1-0.2 0.1-0.2zm0.6 0.1q-0.1 0-0.1 0v0.2c0.1 0 0.2 0.1 0.2 0 0-0.1-0.1-0.1-0.1-0.2zm0.8 0.4l-0.2 0.3c0 0 0.1 0 0.1 0q0.2-0.1 0.3-0.2c0 0-0.1-0.1-0.2-0.1zm2.5 0.1c-0.1 0-0.1-0.1-0.2-0.1q-0.1 0-0.2 0.1c0.1 0.1 0.2 0.1 0.3 0.1q0-0.1 0.1-0.1zm0-0.1c0 0.2 0.2 0.1 0.4 0.2q0-0.1 0.1-0.1l-0.4-0.2c0 0-0.1 0-0.1 0.1zm0 0.5q0.1 0.1 0.2 0.2c0.1-0.1 0.1-0.2 0.1-0.2q-0.1-0.1-0.2-0.1c0 0-0.1 0.1-0.1 0.1zm0.6 0.4q-0.2-0.1-0.5-0.2 0 0.1 0 0.2h0.5q0 0 0 0zm2.1-0.7c-0.1-0.1-0.1-0.1-0.2-0.2-0.1 0-0.1 0.1-0.2 0.1 0.1 0.1 0.1 0.3 0.3 0.2zm1.2 0.3c0-0.1 0 0-0.2-0.1q0.1 0.2 0.1 0.2 0 0-0.1 0.1h0.2c0 0 0.1-0.1 0-0.2zm4.6-5q-0.1 0.1-0.2 0.3 0 0 0.1 0.1 0.1-0.1 0.2-0.2c0 0-0.1-0.1-0.1-0.2z"/><path class="a" d="m26.5 31.3h0.1q0-0.1-0.1 0z"/><path class="a" d="m17.4 31.5z"/><path class="a" d="m17.4 31.5z"/><path class="a" d="m3.4 12.9v0.1-0.1z"/><path class="a" d="m2.8 27c0 0 0 0 0 0.1v-0.1z"/><path class="a" d="m1.2 18.2z"/><path class="a" d="m17.7 30.6q0 0 0 0.1v-0.1z"/><path class="a" d="m1.6 13.7z"/><path class="a" d="m8.5 30.6z"/><path class="a" d="m2.4 14.1q0-0.1-0.1-0.1 0 0 0 0.1z"/><path class="a" d="m1.4 12.1z"/><path class="a" d="m1 24.1z"/><path class="a" d="m0.9 22.7q-0.1-0.1-0.1-0.1v-0.1q0.1 0 0.1 0.1 0 0 0 0 0.1 0 0.1-0.1-0.1 0-0.1 0 0-0.1 0-0.2 0-0.1 0-0.1 0 0 0 0c-0.1 0-0.1 0-0.1 0 0.1 0.3-0.1 0.3-0.2 0.4-0.1 0.1 0.1 0.3 0 0.4h0.1l0.2 0.1z"/><path class="a" d="m1.4 10.4q0.1-0.1 0.1-0.1c0.1-0.1-0.1-0.3 0.1-0.4q0.1 0 0.1 0h-0.2q-0.1 0.2-0.1 0.3c0 0.1 0 0.1 0 0.2z"/><path class="a" d="m0.8 23.3q0 0 0 0 0 0 0-0.1 0 0 0 0c0.1 0.1 0.2 0.2 0 0-0.1-0.2 0.2 0 0.1-0.1l-0.2-0.1c-0.2 0.2 0.1 0.4 0.1 0.6h0.1c-0.1-0.1 0.1-0.3-0.1-0.3z"/><path class="a" d="m3.2 12.3c0 0.2 0 0.3 0 0.5 0.1-0.2 0.2-0.4 0.3-0.6 0 0-0.1-0.1-0.1-0.1-0.1 0.1-0.2 0.2-0.2 0.2z"/><path class="a" d="m1 24.1z"/><path class="a" d="m1.1 24c-0.1-0.1 0-0.3-0.2-0.3-0.1 0 0.2-0.2 0-0.1-0.2 0.2-0.1 0.3 0.1 0.5 0-0.1 0.1-0.1 0.1-0.1z"/><path class="a" d="m3.3 18.9c0.2-0.1-0.1-0.2 0-0.4q0 0-0.1-0.1c0 0.1-0.1 0.2-0.1 0.3 0 0.1 0.1 0.3 0.2 0.2z"/><path class="a" d="m1.3 26c0.1 0.1 0.1 0.1 0.2 0.2v-0.3l0.1-0.1-0.2-0.1c0 0.1-0.1 0.2-0.1 0.3z"/><path class="a" d="m6.4 31q-0.1 0-0.1-0.1c-0.1 0-0.2 0-0.2 0.1-0.1 0.2 0.3 0 0.3 0.1 0 0 0.2 0 0-0.1z"/><path class="a" d="m3.2 19.4q0 0 0 0 0-0.1 0-0.1 0-0.1-0.1-0.1 0 0.1 0 0.1 0 0 0 0-0.1 0-0.1 0c0-0.1-0.1 0-0.1 0h0.1v0.1c0 0 0.2-0.2 0.2 0z"/><path class="a" d="m3 19.4v-0.1q0 0.1 0 0.1z"/><path class="a" d="m2.2 27.5h-0.1c0 0.1-0.1 0.2 0 0.2 0.1 0.1 0.2 0 0.3 0-0.1-0.1-0.3-0.1-0.2-0.2z"/><path class="a" d="m31.1 26.1q0 0 0 0 0.2-0.1 0.3-0.3c0 0 0-0.1 0-0.1-0.2 0.1-0.1 0.4-0.3 0.4z"/><path class="a" d="m16.4 31.7q-0.1 0.1-0.2 0.2 0 0 0.1 0 0.1 0 0.2-0.1c0 0-0.1-0.1-0.1-0.1z"/><path class="a" d="m11 31.6v0.2q0.1 0 0.2-0.1 0 0 0.1 0.1c0-0.1 0-0.1-0.1-0.2 0 0-0.1 0-0.2 0z"/><path class="a" d="m19.8 31.7q0 0-0.1 0.1 0.1 0 0.2 0c0.1 0 0.1 0 0.1-0.1q-0.1 0-0.2 0z"/><path class="a" d="m25.9 31.3c-0.1 0-0.2 0.1-0.2 0.1 0.1 0.2 0.2-0.1 0.3 0q0 0 0-0.1c0 0 0 0-0.1 0z"/><path class="a" d="m5 30.4c-0.1 0.1-0.2 0.2-0.4 0.2q0.2 0.1 0.3 0c0.1-0.1 0.1 0 0.1 0 0.2 0-0.1-0.1 0-0.2z"/><path class="a" d="m3.3 12.6l0.1 0.3c0 0 0.1 0 0.1 0-0.1-0.1 0-0.3-0.2-0.3z"/><path class="a" d="m3.4 12.9z"/><path class="a" d="m3.4 12.9z"/><path class="a" d="m2.1 27.5z"/><path class="a" d="m2.2 27.4q0-0.1 0-0.1c0 0-0.1-0.1-0.1 0q-0.1 0.1-0.1 0.2h0.1c0-0.1 0-0.2 0.1-0.1z"/><path class="a" d="m2.1 27.5z"/><path class="a" d="m2.1 27.5z"/><path class="a" d="m17.4 31.5z"/><path class="a" d="m17.4 31.4c0 0-0.1 0-0.1 0q0 0.1 0.1 0.2c0 0 0 0 0.1 0l-0.1-0.1z"/><path class="a" d="m17.4 31.5z"/><path class="a" d="m15 31.9q0.2 0 0.4 0 0 0 0.1 0l-0.4-0.1q0 0.1-0.1 0.1z"/><path class="a" d="m1.6 17.2c0.1 0.1 0.1-0.1 0.2-0.1 0.1 0 0.2-0.1 0-0.3l-0.1 0.2c-0.1 0.1-0.1 0.2-0.1 0.2z"/><path class="a" d="m2 16.1c-0.1 0-0.1 0.1-0.1 0.1q0 0.1 0 0.2 0.1-0.1 0.1-0.2c0 0 0-0.1 0-0.1z"/><path class="a" d="m29.8 23.4q0 0 0 0z"/><path fill-rule="evenodd" class="b" d="m31.3 16.5c-0.1 0-0.1 0.1-0.1 0.2 0 0.1-0.1 0-0.1 0v0.7q0 0 0 0.1 0.1-0.1 0.1-0.1c0.1-0.1 0 0.2 0.2 0.1 0 0 0 0.1 0 0.1l-0.1 0.5q0-0.1 0-0.2c0 0 0 0-0.1 0 0 0.1-0.1 0.2-0.2 0.2v0.1q0 0 0.1 0 0 0 0 0l0.1 0.2-0.1-0.1-0.2-0.1 0.1 0.2q0-0.1 0-0.1 0.1 0 0.1 0.1c0 0-0.2 0.1 0 0.2h-0.3q0 0 0-0.1c0.2-0.3-0.1-0.4-0.1-0.6q0 0 0-0.1 0 0 0.1 0l0.1 0.1q0-0.1 0-0.1c-0.1 0 0-0.2-0.1-0.1-0.1 0-0.2 0-0.2 0q0-0.1 0-0.2l0.1 0.1c0-0.2-0.1-0.3 0.1-0.4-0.2-0.1 0-0.3-0.1-0.5 0 0 0-0.2 0-0.3 0 0 0.1-0.1 0.2-0.1q0 0 0.1-0.1 0-0.1 0-0.2 0.1 0.1 0.2 0.1c0.3 0-0.1 0.2 0 0.2 0.2 0 0 0.2 0.1 0.2zm-0.4 0.5q0 0.1-0.1 0.2c0 0 0.1 0.1 0.1 0.1 0.1 0 0.1-0.1 0.1-0.1q0-0.1-0.1-0.2zm0.1-0.4l0.2-0.2c0-0.1 0-0.2 0-0.2-0.1-0.1 0 0.1-0.2 0.1-0.1 0-0.2 0.1 0 0.3z"/><path class="a" d="m22.6 1.2z"/><path class="a" d="m31 14z"/><path class="a" d="m13.5 1.5z"/><path fill-rule="evenodd" class="a" d="m1.8 10h-0.3l0.1-0.1v-0.1l0.1-0.1q0 0 0-0.1-0.1 0-0.1 0-0.2 0.1-0.3 0.1c0 0-0.1 0-0.1-0.1 0.4-0.2-0.1 0 0-0.2 0.1-0.1-0.1-0.4 0.2-0.5 0-0.1 0.2-0.1 0.1-0.4q0.1 0.1 0.1 0.1c0.2 0 0-0.1 0.1-0.1 0.1-0.2 0-0.3 0-0.4q0-0.1 0-0.1c0 0 0.1 0 0.1 0-0.2-0.1-0.1-0.4 0-0.5 0-0.2 0.2-0.3 0.3-0.4q0 0 0 0c0 0 0-0.2 0-0.2-0.2 0-0.1-0.1-0.2-0.2 0.1-0.1 0.1-0.3 0.3-0.4 0.2-0.1 0.3-0.4 0.3-0.6 0.1 0 0.1 0 0.2 0 0.1-0.1 0.3-0.2 0.3 0 0.1 0 0.1 0 0.1 0v-0.1c0.2-0.1 0-0.2-0.1-0.2-0.3-0.1 0.3-0.3 0.1-0.4q0-0.1 0-0.1 0.2 0 0.1-0.1c0 0 0.1-0.1 0.1-0.1q0 0 0-0.1v0.1 0.1q0 0 0.1-0.1l0.1-0.1c0.1-0.2-0.3-0.1 0-0.3l0.3-0.2c0 0-0.1 0 0 0.1 0.1 0.1 0.3-0.2 0.5-0.1q0 0 0.1 0l-0.1-0.2c-0.1 0.1-0.1 0-0.1-0.1 0 0 0.3-0.3 0.4-0.3 0.1 0 0-0.1 0.1-0.1q0.1-0.1 0.3-0.1c0.1-0.1 0.2-0.1 0.2-0.1-0.2-0.5 0.2-0.3 0.4-0.4 0.1 0 0.3-0.1 0.4-0.2 0.1-0.1 0.2 0.1 0.3 0l0.1-0.1c0 0 0.1 0 0 0-0.1-0.1 0.2-0.2 0.1-0.2 0 0 0.1-0.2 0.1 0 0.2 0 0.4 0 0.5-0.1 0.2-0.1 0.4-0.2 0.6-0.3q0 0 0.1 0-0.1 0.1-0.1 0.1 0 0.1 0 0.2 0.1-0.1 0.1-0.1c0-0.2 0.2 0.1 0.2-0.1q0.1 0 0.1-0.1-0.1 0-0.1 0c-0.1 0-0.1 0.1-0.1 0-0.1 0 0-0.1 0.1-0.1 0.1 0 0.3-0.1 0.4 0 0.2 0.1 0.5-0.1 0.7 0q0 0 0 0 0-0.1-0.1-0.1c0 0-0.2 0-0.1-0.1q0-0.1 0 0 0.1 0 0.1 0c0.1 0 0.2 0.1 0.3 0 0.2-0.2 0.4 0.2 0.6 0q0.2-0.1 0.4 0.1c0 0 0.2-0.1 0.3-0.1q0.1-0.1 0.3-0.2c0 0 0 0.1 0.1 0.1 0-0.1 0.1 0 0.1 0 0.2-0.1 0.5-0.1 0.7-0.2 0.2-0.1 0.5-0.1 0.8-0.1 0.2 0-0.1 0.1 0 0.1q0.3 0 0.7-0.2 0 0 0 0 0 0 0 0 0 0.1 0 0.1-0.1 0-0.1 0.1c0 0 0.1 0.1 0.2 0.1 0.1 0 0.1 0 0.1 0.1-0.1 0-0.3 0-0.3 0-0.1 0.2-0.3 0-0.5 0.1q0 0 0 0 0 0 0 0 0.1 0 0.1 0 0-0.1 0.1-0.1h-0.3q0 0 0 0.1l-0.1-0.1c-0.1 0.1 0.1 0.3-0.1 0.3 0.2 0 0.4 0.1 0.6 0 0.2 0 0.5 0 0.5-0.3 0.2 0 0-0.2 0.1-0.2 0.2-0.1 0.2 0 0.3 0 0 0.1 0.1 0 0.1 0 0-0.2 0.4 0 0.5-0.2 0 0 0.1-0.1 0.1 0 0 0.2 0.2 0.1 0.3 0.1 0.2 0 0.3-0.2 0.3-0.3 0 0 0.1 0 0.1 0q0.1 0.1 0.2 0.2-0.1 0 0 0.1c0 0 0 0 0.1-0.1q0 0.2 0 0.3 0.1 0.1 0.1 0.1c0 0 0 0 0-0.1-0.1-0.1 0.2-0.1 0.1-0.2 0-0.2 0.2-0.1 0.2-0.1 0.1 0 0.3 0 0.3 0.1 0 0 0-0.1 0-0.1 0 0 0.1 0 0.2-0.1h-0.2q0 0 0 0c0.1 0 0-0.2 0.2-0.2q0 0.1 0.1 0.1h-0.1-0.1q0.2 0.1 0.3 0.2c0 0 0.1 0 0.1 0v-0.1q0 0 0.1 0c0-0.1 0-0.2 0.1-0.2 0 0 0 0.1 0.1 0.1 0 0.3 0.2-0.1 0.3 0q0 0 0.1 0 0 0 0 0.1c0 0 0 0 0 0q-0.1 0-0.2 0c0 0.1 0.1 0.1 0.2 0.1 0.2-0.1 0.3 0.1 0.5 0.1q0 0 0.1 0l-0.1-0.1q0 0 0 0l0.2-0.1q0.1 0 0.1 0c0 0 0 0 0 0q0-0.1-0.1-0.1 0.1 0 0.2 0c0.1 0 0.2 0.1 0.1 0.2q0.1 0 0.2 0 0 0 0 0.1c0-0.1 0.1-0.2-0.1-0.2 0 0 0-0.1 0.1-0.1h0.1q0 0.1 0 0.1-0.1 0-0.1 0l0.1 0.2c0-0.1 0.1-0.1 0.1-0.1 0.1 0 0.3-0.2 0.4-0.1 0.1 0.1 0.1-0.1 0.2 0 0-0.1-0.1-0.1-0.1-0.1-0.1-0.1 0-0.1 0-0.2 0 0 0.1 0 0.1 0q0.1 0 0.1 0.1 0 0.1 0 0.3c0-0.1 0-0.2 0.1-0.2 0-0.1 0.1-0.1 0.1 0 0 0 0.1 0 0.1 0.1q-0.1 0-0.1 0c-0.1 0-0.1 0-0.1 0q0 0.1 0.1 0.2 0 0 0-0.1 0.1 0 0.2-0.1c0 0.1 0.2 0 0.2 0.2 0 0 0 0 0 0q0.1 0 0.1 0 0 0-0.1-0.1c0 0 0-0.1 0.1-0.1 0.1 0 0.2 0.1 0.3 0.1 0.1 0 0.1 0.1 0.2 0 0 0 0.1-0.1 0-0.1q0 0 0 0c0 0 0.1 0 0.2 0 0 0.1 0.1 0 0.1 0 0-0.5 0.5 0 0.6-0.2q0 0 0 0 0 0 0 0.1 0 0.1-0.1 0.2 0 0 0 0c0.1-0.2 0.5 0.1 0.5-0.2 0-0.1 0-0.1 0-0.1q0.2 0 0.3 0c0 0 0 0.1-0.1 0.1-0.1 0-0.1 0.1-0.1 0.2q0 0 0 0.1l0.1-0.2q0 0 0 0 0 0 0 0c0 0.1 0.1 0.2 0.2 0.1 0.2-0.1 0.2 0 0.1 0.1v0.2l-0.3-0.1q0 0 0-0.1 0 0.1 0 0.1 0 0.1 0 0.3-0.1 0-0.1-0.1 0 0-0.1 0 0.1 0 0.1 0.1c0 0 0.1 0 0.2 0 0 0 0-0.2 0.1-0.2 0.1 0.1-0.1 0.2 0 0.3 0.1 0 0-0.2 0.1-0.1 0 0.1 0 0.2 0.1 0.2 0.3 0 0.3 0 0.3-0.2q-0.1-0.1-0.1-0.2-0.1 0-0.1 0.1 0 0 0 0l0.1 0.2c0 0-0.1 0-0.1 0 0-0.1-0.1-0.1-0.1-0.2 0-0.1 0.2-0.2-0.1-0.3 0.1-0.1 0.2 0 0.2 0 0.3 0.2 0.2-0.1 0.3-0.2 0.1 0.1 0.3 0.1 0.3 0.1 0.2 0.1 0.6 0 0.5 0.4 0.2-0.3 0.1 0.1 0.2 0 0 0 0 0.1 0 0.1 0-0.1 0-0.1 0-0.1-0.2-0.2 0.2-0.1 0.1-0.2 0.1 0 0.2 0.1 0.2 0.1 0.2 0.1 0.4 0.2 0.5 0.2 0.2 0-0.1-0.1 0.1-0.2 0.4-0.1 0.2 0.3 0.4 0.3-0.1 0.1 0.1 0 0.1 0.1q0 0 0.1 0c0.1 0 0 0.1 0.2 0.1 0.1 0.1 0.3 0.2 0.5 0.2 0.1 0.1-0.1-0.1 0-0.1q0 0 0.1 0c0 0.1 0.2 0.1 0.3 0.2q0.1 0.3 0.3 0.1 0 0 0.1 0 0 0.1 0 0.1 0 0 0 0-0.1 0-0.1 0c0.1 0.2 0.1 0.4 0.1 0.4 0.2 0 0 0.2 0.1 0.1 0.1 0 0.1-0.2 0.2-0.3 0.1 0.1 0.1 0.2 0.3 0.1-0.1 0-0.1 0.1-0.1 0.1q0.1 0 0.1 0.1c0.2 0 0.3 0.2 0.4 0.4 0.2-0.1 0.2 0.2 0.4 0.2q0 0 0 0c0.2 0.4 0.6 0.5 0.8 0.8q0.2 0.2 0.4 0.4c0.1 0.1 0.2 0.1 0.3 0.2 0.1 0 0.1-0.1 0.1-0.1 0 0.1 0.2 0.2 0 0.3 0 0 0 0 0 0.1q0 0 0.1 0l0.1-0.1c0 0.1 0 0.1-0.1 0.2 0 0 0 0-0.1-0.1-0.1-0.1-0.2 0-0.1 0.1 0.1 0 0 0.1 0.1 0.1q0.2 0.4 0.4 0.7 0.1 0.3 0.2 0.6c0.3-0.1 0.1 0.2 0.3 0.3-0.3 0.1-0.1 0.3-0.1 0.5 0 0 0.1 0 0.1 0 0 0 0 0 0 0q0-0.1 0-0.2l0.2 0.3h-0.1l-0.2 0.2 0.2-0.1q0 0.1 0 0.1c-0.1 0.1-0.1 0.1 0 0.3 0.1 0 0 0.1 0.1 0.2l0.2 0.7q0 0.1 0.1 0.1v-0.1q0.1 0 0.1 0c0.1 0.1 0.1 0.2 0 0.4 0-0.1 0-0.1-0.1-0.2 0 0-0.1-0.1-0.1-0.2q-0.1 0-0.1-0.1 0 0 0 0.1c-0.2 0 0 0.1 0 0.2 0 0-0.1 0.2 0.1 0.1 0 0.1 0 0.1 0 0.2-0.3 0.3 0 0.7-0.1 1.1 0 0.1 0.1 0.3 0.2 0.5 0.1-0.1 0.1 0 0.1 0.1 0 0.1-0.2-0.2-0.1 0 0 0.2 0.2 0.2 0.4 0q0 0 0 0 0 0 0.1 0l-0.1 0.1q0 0 0 0 0 0 0 0h0.2l-0.2 0.2c-0.1 0.1 0.1 0 0.1 0.1q0 0 0 0c0.1-0.1 0 0.2 0.1 0.1q0 0 0-0.1v0.1c-0.2 0 0.1 0.2 0 0.3-0.1 0.1 0.1 0.4 0 0.6-0.1 0.2 0.1 0.4 0.1 0.6q-0.1 0.1-0.2 0.2c-0.1 0.2 0.2 0.1 0.2 0.3 0 0.2-0.2 0-0.1 0.1 0.1 0.3-0.1-0.1-0.1 0q0 0.1 0 0.1 0 0.1-0.1 0.2c0.1 0 0.1 0 0.1 0q0.1 0 0.2-0.1c0 0.2 0 0.5-0.1 0.6-0.1 0.2-0.1 0.3 0.1 0.4-0.2 0.1 0.1 0.3 0 0.5-0.1 0 0 0.4 0 0.6q0 0 0 0c0-0.1-0.2 0.2-0.1 0q0-0.1-0.1-0.1 0 0 0 0.1 0.1 0.1 0.1 0.2c0 0 0.1 0 0.1-0.1v0.4q-0.1 0.1-0.1 0.2 0.1 0.4 0.1 0.8 0 0.4-0.1 0.8v0.5c0 0.1-0.1 0.3 0 0.4 0 0.4 0 0.8-0.1 1.1 0 0.2 0 0.4-0.1 0.6-0.1 0.1 0.1 0.2 0 0.3-0.2 0.2 0.1 0.4-0.1 0.7 0 0-0.2 0.1-0.2 0.2 0.1 0.1 0 0.2-0.1 0.3 0 0.1 0 0.2 0 0.3-0.1 0.2-0.2 0.3-0.3 0.4q0 0 0 0c0.3 0.1 0.1 0.2 0 0.3h-0.4q0.1-0.1 0-0.2c-0.1-0.3 0.2-0.5 0.1-0.7 0 0 0.1-0.1 0.1-0.1-0.1-0.1-0.1-0.2-0.1-0.2-0.1 0-0.1 0.1-0.1 0.2 0 0.1 0 0.1-0.1 0.1q0-0.1-0.1-0.1c0 0.2-0.1 0.4 0 0.6q0 0 0.1 0.1-0.1 0-0.1 0-0.1 0-0.1 0.1c0 0 0 0 0 0 0.2 0.1 0.1 0.1 0.1 0.2l-0.6-0.1c0 0-0.1 0-0.1 0q0 0-0.1 0-0.1 0-0.1-0.1c0 0 0-0.2-0.2-0.2q0 0 0 0 0 0 0 0 0 0 0 0c0.2 0 0-0.2 0.1-0.2 0 0 0.1 0 0.1 0 0.1-0.1 0-0.1-0.1-0.1-0.1 0-0.1-0.1 0-0.3 0 0-0.1-0.1-0.1-0.1 0-0.1-0.1-0.3 0.1-0.3 0 0 0-0.1 0-0.1 0.1 0-0.3 0 0-0.1 0 0-0.1-0.1-0.1-0.2-0.2-0.2 0.2 0 0.1-0.1 0.1 0 0.2 0 0.1-0.1-0.1 0 0-0.1 0-0.1q0 0 0.1 0 0 0-0.1 0 0 0.1 0 0.1c0.1-0.1 0.2-0.1 0.2-0.1q0.1-0.4 0.1-0.7c0.1-0.1 0-0.1 0 0q0 0 0 0c0 0.1 0 0.3-0.1 0.2-0.1 0-0.1-0.2-0.1-0.2-0.3-0.2 0.2-0.4-0.1-0.5q0 0-0.1-0.1 0 0.1 0 0.1c0.1 0.2 0.1 0.2-0.1 0.3 0-0.2 0.1-0.3 0.1-0.4-0.1-0.2 0.1 0 0.1-0.1 0-0.1-0.1-0.1-0.1-0.2-0.1-0.1 0-0.1 0-0.2q0 0 0.1 0.1 0 0 0 0c0-0.1 0-0.1 0-0.2 0.1-0.2-0.1-0.3-0.2-0.5-0.1-0.2 0.1-1.1 0.3-1.2 0.2-0.1-0.1 0 0-0.1 0.1-0.1-0.1-0.2-0.1-0.2-0.3-0.1 0-0.2-0.1-0.3-0.1-0.1 0-0.3 0-0.4q0 0 0 0c0.3-0.1-0.2-0.3 0-0.4-0.2-0.1 0.3-0.3-0.1-0.3 0.3 0 0.1-0.3 0.3-0.4q0 0.1 0 0.1 0 0 0.1 0 0 0 0.1-0.1-0.1 0-0.1 0 0 0 0 0c0-0.1-0.1-0.2 0-0.3 0.1-0.2 0.1-0.1 0.2 0q0 0 0 0v-0.3h-0.1c-0.1 0-0.2 0.1-0.2 0-0.1-0.1-0.2-0.2 0-0.3 0 0 0 0 0-0.1l-0.1-0.1q0 0 0.1 0.1c0 0 0.1 0 0.1 0q0.1-0.1 0.1-0.2l-0.1 0.1v0.1q-0.1-0.1-0.1-0.1c0.2-0.1 0.1-0.3 0.1-0.5h-0.1q0 0 0 0-0.2-0.2-0.3-0.3 0-0.1 0-0.2c0.1 0.1-0.1-0.2 0.1-0.1 0 0 0.1-0.1 0.1-0.1q0 0-0.1 0c0 0-0.1 0-0.1-0.1v-0.4q0 0 0.1 0 0.1 0 0.1 0 0 0 0.1 0c-0.1 0-0.1 0-0.1 0 0-0.1 0.1-0.2 0-0.3 0-0.1-0.2-0.2-0.3-0.1q0 0 0-0.1c-0.1-0.1-0.1-0.2-0.1-0.3 0.1-0.1-0.1-0.2 0-0.3q0 0 0-0.1l0.1 0.1q0 0 0 0c-0.1 0-0.1 0.1-0.1 0.1l0.1 0.1q0 0 0-0.1 0 0 0 0 0.1 0 0.1 0 0 0 0 0.1 0 0 0 0.1h0.2v-0.1c0-0.1 0-0.2 0-0.2 0.1 0 0 0.1 0 0.1l0.1 0.1q0-0.1 0-0.2 0-0.3-0.1-0.6 0 0 0 0-0.1 0-0.1 0.1c-0.1 0.1-0.2 0-0.3 0.1l0.1-0.2 0.1 0.1q0 0 0-0.1 0 0-0.1 0 0 0-0.1 0 0 0-0.1 0 0 0 0.1-0.1l0.2-0.5c-0.4-0.1-0.1-0.2-0.1-0.3 0.1-0.2-0.1-0.1-0.1-0.1-0.2-0.2-0.1-0.4-0.2-0.6 0-0.1-0.1-0.3-0.1-0.5q0-0.1 0-0.2c0 0 0.1 0.1 0.1 0.1q0 0-0.1 0.1h0.2q-0.1-0.1-0.2-0.3c0 0 0.1-0.1 0.1-0.1 0-0.2-0.2-0.1-0.1-0.3q0 0-0.1 0 0.1 0 0.1 0 0 0 0.1 0.1c0 0 0-0.1 0.1-0.1q-0.1 0-0.2-0.1 0 0-0.1 0c0 0 0-0.1 0-0.1 0.1-0.2 0.1 0 0.1 0 0 0 0.1 0 0.1-0.1 0 0-0.1-0.1-0.1-0.1 0-0.1 0.1-0.1 0.1-0.2q0.1 0 0.1 0 0 0 0-0.1l-0.1-0.1h0.1q0 0 0 0 0-0.1 0-0.2 0 0-0.1 0c0.1 0.1-0.3-0.1-0.1 0.2 0 0 0 0.1-0.1 0 0 0 0 0 0 0-0.2 0-0.1 0.3-0.3 0.2-0.1-0.1 0.1-0.2 0.2-0.2q0 0 0-0.1 0 0-0.1 0 0 0-0.1 0 0.1 0 0.1-0.1 0.1 0 0.1 0 0 0 0 0h-0.1-0.1q0-0.1 0-0.1c0-0.2 0-0.3-0.2-0.3-0.1 0-0.1-0.1-0.1-0.1-0.1-0.1 0-0.1 0-0.1q0 0 0 0.1c0.1 0 0.1 0 0.1 0 0.1 0 0.2 0.1 0.3-0.1 0 0 0 0-0.1 0q0 0 0 0c-0.2 0.1-0.2-0.1-0.2-0.1-0.2-0.1-0.2-0.2-0.2 0l-0.1-0.1c0 0 0 0 0.1-0.1q0 0 0 0 0 0 0 0c-0.2 0-0.2-0.1-0.2-0.3q0 0 0.1 0 0 0.1 0 0.1 0 0 0.1 0 0-0.1 0-0.1 0 0 0 0l-0.2-0.1c0 0 0 0 0.1 0 0 0 0.1 0 0.1-0.1h0.1l-0.1-0.1c-0.1 0-0.1 0.1-0.2 0.1-0.1 0-0.3 0-0.4 0-0.1 0 0.1-0.1 0.1-0.1q0 0 0-0.1c-0.2 0.2-0.2-0.2-0.4-0.1q0 0 0 0c0.1-0.1-0.2-0.1 0-0.2q-0.1-0.1-0.1-0.1-0.3-0.2-0.5-0.3c-0.1-0.1-0.2-0.2-0.4-0.3-0.3-0.1-0.6-0.3-0.9-0.6-0.1-0.1-0.4-0.1-0.5-0.1-0.1-0.1-0.3 0-0.4-0.2 0-0.4-0.3 0-0.4-0.1-0.2-0.1-0.4-0.1-0.5-0.1-0.2-0.1-0.4-0.2-0.4-0.4q0 0 0 0-0.1 0-0.1 0v0.1q0 0-0.1 0c0 0 0-0.1 0-0.1 0 0-0.1 0.1-0.1 0.1 0 0.3-0.2-0.1-0.2 0.1q-0.2-0.1-0.5-0.1c-0.1 0 0.1 0 0-0.1-0.2-0.1-0.4 0-0.6 0-0.1 0-0.2 0.1-0.3 0-0.2 0.1-0.1-0.2-0.2-0.1q-0.1 0-0.1 0c0 0.1 0.2 0.1 0.1 0.1-0.3 0.1-0.5 0-0.7-0.1q0-0.1-0.1-0.1v0.1 0.1q0-0.1 0-0.1c-0.1-0.1 0-0.2-0.1-0.1-0.1 0-0.1 0.1-0.2 0.1 0 0.1-0.1 0-0.1 0v-0.1q0.1 0 0.2 0 0-0.1 0-0.1l-0.4-0.1q0 0.1-0.1 0.1l0.1 0.1c0.1-0.2 0.1-0.1 0.2 0-0.1 0.1-0.2 0.2-0.2 0.1-0.1-0.1-0.2-0.1-0.2-0.1-0.1-0.1 0 0.1-0.1 0.1-0.2 0.2-0.2-0.1-0.3-0.1-0.1 0 0-0.1-0.1 0 0 0-0.1 0-0.1 0.1-0.1 0.1-0.2 0.2-0.4 0 0 0-0.2 0.1-0.4 0.1-0.2 0-0.4 0.1-0.5-0.2q-0.1 0-0.1 0c0 0.2-0.1 0.1-0.2 0-0.1 0-0.2 0.2-0.4 0.2q-0.5-0.1-1 0c-0.2 0-0.3-0.2-0.5 0 0 0 0 0 0 0q-0.1 0-0.2 0-0.2-0.1-0.4-0.1c-0.1 0 0 0.1-0.1 0.1-0.4 0-0.8 0-1.1 0.1h-0.6-0.4c0-0.1-0.1 0-0.1 0-0.2 0.2-0.5-0.2-0.6 0.1-0.1 0-0.2-0.1-0.3-0.1-0.1-0.1-0.2 0-0.3 0-0.3 0.2-0.6 0.2-0.9 0.1-0.2 0-0.3 0.1-0.5 0.1q0 0-0.1 0 0-0.1 0-0.2c-0.1 0.1 0 0.1 0 0.2l-0.2-0.1c0 0.1 0 0.1 0 0.1-0.1 0.1-0.2 0.1-0.4 0.1-0.1 0-0.3 0.1-0.5 0.1-0.4 0-0.7 0.1-1 0.2-0.2 0.1-0.4 0.2-0.7 0.2-0.1 0-0.2 0.2-0.3 0.2-0.1 0-0.3 0-0.3 0.1-0.1 0.1-0.2 0-0.3 0.1-0.3 0-0.3 0.4-0.6 0.5 0 0-0.1 0.1-0.1 0.2 0 0.1-0.1-0.1-0.1 0q-0.2 0.5-0.6 0.7c-0.1 0.1-0.2 0.1-0.1 0.2-0.1 0-0.1 0-0.1 0-0.1 0.2-0.1 0.3-0.2 0.5q-0.1 0.3-0.3 0.6c-0.2 0.4-0.5 0.8-0.5 1.3-0.2-0.1 0.1 0.2-0.1 0.2 0 0 0 0-0.1 0.1l0.1-0.1q0 0 0 0 0.1 0 0.1 0-0.1 0.2-0.2 0.4 0 0 0 0 0 0.2 0.1 0.5-0.1 0-0.1 0.1zm1.7-0.4q0 0 0 0v0.1q0 0 0 0 0-0.1 0-0.1zm0 0.1v0.1-0.1q0 0 0 0zm0-0.1zm0 0zm0 0zm0 0zm26.5 7q0-0.1 0.1-0.2-0.1-0.1-0.1-0.1c-0.1 0.1-0.2 0.1-0.2 0.2 0 0.3 0.2-0.1 0.2 0.1zm0.6 2.8q0 0 0-0.1c0.2 0 0.1-0.2 0.1-0.3-0.1 0-0.1 0.1-0.1 0.3q0 0 0 0 0 0.1 0 0.1zm0.5 2q0.1-0.1 0.2-0.1-0.1-0.1-0.1-0.2-0.1 0.1-0.2 0.2c0 0 0.1 0.1 0.1 0.1zm-0.3 0.6c0-0.1-0.1-0.2-0.1-0.2-0.2 0.2 0.1 0.4-0.1 0.5v0.1c0.3-0.1 0-0.4 0.2-0.4zm0.4 0c0 0 0 0 0 0q0 0.1 0 0.2l0.2-0.2q-0.1 0-0.1 0.1c-0.1 0 0.1-0.2-0.1-0.1zm-0.1-0.4c0 0-0.1-0.1-0.1-0.1q0 0.2 0 0.5 0 0 0 0 0.1-0.2 0.1-0.4zm0.6-1.2q0 0.1 0 0.2l0.1-0.1q0 0.1 0 0.1 0 0.1 0 0.1c-0.1 0.2-0.3 0.4-0.2 0.6-0.1 0.2-0.1 0.3 0 0.3q0 0 0-0.1 0-0.1 0-0.2c0 0 0-0.2 0.1 0q0.1-0.4 0.2-0.7c0 0-0.2 0 0-0.1q0 0-0.1-0.1c0 0-0.1 0-0.1 0zm0.1-1.4v0.4c0 0 0 0 0 0q0.1 0 0.1 0 0.1-0.1 0.1-0.2 0 0 0 0c-0.3 0.2-0.1-0.1-0.2-0.1zm-0.6-0.1q-0.1 0-0.1-0.1c0 0-0.1 0.1-0.1 0.1v0.1q0 0 0 0 0 0 0-0.1c0-0.2 0-0.3 0.2-0.1q0 0 0 0c0 0 0.1-0.1 0-0.1q0-0.1-0.1-0.1c0 0.1-0.2 0-0.2 0.2 0 0.1 0 0.2 0 0.3 0 0-0.1 0.2 0.1 0.1-0.2 0.3 0 0.6-0.1 0.8 0 0.1 0 0.2 0 0.2 0 0 0.1 0.1 0.1 0q0.1 0 0.1 0 0 0.1 0 0.2 0 0.1 0 0.2 0 0 0 0 0-0.1 0.1-0.2 0-0.1 0-0.1 0 0 0-0.1c0 0.1 0 0.1 0.1 0.1 0 0-0.1 0.2 0 0.1q0 0.1 0.2 0.1 0-0.1 0-0.1v-0.2q0 0 0.1 0.1 0 0.1 0 0.2c0-0.1 0.1-0.2 0.1-0.2q-0.1-0.1-0.1-0.2c-0.2-0.2-0.2 0.1-0.3 0.1 0.1-0.2-0.2-0.2-0.2-0.4-0.1-0.2 0-0.3-0.1-0.5q0 0 0.1 0 0-0.1 0 0 0.1 0 0 0c-0.1 0.2 0.3 0.3 0.2 0.5q0 0 0 0 0 0 0-0.1c0-0.1 0-0.1 0.1-0.1 0 0.1 0.1 0.2 0.1 0 0 0 0.1 0.1 0.2 0.1q0 0 0.1-0.1c0 0-0.1-0.1-0.1-0.1q-0.1 0.1-0.3 0.1c0.1-0.1-0.2 0-0.1-0.1 0.1-0.1 0-0.2 0-0.3 0 0 0-0.1-0.1 0-0.1 0 0.1-0.3-0.1-0.2zm0.5-0.5q-0.1 0.1-0.1 0.1v0.2q0.1 0 0.2 0 0 0 0 0l-0.1-0.3q0 0 0 0zm-0.1 0.3q0 0 0 0 0 0 0 0 0 0 0 0zm-0.3 0c0.1 0.1 0.2 0 0.2 0.1 0 0 0.1 0.1 0.1 0.1 0-0.1-0.1-0.1 0-0.2-0.1 0-0.2-0.2-0.3 0zm0.3-0.9l0.1 0.2 0.1 0.1c-0.2 0.1 0 0.2 0 0.2 0 0 0.1-0.1 0.1-0.1 0.1 0 0.1-0.2 0.2-0.1q0 0.1 0 0.1 0 0 0 0 0.1-0.1 0-0.1c0-0.2-0.1 0-0.1 0q-0.2 0-0.1-0.1c0-0.2-0.1-0.3-0.2-0.4-0.1 0 0.1 0.3-0.1 0.2zm0.1-0.6c-0.1 0.2 0.4 0.1 0.1 0.3h0.3c-0.1-0.1-0.1-0.2-0.3-0.3 0.1 0 0 0-0.1 0zm-0.3-0.8c-0.1 0 0.1-0.2 0-0.2-0.2 0 0.3-0.2-0.1-0.2q-0.1 0-0.1-0.1-0.1 0.1-0.1 0.2 0 0.1-0.1 0.1c-0.1 0-0.1 0.1-0.2 0.1 0 0.1 0 0.3 0 0.3 0.1 0.2-0.1 0.4 0.1 0.5-0.1 0.1 0 0.2-0.1 0.4l-0.1-0.1q0 0.1 0.1 0.2c0 0 0 0 0.1 0 0.1-0.1 0 0.1 0.1 0.1q0 0 0 0.1l-0.1-0.1q0 0 0 0-0.1 0-0.1 0.1c0.1 0.2 0.3 0.3 0.2 0.6q-0.1 0.1-0.1 0.1h0.3c-0.2-0.1 0.1-0.2 0-0.2q0-0.1-0.1-0.1 0 0 0 0.1v-0.2l0.1 0.1 0.1 0.1v-0.2q-0.1 0-0.1 0-0.1 0-0.1 0v-0.1c0.2 0 0.2-0.1 0.3-0.2 0 0 0 0 0.1 0q0 0.1 0 0.2l0.1-0.5c0 0-0.1-0.1-0.1-0.1-0.1 0.1-0.1-0.2-0.2-0.1q0 0 0 0.1-0.1-0.1-0.1-0.1v-0.7c0 0 0.1 0.1 0.1 0 0-0.1 0.1-0.2 0.1-0.2zm0.5-1.5q-0.1 0-0.1 0.1c-0.2 0 0 0 0 0.1-0.3 0.1 0.1 0.4-0.1 0.6q0 0 0 0.1 0 0 0.1 0.1c0 0-0.1 0.1-0.1 0.1-0.2 0 0 0.3-0.2 0.2q0 0.1 0 0.1 0 0 0.1 0c0-0.1 0.1 0 0.1 0 0.1 0.1 0.1 0.2 0.2 0q0-0.1 0-0.2c0.1-0.1 0.2-0.2 0.1-0.2-0.1-0.1 0.1-0.2 0.1-0.2-0.2-0.1-0.3-0.4-0.3-0.6 0 0 0.1-0.1 0.1 0.1q0 0 0 0.1 0-0.1 0-0.1l-0.1-0.2c0 0 0.1-0.1 0.1-0.1zm-1-0.1c0 0.1 0 0.2 0 0.3 0 0 0.1 0 0.1-0.1 0-0.1 0.2 0.1 0.1-0.1 0-0.1-0.1 0-0.2-0.1zm-0.2-1.1l0.1 0.1c0.1 0.1 0 0.4 0.3 0.3 0 0-0.2 0.2 0 0.1 0 0 0.1-0.2 0-0.3 0.2 0 0 0.3 0.2 0.2 0 0.1 0 0.1 0 0.1-0.3 0-0.3 0.3-0.4 0.5q0 0 0.1 0.1 0 0 0-0.1c0.1-0.1 0.2-0.2 0.3-0.4 0 0 0.2-0.1 0.3-0.1 0 0 0 0 0 0.1 0 0.1 0 0.1 0.1 0.2q0-0.1 0-0.2 0-0.2 0-0.3c0.1 0 0.1-0.3 0.2-0.1 0-0.2-0.1-0.1-0.2-0.1 0 0 0-0.1 0 0-0.1 0 0 0.1 0 0.1 0 0-0.1 0 0 0.2-0.2-0.1-0.4 0.1-0.4-0.2-0.1 0 0-0.1-0.1-0.1 0 0 0 0.1-0.1 0.1l-0.1 0.1q0.1-0.1 0.1-0.1c0-0.1 0-0.1 0-0.1q-0.2 0-0.4-0.1zm0.7-0.5q-0.1-0.2-0.1-0.4c-0.1-0.2-0.2-0.4-0.1-0.7 0 0-0.1-0.1-0.1-0.1q-0.1 0-0.1 0c0 0.2 0 0.3 0 0.5 0 0.1-0.1 0.1-0.1 0.1 0 0 0 0.1 0 0.1 0.1 0.1 0.1 0.1 0.2 0.2q0 0-0.1 0 0 0 0 0-0.1 0-0.1-0.1 0 0.1 0 0.1 0 0 0.1 0.1 0.1 0.1 0.1 0.1c0 0.1-0.1 0.1-0.1 0.2q0 0 0-0.1 0 0 0 0c0 0 0.1-0.1 0-0.1 0 0-0.2 0-0.3 0 0 0 0 0.2 0 0.2 0.2 0.2 0.4-0.1 0.7-0.1zm0.6-1c-0.2 0.1-0.3 0-0.3 0.2-0.1 0.1-0.2 0.3-0.2 0.3 0 0.2 0.1 0 0.2 0q-0.1 0.1-0.1 0.2c0 0.1-0.1 0-0.1 0 0 0.2 0.2 0 0.2 0.3q0.1 0 0.1-0.1c0-0.1 0.1-0.3-0.1-0.4 0.1-0.1 0.2-0.2 0.1-0.3 0 0 0-0.1 0-0.1 0.2 0 0.1 0.2 0.2 0.3 0 0 0 0.1 0 0.1q0.1-0.1 0-0.2c0-0.1 0-0.3 0-0.3zm-0.4-0.8q0 0-0.1 0 0 0.1 0 0.1c0.2 0.1 0.1 0.3 0.1 0.4-0.2 0.2 0.1 0.2 0 0.3l0.2 0.1-0.1-0.2c0-0.2 0.1-0.3 0.2-0.4 0 0 0.1 0.1 0.1 0.1q0-0.1 0-0.2c-0.1 0-0.2 0.2-0.2 0.1 0-0.2-0.1-0.3-0.2-0.3zm-0.9-1.4q0 0 0 0v0.1l0.1 0.2c-0.1 0-0.1 0-0.1 0q-0.1 0-0.1-0.1 0-0.1 0-0.1 0 0 0 0c0 0-0.1 0.1-0.1 0.1 0.1 0.1 0 0.3 0.1 0.4 0 0 0 0.2-0.1 0.2q0 0.1 0 0 0 0-0.1 0l0.1 0.1c0-0.1 0.2 0.2 0.1 0 0.2 0.1 0.2-0.2 0.2-0.1 0 0.1-0.1 0.3 0.1 0.3q0.1 0.1 0.1 0.2 0 0 0 0c0.1-0.3 0.1-0.3 0-0.4-0.1-0.2-0.2-0.5 0-0.8 0-0.1-0.2 0.1-0.3-0.1zm0-0.2q0 0 0 0 0 0.2 0.1 0.3l0.1-0.3zm-1.2-0.3q0 0.1-0.1 0.2 0.1 0 0.1 0 0 0 0.1 0-0.1 0-0.1 0 0 0.2 0 0.3c0 0 0 0 0 0 0 0 0.1 0 0.1 0-0.1-0.2 0-0.2 0.1-0.3 0.1 0 0.1-0.1 0-0.2 0 0-0.1 0-0.2 0zm1.1-0.7c-0.1 0.2 0 0.2 0.1 0.2 0 0.1 0 0.1 0 0.2q0 0 0.1 0c0.1-0.1 0-0.2-0.1-0.3q0 0-0.1-0.1zm-0.5-1.9q0 0 0 0v-0.1l-0.1-0.1q0 0.2 0 0.4h0.1 0.1l-0.1 0.1q0 0.2 0 0.3c0 0 0.1 0.1 0.2 0 0.2-0.1 0.1 0.1 0.1 0.2q0 0.1-0.1 0.1c0.1 0 0.2-0.1 0.2-0.1-0.1-0.1 0-0.3-0.1-0.5 0 0 0-0.1 0-0.1 0.3-0.3-0.1-0.3-0.1-0.5q-0.1 0-0.1 0.1 0 0 0 0.1 0 0 0-0.1c0.2 0.1 0.1 0.2 0.1 0.2q0 0 0 0.1c-0.1 0-0.1 0.1 0 0.2q0 0-0.1 0l-0.2-0.3q0 0 0.1 0zm0-0.6q0 0 0 0.1c-0.1 0 0.1 0.2-0.1 0q-0.1-0.1-0.2 0c0 0.1 0.1 0.2 0.1 0.2 0.1 0 0.2 0 0.2 0q0.2-0.1 0-0.3 0 0 0 0zm0 0q0 0 0 0 0 0 0 0zm-1.5-0.4c0.1 0.1 0.1 0.2 0.1 0.3 0 0 0.1 0 0.2 0 0 0 0-0.1 0-0.1-0.1-0.1-0.2-0.1-0.3-0.2zm0.6-1q0 0.3 0.1 0.5h0.3q0 0 0 0l-0.3-0.3q0 0 0-0.1 0.1 0 0.1-0.1l0.1 0.1v-0.1q-0.1 0-0.3 0zm-0.5-0.6c-0.1 0.4 0.2 0.1 0.3 0.3 0.1 0 0.2 0 0.3-0.1 0-0.1-0.2 0-0.2-0.1l-0.3-0.1v0.1c0 0-0.1-0.1-0.1-0.1zm-0.6-0.2q0.1 0.1 0.2 0.2 0 0.1 0.2 0-0.2-0.2-0.3-0.3c0 0-0.1 0.1-0.1 0.1zm-1.4-1.3q0 0.2 0 0.3c0 0.3 0.2 0.1 0.4 0.3q0-0.2 0-0.2c0-0.1 0.1 0.2 0.1 0 0 0-0.1 0-0.1 0h-0.2c0.1-0.2-0.2-0.2-0.1-0.3 0 0-0.1-0.1-0.1-0.1zm-1 0.9c0 0 0 0-0.1-0.1-0.1 0-0.2 0-0.2 0-0.1 0.2 0.2 0.1 0.2 0.2 0 0 0.1 0 0.1-0.1zm0.2-0.7c0.2 0.1-0.1 0.1 0 0.1q0.2 0 0.3 0 0.1 0 0.3-0.1-0.1-0.1-0.3-0.2c0-0.1-0.1 0-0.2 0q0.1 0 0.2 0.1l0.1 0.1h-0.2q-0.1 0-0.1 0c0.1-0.1-0.1 0-0.1 0-0.1 0 0 0 0 0zm-0.6-0.1c0.1 0.2 0.2 0 0.3 0 0.1 0.1 0.2 0 0.3 0-0.2-0.1-0.4-0.1-0.5 0q-0.1 0-0.1 0zm-0.5-1.1q0.2 0.1 0.3 0.3c0-0.1 0.1-0.1 0.1-0.2 0-0.1-0.2 0-0.2-0.1zm-0.5 0c0 0-0.1 0.1-0.1 0.1 0 0.2 0.3 0.1 0.4 0.3q0 0 0.1 0l-0.1-0.1c0.1 0.1 0.2 0.1 0.3 0 0 0 0.1-0.1 0-0.1-0.1-0.1-0.1 0-0.1 0 0 0.1-0.1 0.1-0.2 0.1 0 0-0.1-0.1-0.1-0.1 0.1-0.2-0.2-0.2-0.2-0.3q0 0 0 0.1zm-1.7 0.1c0.4 0 0.4 0.1 0.3 0.2 0 0 0 0.1 0.1 0.1 0.2 0 0-0.3 0.2-0.3-0.1-0.1-0.3-0.1-0.6 0zm-0.5 0.9h-0.3q0.1 0.1 0.2 0.1c0.1 0.1 0.1 0 0.2 0-0.1 0.2 0.1 0.2 0.1 0.2 0 0.1 0.1 0.1 0.2 0.1 0.1-0.2-0.2-0.3-0.2-0.4 0 0-0.1 0-0.2 0zm-0.3-1c0.2 0.1 0.3 0.2 0.5 0.1v-0.1q-0.2 0-0.4-0.1c0 0-0.1 0.1-0.1 0.1zm-0.1 1.1q-0.1 0-0.2 0 0.2 0.1 0.3 0.1c0.1-0.1-0.2 0 0-0.1q-0.1 0-0.1 0zm-0.3-1.6q-0.1 0-0.1 0l0.4 0.1c0 0 0.1 0 0.1 0-0.1-0.4-0.3 0-0.4-0.1zm-0.1-0.2c0 0 0.1 0.1 0.2 0.1 0 0 0-0.1 0-0.1q0-0.1-0.1-0.2-0.1 0.1-0.1 0.2zm-0.4 2c0.2 0 0.1-0.2 0.1-0.2 0-0.1 0-0.2-0.1-0.2v0.1q0 0-0.1 0c0 0.1 0.2 0.1 0.1 0.3zm-2.6-0.1c0 0 0.1 0 0.2 0.1 0.1-0.1 0.2-0.2 0.1-0.2 0-0.2 0 0-0.1 0 0 0-0.1-0.1 0-0.1-0.1-0.2-0.2 0-0.2 0 0 0.1 0 0.2 0 0.2zm-1-0.7c0 0 0.1 0 0.1 0q0.1 0 0.2-0.1 0 0-0.1-0.1-0.1 0.1-0.2 0.2zm-0.2-0.5q0.1 0.1 0.2 0.2c0 0 0.1-0.1 0.2-0.1q-0.2-0.1-0.4-0.3c0 0.1-0.1 0.2 0 0.2zm-1.8-0.2c0.1 0.1-0.1 0.2 0 0.2 0.3 0 0-0.2 0-0.3q0 0 0 0c-0.1 0-0.1 0-0.2 0.1 0 0 0.1 0 0.2 0zm-0.3 0.3q0 0.1 0 0.1 0.2-0.1 0.4-0.1h0.1q-0.1 0 0 0 0 0 0 0h-0.1q0-0.1 0-0.1-0.2 0-0.4 0.1 0 0 0 0zm-0.3 0.8q0.1 0.1 0.3 0.1 0-0.1 0.1-0.1l-0.3-0.2c0.1 0.1 0.1 0.2-0.1 0.2zm-0.6 0q0.1 0 0.1-0.1l-0.1-0.2c0 0-0.1-0.1-0.1 0 0 0.1 0.1 0.2 0.1 0.3zm-0.9-0.4l0.2-0.3c0 0 0 0-0.1 0q-0.1 0.1-0.2 0.2c-0.1 0 0 0.1 0.1 0.1zm-2.4 0.1c0 0 0.1 0.1 0.1 0.1q0.2-0.1 0.2-0.2c0 0-0.1-0.1-0.2 0q-0.1 0-0.1 0.1zm0 0.1c-0.1-0.2-0.2-0.1-0.4-0.1q-0.1 0-0.1 0l0.4 0.2c0 0 0.1 0 0.1-0.1zm-0.1-0.5q-0.1-0.1-0.2-0.2c0 0.1-0.1 0.2-0.1 0.2q0.1 0.1 0.2 0.1c0 0 0.1-0.1 0.1-0.1zm-0.6-0.3q0.2 0.1 0.5 0.1 0-0.1 0.1-0.2l-0.6 0.1q0 0 0 0zm-2 1q0.1 0 0.2 0.1c0.1 0 0.2-0.1 0.2-0.1-0.1-0.1-0.1-0.3-0.3-0.1zm-1.3-0.1c0.1 0.1 0.1-0.1 0.2 0q-0.1-0.2-0.1-0.2 0.1 0 0.1-0.1h-0.2c0 0.1 0 0.2 0 0.3zm-4.7 4.8q0.1-0.1 0.2-0.2 0-0.1 0-0.2-0.1 0.1-0.2 0.3c0 0 0 0.1 0 0.1z"/><path class="a" d="m6.5 2.3q0 0 0 0z"/><path class="a" d="m15.6 1.1z"/><path class="a" d="m15.6 1.1z"/><path class="a" d="m29.5 20.5z"/><path class="a" d="m29.9 6.3c0 0.1 0 0.1 0 0v0.1z"/><path class="a" d="m31.6 15.2z"/><path class="a" d="m15.3 2q0 0 0.1 0h-0.1z"/><path class="a" d="m31.3 19.7z"/><path class="a" d="m24.5 2.2z"/><path class="a" d="m30.5 19.4q0 0 0.1 0 0 0 0 0z"/><path class="a" d="m31.5 21.4v-0.1z"/><path class="a" d="m31.6 9.4z"/><path class="a" d="m31.7 10.7q0.1 0 0.1 0v0.2q0-0.1-0.1-0.1 0 0 0 0-0.1 0-0.1 0v0.1q0.1 0 0.1 0v0.2q0 0 0 0.1 0 0 0.1 0c0 0 0-0.1 0-0.1-0.1-0.2 0.1-0.3 0.2-0.3 0.1-0.1-0.1-0.3 0-0.4h-0.1l-0.2-0.1z"/><path class="a" d="m31.5 23q0 0.1 0 0.1c-0.1 0.1 0 0.3-0.2 0.4q0 0 0 0h0.2q0-0.1 0.1-0.3c0-0.1-0.1-0.1-0.1-0.2z"/><path class="a" d="m31.8 10.1q0 0 0 0 0 0 0 0.1 0 0 0 0c-0.1-0.1-0.2-0.1 0 0 0 0.2-0.2 0-0.1 0.1l0.2 0.1c0.2-0.3-0.1-0.4-0.1-0.6h-0.1v0.1c0.1 0-0.2 0.2 0.1 0.2z"/><path class="a" d="m29.7 21.1c0-0.1 0-0.3 0-0.5-0.1 0.2-0.2 0.4-0.2 0.6 0 0 0.1 0.1 0.1 0.1 0-0.1 0.1-0.1 0.1-0.2z"/><path class="a" d="m31.6 9.4z"/><path class="a" d="m31.5 9.5c0 0.1 0 0.2 0.1 0.2 0.2 0-0.1 0.2 0.1 0.2v-0.1c0.2-0.2 0.1-0.3-0.1-0.4 0 0-0.1 0-0.1 0.1z"/><path class="a" d="m29.5 14.5c-0.2 0.1 0.1 0.3 0 0.4q0 0.1 0.1 0.1c0-0.1 0.1-0.2 0.1-0.3-0.1 0-0.1-0.2-0.2-0.2z"/><path class="a" d="m31.3 7.4c0 0-0.1-0.1-0.1-0.1v0.3h-0.1l0.1 0.2q0.1-0.2 0.1-0.4z"/><path class="a" d="m26.7 2.1q0 0.1 0.1 0.2c0 0 0.1 0.1 0.2-0.1 0.1-0.2-0.3 0-0.2-0.2-0.1 0-0.3 0-0.1 0.1z"/><path class="a" d="m29.6 14q0 0.1 0 0.1-0.1 0-0.1 0.1 0.1 0 0.1 0 0 0 0 0 0.1 0 0.1 0 0 0 0.1 0c0 0.1 0 0 0.1-0.1h-0.1c-0.1 0-0.2 0.1-0.2-0.1z"/><path class="a" d="m29.8 14.1q0 0 0 0z"/><path class="a" d="m30.5 6l0.1-0.1c0.1-0.1 0.2-0.1 0-0.2 0 0-0.1 0-0.2 0 0.1 0.1 0.2 0.1 0.1 0.3z"/><path class="a" d="m1.9 7.3q0-0.1 0-0.1-0.2 0.2-0.4 0.4c0 0 0.1 0.1 0.1 0.1 0.2-0.1 0.1-0.4 0.3-0.4z"/><path class="a" d="m16.6 0.9q0.1-0.1 0.3-0.2-0.1 0-0.2 0-0.1 0-0.2 0.1c0 0 0.1 0.1 0.1 0.1z"/><path class="a" d="m22 0.9v-0.2q0 0-0.2 0.1 0-0.1 0-0.1c0 0 0 0.1 0 0.2 0 0 0.1 0 0.2 0z"/><path class="a" d="m13.2 1q0 0 0.1-0.1-0.1 0-0.2 0c-0.1 0-0.1 0.1-0.1 0.1q0.1 0 0.2 0z"/><path class="a" d="m7.1 2.1c0.1 0 0.2-0.1 0.2-0.1-0.1-0.2-0.2 0.1-0.3 0q0 0 0 0.1c0 0 0 0.1 0.1 0z"/><path class="a" d="m28 2.9c0.1 0 0.1-0.2 0.3-0.1q-0.1-0.1-0.2 0c-0.1 0.1-0.1 0-0.1-0.1-0.2 0 0 0.2 0 0.2z"/><path class="a" d="m29.6 20.8l-0.1-0.3c0 0 0 0.1 0 0.1 0 0-0.1 0.2 0.1 0.2z"/><path class="a" d="m29.5 20.5z"/><path class="a" d="m29.5 20.5z"/><path class="a" d="m30.6 5.9z"/><path class="a" d="m30.5 6.1q0 0 0 0.1c0 0 0.1 0 0.1 0q0.1-0.1 0.2-0.3h-0.2c0.1 0.1 0.1 0.2-0.1 0.2z"/><path class="a" d="m30.6 5.9z"/><path class="a" d="m30.6 5.9z"/><path class="a" d="m15.6 1.1z"/><path class="a" d="m15.6 1.2c0 0.1 0.1 0.1 0.1 0q0-0.1-0.1-0.2c0 0 0 0-0.1 0l0.1 0.1z"/><path class="a" d="m15.6 1.1z"/><path class="a" d="m18 0.7q-0.2 0-0.4 0 0 0-0.1 0l0.4 0.1q0 0 0.1-0.1z"/><path class="a" d="m31.2 16.2c-0.1-0.1 0 0.1-0.2 0.1-0.1 0-0.2 0.1 0 0.3l0.2-0.2c0-0.1 0-0.2 0-0.2z"/><path class="a" d="m30.9 17.3c0.1 0 0.1-0.1 0.1-0.1q0-0.1-0.1-0.2 0 0.1-0.1 0.2c0 0 0.1 0.1 0.1 0.1z"/></svg>