<svg version="1.2" xmlns="http://www.w3.org/2000/svg" viewBox="0 0 13 20" width="13" height="20"><style>.a{fill:#dcefee}.b{fill:none}</style><path class="a" d="m11.6 8.2z"/><path fill-rule="evenodd" class="a" d="m11.8 7.6l0.2-0.1q0 0 0 0c0 0 0.1 0 0.1 0.1q0 0 0 0c0 0 0 0 0 0-0.1 0-0.1 0-0.1 0q0 0-0.1 0v0.1q0 0 0 0c0 0 0.2-0.1 0.2-0.1q0 0 0 0c0.1 0 0.1 0 0.1 0q0 0 0 0 0 0 0 0h0.1q0 0 0 0 0 0 0 0.1 0 0 0.1 0 0 0-0.1 0.1 0 0 0 0 0 0 0 0 0 0 0 0 0 0 0 0 0 0 0 0 0 0 0 0 0 0 0 0.1 0 0-0.1 0c0-0.1 0 0 0 0 0 0-0.3 0.1-0.1 0.1 0 0 0 0-0.1 0.1q0 0 0 0 0 0 0 0-0.1 0-0.1 0 0.1 0 0.1 0 0 0 0 0 0 0-0.1 0.1-0.1 0-0.2 0.1c-0.1 0-0.1 0-0.1 0q0 0 0 0 0 0 0 0 0 0 0 0 0-0.1 0-0.1 0 0 0 0.1-0.1-0.1-0.1-0.1h0.1q0 0 0 0h-0.1q0 0 0 0c0.1-0.1 0-0.1 0-0.1q0 0 0 0h0.1-0.1c0.1 0-0.1 0 0 0h-0.1q0 0 0 0c-0.1 0 0-0.1 0-0.1q0 0-0.1 0c0 0 0 0 0 0q0 0 0 0 0 0 0 0c0-0.1-0.1 0 0-0.1h-0.1q0 0 0.1 0 0.1-0.1 0.1-0.1 0 0 0 0 0.1 0 0.1 0l0.2-0.2q0 0.1 0 0v0.1-0.1c0 0 0.1 0 0.1 0zm0.1 0.3q0 0 0 0 0.1 0 0.1 0 0 0 0 0 0 0-0.1 0zm-0.1 0h0.1q0 0 0 0c0 0 0.1-0.1 0-0.1q-0.1 0.1-0.1 0.1zm0-0.3c-0.1 0.1-0.1 0.1 0 0.1-0.1 0 0-0.1 0 0v-0.1z"/><path class="a" d="m12 7.5c0.1 0 0 0 0.1 0 0 0 0 0 0-0.1h0.1q-0.1 0-0.1 0c0 0.1 0 0 0 0l-0.1 0.1q0 0 0 0z"/><path class="a" d="m12.1 7.5c0 0 0 0 0.1 0q-0.1 0-0.1 0 0 0 0 0z"/><path class="a" d="m12.2 7.5z"/><path class="a" d="m12.3 7.4l-0.1 0.1 0.1-0.1z"/><path class="a" d="m12.2 7.6q0 0 0 0v-0.1q0 0 0 0c-0.1 0 0 0 0 0.1z"/><path class="a" d="m11.3 7.8z"/><path fill-rule="evenodd" class="b" d="m11.5 6.7q-0.1 0-0.1 0 0 0.1 0 0.1 0 0 0.1 0 0 0 0 0c0 0 0 0 0.1 0v0.1q0 0 0 0 0 0-0.1 0c0 0 0 0-0.1 0v0.1l0.1-0.1v0.1h-0.1q0 0 0 0 0.1 0 0.1 0c0 0-0.1 0 0 0l-0.2 0.1q0.1-0.1 0.1-0.1c0 0-0.1 0-0.1 0q0 0 0 0l0.1-0.1c-0.1 0.1 0 0-0.1 0 0 0.1-0.1 0.1-0.1 0.1q0 0 0 0l0.1-0.1c0 0-0.1 0 0 0-0.1 0 0-0.1-0.1-0.1q0 0 0 0 0 0 0.1 0 0-0.1 0-0.1 0 0 0 0 0.1 0 0.1 0c0.2-0.1 0 0 0 0 0.1 0 0 0 0.1 0zm-0.2 0.1q0 0.1 0 0.1 0 0 0 0c0.1 0 0.1-0.1 0.1-0.1zm0 0l0.1-0.1q0 0 0 0c-0.1 0 0 0-0.1 0-0.1 0.1-0.1 0.1 0 0.1z"/><path class="a" d="m10.9 4.3z"/><path class="a" d="m11.3 6.4z"/><path class="a" d="m10.5 3.1z"/><path fill-rule="evenodd" class="a" d="m10.3 1.1h0.1-0.1q0 0 0 0h0.1 0.1q0 0 0.1 0c-0.2 0 0 0 0 0-0.1 0 0 0.1-0.1 0.1 0 0-0.1 0 0 0h-0.1c-0.1 0 0 0 0 0-0.1 0.1 0 0.1 0 0.1q0 0 0 0 0 0 0 0c0.1 0 0.1 0 0.1 0.1 0 0-0.1 0-0.1 0q0 0 0 0 0 0 0 0c0.1 0 0.1 0 0.1 0 0 0.1 0.1 0.1 0 0.1q-0.1 0 0 0.1 0 0-0.1 0c0 0 0 0-0.1 0q0 0-0.1 0h0.1c-0.1 0.1 0 0.1 0 0 0.2 0 0 0.1 0.2 0.1q0 0 0 0-0.1 0 0 0 0 0 0 0h-0.1q0 0 0 0.1c0 0 0.2-0.1 0.1 0q0 0 0 0c-0.2 0-0.1 0.1-0.2 0.1q0 0 0 0h0.1q0 0 0 0c0.1 0 0.1 0 0 0 0 0.1 0.1 0.1 0.1 0.1q-0.1 0-0.1 0 0 0 0 0c0.2 0 0.1 0.1 0 0.1q0 0 0 0c0.1 0.1-0.1 0.1 0 0.1 0 0 0 0 0 0 0.1 0 0 0 0.1 0 0 0 0 0 0 0-0.1 0-0.1 0.1-0.1 0.1q0 0 0.1 0.1 0 0 0 0h-0.1q0 0 0 0c0.1 0-0.1 0 0 0h0.1q0 0 0 0c0 0-0.1 0 0 0q0 0 0 0c0 0 0 0 0 0.1-0.1 0 0 0-0.1 0h0.1c0 0 0 0 0.1 0q0 0 0 0 0 0-0.1 0c0 0 0 0.1 0 0.1 0.1 0-0.1 0 0 0q0 0.1 0 0.1c-0.1 0 0 0 0 0q0 0 0.1 0.1c0 0-0.1 0-0.1 0 0 0 0 0 0 0 0 0 0 0.1 0.1 0.1 0 0 0 0 0 0.1 0 0-0.1 0 0 0q0 0 0 0.1 0 0 0.1 0h-0.1q0 0 0 0 0 0 0 0-0.1 0-0.1 0 0 0 0 0 0 0 0 0c-0.1 0 0-0.1-0.1-0.1q0 0 0.1 0-0.1 0-0.1 0h0.1c-0.1 0-0.2 0-0.2 0q0 0 0 0.1c0 0 0 0 0.2 0-0.1 0.1 0 0 0.1 0 0 0 0 0-0.1 0.1q0 0 0 0c0.2 0 0.1 0 0.1 0 0 0 0.1 0 0 0 0 0.1 0 0.1 0 0.1q0 0 0.2 0 0 0 0 0-0.1 0-0.1 0.1-0.1-0.1-0.1 0 0 0 0 0h-0.1-0.1q0.1 0 0.1 0c0.1 0 0.1 0 0.1 0 0.1 0 0 0 0.1 0 0 0 0 0.1-0.1 0.1q0 0 0.1 0 0 0 0 0c0 0 0.1-0.1 0.1 0q0 0 0 0-0.1 0-0.1 0 0 0 0 0 0 0 0 0c0.1 0 0.1 0 0.1 0q0 0 0 0c-0.2 0.1 0 0.1 0 0.1q0 0 0 0h-0.1q0 0 0 0-0.1 0 0 0c0.1 0-0.1 0.1-0.1 0.1q0.1 0 0.1 0 0 0 0 0h0.1q0 0 0 0 0 0 0 0 0 0-0.1 0v0.1q0 0 0 0 0 0 0.1 0c0 0 0-0.1 0-0.1v0.1q0 0 0 0h-0.1q0 0 0 0c0 0 0.1 0 0.1 0-0.1 0.1 0 0 0 0.1q0-0.1 0.1-0.1 0 0 0 0 0 0 0 0 0 0 0 0l-0.1 0.1q0 0 0.1 0c0 0 0 0-0.1 0q0 0 0 0 0 0 0 0 0 0 0 0h-0.1q0 0 0 0h0.1c-0.1 0 0 0-0.1 0.1q0 0 0 0 0 0 0 0c0.1 0 0.1-0.1 0.1 0q0 0 0 0 0 0 0 0c0 0 0 0 0 0q0 0 0.1 0 0 0-0.1 0c0 0.1 0 0.1 0 0.1 0.3-0.1 0.1 0 0.2 0q0 0-0.1 0c0.1 0-0.1 0.1 0.1 0.1q0-0.1 0-0.1 0 0.1 0.1 0.1-0.1 0-0.1 0 0 0-0.1 0h-0.1 0.1c0 0-0.1 0 0 0 0 0 0 0 0 0.1h-0.1v-0.1q0 0 0 0l-0.1 0.1v-0.1q0 0-0.1 0.1 0 0 0 0c0.1 0 0.1 0 0.1 0 0 0 0 0-0.1 0 0 0 0.1 0 0.1 0q-0.1 0-0.1 0.1 0 0 0.1-0.1h0.1-0.1q0 0 0 0-0.1 0-0.1 0 0.1 0 0.1 0c0.1 0 0.1 0 0.2 0 0 0 0 0 0 0-0.1 0 0 0 0.1 0 0 0 0 0 0 0-0.1 0.1 0 0.1-0.1 0.1 0.1 0-0.1 0 0 0q0 0 0 0c0 0 0.1 0 0.1 0q0 0 0 0.1-0.1 0 0 0c0 0 0 0 0.1 0 0.1 0-0.1 0.1-0.1 0.1-0.1 0 0 0 0 0q0 0 0 0c0 0-0.1 0 0 0 0 0 0 0.1 0 0.1 0 0 0 0 0.1 0q0 0 0 0c-0.1 0 0 0 0 0q-0.1 0.1 0 0.1 0 0 0 0 0 0 0 0 0 0 0 0c-0.1 0-0.2 0-0.2 0 0.1 0.1 0 0.1 0 0.1q0.1 0 0.2-0.1c0 0 0 0.1 0 0q0 0 0 0.1 0 0 0 0c0 0 0 0-0.1 0 0.1 0 0 0.1 0.1 0.1-0.1 0.1 0.1 0.1 0 0.1q0 0.1 0.1 0.1 0 0 0.1 0 0 0 0 0c0 0 0 0 0 0q-0.1 0-0.1 0h0.1q0 0 0 0-0.1 0-0.1 0 0 0-0.1 0.1c0.1-0.1 0.1 0 0.1 0v0.1c0.2 0 0.1 0 0.1 0-0.1 0.1 0 0.1-0.1 0.1q0.1 0 0.1 0 0 0 0 0 0 0 0 0h0.1-0.1l-0.1 0.1 0.1-0.1q0 0 0 0-0.1 0.1 0 0.1c0 0 0 0 0 0q0 0 0.1 0.1 0 0 0 0l0.1-0.1q0 0 0 0 0 0 0 0.1 0 0-0.1 0 0 0 0 0 0 0 0 0h-0.1c0 0 0.1 0 0 0 0 0 0 0.1 0.1 0q0 0 0 0c-0.2 0.1 0 0.1-0.1 0.2 0 0 0.1 0 0.1 0 0.1 0 0.1 0 0.1 0 0 0.1-0.1 0-0.1 0.1 0 0 0.1-0.1 0.2-0.1q0 0 0 0 0 0 0 0 0 0 0 0h0.1-0.1c0 0.1 0.1 0 0 0h0.1c0 0 0 0.1 0 0q0 0 0 0c-0.1 0.1 0 0 0 0.1 0 0 0 0 0 0 0 0.1 0.1 0.1 0.1 0.1q0 0-0.1 0.1c-0.1 0 0.1-0.1 0.1 0 0 0-0.1 0-0.1 0 0.1 0 0 0 0 0q0 0 0 0 0 0 0 0.1 0 0 0-0.1h0.1c0 0 0 0.1 0 0.1q-0.1 0.1 0 0c-0.1 0.1 0.1 0 0 0.1 0 0 0.1 0 0.1 0v0.1c0-0.1-0.1 0-0.1 0q0 0 0 0 0 0 0 0 0 0 0 0 0.1 0 0.1 0 0 0 0 0.1 0 0 0 0 0 0.1 0 0.1l0.1 0.1q0 0 0 0.1 0.1 0 0 0.1c0 0 0.1 0 0 0.1 0 0 0.1 0 0.1 0-0.1 0.1 0 0 0 0.1 0 0-0.1 0.1-0.1 0.1 0 0 0 0 0 0 0 0 0 0 0 0.1q0 0-0.1 0.1c0.1-0.1 0.1 0 0 0l-0.2 0.1q0.1 0 0 0c0 0 0.1-0.1 0-0.1v-0.1q0 0 0 0c-0.1 0.1 0 0.1 0 0.1q0 0-0.1 0c0 0.1 0 0.1 0 0.1q0.1 0 0.1 0h-0.1q0 0 0 0 0 0.1 0 0.1c0.1-0.1 0.1-0.1 0.1-0.1l-0.3 0.2c0 0-0.1 0 0 0h-0.1c0 0 0 0-0.1 0.1q0 0-0.1 0h0.1c0-0.1-0.1 0 0-0.1q0 0 0 0 0.1 0 0 0-0.1 0-0.1 0c0 0 0 0 0 0 0 0-0.1 0 0-0.1 0 0-0.1 0.1 0 0q0 0-0.1 0c-0.1 0 0.1 0 0.1 0q0.1-0.1 0 0 0-0.1 0-0.1 0 0 0 0 0.1 0 0.1 0 0-0.1 0-0.1 0 0 0 0 0 0 0 0c0 0 0 0-0.1 0 0 0.1 0 0 0 0-0.2 0.1 0-0.1-0.1 0q-0.1 0 0 0c0 0 0 0-0.1 0.1q0-0.1 0-0.1c0 0 0.1 0 0.1 0 0 0-0.1 0-0.1 0q0 0 0-0.1 0.1 0 0.1 0-0.1 0-0.1 0c0.1 0 0 0-0.1 0 0 0 0-0.2 0.1-0.2 0.1-0.1-0.1 0-0.1 0 0.1-0.1 0-0.1 0-0.1-0.1 0.1 0 0 0 0-0.1 0-0.1 0-0.1 0 0.1-0.1-0.1 0 0-0.1-0.1 0.1 0.1-0.1 0 0 0.1-0.1 0-0.1 0-0.1q0.1 0 0.1 0 0 0 0-0.1v0.1q0 0 0-0.1 0 0 0.1 0 0 0 0 0v-0.1l-0.1 0.1q0 0-0.1 0c0 0-0.1 0 0 0q0 0 0 0v-0.1q0 0 0.1 0 0 0 0 0h-0.1c0.1 0 0 0 0 0q0 0 0 0-0.1 0-0.2 0 0 0 0 0c0.1-0.1 0-0.1 0.1-0.1q0 0 0 0-0.1 0-0.1 0l0.1-0.1q0 0 0 0c0 0 0.1 0 0 0 0 0-0.1 0-0.1 0q0 0 0 0c-0.1 0-0.1 0-0.1 0 0.1-0.1 0 0 0-0.1q0 0 0 0h0.1-0.1q0 0 0 0h0.1q0 0 0 0 0 0 0 0 0 0 0 0 0 0 0 0h0.1q0 0 0 0c0-0.1 0 0 0 0q0-0.1 0-0.1 0 0 0 0-0.1 0-0.1 0c0 0-0.1 0-0.1 0.1v-0.1h0.1q0 0 0 0h-0.1l0.1-0.1c-0.2 0.1 0 0 0 0 0-0.1-0.1 0-0.1 0-0.1 0-0.1-0.1-0.1-0.1 0 0-0.1 0-0.1 0q0.1-0.1 0.1-0.1 0 0 0 0 0 0 0 0h0.1q-0.1 0-0.1 0c0 0 0 0 0 0 0.1-0.1-0.1 0 0-0.1q0 0 0 0 0 0 0.1 0-0.1 0-0.1 0 0 0-0.1 0 0.1 0 0.1 0c0 0 0 0 0 0q0 0 0 0 0 0 0-0.1 0 0 0.1 0 0 0 0 0 0 0 0 0v-0.1q0 0 0 0c0 0-0.1 0-0.1 0.1q0 0 0 0 0 0 0 0c-0.1 0-0.1 0.1-0.1 0.1-0.1 0 0-0.1 0-0.1h0.1-0.1q0.1 0 0.1 0h-0.1c0-0.1 0-0.1-0.1-0.1q0 0 0 0 0 0 0 0 0 0 0 0 0 0 0.1 0c0 0 0 0 0.1 0q0-0.1 0-0.1l-0.1 0.1c0 0 0-0.1 0-0.1-0.1 0-0.1 0-0.1 0.1q0 0 0-0.1 0 0 0 0 0 0 0 0-0.1 0 0-0.1 0 0 0 0v0.1q0 0 0.1 0 0-0.1 0-0.1 0 0 0 0h-0.1q0 0 0.1 0c0 0 0 0 0 0h0.1q-0.1 0-0.1 0-0.1 0-0.2 0c0 0 0 0 0.1 0-0.1 0 0-0.1-0.1-0.1 0 0-0.1 0 0 0q0 0 0 0v-0.1q0-0.1-0.1-0.1c0-0.1-0.1-0.1 0-0.2 0 0 0 0 0-0.1 0 0-0.1 0 0 0 0.1-0.1-0.1-0.1-0.1-0.1 0 0 0 0 0-0.1q0 0 0.1-0.1h-0.1q0 0 0.1 0 0 0 0 0 0 0-0.1 0c-0.1 0 0 0 0 0v-0.1c0 0 0 0 0 0 0-0.1 0-0.1 0-0.1 0 0-0.1 0 0 0-0.1-0.1 0-0.1 0-0.1q0 0 0 0c-0.1 0-0.1 0-0.1 0q0 0 0.1-0.1 0 0 0 0h-0.1 0.1c0 0 0 0 0 0 0 0-0.1 0-0.1 0q0 0 0 0l0.1-0.1q0 0.1 0 0.1 0 0 0 0v-0.1q0 0 0 0c0.1 0 0 0 0 0 0 0-0.1 0-0.1 0 0.1 0 0.1 0 0.1 0 0 0-0.1 0-0.1 0-0.1 0 0.1-0.1 0-0.1 0 0 0.1 0 0.1 0q-0.1 0-0.1 0c-0.1 0-0.1 0 0 0 0 0-0.1-0.1-0.1-0.1 0 0 0 0 0.1-0.1-0.1 0 0 0 0 0 0 0-0.1 0-0.1-0.1q0 0 0-0.1c0 0 0-0.1 0-0.1q0 0 0 0 0 0 0-0.1c0 0 0 0 0 0q0-0.1-0.1-0.1v-0.1-0.1c0.1 0 0 0 0 0-0.1 0 0.1-0.1 0-0.1q0 0 0 0c0.1 0 0.1-0.1 0-0.1 0 0 0-0.1 0-0.1q0 0 0-0.1 0 0 0 0h0.1c0 0-0.1 0-0.1 0h0.1q-0.1 0-0.1 0 0 0 0-0.1 0 0 0-0.1c0 0 0-0.1 0-0.1 0-0.1 0-0.1 0-0.1 0-0.1-0.1-0.1 0-0.1 0 0 0-0.1 0-0.1 0 0 0 0 0.1 0 0-0.1-0.1-0.1-0.1-0.1 0 0 0-0.1 0-0.1 0 0 0.1 0 0 0q-0.1-0.1 0-0.1 0.1-0.1 0-0.1 0 0 0 0 0 0 0-0.1 0 0 0-0.1c0-0.1 0-0.1 0-0.2 0.1 0-0.1 0 0 0q0 0 0-0.1 0 0 0 0v-0.1h-0.1q0 0 0 0 0.1 0 0.1 0zm0.6 5.9q0 0 0-0.1 0 0 0 0c-0.1 0.1-0.1 0.1-0.1 0.1 0 0.1 0.1 0 0.1 0zm0.4 0.2q0 0 0 0c0.1 0 0 0 0-0.1q0 0.1 0 0.1 0 0 0 0zm0.4 0.1h0.1q-0.1 0-0.1 0 0 0 0 0c0 0 0 0 0 0zm-0.1 0.1q0 0.1-0.1 0.1c0 0 0.1 0 0 0h0.1c0.1 0-0.1 0 0-0.1zm0.2 0q0 0 0 0 0 0 0 0l0.1-0.1q-0.1 0-0.1 0c0 0.1 0 0 0 0.1zm-0.1-0.1q0 0 0 0.1 0 0 0 0 0 0 0 0 0 0 0-0.1zm0.2-0.2q0 0 0 0 0 0 0 0 0 0 0 0c0 0-0.1 0.1 0 0.1q-0.1 0.1 0 0 0 0 0 0 0 0 0 0c0 0 0 0 0 0q0-0.1 0.1-0.1c0-0.1-0.1 0 0-0.1q-0.1 0-0.1 0 0 0.1 0 0.1zm-0.1-0.2q0 0 0.1 0 0 0 0 0 0 0 0 0c-0.1 0.1 0 0-0.1 0zm-0.3 0.1h0.1-0.1v0.1q0 0 0 0 0 0 0 0c-0.1 0-0.1-0.1 0-0.1h0.1q0 0 0 0h-0.1c0 0-0.1 0.1-0.1 0.1 0 0 0 0 0 0 0 0 0 0.1 0.1 0-0.1 0.1 0 0.1 0 0.1q0 0 0 0 0 0 0.1 0 0 0 0 0 0 0 0 0.1 0-0.1 0-0.1 0 0 0 0 0 0 0 0 0.1 0 0.1 0c0 0 0 0 0 0q0 0 0.1-0.1 0 0 0 0 0 0 0 0 0 0 0 0 0 0 0 0 0.1 0 0 0 0 0 0 0c-0.1 0-0.1 0-0.1 0.1 0-0.1-0.1 0-0.2 0 0 0 0-0.1 0-0.1q0 0 0 0 0 0 0.1 0 0 0 0 0c-0.1 0 0.1 0 0 0q0.1 0 0.1 0 0 0 0 0-0.1 0 0 0 0 0 0-0.1c0 0 0.1 0 0.1 0h0.1q-0.1 0-0.1 0l-0.1 0.1c0-0.1-0.1 0-0.1 0q0.1-0.1 0-0.1 0 0 0 0.1c-0.1 0 0-0.1-0.1 0zm0.2-0.2q0 0 0 0h0.1q0 0 0 0h-0.1q0 0 0 0zm0 0q0 0.1 0 0.1 0 0 0-0.1zm-0.1 0.1c0 0 0 0 0 0 0 0 0.1 0 0.1 0 0 0-0.1 0 0 0-0.1 0-0.1 0-0.1 0zm0-0.2h0.1c-0.1 0.1 0.1 0.1 0 0.1q0.1-0.1 0.1-0.1c0 0 0 0 0.1 0q0 0 0 0 0 0 0 0 0 0 0 0c0 0-0.1 0-0.1 0q0 0 0 0c0 0-0.1 0-0.1 0-0.1 0 0 0-0.1 0zm0.1-0.1c-0.1 0.1 0.1 0 0 0.1l0.1-0.1q0 0-0.1 0c0 0 0 0 0 0zm-0.2 0c-0.1 0 0 0-0.1 0 0 0 0.2-0.1 0 0q0 0-0.1 0 0 0 0 0 0 0.1 0 0.1-0.1 0-0.1 0 0 0.1 0 0.1c0.1 0 0 0 0.1 0-0.1 0 0 0 0 0.1h-0.1q0 0 0 0c0 0 0.1 0 0.1 0 0.1-0.1 0 0 0.1 0h-0.1q0 0 0 0c0 0 0.1 0 0.1 0.1q0 0-0.1 0l0.2-0.1c-0.1 0 0 0 0 0q0 0-0.1 0 0 0 0 0h0.1v-0.1 0.1h-0.1c0.1-0.1 0.1-0.1 0.1-0.1q0.1 0 0.1 0 0 0 0 0v-0.1c-0.1 0.1-0.1 0-0.1 0q0 0.1 0 0.1-0.1 0-0.1 0v-0.1q0 0 0 0 0-0.1 0.1-0.1zm0.2-0.3q-0.1 0-0.1 0.1c-0.1 0 0 0 0 0-0.1 0.1 0 0 0 0.1q0 0 0 0 0 0 0 0c-0.1 0 0 0-0.1 0.1q0 0 0 0 0 0 0 0 0.1-0.1 0.1-0.1 0 0 0.1 0 0 0 0 0c0 0 0-0.1 0-0.1 0 0 0.1 0 0.1 0-0.2 0-0.2 0-0.2 0 0 0 0.1-0.1 0 0q0 0 0 0 0 0 0 0v-0.1q0 0 0.1 0zm-0.5 0.2q0 0 0 0c0 0 0 0 0 0 0 0 0.1 0 0.1 0 0 0-0.1 0-0.1 0zm-0.1-0.1c0 0 0 0 0.1 0 0 0-0.1 0 0 0 0.1 0 0.1 0 0.1-0.1 0 0-0.1 0.1 0 0v0.1c-0.1 0-0.1 0.1-0.1 0.1q0 0 0 0 0.1-0.1 0.1-0.1 0.1-0.1 0.2-0.1 0 0 0 0c0 0 0 0 0 0q0 0 0 0 0 0 0-0.1c0.1 0 0 0 0.1 0 0 0-0.1 0-0.1 0q0 0 0 0c0 0-0.1 0.1 0 0.1-0.1 0-0.2 0.1-0.2 0 0 0 0 0 0 0q0 0 0 0l-0.1 0.1q0-0.1 0-0.1zm0.3-0.1q0-0.1-0.1-0.1c0 0-0.1 0 0-0.1q0 0-0.1 0 0 0 0 0.1 0 0 0 0 0 0 0 0.1 0 0 0 0 0 0 0 0 0 0 0 0 0 0 0 0 0 0 0 0 0 0 0 0 0 0 0.1 0 0 0-0.1 0c0 0 0.1 0 0 0q0 0-0.1 0.1 0 0 0 0c0.1 0 0.2-0.1 0.3-0.1zm0.2-0.3c0 0-0.1 0.1-0.1 0.1 0 0-0.1 0.1 0 0.1 0 0 0-0.1 0-0.1q0 0.1 0 0.1 0 0-0.1 0c0.1 0 0.2-0.1 0.2 0q0 0 0 0c0-0.1 0-0.1 0-0.1 0 0 0 0 0 0q0 0 0 0c0.1-0.1 0 0 0.1 0q0 0 0 0 0-0.1 0-0.1 0 0-0.1 0zm-0.1 0q0 0 0 0c0 0 0 0 0 0-0.1 0.1 0 0.1 0 0.1h0.1l-0.1-0.1q0 0 0.1 0 0 0 0.1 0 0-0.1-0.1-0.1c0 0 0 0.1 0 0.1q0-0.1-0.1 0zm-0.4-0.1q0 0 0 0v0.1q0 0-0.1 0 0 0 0 0 0 0 0 0 0 0 0 0 0 0 0 0c0 0-0.1 0 0 0 0 0 0 0.1 0 0.1q0 0 0 0h-0.1c0.1 0 0.1 0 0.1 0 0.1 0 0.1-0.1 0.1-0.1 0 0 0 0.1 0 0.1q0.1 0 0.1 0c0-0.1 0-0.1 0-0.1q-0.1 0 0-0.1c0 0-0.1 0-0.1 0zm-0.1 0q0 0 0 0 0.1 0 0.1 0h0.1zm-0.6 0.1q0 0-0.1 0.1l0.1-0.1q0 0 0 0v0.1q0 0 0 0c0 0 0-0.1 0.1-0.1q0 0 0 0 0 0-0.1 0zm0.5-0.3c0 0.1 0 0.1 0.1 0q0 0.1 0 0.1 0 0 0 0c0-0.1 0-0.1 0-0.1q-0.1 0-0.1 0zm-0.1-0.2h-0.1 0.1q0 0.1 0 0.1c0 0 0 0 0 0 0.2-0.1 0.1 0 0.1 0q0 0-0.1 0c0.1 0 0.1 0 0.1 0 0 0 0.1-0.1 0-0.1q0 0 0 0c0.2-0.1 0-0.1 0-0.1q0 0 0 0v0.1-0.1c0.1 0 0 0.1 0 0.1q0 0 0 0-0.1 0 0 0 0 0-0.1 0zm0-0.1h0.1q-0.1 0-0.1 0c0 0 0.1 0 0 0q0 0-0.1 0 0 0.1 0 0.1 0.1 0 0.1-0.1 0.1 0 0.1 0 0 0-0.1 0zm-0.5 0q0 0.1 0 0.1 0 0 0 0 0.1 0 0.1-0.1-0.1 0-0.1 0zm0.5-0.2q-0.1 0.1-0.1 0.1h0.1q0 0 0-0.1 0 0 0 0 0 0 0 0h0.1q0 0-0.1 0zm-0.1-0.1c-0.1 0.1 0.1 0 0.1 0.1q0-0.1 0.1-0.1c0 0-0.1 0 0 0h-0.1q-0.1 0-0.1 0zm-0.1 0q0 0 0.1 0 0 0 0-0.1c0 0-0.1 0.1-0.1 0.1zm0.1-0.3q-0.1 0-0.1 0c-0.1 0.1 0 0.1 0 0.1q0 0 0 0c0.1 0 0 0 0.1 0q0 0 0 0h-0.1c0.1-0.1 0-0.1 0.1-0.1zm-0.6 0.1q0 0 0 0 0-0.1 0-0.1c-0.1 0.1 0 0.1-0.1 0.1q0 0 0.1 0zm0.3-0.1c0 0 0 0 0 0q0 0 0.1 0 0 0 0.1 0 0 0 0 0 0-0.1 0-0.1-0.1 0.1-0.1 0.1c0 0-0.1 0-0.1 0q0 0 0 0zm-0.1-0.1c0 0.1 0.1 0 0.1 0 0 0.1 0 0.1 0.1 0.1q0-0.1-0.1-0.1zm0.4-0.2l-0.1 0.1q0-0.1 0.1-0.1c0 0-0.1 0 0 0zm-0.1 0q0 0-0.1 0c0 0 0 0 0 0.1v-0.1c0 0.1 0 0.1 0.1 0.1 0 0 0 0 0-0.1q0 0 0 0 0 0-0.1 0 0 0 0.1 0c0.1 0 0 0 0 0zm-0.2-0.2c0 0 0 0.1-0.1 0.1 0 0 0.1-0.1 0.1 0 0.1-0.1 0-0.1 0-0.1zm-0.5 0.1v-0.1q0 0-0.1 0.1 0 0 0.1 0c-0.1 0-0.1 0-0.1 0q-0.1 0 0 0.1c0.1-0.1 0.1-0.1 0.1-0.1q0 0 0 0zm0.5-0.2c-0.1 0-0.1 0.1 0 0.1q0-0.1 0-0.1zm-0.5 0.1q0 0 0 0c0 0-0.1 0 0 0q0 0 0 0zm0.8-0.2q0 0 0 0h-0.1q0 0 0 0c0.2 0 0 0 0.1 0zm0.1-0.1q-0.1 0-0.1 0.1 0 0 0.1 0l0.1-0.1zm-1 0.2c0 0 0.1 0 0.1 0q0.1 0 0.1 0h-0.1q0 0 0 0c0 0 0 0-0.1 0zm-0.1-0.4q0 0 0 0.1 0 0 0.1 0c0.1 0 0 0 0 0q0-0.1 0-0.1c0.1 0 0 0 0 0 0 0-0.1 0-0.1 0zm0.4-0.2q-0.1 0-0.1 0 0.1 0 0.1 0.1 0-0.1 0-0.1 0 0 0 0zm0.2-0.1q-0.1 0.1-0.1 0.1 0 0 0.1 0 0 0 0.1-0.1-0.1 0-0.1 0zm0-0.2c0 0 0 0 0 0 0 0 0.1 0 0.1 0q0 0 0 0-0.1 0-0.1 0zm-0.1 0q0 0 0 0 0 0 0 0 0 0 0 0 0 0 0 0 0 0 0 0 0 0 0 0zm-0.4 0q0 0 0 0h0.1q-0.1 0-0.1 0zm0-0.1q0 0 0 0h0.1c0 0 0.1 0 0 0q0 0-0.1 0zm0.2-0.1h0.2q0 0 0 0-0.1-0.1-0.1-0.1-0.1 0-0.1 0.1zm0-0.4q0 0 0 0 0 0.1 0 0.1 0.1-0.1 0.1-0.1-0.1 0-0.1 0zm0 0c0.1 0 0 0 0 0q0 0 0-0.1l-0.1 0.1q0 0 0.1 0zm0.2 0q0.1 0 0.1-0.1 0 0-0.1 0.1 0 0 0 0zm0.2-0.1l-0.1 0.1q0 0 0.1 0v-0.1zm-0.4-0.3q0 0.1-0.1 0.1 0 0 0.1 0c0 0 0.1 0 0.1 0zm0.2-0.2c-0.1 0 0 0-0.1 0q0.1 0 0.1 0 0 0 0 0h0.1q-0.1 0-0.1 0zm0-0.9q0 0 0 0 0 0 0 0.1 0.1-0.1 0.1-0.1c0 0 0 0-0.1 0z"/><path class="a" d="m10.5 2.2q0 0 0 0z"/><path class="a" d="m10.6 3.4z"/><path class="a" d="m10.6 3.4z"/><path class="a" d="m10.9 7.6z"/><path class="a" d="m10.9 5.4q0 0 0 0v0.1z"/><path class="a" d="m11.6 6.5z"/><path class="a" d="m10.2 3.4q0 0 0 0z"/><path class="a" d="m11.7 7.1z"/><path class="a" d="m10.6 4.6z"/><path class="a" d="m11.3 7.2q0 0 0 0 0 0 0 0z"/><path class="a" d="m11.9 7.2z"/><path class="a" d="m11.5 5.7z"/><path class="a" d="m11.5 5.8h0.1v0.1h-0.1q0 0 0 0 0 0 0 0 0 0 0 0 0.1 0 0.1 0c-0.1 0 0-0.1 0-0.1 0.1 0 0 0 0.1 0h-0.1-0.1z"/><path class="a" d="m12 7.4q0 0 0 0c0 0 0.1 0 0 0.1q0 0 0 0l0.1-0.1q0 0 0 0 0 0-0.1 0z"/><path class="a" d="m11.6 5.8q0 0 0 0-0.1 0-0.1 0c0.1 0 0 0 0 0h0.1c0.1-0.1 0-0.1 0-0.1h-0.1c0.1 0-0.1 0.1 0.1 0.1z"/><path class="a" d="m11.1 7.6q0 0-0.1-0.1 0 0.1 0 0.2 0.1-0.1 0.1-0.1z"/><path class="a" d="m11.5 5.7z"/><path class="a" d="m11.4 5.7c0.1 0 0 0.1 0.1 0 0.1 0-0.1 0.1 0 0 0.1 0 0.1 0 0 0q0 0-0.1 0z"/><path class="a" d="m10.6 6.8c-0.1 0 0 0 0 0q0 0 0 0 0 0 0 0z"/><path class="a" d="m11.4 5.5q0 0 0 0h-0.1 0.1q0 0 0 0z"/><path class="a" d="m11.1 4.7c0 0 0 0.1 0 0 0.1 0 0 0 0.1 0-0.1 0-0.1 0-0.1 0z"/><path class="a" d="m10.6 6.7q0 0 0 0 0 0 0 0 0 0 0 0 0.1 0 0.1 0 0 0 0 0c0 0-0.1 0-0.1 0z"/><path class="a" d="m10.7 6.7q0 0 0 0z"/><path class="a" d="m11.3 5.3c0 0 0.1 0 0.1 0q-0.1 0-0.2 0c0.1 0 0.1 0 0.1 0z"/><path class="a" d="m10.4 1.4q0.1 0 0.1 0l0.1-0.1q-0.1 0-0.1 0c-0.1 0 0 0.1-0.1 0.1z"/><path class="a" d="m10.8 3.5q0 0 0.1 0 0 0 0 0 0 0-0.1 0 0 0 0 0z"/><path class="a" d="m10.9 4.2l0.1-0.1q0 0 0 0 0 0 0 0 0 0 0 0-0.1 0-0.1 0.1z"/><path class="a" d="m10.7 3q0 0.1 0 0.1 0.1-0.1 0.1-0.1-0.1 0-0.1 0 0 0 0 0z"/><path class="a" d="m10.5 2.3q0 0 0 0c0.1 0-0.1 0 0 0q0 0 0 0 0 0 0 0z"/><path class="a" d="m11.1 4.9c0.1 0 0.1 0 0.2 0q0-0.1-0.1 0c-0.1 0 0 0 0-0.1-0.1 0 0 0.1-0.1 0.1z"/><path class="a" d="m11 7.6h-0.1q0 0 0 0c0 0 0 0 0.1 0z"/><path class="a" d="m10.9 7.6z"/><path class="a" d="m10.9 7.6z"/><path class="a" d="m11.3 5.3z"/><path class="a" d="m11.2 5.3q0 0 0 0.1 0 0 0.1-0.1h0.1-0.1q0 0-0.1 0z"/><path class="a" d="m11.3 5.3z"/><path class="a" d="m11.3 5.3z"/><path class="a" d="m10.6 3.4z"/><path class="a" d="m10.6 3.4q0 0 0 0h0.1q0 0 0 0h-0.1z"/><path class="a" d="m10.6 3.4z"/><path class="a" d="m10.9 3.6q0 0 0 0 0 0 0 0 0 0 0 0z"/><path class="a" d="m11.4 6.7c0 0 0 0 0 0-0.1 0-0.1 0.1 0 0.1v-0.1q0 0 0 0z"/><path class="a" d="m11.3 6.9c0.1 0 0.1-0.1 0.1-0.1h-0.1q0 0.1 0 0.1 0 0 0 0z"/><path fill-rule="evenodd" class="a" d="m10.1 0.3c0 0 0.1 0 0.1 0.1q-0.1 0-0.1 0 0 0 0.1 0c0.1 0 0 0.1 0.1 0 0 0.1 0.1 0.1 0.1 0.1 0 0 0 0 0 0-0.1 0-0.1 0-0.1 0q0 0 0 0 0 0 0 0h-0.1 0.1q0 0.1 0 0.1 0 0 0 0.1c0 0 0 0 0 0 0 0 0 0 0 0q0.1 0 0.1 0 0 0 0 0c0 0 0 0.1 0 0.1q0 0 0 0.1 0-0.1 0.1-0.1 0.1 0 0.1 0-0.1 0-0.1 0.1 0 0 0.1 0c0 0-0.1 0.1-0.1 0.1q0.2 0 0 0 0 0 0 0c0.1 0 0 0 0 0q0 0 0 0 0 0 0 0.1h-0.2l0.1-0.1h-0.1v0.1q0 0 0 0h-0.8q0 0 0-0.1 0 0 0 0v0.1q0-0.1 0-0.1c0.1 0 0 0 0 0q0.1 0 0.1-0.1 0 0 0 0 0 0 0 0-0.1 0-0.1 0 0 0 0 0 0-0.1 0-0.2 0 0 0 0 0-0.1 0.1-0.2 0 0-0.1 0 0 0 0 0 0 0 0 0c0 0 0.1 0 0-0.1 0 0 0 0 0 0q0 0 0.1 0c-0.1 0 0 0 0.1 0 0 0 0.1 0 0.1 0q0 0 0 0 0 0 0 0 0 0 0.1 0 0 0 0 0 0 0 0 0c0 0 0.1 0 0.1 0q0 0 0 0 0-0.1 0.1-0.1zm0.1 0.7q0 0-0.1 0 0 0 0.1 0 0 0 0 0zm0.2 0q0 0 0.1 0 0 0 0 0c-0.1 0 0 0 0 0q0 0-0.1 0zm-0.1-0.1q0 0 0 0 0 0 0 0 0 0 0 0 0 0-0.1 0 0 0 0 0 0 0 0.1 0 0 0 0 0 0 0.1 0.1 0.1 0-0.1 0-0.1 0 0 0 0h-0.1zm0 0c-0.1 0-0.1 0-0.1 0 0 0.1 0 0 0 0 0.1 0 0 0 0.1 0z"/><path class="a" d="m9.7 0.3q0 0 0 0h0.1q0 0-0.1 0z"/><path class="a" d="m9.3 12.1q0 0 0 0.1 0-0.1 0-0.1 0 0 0 0z"/><path fill-rule="evenodd" class="a" d="m9.1 11.4l0.1-0.2q0 0.1 0 0.1c0 0 0.1-0.1 0.1 0q0 0 0.1 0c0 0 0 0-0.1 0 0 0.1 0 0.1 0 0.1q0 0 0 0-0.1 0.1-0.1 0.1 0.1 0 0.1 0c0 0 0.1-0.2 0.1-0.2q0 0 0 0c0.1-0.1 0.1 0 0.1 0q0 0 0 0 0 0 0 0 0 0 0-0.1 0 0 0 0 0 0 0.1 0 0 0.1 0.1 0.2 0 0 0 0 0.1 0 0.1 0-0.1 0-0.1 0.1 0-0.1 0-0.1 0 0 0 0 0 0 0 0.1 0 0 0 0 0 0 0 0 0 0 0 0 0 0 0 0c0 0 0 0.1 0 0.1 0 0-0.2 0.2-0.1 0.1 0 0 0 0.1 0 0.1q0 0 0 0 0 0.1 0 0.1 0 0 0 0 0 0 0 0 0 0 0 0 0 0 0 0 0 0 0 0.1-0.1 0.1-0.2 0.2c0 0-0.1 0-0.1 0q0.1 0 0 0 0 0 0 0 0 0 0 0 0 0 0 0 0 0 0 0-0.1 0-0.1 0 0 0 0.1 0 0-0.1 0-0.1 0 0.1 0 0.1 0 0 0 0 0-0.1 0-0.1 0 0 0 0 0 0 0 0 0 0 0 0.1-0.1 0-0.1 0 0 0 0 0c0-0.1 0-0.1-0.1-0.1q0 0 0 0 0 0 0 0 0 0 0 0 0 0 0.1 0 0 0 0-0.1 0 0 0 0c0 0-0.1 0.1-0.1 0q0 0 0 0 0 0 0 0.1 0 0-0.1 0 0 0 0 0c-0.1 0 0-0.1-0.1-0.1q0 0 0 0 0 0 0 0c-0.1 0 0 0 0 0q0 0 0 0-0.1 0-0.1 0 0 0 0 0 0 0 0.1 0-0.1 0-0.1 0 0 0 0 0c0 0-0.1 0 0 0q0 0 0-0.1 0 0.1 0 0.1 0 0-0.1 0 0 0 0.1-0.1 0 0 0 0 0 0 0-0.1 0 0 0 0 0.1-0.1 0.1-0.1l0.1-0.2q0 0 0 0 0 0 0 0.1 0-0.1 0-0.1c0 0 0.1 0 0.1-0.1zm0.3 0.3q0 0 0 0 0.1 0 0.1 0 0 0 0 0-0.1 0-0.1 0zm-0.1 0q0 0 0 0 0 0 0.1 0 0 0 0 0 0 0 0 0c-0.1 0 0-0.1 0 0q-0.1 0-0.1 0zm-0.2-0.2c0 0.1 0 0 0 0 0 0.1 0 0 0 0q0 0 0 0 0 0 0 0z"/><path class="a" d="m9.2 11.2c0.1 0 0 0.1 0.1 0q0 0 0 0 0 0 0 0c0.1 0 0 0 0-0.1q0 0 0 0 0 0 0 0.1c-0.1 0 0 0 0-0.1q0 0 0 0l-0.1 0.1q0 0 0 0z"/><path class="a" d="m9.3 11.2c0 0 0.1 0.1 0.1-0.1q0 0.1-0.1 0.1 0 0 0 0z"/><path class="a" d="m9.4 11.1q0 0 0 0 0 0 0 0 0 0 0 0z"/><path class="a" d="m9.5 11.1q-0.1 0-0.1 0 0 0 0.1 0 0 0 0 0z"/><path class="a" d="m9.4 11.3q0 0 0-0.1 0 0 0 0 0 0 0 0c0 0 0 0 0 0.1z"/><path class="a" d="m8.8 11.9q0 0 0 0 0 0 0 0z"/><path fill-rule="evenodd" class="b" d="m8.1 10.7q0 0 0 0c0.1 0 0 0.1 0 0.1q0.1 0 0.1 0 0 0 0 0 0 0 0 0c0.1-0.1 0.1 0 0.1-0.1q0 0 0 0 0 0.1 0.1 0.1 0 0-0.1 0 0 0 0 0c0 0.1 0 0.1 0 0.1q0 0.1 0 0.1 0-0.1 0-0.1 0 0 0 0 0 0 0.1 0 0 0-0.1 0 0 0.1 0 0.1 0 0 0 0 0 0 0 0 0-0.1 0-0.1c0.1 0 0 0.1 0.1 0.1q-0.1 0-0.1 0.1 0 0 0-0.1c0 0-0.1 0.1-0.1 0.1q0-0.1 0-0.1 0 0 0 0 0 0 0 0 0 0 0 0c0 0 0-0.1 0 0q-0.1 0-0.1 0.1 0 0 0 0 0-0.1 0-0.1c0 0 0 0 0 0-0.1 0 0-0.1-0.1-0.1q0 0 0 0 0 0 0-0.1 0 0 0 0 0-0.1 0-0.1 0 0 0 0c0.2-0.2 0.1 0 0.1 0 0-0.1 0 0 0 0zm0 0.2q0 0 0 0 0 0 0 0c0.1 0 0.1 0 0.1 0q-0.1 0-0.1 0zm0-0.1q0-0.1 0-0.1 0 0 0 0c-0.1 0 0 0-0.1 0.1 0 0 0 0.1 0.1 0z"/><path class="a" d="m5.6 8.7q0 0 0 0 0 0 0 0 0 0 0 0 0 0 0 0z"/><path class="a" d="m7.7 10.5q0 0 0 0 0 0 0 0 0 0 0 0z"/><path class="a" d="m4.2 8q0 0 0 0 0 0 0 0z"/><path fill-rule="evenodd" class="a" d="m2 6.5l0.1-0.1q0 0.1-0.1 0.1 0 0 0.1 0 0 0 0 0 0-0.1 0-0.1 0.1 0 0.1-0.1c-0.1 0.2 0 0 0 0 0 0.1 0.1 0 0.1 0.1-0.1 0.1-0.1 0.2 0 0.1q-0.1 0-0.1 0.1c0 0 0 0 0 0 0 0 0.1 0 0.1 0q0 0 0 0 0 0 0 0c0.1 0 0.1 0 0.1 0 0 0 0 0.1 0 0.1q0 0 0 0 0 0 0.1 0c0-0.1 0-0.1 0-0.1 0 0.1 0.1 0 0.1 0.1q0 0.1 0.1 0 0 0.1-0.1 0.1c0 0.1 0 0.1 0 0.2q0 0 0 0 0 0 0 0 0 0 0 0c0 0 0 0 0-0.1 0.1-0.1 0.1 0.1 0.2-0.1q0 0.1 0 0.1 0 0 0 0 0 0 0 0 0 0 0 0 0 0 0 0 0 0 0 0 0 0 0 0 0 0 0 0c0 0.1 0.1-0.1 0.1 0q0 0 0 0 0 0 0 0.1c-0.1 0.1 0 0 0 0.1q0 0-0.1 0.1 0.1-0.1 0.1-0.1 0 0 0-0.1c0.1 0 0.1 0 0.1 0.1 0 0 0 0 0 0q0 0 0 0.1 0.1 0 0.1 0c0.1-0.2 0.1-0.1 0.1 0q0 0.1 0 0c0.1 0 0 0.1 0 0.1q0 0 0.1 0c-0.1 0-0.1 0 0 0 0-0.1 0 0 0-0.1 0 0 0.1 0 0 0.1 0 0 0 0.1 0 0.1q0.1 0 0.2-0.1 0 0 0 0.1 0 0-0.1 0 0 0 0 0.1 0-0.1 0-0.1c0.1 0 0 0.1 0.1 0.1q0-0.1 0-0.1 0 0 0 0c0 0 0 0 0 0q0-0.1 0 0c0 0 0.1 0 0.1 0 0 0.1 0 0.1 0 0.1q0 0 0 0 0 0 0 0c0.1 0 0 0 0.1-0.1q0 0 0 0 0 0 0 0.1c0 0 0 0 0 0 0.1 0 0 0.1 0.1 0.1q0 0 0 0.1c0 0 0 0 0 0q0.1-0.1 0.1-0.1c0 0 0 0.1 0 0.1 0 0 0 0 0 0 0.1 0 0.1 0 0.1 0 0.1 0 0.1 0 0.2 0.1 0 0-0.1 0-0.1 0q0.1 0 0.2 0 0 0 0 0 0 0 0 0 0 0 0 0.1-0.1 0-0.1 0 0 0 0 0 0 0.1 0 0.1c0 0 0.1-0.1 0.1-0.1 0 0 0 0 0 0.1q0 0 0 0c0.1-0.1 0.1 0 0.1-0.1 0 0.1 0.1 0 0.1 0.1-0.1 0 0 0 0 0q0 0 0.1-0.1 0 0 0 0 0 0.1 0 0.1 0 0 0 0.1 0 0 0 0-0.1 0-0.1 0.1 0 0 0 0.1 0-0.1 0-0.1c0-0.1 0.1 0 0.1-0.1 0 0 0 0 0 0 0.1 0 0.1 0 0 0.1q0.1 0 0.1-0.1 0 0 0 0 0 0 0 0 0 0 0 0 0 0 0 0c0 0 0.1-0.1 0.1 0q0 0 0 0 0 0 0 0 0 0 0 0-0.1 0-0.1 0.1 0 0 0.1 0 0 0 0 0 0 0 0-0.1c0 0 0 0 0 0q0.1 0 0 0c0 0.2 0.1 0 0.1 0.1q0 0 0 0 0 0 0 0 0 0 0 0 0 0-0.1 0 0 0.1 0 0.1c0.1-0.1 0.1 0 0.1 0q0 0 0 0 0 0 0 0 0 0 0 0 0 0 0.1 0 0 0 0 0 0 0 0 0 0 0 0 0 0 0 0 0 0.1 0 0 0.1 0 0 0 0 0 0 0 0c0 0 0 0 0-0.1 0 0 0.1 0 0.1 0q0 0 0 0 0 0 0 0 0 0-0.1 0 0 0.1 0 0.1 0 0 0 0c0.1 0 0.1-0.1 0.1 0 0 0 0.1 0 0.1 0q0 0 0-0.1 0 0 0 0 0 0 0 0 0 0 0 0 0 0.1 0 0.1 0 0 0 0c0-0.1 0.1-0.1 0 0q0 0 0 0 0 0 0 0 0 0 0 0 0 0.1-0.1 0.1 0.1 0 0.1 0 0 0 0 0c0 0 0.1 0 0 0q0 0 0 0.1 0 0 0-0.1 0 0 0 0c0 0 0.1 0 0.1 0q0 0 0 0 0 0.1 0 0.1c0 0 0.1-0.1 0-0.1q0 0 0.1 0 0 0 0 0c0 0.1 0 0 0 0 0.1-0.2 0.1 0.1 0.2 0q0 0 0 0-0.1 0-0.1 0 0 0.1 0 0.1 0 0 0 0c0-0.1 0 0.1 0.1-0.1q0 0 0 0 0 0 0.1 0-0.1 0-0.1 0.1 0 0-0.1 0 0 0.1 0 0.1 0 0 0.1-0.1 0 0 0 0 0 0 0 0c0 0.1-0.1 0.1 0 0.1 0-0.1 0 0 0 0q0 0 0 0 0 0 0 0-0.1 0-0.1 0.1 0 0 0-0.1 0 0 0 0 0 0 0 0 0 0 0 0 0 0.1-0.1 0.1 0 0 0 0 0 0 0 0 0 0 0 0 0 0.1 0 0.1c0.1-0.1 0.1-0.1 0.1-0.1 0 0-0.1 0.1-0.1 0.1 0 0 0.1-0.1 0.1 0q-0.1 0-0.1 0.1 0.1 0 0.1-0.1 0.1 0 0.1-0.1-0.1 0-0.1 0 0 0 0 0.1 0 0 0 0 0 0 0 0 0 0 0-0.1c0 0 0.1-0.1 0.1-0.1q0 0 0 0 0 0 0 0c0 0 0 0 0 0 0 0.1 0.1 0 0.1 0q0-0.1 0-0.1c0 0.1 0 0.1 0 0.1 0 0.1 0.1 0 0 0.2 0.1-0.2 0 0 0 0q0 0 0 0 0.1 0 0.1 0c0-0.1 0-0.1 0-0.1q0.1 0 0 0 0.1 0.1 0.1 0.1c0 0 0-0.1 0.1-0.1 0.1-0.1-0.1 0.1 0 0.1-0.1 0.1 0 0 0 0q0 0 0 0c0 0 0 0.1 0 0.1 0 0 0.1 0 0.1 0 0 0 0 0 0 0q0 0 0-0.1c0 0.1 0.1 0.1 0.1 0.1q-0.1 0.1 0 0 0 0 0 0 0 0 0 0 0 0 0 0 0 0 0 0.1c0 0 0 0.1 0 0.1 0 0-0.1 0.1 0 0q0 0 0.1-0.1 0 0 0 0c0 0 0 0 0 0q0 0 0 0 0 0 0 0c0.1 0 0.1 0.1 0 0.1 0.1 0 0.1 0.1 0.1 0q0 0 0 0c0 0.1 0.1 0.1 0.2 0.1q0 0.1 0 0.1 0.1 0 0.1-0.1 0.1 0 0.1 0c0 0 0 0 0 0q0 0.1 0 0.1 0 0 0 0 0-0.1 0-0.1 0 0 0 0.1 0 0-0.1 0 0 0 0 0.1c0.1-0.1 0 0 0 0q0.1 0 0.1 0 0.1 0 0.1 0.1c0.1-0.2 0.1 0 0.1-0.1q0 0 0 0c-0.1 0.2 0 0.1 0 0.1q0 0 0 0 0 0 0 0 0 0 0 0 0.1 0 0.1 0 0 0 0 0-0.1 0.1-0.1 0.1 0 0 0.1-0.1 0 0 0 0-0.1 0.1 0 0.1c0 0 0 0 0 0q0.1 0 0.2 0 0 0 0 0 0 0 0 0 0-0.1 0-0.1 0.1 0 0.1 0.1 0-0.1-0.1 0 0 0 0 0-0.1 0-0.1 0 0 0 0 0.1c0 0 0.1 0 0 0 0.1 0 0 0.1 0.1 0q0 0 0 0c0 0.1 0.1 0.1 0.1 0.2 0 0 0.1 0 0.1-0.1 0 0 0.1 0 0.1 0 0 0-0.1 0.1-0.1 0.1 0.1 0 0.1-0.1 0.1-0.2q0 0 0.1 0 0 0 0 0 0 0 0 0 0 0 0 0 0 0 0 0 0 0 0 0 0 0 0 0c0 0.1 0 0 0 0q0 0 0 0c0 0 0 0 0.1 0q0 0 0 0 0 0 0 0c-0.1 0.1 0 0 0 0 0 0.1 0.1 0.1 0.1 0.1 0 0.1 0 0 0.1 0q0 0.1-0.1 0.1c0 0.1 0.1 0 0.1 0 0.1 0 0 0.1 0 0.1 0.1-0.1 0 0 0 0q0 0 0 0 0 0 0 0 0 0 0 0 0.1 0 0.1-0.1c0 0.1 0 0.1 0 0.1q0 0.1 0.1 0.1c0 0 0.1-0.1 0 0 0 0 0.1 0 0.1 0q0 0 0 0.1c0-0.1 0 0 0 0q0 0 0 0 0 0 0 0 0 0 0 0 0 0 0.1 0 0 0 0 0 0 0 0 0 0.1 0.1 0.1 0.1 0.1 0.1 0.1 0.1 0.1 0 0.1 0.1 0 0 0.1 0 0.1 0 0.1 0.1c0 0.1 0.1 0.1 0 0.1 0 0.1 0.1 0 0.1 0 0 0.1 0.1 0 0.1 0.1 0 0-0.1 0.1 0 0.1 0 0 0 0.1 0 0.1 0 0 0 0 0 0q0 0.1 0 0.2 0 0 0 0c0.1-0.1 0.1-0.1 0.1 0l-0.2 0.2q0.1-0.1 0-0.1c0 0 0-0.1-0.1-0.1q0 0 0 0 0 0 0 0c-0.1 0.1 0 0.1 0 0.1q0 0 0 0 0 0-0.1 0.1c0.1 0 0.1 0.1 0.1 0q0 0 0.1 0 0 0-0.1 0 0 0 0 0.1 0 0 0 0c0.1-0.1 0.1-0.1 0.1-0.1l-0.2 0.3c0 0 0 0 0 0q0 0 0 0.1 0 0 0 0-0.1 0-0.1 0c0 0 0 0 0 0.1q0 0-0.1 0 0 0 0 0 0 0 0 0c0.1-0.1 0 0 0-0.1q0.1 0 0.1 0 0-0.1-0.1 0 0 0.1 0 0c0 0-0.1 0-0.1 0 0 0 0 0 0 0q0 0 0 0c0-0.1-0.1 0.1 0 0q0 0-0.1 0c-0.1 0 0.1-0.1 0-0.1q0.1-0.1 0 0 0 0 0 0 0 0 0-0.1 0 0 0 0.1 0 0 0 0 0.1-0.1 0.1-0.1-0.1-0.1-0.1-0.1 0 0 0 0 0 0 0 0c0 0 0 0 0 0.1 0 0-0.1 0-0.1 0-0.1 0.1 0-0.1-0.1 0q0 0 0 0 0 0 0 0c0.1 0 0.1 0 0 0.1q0-0.1 0-0.1c-0.1 0 0 0 0 0 0 0 0 0-0.1 0q0 0 0 0 0 0 0.1-0.1 0 0 0 0-0.1 0-0.1 0c0 0 0 0-0.1 0-0.1 0.1-0.1-0.1-0.1-0.2 0-0.1 0 0.1 0 0 0-0.1-0.1 0-0.1 0-0.1 0.1 0 0 0 0-0.1 0.1-0.1 0-0.1 0q0 0 0 0c0.1-0.1-0.1 0.1 0 0-0.1 0 0-0.2-0.1-0.1 0.1 0 0 0 0-0.1q0 0 0 0 0 0 0.1 0 0 0 0-0.1 0 0-0.1 0.1 0 0 0 0 0 0 0-0.1 0 0 0.1-0.1 0 0 0 0-0.1 0-0.1 0 0 0 0 0.1 0 0-0.1 0c0 0.1-0.1 0.1 0 0q0 0 0 0 0 0-0.1 0 0.1 0 0.1 0 0 0 0-0.1 0 0 0 0 0 0 0 0 0 0.1 0 0.1 0 0 0 0c0-0.1 0-0.1-0.1-0.1q0 0 0 0 0 0 0 0-0.1 0.1-0.1 0.1 0 0-0.1 0c0.1 0 0 0 0.1-0.1q0 0 0 0 0 0 0 0-0.1 0.1-0.1 0.1 0-0.1 0-0.1 0 0 0 0 0-0.1 0-0.1 0 0 0 0 0 0 0 0c0 0 0 0 0 0 0 0-0.1 0-0.1 0.1q0 0 0 0c-0.1 0-0.1 0-0.1 0 0-0.1 0 0 0 0q0-0.1 0-0.1 0 0 0 0 0 0 0 0 0 0 0 0.1 0-0.1 0-0.1 0 0 0 0 0 0 0 0 0 0 0 0 0 0 0.1 0 0 0 0 0 0 0 0-0.1 0 0 0 0 0 0 0 0c0-0.1 0 0 0 0q0 0 0 0 0 0 0-0.1 0 0-0.1 0 0 0 0 0 0 0 0 0.1c0 0-0.1 0-0.1 0.1q0 0 0-0.1 0 0 0.1 0 0 0 0 0 0 0-0.1 0 0 0 0 0.1 0 0 0 0 0 0 0 0 0-0.1 0-0.2c-0.1 0.2-0.1 0-0.1 0 0-0.1 0 0 0 0-0.1 0.1-0.1 0-0.1 0-0.1 0-0.1 0-0.1 0q0 0 0-0.1 0 0 0 0 0 0 0 0.1 0-0.1 0-0.1 0 0-0.1 0c0 0 0 0 0 0 0.1-0.1 0 0 0 0q0 0 0 0 0 0 0 0 0-0.1 0-0.1 0 0 0 0 0 0 0 0 0 0.1 0 0.1 0 0 0-0.1c0 0 0 0 0 0q0 0 0 0 0 0 0 0 0-0.1 0-0.1 0 0 0-0.1 0 0 0 0 0 0 0 0 0 0 0 0 0 0 0 0 0 0 0 0 0 0 0 0c0 0-0.2 0.1-0.1 0.1q0 0 0 0 0 0 0 0c-0.1 0.1 0 0.1-0.1 0.2 0 0 0-0.1 0.1-0.1q0 0 0-0.1 0 0.1-0.1 0.1 0 0 0 0 0 0 0-0.1 0 0 0.1 0 0 0 0 0-0.1 0-0.1 0 0 0.1 0 0.1 0 0 0 0c0-0.1 0-0.1-0.1 0q0 0 0 0 0-0.1 0-0.1 0 0 0 0 0 0 0 0c0 0 0.1 0 0.1-0.1q0 0 0 0 0 0 0 0c-0.1 0.1-0.1 0.1-0.1 0.1-0.1 0-0.1 0-0.1 0q0 0 0 0 0 0 0 0 0 0 0 0 0 0 0 0 0 0 0 0-0.1 0 0-0.1 0 0 0 0 0 0 0 0 0 0 0 0 0 0 0 0 0 0 0-0.1 0 0.1 0 0.1 0 0 0 0 0 0 0 0c0-0.1 0 0 0-0.1q0 0 0 0 0 0 0 0 0 0 0 0-0.1 0.1-0.2 0.1c0 0 0.1 0 0.1 0q0 0 0 0c-0.1 0.1-0.1-0.1-0.1 0q0 0 0 0c0-0.1-0.1 0 0-0.1q-0.1 0-0.1 0 0 0-0.1 0 0-0.1-0.1-0.1c0 0-0.1 0-0.1-0.1 0-0.1-0.1 0-0.1-0.1 0 0-0.1 0.1-0.1 0 0.1-0.2 0 0-0.1-0.1 0 0 0 0-0.1 0q0 0 0.1-0.2 0 0 0 0-0.1 0-0.1 0 0 0.1 0 0.1 0 0 0-0.1 0 0 0 0 0 0 0 0.1c-0.1 0.1 0-0.1-0.1 0q0 0-0.1-0.1c0 0 0.1 0 0.1 0-0.1-0.1-0.1 0-0.1-0.1-0.1 0-0.1 0.1-0.1 0-0.1 0.1 0-0.1 0-0.1q0 0 0 0.1c0 0 0 0 0 0q-0.1 0-0.1-0.1 0 0 0 0 0 0 0 0 0 0 0 0 0 0 0 0c0 0 0-0.1 0-0.1 0 0-0.1 0.1-0.1 0.1q0 0 0 0 0-0.1 0.1-0.1 0 0 0 0 0 0 0 0 0 0 0-0.1-0.1 0-0.1 0 0 0.1 0 0.1c0.1-0.1 0.1 0 0.1 0-0.1 0-0.1 0.1-0.1 0 0 0 0 0 0 0 0-0.1 0 0-0.1 0 0 0.1 0 0 0 0 0 0 0-0.1 0-0.1q0 0.1 0 0.1c-0.1 0-0.1 0-0.1-0.1 0 0 0 0-0.1 0 0 0-0.1 0 0-0.1q0 0 0 0c-0.1 0.1 0 0 0 0-0.1 0-0.1 0-0.1 0q-0.1-0.1-0.2-0.1c0 0 0-0.1 0 0q0-0.1 0-0.1-0.1 0-0.1 0 0 0 0 0c0-0.1 0 0-0.1 0q0-0.1-0.1-0.1 0 0-0.1-0.1 0 0-0.1 0c0.1-0.1 0.1-0.1 0-0.1 0 0.1 0-0.1-0.1 0q0 0 0-0.1c0 0 0 0 0 0-0.1 0-0.1 0-0.2-0.1q0 0 0 0 0 0 0 0 0-0.1 0-0.1c0 0 0 0 0 0.1q0 0 0 0 0-0.1 0-0.1-0.1 0-0.1 0 0 0 0 0-0.1 0-0.1 0c0-0.1-0.1-0.1-0.2-0.1 0-0.1-0.1-0.1-0.1-0.2 0 0 0 0-0.1 0 0 0 0-0.1 0-0.1 0 0.1 0 0 0 0 0-0.1-0.1 0-0.1-0.1 0 0-0.1 0-0.1 0 0 0 0-0.1 0 0q-0.1 0-0.1-0.1 0-0.1-0.1 0 0-0.1 0-0.1 0 0-0.1 0-0.1 0-0.1-0.1c-0.1 0-0.1-0.1-0.2-0.1 0-0.1-0.1 0 0-0.1q0 0 0 0 0 0-0.1 0 0 0 0 0 0 0 0 0 0 0 0 0 0 0 0-0.1-0.1 0.1-0.1 0.1 0 0 0 0-0.1 0-0.1 0 0.1-0.1 0.1-0.1zm2.1 1.4c0 0.1 0 0-0.1 0q0 0 0.1 0 0 0 0 0 0 0 0 0 0 0 0 0 0 0 0 0-0.1 0-0.1 0 0 0 0.1-0.1c-0.1 0-0.1 0.2-0.2 0.2q0.1 0 0.1 0c0.1 0 0.1 0.1 0.2-0.1q0 0-0.1 0zm-0.2 1q0 0 0 0zm3.8 2.3q0 0 0 0 0 0 0 0c0 0 0 0.1 0 0.1 0 0 0-0.1 0-0.1zm0.6 0q0 0 0 0c0-0.1 0 0 0-0.1q0 0 0 0-0.1 0.1 0 0.1 0 0 0 0 0 0 0 0 0 0 0 0 0 0 0 0zm0.5 0q0-0.1 0-0.1 0 0-0.1 0 0 0.1 0 0.1c0 0 0 0 0.1 0zm0 0.1q-0.1 0.1-0.1 0.1c0 0.1 0.1 0 0.1 0.1q0-0.1 0-0.1c0-0.1-0.1 0 0-0.1zm0.1-0.1q0 0 0 0 0 0 0 0 0-0.1 0-0.1 0 0 0 0 0 0 0 0c0 0.1 0 0 0 0.1zm-0.1 0q0 0-0.1 0 0.1 0 0.1 0.1 0 0 0-0.1 0 0 0 0zm0-0.4q0 0 0 0.1 0 0 0-0.1 0 0 0 0 0 0 0 0 0 0 0 0c0 0.1 0 0.2 0.1 0.2q0 0 0 0 0 0 0 0 0 0 0 0 0 0 0 0 0 0 0 0 0 0 0 0 0 0 0 0c0 0-0.1 0 0-0.1q0 0-0.1-0.1c0 0 0 0 0 0q0 0 0 0 0 0 0 0zm-0.2-0.1q0 0 0 0 0 0 0 0 0.1 0 0.1 0 0-0.1 0-0.1 0 0 0 0c-0.1 0.1-0.1 0.1-0.1 0.1q0 0 0 0zm-0.2 0.3q0-0.1 0-0.1 0 0.1 0 0.1 0 0 0 0 0 0 0 0 0 0 0 0 0 0-0.1 0c0 0 0 0 0.1-0.1q0 0 0 0 0 0 0 0 0 0-0.1 0c0 0.1 0 0.1 0 0.1 0 0 0 0.1 0 0.1 0 0 0.1 0 0.1 0 0 0.1 0.1 0 0.1 0.1q0 0 0 0 0 0 0-0.1 0.1 0 0.1 0 0 0 0 0 0 0 0 0 0 0 0 0 0 0 0 0 0 0 0 0 0-0.1 0-0.1 0 0 0 0c0 0 0 0.1 0.1 0q0 0 0-0.1 0 0 0 0 0 0 0 0 0 0 0 0 0 0 0 0 0 0 0 0 0 0 0 0c-0.1 0 0 0.1-0.1 0.1 0-0.1-0.1 0.1-0.1 0.1 0 0 0-0.1-0.1-0.1q0 0 0 0 0 0 0 0 0.1 0 0.1 0c-0.1 0.1 0-0.1 0.1 0q0 0 0 0 0 0 0 0-0.1 0 0-0.1 0 0 0 0 0 0 0 0 0 0 0 0c0 0 0-0.1 0-0.1q0.1 0 0.1 0 0 0-0.1 0 0 0 0 0.1 0 0 0 0 0 0 0 0c0 0-0.1 0.1-0.1 0q0 0 0 0 0 0-0.1 0c0 0.1 0 0 0 0.1q0 0 0 0zm0-0.3q0.1 0 0.1 0 0 0.1 0 0.1 0 0 0 0 0 0 0 0 0-0.1 0-0.1 0 0 0 0 0 0 0 0 0 0-0.1 0zm0 0.2c0 0 0-0.1 0.1-0.1 0 0 0 0 0 0 0 0 0 0 0 0 0 0-0.1 0-0.1 0.1zm0.1-0.1q0 0 0 0 0 0 0 0zm-0.1-0.1q0 0 0 0 0 0 0-0.1c0 0.1 0.1 0 0.1 0.1q0-0.1 0-0.1c0 0 0-0.1 0-0.1q0 0 0 0 0 0 0 0 0 0 0 0c0 0 0 0 0 0.1q0 0-0.1 0c0 0 0 0 0 0-0.1 0.1 0 0 0 0.1zm-0.1-0.1c0 0 0.1-0.1 0.1 0q0-0.1 0-0.2 0 0.1-0.1 0.1c0 0 0 0.1 0 0.1zm-0.2 0c0 0.1 0 0 0 0-0.1 0.1 0-0.1-0.1 0q0 0.1 0 0.1 0 0 0 0 0 0.1 0 0.1-0.1 0-0.1 0.1 0 0 0.1 0c0 0 0 0.1 0.1 0-0.1 0.1 0 0.1 0 0.1q0 0-0.1 0 0.1 0 0.1 0 0 0 0 0c0.1-0.1 0 0 0.1-0.1q0 0 0 0 0 0.1-0.1 0.1 0 0 0 0 0 0 0 0c0.1 0 0.2-0.1 0.2 0q0 0-0.1 0.1 0.1-0.1 0.1-0.2c0 0.1 0 0 0 0q0 0 0 0 0 0 0 0 0 0-0.1 0 0.1 0 0.1 0 0 0 0 0 0 0 0 0 0 0 0 0 0 0-0.1 0 0 0 0 0c0.1 0 0.1-0.1 0.1-0.1q0 0 0 0 0 0 0 0 0-0.1 0-0.1 0 0 0 0c-0.1 0.1-0.1 0-0.1 0.1q0 0 0 0 0 0 0 0-0.1 0-0.1-0.1c0 0 0 0 0 0q0 0 0-0.1zm0-0.3q-0.1 0-0.1 0c0 0.1 0 0 0 0q0 0 0 0 0 0 0 0 0 0 0 0c0 0.2 0.1 0.1 0.1 0.2q0-0.1 0-0.1 0 0 0 0 0 0 0 0.1c0 0 0.1 0 0 0.1q0 0 0 0 0 0 0 0c0-0.1 0.1-0.1 0.1-0.1q0 0 0-0.1 0 0 0 0c0 0 0-0.1 0-0.1 0 0.1 0 0 0 0-0.1 0.1-0.1 0.1-0.2 0q0 0 0 0c0 0 0.1 0 0.1 0q0 0 0 0 0 0 0 0 0 0 0 0 0 0-0.1 0 0 0 0.1 0zm-0.3 0.4q0 0 0 0c0 0 0 0 0 0 0 0 0.1-0.1 0-0.1 0 0 0 0.1 0 0.1zm-0.2-0.1q0 0 0 0c0 0 0 0 0.1-0.1 0 0 0 0.1 0 0 0 0 0 0 0 0q0 0 0 0c0-0.1 0 0 0.1-0.1q0 0 0 0c-0.1 0.2-0.1 0.2-0.1 0.3q0 0 0.1-0.1 0 0 0 0 0 0 0-0.1 0-0.1 0.1-0.2 0 0 0 0c0 0 0 0.1 0 0q0 0 0 0 0 0 0 0c0-0.1 0-0.1 0-0.2 0 0 0 0.1-0.1 0.1q0 0 0 0.1c0 0 0.1-0.1 0.1-0.1 0 0-0.1 0.1 0 0.1-0.1 0-0.1 0.1-0.2 0.1 0 0 0 0 0 0q0 0 0 0.1 0 0 0 0 0 0 0 0 0 0 0 0 0 0 0 0 0 0 0 0-0.1 0-0.1 0.1zm0.1-0.3q-0.1 0-0.1 0c0 0-0.1 0-0.1 0q0 0-0.1 0 0 0 0 0 0 0 0 0 0 0.1 0.1 0.1 0 0 0 0 0 0 0 0 0 0 0 0 0 0 0 0 0 0 0 0 0 0 0 0 0 0.1 0 0.1 0-0.1 0-0.1 0.1 0 0.1 0 0 0 0 0.1 0 0 0 0 0 0 0 0c0 0 0-0.1 0-0.1q-0.1 0.1-0.1 0.2 0 0 0 0c0.1-0.1 0.1-0.2 0.2-0.3zm0-0.4c0 0.1-0.1 0.1 0 0.2 0 0-0.1 0.1 0 0.1 0 0 0-0.1 0-0.1q0 0 0 0.1 0 0 0 0c0 0 0-0.1 0.1-0.1q0 0 0 0c0 0 0-0.1-0.1 0 0-0.1 0-0.1 0-0.1q0 0 0 0c0-0.1 0 0 0.1 0q0 0 0 0 0-0.1 0-0.1-0.1 0-0.1 0zm-0.2 0.1q0 0 0 0 0 0 0 0c0.1 0 0.1 0 0.1 0.1 0 0 0-0.1 0 0q0 0 0.1-0.1 0 0-0.1 0 0 0 0-0.1 0.1 0 0.1 0 0 0 0 0c-0.1 0-0.1 0-0.1 0q0 0-0.1 0.1zm-0.4 0.1q0 0.1 0 0.1 0 0 0 0 0 0 0.1 0-0.1 0-0.1 0 0 0 0 0 0 0 0 0 0 0 0 0 0 0 0 0.1c0-0.1 0 0 0.1 0 0 0 0 0 0 0q-0.1 0.1-0.1 0.1 0 0 0 0 0 0 0 0c0 0 0.1-0.1 0.1-0.1 0 0 0-0.1 0-0.1 0 0 0 0.1 0.1 0q0 0 0 0 0 0 0 0c0-0.1 0 0 0 0q-0.1 0-0.1-0.1c0-0.1-0.1 0.1-0.1 0zm0 0q0 0 0 0.1 0-0.1 0-0.1 0.1 0 0.1-0.1-0.1 0.1-0.1 0.1zm-0.4 0.5q0 0 0 0.1 0-0.1 0-0.1 0 0 0 0 0 0 0 0 0 0 0 0.1 0 0 0 0 0.1-0.1 0.1-0.1c-0.1 0.1-0.1 0 0 0q0-0.1 0-0.1-0.1 0-0.1 0.1zm0.2-0.6c0 0.1 0.1 0.1 0.1 0q0 0 0 0.1 0 0 0-0.1c0 0 0 0 0 0q0 0-0.1 0zm-0.3-0.1q0 0 0.1 0 0-0.1 0-0.1-0.1 0-0.1 0.1 0 0 0 0.1 0-0.1 0.1-0.1 0 0 0 0 0 0 0 0 0 0.1 0 0.1c0 0 0 0 0-0.1 0.1-0.1 0.1 0 0.1 0q0 0.1 0 0.1c0 0 0-0.1 0-0.1 0 0 0-0.1 0-0.1q-0.1 0-0.1 0c0.1-0.2 0 0 0-0.1q0 0.1 0 0.1 0 0 0 0 0 0 0 0c0-0.1 0 0 0 0q0 0 0 0 0 0.1 0 0.1 0 0 0 0 0 0-0.1 0 0 0 0 0zm0-0.2q0 0 0 0 0 0 0 0.1c0 0 0.1 0 0 0q0 0-0.1 0.1 0.1 0 0.1 0 0-0.1 0-0.1 0.1-0.1 0-0.1 0 0 0 0 0 0 0 0zm-0.4 0.4q0 0 0 0 0 0 0 0 0.1 0 0.1 0-0.1 0-0.1 0zm0.2-0.5q0 0.1 0 0.1 0 0 0.1-0.1 0 0 0 0 0 0-0.1 0 0 0 0 0 0 0 0 0 0.1 0 0.1 0 0-0.1 0-0.1 0 0-0.1 0.1zm-0.1-0.1c-0.1 0.2 0.1 0 0 0.1q0.1-0.1 0.1-0.2c0.1 0 0 0.1 0 0q0 0.1-0.1 0.1 0 0 0 0 0 0 0 0zm-0.2 0.1q0.1 0 0.1 0 0 0 0 0 0-0.1 0-0.1c0 0 0 0-0.1 0.1zm-0.1-0.3q-0.1 0-0.1 0.1c0 0.1 0.1 0 0.1 0q0 0 0 0c0-0.1 0 0 0 0q0 0 0 0 0 0 0 0c0-0.1-0.1-0.1 0-0.1q0 0 0 0zm-0.5 0.4q0.1 0 0.1 0-0.1 0-0.1 0c-0.1 0.1 0 0 0 0.1q0 0 0-0.1zm0.2-0.3c0.1 0 0 0.1 0 0.1q0.1 0 0.1-0.1 0 0 0.1 0 0-0.1 0-0.1 0 0-0.1 0 0 0 0 0 0 0.1 0 0.1 0 0 0 0 0 0 0 0c0-0.1 0 0 0 0q-0.1 0-0.1 0zm-0.1 0c0 0.1 0.1 0 0.1 0 0 0 0 0 0.1 0q-0.1-0.1-0.2 0 0 0 0 0zm0.2-0.4q0 0 0 0.1c0-0.1 0-0.1 0-0.1 0 0 0 0 0-0.1q0 0 0 0.1zm-0.1 0q-0.1 0-0.1 0c0 0.1 0.1 0.1 0 0.1q0 0 0 0 0 0 0.1 0 0 0 0 0c-0.1 0 0 0 0 0 0 0 0.1-0.1 0-0.1q0 0 0 0.1 0 0 0 0 0 0 0 0 0 0 0 0 0 0 0 0-0.1 0 0-0.1c0 0 0 0 0-0.1q0 0.1 0 0.1zm-0.4 0c0.1 0 0.1 0 0 0.1 0 0 0 0 0 0 0 0.1 0.1-0.1 0.1-0.1 0 0 0 0-0.1 0zm-0.3 0.4q0-0.1 0-0.1-0.1 0.1-0.1 0.1 0 0 0.1 0c-0.1 0.1-0.1 0.1-0.1 0.1q0 0 0.1 0c0 0 0-0.1 0-0.1q0 0 0 0zm0.2-0.5c0 0.1 0 0.1 0.1 0.1q0 0 0 0 0-0.1 0-0.1c0 0-0.1 0-0.1 0zm-0.3 0.4q0 0 0 0.1 0 0 0 0c0 0 0 0 0 0q0-0.1 0-0.1zm0.4-0.6q0 0 0 0 0 0 0 0 0 0 0 0c0.1-0.1 0 0 0 0zm0-0.1q0 0 0 0 0 0 0 0 0.1-0.1 0.1-0.1-0.1 0-0.1 0.1zm-0.6 0.8c0.1 0 0.1-0.1 0.1-0.1q0-0.1 0-0.1 0 0 0 0 0 0.1 0 0c0 0.1 0 0.1-0.1 0.2zm-0.3-0.3q0 0 0 0.1 0-0.1 0-0.1c0.1-0.1 0 0 0 0q0 0 0.1-0.1c0-0.1-0.1 0-0.1 0 0 0 0 0.1 0 0.1zm0-0.4q0 0 0 0 0.1 0 0.1 0 0 0 0 0 0 0-0.1 0zm0.1-0.2q0 0 0 0.1 0 0 0.1 0 0-0.1 0-0.2-0.1 0.1-0.1 0.1zm-0.2-0.3c0 0.1 0 0.1 0 0.1 0 0 0-0.1 0.1-0.1q0 0 0 0-0.1 0-0.1 0 0 0 0 0zm-0.1 0.1q0 0 0 0 0 0.1 0.1 0.1 0 0 0 0 0 0 0 0 0 0 0 0 0 0 0 0 0 0 0 0 0-0.1 0-0.1 0 0-0.1 0 0 0 0 0zm-0.3 0.3q0.1 0 0.1 0.1 0 0 0 0 0-0.1 0-0.1 0 0-0.1 0zm0-0.1q0 0 0 0 0 0 0.1-0.1c-0.1 0 0 0-0.1 0q0 0.1 0 0.1zm0-0.2q0-0.1 0.1-0.1 0 0 0 0-0.1 0-0.1 0 0 0 0 0.1zm-0.3-0.3q-0.1 0 0 0.1 0-0.1 0-0.1 0 0 0 0 0 0 0 0zm-0.1 0.1c0.1-0.1 0-0.1 0-0.2q0 0 0 0 0 0.1 0 0.2 0 0 0 0zm0.2-0.3q0 0 0-0.1-0.1 0.1-0.1 0.1 0 0 0 0.1c0 0 0.1-0.1 0.1-0.1zm0-0.2q0 0.1 0 0.1 0 0 0.1 0-0.1-0.1-0.1-0.1 0 0 0 0zm-0.5 0.1q0 0 0 0.1 0 0 0 0c0-0.1 0.1-0.1 0-0.1q0 0 0 0zm0-0.3c-0.1 0 0 0 0 0q0 0 0 0 0 0 0.1 0 0-0.1 0-0.1-0.1 0-0.1 0.1zm-0.9-0.7q0 0 0 0 0 0 0.1 0 0 0 0-0.1c0 0-0.1 0.1-0.1 0.1z"/><path class="a" d="m3.3 7.2q0 0 0 0 0 0 0 0z"/><path class="a" d="m4.6 8.1q0 0 0 0z"/><path class="a" d="m4.6 8.1q0 0 0 0 0 0 0 0 0 0 0 0z"/><path class="a" d="m8.2 11.8q0 0 0 0 0 0 0 0 0 0 0 0z"/><path class="a" d="m6.7 9.8q0 0 0 0 0 0 0 0 0 0 0 0z"/><path class="a" d="m8.1 10.4q0 0 0 0 0 0 0 0 0 0 0 0z"/><path class="a" d="m4.3 8.4q0 0 0 0 0 0 0 0 0 0 0 0 0 0 0 0z"/><path class="a" d="m8.6 11q0 0 0 0 0 0 0 0 0 0 0 0 0 0 0 0z"/><path class="a" d="m5.7 9.1q0 0 0 0 0 0 0 0 0 0 0 0z"/><path class="a" d="m8.3 11.2q0 0.1 0 0.1 0-0.1 0.1-0.1 0 0-0.1 0 0 0 0 0z"/><path class="a" d="m8.9 11q0 0 0 0 0 0 0 0 0 0 0 0z"/><path class="a" d="m7.4 9.7q0 0 0 0 0 0 0 0 0 0 0 0z"/><path class="a" d="m7.5 9.8q0.1 0 0.1 0 0 0 0 0 0 0 0 0-0.1 0-0.1 0 0 0.1 0 0.1 0 0 0 0 0 0 0.1-0.1 0 0.1 0 0.1 0 0 0 0 0 0 0 0 0-0.1 0-0.1c0 0.1 0 0 0-0.1 0 0 0 0 0 0q0 0 0 0-0.1 0-0.1 0.1 0 0 0 0z"/><path class="a" d="m9.2 11.1q0 0 0 0c-0.1 0.1 0 0 0 0.1q0 0 0 0 0-0.1 0-0.1 0 0 0 0z"/><path class="a" d="m7.5 9.7q0 0 0 0 0 0 0 0 0 0 0 0-0.1 0.1 0 0c0 0-0.1 0.1 0 0.1q0-0.1 0.1-0.1c0-0.1-0.1 0-0.1 0q0 0-0.1 0 0 0 0 0c0.1 0 0 0.1 0.1 0z"/><path class="a" d="m8.4 11.7q0 0-0.1 0 0 0.1 0 0.2c0 0 0.1-0.1 0.1-0.1q0 0 0-0.1z"/><path class="a" d="m7.4 9.7q0 0 0 0 0 0 0 0 0 0 0 0z"/><path class="a" d="m7.3 9.7c0.1 0 0.1 0.1 0.1 0 0.1 0 0 0.1 0 0q0 0 0 0c0.1-0.1 0-0.1 0 0q0 0-0.1 0z"/><path class="a" d="m7.4 11.2c-0.1 0.1 0 0 0 0q0 0 0.1 0 0 0-0.1 0c0 0 0-0.1 0 0z"/><path class="a" d="m7.1 9.5q0 0 0 0 0 0 0 0.1 0 0 0 0 0 0 0 0 0-0.1 0-0.1z"/><path class="a" d="m6.2 9q0 0 0 0c0 0 0 0 0 0 0.1-0.1 0 0 0-0.1 0 0 0 0 0 0.1z"/><path class="a" d="m7.3 11.1q0 0 0 0 0 0 0 0 0.1 0 0.1 0 0 0 0 0 0 0 0 0 0 0 0 0 0-0.1 0-0.1 0 0 0 0 0 0 0 0c0 0.1 0 0.1-0.1 0.1z"/><path class="a" d="m7.4 11q0 0 0 0 0 0 0 0z"/><path class="a" d="m6.9 9.4q0 0 0 0 0 0 0 0c0 0 0-0.1 0-0.1q0 0.1-0.1 0.1c0 0 0.1 0 0.1 0z"/><path class="a" d="m2.4 6.7q0-0.1 0-0.1 0 0 0-0.1 0 0 0 0c0 0.1 0.1 0.1 0 0.2z"/><path class="a" d="m4.8 8.1q0 0 0.1-0.1 0 0 0 0-0.1 0-0.1 0 0 0.1 0 0.1z"/><path class="a" d="m5.5 8.6q0.1-0.1 0.1-0.1 0 0 0 0 0 0 0-0.1 0 0.1-0.1 0.1 0 0 0 0.1z"/><path class="a" d="m4.3 7.8q0 0 0-0.1 0 0 0 0 0 0 0 0 0 0.1 0 0.1z"/><path class="a" d="m3.4 7.3q0 0 0 0c0.1-0.1 0 0 0 0q0 0 0 0 0 0 0 0z"/><path class="a" d="m6.4 9.1c0 0 0-0.1 0.1-0.1q0 0-0.1 0c0 0.1 0 0.1 0 0-0.1 0.1 0 0.1 0 0.1z"/><path class="a" d="m8.3 11.8q0 0-0.1 0 0 0 0 0c0.1 0 0.1 0.1 0.1 0z"/><path class="a" d="m8.2 11.8q0 0 0 0 0 0 0 0z"/><path class="a" d="m8.2 11.8q0 0 0 0z"/><path class="a" d="m6.9 9.4q0 0 0 0z"/><path class="a" d="m6.9 9.5q0 0 0 0 0 0 0 0 0-0.1 0-0.1 0 0 0 0 0 0 0 0.1z"/><path class="a" d="m6.9 9.4q0 0 0 0 0 0 0 0 0 0 0 0z"/><path class="a" d="m6.9 9.4q0 0 0 0 0 0 0 0z"/><path class="a" d="m4.6 8.1q0 0 0 0z"/><path class="a" d="m4.6 8.1q-0.1 0.1 0 0 0 0 0-0.1 0 0 0 0 0 0.1 0 0.1 0 0 0 0 0 0 0 0z"/><path class="a" d="m4.6 8.1q0 0 0 0 0 0 0 0 0 0 0 0z"/><path class="a" d="m5 8.1q0 0 0 0 0 0 0 0 0 0 0 0.1 0 0 0-0.1z"/><path class="a" d="m8.1 10.7c-0.1 0 0 0-0.1 0.1 0 0 0 0.1 0.1 0q0-0.1 0-0.1 0 0 0 0z"/><path class="a" d="m8.1 10.9c0.1 0 0.1 0 0.1 0q-0.1 0-0.1 0 0 0 0 0 0 0 0 0z"/><path fill-rule="evenodd" class="a" d="m1.1 6.2c0 0 0.1-0.1 0.1 0q0 0 0 0 0 0 0 0c0.1-0.1 0.1 0 0.1-0.1 0.1 0 0.1-0.1 0.2-0.1-0.1 0.1 0 0.1 0 0.1 0 0-0.1 0-0.1 0.1q0 0 0 0 0 0 0-0.1 0 0-0.1 0.1 0.1 0 0.1 0 0 0 0 0 0.1 0 0.1 0 0 0.1 0.1 0.1c0 0 0-0.1 0 0 0 0 0 0 0 0q0-0.1 0-0.1 0 0 0 0 0 0 0.1 0c0 0 0 0.1 0.1 0q0 0 0 0 0 0.1 0 0.1 0 0 0 0 0 0 0.1-0.1-0.1 0-0.1 0 0.1-0.1 0.1 0 0 0 0 0 0 0 0.1 0.1 0 0 0-0.1c0.1 0 0 0.1 0 0.1q0.1-0.1 0 0 0 0 0 0c0.1 0 0 0.1 0.1 0.1q0-0.1 0-0.1 0 0 0 0.1 0 0 0 0l-0.1 0.1q0 0 0-0.1 0 0-0.1 0 0.1 0.1 0.1 0.1 0 0 0 0l-0.4 0.7q0 0 0 0 0-0.1-0.1 0 0 0 0 0 0 0 0 0 0 0 0 0 0 0 0 0c0.1-0.1 0-0.1 0-0.1q0 0 0-0.1 0 0-0.1 0 0 0 0 0.1 0 0 0 0 0 0 0-0.1-0.1 0-0.2 0 0-0.1 0-0.1-0.1 0-0.1-0.1 0 0-0.1 0 0 0.1 0 0.1 0-0.1 0-0.1c0 0 0-0.1-0.1 0 0 0 0-0.1 0 0q0 0 0-0.1c0 0 0 0 0-0.1 0.1-0.1 0.1-0.1 0.1-0.1q0 0 0 0 0 0 0 0 0 0 0 0 0.1 0 0.1 0-0.1-0.1-0.1-0.1 0.1 0 0.1 0c0 0 0 0 0.1-0.1q-0.1 0-0.1 0c0 0 0 0 0-0.1zm0.7 0.3q0 0.1 0 0.1 0.1 0 0.1 0 0 0 0-0.1-0.1 0-0.1 0zm0.1-0.1q0.1 0 0.1 0 0 0 0 0 0-0.1 0 0c-0.1 0 0-0.1 0-0.1q0 0-0.1 0.1zm-0.1 0q0 0 0 0.1 0 0 0 0 0 0 0 0 0 0 0 0 0 0 0 0.1 0-0.1 0-0.1 0 0 0 0 0.1 0 0.1-0.1 0 0 0 0 0 0 0 0 0 0 0 0 0 0 0 0-0.1 0-0.1 0 0 0 0 0zm-0.1 0c0 0.1 0 0.1 0 0.1 0 0 0 0 0 0 0.1 0 0 0 0-0.1q0 0 0 0z"/><path class="a" d="m0.9 6.6q0 0 0 0 0-0.1 0-0.2 0 0 0 0.1 0 0 0 0.1z"/><path class="a" d="m8.5 17.1z"/><path fill-rule="evenodd" class="a" d="m8 16.7l-0.1-0.2q0 0 0.1 0c0 0 0-0.1 0-0.1q0 0 0 0c0 0 0 0 0 0.1 0.1 0 0.1 0 0.1 0.1q0 0 0 0 0 0 0 0 0 0 0 0c0 0 0-0.2 0-0.2q0 0 0 0c0-0.1 0-0.1 0-0.1q0 0 0 0 0 0 0 0 0-0.1 0-0.1 0 0.1 0.1 0.1 0-0.1 0-0.1 0 0 0.1 0 0 0.1 0 0.1 0 0 0 0-0.1 0-0.1 0 0 0 0.1 0 0 0 0 0 0 0 0 0 0 0.1 0 0.1c0 0 0 0 0 0 0 0 0.1 0.3 0.1 0.2 0 0 0 0 0 0q0 0 0 0 0 0.1 0 0.1h0.1q-0.1 0-0.1 0h0.1q0 0 0 0.1 0 0.1 0 0.3 0 0 0 0 0 0 0 0 0 0 0 0 0 0 0 0 0 0 0 0 0 0 0 0 0 0.1 0 0.1v-0.1q0 0.1-0.1 0.1c0-0.1 0-0.1 0 0q0 0 0 0v-0.1c0 0 0 0.1 0 0h-0.1v0.1q0 0 0 0c0 0.1 0 0 0 0q0 0-0.1 0.1c0 0 0.1 0 0.1 0h-0.1q0 0 0 0 0 0 0 0c0 0 0 0.1 0 0v0.1-0.1-0.1q0 0-0.1 0 0-0.1 0-0.1 0 0 0 0l-0.1-0.3q0 0 0 0c0 0 0-0.1 0-0.1zm0.3 0q0 0 0 0 0 0 0-0.1 0 0 0 0 0 0 0 0.1zm-0.1 0.1l0.1-0.1q0 0 0 0c0 0-0.1-0.1-0.1 0q0 0 0 0.1zm-0.2-0.1c0.1 0.1 0.1 0.1 0.1 0.1 0 0 0-0.1 0-0.1h-0.1z"/><path class="a" d="m7.9 16.4c0 0 0.1 0.1 0.1 0 0-0.1-0.1 0-0.1-0.1q0 0 0 0.1c0 0 0 0 0-0.1v0.2q0 0 0-0.1z"/><path class="a" d="m8 16.4c0 0 0 0 0-0.1q0 0.1 0 0.1 0 0 0 0z"/><path class="a" d="m8 16.3z"/><path class="a" d="m8 16.2v0.1-0.1z"/><path class="a" d="m8 16.4q0 0 0-0.1 0 0 0 0c0 0.1 0 0.1 0 0.1z"/><path class="a" d="m8.1 17.2z"/><path fill-rule="evenodd" class="b" d="m7.2 16.8q0 0.1 0 0.1 0.1 0 0.1 0 0 0 0 0 0 0 0 0c0-0.1 0-0.1 0-0.1v-0.1l0.1 0.1q0 0 0 0 0 0 0 0c0 0.1 0 0.1 0 0.1v-0.1 0.1h0.1q0 0 0 0-0.1 0-0.1 0c0-0.1 0.1 0 0.1 0v0.1q0 0 0 0c-0.1-0.1 0 0 0 0.1q0 0-0.1 0v-0.1c0 0 0 0 0 0.1 0 0 0 0 0 0q0 0 0 0c0 0 0 0 0-0.1 0 0.1-0.1 0-0.1 0.1q0 0 0 0 0 0 0-0.1-0.1 0-0.1 0 0 0 0 0v-0.1c-0.1-0.2 0 0 0 0 0-0.1 0 0 0-0.1zm0.1 0.2q0 0 0.1 0 0 0 0 0c0-0.1-0.1 0-0.1 0zm0-0.1l-0.1-0.1q0 0 0 0c0 0.1 0 0.1 0 0.1 0.1 0.1 0.1 0.1 0.1 0z"/><path class="a" d="m5.2 17.5z"/><path class="a" d="m7 17z"/><path class="a" d="m4.4 18.1z"/><path fill-rule="evenodd" class="a" d="m2.9 18.9l-0.1-0.1h0.1q0 0 0 0l-0.1-0.1q0-0.1 0-0.1c0.1 0.2 0 0 0 0 0 0 0 0 0.1 0 0 0.1 0 0.1 0 0.1h0.1c0 0.1 0 0 0 0 0 0.1 0 0 0 0q0 0 0 0 0 0 0 0c0-0.1 0-0.1 0-0.1 0 0 0.1 0.1 0.1 0.1q0 0 0 0 0 0 0-0.1c0 0 0 0 0-0.1 0 0.1 0 0 0 0q0.1 0.1 0.1 0 0 0.1 0 0.1c0.1 0 0.1 0 0.1 0.1q0 0 0 0.1v-0.1c0.1 0.1 0 0 0-0.1-0.1-0.1 0 0 0-0.1q0 0 0 0 0 0.1 0 0 0 0 0 0 0 0 0 0v0.1q0.1-0.1 0.1-0.1c0 0-0.1-0.1-0.1-0.1h0.1q0 0.1 0 0.1c0 0.1 0 0 0.1 0.1q0 0 0 0.1v-0.1q0 0 0-0.1c-0.1 0 0-0.1 0 0 0 0 0-0.1 0 0q0 0 0.1 0 0 0 0 0c-0.1-0.2 0-0.1 0-0.1q0.1 0.1 0.1 0c0 0 0 0.1 0 0.1v-0.1c0 0 0 0.1 0 0 0 0 0 0 0 0 0 0 0-0.1 0 0 0 0 0.1 0 0.1 0q0 0 0-0.1 0 0 0 0v0.1q0 0 0 0c0-0.1 0.1 0.1 0.1 0l-0.1-0.1q0 0 0 0c0 0 0.1 0.1 0 0q0 0 0 0c0 0 0-0.1 0.1 0 0 0 0 0 0.1 0h-0.1c0-0.1 0 0 0-0.1q0 0 0 0 0 0 0 0c0 0 0 0.1 0 0 0 0 0.1 0.1 0.1 0q0 0 0.1 0.1c0 0 0-0.1 0-0.1q0 0 0-0.1c0 0 0 0.1 0 0.1 0 0 0.1 0 0 0 0-0.1 0.1 0 0.1-0.1 0-0.1 0 0 0-0.1 0.1 0 0.1 0.1 0.1 0.1q0-0.1 0-0.1 0 0 0 0 0 0 0 0 0 0 0 0 0.1 0.1 0.1 0.1 0 0 0 0 0 0 0 0 0 0 0 0.1c0 0.1-0.1 0 0 0h-0.1q0 0 0 0 0 0 0 0c0 0 0.1 0.1 0.1 0.1q0 0 0 0c0 0 0.1 0 0-0.2q0 0 0 0 0 0 0 0 0 0 0 0 0 0 0 0c0 0.1 0 0 0-0.1 0 0 0 0 0 0.1q0 0 0 0c0-0.2 0.1-0.1 0-0.2 0 0 0 0 0 0.1 0.1 0 0.1 0 0.1 0q0-0.1 0-0.2 0 0 0 0 0 0.1 0 0.1 0 0 0 0 0 0 0 0l0.1 0.1v0.1q0 0 0-0.1c0 0 0 0 0-0.1-0.1 0 0 0 0 0 0 0 0 0 0 0q0 0 0 0 0 0 0-0.1c0 0-0.1-0.1 0 0q0 0 0 0 0 0 0.1 0.1 0 0 0-0.1h-0.1q0 0 0 0c0 0 0-0.1 0-0.1q0 0 0 0.1c0.1 0.1 0-0.1 0.1-0.1q0 0 0 0v0.1q0 0 0 0 0 0.1 0 0c0 0 0.1 0.1 0.1 0q0 0 0 0 0 0 0 0 0 0 0-0.1 0 0 0 0 0 0 0 0 0 0 0 0.1 0 0 0 0 0 0 0.1 0-0.1-0.1-0.1-0.1c0 0 0 0 0 0q0 0 0 0l0.1 0.1q0 0 0-0.1c0 0.1-0.1-0.1 0 0 0 0 0-0.1 0 0q0-0.1 0-0.1-0.1 0-0.1 0 0-0.1 0-0.1 0 0 0 0.1l0.1 0.1q0-0.1 0-0.1c0 0 0 0 0 0q0 0 0 0 0 0 0 0 0 0.1 0 0.1h0.1q0 0 0 0h-0.1c0.1 0 0.1-0.1 0.1 0q0 0 0 0 0 0 0 0c0 0 0-0.1 0-0.1q0 0 0 0.1 0 0 0 0c0-0.1 0-0.1 0-0.1q0 0 0 0 0 0 0 0c0.1 0 0 0 0 0-0.1-0.2 0.1-0.1 0-0.2q0 0.1 0.1 0.1v0.1c-0.1-0.1 0.1 0 0-0.2q0 0 0 0 0 0 0 0 0 0 0 0 0 0.1 0 0.1l0.1 0.1-0.1-0.1c0.1 0 0.1 0.1 0.1 0 0 0 0 0 0 0v0.1q0 0 0 0l0.1 0.1h-0.1q0 0 0.1 0 0 0 0 0c0 0-0.1 0-0.1 0 0.1 0 0.1 0 0.1 0 0 0.1 0 0 0 0q0 0.1 0.1 0.1 0 0-0.1-0.1v-0.1q0 0.1 0 0.1 0 0 0 0 0 0 0 0c0-0.1-0.1-0.2-0.1-0.2 0 0 0 0 0 0 0.1 0.1 0 0 0-0.1 0 0 0 0 0 0 0.1 0.1 0.1 0 0.1 0.1 0-0.2 0.1 0.1 0.1 0q-0.1 0-0.1 0c0-0.1 0-0.1 0-0.1q0 0 0 0 0.1 0 0.1 0c0 0 0 0-0.1-0.1 0-0.1 0.1 0.1 0.1 0 0 0.1 0 0 0.1 0.1q-0.1-0.1-0.1-0.1c0 0 0.1 0.1 0.1 0.1 0-0.1 0 0 0-0.1 0 0 0 0 0 0q0 0 0-0.1c0 0.1 0 0 0 0.1q0.1 0 0.1-0.1 0 0 0 0 0 0 0 0 0 0 0 0v0.1c0 0 0.1 0.1 0.1 0.1 0-0.1 0 0 0 0q0-0.1-0.1-0.2c0 0 0 0 0 0q0 0 0 0 0.1 0 0.1 0c0 0 0 0 0 0.1 0-0.1 0.1-0.1 0.1-0.1 0 0 0-0.1 0.1-0.1q0 0 0 0 0 0 0-0.1 0 0 0 0c0 0 0-0.1 0 0q0 0 0 0 0 0 0 0 0.1 0 0.1 0.1-0.1 0 0 0c-0.1-0.1 0 0 0 0h0.1v-0.1c-0.1-0.1 0 0 0-0.1 0.1 0.2 0.1 0.1 0.1 0.1q0 0 0 0 0 0 0-0.1 0 0 0 0v0.1q0.1 0 0 0c0-0.1 0.1 0 0.1-0.1q0 0 0-0.1 0 0 0 0 0 0 0 0 0-0.1 0 0 0-0.1 0 0 0 0 0 0.1 0 0 0 0c0.1 0.1 0 0 0.1 0 0 0 0 0.1 0 0q0 0 0 0c0.1 0.1 0.1-0.1 0.1 0 0 0 0-0.1 0-0.1 0 0 0 0 0 0 0.1 0 0.1 0 0.1 0 0 0 0-0.1-0.1-0.1q0-0.1 0-0.1 0 0 0 0 0 0 0 0c0.1 0.1 0 0 0 0 0 0 0.1 0 0-0.1q0 0 0 0c0.1 0.1 0 0 0.1 0.1 0 0 0-0.1 0-0.1 0.1 0.1 0.1 0 0.1 0q0 0 0 0.1c0.1 0 0-0.1 0-0.1 0.1-0.1 0.1 0 0.1 0 0 0 0 0.1 0 0q0 0 0 0 0 0.1 0 0.1 0 0 0-0.1c0 0 0-0.1 0.1 0q0 0.1 0 0c0 0 0-0.1 0.1 0 0 0 0-0.1 0-0.1 0 0 0.1 0.1 0 0.1q0 0 0 0 0 0 0 0 0.1 0 0.1-0.1-0.1 0-0.1 0h0.1q0 0 0 0 0.1 0 0.1 0 0 0 0.1 0 0.1 0 0.1 0 0-0.1 0.1-0.1c0 0.1 0.1 0 0.1 0.1 0 0 0-0.1 0-0.1 0.1 0.1 0.1 0 0.1 0 0 0.1 0.1 0.2 0.1 0.1 0 0 0 0 0 0.1 0 0 0-0.1 0 0q0.1 0 0.1 0.1c0-0.2 0-0.1 0-0.1l0.1 0.3q0-0.1 0-0.1c0 0.1-0.1 0-0.1 0q0 0 0 0.1c0 0 0 0 0 0q0 0 0 0v0.1c0 0 0.1 0 0.1 0q0-0.1 0-0.1v0.1q0 0 0 0 0 0 0 0c0-0.1 0-0.1 0 0l0.1 0.2c0 0 0 0.1 0 0.1v0.1c0 0 0 0 0 0.1q0 0 0.1 0h-0.1c0-0.1 0 0 0 0q0-0.1 0-0.1 0 0 0 0 0 0.1 0 0.1c0 0 0 0 0 0 0 0.1 0 0.1-0.1 0 0 0 0.1 0.1 0 0q0 0 0 0.1c0 0.1 0-0.1 0-0.1q0-0.1 0 0 0 0 0 0 0 0-0.1 0 0.1 0 0.1 0-0.1-0.1-0.1-0.1 0 0-0.1 0 0 0 0 0h0.1c0 0 0 0 0 0 0 0.1 0 0.1 0 0.1 0 0.1-0.1-0.1-0.1 0.1q0 0 0.1 0 0-0.1 0 0 0 0-0.1 0c0 0 0-0.1 0 0 0 0 0 0 0 0q0 0.1 0 0 0 0 0 0 0 0 0 0c-0.1-0.1 0 0 0 0.1 0 0.1-0.2 0-0.2-0.1-0.1-0.1 0 0 0 0-0.1-0.1 0 0 0 0.1 0 0.1 0 0 0 0 0 0-0.1 0-0.1 0 0-0.1 0 0.1 0 0 0 0.1-0.1-0.1 0 0.1-0.1-0.1-0.1-0.1-0.1-0.1q0-0.1 0-0.1 0 0-0.1 0h0.1q0 0-0.1 0 0 0 0-0.1 0 0 0 0v0.1q0 0 0 0.1c0 0 0 0.1 0 0q0-0.1 0-0.1-0.1 0-0.1 0l0.1 0.1c-0.1-0.1-0.1-0.1-0.1-0.1v0.1q0 0 0 0 0 0.1 0 0.1 0 0 0 0.1c0-0.1 0 0 0-0.1q0 0-0.1-0.1l0.1 0.1q0 0 0 0h-0.1v-0.1q0 0.1 0 0.1c0 0 0-0.1 0-0.1 0 0.1 0 0.1 0 0.2q0 0 0 0c0 0 0 0.1 0 0 0 0 0 0.1 0 0q-0.1 0-0.1 0 0 0 0.1 0h-0.1q0 0 0 0 0 0 0 0 0 0 0-0.1 0 0 0 0 0 0 0 0.1v-0.1q0 0 0 0c0-0.1 0-0.1 0-0.1q0 0 0 0-0.1 0-0.1 0.1 0 0 0 0c0.1 0 0.1 0.1 0.1 0.1l-0.1-0.1q0 0.1 0.1 0.1v0.1l-0.1-0.2c0 0.2 0 0.1-0.1 0.1 0 0 0.1 0 0.1 0 0 0.1-0.1 0.1-0.1 0.1 0 0 0 0.1 0 0.1q0 0 0-0.1 0 0 0 0 0 0 0 0h-0.1q0 0 0 0c0 0 0 0 0 0 0 0 0 0.1 0 0q0 0 0 0 0 0 0 0 0 0 0 0 0 0 0 0.1 0 0 0-0.1c-0.1 0 0 0 0 0q-0.1 0-0.1 0 0 0 0 0 0 0 0-0.1 0 0-0.1 0 0 0 0 0 0 0 0 0 0 0 0 0c0 0 0.1 0.1 0.1 0.1q0 0 0 0 0 0 0 0c0 0.1 0 0.1 0.1 0.2 0 0-0.1-0.1-0.1-0.1q0 0 0-0.1v0.1c0 0-0.1 0 0 0.1q0 0-0.1 0 0 0 0 0 0 0 0 0 0 0 0-0.1c0 0 0 0 0-0.1q0 0 0 0v0.1c0 0.1 0 0 0 0 0 0.1 0 0.1 0 0.1q0 0 0 0 0 0 0 0 0 0 0 0 0 0.1-0.1 0 0 0 0 0 0 0 0-0.1 0 0 0 0 0 0 0 0v0.1q0 0 0-0.1 0 0 0 0h-0.1q0.1 0 0.1 0 0 0.1 0 0.2c0 0 0 0 0-0.1 0 0.1-0.1 0 0 0.1-0.1 0 0 0.1-0.1 0q0 0 0 0v0.1q-0.1 0-0.1 0c0 0 0 0.1-0.1 0-0.1 0 0 0.1-0.1 0.1 0 0 0 0.1 0 0-0.1-0.2 0 0-0.1 0 0 0 0 0.1 0 0.1q-0.1 0-0.1-0.1 0 0 0 0 0 0-0.1 0 0.1 0 0.1 0.1c0 0.1-0.1-0.1 0 0h-0.1c0 0 0 0 0 0-0.1 0 0 0-0.1 0 0 0.1 0 0.1 0 0.1 0 0 0-0.1 0-0.1q0 0 0 0.1 0 0 0 0 0 0-0.1 0 0 0 0-0.1v0.1c0 0 0-0.1 0-0.1 0 0.1 0 0.1 0 0.1q0 0 0 0h-0.1q0 0 0-0.1 0 0 0 0 0 0 0 0v0.1c0-0.1 0-0.1 0 0 0 0 0.1 0.1 0 0 0 0 0 0 0 0 0 0 0 0 0 0.1 0 0 0-0.1 0-0.1 0 0-0.1 0-0.1 0q0.1 0 0.1 0.1c0 0 0 0.1-0.1 0 0 0 0 0 0 0.1 0 0 0 0-0.1-0.1 0 0.1 0 0 0 0 0 0 0 0.1 0 0.1q-0.1 0-0.1 0.1c0 0-0.1-0.1-0.1 0q0 0 0 0 0 0-0.1 0c0 0 0.1 0 0 0q0 0-0.1 0.1h-0.1c0 0 0 0 0 0 0 0.1-0.1 0 0 0.1q-0.1 0-0.1-0.1c0 0 0 0 0 0 0 0.1-0.1 0.1-0.1 0.1q0 0-0.1 0 0 0 0 0v-0.1q0 0.1 0 0.1 0 0 0 0 0 0.1 0 0.1-0.1 0-0.1 0c0 0-0.1 0-0.1 0 0 0.1-0.1 0.1-0.1 0.1 0 0 0 0-0.1 0 0 0 0 0 0 0 0 0-0.1 0-0.1-0.1 0 0 0 0.1 0 0.1-0.1 0-0.1 0-0.1 0.1 0 0 0-0.1 0-0.1q0 0.1-0.1 0.1 0-0.1 0 0 0 0 0 0-0.1 0-0.1 0 0 0.1-0.1 0.1c0 0-0.1 0-0.1 0-0.1-0.1 0 0.1-0.1 0q0 0 0 0v0.1q0 0 0 0v-0.1l-0.1 0.1 0.1 0.1q-0.1 0-0.1 0 0-0.1 0-0.1zm4.6-1.4h-0.1q0 0 0 0c0.1 0 0.1 0.1 0.1 0.1 0 0 0-0.1 0-0.1zm0.2-0.4h-0.1c0-0.1 0 0 0 0q0 0.1 0 0h0.1q0 0 0 0zm0.1-0.3q0-0.1-0.1-0.1 0 0 0 0.1 0.1 0 0.1 0c0 0 0 0 0 0zm0.1 0.1q0 0 0 0.1c0 0 0-0.1 0.1 0v-0.1c-0.1-0.1-0.1 0.1-0.1 0zm-0.1-0.2q0 0 0 0 0 0 0 0v-0.1q0 0 0 0c0 0.1 0 0 0 0.1zm0 0.1q0 0 0 0 0 0 0.1 0 0 0 0 0-0.1 0-0.1 0zm-0.2-0.3q0 0 0 0 0 0 0 0 0 0 0 0c0.1 0 0.1 0.1 0.1 0.1q0 0 0-0.1 0 0 0 0 0 0 0 0.1c0-0.1 0 0 0-0.1q-0.1 0-0.1-0.1c0 0 0 0.1 0 0.1q0 0 0 0 0 0 0 0zm-0.2 0l0.1 0.1q0-0.1 0-0.1 0 0 0 0l-0.1-0.1q0 0.1 0 0.1c0.1 0.1 0 0 0 0zm0.1 0.4v-0.1 0.1h0.1q0 0 0 0c-0.1 0.1-0.1 0.1-0.1 0v-0.1q0 0 0 0v0.1c0 0 0 0.1 0.1 0.1 0 0 0 0 0 0 0 0 0 0 0-0.1 0 0.1 0 0 0.1 0q0 0 0 0 0 0 0 0v-0.1q0 0 0 0 0 0 0 0 0 0 0 0 0 0 0 0 0 0 0 0 0 0 0 0c-0.1-0.1 0 0 0-0.1q0 0-0.1-0.1 0 0 0 0 0 0 0 0 0 0 0 0 0 0 0 0 0 0 0 0 0 0 0 0c0 0.1 0 0.1 0 0.1 0 0 0.1 0.1 0 0.2 0 0 0 0 0 0q0 0 0 0 0 0 0 0 0-0.1 0-0.1c0 0.1 0-0.1 0 0q0 0 0 0 0-0.1 0-0.1 0 0.1 0 0 0 0 0 0c0 0-0.1-0.1-0.1-0.1v-0.1q0 0.1 0 0.1l0.1 0.1c0 0 0 0.1 0 0.1q-0.1-0.1-0.1 0 0 0 0 0c0.1 0.1 0 0 0 0.1zm-0.1-0.2q0 0 0 0h0.1l-0.1-0.1q0 0 0 0v0.1q0 0 0 0zm0.1 0q0 0 0 0 0 0 0 0zm0 0.1c0 0 0 0 0 0 0 0 0-0.1 0-0.1 0 0 0 0.1 0 0 0 0 0 0.1 0 0.1zm-0.1-0.1v-0.1c0 0.1 0 0 0 0q0 0 0 0c0-0.1-0.1-0.1-0.1-0.1q0 0 0 0 0 0 0 0 0 0 0 0c0 0 0 0 0 0.1q0.1 0 0 0c0 0 0 0 0 0.1 0 0 0-0.1 0.1 0zm-0.1 0c0 0-0.1-0.2 0-0.1v-0.1q0 0.1 0 0.1c0 0 0 0.1 0 0.1zm0 0.2c0 0-0.1-0.1-0.1 0 0.1 0.1 0-0.1 0 0v0.1q0.1 0 0.1 0 0 0 0 0.1 0 0 0 0 0.1 0.1 0.1 0c0 0 0 0.1 0 0 0 0 0 0 0.1 0v0.1q0 0 0-0.1c0 0 0 0 0 0-0.1-0.1 0 0 0-0.1v0.1q0 0 0 0c0 0 0-0.1 0-0.1q0 0 0.1 0.1l-0.1-0.2c0 0.1 0 0 0 0q0 0 0 0 0 0 0 0.1v-0.1 0.1c0-0.1-0.1-0.1-0.1-0.2q0 0 0 0 0 0 0 0h-0.1c0.1 0.1 0 0 0.1 0.1q0 0 0 0 0 0 0 0l-0.1 0.1q0-0.1 0-0.1 0 0 0 0zm-0.3-0.2q0 0 0 0c0.1 0.1 0 0 0 0 0.1 0.2 0.1 0 0.1 0.1q0 0 0 0 0-0.1 0-0.1 0 0 0.1 0.1c0 0 0 0 0 0q0 0 0 0 0 0 0 0 0 0 0-0.1 0 0 0 0 0 0-0.1-0.1c0 0 0 0 0 0 0 0 0 0 0 0 0 0.1 0 0.1-0.1 0.1 0 0 0 0 0 0q0.1 0 0.1 0h-0.1q0 0 0 0 0 0 0 0 0 0 0 0zm0.2 0.4q0 0.1 0 0c0 0 0 0 0 0 0 0 0-0.1-0.1-0.1 0 0 0.1 0.1 0.1 0.1zm-0.1 0.1c0 0 0 0 0-0.1 0 0 0 0.1 0 0 0 0-0.1-0.1-0.1 0q0 0 0 0zm0-0.2zm0-0.1c0 0.2 0.1 0.2 0.1 0.2q0 0 0 0v-0.1q-0.1 0-0.1-0.1 0 0-0.1-0.1 0 0 0 0c0 0 0.1 0 0.1-0.1q-0.1 0-0.1 0 0 0 0 0c0 0-0.1 0-0.1-0.1 0 0 0 0.1 0.1 0.1q0 0.1 0 0.1v-0.1c0 0 0 0.1 0 0.1 0 0 0.1 0.1 0.1 0.1-0.1 0-0.1 0-0.1 0.1q0.1 0 0.1 0c-0.1-0.1 0 0 0-0.1zm-0.1 0q-0.1 0-0.1 0.1c0 0 0 0 0 0q0 0 0 0.1 0 0 0 0 0 0 0 0 0 0 0.1 0 0 0 0 0 0 0 0-0.1v0.1q0 0 0 0 0 0 0 0 0 0 0 0 0 0 0 0 0-0.1 0-0.1 0 0 0 0.1c0 0 0-0.1 0 0q0 0 0.1 0.1 0 0 0 0c0-0.1-0.1-0.2-0.1-0.3zm-0.3-0.3c0.1 0.1 0.1 0.2 0.1 0.2 0 0 0.1 0 0.1 0 0 0-0.1 0-0.1 0q0.1 0 0.1 0 0 0 0 0.1c0-0.1 0-0.2 0-0.2q0 0 0 0c-0.1 0-0.1 0-0.1 0 0 0 0 0 0 0q0 0 0 0c-0.1-0.1 0 0 0-0.1q0 0 0 0 0 0-0.1 0 0 0 0 0zm0 0.2q0 0 0 0c0 0 0 0 0.1 0 0 0.1 0 0 0 0v-0.1q-0.1 0.1-0.1 0 0-0.1 0-0.1 0 0 0 0c0 0.1 0 0.1 0 0.1q0 0 0 0.1zm0 0.4q0 0 0 0 0 0 0 0 0 0 0 0.1 0 0 0 0 0 0 0 0 0 0 0 0c0.1 0 0.1 0 0.1 0q0 0 0 0 0 0 0 0v0.1-0.1c0 0 0-0.1 0-0.1 0 0 0 0 0 0 0 0 0 0 0-0.1q0 0 0 0c-0.1-0.1-0.1 0-0.1 0q0 0.1 0 0c-0.1 0 0 0.1 0 0.1zm0 0q0 0 0 0 0 0 0 0l-0.1-0.1zm0.2 0.6q0 0 0.1 0h-0.1v-0.1q0 0.1 0 0.1h0.1q0 0 0 0c0 0-0.1-0.1-0.1-0.1q0-0.1 0 0 0 0 0 0.1zm-0.3-0.5c0.1 0 0-0.1 0-0.1q0 0 0 0 0 0 0 0c0-0.1 0 0 0 0q0 0 0 0.1zm-0.2 0.1v-0.1 0.1h0.1q0 0 0 0c0 0 0 0 0-0.1-0.1-0.1 0 0 0 0q0 0 0 0c0 0 0 0 0 0 0 0-0.1-0.1-0.1 0q0 0 0 0c-0.1-0.2 0 0 0 0q0 0 0 0c0-0.1 0 0 0 0q0 0 0 0 0 0 0 0 0.1 0 0.1 0v0.1zm-0.2-0.1q0.1 0 0.1 0c0 0.1 0 0 0 0.1q0 0 0 0.1 0 0 0-0.1 0 0 0 0 0-0.1-0.1-0.1 0 0 0 0zm0.2 0.6q0 0 0 0 0 0 0-0.1 0 0 0 0 0 0 0 0.1zm-0.3-0.5q0.1 0.1 0.1 0.1v-0.1h-0.1q0 0 0 0 0 0 0 0 0 0 0 0v-0.1q0 0 0 0.1zm-0.1 0.1c0.1 0.1 0-0.1 0.1-0.1q-0.1 0-0.1-0.1c0 0 0 0.1 0 0v0.1q0 0.1 0 0.1zm0 0.1h0.1q0 0-0.1-0.1 0 0 0 0c0 0 0 0.1 0 0.1zm-0.2-0.1q0 0.1 0 0.1c0.1 0.1 0.1 0 0.1 0q0 0 0 0c-0.1 0 0 0-0.1 0q0 0 0 0c0-0.1 0 0 0-0.1zm0.2 0.6q0 0 0 0 0 0 0 0c0 0.1 0 0 0 0.1q0-0.1 0-0.1zm-0.2-0.3c0 0 0.1 0.1 0.1 0q0 0 0 0-0.1-0.1-0.1-0.1 0-0.1 0-0.1 0 0 0 0.1 0 0 0 0v0.1c0-0.1 0 0 0 0q0 0 0 0zm0 0.1c0.1 0.1 0-0.1 0-0.1 0 0 0 0 0 0q0 0 0 0.1zm-0.3-0.4l0.1 0.1q0-0.1 0-0.1c-0.1 0-0.1 0-0.1 0zm0 0.1q0 0 0 0c0.1 0.1 0.1 0 0.1 0.1v-0.1q0 0 0 0c0 0.1 0 0 0 0 0 0 0-0.1 0-0.1q-0.1 0.1 0 0.1 0 0 0 0 0 0 0 0c-0.1-0.1-0.1 0-0.1-0.1zm0.1 0.1q0 0 0 0zm-0.2 0.2q0.1-0.1 0.1 0.1c0 0 0-0.1 0-0.1-0.1-0.1-0.1-0.1-0.1 0zm0.2 0.4v0.1q0 0 0 0 0.1 0 0.1 0c0 0.1 0 0.1 0 0.1q0 0 0 0c0-0.1 0-0.1-0.1-0.2q0 0 0 0zm-0.2-0.4c0 0.1 0 0.1 0 0q0 0-0.1 0zm0.3 0.4q0 0.1 0 0.1c0 0 0 0 0 0q0-0.1 0-0.1zm-0.5-0.6h0.1q0 0 0 0c-0.1-0.2 0 0-0.1 0zm0-0.1q0 0 0 0 0 0 0 0v-0.1zm0.4 0.9c0 0 0-0.1 0-0.1q-0.1-0.1-0.1-0.1v0.1q0 0 0 0c0 0 0.1 0 0.1 0.1zm-0.3 0.1q0.1 0 0.1 0 0 0-0.1-0.1c0 0 0 0.1 0 0.1q0 0 0-0.1c-0.1-0.1 0 0 0 0 0 0.1 0 0.1 0 0.1zm-0.2-0.3q0 0.1 0 0.1 0-0.1 0-0.1 0 0-0.1 0 0.1 0 0.1 0zm-0.2-0.1q0.1 0 0.1 0 0 0 0 0 0-0.1-0.1-0.1 0 0 0 0.1zm-0.2-0.1c0 0.1 0 0.1 0 0.1 0.1 0 0-0.1 0-0.1q0 0 0 0 0 0.1 0 0zm0 0.2h0.1q0 0 0 0 0 0 0 0 0 0 0 0 0-0.1 0-0.1 0 0-0.1 0.1 0 0 0 0zm0.2 0.4q0 0 0-0.1 0 0 0 0.1zm-0.1 0q0-0.1 0-0.1v-0.1c0 0-0.1 0-0.1 0q0.1 0.1 0.1 0.2zm-0.2-0.2v-0.1q0 0 0 0 0 0 0 0.1 0 0 0 0zm-0.2 0.1q0 0 0 0 0 0 0 0 0-0.1 0 0 0 0 0 0zm0 0c-0.1 0-0.1 0-0.1 0q0 0 0 0l0.1 0.1q0 0 0-0.1zm-0.1-0.2q-0.1 0-0.1-0.1 0 0.1 0 0.1 0.1 0 0.1 0zm-0.2-0.1l0.1 0.1q0-0.1 0-0.1h-0.1zm0 0.4q0 0 0 0 0 0 0 0c0 0 0-0.1 0 0zm-0.2-0.2c0 0.1 0 0 0 0q0 0 0-0.1-0.1 0 0 0h-0.1zm-0.7 0.2q0 0 0.1 0 0 0 0 0-0.1-0.1-0.1-0.1c0 0 0 0.1 0 0.1z"/><path class="a" d="m3.7 18.4v-0.1q0 0.1 0 0.1z"/><path class="a" d="m4.5 17.9z"/><path class="a" d="m4.5 17.9z"/><path class="a" d="m7.9 17.5z"/><path class="a" d="m6.2 17.3q0 0 0 0z"/><path class="a" d="m7 16.7z"/><path class="a" d="m4.7 18.3q0 0 0 0z"/><path class="a" d="m7.5 16.7z"/><path class="a" d="m5.5 17.7z"/><path class="a" d="m7.6 17.1q0 0 0 0z"/><path class="a" d="m7.7 16.5z"/><path class="a" d="m6.3 16.8z"/><path class="a" d="m6.5 16.7q0 0 0 0v0.1q0-0.1 0-0.1 0 0 0 0 0 0 0 0c0 0 0 0-0.1-0.1 0 0 0 0 0 0v0.1z"/><path class="a" d="m7.9 16.4q0 0 0 0c0 0.1 0 0 0 0.1q0 0 0 0v-0.1q0 0 0 0 0 0 0 0z"/><path class="a" d="m6.4 16.7q0 0 0 0 0 0.1 0 0c0 0 0 0.1 0 0v-0.1c-0.1-0.1 0 0.1-0.1 0.1h0.1c0 0 0 0.1 0 0z"/><path class="a" d="m7.9 17.4q0 0 0 0 0 0.1 0.1 0.1-0.1-0.1-0.1-0.1z"/><path class="a" d="m6.3 16.8z"/><path class="a" d="m6.3 16.8c0.1 0 0.1 0 0.1 0-0.1-0.1 0 0 0-0.1-0.1-0.1-0.1 0-0.1 0.1q0 0 0 0z"/><path class="a" d="m7.3 17.7c0.1 0.1 0 0 0 0q0-0.1 0-0.1 0 0 0 0.1z"/><path class="a" d="m6.1 16.8q0 0 0 0.1h0.1q-0.1-0.1-0.1-0.1z"/><path class="a" d="m5.5 17.2l0.1 0.1c-0.1-0.1 0 0-0.1-0.1 0-0.1 0 0.1 0 0q0 0 0 0z"/><path class="a" d="m7.2 17.7q0 0 0 0 0.1 0 0.1 0 0 0 0 0h-0.1v-0.1q0 0 0 0 0 0 0-0.1v0.1c0 0 0.1 0.1 0 0.1z"/><path class="a" d="m7.2 17.6q0 0 0 0z"/><path class="a" d="m6 17c0-0.1-0.1-0.1 0-0.1q0 0.1 0 0.1c0 0 0 0 0 0z"/><path class="a" d="m3.1 18.6q0 0 0 0l-0.1-0.1q0 0.1 0 0.1c0 0 0 0 0.1 0z"/><path class="a" d="m4.6 17.8q0-0.1 0-0.1 0 0 0 0 0 0 0 0 0 0.1 0 0.1z"/><path class="a" d="m5.1 17.5l-0.1-0.1q0 0 0 0 0 0 0 0 0 0 0.1 0.1 0 0 0 0z"/><path class="a" d="m4.3 17.9q0 0 0 0-0.1 0-0.1 0 0 0 0 0 0.1 0.1 0.1 0z"/><path class="a" d="m3.7 18.4q0.1-0.1 0.1-0.1c-0.1-0.1 0 0.1-0.1 0q0 0 0 0 0 0.1 0 0.1z"/><path class="a" d="m5.7 17.2c-0.1-0.1-0.1-0.1-0.1-0.2q0 0 0 0.1c0 0.1 0 0 0 0 0 0.1 0 0 0.1 0.1z"/><path class="a" d="m7.9 17.5q0 0 0 0c0 0 0 0.1 0 0z"/><path class="a" d="m7.9 17.5z"/><path class="a" d="m7.9 17.5z"/><path class="a" d="m6 17z"/><path class="a" d="m6 17q0 0 0.1 0-0.1 0-0.1 0v-0.1 0.1q0 0 0 0z"/><path class="a" d="m6 17z"/><path class="a" d="m6 17z"/><path class="a" d="m4.5 17.9z"/><path class="a" d="m4.6 17.9q0 0.1 0 0.1l-0.1-0.1q0 0 0 0z"/><path class="a" d="m4.5 17.9z"/><path class="a" d="m4.7 17.6q0 0-0.1 0 0 0 0 0.1h0.1q0 0 0-0.1z"/><path class="a" d="m7.2 16.9c0 0 0 0 0 0.1 0.1 0 0.1 0.1 0.1 0l-0.1-0.1q0 0 0 0z"/><path class="a" d="m7.4 17c0-0.1-0.1 0-0.1 0q0 0 0.1 0 0 0 0 0z"/><path fill-rule="evenodd" class="a" d="m2.4 19.3c0 0 0-0.1 0-0.1q0 0.1 0 0.1 0.1 0 0-0.1c0-0.1 0.1 0 0-0.1 0 0 0-0.1 0-0.2 0 0.1 0 0 0 0.1 0.1 0 0 0 0.1 0.1h-0.1q0 0 0.1 0 0-0.1 0-0.1 0.1 0.1 0.1 0c0 0 0 0 0 0 0 0 0 0 0 0q0-0.1 0-0.1 0 0 0 0c0 0 0 0 0-0.1q0.1 0.1 0.1 0-0.1 0-0.1 0 0-0.1 0-0.1 0 0 0 0 0.1 0 0.1 0 0 0 0 0c0-0.1 0 0 0 0q0-0.1 0 0 0 0 0 0c0 0 0.1 0 0.1 0q0 0 0 0 0 0 0 0l0.1 0.1h-0.1v0.1h0.1q0 0 0-0.1l0.3 0.8q0 0 0 0 0 0 0 0 0 0 0 0c-0.1-0.1-0.1 0-0.1 0q0 0 0 0 0 0-0.1 0 0.1 0 0.1 0 0 0 0 0 0 0-0.1 0 0 0.1-0.1 0.1 0 0 0 0 0 0.1-0.1 0 0 0 0 0 0 0.1 0 0.1 0 0 0 0c0 0-0.1-0.1-0.1 0 0 0 0 0 0 0q0 0.1 0 0c0 0 0-0.1-0.1-0.1 0-0.1 0-0.1 0-0.1q0 0 0 0 0 0 0-0.1 0 0 0 0 0 0-0.1 0 0.1 0 0.1 0c0-0.1-0.1-0.1-0.1-0.2q0 0 0 0-0.1 0.1-0.1 0zm0.4-0.3q0.1 0 0.1 0 0 0 0 0 0 0-0.1 0zm0-0.2q0 0 0 0-0.1-0.1 0 0c0 0-0.1-0.1-0.1-0.1q0 0.1 0.1 0.1zm-0.1 0.1q0 0.1 0.1 0.1 0 0 0 0 0 0 0 0 0 0 0 0 0 0 0 0 0 0 0 0 0-0.1 0-0.1 0 0 0-0.1-0.1 0-0.1 0 0 0 0 0v0.1h0.1zm-0.1 0.1c0.1 0 0.1 0 0.1 0 0 0 0 0 0 0 0-0.1 0 0 0-0.1z"/><path class="a" d="m2.6 19.7q0 0 0 0l-0.1-0.1q0 0 0 0.1z"/></svg>