<svg version="1.2" xmlns="http://www.w3.org/2000/svg" viewBox="0 0 14 20" width="14" height="20"><style>.a{fill:#dcefee}.b{fill:none}</style><path class="a" d="m5.1 14.5z"/><path fill-rule="evenodd" class="a" d="m5.4 15.2l-0.1 0.2q0-0.1 0-0.1c0 0-0.1 0.1-0.1 0.1q0 0 0 0c-0.1 0 0-0.1 0-0.1 0-0.1 0 0 0-0.1q0 0 0 0 0 0 0-0.1 0 0.1 0 0.1c0 0-0.1 0.2-0.1 0.1q0 0 0 0.1c0 0.1 0 0-0.1 0q0 0 0 0 0 0 0 0v0.1h0.1q-0.1 0-0.1 0 0 0-0.1-0.1 0 0 0 0-0.1 0-0.1 0 0 0 0.1-0.1 0 0.1 0 0.1 0 0 0 0 0-0.1 0-0.1 0 0 0 0-0.1 0-0.1 0 0 0 0 0 0 0 0.1 0c0 0 0-0.1 0-0.1-0.1 0 0.1-0.3 0-0.1 0 0 0-0.1-0.1-0.1q0.1 0 0.1 0 0-0.1 0-0.1 0 0 0 0 0 0 0 0 0 0-0.1 0 0.1 0 0.1-0.1 0-0.1 0.1-0.3c0 0 0 0 0 0q0 0 0 0 0 0 0 0 0 0 0 0 0 0 0 0 0 0 0.1 0 0 0 0 0 0 0 0 0.1v-0.1q0 0 0 0c0 0.1 0.1 0 0.1 0q0 0 0 0.1c0 0 0-0.1 0 0h0.1-0.1l0.1-0.1q0 0 0 0c0 0 0 0.1 0.1 0.1v-0.1q0 0 0 0c0 0 0 0 0 0q0 0 0.1 0 0 0 0 0c0 0 0 0 0 0v0.1-0.1q0 0 0 0.1 0 0.1 0 0.1 0 0 0 0 0 0.1 0 0.1l-0.1 0.3q0-0.1 0-0.1c0 0.1 0 0.1 0 0.2zm-0.4-0.2q0 0 0 0 0 0 0 0 0 0.1 0 0.1 0-0.1 0-0.1zm0.2-0.1l-0.1 0.1q0 0 0 0c0 0 0 0.1 0 0q0 0 0.1-0.1zm0.1 0.2c0.1-0.1 0-0.1 0-0.1 0 0 0 0.1 0 0.1z"/><path class="a" d="m5.3 15.4c0 0 0 0-0.1 0 0 0.1 0 0.1 0 0.1q0 0 0.1-0.1c0 0 0 0.1-0.1 0.1h0.1v-0.1q0 0 0 0z"/><path class="a" d="m5.2 15.4c0 0 0 0-0.1 0.1q0.1-0.1 0.1 0 0-0.1 0-0.1z"/><path class="a" d="m5.1 15.5z"/><path class="a" d="m5.1 15.6v-0.1 0.1z"/><path class="a" d="m5.1 15.4q0 0 0 0v0.1q0 0 0 0c0.1-0.1 0-0.1 0-0.1z"/><path class="a" d="m5.5 14.6z"/><path fill-rule="evenodd" class="b" d="m6.2 15.5q0 0 0 0 0 0 0-0.1h-0.1q0 0 0 0 0 0 0 0.1c0 0 0 0 0 0v0.1l-0.1-0.1q0 0 0 0 0 0 0.1 0c0-0.1-0.1-0.1 0-0.2v0.1h-0.1l0.1-0.1h-0.1q0 0 0 0 0 0.1 0 0.1c0 0 0-0.1 0 0l0.1-0.2q-0.1 0-0.1 0c0.1 0.1 0.1 0 0.2 0q0 0 0 0h-0.1v0.1c0-0.1 0.1 0 0.1-0.1 0 0 0 0 0 0q0 0 0 0c0 0 0 0 0 0.1 0.1-0.1 0.1 0 0.1 0q0-0.1 0 0 0 0 0 0.1 0 0 0 0 0 0 0 0.1 0 0 0 0c-0.1 0.2 0 0 0 0-0.1 0.1-0.1 0-0.1 0zm0-0.2q0 0 0 0 0 0 0 0c0 0.1 0 0.1 0 0.1zm0 0v0.1q0 0.1 0 0.1c0.1-0.1 0-0.1 0.1-0.1 0-0.1 0-0.2-0.1-0.1z"/><path class="a" d="m8.4 16.8z"/><path class="a" d="m6.6 15.6z"/><path class="a" d="m9.5 17.4z"/><path fill-rule="evenodd" class="a" d="m11 18.7l-0.1 0.1 0.1-0.1q0 0 0 0l-0.1 0.1q-0.1 0-0.1 0.1c0.1-0.2 0 0 0 0 0-0.1-0.1-0.1 0-0.1 0-0.1 0.1-0.1 0-0.1 0.1-0.1 0 0 0-0.1 0.1 0 0 0 0 0q0 0 0 0 0 0 0 0c-0.1 0.1-0.1 0-0.1 0 0 0 0-0.1 0-0.1q0 0 0 0 0 0 0 0c-0.1 0.1-0.1 0.1-0.1 0.1 0 0-0.1 0 0-0.1q0-0.1-0.1 0 0-0.1 0.1-0.1c0 0 0-0.1 0.1-0.1q0 0 0-0.1v0.1h-0.1c0.1-0.1 0 0 0 0-0.1 0.1-0.1 0-0.1 0.1q0 0 0 0 0-0.1 0-0.1-0.1 0-0.1 0h0.1-0.1c0 0 0 0.1 0 0.1v-0.1q0 0 0 0c0.1-0.1 0-0.1 0-0.2h0.1l-0.1 0.1q0 0 0 0c-0.1 0-0.1 0-0.1 0 0-0.1 0 0 0 0q0-0.1 0-0.1 0 0 0 0c-0.2 0.2-0.1 0-0.1 0q0-0.1 0-0.1c-0.1 0 0-0.1 0 0 0 0 0-0.1 0 0-0.1 0-0.1 0-0.1 0 0 0-0.1 0 0 0 0 0 0-0.1 0-0.1q-0.1 0-0.1 0 0 0 0 0l0.1-0.1h-0.1c0 0.1 0.1 0 0 0v0.1q0 0 0 0c0 0 0-0.1 0 0q0 0-0.1 0c0 0 0 0 0 0 0-0.1 0-0.1 0-0.1-0.1 0 0 0-0.1 0.1q0 0 0 0 0-0.1 0-0.1c0 0 0 0 0 0-0.1 0 0-0.1 0-0.1q-0.1 0 0 0c0-0.1-0.1-0.1-0.1 0q0 0 0 0 0 0 0-0.1c-0.1 0 0 0 0 0-0.1 0-0.1 0-0.1 0-0.1 0-0.1 0-0.1 0-0.1-0.1 0-0.1 0-0.1q-0.1 0-0.1 0 0 0 0 0 0 0 0 0 0 0 0 0 0-0.1 0-0.1 0 0 0.1 0 0 0 0 0c0.1-0.1 0 0 0.1 0h-0.1q0 0 0 0h0.1q0 0 0 0l-0.1 0.1c0.1-0.1 0.1-0.2 0.2-0.2q-0.1 0-0.1 0c0 0 0-0.1-0.1 0.1 0-0.1-0.1 0-0.1 0 0 0 0 0 0 0q0 0 0 0c-0.1 0.1-0.1-0.1-0.1 0 0 0-0.1 0 0 0 0-0.1-0.1 0-0.1-0.1q0 0-0.1 0.1 0 0 0 0 0 0 0.1-0.1 0 0 0 0 0 0 0 0v-0.1l0.1-0.1q-0.1 0.1-0.1 0.1c0 0 0 0 0 0.1-0.1 0-0.1 0-0.1 0 0 0 0 0 0-0.1q0 0 0 0.1 0 0-0.1 0h0.1c-0.1 0-0.1 0.1-0.1 0q0 0 0 0 0 0 0-0.1 0 0 0 0 0 0.1 0 0.1c0 0-0.1 0-0.1 0q0 0 0.1 0c0-0.2-0.1 0-0.1-0.1q0 0 0 0.1v-0.1q0 0 0.1 0 0-0.1 0 0c-0.1 0 0-0.1-0.1-0.1q0 0 0 0 0 0-0.1 0v0.1q0 0 0 0 0 0 0 0 0 0 0-0.1 0 0 0-0.1 0 0.1 0 0.1c0 0 0 0.1 0 0.1v-0.1q0 0 0 0v-0.1q0 0.1 0 0.1c0-0.1-0.1 0-0.1 0 0-0.1 0 0 0 0q0 0 0 0 0 0.1-0.1 0.1 0 0 0 0 0 0 0 0l0.1-0.2q0 0.1 0 0.1c-0.1 0-0.1 0-0.1 0q0.1 0 0.1 0 0 0 0 0 0-0.1 0-0.1 0 0 0 0c0 0-0.1 0 0 0q0-0.1 0-0.1 0 0 0 0.1c-0.1 0-0.1 0-0.1 0q0 0 0 0 0-0.1 0-0.1c0 0 0 0.1 0 0.1q0 0 0 0-0.1 0-0.1 0c0.1-0.1 0 0 0 0-0.1 0.2 0 0-0.1 0q0 0 0 0l0.1-0.1c-0.1 0.1 0-0.1-0.1 0.1q-0.1 0-0.1 0 0 0 0 0 0 0 0 0 0.1 0 0.1-0.1v-0.1 0.1c0 0 0-0.1 0 0-0.1 0 0 0 0-0.1v-0.1 0.1q0 0 0 0h0.1v-0.1q0 0 0 0 0 0 0 0c0 0 0 0 0 0-0.1 0 0 0 0-0.1 0 0 0 0.1 0 0q0 0 0 0 0-0.1-0.1 0.1 0 0 0 0l0.1-0.1q0 0 0 0 0 0.1-0.1 0.1c0 0 0 0.1 0 0.1-0.1 0.1 0 0 0 0 0-0.1-0.1 0.1-0.1 0.1 0 0-0.1 0 0 0 0-0.1-0.1 0 0-0.2-0.1 0.2 0 0 0 0h-0.1q0 0 0 0c0 0.1 0 0.1 0 0.1q0 0 0 0 0-0.1-0.1-0.1c0 0 0 0.1 0 0.1-0.1 0.1 0-0.1 0-0.1 0 0-0.1 0 0 0q-0.1 0-0.1 0c0 0 0.1-0.1 0-0.1 0 0.1 0 0 0 0-0.1 0 0 0.1-0.1 0.1q0 0 0 0c0-0.1 0 0 0 0q0-0.2 0-0.1-0.1 0.1-0.1 0.1 0-0.1 0-0.1 0 0 0.1 0c0 0 0-0.1 0-0.1 0 0 0-0.1 0-0.1q0 0.1-0.1 0.2c0 0 0 0 0 0q0 0 0 0 0 0 0 0c-0.1 0 0-0.1 0-0.1-0.1 0.1-0.1-0.1-0.1 0 0-0.1-0.1 0-0.1-0.1q0 0-0.1 0 0 0-0.1 0.1 0 0 0 0c0 0 0 0 0-0.1q0 0 0 0v0.1q0 0 0-0.1 0 0 0 0 0.1 0 0.1-0.1c-0.1 0.1 0 0-0.1 0h-0.1c-0.1 0.1 0 0-0.1 0 0.1-0.1 0-0.1 0-0.1q0 0 0 0 0 0.1 0 0.1 0 0 0 0v-0.2 0.1q0 0 0 0 0-0.1-0.1 0c0 0 0 0 0 0q0 0-0.1 0 0 0 0 0v0.1q-0.1 0-0.1 0 0 0 0.1-0.1 0 0 0 0 0 0 0 0c0.1-0.1 0 0 0-0.1 0 0 0 0 0 0.1q0 0 0 0c0-0.2-0.1-0.1-0.1-0.2 0 0-0.1 0-0.1 0.1 0 0 0 0 0 0-0.1 0 0-0.1 0-0.1-0.1 0-0.1 0.1-0.1 0.2q0 0 0 0 0 0 0 0 0 0 0 0v0.1-0.1c0-0.1-0.1 0-0.1 0 0 0.1 0 0 0 0.1q0 0 0 0c0-0.1 0 0 0-0.1 0 0-0.1 0-0.1 0 0-0.1-0.1 0-0.1 0q0 0 0-0.1c0-0.1 0 0 0 0-0.1 0.1 0 0 0 0-0.1 0 0 0 0 0q0 0 0 0 0-0.1 0-0.1 0 0 0 0l-0.1 0.1c0 0 0 0 0-0.1q0-0.1-0.1 0c0.1 0 0 0.1 0 0 0 0-0.1 0-0.1 0 0 0 0-0.1 0-0.1q0 0 0 0 0 0 0 0 0 0 0 0 0 0.1 0 0.1v-0.1q0 0-0.1 0 0 0-0.1 0 0 0 0 0l-0.1-0.1q0 0-0.1 0 0 0-0.1-0.1c0 0 0 0 0 0 0-0.1-0.1 0-0.1 0 0-0.1 0 0-0.1-0.1 0 0 0.1-0.1 0-0.1 0 0 0 0 0 0 0 0 0 0 0-0.1q0 0 0-0.1c-0.1 0.1-0.1 0.1-0.1 0l0.1-0.2q0 0 0 0c0.1 0 0 0.1 0.1 0.1q0 0 0 0c0.1-0.1 0-0.1 0-0.1q0 0 0 0l0.1-0.1c-0.1 0-0.1 0-0.1 0q0 0-0.1 0h0.1q0 0 0 0-0.1 0-0.1 0c0 0.1 0 0 0 0l0.1-0.3c0 0 0 0 0 0v-0.1c0.1 0 0.1 0 0.1-0.1q0 0 0 0c0 0.1 0 0 0 0q0 0.1 0 0.1 0 0 0 0 0.1-0.1 0.1-0.1c0 0 0 0 0 0 0 0 0.1 0 0 0h0.1c-0.1 0.1 0-0.1 0 0q0 0 0 0c0.1-0.1 0 0.1 0 0.1q0 0.1 0 0 0 0 0 0 0 0 0 0 0 0.1 0 0.1 0 0.1 0.1 0.1 0 0 0 0 0 0 0 0c0 0-0.1 0 0-0.1 0 0 0 0 0 0 0.1-0.1 0 0.1 0.1-0.1q0 0 0 0c0 0 0 0 0-0.1q0 0.1 0 0.1c0.1 0 0 0.1 0 0 0 0 0.1 0 0.1 0q0 0 0 0v0.1q0 0 0 0 0-0.1 0-0.1c0 0.1 0.1 0 0.1 0 0-0.1 0.1 0.1 0.1 0.2 0 0.1 0-0.1 0 0 0 0.1 0.1 0 0.1-0.1 0-0.1 0 0.1 0 0 0.1 0 0.1 0 0.1 0-0.1 0.2 0.1 0 0 0.1 0.1-0.1 0 0.1 0.1 0-0.1 0.1 0 0 0 0.1q0 0 0 0 0 0.1 0 0.1v-0.1q0 0 0 0.1 0 0 0 0.1 0 0 0 0v-0.1q0 0 0.1 0c0-0.1 0-0.2 0 0q0 0 0 0v-0.1 0.1q0 0 0 0 0 0.1 0 0.1v-0.1c0 0.1 0 0 0.1 0q0 0 0 0l0.1-0.1q0 0 0 0c0 0 0 0 0 0.1q0 0 0 0 0-0.1 0-0.1l0.1 0.1-0.1 0.1q0.1 0 0.1-0.1c0 0.1 0 0.1 0 0.1 0 0 0-0.1 0.1-0.1q0 0 0 0c0-0.1 0-0.1 0-0.1 0 0.1 0.1 0 0.1 0.1q0 0 0 0h-0.1 0.1q0 0 0 0h-0.1q0 0 0 0 0 0.1 0 0.1 0 0 0 0 0-0.1 0-0.1v0.1q0 0 0 0.1c0 0 0 0 0 0h-0.1q0.1 0 0.1 0 0 0 0.1 0 0 0 0 0c0-0.1 0-0.1 0-0.2v0.1q0 0 0 0v-0.1h0.1v0.2c0.1-0.2 0 0 0 0 0 0 0 0 0-0.1 0.1 0 0.1 0 0.1 0 0.1 0 0.1 0 0.1 0q0 0.1 0 0.1 0 0 0 0 0 0 0 0 0 0 0.1 0c0 0 0 0 0 0 0 0.1 0 0 0 0v0.1q0 0 0 0 0-0.1 0-0.1 0 0 0 0.1c0 0 0 0 0 0q0 0 0 0 0 0 0 0 0 0.1 0 0.1 0 0 0 0.1l0.1-0.1-0.1 0.1q0 0 0 0 0 0 0.1 0c-0.1 0 0-0.1 0-0.1q0 0 0 0 0 0 0-0.1c0 0 0 0 0-0.1 0.1 0 0 0.1 0 0.1h0.1q-0.1 0-0.1 0.1l0.1-0.1c0 0 0 0.1 0.1 0q0 0 0 0 0 0 0 0 0 0 0 0 0 0 0 0c-0.1 0.1-0.1 0.1-0.1 0.1q0 0.1 0 0c0.1-0.1 0.1 0 0.1 0 0-0.1 0 0 0-0.1q0 0 0.1 0 0 0-0.1 0v0.1q0 0 0 0 0.1-0.1 0.1 0 0 0 0 0 0 0-0.1 0 0 0.1 0 0.1 0 0 0-0.1h0.1q0 0 0 0.1c0 0 0 0-0.1 0v0.1q0.1-0.1 0.1-0.1 0-0.1 0.1-0.2c0 0 0 0.1 0 0.1 0-0.1 0 0.1 0.1 0-0.1 0 0-0.1 0 0q0 0 0 0.1h0.1q0 0 0.1 0c0 0 0.1 0 0.1 0.1 0 0.1 0.1 0 0.1 0 0 0.1 0.1 0 0 0.1 0 0.2 0.1 0 0.1 0 0 0.1 0.1 0 0.1 0.1q0 0 0 0.1v-0.1q0 0.1 0 0.1 0 0 0 0 0 0 0.1 0c0-0.1 0 0 0-0.1l0.1 0.1c0 0 0 0 0 0 0 0.1 0 0 0 0.1 0.1 0 0.1-0.1 0.1 0 0.1-0.1 0 0.1 0 0.1q0-0.1 0-0.1c0 0 0 0 0 0q0.1 0 0.1 0.1 0 0 0 0v-0.1 0.1c0 0 0 0.1 0 0 0 0 0 0 0 0q0.1 0 0.1 0l-0.1 0.1q0 0 0 0 0 0 0 0 0 0 0 0c0 0 0 0 0 0 0-0.1 0.1-0.1 0.1-0.1-0.1 0.1 0 0.1 0 0.1 0 0 0-0.1 0-0.1 0.1 0 0 0.1 0 0.1 0 0 0 0.1 0 0q0.1 0 0.1 0c0-0.1 0-0.1 0 0 0 0 0.1 0 0.1 0 0 0 0.1 0 0 0.1 0.1-0.1 0 0 0.1 0 0 0.1 0 0 0 0q0.1 0.1 0.1 0.1c0.1 0 0 0.1 0.1 0v0.1q0 0 0 0 0 0 0 0c0 0.1 0.1 0 0.1 0q0 0.1 0.1 0.1h0.1v0.1c0 0 0 0 0 0 0.1-0.1 0 0.1 0.1 0.1q0 0 0 0c0 0 0 0 0 0 0.1 0 0.1 0.1 0.2 0.1q0 0 0 0.1 0 0 0 0v0.1c0-0.1 0-0.1 0-0.1q0 0 0 0 0.1 0 0.1 0 0 0 0.1 0.1c0 0 0 0 0.1 0.1 0 0 0.1 0 0.1 0.1 0 0 0 0 0 0 0 0 0 0.1 0 0.1 0.1 0 0 0 0 0.1 0 0 0.1-0.1 0.1 0 0 0 0.1 0 0.1 0 0 0-0.1 0.1 0 0.1q0.1-0.1 0.1 0 0 0.1 0 0.1 0 0 0 0 0.1 0 0.1 0 0.1 0 0.1 0.1c0 0.1 0.1 0.1 0.1 0.2 0 0 0.1-0.1 0 0q0 0 0 0h0.1q0 0 0 0v0.1h0.1q0 0 0 0 0 0 0 0zm-4.6-3.7q0 0 0 0c0.1-0.1 0.1-0.1 0.1-0.2-0.1 0-0.1 0.1-0.1 0.2zm-0.5 0.1q0 0 0 0c0 0.1 0.1 0 0.1 0.1q0-0.1-0.1-0.1 0 0 0 0zm-0.3 0.2q0 0 0 0.1 0 0 0-0.1 0 0 0 0c0 0 0 0 0 0zm0-0.2q0 0 0 0c0-0.1-0.1 0-0.1-0.1 0 0.2 0.1 0 0.1 0.1zm-0.1 0.2q0 0 0 0v0.1q0 0 0 0c0-0.1 0 0 0-0.1zm0.1 0q0 0 0-0.1 0 0-0.1 0 0 0 0 0.1 0 0 0.1 0zm0 0.3q0 0 0 0 0 0 0 0 0 0 0 0c0 0 0-0.1-0.1-0.1q0-0.1 0 0 0 0 0 0 0 0 0 0c0 0 0.1 0 0 0.1q0.1 0 0.1 0.1c0 0 0-0.1 0 0q0 0 0 0 0-0.1 0-0.1zm0.2 0.1q0 0-0.1 0 0 0 0 0v0.1q0 0 0 0c0.1-0.2 0.1-0.1 0.1-0.1zm0.1-0.3v-0.1q0 0 0 0 0 0 0 0c0.1 0 0.1 0 0 0.1q0 0 0 0h0.1c-0.1-0.1 0-0.1 0-0.1-0.1 0-0.1-0.1-0.1-0.1 0 0 0 0 0 0.1 0-0.1-0.1 0-0.1-0.1q0 0 0 0 0 0-0.1 0.1 0 0 0 0 0 0 0 0 0 0 0 0 0 0 0 0 0 0 0 0.1 0 0 0 0c0 0 0 0 0 0q0 0-0.1 0.1 0 0 0.1 0 0 0 0 0 0 0 0 0-0.1 0-0.1 0 0 0.1 0 0.1 0.1 0 0.1-0.1c0 0 0 0 0-0.1 0 0.1 0.1-0.1 0.1-0.1 0 0 0 0 0.1 0q0 0 0 0 0 0.1 0 0.1-0.1 0-0.1 0c0-0.1 0 0 0 0q0 0 0 0 0 0 0 0 0 0 0 0.1-0.1 0-0.1 0c0 0 0 0.1 0 0.1v0.1q0-0.1 0-0.1l0.1-0.1c0 0 0-0.1 0-0.1q0 0.1 0 0 0 0 0.1 0c0-0.1 0 0 0 0zm0 0.2q0 0 0 0h-0.1q0 0 0 0.1l0.1-0.1q0 0 0 0zm0-0.2c0 0 0 0.1 0 0.1 0 0-0.1 0-0.1 0 0 0 0.1 0 0.1 0 0 0 0 0 0-0.1zm0 0.1q-0.1 0.1-0.1 0.1 0 0 0.1-0.1zm0.1 0.1h-0.1v0.1c0-0.1 0 0 0-0.1q0 0.1 0 0.1c0 0 0 0.1-0.1 0.1q0 0 0 0 0 0 0 0 0 0 0 0c0.1 0 0.1 0 0.1-0.1q0 0 0 0c0 0 0.1 0 0.1 0 0-0.1-0.1 0 0-0.1zm0 0.1c0-0.1 0 0.1 0 0l-0.1 0.1q0 0 0.1-0.1c0 0 0 0 0 0zm0.2-0.1c0-0.1 0 0 0-0.1 0 0 0 0.2 0 0q0.1 0 0.1 0 0 0 0-0.1 0 0 0 0 0-0.1 0-0.1 0 0-0.1 0c0 0 0-0.1 0 0 0-0.1 0 0-0.1-0.1h0.1q0 0-0.1 0c0 0 0 0 0 0.1 0 0 0 0 0 0v-0.1q0 0 0 0c0 0-0.1 0.1-0.1 0.1q0-0.1 0-0.1l-0.1 0.2c0.1-0.1 0.1 0 0.1 0q0 0 0 0 0-0.1 0-0.1v0.1-0.1c0 0.1 0 0.1 0 0.2q0 0 0 0 0 0 0 0v0.1c0-0.1 0.1-0.1 0.1-0.1q0 0 0-0.1 0 0 0 0l0.1 0.1q0 0 0 0 0 0 0 0.1zm0.1 0.3q0 0 0-0.1c0-0.1 0 0 0 0 0-0.1-0.1 0-0.1-0.1q0 0 0 0v0.1q0-0.1 0-0.1c0-0.1-0.1 0 0-0.1q0 0 0 0 0 0 0 0 0 0.1-0.1 0.1 0 0 0 0.1 0 0 0 0c0 0 0 0.1 0 0.1 0.1-0.1 0 0 0 0 0.1-0.1 0.1-0.1 0.2-0.1 0 0-0.1 0.1-0.1 0q0 0 0 0v0.1q0 0 0 0l0.1-0.1q0 0.1 0 0.1zm0.2-0.5q-0.1 0-0.1 0c0 0 0 0.1 0 0.1 0 0 0 0 0 0 0 0 0 0 0.1-0.1zm0.1 0v0.1c0 0 0-0.1-0.1 0 0 0.1 0 0 0 0 0 0.1 0 0.1 0 0.1 0 0.1 0 0 0 0.1v-0.1c0-0.1 0-0.1 0-0.2q0 0-0.1 0.1 0.1 0 0 0.1 0 0.1 0 0.2 0 0 0 0c0 0 0 0 0 0q0 0 0 0 0 0 0 0.1c0 0 0 0 0 0.1 0 0 0-0.1 0-0.1q0 0 0-0.1v0.1c0 0 0-0.1 0-0.1 0 0 0-0.1 0.1-0.2 0 0 0 0.1 0 0q0 0 0 0v-0.1 0.1q0 0 0 0zm0 0.3q0 0 0 0c0.1 0 0.1-0.1 0.1 0q0 0 0.1 0 0 0 0-0.1 0 0-0.1 0 0 0 0-0.1 0 0 0 0 0 0.1 0 0.1 0 0 0-0.1 0 0 0 0 0 0 0 0 0 0 0 0 0 0.1-0.1 0.1 0 0 0-0.1h0.1c0 0-0.1 0.1 0 0.1q0-0.1 0-0.2 0 0 0 0c-0.1 0.1-0.1 0.2-0.1 0.3zm0 0.3c0 0 0-0.1 0-0.1 0 0 0-0.1 0-0.1 0 0 0 0.1 0 0.1q0 0 0-0.1 0 0 0 0c0 0-0.1 0.1-0.1 0.1q0 0 0 0c0 0 0 0.1 0.1 0 0 0.1-0.1 0.1 0 0.1q0 0 0 0c0 0.1 0 0-0.1 0q0 0.1 0 0 0 0.1 0 0.1 0.1 0 0.1-0.1zm0.1 0q0 0 0-0.1c0 0.1 0 0 0 0 0-0.1-0.1 0-0.1 0v0.1q0.1 0 0 0.1 0 0 0 0 0 0 0 0c0 0 0-0.1 0.1-0.1q0 0.1 0 0zm0.3-0.3q0 0 0.1 0h-0.1q0 0 0 0 0-0.1 0.1-0.1 0 0 0 0.1 0-0.1 0-0.1 0 0 0 0c-0.1 0 0-0.1-0.1 0q0 0 0-0.1 0 0 0 0c0 0 0 0.1 0 0.1-0.1 0 0 0.1 0 0.1-0.1-0.1-0.1-0.1-0.1 0q0 0 0 0c0 0.1 0 0.1 0 0q0.1 0 0.1 0.1c0 0 0-0.1 0-0.1zm0.1 0q0 0 0 0 0 0-0.1 0v0.1zm0.3-0.5q0 0 0-0.1v0.1q0 0 0 0 0 0 0-0.1 0 0 0 0.1c0-0.1 0 0 0 0.1q-0.1 0 0 0 0 0 0-0.1zm-0.2 0.6c0.1-0.1 0 0 0 0q0 0 0 0 0 0 0 0c0 0.1 0 0 0 0q0 0 0 0zm0.3 0.1v-0.1 0.1-0.1q0 0 0 0c0 0-0.1 0-0.1 0 0 0.2 0 0.1 0 0q0 0 0 0c0 0 0 0.1 0 0.1 0 0 0 0.1 0 0q0 0 0 0.1c-0.1 0.1 0 0 0.1 0q0 0 0 0v-0.1 0.1c-0.1 0 0 0 0-0.1q-0.1 0-0.1 0.1 0.1-0.1 0-0.1 0 0 0 0l0.1-0.1zm0 0.2q0 0 0-0.1c0 0 0 0 0 0q0.1 0 0.1-0.1 0 0 0 0-0.1 0.1-0.1 0.1 0 0.1 0 0.1 0 0 0 0zm0.4-0.5q0 0 0 0 0 0-0.1 0 0 0.1 0 0.1 0.1 0 0.1-0.1zm-0.2 0.5q0 0 0-0.1l-0.1 0.1q0.1 0 0.1 0 0 0 0 0.1 0 0 0 0l-0.1 0.1q0.1-0.1 0.1-0.2zm0.1 0.1c0.1-0.2 0 0 0 0q-0.1 0-0.1 0.1c0 0 0-0.1 0 0l0.1-0.1q0 0 0 0zm0.1-0.1q0 0 0 0 0 0.1 0 0.1c0 0 0 0 0-0.1zm0.2 0.3q0-0.1 0-0.1c0.1-0.1 0-0.1 0-0.1q0 0.1 0 0.1c-0.1 0 0-0.1-0.1 0q0 0 0.1 0c-0.1 0.1 0 0 0 0.1zm0.3-0.5q0 0 0 0 0.1 0 0.1 0c0-0.1-0.1 0 0-0.1q0 0.1-0.1 0.1zm-0.1 0.3c-0.1 0 0 0 0 0q0 0-0.1 0 0 0 0 0.1-0.1 0 0 0.1 0 0 0-0.1 0 0 0 0v-0.1c0 0.1 0.1 0 0.1 0q0 0 0 0zm0.1 0c0-0.1-0.1 0-0.1 0 0 0 0 0 0 0.1q0 0 0.1-0.1zm-0.2 0.5v-0.2q0 0.1 0 0.1c0 0 0 0 0 0.1zm0.1-0.1q0 0 0 0c0.1-0.1 0-0.1 0-0.1 0 0 0 0 0 0-0.1 0-0.1 0.1-0.1 0.1q0 0 0.1-0.1 0 0 0 0 0 0 0 0.1c-0.1 0.1 0 0 0 0.1zm0.3-0.1c-0.1 0-0.1 0 0-0.1 0-0.1-0.1 0.1-0.1 0.1 0 0 0 0 0.1 0zm0.3-0.4q0 0 0 0 0-0.1 0 0c0-0.1 0-0.1 0-0.1q0-0.1 0-0.1c-0.1 0.1 0 0.1-0.1 0.2q0 0 0.1 0zm-0.2 0.4c0 0 0 0-0.1 0q0 0.1 0 0.1zm0.3-0.4q0 0 0-0.1c0 0 0 0 0 0q0 0.1 0 0.1zm-0.4 0.7q0 0 0 0v-0.1q0 0 0 0c-0.1 0.2 0.1 0 0 0.1zm0 0q0 0 0 0 0 0 0 0l-0.1 0.1zm0.6-0.8c0 0-0.1 0.1-0.1 0.1q0 0.1 0 0.1v-0.1q0 0 0 0c0 0 0 0 0.1-0.1zm0.3 0.2q0 0 0 0-0.1 0-0.1 0c0 0.1 0 0 0 0.1q0 0 0 0c0 0.1 0 0 0 0 0.1 0 0.1-0.1 0.1-0.1zm-0.1 0.4q0 0 0 0 0 0 0 0-0.1 0-0.1 0.1 0.1-0.1 0.1-0.1zm-0.1 0.2q0 0 0-0.1 0 0 0 0.1 0 0-0.1 0.1 0.1-0.1 0.1-0.1zm0.1 0.2c0 0 0.1 0 0.1 0-0.1 0-0.1 0-0.1 0.1q0 0 0 0 0.1 0 0-0.1zm0.2-0.1q-0.1 0-0.1 0 0 0 0 0 0 0 0 0 0 0 0 0 0 0.1 0 0.1 0 0 0.1-0.1zm0.2-0.2v-0.1q0 0 0 0l-0.1 0.1q0.1-0.1 0.1 0zm0.1 0q-0.1 0-0.1 0v0.1c0 0 0 0.1 0 0q0 0 0.1-0.1zm-0.1 0.3l-0.1 0.1q0 0 0 0 0.1 0 0.1-0.1 0 0 0 0zm0.3 0.2q0 0 0 0 0 0-0.1 0 0 0.1 0 0 0 0 0.1 0zm0 0c0 0.1 0 0.1 0 0.1q0 0 0 0v-0.1q0 0 0 0zm-0.2 0.2q0 0 0 0.1 0.1-0.1 0.1-0.1 0 0 0 0zm-0.1 0.2v-0.2q0 0.1 0 0.1v0.1zm0.4-0.1q0.1-0.1 0.1-0.1 0 0-0.1 0c0 0 0 0.1 0 0.1zm0 0.3c0-0.1 0 0 0-0.1q-0.1 0.1-0.1 0.1 0 0 0 0v0.1q0-0.1 0.1-0.1zm0.6 0.6q0 0 0 0 0 0-0.1 0 0 0 0 0.1c0 0 0 0 0.1-0.1z"/><path class="a" d="m10.1 18q0 0 0 0z"/><path class="a" d="m9.2 17.3z"/><path class="a" d="m9.2 17.3z"/><path class="a" d="m6 14.5z"/><path class="a" d="m7.5 16q0 0 0 0z"/><path class="a" d="m6.3 15.8z"/><path class="a" d="m9.4 17q0 0 0 0z"/><path class="a" d="m5.8 15.4z"/><path class="a" d="m8.3 16.4z"/><path class="a" d="m6 15.1q0 0 0 0 0 0 0 0z"/><path class="a" d="m5.6 15.5z"/><path class="a" d="m6.9 16.3z"/><path class="a" d="m6.8 16.2h-0.1 0.1q0 0 0 0v-0.1q0 0 0 0.1l-0.1-0.1q0 0 0 0v0.1q0 0 0 0c0.1 0 0 0 0 0.1 0 0 0 0 0 0h0.1v-0.1z"/><path class="a" d="m5.4 15.5q-0.1-0.1-0.1-0.1c0 0 0 0.1 0 0q0-0.1 0-0.1v0.2q0 0 0 0 0 0 0.1 0z"/><path class="a" d="m6.8 16.3q0 0 0 0 0.1-0.1 0-0.1c0 0.1 0.1 0 0 0v0.1c0 0.1 0 0 0 0h0.1c-0.1 0 0-0.1-0.1 0z"/><path class="a" d="m5.9 14.6q0 0 0 0 0 0 0-0.1 0 0.1 0 0.1z"/><path class="a" d="m6.9 16.3z"/><path class="a" d="m6.9 16.2c0 0 0 0 0 0 0 0.1 0-0.1 0 0.1-0.1 0.1 0 0 0 0q0-0.1 0-0.1z"/><path class="a" d="m6.8 14.8c0-0.1-0.1 0.1-0.1 0q0 0.1 0 0.1 0.1 0 0.1-0.1z"/><path class="a" d="m7.1 16.4q0 0 0.1 0v-0.1h-0.1q0 0.1 0 0.1z"/><path class="a" d="m7.9 16.7q0 0 0-0.1c0 0 0 0-0.1 0.1 0 0.1 0.1 0 0.1 0 0 0 0 0 0 0z"/><path class="a" d="m6.8 14.9q0 0 0 0 0 0 0 0 0 0 0 0v0.1q0 0 0 0 0 0 0 0c0 0 0-0.1 0-0.1z"/><path class="a" d="m6.8 15q0 0 0 0z"/><path class="a" d="m7.3 16.4c0 0 0 0.1 0 0.1q0-0.1 0.1-0.1c0 0-0.1 0-0.1 0z"/><path class="a" d="m10.7 18.6q0 0 0 0v0.1q0 0 0 0c0-0.1 0-0.1 0-0.1z"/><path class="a" d="m9 17.3q0 0-0.1 0.1 0 0 0 0 0 0 0.1 0 0-0.1 0-0.1z"/><path class="a" d="m8.4 17h-0.1q0 0 0.1 0 0 0.1 0 0.1 0-0.1 0-0.1 0 0 0 0z"/><path class="a" d="m9.4 17.6q-0.1 0-0.1 0 0 0 0 0 0 0 0.1 0 0 0 0 0z"/><path class="a" d="m10.1 17.9q-0.1 0.1-0.1 0.1c0 0 0.1-0.1 0 0q0 0 0 0 0.1 0 0.1-0.1z"/><path class="a" d="m7.7 16.6c0 0 0 0.1 0 0.1q0 0 0 0c0-0.1 0-0.1 0 0 0.1-0.1 0-0.1 0-0.1z"/><path class="a" d="m5.9 14.6l0.1-0.1q0 0 0 0c0 0 0 0-0.1 0.1z"/><path class="a" d="m6 14.5z"/><path class="a" d="m6 14.5z"/><path class="a" d="m7.3 16.4z"/><path class="a" d="m7.3 16.3q0 0 0 0 0 0 0 0v0.2-0.1q0 0 0-0.1z"/><path class="a" d="m7.3 16.4z"/><path class="a" d="m7.3 16.4z"/><path class="a" d="m9.2 17.3z"/><path class="a" d="m9.2 17.3q0-0.1 0 0h-0.1q0 0.1 0 0.1l0.1-0.1z"/><path class="a" d="m9.2 17.3z"/><path class="a" d="m8.8 17.3q0 0 0 0 0 0 0 0 0 0 0 0z"/><path class="a" d="m6.3 15.5c0 0 0 0 0-0.1 0 0 0-0.1 0 0v0.1q0 0 0 0z"/><path class="a" d="m6.2 15.3c0 0.1 0 0.1 0 0.1v-0.1q0 0 0 0 0 0 0 0z"/><path fill-rule="evenodd" class="a" d="m11.7 19.1c0 0-0.1 0-0.1 0q0 0 0 0 0-0.1 0 0c-0.1 0.1-0.1-0.1-0.1 0.1 0-0.1-0.2 0-0.2 0 0.1-0.1 0 0 0-0.1 0.1 0 0.1 0 0.1 0q0 0 0 0 0.1 0 0.1 0v-0.1l-0.1 0.1q0 0 0-0.1 0 0-0.1 0c0 0 0 0 0 0 0 0 0-0.1 0 0q-0.1 0-0.1 0 0 0 0 0c0 0 0-0.1-0.1 0q0-0.1 0-0.1 0 0.1-0.1 0.1h0.1q-0.1 0.1-0.1 0 0 0 0 0v-0.1q0 0-0.1 0.1c0 0 0-0.1 0-0.1q-0.1 0.1 0 0 0 0 0 0c0 0 0-0.1 0 0q0 0 0 0 0 0 0 0v-0.1l0.1-0.1v0.1h0.1l-0.1-0.1q0 0 0 0l0.6-0.5q0 0 0 0 0 0 0 0v-0.1q0 0 0 0c-0.1 0.2 0.1 0.1 0 0.1q0 0.1 0 0.1 0 0 0 0 0.1 0 0.1 0 0 0 0 0 0 0 0 0 0.1 0 0.1 0.1 0 0 0.1 0 0 0.1 0 0.2 0-0.1 0-0.1 0.1 0 0.1 0 0 0 0 0c0 0.1-0.1 0.1 0 0.1 0 0 0 0 0 0q0.1 0 0 0c0.1 0 0 0.1 0 0.1-0.1 0.1-0.1 0.1-0.1 0.1q0 0 0 0 0 0-0.1 0 0 0 0 0.1 0 0 0 0 0 0 0 0c0 0-0.1 0-0.1 0.1q0 0 0 0 0 0 0 0.1zm-0.5-0.4q0 0 0-0.1 0 0 0 0 0 0.1-0.1 0.1zm-0.1 0.2v-0.1q0 0 0 0-0.1 0.1 0 0.1c0-0.1-0.1 0 0 0q0 0 0 0zm0.2-0.1q0 0 0 0 0 0 0 0 0 0 0 0 0 0 0-0.1 0 0 0 0 0 0 0 0.1-0.1 0-0.1 0 0 0-0.1 0 0 0.1 0 0.1 0 0 0.1-0.1zm0.1 0c0 0 0-0.1 0-0.1 0 0 0 0 0 0-0.1 0.1 0 0.1 0 0.1z"/><path class="a" d="m12 18.8q0 0 0 0l-0.1 0.1q0.1 0 0.1 0z"/><path class="a" d="m3.9 10.1q0 0 0 0 0 0 0 0 0 0 0 0z"/><path fill-rule="evenodd" class="a" d="m4.6 10.5v0.2q0 0 0 0c0 0-0.1 0.1-0.1 0.1q0 0 0 0c0 0 0 0-0.1 0 0-0.1 0-0.1 0.1-0.1q0 0-0.1-0.1 0 0 0 0 0 0 0 0c0 0 0 0.2 0 0.2q0 0 0 0c0 0.1 0 0.1 0 0.1q0 0-0.1 0 0 0 0.1 0 0 0 0 0.1 0 0 0 0 0 0 0 0-0.1 0-0.2 0 0 0-0.1 0 0 0 0 0 0 0 0-0.1 0 0 0 0.1 0 0 0 0 0-0.1 0-0.1 0 0 0 0 0 0-0.1 0 0 0 0 0 0 0 0.1 0c0 0-0.1-0.1-0.1-0.1 0 0 0-0.3 0-0.1 0 0-0.1-0.1-0.1-0.1q0 0 0 0 0 0 0-0.1 0 0 0 0 0 0 0 0.1 0 0 0 0 0 0 0 0 0-0.1-0.1-0.1 0-0.2 0-0.3c0 0 0-0.1 0-0.1q0 0.1 0.1 0 0 0 0 0 0 0 0 0 0 0 0 0 0 0 0 0 0 0 0 0 0 0 0 0 0 0 0 0 0 0 0 0 0 0 0 0 0 0 0 0 0 0 0 0 0 0 0 0 0 0 0 0 0 0 0 0 0.1 0 0.1 0c0 0.1 0 0 0.1 0q0 0 0 0 0 0 0 0 0 0 0 0 0 0 0 0 0 0 0 0 0 0 0 0c0 0 0-0.1 0 0q0 0 0.1 0-0.1 0-0.1 0 0-0.1 0-0.1 0.1 0 0.1 0c0-0.1 0 0 0.1 0q0 0 0 0 0 0 0 0c0-0.1 0-0.1 0-0.1q0 0 0 0 0 0 0 0 0 0 0 0 0 0 0 0 0 0 0 0 0 0 0 0c0.1 0 0.1-0.1 0.1 0q0 0 0 0 0 0 0 0 0 0 0 0 0 0 0 0 0 0.1 0 0.1 0 0 0.1 0.1 0 0 0 0 0 0 0 0l0.1 0.3q-0.1 0-0.1 0 0 0 0 0 0 0 0 0c0 0 0.1 0.1 0.1 0.1zm-0.5 0.1q0-0.1 0-0.1 0 0.1 0 0.1 0 0 0 0 0 0 0 0zm0.1-0.2q0 0 0 0 0 0.1 0 0.1 0 0-0.1 0 0.1 0 0.1 0c0 0 0 0.1 0 0q0 0 0-0.1zm0.3 0.1c0-0.1 0-0.1 0-0.1-0.1 0 0 0.1 0 0.1q0 0 0 0 0 0 0 0z"/><path class="a" d="m4.6 10.8c0 0 0-0.1 0 0q0 0 0 0 0 0 0 0c0 0.1 0 0.1 0 0.1q0 0 0 0 0 0 0-0.1c0 0 0 0 0 0.1q0 0 0.1 0l-0.1-0.1q0 0 0 0z"/><path class="a" d="m4.5 10.8c0 0 0 0 0 0.2q0-0.1 0.1-0.1 0-0.1-0.1-0.1z"/><path class="a" d="m4.5 11q0 0 0 0 0 0 0 0 0 0 0 0z"/><path class="a" d="m4.5 11q0 0 0 0 0 0 0 0 0 0 0 0z"/><path class="a" d="m4.4 10.9q0 0 0 0 0.1 0 0.1 0 0 0 0 0c0 0 0 0-0.1 0z"/><path class="a" d="m4.5 10q0 0 0 0 0 0 0 0z"/><path fill-rule="evenodd" class="b" d="m5.8 10.4q-0.1-0.1-0.1-0.1c0 0 0 0 0 0q0 0-0.1 0 0 0 0 0 0 0 0 0c0 0.1 0 0.1 0 0.2q0 0 0 0 0 0-0.1-0.1 0 0 0 0 0 0 0 0c0 0 0-0.1 0-0.1q0 0 0 0 0 0 0 0 0 0 0 0.1 0 0-0.1 0 0 0 0-0.1 0 0 0 0 0 0 0 0 0 0 0 0 0 0 0 0c0 0.1 0 0 0 0q0 0 0-0.1 0 0 0 0c0 0.1 0 0 0.1-0.1q0 0 0 0 0 0.1 0 0.1 0 0 0 0 0 0 0 0c0 0 0 0 0-0.1q0 0 0 0 0 0 0 0 0 0 0 0c0.1 0 0.1 0 0.1 0.1 0-0.2 0.1-0.1 0.1-0.1q0 0 0 0 0 0 0.1 0.1 0 0 0 0 0 0 0 0 0 0.1 0 0.1c0.1 0.2 0 0 0 0 0 0.1 0 0 0 0.1zm-0.1-0.2q-0.1 0-0.1 0 0 0 0 0c0 0.1 0 0 0 0q0 0 0.1 0zm0 0q0.1 0.1 0.1 0.1 0 0 0 0c0 0 0 0 0 0 0-0.1-0.1-0.2-0.1-0.1z"/><path class="a" d="m9 10q0 0 0 0 0 0 0 0 0 0 0 0 0 0 0 0z"/><path class="a" d="m6.2 10.2q0 0 0 0 0 0 0 0 0 0 0 0z"/><path class="a" d="m10.4 9.5q0 0 0 0 0 0 0 0z"/><path fill-rule="evenodd" class="a" d="m13 8.9l0.1 0.2q-0.1-0.1-0.1-0.1 0 0 0 0 0 0 0 0 0 0.1 0 0.2 0 0 0 0c0-0.2 0 0.1 0 0.1 0-0.1 0 0-0.1-0.1 0 0 0-0.1 0 0q0-0.1-0.1-0.1c0-0.1 0 0 0 0 0-0.1 0 0 0 0.1q0 0 0-0.1 0 0 0 0c0 0.1-0.1 0.1-0.1 0.1 0 0-0.1-0.1-0.1-0.1q0 0 0 0 0 0 0 0.1c0 0 0 0 0 0.1 0 0 0 0-0.1 0q-0.1-0.1-0.1 0 0-0.1 0-0.1c-0.1 0-0.1 0-0.1-0.1q0 0 0-0.1 0 0 0 0.1 0 0 0 0c0-0.1 0 0 0 0 0 0.2-0.1 0.1 0 0.2q0 0 0 0-0.1-0.1-0.1 0 0 0 0 0 0 0 0 0 0 0 0 0 0-0.1 0-0.1 0 0 0 0 0 0 0 0c-0.1 0.1 0 0.2 0 0.2q-0.1-0.1-0.1-0.1 0 0 0 0c0-0.1-0.1-0.1-0.1-0.1q0-0.1 0-0.1 0 0.1 0 0.1 0 0 0 0.1c0 0 0 0-0.1 0 0-0.1 0 0 0 0q0 0 0 0-0.1 0-0.1 0c0.1 0.2 0 0-0.1 0q0 0 0 0c0 0.1-0.1-0.1-0.1 0q0 0 0 0c0 0 0 0 0 0 0 0.1 0 0 0 0.1 0 0 0 0.1 0 0 0 0-0.1-0.1-0.1-0.1q0 0.1-0.1 0.1 0 0 0 0 0 0 0 0 0-0.1 0-0.1 0 0 0 0c0 0.1-0.1-0.1-0.1 0q0 0.1 0 0.1 0.1 0 0.1 0c0 0 0-0.1 0 0q0 0 0 0c-0.1 0.1-0.1 0.1-0.1 0.1-0.1-0.1-0.1-0.1-0.1-0.1q0 0 0 0 0 0 0 0c0 0.1 0 0 0 0.1q0 0 0 0 0 0 0 0c0 0 0-0.1-0.1 0 0 0.1 0-0.1-0.1-0.1q0 0.1 0 0c0 0-0.1 0.1-0.1 0.1q0 0 0 0c0 0 0 0 0 0 0 0-0.1 0-0.1 0 0 0 0 0-0.1 0.1 0 0 0 0-0.1 0 0 0 0 0 0 0q0 0-0.1 0.1 0 0 0 0 0 0 0 0 0-0.1 0-0.1 0 0 0 0 0 0 0-0.1-0.1 0-0.1 0 0 0 0 0 0 0 0 0c0 0 0.1 0.1 0 0.1 0 0 0 0 0 0q0 0 0 0c0 0.1-0.1 0-0.1 0.1 0 0 0 0 0 0 0-0.1-0.1 0-0.1 0q0 0 0 0.1 0 0 0 0 0 0-0.1-0.1 0.1 0 0 0 0 0 0 0 0-0.1 0-0.1 0-0.1 0-0.1 0 0 0 0c0 0.1 0 0.1 0 0.2 0 0 0 0-0.1 0 0 0 0 0 0 0q0 0 0 0 0 0 0 0.1 0 0 0 0 0 0 0 0 0 0 0 0c0 0 0 0.1 0 0.1q0-0.1 0-0.1 0 0 0 0 0 0 0 0 0 0-0.1-0.1 0 0 0 0 0 0.1 0 0.1 0 0 0 0c0 0 0 0.1 0 0.1q0 0 0-0.1c-0.1-0.1 0 0.1-0.1 0q0 0 0 0.1 0-0.1 0-0.1 0 0 0 0 0 0 0 0 0-0.1 0 0c0 0-0.1-0.1-0.1-0.1q0 0 0 0 0 0.1 0 0.1 0 0 0 0 0 0 0 0 0 0 0 0 0 0 0 0.1 0 0 0 0 0 0 0 0-0.1 0-0.1-0.1 0 0 0 0 0 0 0 0c0 0 0 0 0 0q0 0.1 0 0.1 0 0 0 0 0 0 0 0 0-0.1 0-0.1 0 0 0 0 0 0 0 0c-0.1 0-0.1 0.1-0.1 0.1 0-0.1 0 0 0 0q0 0 0 0 0 0.1 0 0.1 0 0 0 0 0 0 0 0 0-0.1 0-0.2 0 0.1 0 0.1c0 0.1 0 0.1-0.1 0q0 0 0 0 0 0 0 0 0 0 0 0 0-0.1 0-0.1 0 0 0 0 0 0.1 0 0.1c0-0.1 0 0 0-0.1q-0.1 0-0.1 0 0 0 0 0 0 0 0 0c0.1 0.1 0.1 0.1 0 0.1q0 0 0 0 0 0 0 0c0 0-0.1 0 0 0q0 0 0 0.1 0-0.1-0.1-0.1c0 0 0 0 0 0 0.1 0.3-0.1 0.1-0.1 0.2q0 0 0 0 0 0 0-0.1 0 0 0-0.1 0 0 0 0.1c0 0-0.1-0.1 0 0.1q0 0 0 0 0 0-0.1 0.1 0-0.1 0-0.1 0.1 0 0-0.1 0-0.1 0-0.1 0 0.1 0 0.1 0 0 0 0 0 0 0 0c0 0 0-0.1 0 0 0 0 0 0 0 0q0 0 0 0 0 0 0 0 0-0.1 0-0.1 0 0 0 0 0 0 0 0 0 0 0 0 0 0 0 0 0-0.1 0-0.1 0 0 0 0 0 0 0 0 0 0 0-0.1 0 0 0 0c0 0.1 0 0.1 0 0.1-0.1 0-0.1 0-0.1-0.1 0 0 0 0.1 0 0q0 0 0 0-0.1 0 0 0.1 0 0 0 0.1 0-0.1 0-0.1 0 0 0 0 0 0 0 0 0-0.1 0-0.1 0 0.1 0 0.1c0 0.1 0 0.1 0.1 0.2q0 0 0 0 0 0 0 0c0 0-0.1 0-0.1 0 0-0.1 0 0 0 0.1q0 0 0 0c0-0.1 0 0 0 0-0.1-0.1-0.1 0-0.1-0.1 0 0.1-0.1-0.1-0.1-0.1q0 0.1 0 0 0 0.1 0 0.1c0.1 0 0 0.1 0 0.1q0 0 0 0-0.1-0.1-0.1 0c0 0 0 0 0 0.1 0 0.1 0-0.1-0.1-0.1 0-0.1 0 0 0 0q0 0 0 0c0 0 0-0.1 0 0-0.1 0-0.1 0-0.1 0 0 0 0 0 0 0.1q0 0 0 0c0-0.1 0 0-0.1 0q0-0.1 0 0 0 0 0 0 0 0 0 0 0 0 0 0 0 0 0 0c-0.1-0.1-0.1-0.2-0.1-0.2 0 0.1 0-0.1 0 0q0 0.1 0 0.2 0 0 0 0c0 0 0 0 0 0q0 0 0 0 0 0-0.1 0c0 0 0 0 0-0.1 0 0.1-0.1 0-0.1 0.1q0 0 0 0c-0.1-0.1-0.1 0-0.2 0q0 0-0.1 0 0 0.1 0 0.1 0 0.1 0 0.1c0 0 0 0 0-0.1q0 0 0 0 0 0 0 0 0 0.1 0 0.1 0 0 0-0.1-0.1 0 0 0 0 0-0.1-0.1c0.1 0.1 0 0 0 0q0 0.1-0.1 0.1 0 0-0.1 0c0 0.1 0 0 0 0.1q0 0 0 0c-0.1-0.2-0.1-0.1-0.1-0.1q0 0 0 0 0 0.1 0 0.1 0 0 0 0 0 0 0 0 0 0 0 0 0-0.1-0.1-0.1 0 0 0.1 0.1-0.1 0-0.1-0.1 0 0 0 0c0 0.1 0 0 0 0.1q-0.1 0-0.1 0 0 0.1 0 0.1 0 0 0 0 0 0 0 0 0 0.1-0.1 0 0 0.1 0 0 0-0.1 0.1-0.1 0 0 0 0 0 0 0 0c-0.1-0.1-0.1 0-0.1 0 0 0 0-0.1 0 0q0 0 0 0c-0.1-0.1-0.1 0-0.2 0 0-0.1-0.1 0-0.1 0 0 0.1 0 0.1 0 0.1 0 0 0-0.1 0-0.1 0 0.1 0 0.1 0 0.2q0 0 0 0 0 0.1 0 0.1 0 0 0-0.1 0 0 0 0 0 0 0 0 0 0.1 0 0.1 0 0 0-0.1c-0.1 0 0 0.1 0 0.1q0 0 0 0c0 0-0.1 0 0 0q0 0 0 0 0 0 0 0c-0.1-0.1-0.1 0.1-0.1 0 0 0-0.1 0.1-0.1 0 0 0-0.1 0.1-0.1 0.1q0 0-0.1-0.1c0-0.1 0 0.1 0 0.1 0 0 0-0.1 0-0.1 0 0.1 0 0 0 0q0 0 0 0 0 0-0.1 0 0 0 0 0 0 0 0.1 0.1c-0.1 0-0.1 0-0.1-0.1q-0.1-0.1-0.1 0.1c0-0.1 0 0.1-0.1 0 0-0.1 0 0-0.1 0q0 0 0 0c0 0 0-0.1 0 0q0 0 0-0.1 0 0 0 0 0 0 0 0.1 0 0 0 0 0 0-0.1 0 0 0 0 0-0.1 0-0.1 0-0.1 0-0.2 0 0 0 0 0-0.1 0-0.1 0.1-0.1 0-0.2 0c0 0-0.1 0-0.1-0.1 0 0 0 0.1-0.1 0.1 0-0.1 0 0-0.1 0 0-0.1 0-0.1 0-0.1 0 0-0.1 0-0.1 0 0 0 0 0 0 0q-0.1-0.1-0.1-0.2 0 0 0 0c0 0.2-0.1 0.1-0.1 0.1v-0.2q0 0 0 0c0-0.1 0.1 0 0.1 0q0 0 0 0 0.1 0 0.1-0.1c0 0-0.1 0-0.1 0q0 0 0 0 0-0.1 0-0.1c0 0-0.1 0-0.1 0.1q0 0 0 0 0 0 0-0.1 0 0 0 0 0 0 0 0c0 0.1 0 0.1 0 0l-0.1-0.2c0 0 0-0.1 0-0.1q0 0 0 0 0 0 0 0 0-0.1 0-0.1c0 0 0 0 0-0.1q0 0 0 0 0 0 0 0 0 0 0 0c0 0.1 0 0 0 0 0 0.1 0 0.1 0 0.1q0.1 0 0.1 0-0.1-0.1 0-0.1c0 0 0 0 0-0.1 0 0 0 0 0.1 0.1q0 0 0 0c0 0-0.1-0.1 0 0q0 0 0-0.1c0-0.1 0 0.1 0.1 0.1q0 0.1 0 0 0 0 0 0 0 0 0 0 0 0 0 0 0 0 0 0 0 0.1 0 0.1 0.1 0 0.1 0 0.1 0 0 0 0 0 0 0c0 0 0 0 0 0 0-0.1 0-0.1 0-0.1 0-0.1 0.1 0.1 0.1-0.1q0 0 0 0 0 0 0 0c0 0 0 0-0.1 0q0.1 0 0.1 0c0-0.1 0 0 0 0 0 0 0 0 0-0.1q0.1 0 0.1 0 0 0.1 0 0.1 0 0 0 0 0 0 0 0c0 0 0-0.1 0.1-0.1 0-0.1 0.2 0 0.2 0.1 0 0.1 0-0.1 0 0 0.1 0 0.1-0.1 0-0.1 0-0.1 0.1 0 0.1 0 0-0.1 0 0 0-0.1q0.1 0 0.1 0.1c0 0.1 0-0.2 0 0 0-0.1 0.1 0.1 0.1-0.1 0 0.1 0 0.1 0.1 0.1q-0.1 0-0.1 0 0 0 0 0.1 0.1 0 0.1 0 0 0 0 0 0 0 0 0 0-0.1 0 0 0.1 0 0 0.1 0 0 0 0 0.1 0 0.1 0 0-0.1 0-0.1 0 0 0-0.1c0 0 0-0.1 0 0q0 0 0 0 0 0 0 0 0 0 0 0 0 0 0 0.1 0.1 0 0.1 0 0 0 0 0-0.1-0.1-0.1-0.1 0 0 0 0c0.1 0.1 0.1 0.1 0.1 0q0 0 0 0 0 0 0 0 0.1-0.1 0.1-0.1 0-0.1 0-0.1c0 0.1 0 0 0 0.1q0 0 0.1 0.1-0.1-0.1-0.1-0.1 0 0 0 0 0.1-0.1 0.1-0.1 0 0.1 0 0.1 0 0 0 0.1 0 0 0 0 0-0.1 0-0.1c0.1 0 0.1 0.1 0.1 0.1 0-0.1 0-0.1 0-0.2q0 0 0 0c0 0 0-0.1 0-0.1 0.1 0.1 0.1 0 0.1 0q0 0.1 0 0.1 0 0 0 0 0 0 0 0 0 0 0 0 0 0 0 0 0 0 0 0 0 0 0 0 0 0 0 0 0 0.1 0 0.1 0-0.1 0-0.1 0 0.1 0 0.1 0 0 0 0 0 0 0 0.1c0 0 0 0 0 0q0 0 0 0 0 0 0 0 0.1 0 0.1 0 0-0.1 0-0.1 0 0 0 0c0 0 0-0.1 0-0.1q0 0 0 0 0 0 0 0 0 0 0 0.1 0-0.1 0-0.1 0 0 0 0 0-0.1 0-0.1 0 0 0 0 0.1 0.1 0.1 0.2c0-0.3 0.1-0.1 0.1-0.1 0 0.1 0 0 0 0 0-0.1 0-0.1 0.1-0.1 0 0 0-0.1 0.1-0.1q0 0.1 0 0.1 0 0 0 0 0 0 0 0 0 0 0 0.1 0-0.1 0-0.1c0 0 0.1 0 0.1 0 0 0.1 0-0.1 0 0q0 0 0 0 0 0 0 0 0 0 0 0 0 0 0 0.1 0-0.1 0-0.1 0 0 0 0 0 0 0 0c0.1 0 0 0 0 0q0.1 0 0.1 0.1 0-0.1 0-0.1 0 0.1 0 0.1 0 0 0 0.1 0.1 0 0.1 0 0-0.1 0-0.1 0 0 0 0.1 0 0 0 0 0 0 0 0 0 0 0 0c0 0 0-0.2 0-0.1q0 0 0-0.1 0 0 0 0c0-0.1-0.1 0-0.1-0.1 0-0.1 0.1 0 0.1 0.1q0 0 0 0 0 0 0-0.1 0 0 0 0 0 0 0 0.1 0 0 0 0 0 0 0 0 0 0 0-0.1 0 0 0 0 0 0 0 0c0.1 0 0.1 0.1 0.1-0.1q0 0 0 0 0 0 0 0.1 0 0 0 0 0 0 0 0c0 0 0 0.1 0 0.1q0 0.1 0 0 0 0 0 0c0-0.1 0.1-0.1 0.1-0.1 0 0 0 0 0-0.1q0 0 0 0 0 0 0 0 0 0 0 0 0 0.1 0 0.1 0 0 0 0 0-0.2 0.1 0 0 0 0 0 0 0 0 0 0 0 0 0 0 0 0 0 0 0 0 0.1 0-0.1 0-0.1 0 0 0 0 0 0 0 0c0 0 0 0 0 0.1q0 0 0 0 0 0 0.1 0-0.1 0-0.1-0.1 0-0.1 0.1-0.1c0-0.1 0 0 0 0q0 0 0 0c0-0.1 0 0 0-0.1q0 0 0 0c0.1 0.1 0.1 0 0.1 0.1q0 0 0 0 0.1-0.1 0.1-0.1 0.1 0 0.1 0c0.1 0 0.2-0.1 0.3 0 0 0 0-0.1 0-0.1 0.1 0 0.1 0 0.1 0.1 0.1 0.1 0.1-0.1 0.1-0.1 0 0 0.1 0 0.1 0q0.1 0 0.1 0.1 0 0 0 0 0 0 0 0 0 0 0-0.1 0 0 0 0 0 0.1 0.1 0.1 0-0.1 0-0.1c-0.1-0.1 0 0 0 0q0 0 0.1-0.1c0 0 0 0.1 0 0.1 0 0 0.1 0 0.1-0.1 0 0 0 0 0 0.1 0.1-0.1 0.1 0 0.1 0q0 0 0 0c0-0.1 0-0.1 0-0.1q0 0 0.1 0 0 0.1 0 0.1 0 0 0-0.1 0 0 0 0 0 0 0 0c0 0.1 0 0.1 0.1 0.1 0 0 0-0.1 0-0.1q0 0 0 0 0 0 0 0.1 0 0 0 0 0 0 0 0 0 0 0 0 0.1 0 0.1 0-0.1 0-0.1 0c0 0.1 0 0 0 0 0-0.1 0-0.1 0-0.1 0 0.1 0.1 0.1 0.1 0.1 0 0 0-0.1 0-0.1 0-0.1 0 0 0 0 0 0 0 0.1 0 0q0 0 0.1 0c0-0.1 0-0.1 0 0 0 0 0.1-0.1 0.1-0.1 0 0 0-0.1 0.1 0.1q0 0 0 0c0-0.1 0-0.1 0-0.1 0.1 0.1 0.1 0 0.1 0q0.1 0 0.2-0.1c0 0 0 0.1 0 0q0 0 0.1 0 0 0 0 0 0 0 0.1 0.1c0 0-0.1-0.1 0-0.1q0.1 0 0.2 0 0 0 0-0.1 0.1 0 0.1 0c0 0.1 0 0.1 0 0.1 0.1-0.2 0.1 0 0.1-0.1q0.1 0 0.1 0.1c0 0 0 0 0-0.1 0.1 0 0.1 0 0.2 0q0.1 0 0.1 0 0 0 0 0 0 0 0 0.1c0 0 0-0.1 0-0.1q0 0 0 0 0 0 0.1 0-0.1 0 0 0 0 0 0 0 0.1-0.1 0.1-0.1c0.1 0.1 0.1 0 0.2 0 0 0 0.1 0 0.2 0 0 0 0 0 0 0 0.1 0 0.1 0 0.1 0 0 0 0 0 0.1 0 0 0.1 0-0.1 0.1 0 0 0 0 0 0-0.1 0.1 0 0.1 0.1 0.1 0.1q0-0.1 0.1-0.1 0.1 0.1 0.1 0 0 0 0 0 0.1 0 0.1 0 0.1-0.1 0.1-0.1c0.1 0 0.2 0.1 0.3 0 0 0.1 0 0 0 0q0.1 0.1 0.1 0.1 0-0.1 0-0.1 0 0 0 0 0 0 0 0 0 0 0 0 0 0 0 0 0.1 0 0.1 0 0-0.1 0-0.1 0 0 0 0 0.1 0.1 0.1 0.1zm-2.6 0.5c0-0.1 0.1 0 0.1-0.1q0 0.1 0 0.1 0 0 0 0 0 0 0 0 0 0 0 0 0 0 0 0 0 0 0 0 0 0 0 0c0.1 0 0-0.1 0-0.1q0-0.1-0.1 0c0 0-0.1 0 0 0.1q0 0 0 0zm-4.8 0.2q0 0.1 0 0.1 0-0.1 0-0.1c0 0 0-0.1-0.1-0.1 0 0 0.1 0.1 0.1 0.1zm-0.4 0.5q0-0.1 0-0.1c0 0.1 0 0 0 0.1q0 0 0 0 0-0.1 0-0.1 0 0 0 0 0 0 0 0 0 0 0 0 0 0 0 0.1zm-0.3 0.3q0 0 0 0.1 0-0.1 0-0.1 0 0 0-0.1c0 0 0 0.1 0 0.1zm-0.1-0.1q0-0.1 0-0.1c-0.1-0.1-0.1 0.1-0.1 0q0 0 0 0c0 0.1 0 0 0.1 0.1zm0 0.2q0 0 0-0.1 0 0.1 0 0.1 0 0 0 0.1 0 0 0-0.1 0 0 0 0c0 0 0 0 0 0zm0-0.1q0 0 0-0.1 0 0 0 0 0 0.1 0 0.1 0 0 0 0zm0.3 0.2q0 0 0 0 0 0 0 0 0 0 0 0.1 0 0 0 0 0 0 0 0c-0.1-0.1-0.1-0.2-0.2-0.1q0 0 0 0c0 0 0.1 0 0.1 0q0 0.1 0.1 0.1c0 0 0-0.1 0 0q0 0 0 0 0-0.1 0-0.1zm-0.2 0q0 0 0 0 0-0.1 0 0 0 0 0 0 0 0 0 0 0 0 0 0 0 0 0 0zm0 0q0 0 0 0 0 0 0 0zm0.4 0q0 0 0 0 0 0 0 0 0 0.1 0 0.1 0 0 0 0 0 0 0 0c0-0.1 0-0.1 0-0.1q0 0 0 0zm0-0.3q0 0 0 0 0 0 0-0.1 0 0 0 0 0 0-0.1 0 0 0 0 0 0.1 0 0.1 0c0 0 0 0 0 0.1q0 0 0 0 0 0 0 0 0 0 0-0.1c0 0 0-0.1 0 0 0 0-0.1-0.1-0.1-0.1 0 0 0 0 0 0.1-0.1-0.1-0.1 0.1-0.1 0q-0.1 0-0.1 0 0 0 0 0.1 0.1 0 0.1 0-0.1 0-0.1 0 0 0 0 0 0 0 0 0 0 0 0 0.1 0 0 0.1 0 0 0 0 0 0 0 0 0c0 0-0.1 0 0 0q-0.1 0 0 0.1 0 0 0 0 0 0 0 0 0 0 0 0 0 0 0 0.1 0 0 0 0 0 0 0-0.1c0-0.1 0 0 0-0.1 0 0 0-0.1 0-0.1 0-0.1 0.1 0 0.1-0.1q0 0 0 0.1 0 0 0 0 0 0 0 0c0-0.1 0 0.1-0.1 0.1q0 0 0 0 0.1 0 0.1 0 0 0 0 0 0 0 0 0 0 0 0 0 0 0.1 0 0.1c0 0 0 0 0 0.1q0 0 0 0 0 0 0 0 0-0.1 0-0.2 0 0 0 0 0 0 0 0c0 0.1 0-0.1 0 0q0 0 0 0 0 0 0-0.1c0-0.1 0.1 0 0.1 0q0 0 0 0zm-0.1 0.1q0 0 0 0 0 0 0 0zm0.2 0.1q0 0 0 0 0 0-0.1 0 0.1 0 0.1 0.1 0 0 0 0 0-0.1 0-0.1 0 0 0 0zm-0.1 0q0 0 0 0 0 0 0 0 0 0 0 0 0 0 0 0zm0-0.2c0 0.1 0 0.1 0 0.1 0 0 0 0 0 0.1 0 0 0-0.1 0 0 0-0.1 0.1-0.1 0-0.2zm0.2 0.1q0 0.1 0 0.1 0 0 0 0c-0.1-0.1-0.1 0.1-0.1 0q0 0.1 0.1 0.1c0 0 0 0 0 0.1q0 0 0 0 0 0 0 0 0 0 0 0c0 0 0-0.1 0-0.1q0 0 0 0c0 0 0-0.1 0-0.1 0-0.1 0 0 0-0.1zm0.1 0.1c0-0.1 0 0.1 0 0q0 0.1 0 0.2 0-0.1 0-0.2c0 0 0 0 0 0zm0.1-0.2c0 0 0 0 0 0 0-0.1 0.1 0.1 0.1-0.1q0 0 0 0-0.1 0-0.1-0.1 0 0 0 0 0-0.1 0-0.1-0.1 0-0.1 0c0 0.1-0.1 0-0.1 0.1 0-0.1 0 0 0-0.1q0 0 0 0 0 0-0.1 0 0 0 0.1 0.1c0 0-0.1 0-0.1 0q0 0 0 0 0 0 0 0 0 0 0 0 0 0 0-0.1c0 0.1 0 0.2-0.1 0.1q0 0 0 0 0 0.1 0 0.2c0-0.1 0.1 0 0.1 0q0-0.1 0-0.1 0 0 0 0 0 0 0 0 0 0 0 0.1 0 0 0 0 0 0 0 0 0 0 0-0.1 0 0 0 0 0 0 0 0c0 0.1 0.1 0.1 0.1 0.1q0 0 0 0.1 0 0 0 0 0 0 0 0 0 0 0 0c0-0.1 0.1-0.1 0-0.1q0 0 0 0 0-0.1 0-0.1 0.1 0 0.2 0c0 0-0.1 0.1 0 0.1q0 0 0 0zm0.3 0.2q0 0 0-0.1c0 0 0 0.1 0 0.1q0 0 0 0 0-0.1 0-0.1 0 0 0 0c-0.1-0.1-0.1 0.1-0.2 0q0 0 0 0 0 0 0 0.1 0 0 0-0.1c0 0 0 0-0.1-0.1q0 0 0 0 0 0.1 0 0.1c0.1 0 0.1 0 0 0q0 0.1 0.1 0.1 0 0 0 0c0 0.1 0 0.1 0.1 0.1 0-0.1 0 0 0 0 0-0.1 0-0.1 0.1-0.2q0 0.1 0 0.1c0 0 0 0 0 0q-0.1 0-0.1 0 0 0 0 0 0.1 0 0.1 0 0 0 0 0 0 0 0 0zm-0.1-0.5q0 0 0 0c0 0 0 0.1 0 0.1 0 0 0 0 0 0 0 0 0 0 0-0.1zm0.2-0.1q0 0 0 0.1c0 0-0.1 0 0 0.1 0 0-0.1-0.1-0.1 0 0.1 0 0.1 0.1 0.1 0q0 0 0 0c0 0.1-0.1 0 0 0.1q0 0 0 0c-0.1-0.1-0.1-0.2-0.2-0.2q0 0 0 0.1 0 0 0 0 0.1 0 0.1 0.1 0.1 0 0.1 0.1 0 0.1 0 0.1c0 0 0-0.1-0.1 0q0.1 0 0.1 0 0 0 0 0c0 0.1 0.1 0 0.1 0.1 0 0 0-0.1 0-0.1q0 0 0 0c0 0 0 0 0 0 0 0-0.1-0.1-0.1 0 0-0.1 0-0.2 0-0.2 0 0 0 0 0 0q0-0.1 0-0.1 0 0 0 0 0 0 0 0 0 0 0 0 0 0 0 0 0 0 0 0 0-0.1 0-0.2zm0.1 0.3q0.1 0 0.1 0c0 0 0.1-0.1 0.1-0.1q0 0 0 0 0 0 0-0.1 0 0 0 0 0 0-0.1 0 0 0 0 0 0 0 0 0 0 0.1 0 0.1 0 0 0 0 0-0.1 0-0.1 0 0 0 0 0 0 0 0 0 0 0 0-0.1 0.1-0.1 0.1 0 0 0 0 0-0.1 0-0.1 0 0 0 0c0 0 0 0.1 0 0.1q0-0.1 0-0.2 0 0 0 0c0 0.1 0 0.2 0 0.3zm0.3 0.3c-0.1 0-0.1-0.1-0.1-0.1 0 0 0-0.1-0.1-0.1 0 0 0.1 0 0.1 0.1q-0.1 0-0.1-0.1 0 0 0 0c0 0 0 0.1 0 0.1q0 0 0 0c0 0.1 0.1 0.1 0.1 0 0 0.1 0 0.1 0 0q0 0 0 0.1c0.1 0 0 0 0 0q0 0 0 0.1 0 0 0 0 0.1-0.1 0.1-0.1zm0.1-0.1q0-0.1 0-0.1 0 0 0 0c-0.1 0.1-0.1 0.1-0.1 0-0.1 0 0 0.1-0.1 0.1q0 0 0 0 0.1 0 0.1 0 0 0 0 0.1 0 0 0 0 0.1 0 0.1 0c0 0-0.1 0-0.1-0.1q0.1 0 0.1 0zm0.1-0.5q0 0 0 0 0 0 0 0 0 0 0 0.1 0-0.1 0-0.1 0 0 0 0 0 0 0 0 0 0 0 0 0-0.1 0-0.1c0 0.1-0.1 0-0.1 0.1 0 0 0-0.1 0-0.1q0 0 0 0 0 0 0 0 0 0 0 0c0 0 0 0.1 0 0.1 0 0 0 0.1 0 0.1 0 0 0-0.1 0 0q-0.1 0-0.1 0.1 0 0 0 0c0.1 0 0.1 0 0.1 0q0.1-0.1 0.1 0c0.1 0 0-0.1 0-0.2zm0.1 0q0 0 0 0 0 0-0.1 0.1 0.1 0 0.1 0 0 0 0-0.1zm0-0.6q-0.1 0-0.1 0 0 0 0 0 0 0 0 0.1 0-0.1 0-0.1 0 0-0.1 0 0 0 0 0 0 0 0.1 0c0 0 0 0.1 0 0.1q0 0.1 0.1 0 0 0 0-0.1zm0.2 0.6c-0.1-0.1-0.1 0-0.1 0q0 0 0 0 0 0 0 0.1c0 0 0 0 0-0.1q0 0 0.1 0zm0.3-0.1q0 0 0 0 0 0 0 0 0 0 0 0 0 0-0.1-0.1 0 0 0 0.1 0 0 0 0 0 0 0 0 0 0 0 0c0-0.1 0 0 0 0 0 0.2 0 0.1-0.1 0.1q0-0.1 0-0.1c0 0 0 0.1 0 0.1 0.1 0 0.1 0.1 0.1 0q0 0 0.1 0c0 0.2 0 0 0 0q0 0 0 0 0 0 0 0 0 0 0 0c0 0.1 0 0 0 0q0 0 0 0 0-0.1-0.1 0 0-0.1 0-0.1 0 0 0.1 0 0 0 0 0zm0.1 0.1q0 0 0 0 0 0 0 0c0 0-0.1 0 0-0.1q0 0 0-0.1-0.1 0.1-0.1 0.1 0 0 0 0.1 0.1 0 0.1 0 0 0 0 0 0 0 0 0zm0 0q0 0 0 0 0 0 0 0zm0.1-0.6q-0.1 0-0.1 0 0 0 0 0.1 0 0 0 0 0 0 0.1-0.1zm0.1 0.5q0 0-0.1-0.1 0 0.1 0 0.2 0 0 0.1 0 0-0.1 0-0.1 0 0 0 0.1 0 0 0 0 0 0 0 0 0 0 0 0.1 0-0.1 0-0.2zm0.2 0c-0.1-0.1-0.1 0.1-0.1 0q0 0.1 0 0.2c0 0 0-0.1 0-0.1q0.1 0 0.1 0 0-0.1 0-0.1 0 0 0 0zm0.1-0.1q-0.1 0-0.1 0 0 0 0 0 0 0 0.1 0c0 0 0 0 0 0zm0.3 0.1q0-0.1-0.1-0.2c0-0.1 0 0-0.1 0q0.1 0.1 0.1 0.1c0 0-0.1 0 0 0q0 0 0 0 0 0 0 0c0 0.1 0.1 0 0.1 0.1q0 0 0 0zm-0.1-0.7q0.1 0 0.1 0.1 0-0.1 0-0.1c0-0.1 0 0-0.1 0q0 0 0 0zm0.1 0.4c0 0 0-0.1 0-0.1q0 0.1 0 0.1 0 0.1 0 0.1 0 0.1 0 0.1 0.1 0 0.1-0.1-0.1 0-0.1 0 0 0 0 0 0-0.1 0-0.1 0 0 0 0c0 0.1 0 0 0 0q0 0 0 0zm0.1-0.1c0-0.1 0 0 0 0 0 0 0 0.1 0 0.1q0 0 0-0.1 0 0 0 0zm0.3 0.4q-0.1 0-0.1-0.1c0 0.1 0 0.1 0 0.1 0 0.1 0 0 0 0.1q0-0.1 0.1-0.1zm0-0.1q0 0 0 0c0-0.1-0.1 0-0.1-0.1q0 0 0 0 0 0 0 0c0 0 0 0 0 0.1 0 0 0 0.1 0 0.1q0-0.1 0-0.1 0 0 0-0.1 0 0 0 0 0 0 0 0 0 0 0 0 0 0.1 0.1 0.1c0 0.1 0 0 0 0.1q0 0 0-0.1zm0.2-0.2c0 0 0 0 0-0.1 0 0-0.1 0-0.1 0 0 0 0.1 0.1 0 0.1 0.1 0.1 0.1 0 0.1 0zm0-0.5q0 0 0.1 0-0.1 0-0.1-0.1 0 0 0 0.1c0-0.1 0-0.1-0.1-0.1q0-0.1 0 0c0 0.1 0.1 0.1 0.1 0.1q0 0 0 0zm0.2 0.5c-0.1-0.1-0.1-0.1-0.1 0q0 0 0 0 0 0 0.1 0c0 0 0 0 0 0zm-0.1-0.5q0-0.1 0-0.1 0 0-0.1 0c0 0 0.1 0 0.1 0q0 0.1 0 0.1zm0.2 0.7q0 0 0 0 0 0-0.1 0 0 0 0 0c0.1 0.1 0.1-0.1 0.1 0zm0 0.1q0 0 0 0 0 0 0 0 0 0 0 0.1 0-0.1 0-0.1zm-0.1-1c0 0 0 0.1 0 0.1q0 0.1 0 0.1 0 0 0 0 0-0.1 0-0.1c0 0 0 0 0-0.1zm0.4-0.1q0 0 0 0 0 0.1 0 0.1c0 0.1 0 0 0 0q0 0 0 0.1c0.1 0 0-0.1 0-0.1 0 0 0-0.1 0-0.1zm0.3 0.4q0-0.1 0-0.1-0.1 0.1-0.1 0.1 0 0 0 0 0.1 0 0.1 0zm0.1 0.2q-0.1-0.1-0.1-0.1 0 0 0 0.1 0 0 0.1 0.1 0-0.1 0-0.1zm0.3 0c-0.1 0 0-0.1 0-0.1-0.1 0.1 0 0.1 0 0.2q0 0 0 0 0 0 0 0 0-0.1 0-0.1zm0-0.1q0 0 0 0 0 0-0.1 0 0 0 0 0 0 0 0 0 0 0 0 0 0 0 0 0 0 0 0 0 0 0 0 0 0.1 0 0.1 0 0 0 0 0zm0-0.4q-0.1 0-0.1 0 0 0 0 0 0 0 0.1 0.1-0.1-0.1 0-0.1zm0.1 0q0 0 0 0 0 0.1 0 0.1c0 0 0 0.1 0 0q0-0.1 0-0.1zm0.2 0.2q0 0.1 0 0.1 0 0 0 0 0 0 0-0.1 0 0 0 0zm0.4-0.1q0 0-0.1 0 0 0 0 0.1 0.1 0 0.1 0 0 0 0-0.1zm0 0c0 0.1 0 0 0.1 0.1q0 0 0-0.1-0.1 0-0.1-0.1 0 0.1 0 0.1zm0 0.2q0 0.1 0.1 0.1 0 0 0-0.1 0 0-0.1 0c0 0 0 0 0 0zm0.2 0.2q-0.1 0-0.1-0.1 0 0.1 0 0.1 0 0 0.1 0 0 0 0 0zm0.2-0.4q0 0 0-0.1 0 0 0 0.1c0 0 0 0.1 0 0.1q0-0.1 0-0.1zm0.3 0.2c0-0.1 0 0-0.1 0q0.1 0 0.1 0.1 0 0 0 0 0 0 0 0 0 0 0-0.1zm1.1-0.1q0 0-0.1 0 0 0 0 0 0.1 0 0.1 0.1c0 0 0-0.1 0-0.1z"/><path class="a" d="m11.6 9.4q0 0 0 0 0 0 0 0z"/><path class="a" d="m10.1 9.7q0 0 0 0z"/><path class="a" d="m10.1 9.7q0 0 0 0 0 0 0 0 0 0 0 0z"/><path class="a" d="m4.9 9.7q0 0 0 0 0 0 0 0 0 0 0 0z"/><path class="a" d="m7.4 10q0 0 0.1 0-0.1 0-0.1 0 0 0 0 0z"/><path class="a" d="m6 10.5q0 0 0 0 0 0 0 0 0 0 0 0z"/><path class="a" d="m10.1 9.3q0 0 0 0 0 0 0 0 0 0 0 0 0 0 0 0z"/><path class="a" d="m5.2 10.5q0 0 0 0 0 0 0 0 0 0 0 0 0 0 0 0z"/><path class="a" d="m8.6 9.7q0 0 0 0 0 0 0 0z"/><path class="a" d="m5.2 10.1q0 0 0 0 0 0 0 0 0 0 0 0 0 0 0 0z"/><path class="a" d="m5 10.7q0 0 0 0 0 0 0 0 0 0 0 0z"/><path class="a" d="m7 10.5q0 0 0 0 0 0 0 0z"/><path class="a" d="m6.8 10.6q0 0 0 0 0 0 0 0 0 0 0 0 0-0.1 0-0.1 0 0 0 0 0 0 0 0 0 0 0 0-0.1 0-0.1 0 0 0 0 0 0 0 0 0.1 0 0 0 0c0.1-0.1 0.1 0 0.1 0.1 0 0 0 0 0.1 0q0 0 0 0 0-0.1 0-0.2-0.1 0.1-0.1 0.1z"/><path class="a" d="m4.7 10.8q0 0 0 0c0-0.1 0 0-0.1-0.1q0 0 0 0v0.1q0.1 0 0.1 0 0 0 0 0z"/><path class="a" d="m6.9 10.6q0 0 0 0 0 0 0 0 0 0 0 0 0-0.1 0 0c0 0 0-0.1 0-0.1q0 0.1 0 0.2c0 0 0-0.1 0.1-0.1q-0.1 0-0.1 0 0 0 0 0c0 0 0-0.1 0 0z"/><path class="a" d="m4.8 9.8q0.1 0 0.1 0-0.1-0.1-0.1-0.1c0 0 0 0 0 0q0 0.1 0 0.1z"/><path class="a" d="m7 10.5q0 0 0 0 0 0 0 0z"/><path class="a" d="m7 10.5c0 0-0.1 0 0 0 0 0.1-0.1 0-0.1 0.1q0 0 0 0c0.1 0.1 0.1 0 0.1-0.1q0 0 0 0z"/><path class="a" d="m5.9 9.5c0-0.1 0 0 0 0q0 0 0 0 0 0 0 0 0 0 0 0z"/><path class="a" d="m7.3 10.5q0 0 0-0.1 0 0 0 0 0 0 0 0 0 0 0 0 0 0.1 0 0.1z"/><path class="a" d="m8.3 10.2q0 0 0-0.1c0 0.1 0 0.1 0 0.1 0 0.1 0 0 0.1 0.1 0-0.1 0-0.1-0.1-0.1z"/><path class="a" d="m6 9.5q0 0 0 0 0 0 0 0 0 0 0 0 0 0 0 0 0 0 0 0.1 0 0 0 0 0 0 0 0 0 0 0 0 0 0 0 0c0 0 0-0.1 0-0.1z"/><path class="a" d="m6 9.6q0 0 0 0 0 0 0 0z"/><path class="a" d="m7.5 10.3q0 0.1 0 0.1 0 0 0 0c0.1 0 0.1 0.1 0.1 0q0 0 0-0.1c0 0 0 0.1-0.1 0z"/><path class="a" d="m12.7 9.2q0 0 0 0 0 0 0 0.1 0 0 0-0.1c0 0 0 0.1 0 0z"/><path class="a" d="m10 9.8q0 0.1-0.1 0.1 0.1 0 0.1 0 0 0 0 0 0-0.1 0-0.1z"/><path class="a" d="m9.1 10q0 0.1 0 0.1 0 0 0 0 0 0 0.1 0-0.1 0-0.1 0 0-0.1 0-0.1z"/><path class="a" d="m10.5 9.7q0 0 0 0.1 0 0 0.1 0 0 0 0-0.1-0.1 0-0.1 0z"/><path class="a" d="m11.5 9.4q0 0 0 0c0 0.1 0 0 0 0q0 0 0 0 0 0 0 0z"/><path class="a" d="m8.1 10.2c0 0.1 0 0.1 0 0.2q0.1 0 0-0.1c0-0.1 0 0 0.1 0 0-0.1-0.1 0-0.1-0.1z"/><path class="a" d="m4.9 9.7q0 0 0 0 0-0.1 0-0.1c0 0.1 0 0 0 0.1z"/><path class="a" d="m4.9 9.7q0 0 0 0 0 0 0 0z"/><path class="a" d="m4.9 9.7q0 0 0 0z"/><path class="a" d="m7.5 10.4q0 0 0 0z"/><path class="a" d="m7.5 10.3q0 0 0 0 0 0 0 0 0 0.1 0.1 0.1-0.1 0-0.1 0 0 0 0-0.1z"/><path class="a" d="m7.5 10.4q0 0 0 0 0 0 0 0 0 0 0 0z"/><path class="a" d="m7.5 10.4q0 0 0 0 0 0 0 0z"/><path class="a" d="m10.1 9.7z"/><path class="a" d="m10.1 9.7q0-0.1 0 0 0 0 0 0 0 0 0 0 0 0 0 0 0 0 0 0 0 0 0 0z"/><path class="a" d="m10.1 9.7q0 0 0 0 0 0 0 0 0 0 0 0z"/><path class="a" d="m9.8 10q0 0 0 0 0 0 0-0.1 0 0 0 0 0 0 0 0.1z"/><path class="a" d="m5.8 10.3c0 0 0 0 0 0 0-0.1-0.1-0.2-0.1-0.1q0.1 0.1 0.1 0.1 0 0 0 0z"/><path class="a" d="m5.6 10.2c0 0.1 0 0 0 0q0 0 0.1 0-0.1 0-0.1 0 0 0 0 0z"/><path fill-rule="evenodd" class="a" d="m13.9 8.5c0 0.1 0 0.2 0 0.1q-0.1 0-0.1 0 0 0 0 0c0.1 0.1-0.1 0.1 0 0.2 0 0 0 0.1 0 0.1-0.1 0-0.1 0-0.1 0 0 0 0-0.1 0-0.1q0 0 0 0 0 0 0.1 0 0 0 0 0-0.1 0-0.1-0.1 0 0.1 0 0.1 0 0-0.1 0 0 0-0.1 0.1c0 0 0 0 0 0 0 0-0.1-0.1 0 0q0 0 0 0 0 0 0 0 0 0.1 0 0.1c0-0.1-0.1-0.1-0.1 0q0 0 0 0-0.1 0-0.1 0 0 0 0 0 0 0 0.1 0.1 0 0 0 0 0 0 0 0 0 0-0.1 0 0 0-0.1 0 0 0.1 0 0.1c0 0 0 0 0 0q0 0.1 0-0.1 0 0 0 0c-0.1 0.1-0.1 0-0.1 0q0 0.1 0 0.1 0 0 0 0 0-0.1 0-0.1l-0.1-0.1q0.1 0 0.1 0 0 0 0.1 0-0.1 0-0.2 0 0 0 0 0l-0.1-0.8q0 0 0 0 0 0 0 0 0 0 0 0 0 0 0 0 0 0 0-0.1 0 0 0 0c0 0.2 0.1 0.1 0.1 0.1q0 0 0.1 0 0 0 0 0 0 0 0 0 0 0 0 0 0 0 0 0 0.1-0.1 0.2-0.1 0 0 0 0 0.1 0 0.2 0 0 0 0 0 0-0.1 0-0.1 0 0 0 0.1c0.1 0 0.1 0 0.1-0.1 0 0 0 0.1 0 0.1q0-0.1 0.1 0c0-0.1 0 0 0 0.1 0 0 0.1 0 0.1 0q0 0 0 0.1 0 0-0.1 0 0 0 0 0 0 0 0.1 0 0 0.1 0 0.1 0 0 0 0c-0.1 0 0 0.1 0 0.1q0 0 0 0c0 0 0.1 0 0.1 0zm-0.8 0.3q0 0 0 0 0 0 0 0 0 0 0 0.1 0-0.1 0-0.1zm0.1 0.2q0 0-0.1 0 0 0 0 0.1 0.1 0 0.1 0c0-0.1 0 0 0 0q0 0 0-0.1zm0.1-0.1q0 0 0-0.1 0 0-0.1 0.1 0 0 0-0.1 0 0 0 0 0 0 0 0 0 0 0 0 0 0.1 0 0.1-0.1 0 0 0.1 0 0 0 0 0 0 0 0 0 0 0 0 0-0.1 0-0.1 0 0 0 0 0.1 0 0.1 0zm0-0.1c0 0 0-0.1-0.1 0 0 0 0 0 0.1 0 0 0 0 0 0 0q0 0 0 0z"/><path class="a" d="m13.8 8.1q0 0 0 0 0.1 0.1 0.1 0.2 0-0.1 0-0.1 0 0-0.1-0.1z"/><path class="a" d="m1 6.1z"/><path fill-rule="evenodd" class="a" d="m1.6 6l0.2 0.1q0 0 0 0c0 0 0 0.1 0 0.1q0 0 0 0c0 0.1 0 0-0.1 0 0 0 0 0 0 0q0-0.1-0.1-0.1 0 0 0 0 0 0 0 0c0 0.1 0.2 0.1 0.1 0.2q0 0 0.1 0c0 0 0 0 0 0.1q0 0 0 0 0 0 0 0h0.1q0 0 0 0-0.1 0-0.1 0.1 0 0 0 0 0 0-0.1 0 0 0 0 0 0 0 0 0 0 0 0 0 0 0 0 0 0 0 0 0 0 0-0.1 0 0 0 0 0c0-0.1 0-0.1 0-0.1 0 0.1-0.3-0.2-0.2 0 0 0 0 0-0.1 0q0 0 0 0 0-0.1 0-0.1 0 0 0 0v0.1q0-0.1-0.1-0.1-0.1-0.1-0.2-0.2-0.1 0-0.1 0 0.1 0 0 0 0 0 0 0 0 0 0.1 0 0 0 0 0 0 0-0.1-0.1 0 0 0 0l0.1 0.1v-0.1q-0.1 0 0 0c0.1 0 0 0 0 0q0 0 0 0h0.1c0 0-0.1-0.1 0 0v-0.1h-0.1q0 0 0 0c0-0.1 0 0 0.1-0.1h-0.1q0 0 0 0c0 0 0 0 0 0v-0.1 0.1q0 0 0 0 0-0.1 0-0.1c0 0 0 0 0 0h0.1-0.1 0.1v0.1q0.1 0 0.1 0 0 0 0 0 0.1 0 0.1 0l0.2 0.2q0-0.1 0-0.1v0.1c0 0 0.1 0 0.1 0zm-0.2 0.2q0 0 0 0 0 0.1 0 0.1 0.1 0 0.1 0-0.1 0-0.1-0.1zm0-0.1v0.1q0 0 0 0c0 0 0.1 0 0 0q0-0.1 0-0.1zm0.1-0.1c0 0 0 0 0 0 0 0 0.1 0 0 0h0.1z"/><path class="a" d="m1.8 6.1c0.1 0.1 0 0.1 0.1 0.1h-0.1c0.1 0 0.1 0 0.1 0q0 0 0 0c-0.1 0 0 0 0 0l-0.1-0.1q0 0 0 0z"/><path class="a" d="m1.9 6.2c-0.1 0-0.1 0 0 0.1q-0.1-0.1 0-0.1 0 0 0 0z"/><path class="a" d="m1.9 6.3z"/><path class="a" d="m2 6.3h-0.1 0.1z"/><path class="a" d="m1.8 6.3q0 0 0 0h0.1q0 0 0 0c-0.1 0-0.1 0-0.1 0z"/><path class="a" d="m1.1 5.7h0.1-0.1z"/><path fill-rule="evenodd" class="b" d="m2.1 5.4q-0.1 0-0.1 0 0 0 0-0.1l-0.1 0.1q0 0 0 0 0.1 0 0.1 0c0 0 0 0.1 0.1 0.1h-0.1q0 0 0 0 0 0 0 0c-0.1 0-0.1 0-0.2 0h0.1-0.1q0 0 0 0 0.1 0 0.1 0c0 0-0.1 0 0 0h-0.2q0 0 0.1 0c0 0-0.1-0.1-0.1-0.1q0 0 0 0h0.1c0 0 0 0 0 0-0.1 0-0.1-0.1-0.1-0.1q0 0 0 0c0.1 0 0 0 0.1 0-0.1 0 0 0 0 0q0-0.1 0-0.1 0 0 0.1 0.1 0 0 0 0 0.1 0 0.1 0c0.2 0.1 0 0 0 0 0.1 0.1 0 0 0.1 0.1zm-0.2-0.1q-0.1 0-0.1 0 0 0 0 0.1c0.1 0 0.1 0 0.1 0zm0.1-0.1v0.1q0.1 0 0.1 0c-0.1-0.1-0.1 0-0.1-0.1-0.1 0-0.1 0 0 0z"/><path class="a" d="m3 3.4z"/><path class="a" d="m2.1 5.1z"/><path class="a" d="m3.1 2.5z"/><path fill-rule="evenodd" class="a" d="m3.7 0.9h0.1-0.1q0 0 0 0h0.2q0 0.1 0 0.1c-0.2-0.1 0.1 0 0 0 0 0 0.1 0 0 0-0.1 0-0.2 0-0.1 0h-0.1c0 0 0 0 0 0 0 0 0 0.1 0.1 0.1q0 0-0.1 0 0 0 0 0c0.1 0 0.1 0 0 0 0 0 0 0 0 0q0 0-0.1 0 0.1 0.1 0.1 0.1c0.1 0 0.1 0 0.1 0 0 0 0 0.1-0.1 0.1q-0.1-0.1 0 0 0 0-0.1 0c0 0 0 0-0.1 0q0 0-0.1 0h0.1c-0.1 0 0 0 0.1 0 0.1 0.1-0.1 0.1 0.1 0.1q0 0-0.1 0 0 0 0 0 0 0 0 0 0 0 0 0 0 0 0 0c0 0.1 0.1 0.1 0.1 0.1h-0.1q0 0 0 0c-0.1-0.1-0.1 0-0.1 0q-0.1 0-0.1 0h0.1q0 0 0 0c0.1 0 0.1 0.1 0 0.1 0 0 0.1 0 0 0q0 0 0 0 0 0 0 0c0.2 0.1 0 0.1 0 0.1q-0.1 0-0.1 0c0.1 0 0 0 0 0v0.1c0-0.1 0-0.1 0 0 0.1 0 0 0 0.1 0 0 0 0 0 0 0-0.1 0-0.1 0-0.1 0q0 0.1 0.1 0.1 0 0-0.1 0h-0.1q0 0 0.1 0c0 0-0.1 0-0.1 0h0.1q0 0 0 0c0 0 0 0 0 0q0.1 0 0 0c0 0.1 0.1 0.1 0 0.1-0.1 0 0 0-0.1 0h0.1c0 0 0 0 0.1 0q0 0 0 0.1-0.1-0.1-0.1-0.1c0 0.1 0 0 0 0.1 0 0-0.1 0-0.1 0q0 0 0 0c0 0 0 0.1 0 0.1q0 0 0 0 0 0 0 0c0 0 0 0 0 0 0 0.1 0 0.1 0 0.1 0 0.1 0 0.1 0 0.1 0 0 0 0 0 0q0 0 0 0.1 0 0 0 0 0 0 0 0 0 0 0 0-0.1 0-0.1 0 0 0-0.1 0 0-0.1 0-0.1c-0.1 0 0.1 0 0 0q0 0 0.1 0 0 0-0.1 0h0.1c0-0.1-0.2-0.1-0.2-0.1q0 0 0 0.1c0 0 0 0 0.1 0.1 0 0 0.1 0 0.1 0 0 0 0 0 0 0q0 0 0 0c0.1 0.1 0 0.1 0.1 0.1-0.1 0 0 0-0.1 0 0 0 0 0 0 0q0 0.1 0.1 0.1 0 0 0 0 0 0-0.1 0 0 0 0 0 0 0 0 0h-0.1-0.1q0 0 0 0c0.1 0 0.1 0 0.1 0 0.1 0 0.1 0 0.1 0.1 0 0 0 0-0.1 0q0 0 0.1 0 0 0 0 0c0 0 0.1 0 0.1 0q0 0-0.1 0 0 0-0.1 0 0 0 0.1 0 0 0.1 0 0.1c0 0 0.1 0 0.1 0q0 0-0.1 0c-0.1 0 0.1 0 0 0q0 0 0 0 0 0 0 0-0.1 0-0.1 0c0.1 0 0 0 0 0q0 0 0 0.1 0 0 0 0 0 0 0 0h0.1q0 0 0 0 0 0 0 0 0 0-0.1 0 0 0 0 0 0 0-0.1 0 0.1 0 0.1 0c0 0 0.1 0 0.1 0.1h-0.1q0 0 0-0.1h-0.1q0.1 0 0.1 0c0 0.1 0.1 0.1 0 0.1 0 0 0 0 0 0q0.1 0 0.1 0 0 0 0 0.1 0.1 0 0.1 0-0.1 0-0.1 0l-0.1-0.1q0 0 0.1 0.1c0 0 0 0-0.1 0q0 0 0 0 0 0 0 0 0-0.1 0-0.1h-0.1q0 0 0 0l0.1 0.1c-0.1 0 0 0-0.1 0q0 0 0 0 0 0 0 0c0.1 0 0.1 0 0.1 0q0 0-0.1 0 0 0 0 0c0 0 0.1 0.1 0.1 0.1q0 0 0 0 0 0 0 0c-0.1 0 0 0 0 0 0.2 0.1 0 0.1 0.1 0.1q0 0-0.1 0v-0.1c0 0.1-0.1 0.1 0.1 0.1q0 0 0 0 0 0.1 0 0.1 0 0-0.1-0.1 0 0 0 0h-0.1 0.1c-0.1 0-0.1 0-0.1 0 0.1 0.1 0 0.1 0 0h-0.1 0.1q0 0 0 0h-0.1-0.1 0.1q-0.1-0.1-0.1-0.1 0 0 0 0.1c0 0 0.1 0 0.1 0 0 0-0.1 0-0.1 0-0.1 0 0.1 0 0 0q-0.1 0-0.1 0 0 0 0.1 0 0.1 0 0.1 0 0 0-0.1 0 0 0 0 0 0 0 0 0c0.1 0 0.2 0.1 0.2 0 0 0.1 0 0.1 0 0.1-0.1 0 0 0 0.1 0 0 0 0 0 0 0-0.1 0 0 0.1-0.2 0.1 0.2 0 0-0.1 0 0q0 0 0 0c0.1 0 0.1 0 0.1 0q0 0 0 0-0.1 0 0 0.1c0 0 0 0 0.1 0 0 0.1-0.1 0-0.1 0-0.1 0 0 0-0.1 0q0.1 0 0.1 0.1c0 0-0.1-0.1-0.1 0 0 0 0 0 0 0 0 0 0 0 0.1 0q0 0 0 0c-0.1 0 0 0.1 0 0.1q-0.2 0-0.1 0 0.1 0 0.1 0 0 0-0.1 0 0 0 0 0c0 0-0.1 0-0.1 0 0 0-0.1 0-0.1 0q0.1 0 0.2 0.1c0 0 0 0 0 0q0 0 0 0 0 0 0 0c0 0 0 0-0.1 0 0.1 0.1 0 0 0 0.1 0 0 0 0.1 0 0.1q0 0 0 0 0 0.1 0.1 0.1 0 0 0 0c0 0 0 0 0 0q-0.1 0-0.1 0h0.1q0 0-0.1 0 0 0 0 0 0 0-0.1 0c0.1 0 0 0 0 0v0.1 0.1c0.1 0 0 0 0.1 0-0.2 0-0.1 0-0.1 0q0 0 0 0 0 0 0 0 0 0 0 0l0.1 0.1h-0.1l-0.1-0.1 0.1 0.1q-0.1-0.1 0 0c0 0 0 0 0 0q0 0.1 0 0.1 0 0 0 0h0.1q0 0.1 0 0.1 0 0-0.1 0 0-0.1 0-0.1 0 0 0 0h-0.1c0 0 0 0 0 0 0 0-0.1 0 0 0q0 0 0 0c-0.1 0 0 0.1-0.1 0.1 0 0 0 0.1 0 0.1 0.1 0 0.1 0 0.1 0 0 0.1-0.1 0-0.1 0 0 0 0.1 0.1 0.2 0.1q0 0 0 0 0 0 0 0 0 0 0 0h0.1-0.1c-0.1 0 0 0 0 0 0.1 0.1 0 0.1 0.1 0.1q0 0 0 0c-0.1-0.1 0 0-0.1 0 0 0 0 0.1 0 0.1 0 0 0 0 0 0q0 0-0.1 0c-0.1 0 0 0.1 0.1 0.1 0 0-0.1-0.1-0.1 0 0 0 0 0 0 0q0 0 0 0-0.1 0-0.1 0 0 0 0 0h0.1c0 0 0 0.1 0 0.1q-0.2-0.1 0 0c-0.1 0 0 0.1-0.1 0 0 0 0 0.1 0 0.1 0 0-0.1 0-0.1 0q0 0 0 0 0 0 0 0 0 0 0.1 0 0 0 0 0l-0.1 0.1q0 0 0 0 0 0 0 0.1 0 0-0.1 0v0.1q0 0 0 0 0 0.1-0.1 0.1c0 0 0 0.1-0.1 0.1 0-0.1 0.1 0 0 0-0.1 0 0.1 0.1 0 0.1-0.1-0.1-0.1-0.1-0.1-0.1 0 0.1-0.1 0-0.1 0 0 0 0 0.1 0 0.1q-0.1 0-0.2-0.1c0.2 0.1 0.1 0.1 0.1 0.1l-0.2-0.1q0 0 0 0c0-0.1 0.1 0 0-0.1h0.1q0 0-0.1 0c0-0.1 0 0 0 0q0 0 0 0l-0.1-0.1c0 0-0.1 0 0 0.1q0 0 0 0 0 0-0.1 0 0 0 0 0c0.1 0.1 0.1 0 0.1 0l-0.3-0.1c0 0 0-0.1 0 0v-0.1h-0.1c0 0 0 0-0.1-0.1q0 0 0 0c0.1 0.1 0 0 0 0q0.1 0.1 0.1 0.1 0.1 0 0-0.1-0.1 0 0 0c0 0-0.1 0-0.1-0.1 0 0 0 0 0.1 0 0 0-0.1 0 0 0q0 0-0.1 0c0-0.1 0.1 0 0.1 0q0.1 0 0 0 0 0 0 0 0 0 0.1 0 0 0 0 0 0 0 0 0 0.1 0 0.1 0 0 0 0 0c0 0 0 0-0.1 0 0 0 0 0 0-0.1-0.1 0 0.1 0 0 0v-0.1q-0.1 0-0.1 0.1 0.1 0 0 0 0-0.1 0-0.1c0 0 0.1 0.1 0.1 0 0 0-0.1 0-0.1 0q0 0 0 0h0.1q0 0 0 0 0 0 0 0c0.1 0 0-0.1 0-0.1-0.1 0 0-0.1 0.1 0 0.1 0 0-0.1 0-0.1 0.1 0.1 0 0 0 0-0.1-0.1 0 0 0 0-0.1-0.1 0-0.1 0-0.1 0.1 0.1-0.1-0.1 0 0-0.1-0.1 0.2 0 0-0.1 0.1 0.1 0.1 0 0.1 0.1q0 0 0.1 0 0 0 0 0 0 0 0 0 0.1 0 0.1 0 0 0 0 0h-0.1q0-0.1 0-0.1c-0.1 0-0.1 0 0 0q0 0 0 0 0.1 0 0.1 0h-0.1c0.1 0 0.1 0 0.1-0.1h-0.1q0 0 0 0l-0.1-0.1q0 0 0 0c0.1 0 0 0 0.1 0q0 0 0 0.1v-0.1q0 0 0 0h0.1q0 0 0 0c0 0 0 0 0 0 0 0-0.1-0.1-0.1-0.1q0 0 0 0c0 0-0.1 0-0.1 0 0.1 0 0-0.1 0.1-0.1q0 0 0 0v0.1-0.1q0 0 0 0v0.1q0 0 0 0 0 0 0 0 0 0 0.1 0 0 0 0 0-0.1 0-0.1 0h0.1q0 0 0.1 0c0 0 0 0 0 0q0 0 0 0 0 0 0 0 0 0-0.1 0c0 0-0.1-0.1-0.1-0.1h0.1q0 0 0 0h-0.1 0.2c-0.2-0.1 0 0 0-0.1 0 0-0.1 0-0.1 0-0.1 0 0 0 0-0.1 0 0-0.1 0 0 0q0 0 0 0 0 0 0 0 0 0 0 0h0.1q-0.1 0-0.1 0c0-0.1 0.1-0.1 0.1 0 0 0-0.1-0.1-0.1-0.1h0.1q0 0 0 0 0 0 0 0 0 0-0.1 0 0 0 0.1 0c0 0 0 0 0 0q0 0 0 0 0 0 0 0 0.1 0 0.1 0 0 0 0.1 0h-0.1 0.1q0 0 0 0 0 0 0 0 0 0 0 0c0 0-0.2-0.1-0.1 0q0 0 0 0-0.1-0.1-0.1-0.1c0 0 0 0.1-0.1 0 0 0 0 0 0.1 0h-0.1q0.1 0 0.1 0 0 0 0 0h0.1-0.1-0.1 0.1c0 0 0 0-0.1-0.1q0 0 0 0 0 0 0.1 0 0 0 0 0 0 0 0 0c0 0 0.1 0.1 0.1 0.1q0 0 0 0v-0.1c-0.1 0-0.1 0-0.1 0 0 0 0 0 0 0q-0.1 0-0.1-0.1 0 0 0.1 0.1 0 0 0 0-0.1-0.1 0-0.1 0 0 0.1 0h-0.1q0 0 0.1 0.1 0 0 0 0 0 0 0 0v-0.1q0 0 0 0 0 0 0 0l0.1 0.1q-0.1-0.1-0.1-0.1-0.1 0-0.1-0.1c-0.1 0 0 0 0 0.1-0.1-0.1 0.1-0.1 0-0.1 0 0-0.1-0.1 0 0q0 0 0 0v-0.1q0 0 0-0.1c0 0 0-0.1 0.1-0.1 0.1 0 0-0.1 0-0.1 0 0 0 0 0.1 0 0.1 0-0.1-0.1-0.1-0.1 0.1 0 0 0 0.1 0q0-0.1 0.1 0v-0.1h-0.1q0 0 0.1 0 0 0 0 0 0 0-0.1 0c-0.1 0 0.1 0 0 0v-0.1c0 0 0 0 0.1 0 0 0 0 0 0-0.1 0 0-0.1 0 0 0-0.1 0 0.1 0 0 0q0 0 0 0 0 0 0 0-0.1-0.1 0-0.1 0.1 0 0.1 0h-0.1c0.1 0 0.1 0 0.1 0 0 0-0.1 0-0.1 0q0 0 0 0h0.1q0 0 0 0 0 0 0 0h0.1q0 0 0 0h-0.1c0.1 0 0 0 0 0 0 0-0.1-0.1 0-0.1 0 0.1 0 0 0 0 0.1 0 0 0-0.1 0 0 0 0.1 0 0.1 0 0 0 0.1 0 0 0q0 0 0 0c-0.1-0.1-0.1-0.1 0-0.1 0 0 0 0 0 0 0-0.1-0.1-0.1 0.1-0.1-0.1 0-0.1 0 0 0 0 0-0.1-0.1-0.1-0.1q0.1 0 0-0.1c0 0 0.1 0 0.1 0q0 0 0-0.1 0 0 0 0c0.1 0 0 0 0 0q0-0.1 0-0.1v-0.1h0.1c0 0 0 0 0 0-0.1-0.1 0.1-0.1 0-0.1q0 0 0 0c0.1 0 0.1-0.1 0.1-0.1-0.1 0 0 0 0-0.1q0 0 0 0 0 0 0 0h0.1q0 0-0.1 0h0.1q-0.1-0.1-0.1-0.1 0 0 0 0 0 0 0.1-0.1c0 0 0 0 0-0.1 0 0 0-0.1 0.1-0.1 0 0-0.1 0 0 0 0 0 0 0 0 0 0-0.1 0.1-0.1 0.1-0.1 0 0-0.1-0.1 0-0.1 0 0 0 0 0 0-0.1 0 0 0 0 0q-0.1-0.1 0-0.1 0.1 0 0-0.1 0.1 0 0.1 0 0 0 0 0 0-0.1 0-0.1c0-0.1 0.1-0.1 0.1-0.2 0.1 0.1-0.1 0 0 0q0 0 0 0 0 0 0 0v-0.1q0 0 0 0 0 0 0 0zm-2.2 4.2q0 0 0 0c0 0-0.1-0.1-0.1-0.1 0 0.1 0.1 0.1 0.1 0.1zm0.2 0.4c0 0 0 0 0 0q-0.1 0 0 0 0 0 0 0zm0.1 0.3q0.1 0 0.1 0.1 0-0.1-0.1-0.1 0 0 0 0c0 0 0 0 0 0zm-0.1 0q-0.1 0-0.1 0c-0.1-0.1 0 0-0.1 0h0.1c0.1 0.1 0 0 0.1 0zm0.1 0.1q0 0 0 0 0 0 0 0l0.1 0.1v-0.1q0 0 0 0c-0.1 0 0 0-0.1 0zm0-0.1q0 0-0.1 0 0 0 0 0.1 0 0 0 0 0.1 0 0.1-0.1zm0.3 0.1q0 0 0 0 0 0 0 0 0 0 0 0c0 0-0.1 0-0.1 0q-0.1 0 0 0.1 0 0 0 0 0-0.1 0-0.1c0 0 0 0 0 0q0.1 0 0.2 0c0 0-0.1 0 0 0q0 0-0.1 0 0 0 0 0zm0.1-0.2v0.1q0 0 0 0 0 0 0 0h0.1q0 0 0 0c-0.2 0-0.1 0-0.1-0.1zm-0.3-0.1q-0.1 0-0.1 0v-0.1c0 0 0 0 0.1 0.1q0.1 0 0.1 0l-0.1-0.1c0 0-0.1 0-0.1 0 0 0 0 0 0 0 0 0 0 0 0 0.1-0.1 0 0 0-0.1 0q0 0 0.1 0.1 0 0 0 0 0 0 0 0 0 0 0 0 0 0 0 0 0 0 0.1 0 0 0 0 0 0 0 0 0.1c0 0 0 0 0 0q0 0 0.1 0 0 0 0 0 0 0 0 0 0 0 0 0 0 0 0 0 0.1 0 0.1 0 0 0-0.1 0c0-0.1 0 0-0.1 0 0.1 0-0.1-0.1-0.1-0.1 0-0.1 0-0.1 0-0.1q0 0 0.1 0 0 0 0 0 0 0 0 0c-0.1 0 0.1 0.1 0 0.1q0 0 0 0 0.1 0 0.1 0-0.1 0 0 0 0 0 0 0c0 0 0.1 0.1 0.1 0.1h0.1q-0.1 0-0.1 0l-0.1-0.1c0 0-0.1 0 0 0q0 0 0-0.1 0 0-0.1 0c0 0 0.1 0 0 0zm0.2 0q0 0 0 0v0.1q0 0 0 0 0 0 0 0 0.1 0 0.1 0l-0.1-0.1q0 0 0 0zm-0.2 0c0.1 0 0.1 0 0.1 0 0 0 0 0.1 0.1 0.1 0 0-0.1-0.1 0 0-0.1-0.1-0.1-0.1-0.2-0.1zm0.2 0.1q0 0 0 0 0 0 0 0zm0-0.1h0.1c-0.1 0 0 0.1 0 0q0 0.1 0 0.1c0.1 0 0.1 0 0.1 0q0 0 0 0 0 0 0 0 0 0 0 0c0 0 0 0 0 0q-0.1-0.1-0.1-0.1c0.1 0 0 0 0 0-0.1-0.1 0 0-0.1 0zm0.1-0.1c0 0 0.1 0.1 0 0.1h0.2q-0.1 0-0.2 0c0.1 0 0-0.1 0-0.1zm-0.1-0.1c0 0 0.1 0 0 0-0.1-0.1 0.1 0 0-0.1h-0.1q0 0 0 0 0 0-0.1 0 0 0 0-0.1-0.1 0.1-0.1 0.1c0.1 0 0 0 0 0 0 0 0 0.1 0 0.1l-0.1-0.1q0 0 0 0.1c0 0 0.1 0 0.1 0 0.1 0 0 0 0 0q0 0 0 0c0 0 0.1 0.1 0 0.1q0 0 0 0h0.1c-0.1 0 0 0 0 0q0 0 0 0 0 0 0 0h0.1-0.1c0 0 0.1 0 0.1 0q0 0 0 0 0 0 0 0h0.1c-0.1 0 0 0-0.1-0.1q0 0 0 0 0 0 0 0 0 0 0.1 0 0 0 0 0zm0.3 0q0-0.1-0.1-0.1c0 0 0.1 0 0 0-0.1 0 0.1 0.1 0 0.1q0 0 0 0 0 0-0.1 0c0 0 0 0-0.1 0q0 0 0.1 0 0 0 0 0 0 0 0 0 0.1 0.1 0.1 0.1 0 0 0 0c0.1 0 0.1 0 0.1 0 0-0.1 0.1 0 0.1 0-0.1-0.1-0.2-0.1-0.2-0.2 0 0 0.1 0.1 0.1 0.1q0 0 0 0 0 0 0 0 0 0 0-0.1 0 0 0 0.1zm-0.4-0.3q0 0 0 0c0 0.1 0 0.1 0 0.1 0-0.1 0.1 0 0.1 0 0 0-0.1 0-0.1-0.1zm0-0.1c0 0 0 0 0.1 0.1 0 0-0.1 0 0 0 0 0 0.1 0 0 0q0 0 0 0zm0.2 0.1q0 0 0 0zm0 0c-0.1 0-0.1 0-0.2 0q0 0 0.1 0 0 0 0.1 0 0.1 0 0.2 0.1 0 0 0 0c0 0-0.1 0 0 0q0 0 0 0 0 0 0 0c0.1 0 0.1 0 0.1 0 0 0 0 0 0 0q-0.1 0-0.1 0h0.1c-0.1 0-0.1 0-0.1 0-0.1 0-0.2-0.1-0.2-0.1 0 0 0.1 0 0 0q0 0 0 0c0.1 0-0.1 0 0 0zm0.1-0.1q0 0 0 0c0 0 0-0.1 0-0.1q0 0 0 0 0 0 0 0-0.1 0-0.1 0 0 0 0 0 0 0 0 0 0 0 0 0.1 0-0.1 0-0.1 0 0 0 0-0.1 0-0.1 0 0.1 0 0.1 0 0 0.1 0 0.1 0 0 0 0c0 0 0 0 0 0q-0.1-0.1-0.2-0.1 0 0 0 0c0.1 0.1 0.2 0.1 0.3 0.1zm0.4 0.1c-0.1 0-0.1-0.1-0.2-0.1 0 0-0.1 0-0.1 0 0 0.1 0.1 0 0.1 0.1q0 0 0 0-0.1 0-0.1-0.1c0 0.1 0.1 0.1 0.1 0.1q0 0 0 0c0.1 0 0.1 0 0 0 0.1 0 0.1 0 0.1 0q0 0 0 0c0.1 0 0 0 0.1 0q0 0 0 0 0 0 0 0 0 0 0 0zm-0.1-0.2q0 0 0 0c0 0.1 0 0.1-0.1 0.1 0 0 0.1 0 0 0h0.1q0 0 0.1 0 0 0 0 0 0 0 0 0c0 0 0 0 0 0q0 0-0.1-0.1zm-0.3-0.3q0 0 0 0v0.1q0 0 0 0-0.1-0.1-0.1-0.1 0 0 0.1 0-0.1 0-0.1 0 0 0 0 0c0 0-0.1 0 0 0.1q0 0-0.1 0 0 0 0 0v-0.1 0.1c0 0 0.1 0 0.1 0 0 0 0.1 0 0.1 0 0 0-0.1 0 0 0.1q0 0 0 0c0.1 0 0.1 0 0.1 0q-0.1-0.1 0-0.1c0 0-0.1 0-0.1-0.1zm0 0q0 0 0 0 0 0 0 0.1h0.1zm-0.5-0.3q0 0-0.1 0h0.1q0 0 0 0-0.1 0-0.1 0 0 0 0 0.1h0.1c-0.1-0.1 0-0.1 0 0q0.1 0 0.1 0 0-0.1-0.1-0.1zm0.6 0.2c-0.1 0 0 0 0 0q0 0 0 0 0 0 0 0c0.1 0 0 0 0 0q0 0 0 0zm0-0.2h0.1l-0.1-0.1h-0.1l0.1 0.1q-0.1 0-0.1 0c0 0 0.1 0 0.1 0 0.1 0.1 0 0 0 0q0 0 0 0c0 0.1 0 0.1 0 0.1 0.1-0.1 0.1 0 0.1-0.1q0 0 0 0c0.2 0.1 0 0 0 0q0 0 0 0c0.1 0 0 0 0 0q0 0 0 0-0.1 0-0.1 0 0 0 0 0v-0.1zm0.1 0q0 0 0 0c0 0 0 0.1-0.1 0q0 0 0 0 0 0 0 0 0 0 0 0 0.1 0.1 0.1 0 0 0 0 0zm-0.5-0.3q0 0 0 0.1 0 0 0 0 0.1 0 0.1 0 0 0-0.1-0.1zm0.5 0.1q0 0.1-0.1 0.1h0.1q0 0 0 0 0 0 0.1 0 0 0 0 0h0.1q-0.1 0-0.2-0.1zm0.1 0c-0.2-0.1 0 0 0 0q0 0 0.1 0.1c0 0-0.1-0.1 0-0.1h-0.1q0 0 0 0zm-0.1-0.1q0 0 0 0 0 0 0.1 0c0 0-0.1 0-0.1 0zm0.2-0.2q-0.1 0-0.1 0c-0.2 0-0.1 0-0.1 0.1q0.1 0 0.1 0c0 0-0.1 0 0 0q0 0 0 0v-0.1c0.1 0.1 0 0 0.1 0zm-0.6-0.2q0 0 0 0 0 0 0 0c-0.1-0.1 0 0 0 0q0 0 0 0zm0.4 0.1c0 0-0.1 0-0.1 0q0 0 0.1 0 0 0.1 0.1 0.1 0 0 0 0 0 0 0-0.1 0 0 0 0l-0.1 0.1v-0.1c0.1 0 0 0 0 0q0 0 0 0zm-0.1-0.1c-0.1 0 0.1 0 0 0.1 0 0 0.1 0 0.1 0q0 0-0.1-0.1zm0.5 0.1h-0.1q0 0 0.1 0c0 0-0.1 0 0 0zm0-0.1q-0.1 0-0.1 0c-0.1 0 0 0-0.1 0q0.1 0 0.1 0c0.1 0.1 0.1 0 0.1 0zm-0.1 0.1c0 0 0.1 0 0.1 0q0 0-0.1 0 0 0 0-0.1 0 0 0 0 0 0 0 0c-0.1 0 0 0.1 0 0.1zm0-0.1q0 0 0 0 0 0 0 0zm-0.1-0.2q0.1 0.1 0 0h-0.1c0 0 0.1 0 0.1 0.1 0.1 0 0.1-0.1 0-0.1zm-0.4-0.2q0 0-0.1 0 0 0 0 0c0 0 0 0-0.1 0q0 0 0 0c0.1 0.1 0.1 0 0.2 0q0 0 0 0zm0.5 0.1c-0.1 0-0.1 0-0.1 0.1h0.1q0 0 0-0.1zm-0.5-0.1q0 0 0 0c0 0 0 0 0 0q0 0 0 0zm0.8 0.2h-0.1q0 0 0 0c0.2 0 0 0 0.1 0zm0.1 0q0 0-0.1 0 0.1 0 0.1 0h0.1zm-0.9-0.3c-0.1 0 0 0 0 0q0.1 0.1 0.1 0.1 0-0.1 0-0.1c-0.1 0-0.1 0-0.1 0zm0-0.3q0 0 0 0 0.1 0.1 0.1 0.1c0.1 0 0 0 0 0q0 0 0.1 0c0 0-0.1 0-0.1 0 0-0.1 0-0.1-0.1-0.1zm0.4 0q0 0 0 0 0 0.1 0 0.1 0.1 0 0.1 0 0-0.1-0.1-0.1zm0.3 0.1q-0.1 0-0.1 0 0 0 0 0 0.1 0 0.1 0 0 0 0 0zm0.1-0.2c0 0-0.1 0-0.1 0 0 0 0.1 0 0.2 0q0 0 0 0-0.1 0-0.1 0zm-0.1-0.1q0 0.1 0 0.1 0 0 0 0 0 0 0 0 0 0 0 0 0 0 0 0 0 0 0-0.1zm-0.4-0.1q0 0 0 0h0.1q-0.1 0-0.1 0zm0.1-0.1q0 0 0 0.1h0.1c0 0 0.1 0 0 0q-0.1-0.1-0.1-0.1zm0.2 0l0.1 0.1q0.1 0 0.1 0-0.1-0.1-0.1-0.1 0 0-0.1 0zm0.2-0.2q-0.1 0-0.1 0 0 0 0 0 0.1 0 0.1 0 0 0 0 0zm-0.1-0.1c0.1 0.1 0.1 0.1 0.1 0q0 0 0 0h-0.1q0 0 0 0zm0.2 0.1q0.1 0 0.1 0 0 0 0 0-0.1 0-0.1 0zm0.2 0h-0.1q0 0.1 0.1 0.1v-0.1zm-0.2-0.3q-0.1 0-0.1 0 0 0 0 0c0.1 0 0.1 0.1 0.1 0zm0.3 0c-0.1 0 0 0-0.1 0q0.1 0 0.1 0 0 0 0 0h0.1zm0.3-0.6q0 0 0 0 0 0 0 0 0.1 0 0.1 0c0 0 0 0-0.1 0z"/><path class="a" d="m3.5 1.8q0 0 0 0z"/><path class="a" d="m3.2 2.7z"/><path class="a" d="m3.2 2.7z"/><path class="a" d="m1.1 5.4z"/><path class="a" d="m2.4 4.3q0 0 0 0z"/><path class="a" d="m2.3 5.3z"/><path class="a" d="m2.8 2.6q0 0 0 0z"/><path class="a" d="m1.9 5.7z"/><path class="a" d="m2.6 3.6z"/><path class="a" d="m1.6 5.5q0 0 0 0z"/><path class="a" d="m1.9 5.9z"/><path class="a" d="m2.8 4.8z"/><path class="a" d="m2.7 4.9q0 0-0.1 0 0 0 0 0 0 0 0 0v0.1q0.1 0 0.1 0c-0.1-0.1 0 0 0.1 0 0 0 0-0.1 0-0.1h-0.1z"/><path class="a" d="m1.9 6.1q0 0 0 0c-0.1 0 0 0.1-0.1 0q0 0 0 0l0.1 0.1q0-0.1 0-0.1 0 0 0 0z"/><path class="a" d="m2.8 4.9q0 0 0 0-0.1-0.1-0.1 0c0.1 0-0.1-0.1 0 0h0.1c0.1 0 0 0 0 0v-0.1h-0.1c0.1 0.1-0.1 0 0.1 0.1z"/><path class="a" d="m1.2 5.5q0-0.1 0-0.1-0.1 0-0.2 0l0.1 0.1q0 0 0.1 0z"/><path class="a" d="m2.8 4.8z"/><path class="a" d="m2.7 4.8c0 0 0 0 0 0 0.1 0-0.1 0 0 0h0.1c0.1 0.1 0 0 0 0q-0.1 0-0.1 0z"/><path class="a" d="m1.4 4.8c-0.1 0 0 0-0.1 0l0.1 0.1q0 0 0 0 0-0.1 0-0.1z"/><path class="a" d="m2.8 4.6q0 0 0 0h-0.1 0.1q0 0 0 0z"/><path class="a" d="m3 3.9q0 0-0.1 0c0 0 0 0 0.1 0 0.1 0-0.1 0 0 0q0 0 0 0z"/><path class="a" d="m1.5 4.8q-0.1 0-0.1 0 0 0 0 0 0 0 0 0h0.1q0 0 0 0 0 0 0 0 0 0 0.1 0h-0.1c0 0-0.1 0 0 0z"/><path class="a" d="m1.5 4.8q0 0 0 0z"/><path class="a" d="m2.8 4.4c0.1 0 0.1 0 0.1 0q0 0-0.1 0c0 0 0.1 0 0 0z"/><path class="a" d="m3.7 1.1q0 0.1 0 0.1h0.1q0-0.1 0-0.1c-0.1 0 0 0.1-0.1 0z"/><path class="a" d="m3.3 2.8q0 0.1 0 0.1 0 0 0.1 0-0.1 0-0.1 0 0-0.1 0-0.1z"/><path class="a" d="m3.1 3.4h0.1q0 0 0 0 0 0 0 0 0 0-0.1 0 0 0 0 0z"/><path class="a" d="m3.4 2.5q0 0 0 0 0 0 0 0 0 0 0 0 0 0 0 0z"/><path class="a" d="m3.4 1.8q0.1 0.1 0.1 0.1c0.1 0-0.1-0.1 0 0q0-0.1 0-0.1-0.1 0-0.1 0z"/><path class="a" d="m2.9 4c0.1 0 0.1 0.1 0.2 0.1q0 0-0.1-0.1c-0.1 0 0 0 0 0-0.1 0 0 0-0.1 0z"/><path class="a" d="m1.1 5.4q0 0 0 0c0 0-0.1 0 0 0z"/><path class="a" d="m1.1 5.4z"/><path class="a" d="m1.1 5.4z"/><path class="a" d="m2.8 4.4z"/><path class="a" d="m2.8 4.4q-0.1 0-0.1 0 0.1 0 0.1 0h0.1-0.1q0 0 0 0z"/><path class="a" d="m2.8 4.4z"/><path class="a" d="m2.8 4.4z"/><path class="a" d="m3.2 2.7z"/><path class="a" d="m3.1 2.7q0 0 0 0h0.1q0 0 0 0z"/><path class="a" d="m3.2 2.7z"/><path class="a" d="m3.3 3q0 0 0 0 0 0 0 0 0 0 0 0z"/><path class="a" d="m2.1 5.3c-0.1 0-0.1 0-0.1 0-0.1 0-0.1 0-0.1 0h0.1q0.1 0 0.1 0z"/><path class="a" d="m1.8 5.4c0.1 0 0.1 0 0.1 0v-0.1q-0.1 0-0.1 0 0 0 0 0.1z"/><path fill-rule="evenodd" class="a" d="m3.7 0.2c0.1 0 0.1 0.1 0.1 0.1q-0.1 0-0.1 0 0 0 0 0c0.2 0 0.1 0.1 0.2 0.1 0 0 0.1 0.1 0.1 0.1-0.1-0.1 0 0-0.1 0 0 0 0-0.1-0.1-0.1q0 0.1 0 0.1 0 0 0 0.1c0 0 0 0 0 0 0 0 0 0 0 0q0.1 0 0.1 0 0 0 0 0c0 0-0.1 0.1 0 0.1q-0.1 0 0 0 0 0 0.1 0.1l-0.1-0.1q0.1 0 0.1 0.1 0 0 0 0-0.1 0-0.1 0 0 0 0.1 0c0 0.1-0.1 0.1 0 0.1q0.1 0-0.1 0 0 0 0 0c0 0-0.1 0 0 0q0 0 0 0 0 0 0 0h-0.1-0.1l0.1-0.1h-0.1q0 0 0 0.1l-0.7-0.3q0 0 0 0 0 0 0-0.1v0.1h-0.1q0-0.1 0-0.1c0.2 0.1 0.1 0 0.1 0q0.1 0 0.1 0 0 0 0 0-0.1 0-0.1 0 0 0 0-0.1 0 0 0 0 0 0 0.1-0.1 0 0 0 0 0-0.1 0.1-0.1-0.1 0-0.1 0 0 0 0 0 0 0 0 0c0-0.1 0.1 0 0-0.1 0 0 0.1 0 0.1 0q-0.1 0 0 0c0 0 0 0 0.1 0 0.1 0 0.1 0 0.1 0q0 0 0 0.1 0 0 0 0 0 0 0.1 0 0 0 0 0 0 0 0 0c0 0 0.1 0 0.1 0.1q0-0.1 0-0.1 0 0 0.1 0zm0.1 0.2q0 0 0 0zm0 0q0 0 0 0zm-0.2 0.3q0 0.1 0 0.1 0 0 0 0 0 0 0.1 0zm0.1 0v0.1q0 0 0.1 0 0 0 0 0c-0.1-0.1 0 0 0 0q0 0-0.1-0.1zm0-0.1q-0.1 0-0.1 0 0 0 0 0 0 0 0 0 0 0 0 0-0.1 0-0.1 0 0 0 0.1 0 0 0.1 0 0.1 0 0 0.1 0 0 0 0 0 0 0 0 0zm-0.1-0.1c0 0-0.1 0-0.1 0 0 0.1 0.1 0 0.1 0 0 0.1 0 0 0 0z"/><path class="a" d="m3.3 0q0 0 0 0.1h0.2q-0.1 0-0.1 0z"/></svg>